<svg width="36" height="24" viewBox="0 0 36 24" fill="none" xmlns="http://www.w3.org/2000/svg">
<path d="M5.22564 6.03638C5.11584 6.05672 4.89625 6.08925 4.73766 6.11771C4.392 6.17058 3.63969 6.4105 3.3347 6.56096C2.60273 6.92695 2.11881 7.28481 1.55357 7.88259C0.219745 9.2896 -0.288571 11.2375 0.158747 13.2097C0.35394 14.0637 0.780925 14.8892 1.4397 15.6781C1.85449 16.1742 2.81012 16.9062 3.32251 17.1177C3.4079 17.1543 3.53396 17.2071 3.59903 17.2356C3.74542 17.3007 4.41233 17.5243 4.55466 17.5528C4.61159 17.565 4.89625 17.6057 5.18497 17.6463C6.5066 17.813 8.05594 17.4186 9.17424 16.6256C9.56056 16.3491 10.2234 15.6944 10.5365 15.2796C11.2644 14.3118 11.7077 12.9169 11.6589 11.7661C11.606 10.5421 11.2482 9.4604 10.5894 8.50476C10.3007 8.08998 9.56056 7.34174 9.14984 7.05301C8.62119 6.68296 7.75909 6.29664 7.13691 6.15431C6.4944 6.00792 5.67702 5.95912 5.22564 6.03638ZM6.36833 6.44304C7.95021 6.59756 9.3491 7.3946 10.2722 8.67556C10.6382 9.17981 10.992 9.93618 11.118 10.4852C11.5979 12.5469 11.0326 14.4663 9.54429 15.857C8.78792 16.5646 7.81602 17.0363 6.68552 17.2519C6.38867 17.3047 5.22564 17.3129 4.98978 17.2559C4.29441 17.0973 4.08295 17.0363 3.76982 16.9103C3.29404 16.7192 3.21678 16.6785 2.73693 16.3532C2.27741 16.04 1.67556 15.4463 1.34617 14.9746C0.943586 14.4053 0.601998 13.5757 0.463736 12.8356C0.410871 12.555 0.402738 12.311 0.419004 11.6848C0.435271 10.8227 0.480002 10.5787 0.736194 9.91585C1.54137 7.83379 3.47297 6.47963 5.75836 6.40237C5.84782 6.40237 6.12434 6.41864 6.36833 6.44304Z" fill="url(#paint0_linear_1_6406)"/>
<path d="M4.98167 6.88224C4.55875 6.96357 3.92031 7.15876 3.63972 7.30109C2.26523 7.9924 1.28926 9.20016 0.927342 10.6682C0.805346 11.1643 0.780947 12.1077 0.874477 12.6689C1.1876 14.5395 2.54175 16.0929 4.33103 16.6378C4.83934 16.7924 5.62011 16.9062 5.9739 16.8778C7.08406 16.7842 7.83231 16.5443 8.61715 16.0197C9.72324 15.2837 10.4389 14.2142 10.7846 12.7828C10.8619 12.4574 10.8497 11.3026 10.7643 10.9122C10.6301 10.3063 10.3373 9.57835 10.0242 9.0863C9.33692 7.9924 8.1251 7.17503 6.79127 6.90257C6.29922 6.80091 5.46152 6.79278 4.98167 6.88224ZM6.62455 7.27262C8.20236 7.52882 9.58905 8.65524 10.1543 10.1395C10.8375 11.9207 10.443 13.8035 9.10919 15.1414C8.25116 16.0035 7.08406 16.4833 5.84377 16.4833C5.04267 16.4833 4.42456 16.3369 3.72105 15.9872C3.21273 15.731 2.84268 15.4626 2.49702 15.0885C1.61052 14.1329 1.20793 13.1122 1.212 11.8271C1.212 10.9854 1.33399 10.473 1.72031 9.72067C1.95617 9.25709 2.16763 8.9643 2.52549 8.59831C3.60718 7.50442 5.09147 7.02457 6.62455 7.27262Z" fill="url(#paint1_linear_1_6406)"/>
<path d="M5.33142 7.66297C3.61535 7.87443 2.19206 9.11066 1.76101 10.7698C1.62275 11.3106 1.59022 12.0792 1.68375 12.5916C2.08227 14.7184 4.07487 16.2352 6.19759 16.036C7.23862 15.9343 8.03566 15.5683 8.74324 14.8567C8.95877 14.6452 9.15802 14.4337 9.19056 14.389C9.54434 13.9092 9.7558 13.4618 9.92253 12.8437C10.0445 12.4005 10.073 11.6197 9.99166 11.1765C9.9144 10.7779 9.84933 10.5258 9.8046 10.4323C9.78427 10.3957 9.71921 10.2452 9.65414 10.0988C9.40608 9.52951 8.84897 8.83413 8.36099 8.48034C8.24712 8.39901 8.14546 8.32175 8.13326 8.30955C8.09666 8.26482 7.46635 7.95983 7.23862 7.87037C6.75064 7.68331 5.9048 7.58978 5.33142 7.66297ZM6.51072 8.08996C8.26746 8.39088 9.54841 9.83043 9.66227 11.64C9.76394 13.2138 8.81237 14.755 7.36875 15.3609C6.76691 15.613 6.57578 15.6496 5.83567 15.6496C5.23789 15.6496 5.09963 15.6374 4.81904 15.5561C3.70075 15.2348 2.77764 14.4378 2.35066 13.4171C2.16766 12.9901 2.1636 12.9779 2.13513 12.8437C1.98467 12.1524 1.96434 11.7702 2.0538 11.2618C2.22053 10.3184 2.68818 9.50104 3.41202 8.89513C3.71294 8.64301 4.37579 8.27702 4.69704 8.18755C5.30296 8.02083 5.9048 7.98829 6.51072 8.08996Z" fill="url(#paint2_linear_1_6406)"/>
<path d="M5.34767 8.69586C4.91662 8.76499 4.75396 8.81786 4.38391 9.00898C4.06672 9.17165 3.5462 9.58643 3.39574 9.78976C3.35101 9.85076 3.28188 9.94022 3.24121 9.98902C2.91182 10.3753 2.64343 11.213 2.64343 11.8474C2.64343 13.2626 3.65193 14.5679 5.01015 14.9176C5.43307 15.0274 5.81126 15.06 6.14878 15.0152C7.01495 14.9054 7.77946 14.4907 8.29997 13.8441C9.34914 12.5509 9.24341 10.7657 8.04785 9.57423C7.5436 9.06998 6.93769 8.78126 6.16911 8.67959C5.79499 8.62673 5.77466 8.62673 5.34767 8.69586ZM5.16875 9.43597C5.19721 9.5173 5.22161 9.52543 5.33547 9.49697C5.49 9.46444 6.13251 9.4563 6.33991 9.48883C6.47003 9.50917 6.48223 9.50103 6.5351 9.33837L6.59203 9.17165L6.83196 9.25298C7.07595 9.33431 7.44194 9.5539 7.66559 9.74909L7.78759 9.85482L7.66153 9.98088L7.5314 10.1069L7.72253 10.3591C7.88519 10.5705 8.05598 10.8959 8.14951 11.1683C8.16578 11.2171 8.19831 11.2334 8.24304 11.2212C8.5399 11.1358 8.5277 11.1317 8.58056 11.3879C8.63343 11.6238 8.61716 12.3232 8.56023 12.4696C8.5277 12.5428 8.48297 12.5428 8.24711 12.4737C8.20238 12.4615 8.16984 12.4859 8.15358 12.5469C8.08445 12.7665 7.84045 13.226 7.70626 13.3805C7.62899 13.474 7.56393 13.5635 7.56393 13.5798C7.56393 13.596 7.61273 13.6611 7.67373 13.7262C7.76319 13.8238 7.77132 13.8441 7.72253 13.9051C7.63713 14.0108 7.21014 14.2873 6.98242 14.389C6.60016 14.5557 6.60016 14.5557 6.5473 14.3809L6.4985 14.2263H5.83566H5.16875L5.13215 14.3687C5.10775 14.4785 5.07928 14.511 5.01422 14.5029C4.86376 14.4866 4.25378 14.1653 4.06672 14.0027L3.88372 13.8441L4.00979 13.714L4.13991 13.5879L3.94879 13.3358C3.78613 13.1243 3.6194 12.799 3.5218 12.5225C3.50147 12.4696 3.473 12.4533 3.40387 12.4737C3.11922 12.5509 3.14362 12.5672 3.09482 12.2825C3.03789 11.9572 3.03789 11.7376 3.09482 11.4123C3.13142 11.2008 3.15175 11.1561 3.20868 11.1724C3.45267 11.2456 3.4974 11.2456 3.5218 11.1724C3.6194 10.8877 3.79019 10.5746 3.95692 10.3672L4.14805 10.1232L4.01792 9.98902C3.94879 9.91582 3.89592 9.85076 3.90812 9.84262C4.28631 9.5295 4.6035 9.33837 4.92069 9.22451C5.07522 9.16758 5.05895 9.15538 5.16875 9.43597Z" fill="url(#paint3_linear_1_6406)"/>
<path d="M5.34758 9.79387C4.92059 9.90367 4.59934 10.0907 4.27402 10.4283C3.7047 11.026 3.57051 12.0467 3.96089 12.8194C4.09509 13.0756 4.42041 13.4293 4.69693 13.6164C5.28658 14.0068 6.09582 14.0556 6.75866 13.7425C7.04739 13.6042 7.44591 13.2423 7.62077 12.9536C7.86069 12.555 7.94202 12.2297 7.92169 11.7499C7.90542 11.4002 7.88102 11.2904 7.7631 11.0138C7.64923 10.7454 7.57197 10.6356 7.31984 10.3795C6.7668 9.82641 6.05109 9.61088 5.34758 9.79387ZM6.27475 10.0379C7.02299 10.2331 7.54757 10.8024 7.6899 11.575C7.84849 12.4331 7.27511 13.344 6.38861 13.6408C6.05922 13.7547 5.49804 13.7343 5.16458 13.6042C4.7132 13.4253 4.27808 12.9942 4.10322 12.551C4.02189 12.3517 4.00562 12.2419 4.00562 11.8434V11.3717L4.17642 11.0301C4.41634 10.5462 4.7376 10.2575 5.20525 10.107C5.35165 10.0623 5.49804 10.0135 5.53057 10.0013C5.6607 9.9606 6.05109 9.98093 6.27475 10.0379Z" fill="url(#paint4_linear_1_6406)"/>
<path d="M16.2953 9.42038C15.6352 10.866 15.0804 12.0768 15.0683 12.1092C15.048 12.1659 15.0926 12.174 15.3882 12.174H15.7284L16.0847 11.3641L16.4411 10.5542H17.5182H18.5954L18.9437 11.356L19.2919 12.1538L19.6442 12.1659L19.9925 12.1781L19.8588 11.8825C18.8505 9.67549 17.5466 6.84085 17.5263 6.8206C17.5142 6.8044 16.9594 7.97471 16.2953 9.42038ZM17.9677 9.13286C18.1904 9.63095 18.3686 10.048 18.3605 10.0561C18.3524 10.0642 17.9596 10.0642 17.4899 10.0602L16.6354 10.048L17.0647 9.10452C17.2996 8.58618 17.5101 8.17718 17.5263 8.19338C17.5425 8.20958 17.741 8.63477 17.9677 9.13286Z" fill="black"/>
<path d="M32.1127 6.95021C32.0681 7.05145 31.5619 8.15291 30.9869 9.40015C30.4119 10.6474 29.8935 11.7813 29.8287 11.923L29.7113 12.1781L30.0596 12.166L30.4078 12.1538L30.7561 11.3723L31.1043 10.5948L32.1936 10.6029L33.2828 10.615L33.6311 11.3925L33.9753 12.1741H34.3154C34.4976 12.1741 34.6515 12.166 34.6515 12.1538C34.6515 12.1417 34.1372 11.0159 33.5136 9.65122C32.8861 8.28654 32.3313 7.08384 32.2827 6.97046L32.1936 6.77203L32.1127 6.95021ZM32.6431 9.12884L33.0683 10.0683H32.1977C31.7199 10.0683 31.3311 10.0562 31.3311 10.044C31.3311 10.0157 32.0276 8.46877 32.1289 8.2744C32.1612 8.2096 32.1936 8.16506 32.2058 8.17316C32.2139 8.18531 32.4123 8.61455 32.6431 9.12884Z" fill="black"/>
<path d="M20.4501 8.84131C20.4703 10.9227 20.4744 10.9754 20.7254 11.4451C21.0413 12.0364 21.6163 12.3077 22.5639 12.3117C23.6856 12.3117 24.2849 11.9432 24.5805 11.0685C24.6615 10.8296 24.6696 10.7203 24.6818 8.8818L24.6939 6.9502H24.37H24.046L24.0339 8.86156C24.0217 10.7608 24.0217 10.777 23.9286 10.9997C23.6937 11.5545 23.2159 11.8015 22.4465 11.7569C21.8188 11.7245 21.4786 11.5302 21.2559 11.0928C21.102 10.7891 21.0858 10.5664 21.0858 8.73197V6.9502H20.7578H20.4298L20.4501 8.84131Z" fill="black"/>
<path d="M25.7833 9.56212V12.174H26.087H26.3907V10.9187C26.3907 9.87393 26.3988 9.66336 26.4474 9.66336C26.4798 9.66336 26.9577 10.2262 27.5084 10.9187L28.5167 12.174H28.9176C29.2902 12.174 29.3145 12.17 29.2618 12.1052C29.2294 12.0647 28.7597 11.5059 28.2171 10.858L27.229 9.6836L27.5934 9.65931C28.3224 9.60666 28.703 9.2989 28.8164 8.66313C28.9014 8.20149 28.7678 7.68315 28.4803 7.36324C28.1847 7.03524 27.7959 6.95424 26.5649 6.9502H25.7833V9.56212ZM27.4396 7.51712C28.0024 7.61026 28.1928 7.82894 28.1928 8.38777C28.1928 9.04783 27.9741 9.18957 26.8929 9.23816L26.4029 9.25841V8.36752L26.3988 7.47663H26.7917C27.0063 7.47663 27.2978 7.49688 27.4396 7.51712Z" fill="black"/>
<path d="M34.2263 13.64C33.4204 13.729 32.8818 14.3851 32.8818 15.284C32.8818 15.77 33.0681 16.2154 33.4002 16.5151C33.6998 16.7824 33.9712 16.8755 34.453 16.8755C35.352 16.8714 35.8785 16.3734 35.9757 15.442L35.9999 15.2112H35.3723C34.781 15.2112 34.7446 15.2152 34.7446 15.2881C34.7446 15.3326 34.7325 15.3934 34.7203 15.4298C34.7001 15.4865 34.7527 15.4946 35.1455 15.4946H35.595V15.604C35.595 15.7619 35.4249 16.098 35.267 16.2559C35.0929 16.4301 34.9471 16.507 34.692 16.5475C34.1493 16.6325 33.6634 16.4017 33.4123 15.9401C33.2746 15.689 33.2665 15.6606 33.2665 15.2719C33.2665 14.9196 33.2787 14.8386 33.3718 14.6402C33.5095 14.3486 33.7727 14.0975 34.0562 13.9923C34.4935 13.8262 35.0605 13.9639 35.3601 14.3162L35.4938 14.4741L35.6355 14.3608L35.7772 14.2433L35.5788 14.0409C35.2548 13.7088 34.7972 13.5752 34.2263 13.64Z" fill="black"/>
<path d="M19.5591 13.6886C19.2877 13.7655 19.146 13.8506 18.9354 14.0652C18.6115 14.3932 18.4657 14.7576 18.4657 15.2517C18.4657 15.932 18.7694 16.4706 19.308 16.7459C19.5429 16.8634 19.9438 16.9201 20.2596 16.8755C21.0533 16.7621 21.4826 16.2884 21.5555 15.442L21.5798 15.2071L20.944 15.2193L20.3082 15.2314L20.2961 15.3813L20.2839 15.5352H20.7294C21.2396 15.5352 21.2275 15.5271 21.1019 15.8551C20.9359 16.2965 20.6038 16.5435 20.13 16.5759C19.6401 16.6123 19.2149 16.3774 18.9678 15.932C18.8585 15.7336 18.8504 15.685 18.8504 15.2922C18.8504 14.9196 18.8625 14.8386 18.9557 14.6402C19.1703 14.1826 19.5469 13.9397 20.045 13.9356C20.4216 13.9356 20.6767 14.0409 20.9116 14.3001L21.0776 14.4782L21.2153 14.3648L21.3489 14.2555L21.2153 14.1016C21.0412 13.9032 20.8428 13.7777 20.5714 13.6967C20.3163 13.6197 19.8182 13.6157 19.5591 13.6886Z" fill="black"/>
<path d="M22.4383 15.1586C22.0738 16.0009 21.7661 16.7136 21.758 16.7419C21.7418 16.7824 21.7823 16.7905 21.9281 16.7824L22.1184 16.7703L22.3087 16.3167L22.495 15.8591H23.1227H23.7503L23.9447 16.3248L24.1431 16.7905H24.3213C24.4225 16.7905 24.4954 16.7784 24.4873 16.7581C24.4792 16.7419 24.1755 16.0332 23.807 15.1829C23.4426 14.3325 23.1308 13.6319 23.1186 13.6319C23.1065 13.6319 22.7987 14.3203 22.4383 15.1586ZM23.3737 14.9763L23.6005 15.5149L23.1348 15.5271C22.8756 15.5311 22.661 15.5311 22.6529 15.523C22.6367 15.5068 22.7096 15.3367 22.9404 14.8265C22.989 14.7131 23.0417 14.5835 23.0579 14.5309C23.0741 14.4823 23.1024 14.4418 23.1186 14.4418C23.1308 14.4418 23.2482 14.6848 23.3737 14.9763Z" fill="black"/>
<path d="M24.9125 15.1828C24.7505 16.0332 24.6169 16.7419 24.6209 16.7581C24.6209 16.7945 24.9449 16.8026 24.9449 16.7662C24.9449 16.7338 25.2608 14.9804 25.2891 14.8548C25.3013 14.8022 25.3296 14.7657 25.3539 14.7738C25.3782 14.7819 25.6009 15.2638 25.852 15.851L26.3055 16.912L26.7672 15.8186C27.0182 15.2152 27.2369 14.7252 27.2531 14.7252C27.2693 14.7252 27.3503 15.1019 27.4313 15.5635C27.6783 16.9201 27.6378 16.7905 27.8281 16.7905C27.982 16.7905 27.9861 16.7864 27.9658 16.6771C27.9537 16.6164 27.8241 15.9401 27.6783 15.1707C27.5325 14.4013 27.4029 13.7412 27.3867 13.6967C27.3746 13.6481 27.245 13.9113 27.0061 14.4863C26.3501 16.0575 26.3096 16.1466 26.2812 16.1142C26.261 16.098 26.0261 15.5432 25.7507 14.8872C25.4794 14.2312 25.2446 13.6805 25.2324 13.6643C25.2203 13.6481 25.0745 14.3324 24.9125 15.1828Z" fill="black"/>
<path d="M29.6423 15.2112V16.7905H29.8043H29.9663V15.6323C29.9663 14.9399 29.9825 14.4823 30.0027 14.4904C30.023 14.4944 30.4806 14.9844 31.0192 15.5757C31.5577 16.1669 32.0518 16.7014 32.1166 16.7703L32.234 16.8917V15.3003V13.7129H32.072H31.9101L31.902 14.8953L31.8898 16.0737L30.7843 14.8548C30.1728 14.1826 29.6666 13.6319 29.6585 13.6319C29.6504 13.6319 29.6423 14.3406 29.6423 15.2112Z" fill="black"/>
<path d="M13.6873 15.2517V16.7905H14.4972H15.3071V16.6488V16.507H14.6794H14.0517V15.8794V15.2517H14.6794H15.3071V15.0897V14.9277H14.6794H14.0517V14.462V13.9964H14.6794H15.3071V13.8546V13.7129H14.4972H13.6873V15.2517Z" fill="black"/>
<path d="M16.0718 15.4048V15.2014H17.4822V15.4048H16.0718Z" fill="black"/>
<path d="M28.5084 15.2517V16.7905H28.6907H28.8729V15.2517V13.7129H28.6907H28.5084V15.2517Z" fill="black"/>
<defs>
<linearGradient id="paint0_linear_1_6406" x1="11.5208" y1="17.3386" x2="0.668167" y2="7.39708" gradientUnits="userSpaceOnUse">
<stop stop-color="#16D7EF"/>
<stop offset="1" stop-color="#F307F4"/>
</linearGradient>
<linearGradient id="paint1_linear_1_6406" x1="10.7143" y1="16.5847" x2="1.37048" y2="8.04643" gradientUnits="userSpaceOnUse">
<stop stop-color="#16D7EF"/>
<stop offset="1" stop-color="#F307F4"/>
</linearGradient>
<linearGradient id="paint2_linear_1_6406" x1="9.93554" y1="15.8047" x2="2.11828" y2="8.63774" gradientUnits="userSpaceOnUse">
<stop stop-color="#16D7EF"/>
<stop offset="1" stop-color="#F307F4"/>
</linearGradient>
<linearGradient id="paint3_linear_1_6406" x1="8.94352" y1="14.8457" x2="3.0058" y2="9.40947" gradientUnits="userSpaceOnUse">
<stop stop-color="#16D7EF"/>
<stop offset="1" stop-color="#F307F4"/>
</linearGradient>
<linearGradient id="paint4_linear_1_6406" x1="7.87381" y1="13.8226" x2="3.95858" y2="10.2557" gradientUnits="userSpaceOnUse">
<stop stop-color="#16D7EF"/>
<stop offset="1" stop-color="#F307F4"/>
</linearGradient>
</defs>
</svg>
