<svg width="36" height="24" viewBox="0 0 36 24" fill="none" xmlns="http://www.w3.org/2000/svg">
<path d="M16.0749 1.97163C16.0327 1.99873 15.8701 2.12821 15.7135 2.25769C15.5569 2.39018 15.4154 2.5046 15.3974 2.51665C15.3823 2.52869 15.2709 2.62204 15.1565 2.72442C15.039 2.8268 14.9065 2.92315 14.8614 2.94122C14.8011 2.96531 13.1239 2.97435 9.37203 2.97435C4.63549 2.97435 3.96701 2.98037 3.95195 3.01951C3.94292 3.0436 3.9098 3.17007 3.87969 3.29654C3.81043 3.58561 3.74117 3.87167 3.57857 4.49498C3.50931 4.75996 3.42801 5.07914 3.3979 5.2026C3.19916 5.99755 3.15701 6.16316 2.9131 7.09963C2.73846 7.77714 2.67823 8.01502 2.55478 8.51487C2.49757 8.73769 2.30485 9.49048 2.19043 9.93011C2.15731 10.0536 2.10612 10.2583 2.07299 10.3818C2.0218 10.5926 1.97965 10.7642 1.8321 11.3363C1.80199 11.4658 1.74478 11.6796 1.70864 11.8121C1.67552 11.9446 1.62132 12.1554 1.59121 12.2788C1.5611 12.4023 1.4798 12.7215 1.41054 12.9864C1.34128 13.2514 1.25998 13.5706 1.22987 13.6941C1.19976 13.8175 1.14556 14.0283 1.10942 14.1608C1.0763 14.2933 1.0221 14.5101 0.991988 14.6426C0.958865 14.7751 0.907676 14.9919 0.871542 15.1244C0.835408 15.2568 0.784218 15.4526 0.760129 15.561C0.733029 15.6694 0.699906 15.7687 0.68485 15.7838C0.669794 15.8019 0.65775 15.85 0.65775 15.8922C0.65775 15.9765 0.115742 18.1476 0.037452 18.3824C0.0103516 18.4547 -0.00470419 18.5209 0.00131812 18.527C0.00734043 18.533 3.78333 18.545 8.39642 18.5571C13.0095 18.5691 16.7915 18.5872 16.8036 18.5992C16.8216 18.6143 16.6922 19.1382 16.5235 19.7314C16.4904 19.8458 16.4392 20.0355 16.4061 20.153C16.376 20.2674 16.2947 20.5655 16.2254 20.8154C16.1562 21.0623 16.0749 21.3605 16.0448 21.4779C16.0146 21.5923 15.9695 21.7549 15.9424 21.8332C15.9062 21.9446 15.9062 21.9808 15.9333 21.9928C15.9544 21.9988 19.634 22.0018 24.1116 21.9988L32.2538 21.9898L32.3652 21.5381C32.4254 21.2882 32.5128 20.9299 32.5579 20.7402C32.6001 20.5505 32.6573 20.3246 32.6784 20.2433C32.7025 20.159 32.7838 19.8278 32.859 19.5056C32.9795 19.0057 33.0096 18.8763 33.0427 18.7528C33.0427 18.7438 33.0849 18.5751 33.13 18.3764C33.1782 18.1777 33.2565 17.8585 33.3047 17.6688C33.3559 17.4791 33.4161 17.2352 33.4372 17.1268C33.4613 17.0184 33.5365 16.7082 33.6028 16.4342C33.669 16.1602 33.7774 15.7145 33.8437 15.4405C33.9099 15.1665 33.9762 14.8955 33.9912 14.8383C34.0274 14.7118 34.1026 14.3926 34.1418 14.209C34.1599 14.1367 34.2321 13.8265 34.3074 13.5164C34.3857 13.2093 34.5001 12.7335 34.5664 12.4595C34.6326 12.1855 34.6989 11.9145 34.7169 11.8573C34.732 11.8 34.7681 11.6555 34.7922 11.5411C34.9126 10.9991 34.997 10.6377 35.0752 10.3517C35.1054 10.2403 35.2499 9.64104 35.3493 9.20744C35.3794 9.06591 35.4215 8.90933 35.4366 8.86115C35.4516 8.80996 35.4848 8.68349 35.5089 8.57509C35.5329 8.46669 35.5811 8.26494 35.6173 8.12342C35.6504 7.9819 35.7076 7.75305 35.7407 7.61152C35.8491 7.15082 35.9123 6.90691 35.9605 6.73829C35.9846 6.64795 36.0027 6.57267 35.9997 6.56966C35.9967 6.56665 32.3562 6.55461 27.9087 6.54557L19.8237 6.5245L19.7184 6.41007C19.6611 6.34684 19.4775 6.12401 19.3119 5.91022C19.1462 5.69944 18.6554 5.07613 18.2188 4.5281C17.7852 3.98007 17.2703 3.32966 17.0746 3.08275C16.8819 2.83583 16.6681 2.57085 16.6018 2.49557C16.5356 2.41728 16.4091 2.25769 16.3218 2.13725C16.2314 2.01981 16.1562 1.92044 16.1532 1.92044C16.1501 1.92044 16.114 1.94453 16.0749 1.97163ZM16.4001 3.3658C16.5536 3.5555 16.915 4.00416 17.201 4.35948C17.4901 4.71479 17.8454 5.15442 17.993 5.3381C18.1405 5.51877 18.4928 5.96141 18.7789 6.31673C19.068 6.67204 19.348 7.01532 19.4082 7.07855L19.5136 7.18996H27.2252C31.4679 7.18996 34.9638 7.18996 34.9939 7.18996C35.0512 7.18996 35.0632 7.27729 35.018 7.41881C35.003 7.46699 34.9548 7.66874 34.9096 7.86747C34.8344 8.19569 34.7711 8.46669 34.5513 9.3881C34.5092 9.56275 34.4489 9.8187 34.4158 9.96022C34.1629 11.0322 33.9852 11.782 33.9461 11.9325C33.922 12.0138 33.8618 12.2668 33.8106 12.4896C33.651 13.1852 33.4763 13.9139 33.4492 14.0253C33.4342 14.0825 33.386 14.2782 33.3438 14.4619C33.3017 14.6426 33.2475 14.8744 33.2234 14.9738C33.106 15.4736 32.8651 16.4764 32.6362 17.4279L32.5248 17.8946L28.2219 17.9097C25.8551 17.9187 18.7458 17.9217 12.4253 17.9157C1.1847 17.9097 0.928754 17.9097 0.928754 17.8525C0.928754 17.8223 0.979943 17.5875 1.04619 17.3345C1.10942 17.0786 1.21782 16.6329 1.28708 16.3439C1.35935 16.0548 1.45571 15.6513 1.50388 15.4465C1.55507 15.2448 1.60325 15.0431 1.60927 14.9979C1.61831 14.9557 1.68455 14.6667 1.75983 14.3595C1.83511 14.0524 1.92846 13.6579 1.97061 13.4833C2.00976 13.3086 2.05794 13.1129 2.07299 13.0467C2.08805 12.9804 2.19645 12.5197 2.31388 12.0229C2.43132 11.526 2.5608 10.978 2.60296 10.8033C2.6421 10.6287 2.6963 10.4119 2.72039 10.3216C2.74448 10.2312 2.81675 9.92409 2.88299 9.64405C2.94924 9.361 3.05162 8.93643 3.10883 8.69554C3.16604 8.45465 3.25337 8.07524 3.30455 7.84639C3.35574 7.62056 3.41898 7.38268 3.44608 7.31342L3.49426 7.18996L7.21906 7.18394L10.9408 7.17491L11.1516 7.00026C11.2691 6.9039 11.519 6.69914 11.7087 6.54557C12.2387 6.11799 12.7355 5.70847 13.2594 5.27788C13.5214 5.06108 13.8255 4.81115 13.94 4.72082C14.0514 4.63048 14.3163 4.41368 14.5271 4.23903C14.7379 4.06438 15.027 3.82951 15.1655 3.71509C15.6834 3.29955 15.9695 3.05866 15.9815 3.02855C16.0116 2.94423 16.1411 3.04661 16.4001 3.3658ZM5.26482 3.81747C5.27987 3.84156 5.28288 3.87167 5.27385 3.88371C5.26783 3.89877 5.2347 4.00717 5.20459 4.12762C5.17448 4.24806 5.12028 4.44379 5.08716 4.56424C5.05102 4.68468 5.02995 4.79609 5.03898 4.81115C5.04801 4.82621 5.18653 4.83524 5.34612 4.83223L5.6382 4.82621L5.70746 4.54015C5.7466 4.38357 5.79779 4.18784 5.82188 4.10654C5.84597 4.02825 5.86705 3.93189 5.86705 3.89576C5.86705 3.78133 5.94534 3.76327 6.42411 3.7723L6.87578 3.78133L6.86675 3.85059C6.85772 3.9349 6.68909 4.6365 6.40604 5.77472C6.2856 6.2565 6.18021 6.61483 6.15612 6.63591C6.11396 6.66602 5.24073 6.66 5.2076 6.62989C5.19556 6.61784 5.27686 6.27156 5.37623 5.91624C5.41839 5.7687 5.44549 5.64524 5.43946 5.63922C5.43645 5.63319 5.29794 5.62416 5.13835 5.61814L4.84627 5.60911L4.76497 5.92528C4.7198 6.09992 4.65957 6.32877 4.63247 6.43717L4.58128 6.6329L4.07842 6.64193C3.79838 6.64494 3.57857 6.63892 3.57857 6.62085C3.57857 6.60881 3.59664 6.54256 3.62073 6.47632C3.6418 6.41308 3.70504 6.18424 3.75623 5.97044C3.80742 5.75364 3.87065 5.50372 3.89474 5.41338C3.97303 5.11528 4.20489 4.16676 4.22597 4.0433C4.23801 3.98007 4.27114 3.88974 4.30125 3.84758C4.35545 3.7723 4.35846 3.7723 4.79809 3.7723C5.14437 3.77531 5.24374 3.78435 5.26482 3.81747ZM12.5458 3.80241C12.5608 3.81446 12.4133 4.41067 12.3681 4.53412C12.341 4.60037 12.332 4.60338 11.9586 4.59736L11.5762 4.59435L11.5491 4.67866C11.522 4.77201 11.4407 5.09721 11.3504 5.46457C11.3202 5.59405 11.242 5.91323 11.1787 6.17219L11.0613 6.64795H10.5524C10.0827 6.64795 10.0465 6.64494 10.0676 6.59375C10.1068 6.49438 10.5765 4.60338 10.5614 4.59134C10.5554 4.58531 10.3747 4.58832 10.164 4.59736L9.77553 4.61543L9.79359 4.51305C9.81768 4.3655 9.96523 3.83855 9.99534 3.80241C10.0164 3.7723 12.5187 3.7723 12.5458 3.80241ZM9.24556 3.82349C9.31181 3.84156 9.4172 3.91081 9.48344 3.97405C9.58582 4.07342 9.60088 4.10353 9.60088 4.23C9.60088 4.4197 9.19136 6.08487 9.10705 6.24145C9.04382 6.35587 8.86315 6.53353 8.7427 6.59676C8.63129 6.65699 8.57106 6.66301 7.88753 6.67204C6.92095 6.6871 6.86374 6.67807 6.68909 6.51245L6.55058 6.37996L6.56865 6.20531C6.59575 5.90721 6.99924 4.34141 7.08657 4.19386C7.1769 4.03728 7.39069 3.8807 7.58341 3.82951C7.76709 3.77832 9.08296 3.77531 9.24556 3.82349ZM19.4714 18.5119H20.17L20.155 18.5932C20.1429 18.6414 20.1008 18.8221 20.0586 18.9967L19.9803 19.3189L19.7515 19.3339C19.625 19.343 19.2306 19.346 18.8722 19.34L18.2188 19.3309L18.1375 19.6802C18.0923 19.8729 18.0231 20.147 17.9839 20.2885C17.8755 20.6739 17.8454 20.6438 18.3152 20.6468C18.538 20.6498 18.7277 20.6408 18.7367 20.6257C18.7427 20.6137 18.7578 20.5535 18.7698 20.4902L18.7909 20.3788H18.5169C18.3664 20.3788 18.2429 20.3728 18.2429 20.3668C18.2429 20.3608 18.267 20.2945 18.3001 20.2222C18.3302 20.147 18.3754 20.0084 18.3965 19.9091C18.4597 19.6019 18.4085 19.626 19.0559 19.626C19.6039 19.626 19.631 19.629 19.7063 19.6923C19.8509 19.8218 19.8509 19.8218 19.6551 20.5806C19.5527 20.975 19.4624 21.3364 19.4564 21.3815L19.4413 21.4658L18.3965 21.4568L17.3546 21.4478L17.204 21.3725C17.0204 21.2792 16.9361 21.1467 16.9391 20.9539C16.9391 20.7974 17.3094 19.2737 17.4058 19.0328C17.5052 18.7739 17.728 18.5812 18.011 18.5089C18.0652 18.4938 18.2579 18.4908 18.4386 18.4968C18.6223 18.5059 19.086 18.5119 19.4714 18.5119ZM22.7385 18.5812C22.9493 18.7197 22.9554 18.9034 22.7596 19.6863C22.5127 20.6829 22.3923 21.1497 22.3411 21.3123L22.2869 21.4779L21.8683 21.4839C21.6395 21.4899 21.4347 21.4809 21.4136 21.4689C21.3865 21.4508 21.3865 21.4116 21.4227 21.2912C21.507 20.9991 21.6666 20.3818 21.6575 20.3728C21.6545 20.3668 21.4678 20.3668 21.242 20.3728L20.8325 20.3818V20.4631C20.8295 20.5083 20.7723 20.7552 20.703 21.0112L20.5765 21.4779H20.2001C19.7364 21.4809 19.6882 21.4719 19.6882 21.3996C19.6882 21.3334 19.7364 21.1286 19.8087 20.8757C19.8388 20.7763 19.9743 20.2463 20.1128 19.7013C20.2483 19.1533 20.3778 18.6625 20.4019 18.6083L20.444 18.5089L21.5491 18.5179C22.5458 18.527 22.6663 18.533 22.7385 18.5812ZM25.7226 18.539L26.3489 18.5571L26.4212 18.6474C26.5446 18.804 26.5236 18.9847 26.2526 20.0657C26.1201 20.5956 25.9996 21.0744 25.9816 21.1316C25.9665 21.1888 25.9394 21.2942 25.9213 21.3635L25.8882 21.4929H25.4396C24.9819 21.4929 24.9337 21.4809 24.9879 21.3725C24.9999 21.3484 25.0812 21.0563 25.1655 20.7251C25.2498 20.3939 25.3613 19.9693 25.4094 19.7796C25.4606 19.5899 25.4998 19.4152 25.4998 19.3942C25.4998 19.3671 25.4516 19.355 25.3372 19.355C25.1475 19.355 25.1535 19.343 25.033 19.8519C24.9909 20.0325 24.9307 20.2764 24.8975 20.3939C24.8644 20.5083 24.7952 20.7883 24.744 21.0112C24.6898 21.234 24.6326 21.4357 24.6175 21.4538C24.5964 21.4809 24.476 21.4929 24.202 21.4929H23.8135V21.4207C23.8135 21.3815 23.8346 21.2942 23.8587 21.2219C23.8828 21.1527 23.9671 20.8425 24.0424 20.5354C24.1177 20.2252 24.214 19.8579 24.2532 19.7194C24.3585 19.358 24.3555 19.355 24.1658 19.355H24.0093L23.9129 19.7374C23.8587 19.9512 23.7383 20.43 23.6449 20.8064L23.4733 21.4929H23.0276C22.7837 21.4929 22.5759 21.4839 22.5699 21.4689C22.5639 21.4568 22.603 21.2792 22.6572 21.0714C22.7114 20.8636 22.853 20.3096 22.9704 19.8368C23.0878 19.3641 23.2113 18.8793 23.2474 18.7618L23.3137 18.542L23.7985 18.533C24.7229 18.5179 25.0963 18.5179 25.7226 18.539ZM29.4655 18.5842C29.4926 18.6113 29.2938 19.337 29.2457 19.3851C29.2125 19.4213 29.1854 19.4213 29.1101 19.3942C29.0559 19.3731 28.9927 19.3671 28.9656 19.3791C28.9385 19.3912 28.6404 19.3942 28.3062 19.3851C27.9147 19.3761 27.6829 19.3821 27.6678 19.4002C27.6528 19.4152 27.6347 19.4785 27.6226 19.5357L27.6046 19.6411L28.252 19.6321C28.9867 19.62 28.9777 19.614 28.8933 19.8458C28.8693 19.9151 28.8241 20.0717 28.797 20.1891L28.7458 20.4089H28.0713H27.3968L27.3848 20.4752C27.3757 20.5143 27.3637 20.5745 27.3607 20.6107L27.3516 20.6799L28.1255 20.686C28.5501 20.692 28.9084 20.707 28.9204 20.7191C28.9355 20.7311 28.9054 20.9088 28.8542 21.1105L28.7639 21.4779L27.7581 21.4869L26.7554 21.4929L26.5657 21.4056C26.3369 21.2972 26.2375 21.1467 26.2706 20.957C26.2887 20.8606 26.5477 19.8157 26.6922 19.2647C26.7675 18.9816 26.8789 18.819 27.1077 18.6745C27.2914 18.5571 27.4841 18.542 28.4929 18.5541C29.0198 18.5631 29.4594 18.5751 29.4655 18.5842ZM32.3652 18.6052C32.3652 18.7227 32.1665 19.358 32.1213 19.3851C32.1063 19.3972 31.7509 19.4002 31.3384 19.3912C30.9168 19.3821 30.5736 19.3881 30.5585 19.4032C30.5435 19.4183 30.5224 19.4815 30.5133 19.5417L30.4923 19.6561H31.2752C31.7088 19.6561 32.0671 19.6652 32.0761 19.6802C32.0972 19.7164 31.8021 20.8606 31.7268 21.0232C31.6907 21.1015 31.6004 21.2189 31.5311 21.2822C31.2842 21.499 31.3203 21.4929 30.1099 21.4929C29.0951 21.4929 29.0228 21.4899 29.0228 21.4387C29.0228 21.4116 29.068 21.237 29.1222 21.0563L29.2186 20.7251L30.0225 20.7161C30.6127 20.71 30.8295 20.698 30.8536 20.6709C30.8687 20.6528 30.8897 20.5836 30.8988 20.5203L30.9168 20.4089H30.2965C29.61 20.4089 29.5769 20.3999 29.4474 20.2072C29.3691 20.0837 29.3661 20.1018 29.5167 19.5206C29.6401 19.0539 29.7184 18.8943 29.887 18.7648C30.1249 18.5842 30.2002 18.5751 31.3354 18.5721C32.0671 18.5721 32.3652 18.5812 32.3652 18.6052Z" fill="#FD3C3D"/>
<path d="M15.6683 5.00988C15.4877 5.1514 15.1354 5.42241 14.8854 5.6091C14.6385 5.7988 14.2862 6.0698 14.1025 6.21133C13.7864 6.45824 13.0035 7.04542 12.8619 7.14478C12.8228 7.17189 12.7927 7.20501 12.7927 7.22006C12.7927 7.23512 13.0306 7.23813 13.3648 7.2291C13.8887 7.21103 13.9369 7.21404 13.955 7.26222C13.967 7.29233 13.9249 7.50612 13.8677 7.74099C13.7653 8.14148 13.69 8.45765 13.5425 9.10204C13.5093 9.24958 13.4672 9.40616 13.4551 9.44832C13.4401 9.49047 13.419 9.57178 13.41 9.62899C13.3979 9.6862 13.3016 10.0987 13.1962 10.5474C13.0878 10.993 12.9794 11.4537 12.9523 11.5712C12.9282 11.6856 12.8258 12.1132 12.7264 12.5197C12.5337 13.3237 12.4735 13.5766 12.4283 13.7844C12.4133 13.8597 12.326 14.218 12.2386 14.5823C12.1483 14.9467 12.0399 15.4074 11.9947 15.6061C11.8863 16.103 11.8291 16.2836 11.7839 16.2836C11.7659 16.2836 11.6966 16.1572 11.6334 16.0036C11.5732 15.853 11.4979 15.6724 11.4678 15.6061C11.2871 15.2056 11.257 15.1334 11.2389 15.0641C11.2299 15.022 11.2088 14.9798 11.1938 14.9708C11.1787 14.9617 11.1667 14.9377 11.1667 14.9166C11.1667 14.8925 11.1064 14.748 11.0342 14.5944C10.9619 14.4378 10.8655 14.218 10.8204 14.1036C10.7752 13.9891 10.727 13.8717 10.712 13.8476C10.6578 13.7482 10.4741 13.3026 10.4741 13.2725C10.4741 13.2604 10.5313 13.2183 10.6036 13.1822C11.0432 12.9533 11.4798 12.5016 11.6665 12.0831C11.7629 11.8633 11.799 11.7278 11.9857 10.8937C12.1603 10.1108 12.1935 9.78557 12.1152 9.5236C12.055 9.30981 11.8653 9.00568 11.7026 8.86114C11.5521 8.72263 11.1456 8.52691 10.9258 8.48174C10.8174 8.46066 9.72432 8.4456 7.72793 8.43958L4.69569 8.42754L4.66558 8.52389C4.63848 8.61122 4.54513 8.99363 4.43673 9.47843C4.41264 9.58683 4.35242 9.85784 4.30123 10.0807C4.25004 10.3035 4.18982 10.5745 4.16573 10.6829C4.14164 10.7913 4.09346 10.993 4.06335 11.1346C4.03023 11.2761 3.97 11.5531 3.92484 11.7519C3.82848 12.1945 3.7803 12.3993 3.70502 12.7305C3.6719 12.872 3.61469 13.1219 3.57855 13.2875C3.54242 13.4532 3.49424 13.6639 3.47015 13.7543C3.44907 13.8446 3.38283 14.1367 3.32562 14.4017C3.09075 15.4616 3.00342 15.853 2.97632 15.9524C2.96127 16.0096 2.9161 16.1903 2.87696 16.3499L2.80469 16.645H4.09346C4.80409 16.645 5.39428 16.648 5.40934 16.651C5.4274 16.66 5.46354 16.5215 5.61108 15.8621C5.63517 15.7537 5.68937 15.5158 5.73153 15.3351C5.77369 15.1514 5.83391 14.8804 5.86703 14.7329C5.90015 14.5823 5.95436 14.3384 5.98748 14.1909C6.0206 14.0403 6.06276 13.8416 6.08383 13.7452L6.11997 13.5736H6.95707H7.79718L7.84235 13.685C7.86644 13.7482 7.90558 13.8386 7.92967 13.8898C8.04711 14.1608 8.25789 14.6576 8.44157 15.1093C8.48071 15.1996 8.63428 15.57 8.78484 15.9313C8.9354 16.2927 9.05886 16.5998 9.05886 16.6149C9.05886 16.6329 9.25458 16.645 9.53462 16.645C9.79358 16.645 11.0191 16.651 12.2567 16.654L14.503 16.66L14.5392 16.4944C14.5602 16.4041 14.6114 16.1933 14.6506 16.0277C14.7469 15.6423 14.8312 15.2689 14.8854 15.019C14.9065 14.9106 14.9969 14.5402 15.0812 14.1909C15.1655 13.8446 15.2528 13.4772 15.2769 13.3779C15.301 13.2785 15.3461 13.0737 15.3823 12.9262C15.4184 12.7756 15.4515 12.6341 15.4576 12.61C15.4636 12.5859 15.5087 12.3962 15.5569 12.1885C15.6081 11.9807 15.7045 11.5742 15.7707 11.2851C15.837 10.9961 15.9062 10.716 15.9213 10.6678C15.9363 10.6166 15.9785 10.448 16.0116 10.2914C16.0447 10.1349 16.1471 9.69222 16.2405 9.31282C16.397 8.66542 16.4753 8.33419 16.5717 7.89757C16.6379 7.60248 16.7222 7.29835 16.7463 7.2562C16.7674 7.22609 16.9119 7.22006 17.3877 7.22609C17.725 7.23211 18.002 7.23211 18.002 7.22609C18.002 7.22006 17.9267 7.12672 17.8364 7.01531C17.5413 6.65096 16.2796 5.04902 16.1351 4.8533C16.0929 4.7991 16.0477 4.75092 16.0297 4.75092C16.0146 4.75092 15.852 4.86835 15.6683 5.00988ZM9.44729 10.6949C9.57978 10.8214 9.61592 10.9268 9.56774 11.0653C9.51655 11.2279 9.40213 11.3664 9.24254 11.4598L9.10402 11.5411L7.87246 11.5501C7.19495 11.5561 6.62885 11.5471 6.61681 11.535C6.60175 11.52 6.6138 11.4236 6.63789 11.3152C6.68908 11.1014 6.69209 11.0804 6.74027 10.8334C6.75833 10.7431 6.77941 10.6498 6.78543 10.6287C6.79748 10.5986 7.05343 10.5926 8.07722 10.5986L9.35696 10.6076L9.44729 10.6949Z" fill="#FD3C3D"/>
<path d="M30.3779 8.42756C28.2731 8.4396 27.4902 8.45466 27.3667 8.48176C26.6139 8.6534 26.2225 8.90332 25.8341 9.46942C25.7347 9.61697 25.5962 9.96927 25.548 10.2132C25.5209 10.3306 25.4547 10.6377 25.3974 10.8937C25.3372 11.1496 25.268 11.4628 25.2409 11.5863C25.2138 11.7097 25.1596 11.9416 25.1234 12.0982C25.0843 12.2547 25.0301 12.4926 25.003 12.6251C24.9759 12.7576 24.9187 13.0015 24.8825 13.1671C24.8434 13.3327 24.7892 13.5706 24.7621 13.6941C24.6748 14.0825 24.6326 14.2692 24.5332 14.6877C24.4278 15.1394 24.4038 15.5369 24.473 15.7718C24.5302 15.9825 24.7109 16.2234 24.8976 16.3469C24.9879 16.4071 25.1776 16.4975 25.3191 16.5426L25.5751 16.6299L28.4748 16.639L31.3716 16.648V16.5697C31.3716 16.5095 31.7329 15.0069 31.8413 14.6034L31.8594 14.5372H29.5498H27.2403L27.2553 14.4679C27.2644 14.4318 27.3065 14.2331 27.3517 14.0253C27.3968 13.8175 27.439 13.6308 27.445 13.6098C27.4541 13.5827 27.7943 13.5736 29.0138 13.5706C29.872 13.5706 30.7242 13.5706 30.9109 13.5736C31.2421 13.5766 31.2481 13.5766 31.2632 13.5074C31.2993 13.3177 31.5372 12.315 31.6155 12.0199C31.7179 11.6254 31.7269 11.514 31.6516 11.5381C31.6215 11.5471 30.7723 11.5592 29.7606 11.5622L27.9238 11.5712L27.9328 11.4959C27.9479 11.3815 28.0563 10.9238 28.1376 10.6287C28.1466 10.6016 28.6374 10.5926 30.4682 10.5926C31.7419 10.5926 32.7868 10.5805 32.7868 10.5685C32.7868 10.5113 33.0668 9.26466 33.1451 8.96656C33.2355 8.63232 33.2776 8.39444 33.2475 8.40046C33.2355 8.40648 31.9437 8.41551 30.3779 8.42756Z" fill="#FD3C3D"/>
<path d="M19.0198 8.46969C18.4356 8.55099 17.8635 8.83404 17.5865 9.18334C17.2914 9.55672 17.18 9.85784 16.9481 10.9087C16.8638 11.2881 16.7584 11.7428 16.7132 11.9175C16.65 12.1674 16.6319 12.3029 16.6319 12.5649C16.6319 12.8871 16.635 12.9021 16.7343 13.0707C16.8518 13.2785 17.0535 13.4261 17.3245 13.5013C17.4841 13.5465 17.716 13.5555 19.2215 13.5676C20.164 13.5736 20.9439 13.5826 20.9499 13.5917C20.956 13.5977 20.9409 13.682 20.9108 13.7753C20.8837 13.8717 20.8476 14.0102 20.8325 14.0855C20.8175 14.1608 20.7873 14.2933 20.7663 14.3776L20.7301 14.5372H18.4206H16.111L16.0899 14.6335C16.0809 14.6877 16.0598 14.7871 16.0448 14.8533C16.0297 14.9196 15.9755 15.1575 15.9273 15.3803C15.7828 16.0367 15.7527 16.1692 15.7015 16.3529C15.6744 16.4493 15.6533 16.5577 15.6533 16.5938V16.66L18.4748 16.651C21.769 16.645 21.5522 16.66 22.1725 16.371C22.5308 16.2023 22.8379 15.8922 23.0758 15.4586C23.1782 15.2749 23.2986 14.8413 23.4914 13.9801C23.5185 13.8627 23.5817 13.5796 23.6329 13.3478C23.6841 13.1159 23.7473 12.8298 23.7744 12.7154C23.8256 12.4806 24.0183 11.6916 24.0424 11.6073C24.0605 11.5531 23.9762 11.5531 21.784 11.5591C20.5314 11.5621 19.4986 11.5561 19.4895 11.5471C19.4775 11.535 19.5196 11.3182 19.5829 11.0593L19.7003 10.5926H21.9828H24.2652L24.2833 10.5082C24.2923 10.4631 24.3254 10.3246 24.3556 10.2011C24.3857 10.0777 24.4399 9.83977 24.476 9.67416C24.5121 9.50854 24.5934 9.15925 24.6537 8.89728L24.7681 8.42453L22.04 8.42754C19.9653 8.43055 19.2426 8.43958 19.0198 8.46969Z" fill="#FD3C3D"/>
<path d="M7.89055 4.8322C7.8213 5.09719 7.64364 5.76265 7.62256 5.84094C7.6075 5.88912 7.6346 5.89514 7.90561 5.89514H8.20371L8.24587 5.78072C8.26695 5.72049 8.29706 5.6151 8.3091 5.54886C8.34524 5.36217 8.45063 4.91953 8.48074 4.83823C8.49579 4.79908 8.51687 4.72982 8.52892 4.68165L8.54698 4.60035H8.24888H7.95077L7.89055 4.8322Z" fill="#FD3C3D"/>
<path d="M21.1276 19.3611C21.1005 19.4002 21.0704 19.4755 21.0614 19.5267L21.0403 19.623L21.4347 19.6321C21.8744 19.6411 21.8623 19.6471 21.9015 19.4364L21.9226 19.3249H21.5913C21.4076 19.3249 21.239 19.3189 21.2149 19.3069C21.1908 19.2978 21.1547 19.3219 21.1276 19.3611Z" fill="#FD3C3D"/>
</svg>
