<svg width="36" height="24" viewBox="0 0 36 24" fill="none" xmlns="http://www.w3.org/2000/svg">
<path d="M2.082 16.11C2.082 16.524 1.98 16.806 1.734 17.016C1.596 17.154 1.386 17.19 1.11 17.19C0.762 17.19 0.522 17.052 0.312 16.806C0.138 16.56 0.066 16.32 0.066 16.044C0.066 15.696 0.138 15.42 0.342 15.174C0.444 15.072 0.552 14.964 0.654 14.898C0.792 14.826 0.93 14.796 1.104 14.796C1.278 14.796 1.416 14.832 1.59 14.868C1.728 14.904 1.836 14.97 1.902 15.078C1.938 15.114 1.938 15.15 1.938 15.18C1.938 15.216 1.938 15.252 1.902 15.282C1.866 15.318 1.83 15.318 1.8 15.318C1.764 15.318 1.728 15.318 1.698 15.282C1.596 15.21 1.524 15.144 1.452 15.108C1.35 15.072 1.278 15.036 1.14 15.036C0.894 15.036 0.69 15.138 0.552 15.348C0.45 15.522 0.378 15.732 0.378 15.972C0.378 16.32 0.48 16.56 0.654 16.77C0.756 16.872 0.9 16.944 1.068 16.944C1.17 16.944 1.314 16.908 1.416 16.872C1.662 16.77 1.8 16.524 1.8 16.212V16.11H1.392C1.32 16.11 1.254 16.074 1.254 15.972C1.254 15.87 1.29 15.834 1.392 15.834H1.914C2.016 15.834 2.088 15.936 2.088 16.08V16.11H2.082ZM35.964 16.11C35.964 16.524 35.862 16.806 35.616 17.016C35.478 17.154 35.268 17.19 34.992 17.19C34.644 17.19 34.404 17.052 34.194 16.806C34.02 16.56 33.948 16.32 33.948 16.044C33.948 15.696 34.02 15.42 34.224 15.174C34.326 15.072 34.434 14.964 34.536 14.898C34.674 14.826 34.812 14.796 34.986 14.796C35.16 14.796 35.298 14.832 35.472 14.868C35.61 14.904 35.718 14.97 35.784 15.078C35.82 15.114 35.82 15.15 35.82 15.18C35.82 15.216 35.82 15.252 35.784 15.282C35.748 15.318 35.712 15.318 35.682 15.318C35.652 15.318 35.61 15.318 35.58 15.282C35.478 15.21 35.406 15.144 35.334 15.108C35.232 15.072 35.16 15.036 35.022 15.036C34.776 15.036 34.572 15.138 34.434 15.348C34.332 15.522 34.26 15.732 34.26 15.972C34.26 16.32 34.362 16.56 34.536 16.77C34.638 16.872 34.782 16.944 34.95 16.944C35.052 16.944 35.196 16.908 35.298 16.872C35.544 16.77 35.682 16.524 35.682 16.212V16.11H35.268C35.196 16.11 35.13 16.074 35.13 15.972C35.13 15.87 35.166 15.834 35.268 15.834H35.79C35.928 15.834 36 15.906 36 16.044V16.116H35.964V16.11ZM16.434 17.016C16.434 17.154 16.398 17.226 16.296 17.226C16.224 17.226 16.158 17.19 16.158 17.088L15.882 15.174L15.324 17.088C15.288 17.16 15.252 17.19 15.186 17.19C15.114 17.19 15.048 17.154 15.048 17.088L14.49 15.174L14.214 17.088C14.214 17.19 14.142 17.226 14.04 17.226C13.968 17.226 13.902 17.154 13.902 17.052C13.902 17.016 13.902 17.016 13.902 16.98L14.25 15C14.25 14.928 14.286 14.898 14.322 14.862C14.358 14.826 14.424 14.79 14.46 14.79C14.532 14.79 14.562 14.79 14.598 14.826C14.634 14.862 14.67 14.898 14.67 14.928L15.156 16.632L15.642 14.892C15.642 14.856 15.678 14.82 15.714 14.79C15.75 14.754 15.786 14.754 15.852 14.754C15.924 14.754 15.954 14.754 15.99 14.79C16.026 14.826 16.062 14.862 16.062 14.928L16.434 17.016ZM21.858 17.052C21.858 17.154 21.822 17.226 21.72 17.226C21.618 17.226 21.582 17.19 21.582 17.088V15.006C21.582 14.904 21.618 14.868 21.72 14.868C21.822 14.868 21.858 14.904 21.858 15.006V17.052ZM28.842 17.052C28.842 17.154 28.806 17.19 28.704 17.19C28.632 17.19 28.602 17.154 28.53 17.088L27.282 15.318V17.022C27.282 17.124 27.246 17.16 27.144 17.16C27.042 17.16 27.006 17.124 27.006 17.022V14.94C27.006 14.838 27.042 14.802 27.108 14.802C27.18 14.802 27.21 14.838 27.282 14.904L28.5 16.674V14.964C28.5 14.928 28.5 14.892 28.536 14.862C28.572 14.826 28.608 14.826 28.638 14.826C28.74 14.826 28.776 14.862 28.776 14.964V17.046H28.842V17.052ZM8.964 17.088C8.964 17.16 8.928 17.19 8.826 17.19C8.79 17.19 8.754 17.19 8.724 17.154C8.688 17.154 8.688 17.154 8.688 17.118L8.55 16.704H7.47L7.26 17.118C7.224 17.19 7.188 17.22 7.122 17.22C7.05 17.22 6.984 17.184 6.984 17.118V17.082V17.046L7.746 15.03C7.782 14.958 7.782 14.928 7.818 14.892C7.854 14.856 7.89 14.856 7.92 14.856C7.956 14.856 7.992 14.856 8.058 14.892C8.094 14.928 8.13 14.964 8.13 15.03L8.892 17.046C8.964 17.052 8.964 17.088 8.964 17.088ZM8.442 16.428L7.992 15.144L7.506 16.428H8.442ZM30.162 6C30.678 6 31.098 6.42 31.098 6.936C31.098 7.452 30.678 7.872 30.162 7.872C29.646 7.872 29.226 7.452 29.226 6.936C29.226 6.42 29.646 6 30.162 6ZM36 6.942C36 7.464 35.586 7.878 35.064 7.878C34.542 7.878 34.128 7.464 34.128 6.942C34.128 6.42 34.542 6.006 35.064 6.006C35.586 6.006 36 6.42 36 6.942ZM30.162 10.59C30.678 10.59 31.098 11.01 31.098 11.526C31.098 12.042 30.678 12.462 30.162 12.462C29.646 12.462 29.226 12.042 29.226 11.526C29.226 11.01 29.646 10.59 30.162 10.59ZM36 11.526C36 12.048 35.586 12.462 35.064 12.462C34.542 12.462 34.128 12.048 34.128 11.526C34.128 11.004 34.542 10.59 35.064 10.59C35.586 10.59 36 11.004 36 11.526ZM33.57 9.234C33.57 9.756 33.156 10.17 32.634 10.17C32.112 10.17 31.698 9.756 31.698 9.234C31.698 8.712 32.112 8.298 32.634 8.298C33.156 8.298 33.57 8.712 33.57 9.234ZM27.66 12.258L25.056 6.108C25.02 6.036 24.984 6.006 24.918 6.006H24.396H24.324H23.802C23.73 6.006 23.7 6.042 23.664 6.108L21.024 12.258V12.294C21.024 12.366 21.06 12.396 21.126 12.396H22.308C22.38 12.396 22.41 12.36 22.446 12.294L23.004 10.872H25.782L26.34 12.294C26.376 12.366 26.412 12.396 26.478 12.396H27.66C27.732 12.396 27.762 12.36 27.762 12.294C27.696 12.288 27.696 12.258 27.66 12.258ZM23.388 9.756L24.36 7.29L25.332 9.756H23.388ZM9.138 7.98C9.21 7.734 9.312 7.632 9.312 7.632C9.312 7.632 9.45 7.386 9.762 7.248C10.074 7.11 10.35 7.11 10.35 7.11H12.678C12.75 7.11 12.816 7.038 12.816 6.972V6.138C12.816 6.066 12.744 6 12.678 6H10.104C8.682 6 7.53 7.248 7.53 8.778V9.162V9.198V9.27V9.306V9.69C7.53 11.22 8.676 12.468 10.104 12.468H12.678C12.75 12.468 12.816 12.396 12.816 12.33V11.46C12.816 11.388 12.744 11.322 12.678 11.322H10.35C10.35 11.322 10.038 11.322 9.762 11.184C9.45 11.046 9.312 10.8 9.312 10.8C9.312 10.8 9.21 10.662 9.138 10.452C9.066 10.206 9.066 9.894 9.066 9.894V9.756H12.678C12.75 9.756 12.816 9.684 12.816 9.618V8.748C12.816 8.676 12.744 8.61 12.678 8.61H9.072V8.538C9.072 8.538 9.102 8.226 9.138 7.98ZM17.13 12.396H19.248C19.32 12.396 19.35 12.324 19.35 12.258V11.388C19.35 11.316 19.314 11.25 19.248 11.25H17.334C17.334 11.25 17.088 11.25 16.848 11.112C16.602 10.974 16.464 10.728 16.464 10.728C16.464 10.728 16.326 10.59 16.326 10.344C16.326 10.134 16.326 9.858 16.326 9.858V9.234V6.108C16.326 6.036 16.29 6.006 16.224 6.006H15.114C15.042 6.006 14.976 6.078 14.976 6.144C14.976 6.144 14.976 6.144 14.976 6.18V9.27V9.684V10.344V10.38C15.012 11.49 15.948 12.396 17.13 12.396ZM5.736 12.258L4.242 9.756C5.004 9.582 5.526 9.06 5.526 7.914C5.562 6.384 4.518 6.036 3.234 6H2.922H0.138C0.0660001 6 0 6.072 0 6.138V12.288C0 12.36 0.0720001 12.426 0.138 12.426H1.248C1.32 12.426 1.386 12.354 1.386 12.288V9.888H2.952L4.344 12.324C4.38 12.396 4.446 12.426 4.518 12.426H5.7C5.772 12.426 5.802 12.39 5.802 12.324C5.736 12.288 5.736 12.258 5.736 12.258ZM3.264 8.748L2.916 8.784H1.356V7.152H2.952H3.264C3.996 7.152 4.2 7.5 4.2 7.95C4.17 8.4 3.96 8.748 3.264 8.748Z" fill="black"/>
</svg>
