<svg width="36" height="24" viewBox="0 0 36 24" fill="none" xmlns="http://www.w3.org/2000/svg">
<path d="M10.1302 9.13757H11.4217L13.9954 15.8182H12.672L12.1471 14.4471H9.4112L8.86721 15.8246H7.55017L10.1302 9.13757ZM10.7823 10.9127L9.88521 13.2096H11.6762L10.7823 10.9127Z" fill="black"/>
<path d="M15.6273 9.13757H16.868L18.4173 13.8045L19.9825 9.13757H21.2231L22.3461 15.8182H21.115L20.396 11.5999L18.9772 15.8246H17.8542L16.4449 11.5999L15.71 15.8246H14.4694L15.6273 9.13757Z" fill="black"/>
<path d="M23.0046 9.13757H27.0543L24.6811 14.603H26.908V15.8277H22.8105L25.1806 10.3878H23.0046V9.13757Z" fill="black"/>
<path d="M27.926 9.13757H29.1985V15.8182H27.926V9.13757Z" fill="black"/>
<path d="M30.1878 9.13757H31.6194L33.0255 11.2849L34.4348 9.13757H35.8663L33.7445 12.3824L36 15.8277H34.5684L33.0287 13.4768L31.489 15.8277H30.0479L32.3161 12.3761L30.1878 9.13757Z" fill="black"/>
<path d="M7.97751 11.9692H4.1164V13.3399H6.33332C6.15819 13.7463 5.86722 14.0921 5.49674 14.3341C5.10654 14.5603 4.66045 14.6718 4.20971 14.6559C3.84926 14.6649 3.49066 14.6016 3.15516 14.4695C2.81967 14.3374 2.51412 14.1392 2.25663 13.8869C2.00213 13.6444 1.80111 13.3514 1.66646 13.0267C1.53182 12.702 1.46652 12.3528 1.47475 12.0013C1.46908 11.6616 1.53392 11.3243 1.66517 11.0108C1.79642 10.6974 1.99124 10.4146 2.23732 10.1802C2.48632 9.93387 2.78258 9.74047 3.10827 9.61163C3.43397 9.48279 3.78236 9.42118 4.13248 9.43049C4.56246 9.43136 4.98735 9.5236 5.37898 9.70111C5.77061 9.87862 6.12003 10.1373 6.4041 10.4601L7.44339 9.4498C7.04489 8.9952 6.55474 8.63006 6.00512 8.37834C5.41403 8.12715 4.77795 7.99905 4.1357 8.00188C3.12417 7.97085 2.13859 8.32506 1.37823 8.9929C1.38559 9.01372 1.38559 9.03643 1.37823 9.05725C1.37588 9.08145 1.36478 9.10396 1.347 9.12055C1.32923 9.13714 1.306 9.14667 1.2817 9.14734C1.17428 9.24238 1.07916 9.35047 0.99855 9.4691C0.979244 9.64607 0.805494 9.77477 0.67679 9.90669L0.609221 10.0322C0.551566 10.1416 0.506242 10.2571 0.474082 10.3765C0.438689 10.4859 0.39686 10.592 0.355031 10.6982C0.271374 10.9235 0.239198 11.1583 0.165193 11.3868C0.119343 11.5059 0.0880142 11.6302 0.0718834 11.7568C0.0702764 11.8827 0.0616829 12.0084 0.0461426 12.1333C0.0472433 12.1407 0.0472433 12.1483 0.0461426 12.1558C0.147745 12.9756 0.44698 13.7585 0.91811 14.4371C1.37666 15.0197 1.98667 15.465 2.68135 15.7241C3.39911 15.9972 4.1775 16.0706 4.93366 15.9365C5.66991 15.8492 6.35264 15.5078 6.86422 14.9712C7.35726 14.4012 7.70696 13.7216 7.8842 12.9891C7.88738 12.9729 7.89513 12.958 7.90653 12.946C7.91793 12.934 7.9325 12.9256 7.94855 12.9216C7.98243 12.7195 7.99964 12.5151 8.00003 12.3102L7.97751 11.9692Z" fill="black"/>
<path d="M7.95497 12.7865C7.88674 13.284 7.72051 13.763 7.46589 14.1958C7.14793 14.7637 6.68348 15.2359 6.12094 15.5633C5.53006 15.8876 4.86425 16.0507 4.19039 16.0363C3.44868 16.0494 2.71613 15.871 2.06356 15.5182C1.71044 15.3241 1.39101 15.0742 1.11759 14.7782C1.05967 14.7138 1.64527 14.9165 2.55907 14.9905C3.39683 15.0613 4.24053 14.9928 5.05592 14.7878C5.82587 14.5583 6.53934 14.1703 7.15057 13.6488C7.44229 13.3843 7.71137 13.0959 7.95497 12.7865Z" fill="url(#paint0_linear_1_2614)"/>
<path d="M3.05774 15.9139C2.65518 15.8331 2.26976 15.6828 1.91871 15.4699C1.56044 15.2463 1.24185 14.9646 0.975958 14.6365C0.503961 14.111 0.189506 13.4631 0.0685973 12.7671C-0.0632248 12.0619 -0.00435277 11.3344 0.23913 10.6596C0.399267 10.187 0.649491 9.74992 0.975958 9.37255C1.10618 9.22512 1.24706 9.08747 1.39746 8.96069C1.39746 8.96069 1.2398 9.65569 1.12075 10.5341C1.02269 11.3256 1.06407 12.1282 1.24302 12.9055C1.38412 13.4773 1.60969 14.025 1.91228 14.5303C2.21982 15.0483 2.60629 15.5151 3.05774 15.9139Z" fill="url(#paint1_linear_1_2614)"/>
<path d="M29.6661 9.01345C29.635 8.73964 29.5018 8.48763 29.293 8.30776C29.0842 8.12789 28.8153 8.0334 28.5399 8.04317C27.6428 8.04317 27.4456 9.01345 27.4456 9.01345C27.7669 8.77286 28.1576 8.64283 28.559 8.64283C28.9604 8.64283 29.3511 8.77286 29.6724 9.01345H29.6661Z" fill="#DEA329"/>
<defs>
<linearGradient id="paint0_linear_1_2614" x1="1.00465" y1="16.0371" x2="8.03709" y2="16.0371" gradientUnits="userSpaceOnUse">
<stop stop-color="#4B3610"/>
<stop offset="1" stop-color="#F1A40A"/>
</linearGradient>
<linearGradient id="paint1_linear_1_2614" x1="1.52887" y1="8.96069" x2="1.52887" y2="15.9139" gradientUnits="userSpaceOnUse">
<stop stop-color="#352711"/>
<stop offset="1" stop-color="#F2A50A"/>
</linearGradient>
</defs>
</svg>
