<svg width="36" height="24" viewBox="0 0 36 24" fill="none" xmlns="http://www.w3.org/2000/svg">
<path d="M17.3718 3.04607L16.7596 3.6582H17.9978H19.236L18.6239 3.04607C18.2872 2.7094 18.0062 2.43394 17.9978 2.43394C17.9895 2.43394 17.7084 2.7094 17.3718 3.04607Z" fill="black"/>
<path d="M1.33121 3.68599C0.524315 3.78059 0.204338 4.17848 0.0373936 5.29144C-0.0154722 5.65315 -0.0182546 5.63924 0.068 5.62811C0.123648 5.62255 0.151472 5.58916 0.204338 5.4556C0.285028 5.25527 0.404671 5.13006 0.591093 5.04381L0.732995 4.97981L4.78974 4.97146L8.84371 4.9659L8.83815 10.5641L8.8298 16.1651H4.80922H0.788643L0.630046 16.1011C0.432495 16.0204 0.246074 15.8228 0.184861 15.6309C0.14869 15.5196 0.129213 15.4945 0.068 15.489C-0.0182546 15.4778 -0.0154722 15.4639 0.040176 15.8423C0.129213 16.46 0.254421 16.805 0.477014 17.0582C0.605005 17.2029 0.766384 17.3031 1.00567 17.3866L1.17818 17.445L17.8726 17.4533C36.0167 17.4589 34.8286 17.47 35.1792 17.3087C35.4992 17.164 35.7496 16.805 35.8609 16.3376C35.9054 16.1484 35.9972 15.6003 36 15.5029C36 15.4917 35.9638 15.4834 35.9165 15.4834C35.8553 15.4834 35.8331 15.4973 35.8331 15.5307C35.8331 15.6281 35.6995 15.8618 35.591 15.9592C35.5298 16.0148 35.4101 16.0844 35.3294 16.1122C35.1848 16.1623 35.0178 16.1651 31.1725 16.1651H27.1659L27.1575 10.5641L27.1519 4.9659L31.2059 4.97146L35.2627 4.97981L35.4296 5.06328C35.6216 5.15788 35.7607 5.32483 35.8108 5.51125C35.8414 5.61976 35.8553 5.63368 35.9221 5.63368C35.9638 5.63368 36 5.62533 36 5.61698C36 5.60585 35.9805 5.46673 35.9555 5.30257C35.8108 4.30369 35.5381 3.89189 34.9121 3.72216C34.7451 3.67764 34.2638 3.67208 26.9989 3.66651L19.2666 3.65817L18.6322 4.28977L17.9978 4.92416L17.3634 4.28977L16.7318 3.65817L9.12195 3.66095C4.93721 3.66373 1.43138 3.67486 1.33121 3.68599ZM17.8531 10.5641L17.8448 16.1651H13.5042H9.16369L9.15534 10.5641L9.14978 4.9659H13.5042H17.8587L17.8531 10.5641ZM26.8403 10.5641L26.832 16.1651H22.4914H18.1509L18.1425 10.5641L18.1369 4.9659H22.4914H26.8459L26.8403 10.5641Z" fill="black"/>
<path d="M10.9445 5.75064C10.9361 5.77012 10.9138 5.83968 10.8916 5.90367L10.8499 6.02332H13.4959C15.7469 6.02332 16.1364 6.01775 16.1253 5.98436C16.1169 5.9621 16.0947 5.89532 16.0752 5.83133L16.0418 5.71725H13.4987C11.4898 5.71725 10.9528 5.7256 10.9445 5.75064Z" fill="black"/>
<path d="M10.7844 6.22442C10.7755 6.24434 10.752 6.31548 10.7285 6.38093L10.6844 6.5033H13.479C15.8563 6.5033 16.2677 6.4976 16.256 6.46346C16.2472 6.44069 16.2237 6.3724 16.2031 6.30695L16.1678 6.19028H13.482C11.3603 6.19028 10.7932 6.19881 10.7844 6.22442Z" fill="#DF9D00"/>
<path d="M10.6241 6.70656C10.6147 6.72781 10.5896 6.8037 10.5645 6.87351L10.5175 7.00403H13.5004C16.038 7.00403 16.4771 6.99796 16.4646 6.96153C16.4552 6.93725 16.4301 6.8644 16.4081 6.79459L16.3705 6.67014H13.5036C11.2389 6.67014 10.6335 6.67925 10.6241 6.70656Z" fill="#DF9D00"/>
<path d="M10.3907 7.35046C10.3657 7.4228 10.3462 7.48401 10.3462 7.48958C10.3462 7.49514 10.7524 7.49792 11.2477 7.49792H12.1492L12.1798 7.3755C12.1965 7.30594 12.2104 7.24473 12.2104 7.23638C12.2104 7.22803 11.8097 7.21968 11.3228 7.21968H10.4352L10.3907 7.35046Z" fill="black"/>
<path d="M14.67 7.28924C14.6784 7.32542 14.7006 7.38941 14.7145 7.42836L14.7424 7.49792H15.6912H16.64L16.6233 7.42836C16.6149 7.39219 16.5927 7.3282 16.5787 7.28924L16.5509 7.21968H15.6021H14.6533L14.67 7.28924Z" fill="black"/>
<path d="M10.2349 7.7901C10.221 7.82905 10.1987 7.89305 10.1904 7.932L10.1737 7.99878L11.0836 7.99321L11.9962 7.98487L12.0324 7.85966C12.0546 7.7901 12.0713 7.73167 12.0713 7.7261C12.0713 7.72332 11.6651 7.72054 11.167 7.72054H10.2627L10.2349 7.7901Z" fill="black"/>
<path d="M14.7981 7.72889C14.7981 7.73445 14.8176 7.79566 14.8426 7.86801L14.8871 7.99878H15.8554H16.8237L16.7792 7.85966L16.7347 7.72054H15.7664C15.2349 7.72054 14.7981 7.72332 14.7981 7.72889Z" fill="black"/>
<path d="M10.0819 8.24643C10.0736 8.26313 10.0485 8.32434 10.0263 8.38556L9.9873 8.49963H10.9138H11.8376L11.8821 8.36051L11.9266 8.22139H11.014C10.4687 8.22139 10.093 8.23252 10.0819 8.24643Z" fill="black"/>
<path d="M14.965 8.252C14.965 8.27148 14.9789 8.33269 14.9984 8.39112L15.029 8.49963H16.0167C16.793 8.49963 16.9989 8.49129 16.9878 8.46346C16.9822 8.44677 16.96 8.38277 16.9377 8.32434L16.9015 8.22139H15.9332C15.2293 8.22139 14.965 8.22974 14.965 8.252Z" fill="black"/>
<path d="M11.3924 11.4128C10.797 13.0628 10.2377 14.6098 10.1487 14.8491L9.99011 15.2887H10.9167H11.8404L12.0574 14.6209L12.2773 13.9531H13.4375H14.6006L14.7925 14.5569C14.9011 14.8908 14.9957 15.1913 15.0068 15.2247L15.0235 15.2887H16.0112C16.5538 15.2887 16.9962 15.2859 16.9962 15.2803C16.9962 15.2776 16.4397 13.7333 15.7636 11.8524L14.531 8.43006L13.5043 8.42172L12.4748 8.41615L11.3924 11.4128ZM13.5989 10.8007C13.6768 11.0427 13.8326 11.5324 13.9467 11.8914C14.0636 12.2503 14.1526 12.548 14.147 12.5536C14.1415 12.5592 13.8187 12.5592 13.4264 12.5564L12.7169 12.548L13.0675 11.4545C13.2594 10.8563 13.4264 10.3638 13.4375 10.3638C13.4486 10.3638 13.521 10.5614 13.5989 10.8007Z" fill="black"/>
<path d="M21.8793 5.70332C21.1114 5.82853 20.4965 6.1346 19.9845 6.64656C19.3195 7.31155 19.0273 8.08785 19.0273 9.20081C19.0273 10.3054 19.3362 11.0956 20.0346 11.7718C20.6217 12.3394 21.3061 12.6287 22.2494 12.6983C23.4041 12.7873 24.3473 12.4785 25.0401 11.7857C25.6884 11.1401 25.9834 10.3332 25.9834 9.22307V8.917H24.2861H22.5888V9.50131V10.0856H23.354H24.1191L24.1025 10.1607C24.0941 10.2053 24.0385 10.3416 23.9772 10.464C23.7964 10.8452 23.4375 11.1262 23.0062 11.2292C22.7864 11.282 22.3857 11.2737 22.1854 11.2153C21.6261 11.0483 21.2088 10.5781 21.0251 9.90476C20.975 9.71555 20.9639 9.60982 20.9639 9.18133C20.9639 8.60259 21.0056 8.39948 21.2004 8.00716C21.4898 7.42285 21.9823 7.10844 22.6139 7.10844C23.1036 7.10844 23.4569 7.23643 23.7658 7.52302C23.9606 7.70666 24.0746 7.90142 24.1247 8.14628L24.1581 8.30487H25.0429C25.8915 8.30487 25.9277 8.30209 25.9277 8.25201C25.9277 8.15184 25.8387 7.73448 25.783 7.56754C25.4658 6.63821 24.6562 5.98713 23.507 5.73115C23.2093 5.66715 22.2188 5.64768 21.8793 5.70332Z" fill="black"/>
<path d="M19.6562 14.1173C19.6005 14.1925 19.556 14.262 19.556 14.2704C19.556 14.2815 20.1737 14.2815 20.9278 14.2732C22.6417 14.2565 22.6362 14.2565 24.2388 14.2732C24.9678 14.2815 25.566 14.2815 25.566 14.2732C25.566 14.2648 25.5243 14.1953 25.477 14.1173L25.3852 13.981H22.5722H19.7564L19.6562 14.1173Z" fill="black"/>
<path d="M20.0402 13.6275C19.9435 13.7296 19.929 13.7773 19.929 13.7773C19.929 13.7773 20.4716 13.7882 21.134 13.78C22.6396 13.7637 22.6348 13.7637 24.0427 13.78C24.6831 13.7882 25.2086 13.7882 25.2086 13.78C25.2086 13.7718 25.1681 13.7192 25.0872 13.6275C25.0063 13.5357 24.9269 13.494 24.9269 13.494L22.5785 13.494L20.2002 13.494C20.2002 13.494 20.1369 13.5253 20.0402 13.6275Z" fill="#5DBA21"/>
<path d="M20.5566 13.1476C20.4376 13.2393 20.3881 13.2974 20.3881 13.2974C20.3881 13.2974 20.8385 13.3083 21.3883 13.3001C22.638 13.2838 22.634 13.2838 23.8026 13.3001C24.3342 13.3083 24.7704 13.3083 24.7704 13.3001C24.7704 13.292 24.7009 13.2185 24.6018 13.1476C24.5027 13.0767 24.3341 13.0141 24.3341 13.0141L22.5873 13.0141L20.7946 13.0141C20.7946 13.0141 20.6756 13.0559 20.5566 13.1476Z" fill="#5DBA21"/>
<path d="M19.3473 14.6209C19.3083 14.696 19.2777 14.7656 19.2777 14.7739C19.2777 14.7823 19.7507 14.7878 20.3295 14.7878H21.3784L21.5426 14.6348L21.704 14.4818H20.5604H19.4168L19.3473 14.6209Z" fill="black"/>
<path d="M23.7212 14.6348L23.8826 14.7851L24.8369 14.7878H25.7913L25.7718 14.7266C25.7635 14.6932 25.7357 14.6265 25.7162 14.5736L25.6772 14.4818H24.6171H23.5598L23.7212 14.6348Z" fill="black"/>
<path d="M19.1554 15.1134C19.1303 15.1857 19.1108 15.2525 19.1108 15.2664C19.1108 15.2776 19.5588 15.2887 20.1069 15.2887H21.103L21.1782 15.1357L21.2533 14.9826H20.2266H19.1999L19.1554 15.1134Z" fill="black"/>
<path d="M24.0606 15.1357L24.1052 15.2887H25.0011C25.8358 15.2887 25.8942 15.2859 25.8859 15.2386C25.8803 15.2136 25.8664 15.144 25.8581 15.0856L25.8414 14.9826H24.9287H24.0161L24.0606 15.1357Z" fill="black"/>
<path d="M1.6095 9.12562V12.5619H2.48874H3.36798L3.35128 11.7745C3.30398 9.52628 3.29842 8.54131 3.33737 8.5747C3.35963 8.5914 3.94672 9.49568 4.64232 10.5836L5.90832 12.5591L6.77921 12.5619H7.64732V9.12562V5.68935H6.76808H5.88884L5.90553 7.15567C5.91388 7.96535 5.93057 8.86685 5.93892 9.16457C5.95005 9.54854 5.94727 9.69879 5.92501 9.69323C5.90832 9.68766 5.32123 8.78616 4.62006 7.69268L3.34572 5.70326L2.47761 5.69491L1.6095 5.68935V9.12562Z" fill="black"/>
<path d="M29.2526 5.74507C29.261 5.75898 29.2582 5.77289 29.247 5.77289C29.2331 5.77289 29.2081 5.82297 29.1914 5.88419L29.1636 5.99548H31.7623H34.3639L34.3472 5.92592C34.3389 5.88975 34.3166 5.82576 34.3027 5.7868L34.2749 5.71724H31.7568C30.0818 5.71724 29.2415 5.72559 29.2526 5.74507Z" fill="#4F80FF"/>
<path d="M29.0467 6.29044C29.03 6.32939 29.0217 6.37113 29.03 6.38504C29.0384 6.39895 29.03 6.41287 29.0106 6.41843C28.9939 6.424 28.9883 6.44347 28.9994 6.46295C29.0134 6.48799 29.7145 6.49634 31.7846 6.49634H34.5476L34.503 6.35722L34.4585 6.2181H31.7707H29.0801L29.0467 6.29044Z" fill="#4F80FF"/>
<path d="M28.8492 6.78839C28.8353 6.82734 28.813 6.89134 28.8047 6.92751L28.788 6.99707H31.7651H34.7423L34.6978 6.85795L34.6533 6.71883H31.7651H28.877L28.8492 6.78839Z" fill="black"/>
<path d="M28.6489 7.3588L28.6044 7.49792H29.5059C30.0011 7.49792 30.4074 7.49514 30.4074 7.48958C30.4074 7.4868 30.4268 7.42558 30.4491 7.35046L30.4881 7.21968H29.5893H28.6934L28.6489 7.3588Z" fill="black"/>
<path d="M32.9533 7.35046C32.9755 7.42558 32.995 7.4868 32.995 7.48958C32.995 7.49514 33.4291 7.49792 33.9577 7.49792C34.7173 7.49792 34.9176 7.48958 34.9065 7.46175C34.9009 7.44506 34.8787 7.38106 34.8564 7.32263L34.8203 7.21968H33.8659H32.9143L32.9533 7.35046Z" fill="black"/>
<path d="M28.4902 7.82349C28.468 7.88192 28.4457 7.94591 28.4401 7.96261C28.429 7.99043 28.621 7.99878 29.3444 7.99878H30.2626L30.2932 7.87635C30.3099 7.80679 30.3238 7.74558 30.3238 7.73723C30.3238 7.72889 29.9204 7.72054 29.4251 7.72054H28.5264L28.4902 7.82349Z" fill="black"/>
<path d="M33.0785 7.73723C33.0785 7.74558 33.0924 7.80679 33.1091 7.87635L33.1397 7.99878H34.1108C34.645 7.99878 35.0818 7.996 35.0818 7.99043C35.0818 7.98487 35.0623 7.92365 35.0373 7.85131L34.9928 7.72054H34.0356C33.5098 7.72054 33.0785 7.72889 33.0785 7.73723Z" fill="black"/>
<path d="M28.3094 8.35212C28.2844 8.42446 28.2649 8.48567 28.2649 8.49124C28.2649 8.4968 28.6795 8.4968 29.1859 8.49402L30.1096 8.48567L30.1458 8.36047C30.1681 8.29091 30.1848 8.23248 30.1848 8.22691C30.1848 8.22413 29.773 8.22135 29.2693 8.22135H28.3539L28.3094 8.35212Z" fill="black"/>
<path d="M33.2343 8.29652C33.2455 8.34104 33.265 8.40225 33.2761 8.43564L33.3011 8.49963H34.2777H35.2544L35.2377 8.43007C35.2293 8.3939 35.2071 8.32991 35.1932 8.29095L35.1653 8.22139H34.1915H33.2177L33.2343 8.29652Z" fill="black"/>
<path d="M30.7273 8.4495C30.5659 8.88912 28.2649 15.2664 28.2649 15.2775C28.2649 15.2831 28.6795 15.2859 29.1887 15.2831L30.1124 15.2747L30.3239 14.6209L30.5353 13.967H31.7012H32.867L33.0785 14.6209L33.2899 15.2747L34.2693 15.2831C34.8091 15.2859 35.2487 15.2803 35.2487 15.2692C35.2487 15.2608 34.695 13.7138 34.0189 11.8329L32.7919 8.41611H31.7652C30.9694 8.41611 30.7357 8.42446 30.7273 8.4495ZM32.074 11.4573C32.2576 12.036 32.4107 12.5202 32.4107 12.5369C32.4107 12.5508 32.1297 12.5619 31.7012 12.5619C31.3116 12.5619 30.9917 12.5508 30.9917 12.5396C30.9917 12.5202 31.0974 12.1835 31.512 10.8952C31.6288 10.5307 31.7012 10.3415 31.7151 10.3666C31.7262 10.3888 31.8876 10.8785 32.074 11.4573Z" fill="black"/>
<path d="M1.6095 13.1463V13.2854H2.59725H3.58779L3.5544 13.2214C3.53492 13.188 3.49597 13.1268 3.46814 13.0823L3.41528 13.0072H2.511H1.6095V13.1463Z" fill="black"/>
<path d="M5.89441 13.1463V13.2854H6.77087H7.64733V13.1463V13.0072H6.77087H5.89441V13.1463Z" fill="black"/>
<path d="M1.6095 13.6331V13.7861H2.75028C3.37911 13.7861 3.89107 13.7778 3.89107 13.7694C3.89107 13.7611 3.85212 13.6915 3.80203 13.6164L3.71578 13.4801H2.66125H1.6095V13.6331Z" fill="#C81D2D"/>
<path d="M5.89441 13.6331V13.7861H6.77087H7.64733V13.6331V13.4801H6.77087H5.89441V13.6331Z" fill="#C81D2D"/>
<path d="M1.6095 14.134V14.287H2.92001C3.95785 14.287 4.22496 14.2786 4.20826 14.2508C4.19714 14.2341 4.15262 14.1646 4.1081 14.0978L4.02741 13.9809H2.81984H1.6095V14.134Z" fill="#C81D2D"/>
<path d="M5.89432 14.0895C5.89432 14.301 5.83033 14.287 6.78748 14.287H7.64724V14.134V13.981H6.77078H5.89432V14.0895Z" fill="#C81D2D"/>
<path d="M1.6095 14.6348V14.7878H3.08417H4.56163L4.46703 14.6404L4.37521 14.4957L2.99235 14.4873L1.6095 14.4818V14.6348Z" fill="black"/>
<path d="M5.92224 14.6348V14.7878H6.78479H7.64733V14.6348V14.4818H6.78479H5.92224V14.6348Z" fill="black"/>
<path d="M1.6095 15.1357V15.2887H3.2372C4.13314 15.2887 4.86491 15.2831 4.86491 15.2748C4.86491 15.2664 4.82318 15.1969 4.77588 15.1218L4.68406 14.9826H3.14817H1.6095V15.1357Z" fill="black"/>
<path d="M5.92224 15.1357V15.2887H6.78479H7.64733V15.1357V14.9826H6.78479H5.92224V15.1357Z" fill="black"/>
<path d="M2.93113 18.7389C2.29118 18.8419 1.79312 19.287 1.65122 19.8853C1.60392 20.0912 1.59557 20.5948 1.64009 20.8035C1.75417 21.3516 2.19379 21.8051 2.76418 21.9526C2.97008 22.0082 3.49039 22.0166 3.69907 21.9665C3.96618 21.9053 4.19712 21.7773 4.39468 21.5797C4.69796 21.2765 4.8343 20.9259 4.83708 20.4557V20.2414H4.058H3.27893V20.5057V20.7701H3.61004C3.80759 20.7701 3.94949 20.7812 3.96062 20.7979C3.99123 20.848 3.86324 21.0706 3.74916 21.1707C3.46535 21.41 2.98678 21.3822 2.74749 21.1095C2.58611 20.9287 2.51655 20.7339 2.50542 20.4306C2.48873 20.0466 2.55829 19.8213 2.75862 19.6154C2.87548 19.4957 2.93669 19.4568 3.06747 19.4206C3.44031 19.3121 3.84932 19.4929 3.96062 19.8129L3.99679 19.9214L4.4058 19.9298L4.8176 19.9381L4.79812 19.8046C4.75639 19.5013 4.52545 19.1591 4.2333 18.9726C3.9161 18.7667 3.37353 18.6694 2.93113 18.7389Z" fill="black"/>
<path d="M33.5348 18.7361C32.803 18.853 32.3829 19.4039 32.5637 20.0076C32.675 20.3861 32.9477 20.5447 33.6906 20.6615C33.8965 20.6921 34.1191 20.7422 34.1831 20.77C34.5142 20.9147 34.414 21.2597 34.0189 21.3237C33.8687 21.3488 33.6517 21.3265 33.5571 21.2736C33.468 21.2263 33.3261 21.0566 33.3039 20.9759L33.2844 20.8952L32.8559 20.8869L32.4302 20.8785L32.4469 21.0065C32.4914 21.3321 32.7752 21.691 33.1063 21.8468C33.3595 21.9665 33.5404 22.0026 33.8826 21.9999C34.517 21.9971 34.9677 21.7689 35.1681 21.346C35.2376 21.1985 35.2488 21.1401 35.2488 20.9481C35.2488 20.3638 34.9733 20.1384 34.0801 19.991C33.532 19.8991 33.4124 19.8435 33.4124 19.6682C33.4124 19.5124 33.5988 19.3788 33.8158 19.3788C34.0134 19.3788 34.2582 19.5374 34.2972 19.696L34.3194 19.7823L34.7451 19.7906L35.1708 19.799L35.1542 19.671C35.0929 19.2731 34.7757 18.9197 34.3639 18.7945C34.1553 18.7305 33.7518 18.7027 33.5348 18.7361Z" fill="black"/>
<path d="M10.1236 18.7778C10.1236 18.7834 9.86759 19.4957 9.55318 20.3638C9.23877 21.2319 8.98279 21.947 8.98279 21.9553C8.98279 21.9609 9.17477 21.9664 9.4085 21.9664H9.8342L9.93159 21.6659L10.029 21.3682H10.5827H11.1364L11.2282 21.6659L11.3228 21.9664H11.7819C12.2104 21.9664 12.2438 21.9636 12.2243 21.9163C12.202 21.8551 11.1892 19.0449 11.1336 18.8835L11.0919 18.7667H10.6077C10.3406 18.7667 10.1236 18.7722 10.1236 18.7778ZM10.8971 20.6754C10.8887 20.681 10.7385 20.6837 10.566 20.681L10.246 20.6726L10.4129 20.1579L10.5799 19.6431L10.7441 20.1523C10.8359 20.4333 10.9026 20.667 10.8971 20.6754Z" fill="black"/>
<path d="M16.1614 20.3665V21.9664H16.5676H16.9738L16.9571 20.8869C16.9405 19.9631 16.9432 19.8212 16.9766 19.8935C16.9961 19.9381 17.1519 20.425 17.3189 20.9703L17.6221 21.9664H17.9449H18.2704L18.5932 20.9842C18.7685 20.4417 18.9354 19.9575 18.9577 19.9047C18.9994 19.8184 19.0022 19.8963 18.9911 20.8869L18.9772 21.9664H19.4057H19.8342V20.3665V18.7667H19.2526H18.6683L18.5153 19.2452C18.4318 19.5096 18.2816 19.9881 18.1814 20.3081C18.0033 20.8702 17.9811 20.9314 17.9616 20.9063C17.956 20.9008 17.828 20.4751 17.6778 19.9631C17.5275 19.4511 17.3884 18.9726 17.3662 18.8974L17.3272 18.7667H16.7457H16.1614V20.3665Z" fill="black"/>
<path d="M24.6757 20.3665V21.9664H25.9277H27.1798V21.6465V21.3265H26.359H25.5382V20.9926V20.6587H26.2616H26.9851V20.3387V20.0187H26.2616H25.5382V19.7127V19.4066H26.3312H27.1242V19.0866V18.7667H25.8999H24.6757V20.3665Z" fill="black"/>
</svg>
