<svg width="36" height="24" viewBox="0 0 36 24" fill="none" xmlns="http://www.w3.org/2000/svg">
<g clip-path="url(#clip0_1_1421)">
<path d="M12.5621 7.50928H13.7128L14.9585 9.75073H15.0003L16.2516 7.50928H17.4032V11.9H16.6498V8.4794H16.6023L15.3319 10.6895H14.6259L13.3574 8.48225H13.3156V11.9029H12.5631L12.5621 7.50928Z" fill="black"/>
<path d="M17.4299 11.9276H16.6223V8.50695H16.6175L15.3529 10.7189H14.6155L14.6079 10.7056L13.3423 8.5117V11.9323H12.5347V7.48267H13.729L13.7376 7.49597L14.9728 9.72221H14.9823L16.2365 7.48267H17.4299V11.9276ZM16.6765 11.8734H17.3758V7.53683H16.2679L15.0165 9.77637H14.9424L14.9348 9.76212L13.6996 7.53588H12.5888V11.8724H13.2882V8.45184H13.3727L13.3803 8.46514L14.6421 10.661H15.3168L16.5881 8.45564H16.6784L16.6765 11.8734Z" fill="#010101"/>
<path d="M18.9578 11.9294C18.6607 11.9294 18.4361 11.8525 18.2841 11.6986C18.2041 11.6095 18.1426 11.5054 18.1033 11.3924C18.064 11.2793 18.0476 11.1596 18.0551 11.0401C18.0551 10.7234 18.153 10.483 18.3487 10.3189C18.5444 10.1549 18.852 10.057 19.2713 10.0253L20.0248 9.9721V9.86473C20.0271 9.76603 20.0172 9.66741 19.9954 9.57113C19.9793 9.49808 19.9411 9.43174 19.8861 9.3811C19.8228 9.32909 19.7472 9.2941 19.6666 9.27943C19.5481 9.25789 19.4278 9.24803 19.3074 9.24997C19.1687 9.24997 19.0129 9.25947 18.839 9.27658C18.6651 9.29368 18.4884 9.32124 18.3107 9.35734L18.2575 8.76919C18.6508 8.69522 19.0498 8.6558 19.45 8.65137C19.9276 8.65137 20.2804 8.73815 20.5085 8.91171C20.7365 9.08528 20.8502 9.35639 20.8496 9.72506V11.8962H20.174L20.0961 11.499H20.0486C19.748 11.7681 19.3611 11.9208 18.9578 11.9294ZM19.2951 11.3479C19.4236 11.346 19.5506 11.3199 19.6694 11.271C19.7952 11.2224 19.9146 11.1586 20.0248 11.0809V10.4225L19.5212 10.47C19.2837 10.4903 19.1184 10.5359 19.0252 10.6068C18.9764 10.649 18.9384 10.7022 18.9143 10.762C18.8901 10.8218 18.8806 10.8865 18.8865 10.9508C18.8865 11.2162 19.0227 11.3486 19.2951 11.3479Z" fill="black"/>
<path d="M18.9578 11.9617C18.6547 11.9617 18.4219 11.8809 18.2642 11.7223C18.1065 11.5636 18.0286 11.3355 18.0286 11.0448C18.0286 10.7217 18.1302 10.4747 18.3317 10.3027C18.5331 10.1307 18.8467 10.0348 19.2695 10.0034L19.9983 9.95115V9.86944C20.0004 9.77356 19.9905 9.6778 19.9688 9.58439C19.9533 9.51795 19.9182 9.4577 19.8681 9.41146C19.8082 9.36277 19.7369 9.33007 19.661 9.31644C19.3892 9.27869 19.1136 9.27869 18.8419 9.31644C18.669 9.33354 18.4922 9.3611 18.3155 9.39625L18.2861 9.40195L18.2281 8.75964H18.2528C18.6477 8.68534 19.0483 8.6456 19.45 8.64087C19.9327 8.64087 20.2938 8.73018 20.5256 8.90787C20.7574 9.08555 20.8772 9.3668 20.8772 9.74211V11.9408H20.1512L20.0743 11.5427H20.0591C19.7529 11.8079 19.3628 11.9563 18.9578 11.9617ZM19.3075 9.23187C19.4298 9.2293 19.5521 9.23949 19.6724 9.26228C19.7576 9.27693 19.8375 9.31362 19.9042 9.3687C19.9626 9.42224 20.0037 9.49208 20.022 9.56918C20.0441 9.66769 20.0544 9.7685 20.0524 9.86944V10.0015L19.2742 10.0566C18.8619 10.088 18.5569 10.1849 18.3668 10.3417C18.1768 10.4984 18.0818 10.735 18.0818 11.0419C18.0744 11.1578 18.09 11.274 18.1279 11.3838C18.1657 11.4936 18.225 11.5947 18.3022 11.6814C18.4485 11.8296 18.669 11.9047 18.9569 11.9047C19.3535 11.8966 19.7342 11.7474 20.0306 11.4838L20.0382 11.4771H20.118L20.1949 11.8752H20.8221V9.72881C20.8221 9.37155 20.7109 9.1055 20.4914 8.93732C20.2719 8.76914 19.9213 8.68173 19.4462 8.68173C19.056 8.68609 18.6669 8.72424 18.2832 8.79575L18.3307 9.32784C18.4998 9.29554 18.668 9.27083 18.8324 9.25373C18.9902 9.2367 19.1488 9.22782 19.3075 9.22712V9.23187ZM19.2951 11.3802C19.0101 11.3802 18.859 11.2377 18.859 10.9555C18.8533 10.887 18.8639 10.8181 18.89 10.7545C18.9161 10.6909 18.9569 10.6344 19.0091 10.5897C19.1042 10.5146 19.2733 10.468 19.5184 10.4481L20.0524 10.3977V11.0999L20.041 11.1085C19.9282 11.1857 19.8067 11.2495 19.679 11.2985C19.557 11.3481 19.4268 11.3742 19.2951 11.3755V11.3802ZM19.9983 10.4576L19.5232 10.5022C19.2923 10.5213 19.1298 10.565 19.0424 10.6334C18.9968 10.6729 18.9613 10.7228 18.9389 10.7788C18.9164 10.8348 18.9076 10.8954 18.9132 10.9555C18.9132 11.2044 19.0386 11.326 19.2932 11.326C19.4182 11.3239 19.5416 11.2984 19.6572 11.251C19.7766 11.2043 19.8903 11.1444 19.9964 11.0724L19.9983 10.4576Z" fill="#010101"/>
<path d="M21.6154 8.69596H22.3033L22.3508 9.06368H22.384C22.6348 8.93627 22.8946 8.82734 23.1613 8.73777C23.3535 8.6736 23.5544 8.63931 23.757 8.6361C23.8744 8.6291 23.992 8.64539 24.1031 8.68404C24.2141 8.72269 24.3164 8.78293 24.4041 8.86129C24.558 9.01142 24.635 9.23091 24.635 9.51976V11.8952H23.8093V9.80006C23.8239 9.6634 23.7903 9.52593 23.7143 9.41144C23.6726 9.36997 23.6223 9.3381 23.567 9.31808C23.5117 9.29805 23.4527 9.29036 23.3941 9.29552C23.2459 9.29895 23.099 9.32392 22.9579 9.36963C22.7831 9.4222 22.6117 9.48567 22.4449 9.55967V11.8971H21.6201L21.6154 8.69596Z" fill="black"/>
<path d="M24.6645 11.9277H23.7856V9.80023C23.7977 9.66913 23.7642 9.53786 23.6905 9.42871C23.6512 9.3906 23.6041 9.36145 23.5524 9.34325C23.5008 9.32504 23.4458 9.31822 23.3912 9.32324C23.2457 9.32654 23.1013 9.35086 22.9627 9.39546C22.7943 9.44865 22.6293 9.51212 22.4686 9.58549V11.9324H21.5897V8.66953H22.329L22.3765 9.03724H22.3841C22.6343 8.91028 22.8934 8.80168 23.1594 8.71229C23.3535 8.64764 23.5563 8.61303 23.7609 8.60967C23.8817 8.60271 24.0027 8.61979 24.1168 8.65991C24.231 8.70003 24.3361 8.7624 24.426 8.84341C24.5856 8.99829 24.6664 9.22348 24.6664 9.52088L24.6645 11.9277ZM23.8397 11.8735H24.6094V9.52088C24.6094 9.24153 24.5352 9.02584 24.387 8.88237C24.2149 8.72917 23.989 8.65057 23.759 8.66383C23.5602 8.66617 23.3629 8.6982 23.1737 8.75884C22.9084 8.84846 22.6499 8.95706 22.4002 9.0838H22.3888H22.329L22.2814 8.71609H21.6439V11.8659H22.4145V9.54463L22.4306 9.53798C22.5988 9.46384 22.7714 9.40036 22.9475 9.34795C23.0909 9.30117 23.2404 9.27557 23.3912 9.27194C23.4534 9.26705 23.5159 9.27564 23.5744 9.29712C23.633 9.31861 23.6862 9.35247 23.7305 9.39641C23.8126 9.51526 23.8506 9.65914 23.8378 9.80308L23.8397 11.8735Z" fill="#010101"/>
<path d="M26.8499 11.9532C25.7819 11.9532 25.2479 11.4015 25.2479 10.298C25.2479 9.19455 25.7819 8.64282 26.8499 8.64282C27.0054 8.64292 27.1608 8.65085 27.3155 8.66658C27.4605 8.68012 27.6043 8.70393 27.7459 8.73784V9.39631C27.6034 9.37255 27.4609 9.35355 27.325 9.34025C27.1927 9.32649 27.0598 9.31951 26.9269 9.31934C26.6266 9.31934 26.409 9.39631 26.2741 9.55023C26.1392 9.70416 26.072 9.95152 26.0727 10.2923C26.0727 10.6401 26.1382 10.8919 26.2684 11.0458C26.3986 11.1997 26.6162 11.2767 26.9212 11.2767C27.0833 11.2767 27.2268 11.2719 27.3516 11.2624C27.484 11.2516 27.6157 11.2329 27.7459 11.2064V11.8582C27.6108 11.8941 27.4728 11.9179 27.3335 11.9295C27.1728 11.9455 27.0114 11.9534 26.8499 11.9532Z" fill="black"/>
<path d="M26.8499 11.9808C25.7696 11.9808 25.2213 11.4107 25.2213 10.298C25.2213 9.18536 25.7696 8.61621 26.8499 8.61621C27 8.61621 27.1578 8.62381 27.3183 8.63997C27.4646 8.65298 27.6098 8.6768 27.7526 8.71123L27.7735 8.71693V9.4286L27.7412 9.4229C27.6005 9.4001 27.4561 9.3811 27.3221 9.36684C27.1882 9.35259 27.0523 9.34594 26.9269 9.34594C26.6361 9.34594 26.4233 9.421 26.295 9.56828C26.1667 9.71556 26.1002 9.9607 26.1002 10.2923C26.1002 10.6239 26.1639 10.8795 26.2903 11.0287C26.4166 11.1779 26.6276 11.2501 26.9221 11.2501C27.0836 11.2501 27.2271 11.2453 27.3497 11.2349C27.4812 11.2241 27.6119 11.2054 27.7412 11.1788L27.7744 11.1731V11.8791L27.7545 11.8848C27.6176 11.9202 27.4781 11.9443 27.3373 11.957C27.173 11.9722 27.0095 11.9808 26.8499 11.9808ZM26.8499 8.67037C25.7905 8.67037 25.2755 9.20246 25.2755 10.298C25.2755 11.3936 25.7905 11.9266 26.8499 11.9266C27.0095 11.9266 27.172 11.918 27.3307 11.9028C27.4614 11.891 27.591 11.8691 27.7184 11.8373V11.2387C27.5978 11.2625 27.476 11.2794 27.3535 11.289C27.229 11.2995 27.0836 11.3042 26.9212 11.3042C26.6095 11.3042 26.3834 11.2235 26.2475 11.0629C26.1116 10.9023 26.0451 10.6458 26.0451 10.2923C26.0451 9.93885 26.1154 9.6918 26.2541 9.53217C26.3929 9.37255 26.62 9.29083 26.9269 9.29083C27.0542 9.29083 27.1891 9.29843 27.3278 9.31173C27.4666 9.32504 27.5882 9.34214 27.7184 9.36304V8.75874C27.5847 8.72793 27.4492 8.70603 27.3126 8.69317C27.1521 8.67797 26.9962 8.67037 26.8499 8.67037Z" fill="#010101"/>
<path d="M29.0904 11.9294C28.794 11.9294 28.5697 11.8525 28.4177 11.6986C28.2657 11.5446 28.1894 11.3251 28.1887 11.0401C28.1887 10.7234 28.2866 10.483 28.4823 10.3189C28.6781 10.1549 28.9856 10.057 29.4049 10.0253L30.1584 9.9721V9.86473C30.1607 9.76603 30.1508 9.66741 30.129 9.57113C30.1129 9.49808 30.0747 9.43174 30.0197 9.3811C29.9564 9.32909 29.8808 9.2941 29.8002 9.27943C29.6817 9.25789 29.5614 9.24803 29.441 9.24997C29.3023 9.24997 29.1465 9.25947 28.9717 9.27658C28.7968 9.29368 28.622 9.32124 28.4443 9.35734L28.3911 8.76919C28.7844 8.69522 29.1834 8.6558 29.5836 8.65137C30.0618 8.65137 30.4147 8.73815 30.6421 8.91171C30.8695 9.08528 30.9832 9.35639 30.9832 9.72506V11.8962H30.3066L30.2297 11.499H30.1822C29.8813 11.7683 29.4941 11.921 29.0904 11.9294ZM29.4287 11.3479C29.5572 11.346 29.6842 11.3199 29.8031 11.271C29.9288 11.2224 30.0482 11.1586 30.1584 11.0809V10.4225L29.6548 10.47C29.4173 10.4903 29.252 10.5359 29.1588 10.6068C29.1099 10.6489 29.0717 10.7021 29.0474 10.7619C29.0231 10.8217 29.0134 10.8865 29.0192 10.9508C29.0192 11.2162 29.1557 11.3486 29.4287 11.3479Z" fill="black"/>
<path d="M29.0904 11.9617C28.7883 11.9617 28.5545 11.8809 28.3978 11.7223C28.241 11.5636 28.1621 11.3355 28.1621 11.0448C28.1621 10.7217 28.2638 10.4747 28.4652 10.3027C28.6666 10.1307 28.9802 10.0348 29.403 10.0034L30.1318 9.95115V9.86944C30.1339 9.77356 30.124 9.6778 30.1024 9.58439C30.0869 9.51795 30.0518 9.4577 30.0016 9.41146C29.9417 9.36277 29.8705 9.33007 29.7945 9.31644C29.5225 9.27869 29.2465 9.27869 28.9745 9.31644C28.8025 9.33354 28.6258 9.3611 28.4491 9.39625L28.4196 9.40195L28.3616 8.75964H28.3864C28.7812 8.68534 29.1818 8.6456 29.5836 8.64087C30.0653 8.64087 30.4273 8.73018 30.6592 8.90787C30.891 9.08555 31.0107 9.3668 31.0107 9.74211V11.9408H30.2848L30.2078 11.5427H30.1917C29.8858 11.8084 29.4955 11.9569 29.0904 11.9617ZM29.441 9.23187C29.5634 9.2293 29.6857 9.23949 29.8059 9.26228C29.8911 9.27693 29.9711 9.31362 30.0377 9.3687C30.0962 9.42224 30.1372 9.49208 30.1556 9.56918C30.1777 9.66769 30.1879 9.7685 30.186 9.86944V10.0015L29.4068 10.0566C28.9954 10.088 28.6904 10.1849 28.5004 10.3417C28.3103 10.4984 28.2153 10.735 28.2153 11.0419C28.2087 11.1571 28.2248 11.2724 28.2628 11.3814C28.3008 11.4903 28.3599 11.5906 28.4367 11.6767C28.583 11.8249 28.8025 11.8999 29.0904 11.8999C29.4863 11.894 29.8672 11.7475 30.1651 11.4866L30.1727 11.48H30.2525L30.3294 11.8781H30.9566V9.72881C30.9566 9.37155 30.8454 9.1055 30.6259 8.93732C30.4064 8.76914 30.0558 8.68173 29.5807 8.68173C29.1902 8.68613 28.8007 8.72428 28.4168 8.79575L28.4652 9.32784C28.6334 9.29554 28.8025 9.27083 28.9669 9.25373C29.1244 9.23673 29.2826 9.22785 29.441 9.22712V9.23187ZM29.4287 11.3802C29.1389 11.3802 28.9926 11.2377 28.9926 10.9555C28.9868 10.887 28.9975 10.8181 29.0236 10.7545C29.0497 10.6909 29.0905 10.6344 29.1427 10.5897C29.2377 10.5146 29.4068 10.468 29.652 10.4481L30.186 10.3977V11.0999L30.1755 11.1066C30.0627 11.1838 29.9412 11.2476 29.8135 11.2966C29.6913 11.3467 29.5608 11.3735 29.4287 11.3755V11.3802ZM30.1318 10.4576L29.6567 10.5022C29.4258 10.5213 29.2634 10.565 29.175 10.6334C29.1296 10.673 29.0943 10.7229 29.072 10.7789C29.0497 10.835 29.041 10.8955 29.0467 10.9555C29.0467 11.2044 29.1721 11.326 29.4268 11.326C29.5517 11.3239 29.6751 11.2984 29.7907 11.251C29.9101 11.2043 30.0239 11.1444 30.1299 11.0724L30.1318 10.4576Z" fill="#010101"/>
<path d="M31.7546 7.10645H32.5794V11.9H31.7546V7.10645Z" fill="black"/>
<path d="M32.606 11.9276H31.7271V7.08179H32.606V11.9276ZM31.7822 11.8735H32.5508V7.1331H31.7812L31.7822 11.8735Z" fill="#010101"/>
<path d="M34.0807 11.9294C33.7836 11.9294 33.5591 11.8525 33.407 11.6986C33.327 11.6095 33.2656 11.5054 33.2262 11.3924C33.1869 11.2793 33.1705 11.1596 33.178 11.0401C33.178 10.7237 33.2731 10.4833 33.4716 10.3189C33.6702 10.1545 33.9762 10.0614 34.3943 10.0253L35.1487 9.9721V9.86473C35.1507 9.76598 35.1405 9.66737 35.1183 9.57113C35.1022 9.49808 35.0641 9.43174 35.009 9.3811C34.9458 9.32884 34.8702 9.29381 34.7895 9.27943C34.6711 9.25789 34.5508 9.24803 34.4304 9.24997C34.2916 9.24997 34.1358 9.25947 33.9619 9.27658C33.788 9.29368 33.6113 9.32124 33.4336 9.35734L33.3804 8.76919C33.7737 8.69522 34.1727 8.6558 34.5729 8.65137C35.0511 8.65137 35.404 8.73815 35.6314 8.91171C35.8588 9.08528 35.9722 9.35766 35.9715 9.72886V11.9H35.2969L35.219 11.5028H35.1715C34.8704 11.7706 34.4835 11.9219 34.0807 11.9294ZM34.419 11.3479C34.5471 11.3459 34.6738 11.3198 34.7924 11.271C34.9184 11.2222 35.038 11.1584 35.1487 11.0809V10.4225L34.6441 10.47C34.4066 10.4903 34.2413 10.5359 34.1482 10.6068C34.0995 10.6491 34.0616 10.7024 34.0375 10.7621C34.0134 10.8219 34.0038 10.8866 34.0094 10.9508C34.0094 11.2159 34.1453 11.3479 34.419 11.3479Z" fill="black"/>
<path d="M34.0806 11.9618C33.7775 11.9618 33.5447 11.881 33.388 11.7224C33.2312 11.5637 33.1514 11.3356 33.1514 11.0449C33.1514 10.7218 33.253 10.4748 33.4545 10.3028C33.6559 10.1308 33.9695 10.0349 34.3923 10.0035L35.1211 9.95124V9.86952C35.123 9.77371 35.1134 9.67801 35.0926 9.58447C35.0764 9.51809 35.041 9.45795 34.9909 9.41154C34.931 9.36285 34.8597 9.33016 34.7838 9.31653C34.512 9.27878 34.2364 9.27878 33.9647 9.31653C33.7918 9.33363 33.615 9.36118 33.4393 9.39634H33.406L33.3481 8.75403H33.3728C33.7676 8.67973 34.1682 8.63998 34.57 8.63525C35.0517 8.63525 35.4137 8.72457 35.6456 8.90225C35.8774 9.07993 35.9971 9.36118 35.9971 9.7365V11.9352H35.2712L35.1942 11.5371H35.179C34.8744 11.8037 34.4854 11.9541 34.0806 11.9618ZM34.4303 9.23196C34.5526 9.22939 34.6749 9.23958 34.7952 9.26237C34.8804 9.27702 34.9603 9.3137 35.027 9.36878C35.0854 9.42232 35.1265 9.49216 35.1448 9.56927C35.1669 9.66777 35.1772 9.76858 35.1752 9.86952V10.0016L34.3961 10.0567C33.9856 10.0881 33.6797 10.185 33.4896 10.3418C33.2996 10.4985 33.2046 10.7351 33.2046 11.042C33.1972 11.1579 33.2128 11.2741 33.2507 11.3839C33.2885 11.4936 33.3478 11.5948 33.425 11.6815C33.5713 11.8297 33.7918 11.9048 34.0797 11.9048C34.4762 11.8977 34.8573 11.7495 35.1543 11.4867L35.1619 11.4801H35.2417L35.3187 11.8782H35.9458V9.7289C35.9458 9.37164 35.8346 9.10559 35.6152 8.93741C35.3957 8.76923 35.0451 8.68181 34.57 8.68181C34.1794 8.68617 33.79 8.72432 33.406 8.79583L33.4545 9.32793C33.6227 9.29562 33.7908 9.27092 33.9552 9.25381C34.113 9.23679 34.2716 9.22791 34.4303 9.22721V9.23196ZM34.4189 11.3803C34.1291 11.3803 33.9818 11.2378 33.9818 10.9556C33.9761 10.8871 33.9867 10.8182 34.0128 10.7546C34.0389 10.691 34.0797 10.6345 34.1319 10.5898C34.227 10.5147 34.3961 10.4681 34.6412 10.4482L35.1752 10.3978V11.1L35.1638 11.1085C35.051 11.1858 34.9295 11.2496 34.8018 11.2986C34.6801 11.3481 34.5502 11.3742 34.4189 11.3755V11.3803ZM35.1211 10.4577L34.646 10.5023C34.4151 10.5213 34.2536 10.565 34.1652 10.6335C34.1196 10.673 34.0841 10.7229 34.0617 10.7789C34.0392 10.8349 34.0304 10.8955 34.036 10.9556C34.036 11.2045 34.1614 11.3261 34.416 11.3261C34.5406 11.3238 34.6637 11.2984 34.779 11.2511C34.8984 11.2044 35.0122 11.1445 35.1182 11.0724L35.1211 10.4577Z" fill="#010101"/>
<path d="M8.32163 13.9572C7.07311 13.8878 6.32627 13.1144 6.31107 11.8725C6.32912 10.6307 7.07121 9.85818 8.32163 9.78882C9.14638 9.74226 9.74023 9.13415 9.71933 8.35786C9.70924 7.99652 9.55927 7.65321 9.30102 7.40027C9.04276 7.14734 8.6964 7.00454 8.33493 7.00197C7.56529 6.99627 6.89923 7.57207 6.93438 8.36926C6.97714 9.33749 6.54766 9.90759 5.69346 10.2306C4.81171 10.5632 4.01451 10.3741 3.29809 9.79737C2.94747 9.51232 2.81445 9.13225 2.80685 8.68282C2.81425 8.41763 2.7806 8.15289 2.70708 7.89798C2.59066 7.57923 2.35987 7.31516 2.05958 7.15711C1.75929 6.99906 1.41095 6.95833 1.08229 7.04283C0.753451 7.1194 0.463651 7.31288 0.266862 7.58724C0.0700732 7.8616 -0.0202881 8.19814 0.012606 8.53417C0.0455002 8.8702 0.199408 9.18282 0.445665 9.41381C0.691923 9.6448 1.01374 9.77842 1.35119 9.78977C2.19304 9.84012 2.87146 10.1698 3.26198 10.9471C3.40938 11.2345 3.48626 11.5529 3.48626 11.8759C3.48626 12.1989 3.40938 12.5172 3.26198 12.8047C2.87051 13.5838 2.19304 13.9106 1.35119 13.962C1.01374 13.9733 0.691923 14.1069 0.445665 14.3379C0.199408 14.5689 0.0455002 14.8815 0.012606 15.2176C-0.0202881 15.5536 0.0700732 15.8901 0.266862 16.1645C0.463651 16.4388 0.753451 16.6323 1.08229 16.7089C1.41094 16.7932 1.75919 16.7523 2.05942 16.5943C2.35966 16.4363 2.59048 16.1724 2.70708 15.8537C2.7806 15.5988 2.81425 15.3341 2.80685 15.0689C2.81445 14.6223 2.94747 14.2375 3.29809 13.9553C4.01451 13.3786 4.81171 13.1885 5.69346 13.522C6.54861 13.8441 6.97714 14.4142 6.93438 15.3834C6.89923 16.1787 7.56529 16.7555 8.33493 16.7507C8.69592 16.7477 9.04166 16.6048 9.29948 16.3521C9.5573 16.0994 9.70711 15.7566 9.71743 15.3958C9.73833 14.6109 9.14447 14.0019 8.32163 13.9572Z" fill="url(#paint0_linear_1_1421)"/>
<path d="M4.86015 13.9571C4.67722 13.9592 4.49649 13.9972 4.32828 14.0692C4.16007 14.1411 4.00767 14.2454 3.87978 14.3762C3.75188 14.507 3.65101 14.6617 3.58291 14.8315C3.51481 15.0013 3.48082 15.1828 3.48288 15.3657C3.48494 15.5487 3.523 15.7294 3.59491 15.8976C3.66681 16.0658 3.77114 16.2182 3.90195 16.3461C4.03275 16.474 4.18746 16.5749 4.35725 16.643C4.52704 16.7111 4.70858 16.7451 4.8915 16.743C5.26093 16.7389 5.61359 16.5881 5.87187 16.3239C6.13016 16.0598 6.27293 15.7038 6.26877 15.3344C6.26461 14.965 6.11387 14.6123 5.8497 14.354C5.58553 14.0957 5.22958 13.953 4.86015 13.9571Z" fill="#010101"/>
<path d="M1.41286 10.4614C1.03889 10.4614 0.680238 10.61 0.415802 10.8744C0.151366 11.1389 0.00280762 11.4975 0.00280762 11.8715C0.00280762 12.2454 0.151366 12.6041 0.415802 12.8685C0.680238 13.133 1.03889 13.2815 1.41286 13.2815C1.59516 13.281 1.77557 13.2444 1.94364 13.1738C2.11171 13.1032 2.26411 12.9999 2.39205 12.8701C2.51998 12.7402 2.62091 12.5862 2.68899 12.4171C2.75707 12.248 2.79096 12.0671 2.7887 11.8848V11.8582C2.79084 11.6759 2.75686 11.495 2.68873 11.326C2.6206 11.1569 2.51967 11.003 2.39176 10.8732C2.26385 10.7433 2.1115 10.6401 1.94348 10.5694C1.77547 10.4987 1.59513 10.462 1.41286 10.4614Z" fill="#010101"/>
<path d="M9.73547 11.8156C9.7204 11.4478 9.56228 11.1004 9.2948 10.8475C9.02732 10.5945 8.67164 10.4561 8.30356 10.4616C7.93855 10.475 7.59296 10.6294 7.33947 10.8924C7.08598 11.1554 6.94434 11.5064 6.94434 11.8716C6.94434 12.2369 7.08598 12.5879 7.33947 12.8509C7.59296 13.1139 7.93855 13.2683 8.30356 13.2817C8.67155 13.2874 9.02723 13.1492 9.29474 12.8964C9.56224 12.6437 9.7204 12.2964 9.73547 11.9286V11.8156Z" fill="#010101"/>
<path d="M4.86015 9.78696C5.22412 9.78248 5.5719 9.6358 5.82915 9.37828C6.0864 9.12076 6.23271 8.77282 6.2368 8.40885C6.2409 8.04487 6.10246 7.69374 5.85107 7.43049C5.59968 7.16725 5.25529 7.01278 4.89151 7.00011C4.70581 6.99364 4.52069 7.02437 4.34704 7.09049C4.17338 7.1566 4.0147 7.25676 3.88032 7.38509C3.74594 7.51342 3.63857 7.66732 3.56453 7.83775C3.49049 8.00817 3.45128 8.19168 3.44918 8.37748C3.44709 8.56328 3.48217 8.74763 3.55236 8.91968C3.62255 9.09172 3.72642 9.248 3.85788 9.37932C3.98934 9.51064 4.14573 9.61435 4.31785 9.68436C4.48997 9.75436 4.67436 9.78925 4.86015 9.78696Z" fill="#010101"/>
<path d="M14.7305 15.7549C14.6121 15.904 14.454 16.0167 14.2744 16.0799C14.0612 16.1568 13.8358 16.1941 13.6093 16.1901C13.3729 16.1946 13.1397 16.1348 12.9347 16.0172C12.738 15.9009 12.5803 15.729 12.4814 15.5231C12.3705 15.2885 12.314 15.0319 12.3161 14.7724V14.5349C12.3161 14.0769 12.4257 13.719 12.6449 13.4612C12.864 13.2034 13.17 13.0748 13.5627 13.0754C13.8997 13.0754 14.1677 13.1591 14.3666 13.3263C14.5746 13.5114 14.703 13.7698 14.7248 14.0475H14.2126C14.1537 13.6826 13.9418 13.5002 13.577 13.5002C13.4732 13.4942 13.3696 13.5144 13.2756 13.5589C13.1817 13.6034 13.1004 13.6708 13.0392 13.7548C12.9169 13.9252 12.8536 14.1745 12.8491 14.5026V14.7354C12.8491 15.0632 12.9185 15.3169 13.0563 15.4955C13.1233 15.5838 13.2106 15.6546 13.3109 15.7017C13.4112 15.7489 13.5214 15.771 13.6321 15.7663C13.9019 15.7663 14.0929 15.7055 14.2069 15.5829V14.9929H13.5827V14.5929H14.7314L14.7305 15.7549Z" fill="black"/>
<path d="M16.6499 16.1482C16.6204 16.0814 16.6005 16.0107 16.591 15.9382C16.5157 16.0195 16.4242 16.0839 16.3224 16.1273C16.2205 16.1707 16.1106 16.1921 16 16.19C15.7978 16.1996 15.5997 16.1316 15.446 16C15.3779 15.9411 15.3235 15.8681 15.2864 15.7861C15.2493 15.704 15.2305 15.6149 15.2313 15.5249C15.2259 15.4177 15.2476 15.3108 15.2945 15.2141C15.3413 15.1175 15.4117 15.0342 15.4992 14.9719C15.6778 14.8452 15.9312 14.7819 16.2594 14.7819H16.5701V14.6223C16.5768 14.5185 16.5427 14.4162 16.475 14.3372C16.4353 14.3 16.3883 14.2715 16.3369 14.2535C16.2855 14.2355 16.231 14.2284 16.1767 14.2327C16.0746 14.2279 15.9739 14.2584 15.8916 14.3191C15.857 14.3442 15.829 14.3773 15.8098 14.4155C15.7906 14.4537 15.7809 14.4959 15.7814 14.5386H15.2759C15.2768 14.4126 15.3199 14.2904 15.3985 14.1918C15.486 14.0798 15.6013 13.9926 15.733 13.9391C15.8829 13.8743 16.0448 13.8419 16.208 13.8441C16.4355 13.8321 16.6597 13.903 16.839 14.0436C16.9183 14.1128 16.9812 14.1989 17.0229 14.2956C17.0647 14.3923 17.0843 14.4971 17.0803 14.6023V15.618C17.0734 15.7841 17.1026 15.9498 17.1658 16.1036V16.1387L16.6499 16.1482ZM16.094 15.7843C16.1938 15.7849 16.2919 15.7597 16.3791 15.7111C16.4627 15.6664 16.5317 15.5984 16.5777 15.5154V15.0907H16.3031C16.1558 15.0795 16.0086 15.1126 15.8802 15.1857C15.8348 15.2157 15.798 15.2569 15.7732 15.3054C15.7484 15.3538 15.7365 15.4078 15.7387 15.4622C15.7365 15.5056 15.7438 15.5489 15.7603 15.5892C15.7767 15.6294 15.8017 15.6655 15.8337 15.695C15.9062 15.7562 15.9991 15.7881 16.094 15.7843Z" fill="black"/>
<path d="M18.1292 13.8953L18.1435 14.1309C18.2238 14.0386 18.324 13.9656 18.4365 13.9175C18.5491 13.8695 18.6711 13.8476 18.7934 13.8535C19.0946 13.8535 19.3008 13.9694 19.411 14.1993C19.4877 14.088 19.5914 13.9979 19.7123 13.9374C19.8333 13.8769 19.9676 13.8481 20.1027 13.8535C20.3516 13.8535 20.536 13.9219 20.6576 14.0597C20.7792 14.1974 20.841 14.3998 20.8476 14.6678V16.1481H20.3421V14.682C20.3515 14.5692 20.3176 14.4571 20.2471 14.3685C20.2052 14.3313 20.156 14.3032 20.1028 14.2858C20.0495 14.2685 19.9932 14.2623 19.9374 14.2678C19.8339 14.2631 19.7323 14.2969 19.6523 14.3628C19.578 14.4264 19.5244 14.5108 19.4984 14.6051V16.15H18.992V14.6678C18.9853 14.4027 18.8494 14.2697 18.5862 14.2697C18.4978 14.2634 18.4096 14.2837 18.3327 14.3278C18.2559 14.372 18.1939 14.4381 18.1549 14.5176V16.15H17.6522V13.8953H18.1292Z" fill="black"/>
<path d="M21.4073 13.31C21.4062 13.2394 21.4328 13.1712 21.4814 13.12C21.5094 13.0933 21.5425 13.0726 21.5788 13.0594C21.6151 13.0462 21.6538 13.0406 21.6924 13.043C21.7312 13.0407 21.7701 13.0463 21.8068 13.0595C21.8434 13.0727 21.8769 13.0933 21.9052 13.12C21.9541 13.1711 21.981 13.2393 21.9803 13.31C21.981 13.3451 21.9747 13.38 21.9619 13.4126C21.949 13.4452 21.9297 13.475 21.9052 13.5001C21.8768 13.5266 21.8432 13.547 21.8066 13.5601C21.77 13.5732 21.7312 13.5786 21.6924 13.5761C21.6539 13.5783 21.6154 13.5728 21.5791 13.5597C21.5429 13.5466 21.5096 13.5263 21.4814 13.5001C21.4571 13.4749 21.4379 13.4452 21.4252 13.4125C21.4125 13.3799 21.4064 13.3451 21.4073 13.31ZM21.9442 16.1482H21.4387V13.8953H21.9442V16.1482Z" fill="black"/>
<path d="M23.0075 13.8954L23.0217 14.1558C23.1003 14.0582 23.2003 13.9802 23.3141 13.9278C23.4278 13.8753 23.5521 13.85 23.6773 13.8536C24.1467 13.8536 24.3855 14.1222 24.3937 14.6594V16.1483H23.8883V14.6888C23.8969 14.5749 23.8631 14.4619 23.7932 14.3715C23.7531 14.3338 23.7053 14.3051 23.6533 14.2873C23.6012 14.2694 23.5459 14.2628 23.4911 14.2679C23.3962 14.2649 23.3026 14.2896 23.2214 14.3388C23.1403 14.3881 23.0752 14.4598 23.0341 14.5453V16.1483H22.5286V13.8954H23.0075Z" fill="black"/>
<path d="M24.863 15.0023C24.863 14.6526 24.9454 14.3733 25.1101 14.1642C25.1863 14.0635 25.2855 13.9825 25.3994 13.928C25.5132 13.8734 25.6385 13.8469 25.7647 13.8507C25.8797 13.8453 25.9944 13.8667 26.0997 13.9134C26.2049 13.9601 26.2978 14.0307 26.371 14.1196L26.3938 13.8925H26.8498V16.0779C26.8564 16.2073 26.8352 16.3367 26.7877 16.4573C26.7402 16.5779 26.6674 16.687 26.5743 16.7772C26.3686 16.9561 26.1015 17.0481 25.8294 17.0337C25.6627 17.0336 25.4978 16.9984 25.3457 16.9302C25.2041 16.8738 25.0801 16.7807 24.9866 16.6603L25.226 16.3563C25.2936 16.4429 25.3801 16.513 25.4789 16.5611C25.5777 16.6092 25.6862 16.634 25.7961 16.6337C25.9413 16.6417 26.0838 16.5926 26.1933 16.4969C26.2443 16.444 26.2837 16.381 26.3087 16.3119C26.3338 16.2428 26.344 16.1692 26.3386 16.0959V15.9448C26.2652 16.0255 26.175 16.089 26.0744 16.131C25.9738 16.173 25.8652 16.1925 25.7562 16.1881C25.6311 16.1907 25.5073 16.1635 25.3948 16.1088C25.2823 16.0541 25.1844 15.9735 25.1091 15.8736C24.9495 15.6674 24.863 15.3757 24.863 15.0023ZM25.3676 15.046C25.3569 15.234 25.4051 15.4206 25.5054 15.58C25.5479 15.6408 25.6049 15.69 25.6713 15.7232C25.7376 15.7564 25.8113 15.7725 25.8854 15.77C25.9781 15.7742 26.0701 15.7517 26.1504 15.7052C26.2307 15.6587 26.2961 15.5902 26.3386 15.5078V14.5272C26.2966 14.4456 26.2317 14.3779 26.1519 14.3324C26.0722 14.2868 25.9809 14.2654 25.8892 14.2706C25.813 14.268 25.7374 14.2847 25.6694 14.3193C25.6014 14.3539 25.5433 14.4051 25.5006 14.4683C25.3995 14.6442 25.3531 14.8464 25.3676 15.0488V15.046Z" fill="black"/>
</g>
<defs>
<linearGradient id="paint0_linear_1_1421" x1="0.414323" y1="7.42004" x2="9.31836" y2="16.3241" gradientUnits="userSpaceOnUse">
<stop offset="0.02" stop-color="#FFCE00"/>
<stop offset="0.44" stop-color="#FF1C03"/>
<stop offset="1" stop-color="#DE0021"/>
</linearGradient>
<clipPath id="clip0_1_1421">
<rect width="36" height="10.0347" fill="white" transform="translate(0 7)"/>
</clipPath>
</defs>
</svg>
