<svg width="36" height="24" viewBox="0 0 36 24" fill="none" xmlns="http://www.w3.org/2000/svg">
<g clip-path="url(#clip0_1_8200)">
<path d="M0.210596 16.3046C0.143047 16.3483 0.0635763 16.4198 0.0437087 16.4635C0.0158941 16.5152 0 17.1549 0 18.3668V20.1947L0.115232 20.3178C0.21457 20.4251 0.258279 20.441 0.425166 20.441C0.584107 20.441 0.639736 20.4212 0.719206 20.3377C0.810597 20.2423 0.814571 20.2026 0.834438 19.6543L0.854306 19.0702L2.18543 19.0503L3.51656 19.0304L3.70332 18.9192C3.91391 18.796 4.07683 18.6053 4.1563 18.3867C4.22782 18.1841 4.22782 17.0993 4.1563 16.9006C4.07683 16.6781 3.85431 16.4397 3.63577 16.3404C3.44106 16.249 3.4053 16.249 1.88742 16.237C0.405299 16.2291 0.333775 16.2291 0.210596 16.3046ZM3.25828 17.1152C3.35365 17.1629 3.35762 17.1788 3.36954 17.6238C3.37749 18.0291 3.36954 18.0887 3.30596 18.1483C3.23842 18.2119 3.11524 18.2159 2.04239 18.2079L0.854306 18.196L0.842385 17.6834C0.838412 17.3973 0.842385 17.143 0.850332 17.1152C0.878147 17.0397 3.11126 17.0397 3.25828 17.1152Z" fill="#101820"/>
<path d="M5.54698 16.2887C5.32049 16.4079 5.32844 16.3364 5.32446 18.347V20.2106L5.43969 20.3258L5.55493 20.441H7.21188H8.86884L8.98407 20.3258C9.15493 20.1549 9.14699 19.9245 8.9642 19.7417L8.8291 19.6066H7.494H6.1589V18.0967C6.1589 16.4357 6.15493 16.4119 5.92049 16.2887C5.77347 16.2132 5.694 16.2132 5.54698 16.2887Z" fill="#101820"/>
<path d="M12.2583 16.2887C12.1351 16.3523 12.1073 16.3801 11.9007 16.7457C11.698 17.0953 11.0742 18.1642 10.8477 18.5536C10.1126 19.8132 10.053 19.9245 10.053 20.0635C10.053 20.2861 10.2278 20.441 10.4781 20.441C10.7285 20.441 10.7563 20.4092 11.1775 19.6861C11.3603 19.3682 11.6781 18.8238 11.8808 18.4741C12.0834 18.1245 12.2901 17.7708 12.3338 17.6914C12.3815 17.6079 12.4291 17.5404 12.445 17.5404C12.457 17.5404 12.5245 17.6357 12.5841 17.747C12.6477 17.8622 12.8623 18.2357 13.0609 18.5735C13.2556 18.9112 13.5576 19.4318 13.7285 19.7258C14.098 20.3695 14.1656 20.441 14.408 20.441C14.7775 20.441 14.9325 20.0993 14.7298 19.7457C14.6782 19.6582 14.4954 19.3443 14.3285 19.0503C14.1576 18.7563 13.9669 18.4344 13.9073 18.3351C13.8477 18.2357 13.5616 17.747 13.2715 17.2503C12.6596 16.2013 12.5841 16.1298 12.2583 16.2887Z" fill="#101820"/>
<path d="M14.8609 16.2728C14.6503 16.3563 14.551 16.6582 14.6662 16.8768C14.694 16.9245 14.9563 17.2384 15.2543 17.5761C15.5523 17.9139 15.9695 18.3907 16.1841 18.637L16.5695 19.0821V19.6463V20.2106L16.6847 20.3258C16.7801 20.4212 16.8357 20.441 16.9867 20.441C17.1377 20.441 17.1933 20.4212 17.2887 20.3258L17.4039 20.2106V19.6463V19.0861L17.694 18.7563C17.849 18.5735 18.2106 18.1602 18.4967 17.8344C18.7788 17.5086 19.0768 17.1708 19.1602 17.0834C19.3629 16.8688 19.4185 16.69 19.3351 16.4953C19.2914 16.388 19.2318 16.3284 19.1245 16.2847C18.8821 16.1814 18.739 16.249 18.4092 16.6344C17.9324 17.1907 17.2371 17.9894 17.1059 18.1284L16.9828 18.2596L16.3708 17.5563C16.0331 17.1708 15.6556 16.7377 15.5324 16.5947C15.2225 16.237 15.0993 16.1774 14.8609 16.2728Z" fill="#101820"/>
<path d="M21.0199 16.2649C20.849 16.3205 20.6066 16.4556 20.5152 16.5549C20.3245 16.7576 20.2649 16.9721 20.2649 17.4808C20.2649 17.743 20.2848 18.0212 20.3046 18.1006C20.3563 18.2874 20.5907 18.5536 20.7973 18.6649C20.9563 18.7483 21.004 18.7523 22.3709 18.7642C23.2967 18.7721 23.7973 18.792 23.8291 18.8198C23.9007 18.8794 23.9007 19.4993 23.8291 19.5589C23.7934 19.5907 23.2609 19.6066 22.196 19.6145L20.6146 19.6265L20.4993 19.7576C20.3404 19.9364 20.3404 20.147 20.4993 20.3178L20.6146 20.441H22.3192H24.0199L24.2305 20.3178C24.4609 20.1867 24.6477 19.9404 24.7192 19.6662C24.7907 19.4079 24.747 18.7483 24.6477 18.5218C24.5444 18.3033 24.3616 18.1205 24.1391 18.0132C23.9921 17.9457 23.8649 17.9377 22.6172 17.9377C21.755 17.9377 21.2265 17.9218 21.1748 17.898C21.1073 17.8622 21.0993 17.8106 21.0993 17.4966C21.0993 17.151 21.1033 17.139 21.2026 17.1033C21.2622 17.0794 21.9338 17.0635 22.8318 17.0635H24.3656L24.4808 16.9483C24.6834 16.7457 24.6238 16.4278 24.3576 16.2887C24.2622 16.237 23.9921 16.2291 22.6808 16.2331C21.8225 16.2331 21.0755 16.249 21.0199 16.2649Z" fill="#101820"/>
<path d="M26.6224 16.2649C26.4515 16.3205 26.2092 16.4556 26.1178 16.5549C26.0701 16.6026 25.9946 16.7258 25.9509 16.8251C25.8754 16.992 25.8674 17.0794 25.8674 18.347C25.8674 19.7894 25.8714 19.8172 26.082 20.0953C26.1376 20.1708 26.2727 20.2781 26.38 20.3337L26.5747 20.441H28.0966H29.6224L29.833 20.3178C30.0595 20.1867 30.2502 19.9404 30.3217 19.6741C30.3456 19.5827 30.3575 19.0384 30.3496 18.2635L30.3376 17.0039L30.2304 16.8013C30.1708 16.6861 30.0555 16.539 29.9721 16.4715C29.6979 16.245 29.5747 16.2291 28.0767 16.2331C27.3297 16.2331 26.678 16.249 26.6224 16.2649ZM29.38 17.1033L29.4833 17.143V18.3271C29.4833 19.1933 29.4714 19.5231 29.4356 19.5589C29.3681 19.6265 26.8171 19.6265 26.7496 19.5589C26.7138 19.5231 26.7019 19.1933 26.7019 18.3271V17.139L26.7933 17.1033C26.9125 17.0556 29.2529 17.0516 29.38 17.1033Z" fill="#101820"/>
<path d="M31.7165 16.3085C31.645 16.3522 31.5695 16.4357 31.5496 16.4913C31.5258 16.5509 31.5099 17.3059 31.5099 18.3589C31.5099 20.2463 31.5139 20.2979 31.7046 20.4013C31.8476 20.4768 32.094 20.4489 32.2132 20.3456L32.3245 20.2503L32.3443 18.947L32.3642 17.6436L33.7152 18.8913C34.4582 19.5787 35.0741 20.147 35.0861 20.1628C35.098 20.1748 35.1735 20.2423 35.2569 20.3138C35.3801 20.4172 35.4397 20.441 35.5867 20.441C35.7377 20.441 35.7894 20.4211 35.8847 20.3178L36 20.1946V18.347V16.4993L35.8847 16.388C35.7457 16.245 35.5947 16.2052 35.4476 16.2688C35.1814 16.3761 35.1894 16.3443 35.1655 17.7668L35.1457 19.0582L33.9735 17.9774C33.3298 17.3814 32.686 16.7854 32.543 16.6463C32.2569 16.3721 32.0463 16.2291 31.9271 16.2291C31.8834 16.2291 31.788 16.2648 31.7165 16.3085Z" fill="#101820"/>
<path d="M13.6929 3.02568C13.5419 3.07336 13.3591 3.25217 13.2876 3.41906C13.2399 3.53032 13.2319 4.21774 13.2319 7.77006V11.9899L13.3194 12.1648C13.4465 12.4111 13.6253 12.5224 13.8955 12.5224C14.1578 12.5224 14.3405 12.4429 14.4677 12.2721L14.5631 12.1449L14.575 8.47734C14.579 6.10118 14.5988 4.81376 14.6227 4.81376C14.6783 4.81376 20.5551 7.75417 20.5392 7.77403C20.5114 7.79787 17.2611 9.42304 17.2372 9.42304C17.2213 9.42304 17.2054 9.00582 17.1975 8.49721C17.1856 7.65085 17.1776 7.56344 17.1021 7.43628C16.8717 7.04291 16.3511 6.97138 16.0293 7.29324C15.8227 7.49986 15.8107 7.60715 15.8227 9.25615C15.8346 10.925 15.8306 10.9012 16.1167 11.1158C16.216 11.1913 16.3194 11.231 16.4664 11.2429C16.669 11.2588 16.7008 11.2429 19.5737 9.80847C21.2743 8.95417 22.518 8.31046 22.5856 8.24291C22.7286 8.10383 22.7684 7.99655 22.7684 7.77006C22.7684 7.56741 22.6929 7.36873 22.5856 7.27337C22.5419 7.23761 20.6266 6.2641 18.322 5.11178C14.0068 2.95416 13.971 2.93826 13.6929 3.02568Z" fill="#FF002A"/>
</g>
<defs>
<clipPath id="clip0_1_8200">
<rect width="36" height="24" fill="white"/>
</clipPath>
</defs>
</svg>
