<svg width="36" height="24" viewBox="0 0 36 24" fill="none" xmlns="http://www.w3.org/2000/svg">
<path d="M2.87856 8.51401C2.30476 8.58346 1.86074 8.74058 1.42469 9.02976C0.664169 9.53184 0.170058 10.3083 0.0266059 11.2282C0.000420301 11.3899 -0.00868775 11.8225 0.00952835 11.9978C0.149565 13.3811 1.14576 14.5037 2.49716 14.802C2.7408 14.8555 2.84782 14.8657 3.18027 14.8657C3.51271 14.8657 3.61973 14.8555 3.86337 14.802C4.6626 14.6255 5.36392 14.1485 5.81932 13.4745C6.08915 13.0749 6.25651 12.6445 6.33393 12.1504C6.36353 11.9648 6.36922 11.5356 6.34531 11.3307C6.23716 10.3834 5.72711 9.55233 4.93584 9.02976C4.54761 8.77245 4.13775 8.61534 3.64706 8.53451C3.53776 8.51743 2.97989 8.50263 2.87856 8.51401ZM3.37381 9.36106C4.36887 9.451 5.20453 10.1626 5.44476 11.1246C5.53811 11.4935 5.53811 11.8885 5.44476 12.2551C5.26487 12.9701 4.73547 13.5758 4.04895 13.8536C3.75749 13.9709 3.50019 14.021 3.18027 14.021C2.86035 14.021 2.60305 13.9709 2.31159 13.8536C1.54423 13.5439 0.997752 12.8494 0.867962 12.0195C0.826976 11.7508 0.845192 11.4058 0.915779 11.1246C1.01938 10.7091 1.24822 10.3151 1.55904 10.0146C2.04859 9.54322 2.71803 9.30186 3.37381 9.36106Z" fill="url(#paint0_linear_20_17884)"/>
<path d="M3.01518 10.6385C2.90589 10.6533 2.7317 10.717 2.62582 10.7796C2.50058 10.8536 2.3446 11.0096 2.2706 11.1349C2.11918 11.3899 2.07819 11.7212 2.16244 12.0001C2.26946 12.3496 2.55523 12.6229 2.91158 12.7162C3.06869 12.7584 3.29184 12.7584 3.44896 12.7162C4.05009 12.558 4.38481 11.9295 4.18329 11.3398C4.12864 11.1804 4.0535 11.0609 3.93168 10.9379C3.68918 10.6965 3.36129 10.5895 3.01518 10.6385Z" fill="url(#paint1_linear_20_17884)"/>
<path d="M17.0917 13.8694H18.1391V9.37231H17.0917V13.8694Z" fill="url(#paint2_linear_20_17884)"/>
<path d="M26.7007 13.8694H27.7481V9.37231H26.7007V13.8694Z" fill="url(#paint3_linear_20_17884)"/>
<path d="M10.05 9.55675C9.5058 9.61823 8.97411 9.89603 8.64167 10.2934C8.37981 10.6076 8.22611 10.948 8.15894 11.3704C8.13048 11.5412 8.13048 11.9009 8.1578 12.0785C8.21359 12.4383 8.35135 12.7708 8.56539 13.0622C8.65761 13.1886 8.87506 13.4015 9.00599 13.4937C9.52515 13.8626 10.1695 13.9935 10.8139 13.8637C11.7521 13.6736 12.4192 12.929 12.5137 11.9636C12.5672 11.4205 12.4397 10.8922 12.1517 10.4641C11.8113 9.95637 11.2466 9.6262 10.5999 9.55561C10.4701 9.54081 10.1798 9.54195 10.05 9.55675ZM10.6386 10.5199C11.0769 10.6383 11.3468 10.9457 11.439 11.433C11.4674 11.5799 11.4674 11.8656 11.4401 12.0068C11.3832 12.3017 11.2819 12.4964 11.0951 12.6751C10.9506 12.814 10.7855 12.8971 10.5726 12.9415C10.4587 12.9654 10.2185 12.9654 10.1012 12.9427C9.639 12.8539 9.32705 12.5271 9.23028 12.0341C9.20409 11.9009 9.19612 11.6641 9.2132 11.5286C9.25305 11.2099 9.36917 10.956 9.55589 10.7772C9.64811 10.6907 9.71528 10.6452 9.83141 10.5905C9.91566 10.5507 10.05 10.5097 10.1411 10.496C10.1604 10.4926 10.2595 10.4915 10.3631 10.4937C10.51 10.496 10.5703 10.5017 10.6386 10.5199Z" fill="url(#paint4_linear_20_17884)"/>
<path d="M24.4635 10.4482C24.1458 10.5074 23.8851 10.6611 23.7132 10.8899L23.6722 10.9457V10.4767H22.6248V15.4861H23.6722V14.4466L23.6734 13.4083L23.6973 13.4425C23.7098 13.4607 23.7679 13.5222 23.8259 13.5791C23.9796 13.7305 24.1527 13.825 24.3792 13.8819C24.5159 13.9161 24.8198 13.9252 24.9701 13.899C25.5861 13.792 26.0437 13.307 26.1769 12.6216C26.2487 12.2493 26.227 11.8212 26.1189 11.4899C25.9413 10.9446 25.5542 10.578 25.0305 10.4584C24.9166 10.4334 24.5808 10.4266 24.4635 10.4482ZM24.599 11.3613C24.739 11.3954 24.8779 11.4865 24.9747 11.6061C25.0999 11.7609 25.1546 11.9328 25.1546 12.1673C25.1546 12.4338 25.0794 12.6341 24.9189 12.7935C24.7663 12.9472 24.616 13.0087 24.4009 13.0076C24.3041 13.0076 24.2642 13.0019 24.1891 12.978C23.7895 12.847 23.5811 12.4019 23.695 11.9237C23.769 11.614 24.0058 11.3886 24.3041 11.3431C24.3861 11.3305 24.5079 11.3374 24.599 11.3613Z" fill="url(#paint5_linear_20_17884)"/>
<path d="M29.4843 10.4493C29.1871 10.5017 28.9378 10.6304 28.7261 10.841C28.4084 11.1575 28.2376 11.6209 28.2376 12.1673C28.2376 13.085 28.7295 13.7681 29.4832 13.8979C29.6107 13.9195 29.852 13.9195 29.9852 13.8979C30.2949 13.8478 30.5499 13.7009 30.7458 13.4596L30.7868 13.4083L30.7879 13.6383V13.8694H31.8353V10.4767H30.7879V10.7044C30.7879 10.8296 30.7845 10.9321 30.7799 10.9321C30.7742 10.9321 30.7537 10.9059 30.7321 10.8751C30.682 10.8 30.5636 10.6907 30.4646 10.6269C30.3245 10.5359 30.1389 10.4698 29.9511 10.4425C29.8384 10.4266 29.5925 10.43 29.4843 10.4493ZM30.23 11.3601C30.4179 11.408 30.5978 11.5548 30.6843 11.7313C30.7594 11.8827 30.7799 11.9795 30.7811 12.173C30.7811 12.37 30.7651 12.4463 30.6888 12.6045C30.6467 12.6922 30.6217 12.7275 30.5499 12.7981C30.4019 12.9461 30.2494 13.0087 30.0365 13.0076C29.9363 13.0076 29.9021 13.003 29.8258 12.9768C29.6312 12.9108 29.4968 12.7924 29.3989 12.6045C29.3295 12.4713 29.3033 12.3472 29.3044 12.1617C29.3044 11.9795 29.3283 11.8759 29.3989 11.7347C29.5537 11.4273 29.8907 11.2748 30.23 11.3601Z" fill="url(#paint6_linear_20_17884)"/>
<path d="M14.9023 10.4539C14.6177 10.4994 14.3672 10.6247 14.1805 10.8148L14.086 10.9104V10.4767H13.05V13.8694H14.0849L14.0883 12.8698C14.0917 11.8804 14.0928 11.8702 14.1179 11.7825C14.1828 11.5503 14.3262 11.4 14.5471 11.3351C14.6405 11.3078 14.8408 11.3078 14.9331 11.3351C15.1551 11.4011 15.2917 11.5412 15.3623 11.7746L15.3885 11.86L15.393 12.8641L15.3964 13.8694H16.4313V12.822C16.4313 12.156 16.4268 11.7336 16.4188 11.663C16.3471 11.0083 16.0089 10.5996 15.4351 10.471C15.3406 10.4493 14.9991 10.4391 14.9023 10.4539Z" fill="url(#paint7_linear_20_17884)"/>
<path d="M18.4567 10.5017C18.4624 10.5165 18.771 11.2452 19.1421 12.1218C19.5121 12.9985 19.8184 13.7282 19.8207 13.7442C19.8229 13.7635 19.6988 14.0493 19.4381 14.6265L19.051 15.4804L19.61 15.4838C19.9186 15.485 20.1736 15.4827 20.177 15.4781C20.1873 15.4667 22.306 10.496 22.306 10.4846C22.306 10.4801 22.0533 10.4767 21.7436 10.4767H21.18L21.1584 10.5359C21.1459 10.5689 20.9728 11.0391 20.7747 11.581C20.5755 12.1229 20.4093 12.5704 20.4047 12.5749C20.399 12.5806 19.8138 11.0231 19.6214 10.4903C19.618 10.4801 19.4894 10.4767 19.0317 10.4767H18.4465L18.4567 10.5017Z" fill="url(#paint8_linear_20_17884)"/>
<path d="M32.1427 10.4835C32.1427 10.4869 32.4535 11.2247 32.8326 12.1229L33.5214 13.7544L33.1343 14.6129C32.9203 15.0842 32.7461 15.4736 32.7461 15.4781C32.7461 15.4827 32.9989 15.4861 33.3074 15.4861H33.8675L34.932 12.9916C35.5172 11.6186 35.9988 10.4915 36 10.4869C36.0022 10.4812 35.7506 10.4767 35.4364 10.4767H34.8694L34.4823 11.5298C34.2706 12.1081 34.093 12.5795 34.0896 12.5761C34.0861 12.5727 33.9097 12.1002 33.6968 11.5264L33.3085 10.4824L32.7256 10.4789C32.4046 10.4778 32.1427 10.4801 32.1427 10.4835Z" fill="url(#paint9_linear_20_17884)"/>
<defs>
<linearGradient id="paint0_linear_20_17884" x1="3.17946" y1="9.65952" x2="3.17947" y2="13.0637" gradientUnits="userSpaceOnUse">
<stop stop-color="#F79F2D"/>
<stop offset="1" stop-color="#FF4D4D"/>
</linearGradient>
<linearGradient id="paint1_linear_20_17884" x1="3.17946" y1="9.65952" x2="3.17947" y2="13.0637" gradientUnits="userSpaceOnUse">
<stop stop-color="#F79F2D"/>
<stop offset="1" stop-color="#FF4D4D"/>
</linearGradient>
<linearGradient id="paint2_linear_20_17884" x1="22.0659" y1="10.4781" x2="22.0659" y2="13.7527" gradientUnits="userSpaceOnUse">
<stop stop-color="#F79F2D"/>
<stop offset="1" stop-color="#FF4D4D"/>
</linearGradient>
<linearGradient id="paint3_linear_20_17884" x1="22.0659" y1="10.4781" x2="22.0659" y2="13.7527" gradientUnits="userSpaceOnUse">
<stop stop-color="#F79F2D"/>
<stop offset="1" stop-color="#FF4D4D"/>
</linearGradient>
<linearGradient id="paint4_linear_20_17884" x1="22.0659" y1="10.4781" x2="22.0659" y2="13.7527" gradientUnits="userSpaceOnUse">
<stop stop-color="#F79F2D"/>
<stop offset="1" stop-color="#FF4D4D"/>
</linearGradient>
<linearGradient id="paint5_linear_20_17884" x1="22.0659" y1="10.4781" x2="22.0659" y2="13.7527" gradientUnits="userSpaceOnUse">
<stop stop-color="#F79F2D"/>
<stop offset="1" stop-color="#FF4D4D"/>
</linearGradient>
<linearGradient id="paint6_linear_20_17884" x1="22.0659" y1="10.4781" x2="22.0659" y2="13.7527" gradientUnits="userSpaceOnUse">
<stop stop-color="#F79F2D"/>
<stop offset="1" stop-color="#FF4D4D"/>
</linearGradient>
<linearGradient id="paint7_linear_20_17884" x1="22.0659" y1="10.4781" x2="22.0659" y2="13.7527" gradientUnits="userSpaceOnUse">
<stop stop-color="#F79F2D"/>
<stop offset="1" stop-color="#FF4D4D"/>
</linearGradient>
<linearGradient id="paint8_linear_20_17884" x1="22.0659" y1="10.4781" x2="22.0659" y2="13.7527" gradientUnits="userSpaceOnUse">
<stop stop-color="#F79F2D"/>
<stop offset="1" stop-color="#FF4D4D"/>
</linearGradient>
<linearGradient id="paint9_linear_20_17884" x1="22.0659" y1="10.4781" x2="22.0659" y2="13.7527" gradientUnits="userSpaceOnUse">
<stop stop-color="#F79F2D"/>
<stop offset="1" stop-color="#FF4D4D"/>
</linearGradient>
</defs>
</svg>
