<svg width="36" height="24" viewBox="0 0 36 24" fill="none" xmlns="http://www.w3.org/2000/svg">
<path fill-rule="evenodd" clip-rule="evenodd" d="M16.9059 20.578V3.41998H17.3186V20.578H16.9059Z" fill="black"/>
<path d="M28.4679 10.2122V13.7025H31.1605V12.7922H29.6393V12.4133H30.7958V11.5015H29.6281V11.1225H31.1605V10.2122H28.4679Z" fill="black"/>
<path d="M30.1901 15.1966V18.6869H32.8826V17.7766H31.3615V17.3976H32.5179V16.4866H31.3502V16.1069H32.8826V15.1966H30.1901Z" fill="black"/>
<path d="M26.5528 13.7025H25.3813V10.2122H28.0739V11.1225H26.5415V11.6703H27.7092V12.5814H26.5528V12.7922V13.7025Z" fill="black"/>
<path d="M25.4638 5.22705H22.7712V8.71809H25.4638V7.80781H23.9427V7.42808H25.0991V6.51705H23.9314V6.13808H25.4638V5.22705Z" fill="black"/>
<path d="M25.9261 5.203V8.69404H28.6187V7.78301H27.0976V7.40404H28.254V6.49301H27.0863V6.11328H28.6187V5.203H25.9261Z" fill="black"/>
<path d="M29.0854 5.22705V8.71809H31.9161V6.70241L30.8572 6.69716V7.714H30.2569V7.37555L30.2456 6.38272V6.04428L30.2419 5.22705H29.0854Z" fill="black"/>
<path d="M22.0592 13.7025H19.2292V10.2122H20.3849L20.3894 11.0287V11.3671L20.4007 12.36V12.6984H21.0003V11.6823L22.0592 11.6868V13.7025Z" fill="black"/>
<path d="M24.9881 11.2231V10.2122H22.5087V11.2231H23.1623V12.6917H22.5087V13.7025H23.1623H24.3337H24.9881V12.6917H24.3337V11.2231H24.9881Z" fill="black"/>
<path d="M28.5203 15.1966L27.9162 16.3185L27.3136 15.1966H26.1422V18.6869H27.3136V16.78L27.6859 17.6295H27.9162H28.1474L28.5203 16.78V18.6869H29.691V15.1966H28.5203Z" fill="black"/>
<path d="M24.9881 15.1966H23.2966L22.5792 17.0097V18.6876H23.7469V17.8276H24.4973V18.6876H25.6688V17.0097L24.9881 15.1966ZM23.7469 17.0097L24.1221 16.1031L24.4973 17.0097H23.7469Z" fill="black"/>
<path d="M21.3597 5.22778H19.3192V8.71806H20.3991V7.54513H21.0745C21.0915 7.54503 21.1084 7.54829 21.1241 7.55474C21.1399 7.56118 21.1542 7.57067 21.1662 7.58267C21.1783 7.59466 21.1879 7.60893 21.1944 7.62463C21.201 7.64034 21.2043 7.65719 21.2043 7.6742V8.71806H22.2842V7.44232C22.2842 7.44232 22.303 6.93202 22.029 6.79694C22.1206 6.66296 22.1695 6.50444 22.1694 6.34218V6.0345C22.1692 5.81988 22.0838 5.61411 21.932 5.46242C21.7801 5.31073 21.5743 5.22552 21.3597 5.22552V5.22778ZM20.5154 6.63935C20.4626 6.63952 20.41 6.6355 20.3578 6.62734V6.05401C20.4097 6.04587 20.4621 6.04185 20.5147 6.042C20.685 6.042 20.9312 6.08553 20.9312 6.34218C20.9312 6.59883 20.685 6.64235 20.5154 6.64235V6.63935Z" fill="black"/>
<path d="M35.0731 16.4769H34.9553C34.9358 16.4769 34.9156 16.4769 34.8953 16.4769H34.2589C34.2146 16.4772 34.172 16.4599 34.1404 16.4288C34.1255 16.4135 34.1138 16.3954 34.1058 16.3756C34.0884 16.333 34.0884 16.2853 34.1058 16.2427C34.114 16.2226 34.1263 16.2045 34.1419 16.1894C34.1569 16.1743 34.1747 16.1623 34.1944 16.1542C34.2151 16.1456 34.2373 16.1412 34.2597 16.1414H35.8701V15.2034H34.0818C33.96 15.2034 33.8395 15.2274 33.727 15.274C33.6145 15.3206 33.5123 15.3889 33.4262 15.4751C33.3401 15.5612 33.2719 15.6635 33.2254 15.776C33.1788 15.8885 33.1549 16.0091 33.155 16.1309V16.4821C33.1549 16.6039 33.1788 16.7245 33.2254 16.837C33.2719 16.9495 33.3401 17.0518 33.4262 17.1379C33.5123 17.2241 33.6145 17.2924 33.727 17.339C33.8395 17.3857 33.96 17.4097 34.0818 17.4097H34.1569C34.1914 17.4097 34.2252 17.4149 34.2597 17.4149H34.896C34.9182 17.4144 34.9401 17.4184 34.9606 17.4266C34.9812 17.4349 34.9998 17.4473 35.0154 17.4629C35.0302 17.478 35.042 17.4958 35.0499 17.5155C35.059 17.536 35.0633 17.5583 35.0626 17.5808C35.0631 17.6031 35.0591 17.6253 35.0506 17.646C35.0422 17.666 35.03 17.6841 35.0146 17.6993C34.9991 17.7149 34.9806 17.7271 34.9602 17.7353C34.9398 17.7436 34.918 17.7477 34.896 17.7474H33.3321V18.6854H35.0731C35.3189 18.6854 35.5547 18.5878 35.7285 18.414C35.9023 18.2401 35.9999 18.0044 35.9999 17.7586V17.4067C36.0002 17.2847 35.9765 17.1639 35.9301 17.0512C35.8836 16.9384 35.8154 16.836 35.7293 16.7496C35.6432 16.6632 35.541 16.5947 35.4284 16.5479C35.3158 16.5011 35.1951 16.477 35.0731 16.4769Z" fill="black"/>
<path d="M20.3894 16.2089H21.8835V15.1973H20.0195C19.9157 15.1972 19.8129 15.2176 19.7169 15.2573C19.621 15.297 19.5339 15.3552 19.4605 15.4286C19.3871 15.502 19.3289 15.5891 19.2892 15.685C19.2495 15.7809 19.2291 15.8837 19.2292 15.9875V17.8967C19.2291 18.0005 19.2495 18.1033 19.2892 18.1992C19.3289 18.2951 19.3871 18.3822 19.4605 18.4556C19.5339 18.529 19.621 18.5872 19.7169 18.6269C19.8129 18.6666 19.9157 18.687 20.0195 18.6869H22.0599V16.9473L21.0003 16.9421V17.6843H20.3999L20.3894 16.2089Z" fill="black"/>
<path d="M12.2644 4.65222H1.67046C1.32397 4.65222 1.04309 4.9331 1.04309 5.27959V11.7198C1.04309 12.0663 1.32397 12.3472 1.67046 12.3472H12.2644C12.6109 12.3472 12.8918 12.0663 12.8918 11.7198V5.27959C12.8918 4.9331 12.6109 4.65222 12.2644 4.65222Z" fill="url(#paint0_linear_1_13017)"/>
<path d="M8.49347 5.72983H5.44519V4.54413L5.86694 4.19368C6.59613 4.06386 7.34253 4.06386 8.07172 4.19368L8.49347 4.54413V5.72983Z" fill="#E73851"/>
<path d="M13.0359 12.0455H0.954557C0.42737 12.0455 0 12.4729 0 13.0001V14.4484C0 14.9756 0.42737 15.403 0.954557 15.403H13.0359C13.563 15.403 13.9904 14.9756 13.9904 14.4484V13.0001C13.9904 12.4729 13.563 12.0455 13.0359 12.0455Z" fill="#E62B33"/>
<path d="M12.7672 16.1924H1.13318V17.1005H12.7672V16.1924Z" fill="#AD1D21"/>
<path d="M13.3945 19.6722H0.505737L0.753382 17.2708C0.761611 17.1981 0.796128 17.1309 0.85044 17.0818C0.904753 17.0327 0.975118 17.0052 1.0483 17.0044H12.8512C12.9247 17.0042 12.9956 17.0314 13.0501 17.0807C13.1046 17.1299 13.1388 17.1977 13.1461 17.2708L13.3945 19.6722Z" fill="url(#paint1_linear_1_13017)"/>
<path d="M14.6478 11.99C14.9371 11.99 15.1716 11.7555 15.1716 11.4662C15.1716 11.1769 14.9371 10.9424 14.6478 10.9424C14.3585 10.9424 14.124 11.1769 14.124 11.4662C14.124 11.7555 14.3585 11.99 14.6478 11.99Z" fill="#E62B33"/>
<path fill-rule="evenodd" clip-rule="evenodd" d="M14.6478 11.3285C14.7239 11.3285 14.7855 11.3901 14.7855 11.4662V13.3093C14.7855 13.439 14.7341 13.5633 14.6425 13.6551C14.5509 13.7469 14.4266 13.7987 14.2969 13.7989L13.2047 13.7989C13.1287 13.7989 13.067 13.7373 13.067 13.6612C13.067 13.5852 13.1287 13.5235 13.2047 13.5235H14.2964C14.3531 13.5234 14.4075 13.5007 14.4475 13.4606C14.4876 13.4204 14.5101 13.366 14.5101 13.3093V11.4662C14.5101 11.3901 14.5718 11.3285 14.6478 11.3285Z" fill="#E62B33"/>
<mask id="mask0_1_13017" style="mask-type:luminance" maskUnits="userSpaceOnUse" x="0" y="10" width="14" height="7">
<path d="M12.0934 10.7532H1.89717C1.20751 10.7532 0.648438 11.3123 0.648438 12.002V15.2093C0.648438 15.899 1.20751 16.4581 1.89717 16.4581H12.0934C12.783 16.4581 13.3421 15.899 13.3421 15.2093V12.002C13.3421 11.3123 12.783 10.7532 12.0934 10.7532Z" fill="white"/>
</mask>
<g mask="url(#mask0_1_13017)">
<path d="M12.0934 10.7532H1.89717C1.20751 10.7532 0.648438 11.3123 0.648438 12.002V15.2093C0.648438 15.899 1.20751 16.4581 1.89717 16.4581H12.0934C12.783 16.4581 13.3421 15.899 13.3421 15.2093V12.002C13.3421 11.3123 12.783 10.7532 12.0934 10.7532Z" fill="#E62B33"/>
<path d="M12.6801 12.0462C12.6801 12.0462 13.6219 10.9423 11.8036 11.0842C11.8036 11.0842 12.7364 11.2905 12.6801 12.0462Z" fill="url(#paint2_linear_1_13017)"/>
<path d="M1.37711 12.0462C1.37711 12.0462 0.435306 10.9423 2.25287 11.0842C2.25287 11.0842 1.32082 11.2905 1.37711 12.0462Z" fill="url(#paint3_linear_1_13017)"/>
<path d="M13.246 12.6579C13.246 12.6579 13.342 11.3191 12.4257 11.082H0.818726L1.09339 10.9597H12.425C12.425 10.9597 13.4456 11.133 13.246 12.6579Z" fill="white"/>
</g>
<path fill-rule="evenodd" clip-rule="evenodd" d="M5.49892 4.71944C5.49889 4.71939 5.49886 4.71933 5.44513 4.74525C5.3914 4.77118 5.39136 4.77111 5.39133 4.77105L5.39126 4.7709L5.3911 4.77056L5.3907 4.7697C5.3904 4.76905 5.39004 4.76824 5.38962 4.76728C5.38878 4.76536 5.38773 4.76282 5.38653 4.7597C5.38413 4.75347 5.38115 4.74489 5.37824 4.73427C5.37246 4.71309 5.36685 4.68335 5.36707 4.64781C5.36753 4.57525 5.3924 4.48245 5.4807 4.39333C5.56756 4.30567 5.71248 4.22486 5.94703 4.16626C6.18189 4.10759 6.51054 4.07022 6.96956 4.07249C7.42851 4.07475 7.75675 4.11442 7.99103 4.17392C8.22494 4.23333 8.36918 4.31352 8.45543 4.39993C8.54322 4.48789 8.56774 4.57917 8.56766 4.65078C8.56763 4.68577 8.56175 4.71501 8.55576 4.73581C8.55275 4.74624 8.54967 4.75467 8.5472 4.76079C8.54597 4.76385 8.54488 4.76635 8.54401 4.76825C8.54358 4.7692 8.5432 4.77 8.54289 4.77064L8.54248 4.7715L8.54231 4.77184L8.54224 4.77198C8.5422 4.77205 8.54217 4.77212 8.4889 4.74525C8.43563 4.71839 8.4356 4.71845 8.43557 4.71851L8.43552 4.71861L8.43543 4.71879L8.43534 4.71898C8.43531 4.71905 8.43534 4.71898 8.43543 4.71879C8.43561 4.7184 8.436 4.7175 8.43655 4.71614C8.43766 4.71341 8.43935 4.70885 8.44111 4.70275C8.44465 4.69047 8.44832 4.67244 8.44834 4.65066C8.44839 4.60872 8.43505 4.54841 8.37098 4.48422C8.30535 4.41848 8.1837 4.34596 7.96166 4.28957C7.73998 4.23327 7.42218 4.19404 6.96897 4.1918C6.51584 4.18957 6.19789 4.22658 5.97595 4.28202C5.75369 4.33754 5.6316 4.41057 5.56546 4.47731C5.50077 4.5426 5.48666 4.60476 5.48639 4.64856C5.48625 4.67121 5.48984 4.69 5.49334 4.70281C5.49508 4.70918 5.49677 4.71395 5.49788 4.71683C5.49843 4.71827 5.49884 4.71922 5.49902 4.71966C5.49912 4.71987 5.49916 4.71995 5.49913 4.7199L5.49905 4.71972L5.49897 4.71955L5.49892 4.71944Z" fill="#E73851"/>
<path d="M6.94981 14.3231C3.94806 14.3231 1.48587 13.334 1.281 12.0815C1.2714 12.1381 1.26639 12.1953 1.26599 12.2526V14.8319C1.26599 15.102 1.37328 15.361 1.56426 15.552C1.75523 15.743 2.01425 15.8502 2.28434 15.8502H11.616C11.886 15.85 12.1448 15.7427 12.3356 15.5517C12.5264 15.3608 12.6336 15.1018 12.6336 14.8319V12.2526C12.6332 12.1953 12.6282 12.1381 12.6186 12.0815C12.4152 13.334 9.95531 14.3231 6.94981 14.3231Z" fill="#9A1920"/>
<path d="M8.18278 11.6042H5.93147C5.82817 11.6042 5.72911 11.6453 5.65607 11.7183C5.58303 11.7914 5.54199 11.8904 5.54199 11.9937V15.4607C5.54199 15.564 5.58303 15.6631 5.65607 15.7361C5.72911 15.8092 5.82817 15.8502 5.93147 15.8502H8.18278C8.28608 15.8502 8.38514 15.8092 8.45818 15.7361C8.53123 15.6631 8.57226 15.564 8.57226 15.4607V11.9937C8.57226 11.8904 8.53123 11.7914 8.45818 11.7183C8.38514 11.6453 8.28608 11.6042 8.18278 11.6042ZM8.19479 14.9542H5.94348V12.1776H6.86201V12.8275V13.0969L6.87102 13.8871V14.1565H7.3483V13.346L8.19104 13.3505L8.19479 14.9542Z" fill="white"/>
<path d="M11.2896 11.6042H9.43599C9.33269 11.6042 9.23362 11.6453 9.16058 11.7183C9.08754 11.7914 9.04651 11.8904 9.04651 11.9937V15.4607C9.04651 15.564 9.08754 15.6631 9.16058 15.7361C9.23362 15.8092 9.33269 15.8502 9.43599 15.8502H11.2896C11.393 15.8502 11.4955 15.8298 11.5911 15.7902C11.6867 15.7506 11.7736 15.6926 11.8467 15.6194C11.9199 15.5463 11.9779 15.4594 12.0175 15.3638C12.0571 15.2682 12.0775 15.1657 12.0775 15.0623V12.3915C12.0773 12.1826 11.9942 11.9824 11.8465 11.8348C11.6987 11.6872 11.4984 11.6042 11.2896 11.6042ZM11.6588 14.9339H10.0348C9.86798 14.9337 9.70803 14.8673 9.59011 14.7493C9.4722 14.6312 9.40597 14.4712 9.40597 14.3043V12.7839C9.40597 12.6172 9.47222 12.4572 9.59016 12.3393C9.70809 12.2213 9.86805 12.1551 10.0348 12.1551H11.5185V12.9603H10.329L10.338 14.134H10.8153V13.5441L11.6588 13.5486V14.9339Z" fill="white"/>
<path d="M3.1991 12.8132V13.2695C3.1991 13.2695 3.65536 13.3513 3.65536 13.0444C3.65536 12.7374 3.1991 12.8132 3.1991 12.8132Z" fill="white"/>
<path d="M4.67743 11.6042H2.82385C2.615 11.6042 2.41469 11.6872 2.26694 11.8348C2.11919 11.9824 2.03609 12.1826 2.03589 12.3915V15.0623C2.03589 15.2712 2.11891 15.4717 2.26668 15.6194C2.41445 15.7672 2.61487 15.8502 2.82385 15.8502H4.67743C4.78079 15.8502 4.87994 15.8092 4.9531 15.7362C5.02626 15.6632 5.06746 15.5641 5.06766 15.4607V11.9937C5.06766 11.9425 5.05756 11.8918 5.03794 11.8445C5.01832 11.7972 4.98956 11.7542 4.95332 11.7181C4.91707 11.6819 4.87405 11.6532 4.82671 11.6337C4.77937 11.6142 4.72864 11.6042 4.67743 11.6042ZM4.73296 13.9201V14.9339H3.87296V14.1032C3.87296 14.0759 3.86215 14.0496 3.84289 14.0302C3.82363 14.0108 3.79749 13.9998 3.77015 13.9996H3.23059V14.9339H2.37058V12.1573H3.99678C4.16762 12.1575 4.33139 12.2255 4.45212 12.3464C4.57285 12.4673 4.64066 12.6311 4.64066 12.8019V13.0466C4.64079 13.1756 4.60209 13.3016 4.52959 13.4083C4.74722 13.5141 4.73296 13.9201 4.73296 13.9201Z" fill="white"/>
<path d="M5.54126 4.41806C5.54126 4.41806 5.84143 4.13214 6.96709 4.13214C8.09275 4.13214 8.40868 4.43832 8.40868 4.43832C8.40868 4.43832 7.82709 4.44657 6.96484 4.43832C6.10259 4.43006 5.54126 4.41806 5.54126 4.41806Z" fill="white"/>
<path d="M15.0605 11.596C15.0652 11.5885 15.0695 11.5807 15.0733 11.5728C15.0696 11.5833 15.0643 11.5885 15.0605 11.596Z" fill="url(#paint4_linear_1_13017)"/>
<path d="M14.6479 11.8639C14.8675 11.8639 15.0456 11.6858 15.0456 11.4662C15.0456 11.2465 14.8675 11.0684 14.6479 11.0684C14.4282 11.0684 14.2501 11.2465 14.2501 11.4662C14.2501 11.6858 14.4282 11.8639 14.6479 11.8639Z" fill="url(#paint5_linear_1_13017)"/>
<path d="M14.4879 11.1022C14.547 11.0797 14.6102 11.0702 14.6733 11.0744C14.7363 11.0785 14.7978 11.0962 14.8534 11.1262C14.9105 11.1632 14.9578 11.2134 14.9912 11.2726C15.0247 11.3318 15.0433 11.3982 15.0455 11.4662C15.0455 11.5045 14.999 11.2763 14.8054 11.1698C14.7106 11.1111 14.5984 11.0872 14.4879 11.1022Z" fill="white"/>
<defs>
<linearGradient id="paint0_linear_1_13017" x1="6.96705" y1="4.30177" x2="6.96705" y2="12.2512" gradientUnits="userSpaceOnUse">
<stop stop-color="#E73851"/>
<stop offset="0.89" stop-color="#E62D3A"/>
</linearGradient>
<linearGradient id="paint1_linear_1_13017" x1="6.94975" y1="16.9774" x2="6.94975" y2="20.3761" gradientUnits="userSpaceOnUse">
<stop stop-color="#E62B33"/>
<stop offset="0.89" stop-color="#9C1921"/>
</linearGradient>
<linearGradient id="paint2_linear_1_13017" x1="12.3634" y1="11.0271" x2="12.3634" y2="12.0335" gradientUnits="userSpaceOnUse">
<stop stop-color="#E73851"/>
<stop offset="0.89" stop-color="#E62D3A"/>
</linearGradient>
<linearGradient id="paint3_linear_1_13017" x1="1.69304" y1="11.0271" x2="1.69304" y2="12.0335" gradientUnits="userSpaceOnUse">
<stop stop-color="#E73851"/>
<stop offset="0.89" stop-color="#E62D3A"/>
</linearGradient>
<linearGradient id="paint4_linear_1_13017" x1="14.2846" y1="11.5848" x2="15.1071" y2="11.5848" gradientUnits="userSpaceOnUse">
<stop stop-color="#E73851"/>
<stop offset="0.89" stop-color="#E62D3A"/>
</linearGradient>
<linearGradient id="paint5_linear_1_13017" x1="14.2509" y1="11.4662" x2="15.0456" y2="11.4662" gradientUnits="userSpaceOnUse">
<stop stop-color="#E73851"/>
<stop offset="0.89" stop-color="#E62D3A"/>
</linearGradient>
</defs>
</svg>
