<svg width="36" height="24" viewBox="0 0 36 24" fill="none" xmlns="http://www.w3.org/2000/svg">
<g clip-path="url(#clip0_1_5751)">
<path d="M23.8439 8.6534V9.20623C23.8439 10.2974 23.2767 11.2484 22.3298 11.7765C22.3092 11.76 22.3092 11.76 22.2886 11.7435C22.3794 11.5475 22.5238 11.1535 22.5238 10.4769C22.5238 9.05152 21.2902 8.24084 20.3784 7.86334L17.3502 6.61122C16.9006 6.42557 16.4777 5.97176 16.684 5.39417C17.0305 4.42466 18.2393 4.37515 19.2026 4.82278C20.5558 5.44987 21.6594 5.98826 22.3876 6.33687C23.2787 6.76387 23.8439 7.66532 23.8439 8.6534ZM12.5707 11.2773C12.5707 11.4031 12.6409 11.5124 12.744 11.5661L16.6138 13.8413C17.3502 14.2745 18.2599 14.2848 19.0067 13.8682C19.5904 13.5422 20.2402 13.1854 20.3454 13.1235C21.5687 12.4056 22.039 11.4877 22.039 10.4171C22.039 9.27224 20.9478 8.58326 20.1165 8.24496L20.0876 8.29034C20.2732 8.46981 20.5455 8.75654 20.5455 9.30937C20.5455 10.3366 19.6028 11.3845 17.9423 11.3845C16.1188 11.3845 15.3246 10.1881 14.0126 10.1881C13.4433 10.1881 12.5707 10.6131 12.5707 11.2422V11.2752V11.2773ZM23.4706 3.92958C23.4706 3.80169 23.4046 3.68824 23.3056 3.62223L19.4007 1.25826C18.6663 0.820942 17.7546 0.806503 17.0058 1.22113L13.7816 3.00339C12.777 3.55828 12.1541 4.61443 12.1541 5.76135V6.57203C12.1541 7.4776 12.6429 8.41205 13.6125 8.88856C14.2622 9.20829 14.5469 9.33 14.78 9.44551L14.8171 9.40838C14.3984 8.71734 14.2189 7.90047 14.2189 7.32908C14.2189 5.3591 15.6381 3.67998 17.8123 3.67998C19.5574 3.67998 20.8426 5.18995 22.1133 5.18995C23.0436 5.18995 23.4706 4.37721 23.4706 4.00178V3.92958ZM16.5396 7.40334C15.502 6.94746 15.2276 5.92431 15.3927 5.31785L15.3431 5.29309C14.976 5.7696 14.7078 6.40082 14.7078 7.29401C14.7078 8.76685 15.7351 10.545 17.7112 10.545C18.4415 10.545 19.0335 9.97359 19.0335 9.26811C19.0335 8.71941 18.6622 8.26972 18.1692 8.06962C17.7607 7.9046 16.9418 7.57868 16.5375 7.40128L16.5396 7.40334Z" fill="#ED1846"/>
<path d="M2.24226 19.7183C2.98281 20.0421 3.7378 20.3742 3.7378 21.416C3.7378 22.3793 3.03644 23.0806 1.62136 23.0806C0.961265 23.0806 0.420811 22.9775 0 22.7733V21.8698C0.266101 21.9956 0.950951 22.2741 1.68531 22.2741C2.51662 22.2741 2.79097 21.8966 2.79097 21.4799C2.79097 20.925 2.30415 20.7125 1.52028 20.3866C0.614715 20.0091 0.0660096 19.5656 0.0660096 18.6497C0.0660096 17.5956 0.915884 17.0799 1.97823 17.0799C2.53725 17.0799 3.0942 17.2017 3.64703 17.4471L3.3438 18.2269C2.82397 18.0082 2.36191 17.8989 1.95347 17.8989C1.22737 17.8989 1.01077 18.2888 1.01077 18.6332C1.01077 19.2191 1.46665 19.382 2.2402 19.7183H2.24226ZM23.0931 18.6312C23.0931 18.2867 23.3096 17.8968 24.0358 17.8968C24.4421 17.8968 24.9063 18.0061 25.4261 18.2248L25.7293 17.4451C25.1765 17.1996 24.6195 17.0779 24.0605 17.0779C22.9961 17.0779 22.1483 17.5915 22.1483 18.6477C22.1483 19.5636 22.697 20.0071 23.6026 20.3846C24.3864 20.7125 24.8733 20.925 24.8733 21.4778C24.8733 21.8945 24.5989 22.272 23.7676 22.272C23.0332 22.272 22.3484 21.9935 22.0823 21.8677V22.7712C22.5031 22.9754 23.0435 23.0786 23.7036 23.0786C25.1187 23.0786 25.8201 22.3752 25.8201 21.4139C25.8201 20.3701 25.0672 20.038 24.3245 19.7162C23.551 19.38 23.0951 19.217 23.0951 18.6312H23.0931ZM9.29292 18.5053C8.98762 18.5053 8.31102 18.5714 7.92734 19.2005H7.8634C7.64268 18.7364 7.19299 18.5053 6.51432 18.5053C5.79853 18.5053 5.36122 18.8828 5.2127 19.1634H5.16525L5.03323 18.5837H4.29888V23.0002H5.23745V20.7992C5.23745 20.1267 5.31171 19.2686 6.28742 19.2686C6.73917 19.2686 7.07747 19.4955 7.07747 20.2752V22.9981H8.02017V20.6568C8.02017 19.8936 8.19344 19.2665 9.05363 19.2665C9.81274 19.2665 9.8705 19.9349 9.8705 20.2732V22.9961H10.8091V20.1164C10.8091 18.9715 10.2996 18.4992 9.29498 18.4992L9.29292 18.5053ZM14.5304 18.5837H15.3101V23.0002H14.3674V22.9692L14.3963 22.4226H14.3612C14.0704 22.862 13.6331 23.0806 13.0472 23.0806C11.4877 23.0806 11.2938 21.5191 11.2938 20.8012C11.2938 20.0834 11.5146 18.5053 13.0637 18.5053C13.6392 18.5053 14.0827 18.7219 14.3984 19.1572H14.4375L14.5324 18.5858L14.5304 18.5837ZM14.4107 20.8012C14.4107 20.0648 14.2828 19.2706 13.2803 19.2706C12.3376 19.2706 12.2572 20.3041 12.2572 20.8074C12.2572 21.8223 12.6037 22.3298 13.2948 22.3298C14.2209 22.3298 14.4087 21.7027 14.4087 20.7992L14.4107 20.8012ZM17.0305 19.3635H16.983L16.8593 18.5837H16.1249V23.0002H17.0635V20.6919C17.0635 20.3 17.179 19.9823 17.4121 19.7368C17.6452 19.4914 17.9484 19.2933 18.3239 19.2933H18.8313V18.5425C18.7096 18.5157 18.5528 18.5033 18.3631 18.5033C17.606 18.5033 17.1749 19.0974 17.0284 19.3614L17.0305 19.3635ZM20.397 22.1606C20.2835 22.0534 20.2278 21.8863 20.2278 21.6594V19.2954H21.4861V18.5837H20.2278V17.6018H19.2851V21.6759C19.2851 22.6124 19.7307 23.0827 20.6198 23.0827C21.0963 23.0827 21.4263 22.9692 21.5295 22.9239V22.2163C21.3005 22.2885 21.0715 22.3236 20.8425 22.3236C20.659 22.3236 20.5104 22.27 20.397 22.1627V22.1606ZM26.6349 22.4742C26.2656 22.0699 26.08 21.5067 26.08 20.7847C26.08 20.0875 26.2656 19.5326 26.639 19.1221C27.0124 18.7116 27.5301 18.5053 28.1696 18.5053C28.8091 18.5053 29.3268 18.7116 29.7002 19.1221C30.0736 19.5326 30.2592 20.0875 30.2592 20.7847C30.2592 21.482 30.0736 22.0699 29.7043 22.4742C29.3351 22.8785 28.8318 23.0806 28.1717 23.0806C27.5116 23.0806 27.0083 22.8785 26.639 22.4742H26.6349ZM29.2918 20.7847C29.2918 19.776 28.9205 19.2706 28.1696 19.2706C27.4187 19.2706 27.0474 19.776 27.0474 20.7847C27.0474 21.8038 27.4249 22.3153 28.1696 22.3153C28.9143 22.3153 29.2918 21.8058 29.2918 20.7847ZM33.7557 21.6759C33.7557 22.6124 34.2012 23.0827 35.0903 23.0827C35.5668 23.0827 35.8969 22.9692 36 22.9239V22.2163C35.771 22.2885 35.5421 22.3236 35.3131 22.3236C35.1295 22.3236 34.981 22.27 34.8675 22.1627C34.7541 22.0554 34.6984 21.8883 34.6984 21.6614C34.6984 21.0694 34.6984 19.2975 34.6984 19.2975H35.9567V18.5858H34.6984V17.6039H33.9516L33.7701 18.5858H32.0312V18.2991C32.0312 18.035 32.0807 17.837 32.1776 17.705C32.2746 17.573 32.4293 17.507 32.6438 17.507C32.8584 17.507 33.0296 17.5441 33.2379 17.6183L33.4607 16.9067C33.174 16.7973 32.912 16.7437 32.5819 16.7437C32.0786 16.7437 31.7052 16.8695 31.4598 17.1212C31.2143 17.3729 31.0926 17.7586 31.0926 18.2805V18.5672L30.3665 18.854V19.2933H31.0926V23.0002H32.0353V19.2933H33.7619C33.7619 19.2933 33.7619 21.0777 33.7619 21.6738L33.7557 21.6759Z" fill="black"/>
</g>
<defs>
<clipPath id="clip0_1_5751">
<rect width="36" height="24" fill="white"/>
</clipPath>
</defs>
</svg>
