<svg width="36" height="24" viewBox="0 0 36 24" fill="none" xmlns="http://www.w3.org/2000/svg">
<path fill-rule="evenodd" clip-rule="evenodd" d="M4.75025 7C5.05122 7 5.35222 7 5.65319 7C6.2501 7.05599 6.81934 7.21303 7.36093 7.4711C5.9313 7.49398 4.49836 7.49725 3.06213 7.48092C3.07305 7.47341 3.07958 7.46359 3.08176 7.45147C3.61322 7.20887 4.16938 7.05838 4.75025 7Z" fill="#004F82"/>
<path fill-rule="evenodd" clip-rule="evenodd" d="M3.08174 7.45142C3.07956 7.46354 3.07303 7.47335 3.06211 7.48086C4.49834 7.4972 5.93128 7.49392 7.36091 7.47105C7.43258 7.49379 7.49802 7.52651 7.55721 7.56919C5.98687 7.59536 4.41653 7.59536 2.84619 7.56919C2.91847 7.51997 2.99698 7.48071 3.08174 7.45142Z" fill="#005184"/>
<path fill-rule="evenodd" clip-rule="evenodd" d="M2.84625 7.56921C4.41659 7.59539 5.98693 7.59539 7.55727 7.56921C7.84892 7.70507 8.11719 7.87519 8.36207 8.07957C8.37096 8.09839 8.38403 8.11474 8.40132 8.12865C6.26828 8.14173 4.13525 8.14173 2.0022 8.12865C2.01311 8.12114 2.01965 8.11132 2.02183 8.0992C2.2698 7.88344 2.54461 7.70678 2.84625 7.56921Z" fill="#005487"/>
<path fill-rule="evenodd" clip-rule="evenodd" d="M8.36207 8.07959C8.40621 8.09097 8.43892 8.11714 8.46021 8.15811C8.46911 8.17692 8.48218 8.19328 8.49947 8.20718C6.301 8.22027 4.10253 8.22027 1.90405 8.20718C1.91497 8.19967 1.92151 8.18986 1.92368 8.17774C1.94497 8.13677 1.97768 8.1106 2.02183 8.09922C2.01965 8.11134 2.01311 8.12115 2.0022 8.12866C4.13525 8.14175 6.26828 8.14175 8.40133 8.12866C8.38403 8.11476 8.37096 8.0984 8.36207 8.07959Z" fill="#00578A"/>
<path fill-rule="evenodd" clip-rule="evenodd" d="M8.46025 8.15808C8.65473 8.30013 8.8314 8.46371 8.99023 8.64881C6.47444 8.6717 3.95536 8.67497 1.43298 8.65863C1.4652 8.63646 1.48483 8.60702 1.49187 8.57029C1.61809 8.41781 1.76204 8.28695 1.92371 8.17771C1.92154 8.18983 1.915 8.19964 1.90408 8.20715C4.10256 8.22024 6.30103 8.22024 8.4995 8.20715C8.48221 8.19325 8.46914 8.17689 8.46025 8.15808Z" fill="#005A8D"/>
<path opacity="0.999" fill-rule="evenodd" clip-rule="evenodd" d="M15.723 8.64881C15.723 8.65535 15.723 8.66189 15.723 8.66844C15.2912 8.66844 14.8593 8.66844 14.4275 8.66844C14.4402 8.63045 14.4468 8.59119 14.4471 8.55066C14.5351 8.33927 14.6921 8.20514 14.9182 8.14826C15.2095 8.09703 15.4483 8.18536 15.6347 8.41326C15.6816 8.48531 15.711 8.56382 15.723 8.64881Z" fill="#005A8D"/>
<path opacity="0.999" fill-rule="evenodd" clip-rule="evenodd" d="M22.8484 8.64887C22.8484 8.65541 22.8484 8.66196 22.8484 8.6685C22.4165 8.6685 21.9847 8.6685 21.5529 8.6685C21.5529 8.65541 21.5529 8.64233 21.5529 8.62924C21.5962 8.41537 21.7207 8.26815 21.9258 8.18758C22.2886 8.06638 22.5797 8.16126 22.7993 8.47221C22.8297 8.5274 22.846 8.58629 22.8484 8.64887Z" fill="#005A8D"/>
<path opacity="0.999" fill-rule="evenodd" clip-rule="evenodd" d="M20.9051 8.70777C20.4929 8.73394 20.0807 8.73394 19.6685 8.70777C19.8245 8.35554 20.0928 8.22141 20.4733 8.30537C20.6837 8.36868 20.8278 8.50281 20.9051 8.70777Z" fill="#005B8E"/>
<path opacity="0.99" fill-rule="evenodd" clip-rule="evenodd" d="M14.4471 8.55066C14.4468 8.59119 14.4402 8.63045 14.4275 8.66843C14.4275 8.68806 14.4275 8.70769 14.4275 8.72732C14.8593 8.72732 15.2912 8.72732 15.723 8.72732C15.723 8.70769 15.723 8.68806 15.723 8.66843C15.723 8.66189 15.723 8.65535 15.723 8.64881C15.7424 8.77598 15.749 8.90685 15.7426 9.04139C15.724 9.06924 15.7174 9.10195 15.723 9.13954C15.2912 9.13954 14.8593 9.13954 14.4275 9.13954C14.4209 9.13954 14.4144 9.13954 14.4078 9.13954C14.4046 8.96275 14.4078 8.78609 14.4177 8.60955C14.4222 8.58526 14.432 8.56563 14.4471 8.55066Z" fill="#005F92"/>
<path opacity="0.991" fill-rule="evenodd" clip-rule="evenodd" d="M21.5529 8.62927C21.5529 8.64236 21.5529 8.65544 21.5529 8.66853C21.5529 8.68816 21.5529 8.70779 21.5529 8.72742C21.9848 8.72742 22.4166 8.72742 22.8484 8.72742C22.8484 8.70779 22.8484 8.68816 22.8484 8.66853C22.8484 8.66199 22.8484 8.65544 22.8484 8.6489C22.8679 8.77608 22.8744 8.90694 22.8681 9.04149C22.8494 9.06934 22.8429 9.10204 22.8484 9.13963C22.4166 9.13963 21.9848 9.13963 21.5529 9.13963C21.5464 9.13963 21.5398 9.13963 21.5333 9.13963C21.5268 8.96593 21.5335 8.7958 21.5529 8.62927Z" fill="#005F93"/>
<path opacity="0.998" fill-rule="evenodd" clip-rule="evenodd" d="M1.41334 8.6488C1.41313 8.67859 1.40004 8.70149 1.37408 8.71751C3.92588 8.73059 6.47768 8.73059 9.02948 8.71751C9.01471 8.70434 9.00816 8.68798 9.00985 8.66843C9.15581 8.80128 9.28012 8.95177 9.3828 9.11991C6.59545 9.14607 3.8081 9.14607 1.02075 9.11991C1.13311 8.94758 1.26397 8.79055 1.41334 8.6488Z" fill="#005F92"/>
<path fill-rule="evenodd" clip-rule="evenodd" d="M1.4918 8.57031C1.48476 8.60704 1.46513 8.63648 1.43291 8.65864C3.95529 8.67499 6.47436 8.67172 8.99016 8.64883C9.00325 8.64883 9.00979 8.65537 9.00979 8.66846C9.0081 8.68801 9.01466 8.70436 9.02942 8.71753C6.47762 8.73062 3.92582 8.73062 1.37402 8.71753C1.39999 8.70152 1.41307 8.67861 1.41328 8.64883C1.43291 8.61611 1.45908 8.58994 1.4918 8.57031Z" fill="#005D90"/>
<path fill-rule="evenodd" clip-rule="evenodd" d="M14.4275 8.66846C14.8593 8.66846 15.2912 8.66846 15.723 8.66846C15.723 8.68809 15.723 8.70772 15.723 8.72734C15.2912 8.72734 14.8593 8.72734 14.4275 8.72734C14.4275 8.70772 14.4275 8.68809 14.4275 8.66846Z" fill="#005C90"/>
<path fill-rule="evenodd" clip-rule="evenodd" d="M21.5529 8.66846C21.9847 8.66846 22.4165 8.66846 22.8484 8.66846C22.8484 8.68809 22.8484 8.70772 22.8484 8.72734C22.4165 8.72734 21.9847 8.72734 21.5529 8.72734C21.5529 8.70772 21.5529 8.68809 21.5529 8.66846Z" fill="#005C90"/>
<path opacity="0.994" fill-rule="evenodd" clip-rule="evenodd" d="M19.6685 8.70776C20.0808 8.73394 20.493 8.73394 20.9052 8.70776C20.9713 8.84952 20.9778 8.99347 20.9248 9.13961C20.4995 9.13961 20.0743 9.13961 19.6489 9.13961C19.5959 8.99347 19.6025 8.84952 19.6685 8.70776Z" fill="#006093"/>
<path opacity="0.977" fill-rule="evenodd" clip-rule="evenodd" d="M30.1309 9.10028C29.7846 9.13928 29.4313 9.15235 29.0709 9.13954C29.0709 9.133 29.0709 9.12644 29.0709 9.11991C29.1875 8.81604 29.4099 8.68845 29.7383 8.73714C29.9356 8.78725 30.0665 8.90829 30.1309 9.10028Z" fill="#006093"/>
<path opacity="0.986" fill-rule="evenodd" clip-rule="evenodd" d="M15.7426 9.04138C15.7426 9.36199 15.7426 9.68261 15.7426 10.0032C15.7233 9.93526 15.7168 9.86328 15.723 9.78729C15.2912 9.78729 14.8593 9.78729 14.4275 9.78729C14.4335 9.84392 14.4269 9.89627 14.4078 9.94433C14.4078 9.67605 14.4078 9.4078 14.4078 9.13953C14.4144 9.13953 14.4209 9.13953 14.4275 9.13953C14.4275 9.15916 14.4275 9.17879 14.4275 9.19842C14.8593 9.19842 15.2912 9.19842 15.723 9.19842C15.723 9.17879 15.723 9.15916 15.723 9.13953C15.7174 9.10194 15.724 9.06924 15.7426 9.04138Z" fill="#006699"/>
<path opacity="0.986" fill-rule="evenodd" clip-rule="evenodd" d="M22.868 9.04138C22.868 9.36199 22.868 9.68261 22.868 10.0032C22.8488 9.93526 22.8423 9.86328 22.8484 9.78729C22.4165 9.78729 21.9847 9.78729 21.5528 9.78729C21.5589 9.84392 21.5522 9.89627 21.5332 9.94433C21.5332 9.67605 21.5332 9.4078 21.5332 9.13953C21.5397 9.13953 21.5464 9.13953 21.5528 9.13953C21.5528 9.15916 21.5528 9.17879 21.5528 9.19842C21.9847 9.19842 22.4165 9.19842 22.8484 9.19842C22.8484 9.17879 22.8484 9.15916 22.8484 9.13953C22.8429 9.10194 22.8493 9.06924 22.868 9.04138Z" fill="#006699"/>
<path opacity="0.991" fill-rule="evenodd" clip-rule="evenodd" d="M29.0709 9.12C29.0709 9.12653 29.0709 9.13309 29.0709 9.13962C29.0709 9.15925 29.0709 9.17888 29.0709 9.19851C29.438 9.21135 29.7978 9.19826 30.1505 9.15925C30.1699 9.36511 30.1766 9.57449 30.1701 9.78739C29.7972 9.78739 29.4242 9.78739 29.0513 9.78739C29.0566 9.81878 29.0499 9.84494 29.0316 9.86591C29.0283 9.64989 29.0316 9.43396 29.0415 9.21814C29.0454 9.1812 29.0552 9.1485 29.0709 9.12Z" fill="#006699"/>
<path fill-rule="evenodd" clip-rule="evenodd" d="M1.0207 9.12C3.80805 9.14616 6.5954 9.14616 9.38275 9.12C9.41035 9.12928 9.42344 9.14891 9.42201 9.17888C6.6085 9.20505 3.79496 9.20505 0.981445 9.17888C0.989927 9.15513 1.00301 9.1355 1.0207 9.12Z" fill="#006396"/>
<path fill-rule="evenodd" clip-rule="evenodd" d="M14.4275 9.13953C14.8593 9.13953 15.2912 9.13953 15.723 9.13953C15.723 9.15916 15.723 9.17878 15.723 9.19841C15.2912 9.19841 14.8593 9.19841 14.4275 9.19841C14.4275 9.17878 14.4275 9.15916 14.4275 9.13953Z" fill="#006296"/>
<path fill-rule="evenodd" clip-rule="evenodd" d="M19.6488 9.13953C20.0742 9.13953 20.4993 9.13953 20.9247 9.13953C20.9294 9.16487 20.9227 9.1845 20.9051 9.19841C20.4929 9.19841 20.0806 9.19841 19.6684 9.19841C19.6508 9.1845 19.6441 9.16487 19.6488 9.13953Z" fill="#006396"/>
<path fill-rule="evenodd" clip-rule="evenodd" d="M21.5529 9.13953C21.9847 9.13953 22.4165 9.13953 22.8484 9.13953C22.8484 9.15916 22.8484 9.17878 22.8484 9.19841C22.4165 9.19841 21.9847 9.19841 21.5529 9.19841C21.5529 9.17878 21.5529 9.15916 21.5529 9.13953Z" fill="#006296"/>
<path fill-rule="evenodd" clip-rule="evenodd" d="M30.1309 9.10034C30.1486 9.11426 30.1552 9.13389 30.1505 9.15923C29.7978 9.19823 29.438 9.21133 29.0709 9.19849C29.0709 9.17886 29.0709 9.15923 29.0709 9.1396C29.4313 9.15242 29.7846 9.13935 30.1309 9.10034Z" fill="#006396"/>
<path opacity="0.997" fill-rule="evenodd" clip-rule="evenodd" d="M0.981476 9.17883C3.79499 9.205 6.60853 9.205 9.42204 9.17883C9.57605 9.37246 9.70692 9.58182 9.81463 9.80697C6.74731 9.78738 3.67859 9.78082 0.608521 9.78734C0.708278 9.56794 0.832596 9.36511 0.981476 9.17883Z" fill="#006799"/>
<path opacity="0.968" fill-rule="evenodd" clip-rule="evenodd" d="M19.6685 9.19849C20.0807 9.19849 20.4929 9.19849 20.9051 9.19849C20.7435 9.55733 20.4687 9.69147 20.0807 9.60089C19.8814 9.52918 19.744 9.39505 19.6685 9.19849Z" fill="#006598"/>
<path opacity="0.993" fill-rule="evenodd" clip-rule="evenodd" d="M0.608476 9.78735C3.67855 9.78083 6.74726 9.78739 9.81458 9.80698C9.91567 9.97255 9.99419 10.1492 10.0501 10.337C9.72073 10.3111 9.38704 10.298 9.04904 10.2977C8.71854 10.2977 8.3914 10.3042 8.06758 10.3173C7.25625 9.79389 6.44489 9.79389 5.63356 10.3173C5.46343 10.2912 5.29332 10.2912 5.1232 10.3173C4.45054 9.86689 3.74389 9.808 3.00324 10.1407C2.72266 9.82084 2.40206 9.77176 2.04141 9.99346C1.90176 10.1192 1.8167 10.2729 1.78623 10.4547C1.78215 10.4072 1.7887 10.3614 1.80586 10.3173C1.32839 10.2977 0.850749 10.2912 0.372925 10.2977C0.430896 10.1164 0.509413 9.94633 0.608476 9.78735Z" fill="#006D9E"/>
<path opacity="0.992" fill-rule="evenodd" clip-rule="evenodd" d="M15.7426 10.0033C15.7394 10.069 15.7427 10.1345 15.7524 10.1996C15.9321 10.0722 16.1317 9.99042 16.3511 9.9542C16.9123 9.84604 17.4488 9.91801 17.9607 10.1701C18.0408 10.21 18.1128 10.259 18.1766 10.3173C16.9277 10.2979 15.678 10.2913 14.4275 10.2977C14.4275 10.3501 14.4275 10.4024 14.4275 10.4547C14.4336 10.5307 14.4271 10.6027 14.4078 10.6707C14.4078 10.4286 14.4078 10.1865 14.4078 9.94439C14.4269 9.89633 14.4335 9.84398 14.4275 9.78735C14.8593 9.78735 15.2912 9.78735 15.723 9.78735C15.7168 9.86334 15.7233 9.93532 15.7426 10.0033Z" fill="#006E9F"/>
<path opacity="0.984" fill-rule="evenodd" clip-rule="evenodd" d="M22.868 10.0033C22.868 10.7688 22.868 11.5344 22.868 12.2999C22.423 12.2999 21.9782 12.2999 21.5332 12.2999C21.5332 12.2934 21.5332 12.2868 21.5332 12.2803C21.5397 12.2803 21.5464 12.2803 21.5528 12.2803C21.9847 12.2803 22.4165 12.2803 22.8484 12.2803C22.8484 12.1298 22.8484 11.9793 22.8484 11.8288C22.8484 11.6718 22.8484 11.5147 22.8484 11.3577C22.8484 11.2007 22.8484 11.0436 22.8484 10.8866C22.8484 10.7426 22.8484 10.5987 22.8484 10.4547C22.8484 10.4024 22.8484 10.3501 22.8484 10.2977C22.4165 10.2977 21.9847 10.2977 21.5528 10.2977C21.5528 10.3501 21.5528 10.4024 21.5528 10.4547C21.5589 10.5307 21.5524 10.6027 21.5332 10.6707C21.5332 10.4286 21.5332 10.1865 21.5332 9.94439C21.5522 9.89633 21.5589 9.84398 21.5528 9.78735C21.9847 9.78735 22.4165 9.78735 22.8484 9.78735C22.8423 9.86334 22.8488 9.93532 22.868 10.0033Z" fill="#006D9E"/>
<path opacity="0.997" fill-rule="evenodd" clip-rule="evenodd" d="M30.1701 9.78735C30.1701 9.81352 30.1701 9.8397 30.1701 9.86587C30.5117 9.85688 30.852 9.86669 31.1908 9.89531C31.3834 9.98628 31.5077 10.1335 31.5638 10.337C30.9661 10.3109 30.3641 10.2979 29.7579 10.2977C29.1518 10.2979 28.5497 10.3109 27.952 10.337C28.0082 10.1335 28.1324 9.98632 28.325 9.89531C28.559 9.86709 28.7945 9.85727 29.0316 9.86587C29.0499 9.84491 29.0566 9.81874 29.0513 9.78735C29.4242 9.78735 29.7972 9.78735 30.1701 9.78735Z" fill="#006E9F"/>
<path opacity="0.994" fill-rule="evenodd" clip-rule="evenodd" d="M35.6663 10.2977C34.5606 10.2944 33.4547 10.2977 32.349 10.3075C32.3188 10.341 32.2862 10.3705 32.2509 10.3958C32.4768 10.1125 32.7712 9.93915 33.1342 9.87566C33.8408 9.86257 34.5475 9.86257 35.2541 9.87566C35.4612 9.94867 35.5986 10.0893 35.6663 10.2977Z" fill="#006E9F"/>
<path opacity="0.987" fill-rule="evenodd" clip-rule="evenodd" d="M12.9357 10.3173C12.0728 10.2979 11.2091 10.2913 10.3446 10.2977C10.7258 10.0332 11.1511 9.90238 11.6205 9.90507C12.1053 9.90534 12.5437 10.0427 12.9357 10.3173Z" fill="#006E9F"/>
<path opacity="0.981" fill-rule="evenodd" clip-rule="evenodd" d="M20.7873 10.4155C20.7714 10.3861 20.7585 10.3534 20.7481 10.3174C20.5748 10.3108 20.4012 10.3043 20.2279 10.2977C20.0434 10.2983 19.8636 10.3114 19.6881 10.337C19.759 10.0602 19.939 9.91628 20.2279 9.90515C20.5492 9.92871 20.7357 10.0988 20.7873 10.4155Z" fill="#006E9F"/>
<path opacity="0.985" fill-rule="evenodd" clip-rule="evenodd" d="M26.9313 10.2978C26.0808 10.2945 25.2301 10.2978 24.3795 10.3076C24.3485 10.329 24.3159 10.3454 24.2814 10.3566C24.682 10.0538 25.1368 9.90327 25.6456 9.90517C26.1175 9.9044 26.5462 10.0353 26.9313 10.2978Z" fill="#006E9F"/>
<path fill-rule="evenodd" clip-rule="evenodd" d="M0.37295 10.2977C0.850775 10.2912 1.32842 10.2977 1.80588 10.3174C1.78872 10.3615 1.78218 10.4073 1.78625 10.4548C1.28451 10.4422 0.787237 10.4552 0.294434 10.494C0.309421 10.4226 0.335592 10.3572 0.37295 10.2977Z" fill="#0071A1"/>
<path fill-rule="evenodd" clip-rule="evenodd" d="M5.63353 10.3174C5.54969 10.3913 5.4679 10.4699 5.38816 10.5529C5.29602 10.477 5.20769 10.3985 5.12317 10.3174C5.2933 10.2912 5.4634 10.2912 5.63353 10.3174Z" fill="#0070A1"/>
<path fill-rule="evenodd" clip-rule="evenodd" d="M10.0502 10.337C10.0728 10.3789 10.099 10.4182 10.1287 10.4548C10.1231 10.4703 10.1133 10.4833 10.0993 10.494C9.79606 10.468 9.48853 10.4549 9.17668 10.4548C8.87243 10.458 8.56817 10.4613 8.26392 10.4646C8.27868 10.4777 8.28524 10.4941 8.28355 10.5137C8.21108 10.4477 8.1391 10.3822 8.06763 10.3174C8.39145 10.3043 8.71859 10.2977 9.04909 10.2977C9.38708 10.298 9.72078 10.3111 10.0502 10.337Z" fill="#0071A1"/>
<path fill-rule="evenodd" clip-rule="evenodd" d="M10.3446 10.2977C11.2091 10.2914 12.0728 10.298 12.9356 10.3174C13.032 10.3679 13.1171 10.4333 13.1908 10.5137C13.1575 10.51 13.1314 10.4937 13.1123 10.4646C12.1178 10.4548 11.1232 10.4515 10.1287 10.4548C10.1895 10.3874 10.2615 10.335 10.3446 10.2977Z" fill="#0071A1"/>
<path fill-rule="evenodd" clip-rule="evenodd" d="M18.1767 10.3173C18.2464 10.3489 18.3053 10.3947 18.3533 10.4547C17.0447 10.4547 15.7361 10.4547 14.4275 10.4547C14.4275 10.4023 14.4275 10.35 14.4275 10.2977C15.678 10.2913 16.9278 10.2978 18.1767 10.3173Z" fill="#0071A1"/>
<path fill-rule="evenodd" clip-rule="evenodd" d="M20.7873 10.4155C20.8067 11.0422 20.8134 11.6703 20.8069 12.2999C20.4208 12.2999 20.0349 12.2999 19.6488 12.2999C19.6488 12.2934 19.6488 12.2868 19.6488 12.2803C19.6553 12.2803 19.662 12.2803 19.6684 12.2803C20.0414 12.2803 20.4143 12.2803 20.7873 12.2803C20.7873 12.1298 20.7873 11.9793 20.7873 11.8288C20.7873 11.6718 20.7873 11.5147 20.7873 11.3577C20.7873 11.2007 20.7873 11.0436 20.7873 10.8866C20.7873 10.7427 20.7873 10.5987 20.7873 10.4548C20.4143 10.4548 20.0414 10.4548 19.6684 10.4548C19.6627 10.4109 19.6692 10.3716 19.6881 10.337C19.8635 10.3114 20.0434 10.2983 20.2279 10.2977C20.4012 10.3043 20.5747 10.3108 20.748 10.3174C20.7584 10.3534 20.7714 10.3861 20.7873 10.4155Z" fill="#0070A0"/>
<path fill-rule="evenodd" clip-rule="evenodd" d="M22.8484 10.4548C22.4165 10.4548 21.9847 10.4548 21.5529 10.4548C21.5529 10.4024 21.5529 10.3501 21.5529 10.2977C21.9847 10.2977 22.4165 10.2977 22.8484 10.2977C22.8484 10.3501 22.8484 10.4024 22.8484 10.4548Z" fill="#0071A1"/>
<path fill-rule="evenodd" clip-rule="evenodd" d="M26.9313 10.2977C27.0211 10.3417 27.0996 10.4006 27.1669 10.4744C26.1666 10.4517 25.1655 10.4484 24.1636 10.4646C24.1491 10.485 24.1295 10.4948 24.1047 10.494C24.1528 10.434 24.2117 10.3882 24.2814 10.3566C24.3159 10.3454 24.3485 10.329 24.3795 10.3076C25.2301 10.2977 26.0808 10.2945 26.9313 10.2977Z" fill="#0071A1"/>
<path fill-rule="evenodd" clip-rule="evenodd" d="M31.5638 10.337C31.5921 10.3969 31.605 10.4623 31.6031 10.5333C31.6031 10.5764 31.5964 10.6156 31.5835 10.6511C31.5835 10.5856 31.5835 10.5202 31.5835 10.4548C30.3664 10.4548 29.1494 10.4548 27.9324 10.4548C27.9324 10.5202 27.9324 10.5856 27.9324 10.6511C27.9195 10.6156 27.9128 10.5764 27.9128 10.5333C27.9108 10.4623 27.9238 10.3969 27.952 10.337C28.5498 10.311 29.1518 10.2979 29.7579 10.2977C30.3641 10.2979 30.9661 10.311 31.5638 10.337Z" fill="#0071A1"/>
<path fill-rule="evenodd" clip-rule="evenodd" d="M35.6662 10.2977C35.698 10.3502 35.711 10.4091 35.7055 10.4744C34.5423 10.4516 33.3775 10.4483 32.2115 10.4646C32.2009 10.4787 32.1877 10.4885 32.1722 10.494C32.1836 10.4499 32.2097 10.4172 32.2508 10.3959C32.2861 10.3705 32.3187 10.3411 32.3489 10.3076C33.4546 10.2977 34.5605 10.2945 35.6662 10.2977Z" fill="#0071A1"/>
<path fill-rule="evenodd" clip-rule="evenodd" d="M1.78623 10.4547C1.79178 10.6349 1.84412 10.7985 1.94327 10.9455C1.92115 10.9332 1.90152 10.9169 1.88438 10.8964C1.31517 10.8866 0.74592 10.8833 0.176636 10.8866C0.197986 10.7485 0.237245 10.6176 0.294411 10.494C0.787215 10.4552 1.28449 10.4421 1.78623 10.4547Z" fill="#0074A3"/>
<path fill-rule="evenodd" clip-rule="evenodd" d="M10.1287 10.4547C11.1233 10.4514 12.1178 10.4547 13.1123 10.4645C13.1314 10.4936 13.1576 10.51 13.1909 10.5136C13.3444 10.6343 13.4687 10.7782 13.5638 10.9455C13.5417 10.9332 13.5221 10.9169 13.5049 10.8964C12.6903 10.8931 11.8757 10.8898 11.0611 10.8866C10.2398 10.8866 9.4252 10.8997 8.61724 10.9258C8.51405 10.7832 8.40281 10.6458 8.28355 10.5136C8.28523 10.4941 8.27868 10.4777 8.26392 10.4645C8.56817 10.4613 8.87242 10.458 9.17667 10.4547C9.48852 10.4549 9.79606 10.468 10.0992 10.494C10.1133 10.4833 10.1231 10.4702 10.1287 10.4547Z" fill="#0074A4"/>
<path fill-rule="evenodd" clip-rule="evenodd" d="M14.4275 10.4547C15.7361 10.4547 17.0447 10.4547 18.3533 10.4547C18.5318 10.5808 18.6757 10.7378 18.7852 10.9258C18.7697 10.9203 18.7566 10.9104 18.7459 10.8964C17.3064 10.8866 15.867 10.8833 14.4275 10.8866C14.4275 11.0436 14.4275 11.2006 14.4275 11.3577C14.4275 11.5147 14.4275 11.6717 14.4275 11.8288C14.4275 11.9793 14.4275 12.1297 14.4275 12.2802C14.8397 12.2802 15.2519 12.2802 15.6641 12.2802C15.6641 12.2868 15.6641 12.2933 15.6641 12.2999C15.2454 12.2999 14.8266 12.2999 14.4078 12.2999C14.4078 11.7568 14.4078 11.2137 14.4078 10.6706C14.4271 10.6027 14.4336 10.5307 14.4275 10.4547Z" fill="#0074A3"/>
<path fill-rule="evenodd" clip-rule="evenodd" d="M19.6685 10.4547C20.0415 10.4547 20.4145 10.4547 20.7874 10.4547C20.7874 10.5987 20.7874 10.7426 20.7874 10.8866C20.4145 10.8866 20.0415 10.8866 19.6685 10.8866C19.6685 11.0436 19.6685 11.2006 19.6685 11.3577C19.6685 11.5147 19.6685 11.6717 19.6685 11.8288C19.6685 11.9793 19.6685 12.1297 19.6685 12.2802C19.6621 12.2802 19.6554 12.2802 19.6489 12.2802C19.6424 11.6684 19.6489 11.0599 19.6685 10.4547Z" fill="#0074A3"/>
<path fill-rule="evenodd" clip-rule="evenodd" d="M21.5528 10.4547C21.9847 10.4547 22.4165 10.4547 22.8484 10.4547C22.8484 10.5987 22.8484 10.7426 22.8484 10.8866C22.4165 10.8866 21.9847 10.8866 21.5528 10.8866C21.5528 11.0436 21.5528 11.2006 21.5528 11.3577C21.5528 11.5147 21.5528 11.6717 21.5528 11.8288C21.5528 11.9793 21.5528 12.1297 21.5528 12.2802C21.5464 12.2802 21.5397 12.2802 21.5332 12.2802C21.5332 11.7437 21.5332 11.2072 21.5332 10.6706C21.5524 10.6027 21.5589 10.5307 21.5528 10.4547Z" fill="#0074A4"/>
<path fill-rule="evenodd" clip-rule="evenodd" d="M27.1668 10.4744C27.3327 10.5878 27.4636 10.7318 27.5594 10.9062C26.2914 10.8867 25.0221 10.8801 23.7513 10.8866C23.8012 10.794 23.8632 10.7089 23.9378 10.6314C23.9853 10.574 24.0409 10.5282 24.1047 10.494C24.1294 10.4948 24.149 10.485 24.1636 10.4646C25.1654 10.4484 26.1665 10.4517 27.1668 10.4744Z" fill="#0074A4"/>
<path fill-rule="evenodd" clip-rule="evenodd" d="M31.5834 10.651C31.5758 10.7577 31.5365 10.8493 31.4656 10.9258C30.9031 10.8996 30.3338 10.8866 29.7579 10.8866C29.182 10.8866 28.6127 10.8996 28.0501 10.9258C27.9793 10.8493 27.94 10.7577 27.9324 10.651C27.9324 10.5856 27.9324 10.5201 27.9324 10.4547C29.1494 10.4547 30.3664 10.4547 31.5834 10.4547C31.5834 10.5201 31.5834 10.5856 31.5834 10.651Z" fill="#0074A4"/>
<path fill-rule="evenodd" clip-rule="evenodd" d="M35.7056 10.4743C35.727 10.6506 35.6811 10.8076 35.5682 10.9454C35.5664 10.9259 35.5731 10.9095 35.5878 10.8963C34.9858 10.8931 34.384 10.8898 33.7819 10.8865C33.1693 10.8867 32.5608 10.8998 31.9564 10.9258C31.9976 10.7649 32.0697 10.6209 32.1723 10.4939C32.1878 10.4884 32.201 10.4786 32.2116 10.4645C33.3776 10.4482 34.5424 10.4515 35.7056 10.4743Z" fill="#0074A4"/>
<path fill-rule="evenodd" clip-rule="evenodd" d="M0.176613 10.8866C0.745898 10.8833 1.31515 10.8866 1.88436 10.8964C1.9015 10.9169 1.92113 10.9333 1.94324 10.9455C1.98916 10.9849 2.03495 11.0241 2.08065 11.0633C2.0305 11.1749 1.9847 11.2861 1.94324 11.397C1.32854 11.3578 0.706948 11.3448 0.0784671 11.3577C0.0831253 11.383 0.0765821 11.4027 0.0588379 11.4166C0.0784335 11.2333 0.117692 11.0567 0.176613 10.8866Z" fill="#0078A7"/>
<path fill-rule="evenodd" clip-rule="evenodd" d="M13.5638 10.9455C13.6664 11.0748 13.7449 11.2188 13.7993 11.3773C13.3296 11.3546 12.8585 11.3514 12.386 11.3675C12.4033 11.3814 12.4164 11.3978 12.4253 11.4166C11.9064 11.0082 11.3829 11.0016 10.8549 11.397C10.1878 11.3578 9.51391 11.3447 8.83311 11.3577C8.83311 11.3839 8.83311 11.41 8.83311 11.4362C8.76916 11.2644 8.6972 11.0943 8.61719 10.9259C9.42515 10.8997 10.2398 10.8866 11.061 10.8866C11.8756 10.8899 12.6903 10.8931 13.5049 10.8964C13.522 10.9169 13.5416 10.9333 13.5638 10.9455Z" fill="#0078A6"/>
<path fill-rule="evenodd" clip-rule="evenodd" d="M18.7852 10.9259C18.8878 11.0552 18.9664 11.1991 19.0207 11.3577C18.5496 11.3544 18.0785 11.3577 17.6074 11.3675C17.6222 11.3807 17.6287 11.397 17.6271 11.4166C17.109 11.0051 16.5856 10.9986 16.0567 11.397C16.0589 11.3849 16.0654 11.375 16.0763 11.3675C15.5268 11.3577 14.9771 11.3544 14.4275 11.3577C14.4275 11.2007 14.4275 11.0436 14.4275 10.8866C15.867 10.8833 17.3064 10.8866 18.7459 10.8964C18.7566 10.9105 18.7697 10.9203 18.7852 10.9259Z" fill="#0078A6"/>
<path fill-rule="evenodd" clip-rule="evenodd" d="M20.7873 10.8866C20.7873 11.0436 20.7873 11.2007 20.7873 11.3577C20.4144 11.3577 20.0414 11.3577 19.6685 11.3577C19.6685 11.2007 19.6685 11.0436 19.6685 10.8866C20.0414 10.8866 20.4144 10.8866 20.7873 10.8866Z" fill="#0078A7"/>
<path fill-rule="evenodd" clip-rule="evenodd" d="M22.8484 10.8866C22.8484 11.0436 22.8484 11.2007 22.8484 11.3577C22.4165 11.3577 21.9847 11.3577 21.5529 11.3577C21.5529 11.2007 21.5529 11.0436 21.5529 10.8866C21.9847 10.8866 22.4165 10.8866 22.8484 10.8866Z" fill="#0078A7"/>
<path fill-rule="evenodd" clip-rule="evenodd" d="M23.7513 10.8866C25.0221 10.8801 26.2914 10.8866 27.5594 10.9062C27.6693 11.0406 27.7543 11.1911 27.8146 11.3577C27.3402 11.3512 26.8691 11.3577 26.4013 11.3773C25.8976 11.0109 25.3937 11.0109 24.8898 11.3773C24.4286 11.3545 23.9641 11.3512 23.4962 11.3675C23.485 11.387 23.472 11.4034 23.4569 11.4166C23.5199 11.2184 23.6181 11.0418 23.7513 10.8866Z" fill="#0078A6"/>
<path fill-rule="evenodd" clip-rule="evenodd" d="M31.4657 10.9259C31.3883 11.0661 31.2705 11.1545 31.1123 11.1908C30.7983 11.2007 30.4842 11.2039 30.1701 11.2007C30.1701 11.3381 30.1701 11.4755 30.1701 11.6129C30.1509 11.5317 30.1442 11.4467 30.1505 11.3577C29.784 11.3577 29.4177 11.3577 29.0513 11.3577C29.0513 11.2988 29.0513 11.2399 29.0513 11.181C28.8353 11.181 28.6194 11.181 28.4035 11.181C28.2437 11.1536 28.1259 11.0685 28.0502 10.9259C28.6127 10.8997 29.182 10.8866 29.7579 10.8866C30.3338 10.8866 30.9031 10.8997 31.4657 10.9259Z" fill="#0078A6"/>
<path fill-rule="evenodd" clip-rule="evenodd" d="M35.5682 10.9455C35.4887 11.0671 35.3774 11.1489 35.2345 11.1908C34.5867 11.1974 33.939 11.2039 33.2912 11.2105C33.1913 11.2419 33.1193 11.304 33.0753 11.397C32.6898 11.3579 32.2972 11.3448 31.8975 11.3577C31.8975 11.4231 31.8975 11.4886 31.8975 11.554C31.8622 11.3399 31.8818 11.1306 31.9564 10.9259C32.5608 10.8998 33.1693 10.8867 33.7819 10.8866C34.384 10.8899 34.9858 10.8931 35.5878 10.8964C35.5731 10.9096 35.5664 10.9259 35.5682 10.9455Z" fill="#0077A6"/>
<path fill-rule="evenodd" clip-rule="evenodd" d="M4.55403 11.3773C4.13671 11.3547 3.71794 11.3514 3.29776 11.3675C3.2741 11.3945 3.24794 11.4174 3.21924 11.4362C3.31899 11.2879 3.4564 11.1864 3.63145 11.1319C3.9178 11.0499 4.18608 11.0892 4.43625 11.2497C4.48053 11.2906 4.51979 11.3331 4.55403 11.3773Z" fill="#0078A7"/>
<path fill-rule="evenodd" clip-rule="evenodd" d="M7.49841 11.3773C7.06657 11.3511 6.63472 11.3511 6.20288 11.3773C6.47991 11.095 6.80707 11.0197 7.18434 11.1516C7.30903 11.2013 7.41373 11.2766 7.49841 11.3773Z" fill="#0078A7"/>
<path opacity="0.748" fill-rule="evenodd" clip-rule="evenodd" d="M28.4034 11.181C28.6194 11.181 28.8353 11.181 29.0512 11.181C29.0512 11.2399 29.0512 11.2988 29.0512 11.3577C29.0512 11.5147 29.0512 11.6718 29.0512 11.8288C29.0512 11.9793 29.0512 12.1298 29.0512 12.2803C29.4242 12.2803 29.7971 12.2803 30.1701 12.2803C30.1701 12.2868 30.1701 12.2934 30.1701 12.2999C29.7906 12.2999 29.411 12.2999 29.0316 12.2999C29.0316 11.9335 29.0316 11.5671 29.0316 11.2007C28.8186 11.2071 28.6094 11.2005 28.4034 11.181Z" fill="#0070A1"/>
<path fill-rule="evenodd" clip-rule="evenodd" d="M1.94329 11.397C1.87692 11.6941 1.85074 11.9951 1.86478 12.2999C1.24318 12.2999 0.621593 12.2999 0 12.2999C0 12.2934 0 12.2868 0 12.2803C0.615048 12.2803 1.2301 12.2803 1.84515 12.2803C1.84515 12.1298 1.84515 11.9793 1.84515 11.8288C1.23664 11.8288 0.628135 11.8288 0.0196292 11.8288C0.0259205 11.9308 0.0193774 12.029 0 12.1233C0 12.012 0 11.9008 0 11.7896C0.0182584 11.667 0.0378875 11.5426 0.0588877 11.4166C0.0766319 11.4027 0.0831751 11.3831 0.0785169 11.3577C0.706998 11.3448 1.32859 11.3579 1.94329 11.397Z" fill="#007AA8"/>
<path fill-rule="evenodd" clip-rule="evenodd" d="M4.55393 11.3773C4.69978 11.5066 4.77829 11.6702 4.78948 11.868C4.21156 11.8291 3.62922 11.8161 3.04248 11.8288C3.05942 11.6772 3.11831 11.5464 3.21914 11.4362C3.24784 11.4174 3.27401 11.3945 3.29766 11.3675C3.71784 11.3514 4.13661 11.3546 4.55393 11.3773Z" fill="#007BA9"/>
<path fill-rule="evenodd" clip-rule="evenodd" d="M7.49838 11.3773C7.69758 11.5844 7.77609 11.8331 7.73393 12.1232C7.71456 12.0289 7.708 11.9307 7.7143 11.8288C7.13852 11.8288 6.56271 11.8288 5.98693 11.8288C5.99323 11.9307 5.98668 12.0289 5.9673 12.1232C5.94143 11.8996 5.98395 11.6902 6.09489 11.4951C6.12663 11.4506 6.16261 11.4114 6.20285 11.3773C6.63469 11.3511 7.06654 11.3511 7.49838 11.3773Z" fill="#007BA9"/>
<path fill-rule="evenodd" clip-rule="evenodd" d="M10.8549 11.397C10.7092 11.5382 10.598 11.7017 10.5212 11.8877C10.5212 11.8681 10.5212 11.8485 10.5212 11.8288C9.98472 11.8288 9.44817 11.8288 8.91165 11.8288C8.91165 11.9793 8.91165 12.1298 8.91165 12.2803C8.90511 12.2803 8.89855 12.2803 8.89202 12.2803C8.90381 11.9964 8.88419 11.715 8.83313 11.4363C8.83313 11.4101 8.83313 11.3839 8.83313 11.3577C9.51393 11.3448 10.1879 11.3579 10.8549 11.397Z" fill="#007BA9"/>
<path fill-rule="evenodd" clip-rule="evenodd" d="M13.7993 11.3773C13.8724 11.5314 13.9182 11.695 13.9367 11.868C13.735 11.8423 13.5289 11.8292 13.3184 11.8288C13.1118 11.8288 12.9123 11.8419 12.7197 11.868C12.646 11.7025 12.5478 11.552 12.4252 11.4166C12.4164 11.3978 12.4033 11.3814 12.386 11.3675C12.8585 11.3514 13.3296 11.3546 13.7993 11.3773Z" fill="#007BA9"/>
<path fill-rule="evenodd" clip-rule="evenodd" d="M14.4275 11.3577C14.9771 11.3544 15.5268 11.3577 16.0763 11.3675C16.0654 11.375 16.0589 11.3848 16.0567 11.3969C15.9276 11.531 15.8229 11.6815 15.7426 11.8484C15.3077 11.8288 14.8693 11.8223 14.4275 11.8288C14.4275 11.6717 14.4275 11.5147 14.4275 11.3577Z" fill="#007BA9"/>
<path fill-rule="evenodd" clip-rule="evenodd" d="M19.0207 11.3577C19.1032 11.5302 19.1555 11.7134 19.1778 11.9073C19.1594 11.8863 19.1529 11.8602 19.1581 11.8288C18.7525 11.8288 18.3468 11.8288 17.9411 11.8288C17.9411 11.8484 17.9411 11.868 17.9411 11.8877C17.8662 11.7118 17.7615 11.5547 17.6271 11.4166C17.6287 11.397 17.6222 11.3807 17.6074 11.3675C18.0785 11.3577 18.5496 11.3544 19.0207 11.3577Z" fill="#007BA9"/>
<path fill-rule="evenodd" clip-rule="evenodd" d="M19.6685 11.3577C20.0414 11.3577 20.4144 11.3577 20.7873 11.3577C20.7873 11.5147 20.7873 11.6717 20.7873 11.8288C20.4144 11.8288 20.0414 11.8288 19.6685 11.8288C19.6685 11.6717 19.6685 11.5147 19.6685 11.3577Z" fill="#007BA9"/>
<path fill-rule="evenodd" clip-rule="evenodd" d="M21.5529 11.3577C21.9847 11.3577 22.4165 11.3577 22.8484 11.3577C22.8484 11.5147 22.8484 11.6717 22.8484 11.8288C22.4165 11.8288 21.9847 11.8288 21.5529 11.8288C21.5529 11.6717 21.5529 11.5147 21.5529 11.3577Z" fill="#007BA9"/>
<path fill-rule="evenodd" clip-rule="evenodd" d="M24.8898 11.3773C24.7495 11.5144 24.6382 11.6714 24.5561 11.8484C24.1539 11.8288 23.7482 11.8223 23.3391 11.8288C23.355 11.6829 23.3943 11.5455 23.4569 11.4165C23.472 11.4034 23.485 11.387 23.4961 11.3675C23.9641 11.3512 24.4285 11.3545 24.8898 11.3773Z" fill="#007BA9"/>
<path fill-rule="evenodd" clip-rule="evenodd" d="M27.8147 11.3577C27.8971 11.5302 27.9495 11.7134 27.9717 11.9073C27.9534 11.8863 27.9468 11.8601 27.9521 11.8288C27.553 11.8288 27.1538 11.8288 26.7547 11.8288C26.7547 11.8484 26.7547 11.868 26.7547 11.8876C26.7115 11.7948 26.6624 11.7031 26.6075 11.6128C26.5419 11.531 26.4732 11.4525 26.4014 11.3773C26.8691 11.3577 27.3402 11.3512 27.8147 11.3577Z" fill="#007BA9"/>
<path fill-rule="evenodd" clip-rule="evenodd" d="M29.0513 11.3577C29.4177 11.3577 29.784 11.3577 30.1505 11.3577C30.1442 11.4466 30.1509 11.5317 30.1701 11.6128C30.1701 11.783 30.1701 11.9531 30.1701 12.1232C30.1507 12.0289 30.1442 11.9307 30.1505 11.8288C29.784 11.8288 29.4177 11.8288 29.0513 11.8288C29.0513 11.6717 29.0513 11.5147 29.0513 11.3577Z" fill="#007BA9"/>
<path fill-rule="evenodd" clip-rule="evenodd" d="M33.0752 11.3969C33.0556 11.5705 33.1276 11.685 33.2911 11.7405C33.7687 11.747 34.2465 11.7535 34.7241 11.7601C34.8214 11.7696 34.9131 11.7925 34.9989 11.8288C33.9913 11.8288 32.9835 11.8288 31.976 11.8288C31.976 11.855 31.976 11.8811 31.976 11.9073C31.9255 11.797 31.8994 11.6793 31.8975 11.554C31.8975 11.4886 31.8975 11.4231 31.8975 11.3577C32.2971 11.3448 32.6897 11.3579 33.0752 11.3969Z" fill="#007BA9"/>
<path fill-rule="evenodd" clip-rule="evenodd" d="M0 12.2802C0 12.2279 0 12.1755 0 12.1232C0.0193774 12.0289 0.0259205 11.9307 0.0196292 11.8287C0.628135 11.8287 1.23664 11.8287 1.84515 11.8287C1.84515 11.9792 1.84515 12.1297 1.84515 12.2802C1.2301 12.2802 0.615048 12.2802 0 12.2802Z" fill="#007DAA"/>
<path fill-rule="evenodd" clip-rule="evenodd" d="M3.04259 11.8288C3.62932 11.8161 4.21166 11.8292 4.78959 11.868C4.80847 12.0037 4.81501 12.1411 4.80922 12.2803C4.2138 12.2803 3.61837 12.2803 3.02296 12.2803C3.01709 12.1281 3.02362 11.9776 3.04259 11.8288Z" fill="#007DAA"/>
<path fill-rule="evenodd" clip-rule="evenodd" d="M7.73392 12.1232C7.73392 12.1821 7.73392 12.2409 7.73392 12.2998C7.14504 12.2998 6.55616 12.2998 5.96729 12.2998C5.96729 12.2409 5.96729 12.1821 5.96729 12.1232C5.98666 12.0289 5.99322 11.9307 5.98691 11.8287C6.5627 11.8287 7.1385 11.8287 7.71429 11.8287C7.70799 11.9307 7.71454 12.0289 7.73392 12.1232Z" fill="#007CAA"/>
<path fill-rule="evenodd" clip-rule="evenodd" d="M10.5212 11.8876C10.4813 12.0152 10.4617 12.1461 10.4623 12.2802C9.94543 12.2802 9.42852 12.2802 8.91162 12.2802C8.91162 12.1297 8.91162 11.9792 8.91162 11.8287C9.44815 11.8287 9.98469 11.8287 10.5212 11.8287C10.5212 11.8484 10.5212 11.868 10.5212 11.8876Z" fill="#007DAA"/>
<path fill-rule="evenodd" clip-rule="evenodd" d="M13.9367 11.868C13.9692 12.0007 13.9823 12.1381 13.976 12.2802C13.5769 12.2802 13.1777 12.2802 12.7786 12.2802C12.7818 12.1393 12.7622 12.0018 12.7197 11.868C12.9123 11.8418 13.1119 11.8288 13.3184 11.8287C13.529 11.8292 13.7351 11.8423 13.9367 11.868Z" fill="#007DAA"/>
<path fill-rule="evenodd" clip-rule="evenodd" d="M14.4275 11.8288C14.8693 11.8223 15.3077 11.8289 15.7426 11.8485C15.704 11.99 15.6778 12.134 15.6641 12.2803C15.2519 12.2803 14.8397 12.2803 14.4275 12.2803C14.4275 12.1298 14.4275 11.9793 14.4275 11.8288Z" fill="#007DAA"/>
<path fill-rule="evenodd" clip-rule="evenodd" d="M19.1778 11.9073C19.2012 12.0362 19.2143 12.167 19.2171 12.2998C18.8114 12.2998 18.4057 12.2998 18 12.2998C17.9982 12.1598 17.9786 12.0224 17.9412 11.8876C17.9412 11.868 17.9412 11.8484 17.9412 11.8287C18.3468 11.8287 18.7525 11.8287 19.1582 11.8287C19.1529 11.8601 19.1595 11.8863 19.1778 11.9073Z" fill="#007CAA"/>
<path fill-rule="evenodd" clip-rule="evenodd" d="M19.6685 11.8287C20.0414 11.8287 20.4144 11.8287 20.7873 11.8287C20.7873 11.9792 20.7873 12.1297 20.7873 12.2802C20.4144 12.2802 20.0414 12.2802 19.6685 12.2802C19.6685 12.1297 19.6685 11.9792 19.6685 11.8287Z" fill="#007DAA"/>
<path fill-rule="evenodd" clip-rule="evenodd" d="M21.5529 11.8287C21.9847 11.8287 22.4165 11.8287 22.8484 11.8287C22.8484 11.9792 22.8484 12.1297 22.8484 12.2802C22.4165 12.2802 21.9847 12.2802 21.5529 12.2802C21.5529 12.1297 21.5529 11.9792 21.5529 11.8287Z" fill="#007DAA"/>
<path fill-rule="evenodd" clip-rule="evenodd" d="M23.3392 11.8288C23.7483 11.8223 24.154 11.8289 24.5562 11.8485C24.5136 11.9892 24.4875 12.1332 24.4777 12.2803C24.0851 12.2803 23.6925 12.2803 23.2999 12.2803C23.2999 12.2411 23.2999 12.2018 23.2999 12.1625C23.2944 12.0464 23.3074 11.9352 23.3392 11.8288Z" fill="#007DAA"/>
<path fill-rule="evenodd" clip-rule="evenodd" d="M27.9717 11.9073C27.995 12.0362 28.0082 12.167 28.0109 12.2998C27.6118 12.2998 27.2126 12.2998 26.8135 12.2998C26.8088 12.16 26.7892 12.0226 26.7546 11.8876C26.7546 11.868 26.7546 11.8484 26.7546 11.8287C27.1537 11.8287 27.553 11.8287 27.952 11.8287C27.9467 11.8601 27.9534 11.8863 27.9717 11.9073Z" fill="#007CAA"/>
<path fill-rule="evenodd" clip-rule="evenodd" d="M29.0513 11.8287C29.4177 11.8287 29.784 11.8287 30.1505 11.8287C30.1442 11.9307 30.1507 12.0289 30.1701 12.1232C30.1701 12.1755 30.1701 12.2279 30.1701 12.2802C29.7972 12.2802 29.4242 12.2802 29.0513 12.2802C29.0513 12.1297 29.0513 11.9792 29.0513 11.8287Z" fill="#007DAA"/>
<path fill-rule="evenodd" clip-rule="evenodd" d="M34.9989 11.8287C35.2878 11.9077 35.5233 12.0647 35.7055 12.2998C34.5342 12.2998 33.3631 12.2998 32.1919 12.2998C32.0898 12.1874 32.0178 12.0566 31.976 11.9073C31.976 11.8811 31.976 11.8549 31.976 11.8287C32.9835 11.8287 33.9913 11.8287 34.9989 11.8287Z" fill="#007CAA"/>
<path opacity="0.988" fill-rule="evenodd" clip-rule="evenodd" d="M23.2999 12.1625C23.2999 12.2017 23.2999 12.241 23.2999 12.2803C23.6925 12.2803 24.0851 12.2803 24.4777 12.2803C24.4777 12.2868 24.4777 12.2933 24.4777 12.2999C24.0786 12.2999 23.6794 12.2999 23.2803 12.2999C23.2744 12.2496 23.2809 12.2038 23.2999 12.1625Z" fill="#00699B"/>
<path fill-rule="evenodd" clip-rule="evenodd" d="M0 12.2999C0.621593 12.2999 1.24318 12.2999 1.86478 12.2999C1.86151 12.915 1.86478 13.53 1.87459 14.145C1.98334 14.5315 2.23524 14.6853 2.63032 14.6063C2.84382 14.5237 2.97141 14.3699 3.01309 14.145C3.0229 13.53 3.02618 12.8954 3.0229 12.2803C3.61178 12.2803 4.22028 12.2803 4.80916 12.2803C4.80264 12.9052 4.78957 13.5464 4.80916 14.1647C4.9427 14.5635 5.21095 14.7042 5.61396 14.5867C5.82026 14.4848 5.93476 14.3179 5.95747 14.0862C5.96728 13.4908 5.97056 12.8954 5.96728 12.2999C6.55616 12.2999 7.14504 12.2999 7.73391 12.2999C7.73064 12.8954 7.73391 13.4908 7.74373 14.0862C7.81614 14.4726 8.04841 14.6526 8.44057 14.626C8.67398 14.5529 8.82447 14.3991 8.89204 14.1647C8.91163 13.5464 8.89855 12.9052 8.89204 12.2803C9.40893 12.2803 9.94548 12.2803 10.4624 12.2803C10.5267 12.9858 10.9128 13.3915 11.6205 13.458C12.2446 13.4111 12.6306 13.0839 12.7786 12.4766C12.7786 12.4177 12.7786 12.349 12.7786 12.2803C13.1712 12.2803 13.5834 12.2803 13.976 12.2803C13.9357 13.2853 13.4646 14.028 12.5627 14.4689C11.6707 14.8089 10.8495 14.6878 10.0992 14.1058C9.51864 15.5043 8.5339 16.5087 7.14504 17.1189C6.66169 17.3084 6.16442 17.4295 5.65322 17.482C5.35224 17.482 5.05125 17.482 4.75027 17.482C2.73625 17.2196 1.29351 16.1727 0.422028 14.3413C0.200822 13.8098 0.0601461 13.2602 0 12.6925C0 12.5616 0 12.4308 0 12.2999Z" fill="#004E81"/>
<path opacity="0.53" fill-rule="evenodd" clip-rule="evenodd" d="M3.02295 12.2999C3.02295 12.2934 3.02295 12.2868 3.02295 12.2803C3.61836 12.2803 4.2138 12.2803 4.80921 12.2803C4.80921 12.9084 4.80921 13.5365 4.80921 14.1647C4.78962 13.5464 4.78306 12.9249 4.78958 12.2999C4.2007 12.2999 3.61183 12.2999 3.02295 12.2999Z" fill="#005D90"/>
<path opacity="0.44" fill-rule="evenodd" clip-rule="evenodd" d="M8.89209 12.2803C8.89863 12.2803 8.90518 12.2803 8.91172 12.2803C9.42862 12.2803 9.94553 12.2803 10.4624 12.2803C10.4624 12.2868 10.4624 12.2934 10.4624 12.2999C9.94553 12.2999 9.42862 12.2999 8.91172 12.2999C8.91824 12.9249 8.91168 13.5464 8.89209 14.1647C8.89209 13.5365 8.89209 12.9084 8.89209 12.2803Z" fill="#005D8F"/>
<path opacity="0.306" fill-rule="evenodd" clip-rule="evenodd" d="M12.7786 12.2803C13.1777 12.2803 13.5768 12.2803 13.9759 12.2803C13.9759 12.2868 13.9759 12.2934 13.9759 12.2999C13.5834 12.2999 13.1908 12.2999 12.7982 12.2999C12.8043 12.363 12.7977 12.4219 12.7786 12.4766C12.7786 12.4111 12.7786 12.3457 12.7786 12.2803Z" fill="#005F92"/>
<path fill-rule="evenodd" clip-rule="evenodd" d="M14.4078 12.2999C14.8266 12.2999 15.2453 12.2999 15.6641 12.2999C15.7621 13.0622 16.1939 13.445 16.9596 13.4482C17.1853 13.4203 17.3882 13.3385 17.5681 13.2029C17.6466 13.1636 17.7055 13.1047 17.7448 13.0262C17.9037 12.8111 17.9888 12.569 18 12.2999C18.4056 12.2999 18.8113 12.2999 19.217 12.2999C19.1412 13.4387 18.5654 14.1944 17.4896 14.5671C16.8536 14.7384 16.2451 14.6697 15.6641 14.361C15.4614 14.6914 15.1735 14.7994 14.8004 14.6849C14.4286 14.494 14.301 14.1963 14.4176 13.7917C14.4838 13.6406 14.5852 13.5196 14.7219 13.4286C14.5239 13.0782 14.4192 12.7019 14.4078 12.2999Z" fill="#004E81"/>
<path fill-rule="evenodd" clip-rule="evenodd" d="M19.6489 12.2999C20.035 12.2999 20.4209 12.2999 20.807 12.2999C20.816 12.9485 20.8062 13.5963 20.7776 14.2432C20.6619 14.5611 20.4362 14.6953 20.1003 14.6456C19.8811 14.5835 19.7405 14.4428 19.6783 14.2236C19.6497 13.5831 19.6398 12.9418 19.6489 12.2999Z" fill="#004E81"/>
<path fill-rule="evenodd" clip-rule="evenodd" d="M21.5333 12.2999C21.9783 12.2999 22.4231 12.2999 22.868 12.2999C22.8773 12.9421 22.8675 13.5833 22.8386 14.2236C22.6588 14.5768 22.3742 14.7109 21.9847 14.626C21.7945 14.5536 21.6538 14.426 21.5627 14.2432C21.5338 13.5964 21.524 12.9487 21.5333 12.2999Z" fill="#004E81"/>
<path fill-rule="evenodd" clip-rule="evenodd" d="M23.2803 12.2999C23.6793 12.2999 24.0786 12.2999 24.4777 12.2999C24.5577 12.9983 24.947 13.3844 25.6456 13.4581C26.2419 13.4178 26.6216 13.1102 26.7841 12.5355C26.8004 12.4576 26.8102 12.3791 26.8135 12.2999C27.2126 12.2999 27.6119 12.2999 28.0109 12.2999C27.9601 13.3284 27.4693 14.058 26.5387 14.4886C25.6297 14.8145 24.8053 14.6705 24.0654 14.0567C23.5667 13.5792 23.305 12.9936 23.2803 12.2999Z" fill="#004E81"/>
<path fill-rule="evenodd" clip-rule="evenodd" d="M29.0316 12.2999C29.4111 12.2999 29.7907 12.2999 30.1701 12.2999C30.1668 12.5029 30.1701 12.7057 30.18 12.9084C30.1986 13.1717 30.3329 13.3451 30.5824 13.4286C30.7991 13.446 31.015 13.4656 31.2301 13.4875C31.512 13.6161 31.6331 13.8353 31.5933 14.1451C31.5379 14.3837 31.3907 14.5309 31.1516 14.5867C30.6169 14.6733 30.1262 14.5686 29.6794 14.2727C29.3047 13.9586 29.0921 13.5562 29.0415 13.0655C29.0316 12.8104 29.0283 12.5552 29.0316 12.2999Z" fill="#004E81"/>
<path fill-rule="evenodd" clip-rule="evenodd" d="M32.1919 12.2999C33.3632 12.2999 34.5343 12.2999 35.7055 12.2999C35.8565 12.4846 35.9546 12.694 36 12.9281C36 13.0916 36 13.2552 36 13.4188C35.8471 14.0788 35.4349 14.4681 34.7633 14.5867C33.9521 14.5998 33.1406 14.5998 32.3293 14.5867C31.9619 14.4639 31.8213 14.212 31.9073 13.831C31.9791 13.6413 32.1134 13.5203 32.3097 13.4679C33.0491 13.4613 33.7884 13.4548 34.5278 13.4482C34.78 13.4049 34.8619 13.2642 34.7732 13.0262C34.7351 12.9751 34.686 12.9391 34.6259 12.9182C34.168 12.9117 33.7098 12.9052 33.2519 12.8986C32.8069 12.8562 32.4536 12.6566 32.1919 12.2999Z" fill="#004E81"/>
<path opacity="0.898" fill-rule="evenodd" clip-rule="evenodd" d="M17.7448 13.0261C17.7055 13.1046 17.6466 13.1635 17.5681 13.2028C17.6205 13.1374 17.6794 13.0785 17.7448 13.0261Z" fill="#005588"/>
</svg>
