<svg width="36" height="24" viewBox="0 0 36 24" fill="none" xmlns="http://www.w3.org/2000/svg">
<path fill-rule="evenodd" clip-rule="evenodd" d="M1.08151 8.96495C1.86501 8.96374 2.64851 8.96495 3.432 8.96855C3.43619 8.97499 3.4386 8.9822 3.43921 8.99018C3.39877 9.19695 3.36152 9.40483 3.32746 9.61385C3.17141 9.7494 3.01399 9.88402 2.8552 10.0176C2.85039 10.0248 2.84559 10.032 2.84078 10.0393C2.85983 10.0667 2.88025 10.0932 2.90206 10.1186C2.90555 10.1254 2.90674 10.1326 2.90567 10.1402C2.91414 10.1386 2.92135 10.141 2.9273 10.1474C3.00436 10.2486 3.08487 10.3471 3.16884 10.443C3.17365 10.4719 3.17365 10.5007 3.16884 10.5295C3.14374 10.6437 3.12451 10.7591 3.11116 10.8756C3.09679 10.9008 3.07636 10.92 3.04987 10.9333C3.04348 10.9392 3.04108 10.9464 3.04266 10.9549C3.03419 10.9533 3.02698 10.9557 3.02103 10.9621C2.80076 11.1524 2.57965 11.3411 2.3577 11.5281C1.9972 11.5317 1.6367 11.533 1.27619 11.5317C1.29839 11.3873 1.32242 11.2431 1.34829 11.0991C1.56189 11.0931 1.77578 11.0895 1.98999 11.0883C2.04166 11.0482 2.08973 11.005 2.13419 10.9585C2.16678 10.9355 2.19923 10.9127 2.23152 10.89C2.26043 10.7551 2.28566 10.6193 2.30723 10.4827C2.29993 10.4587 2.29032 10.4359 2.27839 10.4142C2.26992 10.4158 2.26271 10.4134 2.25676 10.407C2.23511 10.3711 2.20867 10.3398 2.17745 10.3132C2.16415 10.2954 2.15454 10.2761 2.14861 10.2556C1.9299 10.2556 1.71119 10.2556 1.49249 10.2556C1.49408 10.2347 1.50009 10.2155 1.51051 10.1979C1.5261 10.0719 1.54653 9.94696 1.5718 9.82295C1.7857 9.81812 1.9996 9.81336 2.2135 9.80853C2.27561 9.76202 2.3357 9.71393 2.39375 9.66433C2.41708 9.64428 2.43871 9.62265 2.45864 9.59943C2.4712 9.53591 2.48322 9.47225 2.49469 9.40837C2.14861 9.40354 1.80252 9.40354 1.45644 9.40837C1.42242 9.4323 1.39118 9.45877 1.36271 9.48768C1.35587 9.49114 1.34866 9.49236 1.34108 9.49128C1.34266 9.49979 1.34026 9.507 1.33387 9.51291C1.28875 9.54233 1.2467 9.576 1.20769 9.61385C1.20611 9.62424 1.20251 9.63383 1.19688 9.6427C1.08515 10.2721 0.974596 10.9018 0.865211 11.5317C0.576808 11.5317 0.288404 11.5317 0 11.5317C0.110553 10.8877 0.221108 10.2436 0.331664 9.59943C0.362649 9.57348 0.396296 9.54947 0.432606 9.52733C0.596658 9.38155 0.762489 9.23734 0.930102 9.09473C0.947536 9.08813 0.961956 9.07732 0.973363 9.06228C0.980198 9.0588 0.987408 9.0576 0.994993 9.05868C0.993414 9.05021 0.995815 9.043 1.0022 9.03705C1.02902 9.0126 1.05546 8.98857 1.08151 8.96495Z" fill="black"/>
<path fill-rule="evenodd" clip-rule="evenodd" d="M3.70599 8.96495C3.99439 8.96495 4.2828 8.96495 4.5712 8.96495C4.51283 9.32769 4.45155 9.69057 4.38734 10.0537C4.35599 10.1949 4.33076 10.3379 4.31164 10.4827C4.29453 10.5706 4.27651 10.6583 4.25756 10.7458C4.24999 10.7939 4.24518 10.842 4.24314 10.89C4.29857 10.9539 4.35265 11.0187 4.40537 11.0847C4.75623 11.0919 5.10712 11.0943 5.45804 11.0919C5.57982 10.3822 5.70239 9.67319 5.82576 8.96495C6.11416 8.96495 6.40256 8.96495 6.69097 8.96495C6.68812 9.02051 6.68211 9.07579 6.67294 9.13078C6.53085 9.92915 6.38905 10.7271 6.24755 11.5245C5.46576 11.533 4.68346 11.5341 3.90066 11.5281C3.86719 11.5042 3.84075 11.4742 3.82135 11.438C3.80649 11.418 3.78846 11.4012 3.76727 11.3875C3.75811 11.3664 3.74609 11.3472 3.73122 11.3299C3.6121 11.1875 3.49313 11.0456 3.37432 10.9045C3.37056 10.8965 3.36816 10.8881 3.36711 10.8792C3.37177 10.8518 3.37538 10.8241 3.37793 10.7963C3.49098 10.1878 3.60032 9.57737 3.70599 8.96495Z" fill="black"/>
<path fill-rule="evenodd" clip-rule="evenodd" d="M6.95774 8.96495C7.24852 8.96495 7.53938 8.96495 7.83016 8.96495C7.75503 9.37693 7.68416 9.79036 7.61746 10.2051C7.60247 10.2848 7.58567 10.3641 7.56699 10.443C7.53282 10.6599 7.49799 10.8762 7.46245 11.0919C8.16666 11.0919 8.87079 11.0919 9.575 11.0919C9.55799 11.2374 9.53398 11.3816 9.5029 11.5245C8.50553 11.5317 7.50809 11.5341 6.51072 11.5317C6.66232 10.677 6.81133 9.82143 6.95774 8.96495Z" fill="black"/>
<path fill-rule="evenodd" clip-rule="evenodd" d="M10.2167 8.96495C10.5051 8.96495 10.7935 8.96495 11.0819 8.96495C11.0744 9.05825 11.0588 9.14958 11.035 9.23893C10.975 9.59698 10.9149 9.95511 10.8548 10.3132C10.8083 10.5721 10.759 10.8304 10.707 11.0883C11.416 11.0919 12.125 11.0931 12.834 11.0919C12.8165 11.2384 12.7901 11.3826 12.7547 11.5245C11.7597 11.5317 10.7647 11.5341 9.76968 11.5317C9.77595 11.4531 9.78922 11.3761 9.80933 11.301C9.94279 10.522 10.0786 9.74328 10.2167 8.96495Z" fill="black"/>
<path fill-rule="evenodd" clip-rule="evenodd" d="M14.1102 8.96495C14.8937 8.96495 15.6771 8.96495 16.4606 8.96495C16.4194 9.25486 16.3713 9.54327 16.3164 9.83016C16.0257 9.83737 15.7349 9.83975 15.444 9.83737C15.4649 9.74479 15.4806 9.65106 15.4909 9.55617C15.508 9.50772 15.5165 9.45725 15.5161 9.40476C15.1677 9.40354 14.8191 9.40476 14.4707 9.40837C14.431 9.45393 14.3854 9.49359 14.3337 9.52733C14.3272 9.53325 14.3249 9.54046 14.3265 9.54896C14.3074 9.55221 14.2906 9.56064 14.276 9.5742C14.2549 9.59165 14.2381 9.61205 14.2255 9.63548C14.1895 9.83463 14.1559 10.0341 14.1246 10.2339C14.8288 10.2327 15.5329 10.2339 16.2371 10.2375C16.2404 10.2405 16.2428 10.2441 16.2443 10.2483C16.2203 10.3926 16.1938 10.5356 16.165 10.6773C15.4584 10.6809 14.7519 10.6822 14.0453 10.6809C14.0176 10.8171 13.9935 10.9541 13.9732 11.0919C14.6798 11.0919 15.3863 11.0919 16.0929 11.0919C16.0688 11.2366 16.0424 11.3808 16.0136 11.5245C15.0162 11.5317 14.0188 11.5341 13.0214 11.5317C13.1368 10.8886 13.251 10.2445 13.3639 9.59943C13.6142 9.3894 13.863 9.17788 14.1102 8.96495Z" fill="black"/>
<path fill-rule="evenodd" clip-rule="evenodd" d="M16.7274 8.96495C17.7248 8.96495 18.7222 8.96495 19.7196 8.96495C19.6974 9.11195 19.6734 9.25854 19.6475 9.40476C19.2942 9.40476 18.9409 9.40476 18.5876 9.40476C18.4588 10.1136 18.3338 10.8226 18.2127 11.5317C17.9243 11.5317 17.6359 11.5317 17.3475 11.5317C17.3511 11.4763 17.3571 11.421 17.3655 11.3659C17.4882 10.7153 17.6047 10.0641 17.7152 9.41197C17.3595 9.40476 17.0039 9.40238 16.6481 9.40476C16.6552 9.38623 16.6613 9.36698 16.6661 9.34708C16.687 9.21975 16.7074 9.09237 16.7274 8.96495Z" fill="black"/>
<path fill-rule="evenodd" clip-rule="evenodd" d="M20.6209 8.96495C21.4044 8.96374 22.1878 8.96495 22.9714 8.96855C22.9755 8.97499 22.9779 8.9822 22.9786 8.99018C22.9115 9.34153 22.8479 9.6936 22.7875 10.0465C22.713 10.1005 22.6445 10.1606 22.582 10.2267C22.5641 10.24 22.5449 10.2496 22.5243 10.2556C22.5259 10.2641 22.5235 10.2713 22.5171 10.2772C22.4057 10.3706 22.2951 10.4655 22.1855 10.562C22.1786 10.5654 22.1714 10.5667 22.1638 10.5656C22.1654 10.5741 22.163 10.5813 22.1566 10.5872C22.1206 10.6173 22.0845 10.6473 22.0485 10.6773C21.688 10.6809 21.3275 10.6822 20.967 10.6809C20.9759 10.599 20.9867 10.5174 20.9994 10.4358C21.0147 10.3705 21.028 10.3044 21.0391 10.2375C21.2554 10.2351 21.4717 10.2327 21.688 10.2303C21.7666 10.1649 21.8434 10.0988 21.9187 10.032C21.958 9.82598 21.9964 9.61926 22.034 9.41197C21.6856 9.40354 21.3371 9.40238 20.9886 9.40837C20.9101 9.4796 20.8296 9.5481 20.747 9.61385C20.7175 9.78574 20.6838 9.95641 20.6461 10.1258C20.6389 10.192 20.6305 10.2581 20.6209 10.324C20.5763 10.5409 20.5378 10.7584 20.5055 10.9766C20.4666 11.1612 20.433 11.3462 20.4046 11.5317C20.1162 11.5317 19.8278 11.5317 19.5394 11.5317C19.5468 11.4815 19.5528 11.431 19.5574 11.3803C19.6616 10.786 19.7673 10.1924 19.8746 9.59943C19.9011 9.58134 19.9263 9.56216 19.9503 9.54175C19.9567 9.53584 19.9591 9.52863 19.9575 9.52012C19.9894 9.50167 20.0206 9.48119 20.0513 9.45884C20.0891 9.415 20.1324 9.37772 20.1811 9.34708C20.1875 9.34117 20.1898 9.33396 20.1883 9.32545C20.2211 9.30714 20.2524 9.28551 20.282 9.26056C20.3978 9.16336 20.5107 9.06483 20.6209 8.96495Z" fill="black"/>
<path fill-rule="evenodd" clip-rule="evenodd" d="M23.8798 8.96495C24.6634 8.96495 25.4468 8.96495 26.2303 8.96495C26.2253 9.03263 26.2169 9.09993 26.2051 9.16683C26.1534 9.46028 26.1005 9.75351 26.0465 10.0465C25.9684 10.1173 25.8878 10.1858 25.8049 10.2519C25.7981 10.2554 25.7909 10.2566 25.7833 10.2556C25.7849 10.2641 25.7825 10.2713 25.7761 10.2772C25.7563 10.2845 25.7418 10.2977 25.7328 10.3168C25.7256 10.3192 25.7184 10.3217 25.7112 10.324C25.6702 10.3698 25.6245 10.4107 25.5742 10.4466C25.5674 10.4501 25.5601 10.4513 25.5526 10.4502C25.5542 10.4587 25.5518 10.4659 25.5454 10.4719C25.4736 10.5339 25.4015 10.5964 25.3291 10.6593C25.3891 10.6641 25.4493 10.6689 25.5093 10.6737C25.5115 10.6796 25.5152 10.6843 25.5201 10.6882C25.5616 10.8234 25.6037 10.958 25.6463 11.0919C25.7184 11.0919 25.7905 11.0919 25.8626 11.0919C25.8356 11.2386 25.8092 11.3852 25.7833 11.5317C25.4973 11.533 25.2113 11.5317 24.9253 11.5281C24.8998 11.4707 24.877 11.4118 24.8568 11.3515C24.7895 11.1262 24.7185 10.9027 24.6441 10.6809C24.5023 10.6809 24.3605 10.6809 24.2187 10.6809C24.2407 10.5322 24.2672 10.3844 24.298 10.2375C24.5119 10.2351 24.7258 10.2327 24.9397 10.2303C24.9626 10.2111 24.9866 10.1931 25.0118 10.1762C25.0182 10.1703 25.0206 10.1631 25.019 10.1546C25.0266 10.1557 25.0338 10.1545 25.0407 10.151C25.0849 10.1116 25.1294 10.0719 25.174 10.032C25.1769 10.0063 25.1841 9.98229 25.1957 9.95994C25.2214 9.82136 25.243 9.68199 25.2606 9.54175C25.2735 9.49806 25.2843 9.45357 25.293 9.40837C24.9421 9.40354 24.5913 9.40354 24.2403 9.40837C24.1644 9.48011 24.0851 9.5486 24.0024 9.61385C23.9581 9.82439 23.9209 10.0359 23.8906 10.2483C23.875 10.3279 23.8581 10.4072 23.8402 10.4863C23.7808 10.8347 23.7219 11.1833 23.6635 11.5317C23.3727 11.5317 23.0819 11.5317 22.7911 11.5317C22.9076 10.8889 23.0217 10.2447 23.1336 9.59943C23.2293 9.51587 23.3267 9.43295 23.4256 9.35069C23.4324 9.34723 23.4397 9.346 23.4472 9.34708C23.4471 9.33526 23.4519 9.3256 23.4616 9.31824C23.5568 9.24427 23.6482 9.16615 23.7356 9.08391C23.7598 9.07455 23.7767 9.05894 23.7861 9.03705C23.8211 9.01828 23.8524 8.99425 23.8798 8.96495Z" fill="black"/>
<path fill-rule="evenodd" clip-rule="evenodd" d="M27.1316 8.96495C27.9175 8.96495 28.7034 8.96495 29.4893 8.96495C29.3822 9.61003 29.2705 10.2542 29.154 10.8973C29.1359 10.9143 29.1155 10.9263 29.0927 10.9333C29.0943 10.9418 29.0919 10.949 29.0855 10.9549C29.0657 10.9622 29.0513 10.9754 29.0423 10.9946C29.035 10.997 29.0278 10.9994 29.0206 11.0018C28.9799 11.0473 28.9342 11.0882 28.8836 11.1244C28.8768 11.1278 28.8696 11.1291 28.862 11.128C28.8636 11.1365 28.8612 11.1437 28.8548 11.1496C28.7869 11.2093 28.7172 11.267 28.6457 11.3226C28.6393 11.3286 28.6369 11.3358 28.6385 11.3443C28.5941 11.3773 28.5484 11.4085 28.5015 11.438C28.5031 11.4465 28.5007 11.4537 28.4943 11.4596C28.4621 11.4786 28.4333 11.5014 28.4078 11.5281C27.6219 11.5317 26.836 11.533 26.0501 11.5317C26.1589 10.8884 26.2707 10.2467 26.3853 9.60664C26.5406 9.46836 26.698 9.33259 26.8576 9.19927C26.8837 9.18278 26.9078 9.16356 26.9297 9.14159C26.9366 9.13811 26.9438 9.13691 26.9513 9.13799C26.9497 9.12952 26.9521 9.12231 26.9585 9.11636C27.0167 9.06579 27.0743 9.01532 27.1316 8.96495ZM27.4993 9.40476C27.8478 9.40476 28.1963 9.40476 28.5448 9.40476C28.4965 9.70852 28.4448 10.0113 28.3897 10.3132C28.3543 10.469 28.3266 10.6265 28.3068 10.7855C28.2977 10.8208 28.2881 10.8556 28.278 10.89C28.1977 10.9547 28.1184 11.0208 28.0401 11.0883C27.694 11.0919 27.3479 11.0931 27.0018 11.0919C27.0064 11.0389 27.0124 10.9861 27.0198 10.9333C27.0969 10.5002 27.1738 10.0676 27.2506 9.63548C27.2529 9.62827 27.2554 9.62106 27.2578 9.61385C27.3416 9.54803 27.4221 9.47831 27.4993 9.40476Z" fill="black"/>
<path fill-rule="evenodd" clip-rule="evenodd" d="M30.3905 8.96495C31.1757 8.96255 31.9605 8.96495 32.7446 8.97216C32.6433 9.58682 32.5376 10.1997 32.4274 10.8107C32.4179 10.8416 32.4094 10.8729 32.4022 10.9045C32.3775 10.9147 32.3606 10.9315 32.3517 10.9549C32.3303 10.9559 32.3159 10.9667 32.3084 10.9874C32.1083 11.1489 31.9113 11.3147 31.7172 11.4849C31.7104 11.4883 31.7031 11.4896 31.6956 11.4885C31.6925 11.5059 31.683 11.519 31.6667 11.5281C30.8808 11.5317 30.0949 11.533 29.309 11.5317C29.4179 10.8873 29.5297 10.2432 29.6443 9.59943C29.8944 9.38897 30.1432 9.17746 30.3905 8.96495ZM30.7583 9.40476C31.1043 9.40476 31.4504 9.40476 31.7965 9.40476C31.7917 9.45768 31.7857 9.51061 31.7785 9.56338C31.7615 9.64313 31.7447 9.72244 31.728 9.80132C31.6651 10.1647 31.6039 10.5276 31.5442 10.89C31.5366 10.889 31.5294 10.8902 31.5225 10.8936C31.449 10.9588 31.3744 11.0225 31.299 11.0847C30.9506 11.0919 30.6021 11.0943 30.2536 11.0919C30.3339 10.606 30.418 10.1205 30.5059 9.63548C30.5112 9.61926 30.5209 9.60607 30.5347 9.59583C30.6117 9.53404 30.6862 9.47037 30.7583 9.40476Z" fill="black"/>
<path fill-rule="evenodd" clip-rule="evenodd" d="M33.6495 8.96495C34.433 8.96495 35.2165 8.96495 36 8.96495C35.9827 9.12793 35.955 9.28897 35.9171 9.44802C35.9016 9.57932 35.8812 9.7091 35.8558 9.83737C35.565 9.83737 35.2742 9.83737 34.9834 9.83737C35.008 9.69324 35.032 9.54904 35.0555 9.40476C34.7094 9.40354 34.3633 9.40476 34.0172 9.40837C33.9532 9.45783 33.8907 9.51075 33.8298 9.56699C33.8229 9.57045 33.8157 9.57168 33.8081 9.57059C33.8097 9.5791 33.8073 9.58631 33.8009 9.59222C33.7864 9.60311 33.7732 9.61515 33.7613 9.62828C33.7303 9.83059 33.6978 10.0325 33.6639 10.2339C34.3681 10.2327 35.0723 10.2339 35.7765 10.2375C35.7805 10.2427 35.7829 10.2488 35.7837 10.2556C35.7567 10.3974 35.7302 10.5392 35.7044 10.6809C34.9978 10.6809 34.2912 10.6809 33.5846 10.6809C33.5788 10.6975 33.5728 10.7143 33.5666 10.7314C33.5261 10.9996 33.4817 11.2664 33.4332 11.5317C33.1424 11.5317 32.8516 11.5317 32.5608 11.5317C32.674 10.8882 32.7882 10.2441 32.9033 9.59943C33.1496 9.38342 33.3983 9.17195 33.6495 8.96495Z" fill="black"/>
<path fill-rule="evenodd" clip-rule="evenodd" d="M24.7955 12.3104C24.9303 12.2874 25.0529 12.315 25.1632 12.3933C25.2479 12.4631 25.2839 12.5532 25.2714 12.6637C25.2327 12.6661 25.1942 12.6637 25.156 12.6565C25.1441 12.6244 25.1357 12.5907 25.1308 12.5556C25.1158 12.5285 25.0978 12.5032 25.0767 12.4799C24.987 12.4279 24.8909 12.4135 24.7883 12.4366C24.7189 12.4556 24.6564 12.4869 24.6008 12.5303C24.4882 12.6674 24.4257 12.8249 24.4134 13.0026C24.4338 13.2448 24.5636 13.3397 24.8027 13.2874C24.9235 13.2364 25.0148 13.1523 25.0767 13.035C25.0894 13.0037 25.0966 12.9712 25.0983 12.9377C24.9878 12.9377 24.8772 12.9377 24.7667 12.9377C24.7691 12.9013 24.774 12.8652 24.7811 12.8296C24.9325 12.8296 25.0839 12.8296 25.2353 12.8296C25.2182 12.9646 25.1906 13.0968 25.1524 13.2261C25.1464 13.272 25.1391 13.3176 25.1308 13.3631C25.1272 13.3667 25.1236 13.3703 25.12 13.3739C25.0864 13.3775 25.0528 13.3787 25.019 13.3775C25.0219 13.3379 25.028 13.2995 25.0371 13.2622C24.9689 13.3323 24.886 13.3767 24.7883 13.3955C24.6574 13.4259 24.5349 13.4067 24.4206 13.3379C24.3931 13.3188 24.369 13.296 24.3485 13.2694C24.3261 13.2281 24.3081 13.1848 24.2944 13.1396C24.2703 12.9287 24.3135 12.734 24.4242 12.5556C24.491 12.4698 24.5727 12.4026 24.6693 12.3537C24.7127 12.3419 24.7548 12.3275 24.7955 12.3104Z" fill="black"/>
<path fill-rule="evenodd" clip-rule="evenodd" d="M33.9884 12.3104C34.1141 12.2945 34.2211 12.3305 34.3092 12.4186C34.3213 12.4498 34.3332 12.4811 34.3453 12.5123C34.3501 12.5532 34.3501 12.594 34.3453 12.6349C34.3063 12.6419 34.2666 12.6443 34.2263 12.6421C34.2384 12.5003 34.1735 12.4259 34.0316 12.4186C33.9037 12.4241 33.8136 12.4842 33.7613 12.5988C33.7558 12.6257 33.757 12.6521 33.7649 12.6781C33.7856 12.7024 33.8072 12.7253 33.8298 12.7466C33.8461 12.75 33.8605 12.7572 33.873 12.7683C33.9541 12.7797 34.0321 12.8001 34.1073 12.8296C34.1346 12.845 34.1623 12.8594 34.1903 12.8728C34.2944 12.9582 34.3184 13.0616 34.2624 13.1829C34.2367 13.2249 34.2103 13.2658 34.1831 13.3054C34.141 13.3301 34.0978 13.3529 34.0533 13.3739C33.9198 13.4217 33.7864 13.4229 33.6531 13.3775C33.5783 13.3435 33.5326 13.2858 33.5161 13.2045C33.512 13.1539 33.5132 13.1034 33.5197 13.0531C33.5606 13.0531 33.6014 13.0531 33.6423 13.0531C33.6218 13.1815 33.6747 13.262 33.8009 13.2946C33.9488 13.3242 34.063 13.2773 34.1434 13.154C34.1484 13.127 34.1568 13.1018 34.1686 13.0783C34.1588 13.0474 34.1469 13.0173 34.1326 12.9882C34.1201 12.9802 34.1081 12.9719 34.0965 12.9629C33.9857 12.9284 33.8752 12.8924 33.7649 12.8548C33.7451 12.8402 33.7235 12.8281 33.7 12.8187C33.6405 12.7658 33.62 12.6998 33.6387 12.6205C33.6614 12.4968 33.7299 12.4091 33.8442 12.3573C33.8932 12.3424 33.9413 12.3268 33.9884 12.3104Z" fill="black"/>
<path fill-rule="evenodd" clip-rule="evenodd" d="M27.1388 12.3321C27.1869 12.3321 27.2349 12.3321 27.283 12.3321C27.2861 12.3705 27.2897 12.409 27.2938 12.4474C27.316 12.5511 27.3376 12.6544 27.3587 12.7575C27.3913 12.9647 27.4261 13.1714 27.4632 13.3775C27.42 13.3775 27.3767 13.3775 27.3335 13.3775C27.3193 13.2712 27.3025 13.1655 27.283 13.0603C27.1388 13.0591 26.9946 13.0603 26.8504 13.0639C26.7891 13.1671 26.7266 13.2693 26.6629 13.3703C26.6197 13.3799 26.5764 13.3799 26.5331 13.3703C26.7387 13.0265 26.9406 12.6804 27.1388 12.3321ZM27.1821 12.4691C27.2061 12.628 27.235 12.7866 27.2686 12.9449C27.1484 12.9461 27.0282 12.9449 26.9081 12.9413C27.0041 12.7863 27.0955 12.6288 27.1821 12.4691Z" fill="black"/>
<path fill-rule="evenodd" clip-rule="evenodd" d="M29.0855 12.3393C29.1432 12.3393 29.2009 12.3393 29.2586 12.3393C29.3044 12.6298 29.3465 12.9206 29.3847 13.2117C29.4976 13.0175 29.6106 12.8229 29.7236 12.6277C29.7302 12.6237 29.7363 12.6189 29.7416 12.6133C29.7592 12.5709 29.7785 12.53 29.7993 12.4907C29.8065 12.4907 29.8137 12.4907 29.8209 12.4907C29.8198 12.4808 29.821 12.4711 29.8246 12.4618C29.85 12.4255 29.8728 12.387 29.893 12.3465C29.9529 12.3371 30.013 12.3371 30.0733 12.3465C30.0551 12.4098 30.0419 12.4747 30.0336 12.5412C30.0127 12.6102 29.9947 12.6799 29.9796 12.7502C29.9416 12.9601 29.8984 13.1692 29.8498 13.3775C29.8065 13.3775 29.7633 13.3775 29.72 13.3775C29.7372 13.2941 29.7529 13.21 29.7669 13.1252C29.8127 12.9389 29.8571 12.7527 29.9003 12.5664C29.899 12.5604 29.8979 12.5543 29.8967 12.5484C29.7331 12.8226 29.5733 13.0991 29.4172 13.3775C29.3788 13.3775 29.3403 13.3775 29.3018 13.3775C29.2846 13.2768 29.2666 13.1759 29.2477 13.0747C29.2322 12.8943 29.2057 12.7164 29.1684 12.5412C29.1095 12.8142 29.0518 13.0882 28.9954 13.3631C28.9918 13.3667 28.9882 13.3703 28.9846 13.3739C28.9438 13.3775 28.903 13.3787 28.862 13.3775C28.9304 13.0295 29.0049 12.6834 29.0855 12.3393Z" fill="black"/>
<path fill-rule="evenodd" clip-rule="evenodd" d="M31.5586 12.3393C31.7941 12.3393 32.0296 12.3393 32.2652 12.3393C32.2544 12.3713 32.2448 12.4037 32.2363 12.4366C32.0489 12.4402 31.8614 12.4414 31.6739 12.4402C31.6527 12.5337 31.6299 12.6275 31.6054 12.7214C31.6018 12.7405 31.6007 12.7597 31.6018 12.7791C31.7725 12.7779 31.9432 12.7791 32.1138 12.7827C32.1171 12.7856 32.1195 12.7893 32.121 12.7935C32.1121 12.8252 32.1025 12.8565 32.0921 12.8872C31.9191 12.886 31.746 12.8872 31.573 12.8908C31.5385 13.0158 31.5097 13.142 31.4865 13.2694C31.6835 13.2694 31.8807 13.2694 32.0777 13.2694C32.0726 13.3046 32.063 13.3383 32.0489 13.3703C31.8134 13.3775 31.5778 13.3799 31.3423 13.3775C31.4166 13.0329 31.4887 12.6868 31.5586 12.3393Z" fill="black"/>
</svg>
