<svg width="36" height="24" viewBox="0 0 36 24" fill="none" xmlns="http://www.w3.org/2000/svg">
<path d="M29.6878 3.5C26.7138 3.5 24.3035 5.68849 24.3035 8.38922C24.3035 11.09 26.7138 13.277 29.6878 13.277C31.6116 13.277 33.2985 12.3606 34.2508 10.9826C33.9923 11.9964 33.4033 12.8951 32.577 13.5367C31.7506 14.1783 30.734 14.5262 29.6878 14.5254C26.9799 14.5197 25.2343 13.5818 23.4636 12.548L23.1273 12.3512C23.5517 11.3834 23.7264 10.3246 23.6354 9.27175C23.5444 8.21891 23.1907 7.20574 22.6065 6.3251C22.0224 5.44445 21.2265 4.7245 20.292 4.23122C19.3574 3.73794 18.314 3.48711 17.2573 3.50171C16.2006 3.51631 15.1645 3.79588 14.2439 4.3148C13.3233 4.83372 12.5477 5.57538 11.9881 6.47183C11.4285 7.36828 11.1029 8.39084 11.041 9.44579C10.9792 10.5008 11.1831 11.5544 11.634 12.5101L11.5424 12.5709C9.95063 13.6161 8.52693 14.5297 6.31984 14.5261C5.49924 14.5278 4.69242 14.3152 3.97926 13.9092C3.2661 13.5033 2.67133 12.9181 2.25382 12.2117C1.8363 11.5052 1.61053 10.702 1.59885 9.88143C1.58717 9.06091 1.78998 8.25157 2.18721 7.53351C2.58444 6.81546 3.16232 6.2136 3.86363 5.78751C4.56495 5.36143 5.36538 5.12589 6.1857 5.10421C7.00602 5.08253 7.81777 5.27547 8.54061 5.66392C9.26345 6.05237 9.87231 6.62287 10.3069 7.31894C10.5083 6.75149 10.7781 6.2107 11.1103 5.70852C10.4214 4.90407 9.54118 4.28583 8.55069 3.91072C7.5602 3.5356 6.49127 3.41566 5.44228 3.56194C4.39329 3.70822 3.39795 4.11601 2.54787 4.74778C1.69779 5.37955 1.02028 6.21501 0.577702 7.17725C0.135126 8.13948 -0.0582956 9.19759 0.0152382 10.2542C0.088772 11.3108 0.426899 12.3319 0.998498 13.2235C1.5701 14.1152 2.3568 14.8487 3.2862 15.3567C4.2156 15.8646 5.25784 16.1306 6.31698 16.1301C9.00268 16.1301 10.8485 14.9504 12.4224 13.9123L12.494 13.8629C13.0958 14.584 13.8509 15.1616 14.7043 15.5538C15.5577 15.9459 16.4879 16.1426 17.427 16.1296C18.3661 16.1166 19.2905 15.8941 20.1327 15.4785C20.9749 15.0628 21.7137 14.4645 22.2953 13.727L22.648 13.9345C24.4366 14.9847 26.5914 16.1323 29.6849 16.1323C31.3598 16.1323 32.9661 15.4669 34.1504 14.2826C35.3347 13.0983 36 11.4921 36 9.81721C36 8.14235 35.3347 6.53609 34.1504 5.35179C32.9661 4.16748 31.3598 3.50215 29.6849 3.50215L29.6878 3.5ZM29.6878 11.6737C27.6002 11.6737 25.9068 10.2028 25.9068 8.38922C25.9068 6.57562 27.6002 5.10112 29.6878 5.10112C31.7754 5.10112 33.4681 6.5749 33.4681 8.39208C33.4681 10.2093 31.7754 11.6737 29.6878 11.6737ZM17.3417 14.5261C16.3312 14.5276 15.3468 14.2049 14.5334 13.6053C13.7199 13.0058 13.1203 12.1611 12.8226 11.1954C12.5249 10.2297 12.5448 9.194 12.8795 8.24051C13.2142 7.28701 13.8459 6.46604 14.6819 5.89828C15.5178 5.33051 16.5138 5.04591 17.5236 5.0863C18.5333 5.1267 19.5034 5.48996 20.2913 6.12269C21.0792 6.75542 21.6434 7.62423 21.9008 8.60141C22.1583 9.5786 22.0954 10.6126 21.7215 11.5514C20.4695 10.8882 19.0938 10.3523 17.3789 10.3509C16.2206 10.3513 15.0768 10.6086 14.03 11.1043C14.2305 11.6179 14.5477 12.0778 14.9565 12.4478C15.7223 12.1213 16.5464 11.9536 17.3789 11.9549C18.6981 11.9549 19.7791 12.3491 20.8802 12.9229C20.4384 13.4264 19.8942 13.8299 19.284 14.1064C18.6738 14.3829 18.0116 14.526 17.3417 14.5261Z" fill="url(#paint0_linear_1_16896)"/>
<path d="M19.4472 20.9392H19.933V18.021H19.4487L19.4472 20.9392ZM12.6099 18.3966C12.4497 18.2596 12.2679 18.15 12.0719 18.0725C11.8706 17.9972 11.6572 17.9596 11.4423 17.9616C11.3017 17.9609 11.1616 17.9779 11.0252 18.0124C10.8954 18.0439 10.7701 18.092 10.6525 18.1555C10.5377 18.2176 10.4314 18.2943 10.3363 18.3837C10.2419 18.4716 10.1601 18.572 10.093 18.6821C10.0253 18.794 9.97238 18.9142 9.93565 19.0398C9.89845 19.1708 9.87967 19.3064 9.87984 19.4426C9.8783 19.5972 9.89853 19.7514 9.93994 19.9004C9.97726 20.0336 10.0347 20.1602 10.1102 20.276C10.1823 20.3862 10.2711 20.4845 10.3735 20.5672C10.4778 20.6508 10.5928 20.7201 10.7155 20.7732C10.8443 20.8295 10.9792 20.8708 11.1175 20.8963C11.2635 20.9239 11.4118 20.9375 11.5604 20.9371H12.6085V19.3252H12.1263V20.6895H11.7364C11.5455 20.6925 11.3555 20.6625 11.1748 20.6008C11.0184 20.548 10.875 20.4627 10.7541 20.3504C10.6387 20.2403 10.5484 20.1066 10.4894 19.9584C10.4257 19.7947 10.3944 19.6203 10.3971 19.4447C10.3954 19.2783 10.422 19.1128 10.4758 18.9554C10.5247 18.8128 10.6016 18.6815 10.7019 18.569C10.801 18.4586 10.9231 18.3712 11.0596 18.3129C11.2094 18.249 11.371 18.2171 11.5339 18.2192C11.6187 18.2192 11.7034 18.2278 11.7865 18.2449C11.8697 18.2617 11.9513 18.2857 12.0304 18.3165C12.1074 18.3471 12.1816 18.3842 12.2522 18.4274C12.3275 18.4751 12.3992 18.5282 12.4668 18.5862L12.6099 18.3966ZM26.1229 18.3966C25.9623 18.2597 25.7803 18.1502 25.5842 18.0725C25.3829 17.9972 25.1695 17.9596 24.9546 17.9616C24.814 17.9609 24.6738 17.9779 24.5375 18.0124C24.4076 18.0439 24.2823 18.092 24.1648 18.1555C24.05 18.2176 23.9437 18.2943 23.8485 18.3837C23.7544 18.4718 23.6726 18.5721 23.6053 18.6821C23.5375 18.7938 23.4848 18.9141 23.4486 19.0398C23.4111 19.1707 23.3923 19.3063 23.3928 19.4426C23.391 19.5972 23.411 19.7513 23.4522 19.9004C23.4895 20.0336 23.5469 20.1602 23.6225 20.276C23.6947 20.386 23.7835 20.4843 23.8857 20.5672C23.9902 20.6506 24.1052 20.7199 24.2277 20.7732C24.3566 20.8295 24.4915 20.8708 24.6298 20.8963C24.7758 20.9238 24.9241 20.9375 25.0726 20.9371H26.1207V19.3252H25.6385V20.6895H25.2486C25.0579 20.6925 24.8682 20.6625 24.6877 20.6008C24.5312 20.548 24.3876 20.4627 24.2663 20.3504C24.1509 20.2405 24.0608 20.1067 24.0024 19.9584C23.9385 19.7948 23.9069 19.6203 23.9093 19.4447C23.9077 19.2783 23.9343 19.1128 23.988 18.9554C24.037 18.8128 24.1138 18.6815 24.2141 18.569C24.3134 18.4588 24.4355 18.3714 24.5718 18.3129C24.7217 18.249 24.8832 18.2171 25.0462 18.2192C25.131 18.2192 25.2156 18.2278 25.2987 18.2449C25.382 18.2616 25.4636 18.2856 25.5427 18.3165C25.6197 18.3469 25.6939 18.384 25.7644 18.4274C25.8397 18.4751 25.9114 18.5282 25.9791 18.5862L26.1229 18.3966ZM14.2096 18.021L14.0422 18.4188L12.9819 20.9392H13.2795L13.4885 20.4384H14.9L15.1146 20.9392H15.6254L14.392 18.021H14.2096ZM13.5943 20.1909L14.1903 18.7658L14.7955 20.188L13.5943 20.1909ZM22.6166 20.2624L21.0183 18.0189H20.7128V20.9371H20.9704V18.7851L22.5085 20.9392H22.8777V18.021H22.6187L22.6166 20.2624ZM17.3475 19.1514L16.3859 18.0189H16.0025V20.9371H16.26V18.544L17.2316 19.6758L18.2095 18.5468V20.9392H18.6925V18.021H18.3305L17.3475 19.1514Z" fill="black"/>
<defs>
<linearGradient id="paint0_linear_1_16896" x1="18.0013" y1="3.5" x2="18.0013" y2="16.1301" gradientUnits="userSpaceOnUse">
<stop stop-color="#FDD000"/>
<stop offset="0.26" stop-color="#F7B000"/>
<stop offset="0.56" stop-color="#F29100"/>
<stop offset="0.82" stop-color="#EF7F00"/>
<stop offset="1" stop-color="#EE7800"/>
</linearGradient>
</defs>
</svg>
