<svg width="36" height="24" viewBox="0 0 36 24" fill="none" xmlns="http://www.w3.org/2000/svg">
<path fill-rule="evenodd" clip-rule="evenodd" d="M23.9309 16.3416C24.3799 16.3416 24.8288 16.3416 25.2777 16.3416C25.2777 18.5401 25.2777 20.7387 25.2777 22.9372C24.8288 22.9372 24.3799 22.9372 23.9309 22.9372C23.9368 22.7527 23.9309 22.5685 23.9137 22.3847C23.2917 23.0336 22.561 23.189 21.7209 22.8509C20.8092 22.3404 20.3485 21.5577 20.3396 20.5027C20.3316 19.6092 20.6883 18.907 21.4101 18.3962C22.1981 17.9429 22.9692 17.966 23.7237 18.4653C23.7869 18.5286 23.8505 18.5919 23.9137 18.6552C23.9309 17.8841 23.9368 17.1129 23.9309 16.3416ZM22.6187 19.2423C23.366 19.2123 23.7976 19.5691 23.9137 20.3128C23.9924 20.8599 23.8253 21.3146 23.413 21.6768C22.8117 21.9824 22.311 21.8616 21.9108 21.3142C21.5682 20.6041 21.6774 19.9768 22.2388 19.4322C22.3594 19.3489 22.4861 19.2856 22.6187 19.2423Z" fill="black"/>
<path fill-rule="evenodd" clip-rule="evenodd" d="M0 16.7214C0.471954 16.7214 0.943873 16.7214 1.41583 16.7214C1.41583 18.379 1.41583 20.0365 1.41583 21.6941C2.30217 21.6941 3.18848 21.6941 4.07482 21.6941C4.07482 22.1085 4.07482 22.5228 4.07482 22.9372C2.71656 22.9372 1.35826 22.9372 0 22.9372C0 20.8653 0 18.7934 0 16.7214Z" fill="black"/>
<path fill-rule="evenodd" clip-rule="evenodd" d="M6.76834 18.0682C8.66583 18.1475 9.5176 19.1374 9.32374 21.038C8.1611 21.0322 6.9985 21.038 5.83597 21.0552C6.01913 21.5485 6.37595 21.8247 6.90647 21.884C7.37908 21.918 7.78197 21.7684 8.11511 21.4351C8.13814 21.412 8.16114 21.412 8.18417 21.4351C8.43229 21.7004 8.67401 21.971 8.90935 22.2466C8.50871 22.6484 8.02525 22.8959 7.45899 22.989C6.52399 23.1301 5.72398 22.8711 5.05899 22.2121C4.62889 21.6662 4.44473 21.0446 4.50647 20.3473C4.6667 18.9957 5.42068 18.236 6.76834 18.0682ZM6.80288 19.2077C7.43489 19.1661 7.80321 19.4539 7.90791 20.071C7.2287 20.0768 6.54955 20.071 5.8705 20.0538C6.01046 19.5813 6.32125 19.2993 6.80288 19.2077Z" fill="black"/>
<path fill-rule="evenodd" clip-rule="evenodd" d="M12.1209 18.0682C12.7119 18.0346 13.2529 18.1785 13.7439 18.4998C14.0629 18.7637 14.2413 19.1032 14.2791 19.5185C14.2964 20.658 14.3022 21.7976 14.2964 22.9372C13.8705 22.9372 13.4446 22.9372 13.0187 22.9372C13.0244 22.7757 13.0187 22.6145 13.0014 22.4538C12.5599 22.9424 12.0132 23.1208 11.3612 22.989C10.3427 22.7531 9.88803 22.1143 9.99712 21.0725C10.0935 20.6077 10.3641 20.2911 10.8086 20.1228C11.0419 20.0301 11.2837 19.9726 11.5338 19.9502C12.0056 19.9329 12.4775 19.9272 12.9496 19.9329C12.9565 19.5023 12.7493 19.2548 12.3281 19.1905C11.7568 19.168 11.2388 19.3234 10.7741 19.6567C10.5602 19.3679 10.353 19.0744 10.1525 18.7761C10.7427 18.3511 11.3988 18.1151 12.1209 18.0682ZM11.9482 20.8998C12.282 20.8998 12.6158 20.8998 12.9496 20.8998C12.9627 21.5256 12.6576 21.8594 12.0345 21.9013C11.8412 21.9004 11.6628 21.8486 11.4993 21.7459C11.2775 21.512 11.2775 21.2818 11.4993 21.0552C11.6448 20.978 11.7945 20.9262 11.9482 20.8998Z" fill="black"/>
<path fill-rule="evenodd" clip-rule="evenodd" d="M17.7151 18.0682C18.7545 18.089 19.3816 18.6069 19.5971 19.6221C19.6144 20.7271 19.6203 21.8321 19.6144 22.9372C19.1655 22.9372 18.7165 22.9372 18.2676 22.9372C18.2835 21.8883 18.2662 20.8408 18.2158 19.7948C18.057 19.2577 17.706 19.0678 17.1626 19.225C16.8393 19.341 16.6379 19.5655 16.5583 19.8984C16.5076 20.9096 16.4903 21.9225 16.5065 22.9372C16.0576 22.9372 15.6086 22.9372 15.1597 22.9372C15.1597 21.3487 15.1597 19.7603 15.1597 18.1718C15.6086 18.1718 16.0576 18.1718 16.5065 18.1718C16.5007 18.3333 16.5065 18.4945 16.5237 18.6552C16.8529 18.3151 17.2501 18.1194 17.7151 18.0682Z" fill="black"/>
<path fill-rule="evenodd" clip-rule="evenodd" d="M28.213 18.0682C29.2206 18.0166 29.9976 18.4079 30.5439 19.2423C30.6154 19.4102 30.6727 19.5829 30.7165 19.7603C30.7639 20.1845 30.7811 20.6104 30.7683 21.038C29.6174 21.038 28.4661 21.038 27.3151 21.038C27.4671 21.5521 27.8124 21.8341 28.3511 21.884C28.8463 21.9165 29.2724 21.7611 29.6288 21.4178C29.8936 21.6828 30.1471 21.9591 30.3885 22.2466C29.5345 23.0148 28.5562 23.2163 27.4532 22.8509C26.3113 22.3114 25.8219 21.4078 25.9856 20.1401C26.1269 19.2046 26.639 18.5657 27.5223 18.2236C27.7537 18.1555 27.984 18.1037 28.213 18.0682ZM28.2475 19.2077C28.8798 19.172 29.2596 19.4598 29.3871 20.071C28.7078 20.071 28.0289 20.071 27.3496 20.071C27.3887 19.8263 27.5037 19.6249 27.695 19.4667C27.869 19.3508 28.0534 19.2645 28.2475 19.2077Z" fill="black"/>
<path fill-rule="evenodd" clip-rule="evenodd" d="M34.2216 18.0682C34.2561 18.0682 34.2906 18.0682 34.3252 18.0682C34.3473 18.4937 34.3587 18.9196 34.3597 19.3459C33.4498 19.3059 32.9722 19.7433 32.9266 20.6581C32.9094 21.4177 32.9035 22.1774 32.9094 22.9372C32.4604 22.9372 32.0115 22.9372 31.5626 22.9372C31.5626 21.3487 31.5626 19.7603 31.5626 18.1718C32.0115 18.1718 32.4604 18.1718 32.9094 18.1718C32.9035 18.3563 32.9094 18.5405 32.9266 18.7243C33.2937 18.3711 33.7254 18.1524 34.2216 18.0682Z" fill="black"/>
<path d="M34.895 21.9898V21.7091H35.0261C35.0849 21.7091 35.1513 21.7078 35.2107 21.7272C35.2335 21.7385 35.2524 21.7561 35.2653 21.778C35.2782 21.7998 35.2844 21.825 35.2832 21.8503C35.2833 21.871 35.2791 21.8914 35.2707 21.9103C35.2623 21.9291 35.25 21.946 35.2346 21.9596C35.2191 21.9734 35.2009 21.9836 35.1812 21.9898C35.1626 21.9898 35.1812 21.9898 35.154 21.9898H34.895ZM35.457 21.8539C35.4585 21.8103 35.4498 21.767 35.4316 21.7274C35.4134 21.6878 35.3861 21.653 35.352 21.6258C35.2681 21.5691 35.1812 21.5732 35.0676 21.5732H34.7223V22.5056H34.895V22.143L35.1021 22.1435C35.1021 22.1435 35.1591 22.214 35.1885 22.2639C35.2399 22.3512 35.2832 22.5056 35.2832 22.5056H35.4993C35.4993 22.5056 35.4356 22.3563 35.3784 22.2639C35.336 22.1953 35.2653 22.0912 35.2653 22.0912C35.32 22.0758 35.3795 22.0447 35.413 21.9987C35.4464 21.9527 35.4475 21.9596 35.457 21.9013V21.8539ZM35.1021 22.7699C34.9589 22.7699 34.819 22.7274 34.6999 22.6478C34.5808 22.5683 34.488 22.4552 34.4332 22.3229C34.3784 22.1905 34.3641 22.045 34.392 21.9045C34.42 21.764 34.4889 21.635 34.5901 21.5338C34.6915 21.4325 34.8204 21.3635 34.9609 21.3356C35.1013 21.3077 35.247 21.322 35.3792 21.3768C35.5115 21.4316 35.6246 21.5245 35.7042 21.6435C35.7837 21.7626 35.8262 21.9026 35.8262 22.0458C35.8262 22.2378 35.7499 22.422 35.6141 22.5578C35.4784 22.6936 35.2942 22.7699 35.1021 22.7699ZM35.1021 21.1588C34.9246 21.1588 34.751 21.2114 34.6034 21.3101C34.4557 21.4088 34.3406 21.549 34.2727 21.7131C34.2047 21.8771 34.1869 22.0577 34.2216 22.2318C34.2562 22.406 34.3417 22.566 34.4673 22.6915C34.5929 22.8171 34.7529 22.9026 34.927 22.9373C35.1012 22.9719 35.2817 22.9541 35.4457 22.8862C35.6098 22.8182 35.75 22.7032 35.8487 22.5555C35.9473 22.4079 36 22.2343 36 22.0567C36 21.8185 35.9054 21.5901 35.737 21.4218C35.5686 21.2534 35.3403 21.1588 35.1021 21.1588Z" fill="black"/>
<path fill-rule="evenodd" clip-rule="evenodd" d="M18.2525 1.03453C19.4606 1.61556 20.6577 2.21412 21.8439 2.83022C21.4512 3.88137 21.0714 4.94035 20.7043 6.00719C20.6813 6.03023 20.6583 6.05323 20.6353 6.07626C19.8542 6.51323 19.0312 6.99092 18.2007 7.40576C18.1663 6.54839 18.172 5.63328 18.1835 4.76403C19.0112 5.18367 19.8399 5.59229 20.6698 5.98993C19.8539 4.37533 19.0423 2.75807 18.2353 1.13813C18.2097 1.09498 18.2155 1.06045 18.2525 1.03453Z" fill="#4E001B"/>
<path fill-rule="evenodd" clip-rule="evenodd" d="M18.1835 1C18.1835 1.01151 18.1835 1.02302 18.1835 1.03453C18.1489 1.04604 18.1259 1.06906 18.1144 1.1036C17.3184 2.73012 16.5126 4.35315 15.6971 5.97266C16.5073 5.58493 17.3246 5.18204 18.1489 4.76403C18.1604 4.76403 18.172 4.76403 18.1835 4.76403C18.172 5.63328 18.2007 6.40432 18.2007 7.26763C18.2007 7.30216 18.2007 7.37122 18.2007 7.40576C17.396 6.99769 16.5673 6.55453 15.7835 6.11079C15.6799 6.04173 15.6799 6.04173 15.6281 6.00719C15.6281 5.97266 15.6281 6.04173 15.6281 6.00719C15.2596 4.93628 14.8912 3.86578 14.523 2.79568C15.7349 2.17822 16.955 1.57966 18.1835 1Z" fill="#9C0036"/>
<path fill-rule="evenodd" clip-rule="evenodd" d="M18.1835 1C18.218 1.01727 18.218 1.01727 18.2525 1.03453C18.2155 1.06045 18.2097 1.09498 18.2353 1.13813C19.0423 2.75807 19.8884 4.3926 20.7043 6.00719C19.8745 5.60955 19.0112 5.18367 18.1835 4.76403C18.1835 3.52086 18.1835 2.2777 18.1835 1.03453C18.1835 1.02302 18.1835 1.01151 18.1835 1Z" fill="#77002C"/>
<path fill-rule="evenodd" clip-rule="evenodd" d="M18.1144 1.1036C18.1489 2.31785 18.1604 3.53799 18.1489 4.76403C17.3246 5.18204 16.4382 5.61946 15.6281 6.00719C16.4436 4.38768 17.3184 2.73012 18.1144 1.1036Z" fill="#EF0059"/>
<path fill-rule="evenodd" clip-rule="evenodd" d="M18.1835 1.03453C18.1835 2.2777 18.1835 3.52086 18.1835 4.76403C18.172 4.76403 18.1604 4.76403 18.1489 4.76403C18.1604 3.53799 18.1489 2.31785 18.1144 1.1036C18.1259 1.06906 18.1489 1.04604 18.1835 1.03453Z" fill="#C8034B"/>
<path fill-rule="evenodd" clip-rule="evenodd" d="M14.523 2.79568C14.8912 3.86578 15.2596 4.93628 15.6281 6.00719C14.43 5.37366 13.2329 4.74058 12.0367 4.10791C12.0367 4.08489 12.0252 4.07338 12.0022 4.07338C12.8359 3.63924 13.6762 3.21334 14.523 2.79568Z" fill="#8A1438"/>
<path fill-rule="evenodd" clip-rule="evenodd" d="M21.8439 2.83022C22.6655 3.22378 23.4828 3.62666 24.2957 4.03885C24.2957 4.03885 24.2957 4.03885 24.3475 4.07338C23.16 4.70159 21.8881 5.38074 20.7043 6.00719C21.0714 4.94035 21.4512 3.88137 21.8439 2.83022Z" fill="#450A1C"/>
<path fill-rule="evenodd" clip-rule="evenodd" d="M24.313 4.09065C24.313 4.09065 24.313 4.09065 24.3475 4.07338C24.3647 5.36254 24.3705 6.65174 24.3647 7.94101C24.3532 7.94101 24.3417 7.94101 24.3302 7.94101C24.336 6.67477 24.3302 5.40858 24.313 4.14245C23.4489 5.45644 22.6029 6.78017 21.7748 8.11367C21.7518 8.12517 21.7288 8.1367 21.7058 8.1482C21.3817 7.46557 21.0479 6.78645 20.7043 6.11079C20.6885 6.08323 20.6655 6.07174 20.6353 6.07626C20.6583 6.05323 20.6813 6.03023 20.7043 6.00719C21.8881 5.38074 23.0564 4.75339 24.2439 4.12518C24.2439 4.12518 24.2612 4.10791 24.313 4.09065Z" fill="#78002D"/>
<path fill-rule="evenodd" clip-rule="evenodd" d="M24.3453 7.95377C24.3453 7.96557 24.3453 7.9774 24.3453 7.9892C24.3335 7.9892 24.3216 7.9892 24.3098 7.9892C24.295 7.96709 24.2714 7.95529 24.239 7.95377C23.402 8.03463 22.5633 8.0937 21.723 8.13094C22.5728 6.76265 23.4609 5.42165 24.3475 4.07338C24.3652 5.37254 24.3512 6.6545 24.3453 7.95377Z" fill="#52061F"/>
<path fill-rule="evenodd" clip-rule="evenodd" d="M24.2957 7.97554C23.8247 8.43503 23.3527 8.89545 22.8799 9.35684C22.4733 8.97346 22.1049 8.55907 21.7748 8.11367C22.5937 8.07738 23.411 8.01981 24.2266 7.94101C24.2583 7.94249 24.2813 7.95399 24.2957 7.97554Z" fill="#45091C"/>
<path fill-rule="evenodd" clip-rule="evenodd" d="M12.0367 7.97554C12.0573 7.95347 12.0861 7.94197 12.123 7.94101C12.9351 8.01076 13.7466 8.08559 14.5576 8.16547C14.2295 8.53956 13.9014 8.91368 13.5734 9.28777C13.5344 9.34444 13.4826 9.37897 13.418 9.39137C12.9576 8.91941 12.4971 8.44749 12.0367 7.97554Z" fill="#8A1438"/>
<path fill-rule="evenodd" clip-rule="evenodd" d="M24.2957 7.97554C24.3072 7.97554 24.3187 7.97554 24.3302 7.97554C24.3302 8.97698 24.3475 9.99568 24.3475 10.9971C23.8386 10.4769 23.3379 9.91861 22.8799 9.35684C23.3527 8.89545 23.8247 8.43503 24.2957 7.97554Z" fill="#77002C"/>
<path fill-rule="evenodd" clip-rule="evenodd" d="M16.0372 8.14914C16.1921 8.17989 16.347 8.21065 16.5021 8.24144L16.6413 7.92374C16.102 7.92374 15.5975 7.93755 15.0583 7.95137C15.0931 7.96518 15.0757 7.95137 15.1105 7.96518C15.419 8.02642 15.7279 8.08774 16.0372 8.14914Z" fill="#BD0A49"/>
<path d="M16.4674 8.54532H17.3719C17.1483 8.32619 16.9048 8.119 16.6413 7.92374L16.5021 8.24144C16.4868 8.34238 16.4751 8.44369 16.4674 8.54532Z" fill="#D20550"/>
<path d="M15.0583 7.95137C15.5213 8.04328 16.0373 8.14917 16.5021 8.24144C16.4868 8.34238 16.6065 8.28288 16.5021 8.24144L16.4674 8.68345C16.0846 8.49007 15.441 8.13094 15.0583 7.95137Z" fill="#8A1538"/>
<path d="M17.3719 8.54532L16.9022 8.37957L16.5021 8.24144L16.4674 8.68345L17.3719 8.54532Z" fill="#B30C46"/>
<path fill-rule="evenodd" clip-rule="evenodd" d="M19.6683 7.90648C20.2036 7.90648 20.6871 7.90647 21.2568 7.90648C21.2568 7.90648 20.6303 8.06187 20.5144 8.0964C20.1615 8.20155 20.5144 8.0964 19.9273 8.26907C19.8237 8.3036 19.9273 8.26907 19.8237 8.3036C19.854 8.42446 19.8755 8.49353 19.9101 8.66619C19.5647 8.66619 19.2885 8.66619 18.9432 8.66619C19.2159 8.54453 19.5439 8.41217 19.8237 8.3036C19.7892 8.16547 19.7201 8.04461 19.6683 7.90648Z" fill="#5C0523"/>
<path fill-rule="evenodd" clip-rule="evenodd" d="M19.6683 7.90648C19.7201 8.04461 19.7892 8.16547 19.8237 8.3036C19.5439 8.41217 19.2159 8.54453 18.9432 8.66619C19.1859 8.41203 19.4276 8.1588 19.6683 7.90648Z" fill="#6C0228"/>
<path fill-rule="evenodd" clip-rule="evenodd" d="M21.2568 7.90648C20.8597 8.13094 20.3072 8.44173 19.9101 8.66619C19.8755 8.49353 19.854 8.42446 19.8237 8.3036C19.9273 8.26907 19.8237 8.3036 19.9273 8.26907C20.5144 8.0964 20.1615 8.20155 20.5144 8.0964C20.6303 8.06187 21.2568 7.90648 21.2568 7.90648Z" fill="#470A1C"/>
<path fill-rule="evenodd" clip-rule="evenodd" d="M21.7748 8.11367C22.1049 8.55907 22.4733 8.97346 22.8799 9.35684C23.3379 9.91861 23.8386 10.4769 24.3475 10.9971C24.3475 11.0317 24.3475 11.0489 24.3475 11.0489C24.3475 11.0489 21.7921 10.2547 20.6353 9.84029C20.9787 9.26688 21.3355 8.70283 21.7058 8.1482C21.7288 8.1367 21.7518 8.12517 21.7748 8.11367Z" fill="#4E001B"/>
<path fill-rule="evenodd" clip-rule="evenodd" d="M24.3302 7.94101C24.3417 7.94101 24.3532 7.94101 24.3647 7.94101C24.3705 8.97705 24.3647 10.013 24.3475 11.0489C23.3815 11.6612 22.4089 12.2598 21.4295 12.8446C21.3045 12.3118 21.1664 11.7823 21.0151 11.2561C21.021 11.2219 21.0095 11.1989 20.9806 11.1871C20.8682 10.7978 20.7588 10.4064 20.6525 10.0129C20.6353 9.94903 20.6525 10.0129 20.618 9.89209C20.618 9.87482 20.618 9.87482 20.6353 9.84029C21.8134 10.2349 22.999 10.6205 24.1921 10.9971C24.2512 11.0158 24.2957 11.0317 24.3475 11.0489C24.3475 10.0475 24.3302 8.97698 24.3302 7.97554C24.3302 7.96404 24.3302 7.95251 24.3302 7.94101Z" fill="#79002D"/>
<path fill-rule="evenodd" clip-rule="evenodd" d="M18.1835 10.2201C18.1835 10.5655 18.1835 10.9108 18.1835 11.2561C18.1835 11.2676 18.1835 11.2791 18.1835 11.2906C17.6826 10.977 17.1876 10.6546 16.6986 10.3237C16.6755 10.3007 16.6525 10.2777 16.6295 10.2547C17.1414 10.2203 17.6594 10.2088 18.1835 10.2201Z" fill="#EF0059"/>
<path fill-rule="evenodd" clip-rule="evenodd" d="M18.1835 10.2201C18.7075 10.2088 19.2255 10.2203 19.7374 10.2547C19.6956 10.2696 19.6611 10.2926 19.6338 10.3237C19.151 10.6336 18.6675 10.9962 18.1835 11.3079C18.1835 10.9626 18.1835 10.5655 18.1835 10.2201Z" fill="#7A002D"/>
<path d="M16.6295 10.2547L16.6986 10.3237C16.9058 10.5424 17.1129 10.7612 17.3201 10.9799C17.0612 10.8245 17.0612 10.8245 16.923 10.7381L16.6295 10.5309C16.6295 10.4791 16.6295 10.3237 16.6295 10.2547Z" fill="#8A1538"/>
<path fill-rule="evenodd" clip-rule="evenodd" d="M19.7374 10.2547C19.755 10.3471 19.7607 10.4392 19.7547 10.5309C19.5105 10.6893 19.263 10.839 19.0122 10.9799C19.2194 10.7612 19.4266 10.5424 19.6338 10.3237C19.6611 10.2926 19.6956 10.2696 19.7374 10.2547Z" fill="#4B0A1E"/>
<path fill-rule="evenodd" clip-rule="evenodd" d="M12.0022 4.07338C12.0252 4.07338 12.0367 4.08489 12.0367 4.10791C12.8829 5.45519 13.7462 6.79046 14.6266 8.11367C14.9888 8.67672 15.3514 9.24074 15.7144 9.80576C15.7399 9.84889 15.7342 9.88342 15.6971 9.90935C14.4903 10.2461 13.2299 10.649 12.0194 11.0489C12.0194 10.9971 12.0194 10.9819 12.054 10.9453C12.5295 10.4413 12.9841 9.92334 13.418 9.39137C13.4826 9.37897 13.5344 9.34444 13.5734 9.28777C13.9014 8.91368 14.2295 8.53956 14.5576 8.16547C13.7466 8.08559 12.9351 8.01076 12.123 7.94101C12.0861 7.94197 12.0573 7.95347 12.0367 7.97554C12.0252 7.97554 12.0137 7.97554 12.0022 7.97554C12.0022 6.67481 12.0022 5.37411 12.0022 4.07338Z" fill="#9C0036"/>
<path fill-rule="evenodd" clip-rule="evenodd" d="M12.0022 7.97554C12.0137 7.97554 12.0252 7.97554 12.0367 7.97554C12.4971 8.44749 12.9576 8.91941 13.418 9.39137C12.9841 9.92334 12.5295 10.4413 12.054 10.9453C12.0183 10.9831 12.019 11.0255 12.0194 11.0489C13.2299 10.649 14.5231 10.1943 15.7299 9.85755C15.6309 10.2883 15.483 10.766 15.3518 11.1871C15.3229 11.1989 15.3113 11.2219 15.3173 11.2561C15.1739 11.7491 15.0357 12.244 14.9029 12.741C14.8943 12.7829 14.8713 12.8059 14.8338 12.8101C13.8923 12.2317 12.9542 11.6446 12.0194 11.0489C12.0022 10.0245 11.9964 9.00008 12.0022 7.97554Z" fill="#EE0059"/>
<path fill-rule="evenodd" clip-rule="evenodd" d="M12.0022 4.07338C13.1984 4.70605 14.43 5.37366 15.6281 6.00719C15.6108 6.04173 15.5763 6.11079 15.5763 6.11079C15.0928 7.1813 15.0928 7.19856 14.6266 8.11367C13.7462 6.79046 12.8484 5.42066 12.0022 4.07338Z" fill="#EE0059"/>
<path fill-rule="evenodd" clip-rule="evenodd" d="M16.6986 10.3237C17.1876 10.6546 17.6826 10.977 18.1835 11.2906C18.1835 11.3021 18.1835 11.3137 18.1835 11.3252C17.996 11.3154 17.8119 11.3269 17.6309 11.3597C17.5619 11.2388 17.5042 11.1639 17.4065 11.0662C17.3719 11.0317 17.3859 11.0456 17.3719 11.0317C17.3547 11.0144 17.3645 11.0242 17.3547 11.0144C17.3374 10.9971 17.3414 11.0023 17.3201 10.9799C17.1129 10.7612 16.9058 10.5424 16.6986 10.3237Z" fill="#BB0A48"/>
<path fill-rule="evenodd" clip-rule="evenodd" d="M19.6338 10.3237C19.4266 10.5424 19.2194 10.7612 19.0122 10.9799C18.9787 11.0303 18.9902 11.0764 19.0468 11.118C19.0237 11.118 19.0122 11.1295 19.0122 11.1525C18.9841 11.1204 18.9553 11.0859 18.9259 11.0489C18.8325 11.1365 18.7462 11.2286 18.6669 11.3252C18.5057 11.3252 18.3446 11.3252 18.1835 11.3252C18.1835 11.3137 18.1835 11.3367 18.1835 11.3252C18.1835 11.3137 18.1835 11.3021 18.1835 11.2906C18.6675 10.979 19.151 10.6336 19.6338 10.3237Z" fill="#610921"/>
<path fill-rule="evenodd" clip-rule="evenodd" d="M17.6309 11.3597C17.4228 11.5793 17.2156 11.798 17.0094 12.0158C16.9576 12.0676 16.9403 12.0849 16.8885 12.1367C17.0171 11.8218 17.207 11.3902 17.3547 11.0835C17.3547 11.0662 17.3587 11.0509 17.3719 11.0317C17.4833 11.1135 17.5927 11.2343 17.6309 11.3597Z" fill="#E60256"/>
<path fill-rule="evenodd" clip-rule="evenodd" d="M19.0122 11.1525C19.162 11.475 19.2943 11.8145 19.4439 12.1367C19.4324 12.1367 19.4554 12.1367 19.4439 12.1367C19.2017 11.8825 18.9312 11.6005 18.6669 11.3252C18.736 11.2216 18.9016 11.0674 18.995 10.9799C18.995 11.0317 18.995 11.1007 19.0122 11.1525Z" fill="#77012D"/>
<path fill-rule="evenodd" clip-rule="evenodd" d="M18.995 11.0662C19.2597 11.3079 19.5647 11.6129 19.8065 11.8777C19.7182 11.9914 19.5858 12.1065 19.4439 12.154C19.2943 11.8318 19.162 11.475 19.0122 11.1525C18.995 11.118 18.9777 11.0835 18.995 11.0662Z" fill="#480A1D"/>
<path fill-rule="evenodd" clip-rule="evenodd" d="M17.3719 11.0317C17.3719 11.0317 17.367 11.0579 17.3547 11.0835C17.207 11.3902 17.0689 11.701 16.9403 12.0158C16.923 12.0676 16.923 12.0676 16.8885 12.1367C16.7504 12.0849 16.6178 11.9744 16.5259 11.8777C16.7907 11.5899 17.0842 11.2964 17.3719 11.0317Z" fill="#8B1438"/>
<path fill-rule="evenodd" clip-rule="evenodd" d="M20.9806 11.1871C21.0095 11.1989 21.021 11.2219 21.0151 11.2561C20.8194 11.9697 20.6582 12.6949 20.5317 13.4317C20.5202 13.4317 20.5086 13.4317 20.4971 13.4317C19.7266 13.2776 18.9554 13.1279 18.1835 12.9827C18.1835 12.9597 18.1835 12.9367 18.1835 12.9137C18.5991 12.6485 19.0135 12.3837 19.4266 12.1194C19.4381 12.1194 19.4497 12.1194 19.4612 12.1194C19.603 12.072 19.7182 11.9914 19.8065 11.8777C20.1978 11.6475 20.5892 11.4173 20.9806 11.1871Z" fill="#4F001B"/>
<path fill-rule="evenodd" clip-rule="evenodd" d="M15.3173 11.2561C15.4987 11.9015 15.6541 12.5576 15.7835 13.2245C15.8069 13.2969 15.8011 13.366 15.7662 13.4317C15.446 13.2104 15.1352 13.0032 14.8338 12.8101C14.8713 12.8059 14.8943 12.7829 14.9029 12.741C15.0357 12.244 15.1739 11.7491 15.3173 11.2561Z" fill="#8A1438"/>
<path fill-rule="evenodd" clip-rule="evenodd" d="M15.3518 11.1871C15.7432 11.4173 16.1345 11.6475 16.5259 11.8777C16.6178 11.9744 16.7271 12.055 16.854 12.1194L16.9058 12.1367C17.3283 12.4044 17.7542 12.6634 18.1835 12.9137C18.1835 12.9367 18.1835 12.9597 18.1835 12.9827C18.1835 13.6158 18.1835 14.2489 18.1835 14.882C18.1317 14.8475 18.1317 14.8475 18.1317 14.8475C18.1489 14.226 18.1547 13.6044 18.1489 12.9827C17.3991 13.1154 16.6509 13.2593 15.9043 13.4144C15.8851 13.4276 15.8698 13.4317 15.8353 13.4317C15.8007 13.4317 15.8045 13.4336 15.7662 13.4317C15.8011 13.366 15.8069 13.2969 15.7835 13.2245C15.6541 12.5576 15.4987 11.9015 15.3173 11.2561C15.3113 11.2219 15.3229 11.1989 15.3518 11.1871Z" fill="#9D0036"/>
<path fill-rule="evenodd" clip-rule="evenodd" d="M21.0151 11.2561C21.1664 11.7823 21.3045 12.3118 21.4295 12.8446C21.1433 13.057 20.844 13.2527 20.5317 13.4317C20.6582 12.6949 20.8194 11.9697 21.0151 11.2561Z" fill="#450A1C"/>
<path fill-rule="evenodd" clip-rule="evenodd" d="M17.1129 14.2259C16.4396 13.8115 16.7158 14.0014 15.7662 13.4317C15.9043 13.4144 15.7686 13.4452 15.9043 13.4144C16.664 13.2417 17.4336 13.0982 18.1835 12.9655C18.1662 13.777 18.1662 13.777 18.1317 14.8475C17.9935 14.7612 17.3719 14.3986 17.1129 14.2259Z" fill="#ED0059"/>
<path fill-rule="evenodd" clip-rule="evenodd" d="M18.1835 12.9827C18.9554 13.1279 19.7612 13.2776 20.5317 13.4317C19.7782 13.9409 18.9724 14.4244 18.1835 14.882C18.1835 14.2489 18.1835 13.6158 18.1835 12.9827Z" fill="#79002D"/>
</svg>
