<svg width="36" height="24" viewBox="0 0 36 24" fill="none" xmlns="http://www.w3.org/2000/svg">
<g clip-path="url(#clip0_1_8345)">
<path d="M4.45177 14.2179C5.67181 14.2179 6.66086 13.2289 6.66086 12.0088C6.66086 10.7888 5.67181 9.79973 4.45177 9.79973C3.23172 9.79973 2.24268 10.7888 2.24268 12.0088C2.24268 13.2289 3.23172 14.2179 4.45177 14.2179Z" fill="#D5B40F"/>
<path d="M6.7822 12.3058L8.62653 11.1241L6.6146 11.0047L7.87047 9.36538L5.92512 10.2292L6.35983 8.4795L5.25136 9.48959L5.12528 7.8742L4.1268 9.62052L3.08342 8.07509L3.24092 9.98602L1.55744 8.75148L2.31276 10.5098L0.723189 10.1667L2.16275 11.5509L0.142578 11.9467L1.88292 12.5486L0.386495 13.4428L2.37599 13.1992L1.13732 14.8004L3.02281 13.8977L2.63973 16.0323L3.83687 14.5834L4.30225 15.9919L4.79944 14.5789L6.01865 16.1202L5.79867 13.8876L7.46007 14.9631L6.69428 13.0672L8.47577 13.0219L6.7822 12.3058ZM4.4519 9.86893C5.01928 9.86962 5.56322 10.0953 5.96439 10.4966C6.36555 10.8978 6.59118 11.4418 6.59178 12.0092V12.0148C6.59037 12.4374 6.46377 12.8502 6.22796 13.201C5.99215 13.5517 5.65769 13.8247 5.26683 13.9856C4.87597 14.1464 4.44622 14.1878 4.03184 14.1046C3.61746 14.0213 3.23703 13.8172 2.93859 13.5179C2.64014 13.2186 2.43706 12.8376 2.35498 12.423C2.27291 12.0084 2.31552 11.5788 2.47743 11.1884C2.63934 10.798 2.9133 10.4643 3.26471 10.2294C3.61613 9.9946 4.02924 9.86915 4.4519 9.86893Z" fill="url(#paint0_radial_1_8345)"/>
<path d="M4.4567 9.96022C4.86193 9.96029 5.25804 10.0805 5.59494 10.3057C5.93185 10.5309 6.19441 10.8509 6.34943 11.2253C6.50446 11.5998 6.54498 12.0117 6.46588 12.4092C6.38678 12.8066 6.1916 13.1717 5.90503 13.4582C5.61846 13.7447 5.25337 13.9398 4.85592 14.0188C4.45847 14.0979 4.04651 14.0573 3.67213 13.9022C3.29775 13.7471 2.97776 13.4844 2.75264 13.1475C2.52751 12.8106 2.40735 12.4144 2.40735 12.0092C2.40794 11.4659 2.62406 10.945 3.00827 10.5609C3.39248 10.1767 3.91339 9.96072 4.4567 9.96022Z" fill="url(#paint1_radial_1_8345)"/>
<path d="M4.4567 9.96022C4.86193 9.96029 5.25804 10.0805 5.59494 10.3057C5.93185 10.5309 6.19441 10.8509 6.34943 11.2253C6.50446 11.5998 6.54498 12.0117 6.46588 12.4092C6.38678 12.8066 6.1916 13.1717 5.90503 13.4582C5.61846 13.7447 5.25337 13.9398 4.85592 14.0188C4.45847 14.0979 4.04651 14.0573 3.67213 13.9022C3.29775 13.7471 2.97776 13.4844 2.75264 13.1475C2.52751 12.8106 2.40735 12.4144 2.40735 12.0092C2.40794 11.4659 2.62406 10.945 3.00827 10.5609C3.39248 10.1767 3.91339 9.96072 4.4567 9.96022Z" fill="url(#paint2_radial_1_8345)"/>
<path d="M4.4567 9.96022C4.86193 9.96029 5.25804 10.0805 5.59494 10.3057C5.93185 10.5309 6.19441 10.8509 6.34943 11.2253C6.50446 11.5998 6.54498 12.0117 6.46588 12.4092C6.38678 12.8066 6.1916 13.1717 5.90503 13.4582C5.61846 13.7447 5.25337 13.9398 4.85592 14.0188C4.45847 14.0979 4.04651 14.0573 3.67213 13.9022C3.29775 13.7471 2.97776 13.4844 2.75264 13.1475C2.52751 12.8106 2.40735 12.4144 2.40735 12.0092C2.40794 11.4659 2.62406 10.945 3.00827 10.5609C3.39248 10.1767 3.91339 9.96072 4.4567 9.96022Z" fill="url(#paint3_radial_1_8345)"/>
<path d="M6.7822 12.3058L8.62653 11.1241L6.6146 11.0047L7.87047 9.36538L5.92512 10.2292L6.35983 8.4795L5.25136 9.48959L5.12528 7.8742L4.1268 9.62052L3.08342 8.07509L3.24092 9.98602L1.55744 8.75148L2.31276 10.5098L0.723189 10.1667L2.16275 11.5509L0.142578 11.9467L1.88292 12.5486L0.386495 13.4428L2.37599 13.1992L1.13732 14.8004L3.02281 13.8977L2.63973 16.0323L3.83687 14.5834L4.30225 15.9919L4.79944 14.5789L6.01865 16.1202L5.79867 13.8876L7.46007 14.9631L6.69428 13.0672L8.47577 13.0219L6.7822 12.3058ZM4.4519 9.86893C5.01928 9.86962 5.56322 10.0953 5.96439 10.4966C6.36555 10.8978 6.59118 11.4418 6.59178 12.0092V12.0148C6.59037 12.4374 6.46377 12.8502 6.22796 13.201C5.99215 13.5517 5.65769 13.8247 5.26683 13.9856C4.87597 14.1464 4.44622 14.1878 4.03184 14.1046C3.61746 14.0213 3.23703 13.8172 2.93859 13.5179C2.64014 13.2186 2.43706 12.8376 2.35498 12.423C2.27291 12.0084 2.31552 11.5788 2.47743 11.1884C2.63934 10.798 2.9133 10.4643 3.26471 10.2294C3.61613 9.9946 4.02924 9.86915 4.4519 9.86893Z" fill="url(#paint4_radial_1_8345)"/>
<path d="M5.96854 12.6571C5.85691 12.5505 5.77624 12.4157 5.7351 12.2669C5.72462 12.2329 5.70218 12.2385 5.70218 12.2385C5.67786 12.2434 5.68796 12.2703 5.68796 12.2703C5.70318 12.338 5.72318 12.4045 5.74782 12.4693C4.33968 12.7686 3.07409 12.4394 3.07409 12.4394C3.1117 12.3782 3.14424 12.314 3.17135 12.2475C3.17958 12.2168 3.16387 12.2101 3.16387 12.2101C3.1403 12.2018 3.1332 12.2277 3.1332 12.2277C3.00039 12.4824 2.81408 12.576 2.81408 12.576C2.81408 12.576 2.77667 12.5969 2.78977 12.6156C2.78977 12.6156 2.79912 12.6309 2.84439 12.6137C2.90738 12.579 2.96721 12.5388 3.02321 12.4936C3.12976 12.6763 3.25433 12.8479 3.39507 13.0058C3.54092 13.1702 3.72113 13.3006 3.92293 13.3878C4.10325 13.4832 4.34941 13.4865 4.34941 13.4865C5.33219 13.5374 5.77775 12.5415 5.77775 12.5415C5.8201 12.6009 5.87222 12.6526 5.93188 12.6945C5.99136 12.7106 5.96854 12.6571 5.96854 12.6571ZM4.39318 13.4143C3.57314 13.405 3.12122 12.5165 3.12122 12.5165L3.1852 12.5299C3.6379 12.635 4.10223 12.6814 4.56677 12.668C4.38832 12.6747 5.0763 12.6736 5.62399 12.5606L5.69656 12.5464C5.69656 12.5464 5.2641 13.4248 4.39318 13.4143Z" fill="#20201E"/>
<path d="M4.0909 11.9909C4.10661 11.9909 4.39018 11.995 4.39018 11.995C4.46987 11.9826 4.43245 12.0788 4.43245 12.0788C4.40477 12.1132 4.43769 12.1237 4.43769 12.1237C4.48408 12.1237 4.49867 12.0305 4.49867 12.0305C4.51064 11.9291 4.42647 11.9448 4.42647 11.9448L4.11521 11.94C3.81144 11.9145 3.82977 11.61 3.82977 11.61C3.82977 11.411 4.02019 11.2378 4.02019 11.2378C4.16983 11.0982 4.44181 11.0201 4.44181 11.0201C4.47922 11.0032 4.46612 10.9942 4.46612 10.9942C4.45789 10.9658 4.30975 11.0182 4.30975 11.0182C4.30975 11.0182 3.79461 11.1678 3.76131 11.5988C3.76131 11.5988 3.73475 11.9561 4.09165 11.9927" fill="#20201E"/>
<path d="M2.74634 11.3126C2.74634 11.3126 2.92254 10.9561 3.22033 11.0335C3.51812 11.111 3.51662 11.4738 3.51662 11.4738C3.51662 11.4738 3.56862 11.0451 3.23529 10.9598C2.86156 10.8644 2.74634 11.3126 2.74634 11.3126Z" fill="#20201E"/>
<path d="M5.48372 11.0795C5.91544 11.1136 5.91544 11.5887 5.91544 11.5887C5.91544 11.5887 5.84773 11.1712 5.48372 11.1398C5.23195 11.117 5.09241 11.4305 5.09241 11.4305C5.09241 11.4305 5.17097 11.0537 5.48372 11.0795Z" fill="#20201E"/>
<path d="M3.11855 11.31C2.90793 11.3122 2.80879 11.9426 3.05607 11.9654C3.30336 11.9882 3.37967 11.2898 3.11855 11.31Z" fill="#20201E"/>
<path d="M3.06017 11.4024C3.03934 11.4172 3.0221 11.4364 3.00973 11.4588C2.99736 11.4811 2.99018 11.506 2.98871 11.5315C2.98165 11.5718 2.97678 11.6125 2.97412 11.6534C2.98094 11.6583 2.98864 11.6617 2.9968 11.6636C3.00495 11.6654 3.01339 11.6657 3.02163 11.6643C3.04155 11.6587 3.05979 11.6483 3.07476 11.634C3.0678 11.5991 3.06999 11.563 3.08112 11.5292C3.08973 11.488 3.10226 11.4476 3.11853 11.4087C3.11007 11.4046 3.10096 11.4019 3.09159 11.4009C3.0811 11.3998 3.07051 11.4003 3.06017 11.4024Z" fill="white"/>
<path d="M5.63096 11.6534C5.62647 11.5685 5.60627 11.4783 5.55913 11.4432C5.54656 11.433 5.53303 11.4241 5.51873 11.4166C5.50533 11.4127 5.49171 11.4096 5.47795 11.4073C5.26247 11.3938 5.16221 12.0762 5.37956 12.1008C5.53669 12.1188 5.64443 11.8502 5.63096 11.6534Z" fill="#20201E"/>
<path d="M5.42455 11.491C5.40372 11.5058 5.38648 11.5251 5.37411 11.5474C5.36174 11.5698 5.35456 11.5946 5.35309 11.6201C5.34605 11.6604 5.34118 11.7009 5.3385 11.7417C5.34525 11.7467 5.35294 11.7502 5.36111 11.7522C5.36927 11.7541 5.37775 11.7544 5.38601 11.7529C5.40593 11.7473 5.42417 11.7369 5.43914 11.7226C5.43218 11.6877 5.43437 11.6517 5.4455 11.6179C5.45411 11.5766 5.46664 11.5363 5.48291 11.4974C5.47445 11.4932 5.46534 11.4906 5.45597 11.4896C5.44548 11.4885 5.43489 11.489 5.42455 11.491Z" fill="white"/>
<path d="M6.7822 12.3058L8.62653 11.1241L6.6146 11.0047L7.87047 9.36538L5.92512 10.2292L6.35983 8.4795L5.25136 9.48959L5.12528 7.8742L4.1268 9.62052L3.08342 8.07509L3.24092 9.98602L1.55744 8.75148L2.31276 10.5098L0.723189 10.1667L2.16275 11.5509L0.142578 11.9467L1.88292 12.5486L0.386495 13.4428L2.37599 13.1992L1.13732 14.8004L3.02281 13.8977L2.63973 16.0323L3.83687 14.5834L4.30225 15.9919L4.79944 14.5789L6.01865 16.1202L5.79867 13.8876L7.46007 14.9631L6.69428 13.0672L8.47577 13.0219L6.7822 12.3058ZM4.4519 9.86893C5.01928 9.86962 5.56322 10.0953 5.96439 10.4966C6.36555 10.8978 6.59118 11.4418 6.59178 12.0092V12.0148C6.59037 12.4374 6.46377 12.8502 6.22796 13.201C5.99215 13.5517 5.65769 13.8247 5.26683 13.9856C4.87597 14.1464 4.44622 14.1878 4.03184 14.1046C3.61746 14.0213 3.23703 13.8172 2.93859 13.5179C2.64014 13.2186 2.43706 12.8376 2.35498 12.423C2.27291 12.0084 2.31552 11.5788 2.47743 11.1884C2.63934 10.798 2.9133 10.4643 3.26471 10.2294C3.61613 9.9946 4.02924 9.86915 4.4519 9.86893Z" fill="url(#paint5_radial_1_8345)"/>
<path d="M0.843967 10.2311L2.37705 10.5614L2.25135 10.4578L0.602295 10.1028L0.843967 10.2311Z" fill="url(#paint6_linear_1_8345)"/>
<path d="M5.09717 7.99841L5.218 9.56665L5.28085 9.40841L5.15328 7.75L5.09717 7.99841Z" fill="url(#paint7_linear_1_8345)"/>
<path d="M4.12943 9.69086L4.12419 9.54944L3.03442 7.93555L3.13244 8.21464L4.12943 9.69086Z" fill="url(#paint8_linear_1_8345)"/>
<path d="M5.21802 9.56665L6.29207 8.58986L6.42376 8.36877L5.28087 9.4084L5.21802 9.56665Z" fill="url(#paint9_linear_1_8345)"/>
<path d="M1.64753 8.86184L1.47058 8.6385L2.25134 10.4578L2.37704 10.5614L1.64753 8.86184Z" fill="url(#paint10_linear_1_8345)"/>
<path d="M3.28499 10.0646L3.1967 9.90709L1.47058 8.6385L1.64753 8.86184L3.28499 10.0646Z" fill="url(#paint11_linear_1_8345)"/>
<path d="M3.28507 10.0646L3.13244 8.21464L3.03442 7.93555L3.19679 9.90709L3.28507 10.0646Z" fill="url(#paint12_linear_1_8345)"/>
<path d="M5.09719 7.99841L5.15331 7.75L4.12415 9.54945L4.12938 9.69086L5.09719 7.99841Z" fill="url(#paint13_linear_1_8345)"/>
<path d="M6.70215 12.3126L6.86189 12.2991L8.74364 11.0934L8.50945 11.1547L6.70215 12.3126Z" fill="url(#paint14_linear_1_8345)"/>
<path d="M6.29212 8.58986L5.86975 10.2958L5.97899 10.1656L6.4238 8.36877L6.29212 8.58986Z" fill="url(#paint15_linear_1_8345)"/>
<path d="M8.50941 11.1547L8.7436 11.0934L6.68715 10.9729L6.54199 11.0391L8.50941 11.1547Z" fill="url(#paint16_linear_1_8345)"/>
<path d="M8.64789 13.0552L8.29997 12.989L6.63745 13.0312L6.74744 13.1034L8.64789 13.0552Z" fill="url(#paint17_linear_1_8345)"/>
<path d="M6.86189 12.2991L6.70215 12.3126L8.29995 12.989L8.64787 13.0552L6.86189 12.2991Z" fill="url(#paint18_linear_1_8345)"/>
<path d="M6.54199 11.0391L6.68715 10.9729L7.98941 9.27298L7.75147 9.46041L6.54199 11.0391Z" fill="url(#paint19_linear_1_8345)"/>
<path d="M7.7515 9.46041L7.98943 9.27298L5.97899 10.1656L5.86975 10.2958L7.7515 9.46041Z" fill="url(#paint20_linear_1_8345)"/>
<path d="M3.07258 13.8326L2.97307 13.9631L2.57764 16.1662L2.70184 15.8984L3.07258 13.8326Z" fill="url(#paint21_linear_1_8345)"/>
<path d="M6.63745 13.0312L7.3793 14.8674L7.53717 15.0589L6.74744 13.1034L6.63745 13.0312Z" fill="url(#paint22_linear_1_8345)"/>
<path d="M3.84997 14.5071L2.70184 15.8984L2.57764 16.1662L3.82154 14.6593L3.84997 14.5071Z" fill="url(#paint23_linear_1_8345)"/>
<path d="M4.3029 15.8763L4.30066 16.1075L4.81206 14.6556L4.78625 14.5026L4.3029 15.8763Z" fill="url(#paint24_linear_1_8345)"/>
<path d="M3.84997 14.5071L3.82153 14.6593L4.30076 16.1075L4.30301 15.8763L3.84997 14.5071Z" fill="url(#paint25_linear_1_8345)"/>
<path d="M4.78625 14.5026L4.81207 14.6556L6.06794 16.2437V16.2433L5.96843 15.9968L4.78625 14.5026Z" fill="url(#paint26_linear_1_8345)"/>
<path d="M5.75195 13.8142L5.84174 13.9613L7.53718 15.0589L7.37931 14.8674L5.75195 13.8142Z" fill="url(#paint27_linear_1_8345)"/>
<path d="M5.96856 15.9968L6.06807 16.2433L5.84174 13.9613L5.75195 13.8142L5.96856 15.9968Z" fill="url(#paint28_linear_1_8345)"/>
<path d="M2.45899 13.151L0.55667 13.3836L0.213989 13.5011L2.29027 13.2471L2.45899 13.151Z" fill="url(#paint29_linear_1_8345)"/>
<path d="M1.97191 12.5393L0.286939 11.9564L0 11.9362L1.79533 12.5572L1.97191 12.5393Z" fill="url(#paint30_linear_1_8345)"/>
<path d="M2.24052 11.5734L2.08489 11.5277L0 11.9362L0.286939 11.9564L2.24052 11.5734Z" fill="url(#paint31_linear_1_8345)"/>
<path d="M1.263 14.6986L1.01123 14.9021L2.97304 13.9631L3.07255 13.8326L1.263 14.6986Z" fill="url(#paint32_linear_1_8345)"/>
<path d="M1.97191 12.5393L1.79533 12.5573L0.213989 13.5011L0.55667 13.3837L1.97191 12.5393Z" fill="url(#paint33_linear_1_8345)"/>
<path d="M1.263 14.6986L2.45902 13.151L2.2903 13.2471L1.01123 14.9021L1.263 14.6986Z" fill="url(#paint34_linear_1_8345)"/>
<path d="M2.2405 11.5734L0.843967 10.2311L0.602295 10.1028L2.08487 11.5277L2.2405 11.5734Z" fill="url(#paint35_linear_1_8345)"/>
<path d="M22.5204 12.4484C22.5204 11.907 22.5204 11.3687 22.5204 10.8274C22.5204 10.6181 22.5263 10.4058 22.5678 10.1994C22.6182 9.94222 22.7071 9.70295 22.8761 9.4996C22.971 9.38596 23.0866 9.29325 23.214 9.21848C23.7594 8.90746 24.3345 8.79382 24.9541 8.91643C25.1408 8.95531 25.3187 9.0211 25.4876 9.10783C25.7692 9.25138 25.9619 9.48166 26.0983 9.76279C26.2376 10.0499 26.3117 10.3549 26.3414 10.6719C26.3739 11.0308 26.3532 11.3897 26.2702 11.7396C26.199 12.0416 26.0775 12.3197 25.8849 12.562C25.5558 12.9747 25.123 13.1631 24.5983 13.1302C24.4561 13.1212 24.3167 13.0973 24.1804 13.0495C23.9877 12.9837 23.8247 12.873 23.6942 12.7145C23.6616 12.6757 23.632 12.6308 23.6023 12.5889C23.5964 12.5829 23.5875 12.58 23.5786 12.58C23.5668 12.58 23.5609 12.5859 23.5609 12.5979V12.6846V13.9616C23.5609 14.0154 23.5609 14.0663 23.5549 14.1201C23.5223 14.3564 23.3356 14.5448 23.1014 14.5627C22.9265 14.5777 22.7516 14.5687 22.5767 14.5687C22.5441 14.5687 22.5233 14.5508 22.5233 14.5149C22.5233 14.482 22.5233 14.4491 22.5233 14.4132C22.5204 13.7612 22.5204 13.1033 22.5204 12.4484ZM25.2979 11.0128C25.3009 10.7975 25.2772 10.5822 25.206 10.3759C25.1289 10.1456 24.9985 9.95716 24.7732 9.85249C24.631 9.78671 24.4827 9.77175 24.3286 9.78372C24.0974 9.80164 23.9136 9.90633 23.7772 10.0947C23.6972 10.2054 23.6468 10.328 23.6172 10.4596C23.549 10.7796 23.5401 11.1056 23.5935 11.4286C23.6112 11.5362 23.6438 11.6439 23.6913 11.7426C23.795 11.9519 23.9403 12.1134 24.1715 12.1822C24.4739 12.2749 24.8711 12.23 25.1023 11.8502C25.1467 11.7755 25.1853 11.7007 25.212 11.617C25.2772 11.4256 25.3009 11.2222 25.2979 11.0128Z" fill="#1A212A"/>
<path d="M31.5585 11.6919V12.8971C31.5585 12.936 31.5585 12.9748 31.5555 13.0107C31.5526 13.0376 31.5378 13.0526 31.5111 13.0556C31.4873 13.0586 31.4636 13.0586 31.4399 13.0586C31.1613 13.0586 30.8797 13.0586 30.601 13.0586C30.5773 13.0586 30.5536 13.0586 30.5299 13.0556C30.5032 13.0526 30.4884 13.0346 30.4884 13.0077C30.4884 12.9748 30.4884 12.942 30.4884 12.9061C30.4884 12.1733 30.4884 11.4436 30.4884 10.7109C30.4884 10.5046 30.5032 10.3012 30.5388 10.0979C30.5773 9.88254 30.6485 9.68217 30.7759 9.50572C30.8471 9.40404 30.936 9.31731 31.0427 9.24853C31.4014 9.01526 31.7956 8.88666 32.2195 8.87171C32.5308 8.85974 32.8332 8.92255 33.1206 9.04217C33.2066 9.07806 33.2926 9.12292 33.3755 9.16778C33.6603 9.31133 33.8292 9.55058 33.9239 9.84963C34.0011 10.0889 34.0277 10.3341 34.0308 10.5853C34.0336 10.8904 34.0336 11.1984 34.0336 11.5035V12.8941V13.0077C34.0336 13.0346 34.0158 13.0496 33.9893 13.0556C33.9803 13.0556 33.9715 13.0586 33.9597 13.0586C33.7936 13.0586 33.6276 13.0616 33.4615 13.0556C33.3134 13.0526 33.186 12.9898 33.091 12.8732C33.0199 12.7894 32.9931 12.6907 32.9813 12.5831C32.9785 12.5412 32.9785 12.4963 32.9785 12.4545C32.9785 11.8055 32.9785 11.1536 32.9785 10.5046C32.9785 10.4089 32.9754 10.3132 32.9517 10.2205C32.9162 10.0739 32.8391 9.9603 32.7146 9.87657C32.4359 9.69113 32.0861 9.68815 31.8164 9.87057C31.6919 9.95432 31.6148 10.071 31.5822 10.2175C31.5615 10.3072 31.5555 10.3969 31.5555 10.4866C31.5615 10.8904 31.5585 11.2911 31.5585 11.6919Z" fill="#1A212A"/>
<path d="M34.3212 10.1037C34.3212 9.36796 34.3212 8.62928 34.3212 7.89359C34.3212 7.76499 34.3034 7.75901 34.4517 7.75901C34.5851 7.75901 34.7185 7.762 34.849 7.75901C35.1423 7.75004 35.3794 8.01321 35.3735 8.28536C35.3706 8.46779 35.3735 8.65022 35.3735 8.82965V8.93133C35.3735 8.95825 35.3912 8.97619 35.418 8.97619C35.4803 8.97918 35.5426 8.97918 35.6019 8.97918H35.9428C35.9755 8.97918 35.996 8.99414 35.996 9.03002V9.21544C35.9932 9.49955 35.7648 9.69991 35.5218 9.71487C35.4832 9.71786 35.4448 9.71786 35.4093 9.72087C35.3884 9.72386 35.3735 9.7358 35.3735 9.75674C35.3706 9.78665 35.3706 9.81356 35.3706 9.84348V11.9399V11.9698C35.3735 12.1612 35.4566 12.2479 35.6492 12.2539C35.7381 12.2569 35.83 12.2539 35.9191 12.2569C35.9873 12.2569 35.996 12.2659 35.996 12.3287V12.9896C35.996 13.0554 35.9901 13.0614 35.9219 13.0644C35.581 13.0793 35.2401 13.0733 34.8992 13.0464C34.8668 13.0434 34.8341 13.0404 34.8014 13.0345C34.5851 12.9866 34.4368 12.861 34.3686 12.6457C34.3302 12.5171 34.3184 12.3825 34.3184 12.2479C34.3212 11.5302 34.3212 10.8184 34.3212 10.1037Z" fill="#1A212A"/>
<path d="M10.5207 9.43685C10.577 9.4189 10.5889 9.38601 10.6096 9.36208C10.8586 9.05704 11.1758 8.89255 11.5671 8.87162C11.9347 8.85368 12.2726 8.93741 12.5661 9.17068C12.7498 9.31722 12.8951 9.49965 13.0107 9.70599C13.1648 9.98414 13.2508 10.2862 13.2864 10.6032C13.3249 10.9471 13.3219 11.291 13.2597 11.632C13.2063 11.931 13.1026 12.2122 12.9366 12.4664C12.7884 12.6996 12.5868 12.8671 12.3319 12.9658C11.9969 13.1004 11.6471 13.1512 11.2885 13.1303C10.8646 13.1033 10.4733 12.9718 10.1087 12.7534C9.89226 12.6249 9.74406 12.4364 9.64622 12.2062C9.52765 11.931 9.48319 11.6379 9.48319 11.3389C9.48022 10.8544 9.48022 10.3729 9.48022 9.88844C9.48022 9.23348 9.48022 8.57854 9.48319 7.92359C9.48319 7.88172 9.48319 7.83686 9.48615 7.795C9.48615 7.76808 9.50394 7.75313 9.53062 7.75014H9.57212C9.72033 7.75014 9.86558 7.75313 10.0138 7.75014C10.2361 7.74416 10.497 7.93555 10.5177 8.23761C10.5207 8.27948 10.5207 8.32434 10.5207 8.3662V9.43685ZM10.5296 11.0069C10.5296 11.0877 10.5266 11.1684 10.5296 11.2492C10.5414 11.4166 10.5711 11.5811 10.6363 11.7366C10.7371 11.9729 10.9031 12.1404 11.1551 12.2092C11.2558 12.2361 11.3626 12.2361 11.4663 12.2301C11.7212 12.2122 11.9169 12.0925 12.0532 11.8772C12.1481 11.7247 12.2015 11.5572 12.2281 11.3807C12.2548 11.2043 12.2637 11.0279 12.2548 10.8514C12.2459 10.663 12.2163 10.4806 12.1392 10.3071C12.0088 10.017 11.8042 9.81964 11.4752 9.79572C11.1966 9.77479 10.9505 9.85255 10.7667 10.0828C10.7074 10.1576 10.663 10.2413 10.6274 10.331C10.5414 10.5494 10.5177 10.7766 10.5296 11.0069Z" fill="url(#paint36_linear_1_8345)"/>
<path d="M21.0263 11.2911C20.6379 11.2911 20.2496 11.2911 19.8613 11.2911C19.6894 11.2911 19.6982 11.2911 19.716 11.4615C19.7397 11.6589 19.799 11.8413 19.9324 11.9969C20.0273 12.1045 20.1429 12.1763 20.2793 12.2092C20.4423 12.2481 20.6083 12.2481 20.7713 12.2092C20.9047 12.1763 21.0233 12.1195 21.1092 12.0088C21.2426 11.8353 21.4146 11.7815 21.6221 11.7935C21.791 11.8025 21.963 11.7965 22.1349 11.7965C22.1734 11.7965 22.212 11.7965 22.2475 11.7995C22.2742 11.8025 22.2861 11.8234 22.2802 11.8503C22.2772 11.8682 22.2712 11.8862 22.2653 11.9071C22.0904 12.4604 21.7347 12.8402 21.1893 13.0256C20.7713 13.1692 20.3415 13.1781 19.9146 13.0705C19.3811 12.9329 19.0194 12.592 18.806 12.0866C18.7111 11.8653 18.6607 11.632 18.637 11.3927C18.6074 11.1056 18.6074 10.8185 18.643 10.5344C18.6844 10.2144 18.7734 9.90939 18.9483 9.63426C19.2062 9.22753 19.5797 8.99426 20.0451 8.91053C20.3652 8.85371 20.6883 8.86268 21.0055 8.93744C21.3108 9.00922 21.5865 9.14679 21.8088 9.37108C21.9837 9.54753 22.1023 9.75687 22.1883 9.98715C22.292 10.2593 22.3365 10.5404 22.3483 10.8275C22.3543 10.9561 22.3513 11.0847 22.3513 11.2163C22.3513 11.2761 22.3335 11.2911 22.2742 11.297C22.2416 11.3 22.209 11.297 22.1734 11.297C21.794 11.2911 21.4086 11.2911 21.0263 11.2911ZM19.6982 10.5703C19.7457 10.6062 19.7961 10.5913 19.8435 10.5942H21.05C21.293 10.5942 21.2575 10.6212 21.2219 10.3759C21.2071 10.2802 21.1745 10.1905 21.13 10.1068C21.05 9.96323 20.9343 9.86156 20.7773 9.8107C20.6201 9.75985 20.463 9.74791 20.3 9.78079C20.1725 9.80772 20.0599 9.86156 19.9591 9.94827C19.7723 10.1127 19.7131 10.3311 19.6982 10.5703Z" fill="url(#paint37_linear_1_8345)"/>
<path d="M14.8751 10.3671C14.8751 9.96032 14.8751 9.55359 14.8751 9.14687C14.8751 9.11397 14.8751 9.08108 14.8751 9.04519C14.878 8.9764 14.887 8.96444 14.9611 8.96444H15.8563C15.9274 8.96444 15.9333 8.9764 15.9363 9.05117V9.1379C15.9393 9.92742 15.9393 10.7169 15.9422 11.5065C15.9422 11.5783 15.9452 11.65 15.9541 11.7218C15.9748 11.9581 16.1023 12.1225 16.3157 12.2123C16.6062 12.3349 16.8819 12.299 17.1368 12.1136C17.2821 12.0089 17.3384 11.8504 17.3562 11.6799C17.3621 11.6141 17.3621 11.5453 17.3621 11.4795C17.3621 10.8426 17.3651 10.2085 17.3651 9.57154C17.3651 9.52369 17.3621 9.47584 17.3681 9.42799C17.3888 9.18276 17.5756 8.98538 17.8186 8.97042C17.9935 8.95846 18.1684 8.96743 18.3433 8.96743C18.3937 8.96743 18.4056 8.98238 18.4085 9.03921V9.11098C18.4085 9.87059 18.4085 10.6332 18.4115 11.3928C18.4115 11.5932 18.3937 11.7936 18.3552 11.991C18.3166 12.1793 18.2514 12.3588 18.1417 12.5173C18.0647 12.6279 17.9728 12.7236 17.8542 12.7924C17.291 13.1214 16.6952 13.2231 16.0608 13.0496C15.8503 12.9928 15.6488 12.9061 15.4591 12.7954C15.2189 12.6579 15.0737 12.4455 14.9848 12.1913C14.9018 11.9551 14.8721 11.7068 14.8721 11.4586C14.8721 11.0968 14.8721 10.7319 14.8751 10.3671Z" fill="url(#paint38_linear_1_8345)"/>
<path d="M13.5474 10.3878C13.5474 9.56539 13.5474 8.74296 13.5474 7.92054C13.5474 7.75605 13.5266 7.75905 13.7104 7.75905H14.0809C14.1669 7.75905 14.2499 7.77699 14.327 7.81587C14.493 7.89961 14.5878 8.03418 14.6056 8.2196C14.6115 8.26745 14.6086 8.3153 14.6086 8.36315C14.6115 9.87041 14.6115 11.3777 14.6115 12.882C14.6115 13.0644 14.6264 13.0554 14.4455 13.0554C14.1936 13.0554 13.9416 13.0554 13.6926 13.0554C13.6541 13.0554 13.6155 13.0554 13.58 13.0495C13.5592 13.0465 13.5444 13.0315 13.5414 13.0106C13.5385 12.9687 13.5385 12.9239 13.5385 12.882C13.5385 12.0506 13.5385 11.2162 13.5385 10.3848C13.5414 10.3878 13.5444 10.3878 13.5474 10.3878Z" fill="url(#paint39_linear_1_8345)"/>
<path d="M26.5368 11.8652C26.5368 11.5931 26.5368 11.3209 26.5368 11.0458C26.5368 10.8245 26.5546 10.6062 26.605 10.3908C26.6968 10.0021 26.8777 9.6701 27.1859 9.41291C27.349 9.27833 27.5357 9.18263 27.7314 9.11385C28.0634 9.0002 28.4043 8.95833 28.7541 8.96432C28.8193 8.96432 28.8252 8.97329 28.8252 9.04207V9.99009C28.8252 10.0469 28.8163 10.0559 28.757 10.0559C28.6681 10.0589 28.5762 10.0559 28.4873 10.0559C28.3776 10.0559 28.2679 10.0649 28.1612 10.0888C27.8678 10.1576 27.6929 10.346 27.6306 10.6391C27.6069 10.7467 27.601 10.8574 27.601 10.968V12.891V12.9777C27.6069 13.0555 27.5772 13.0585 27.518 13.0585C27.2156 13.0585 26.9103 13.0585 26.6079 13.0585C26.5427 13.0585 26.5338 13.0495 26.5338 12.9837C26.5338 12.7744 26.5338 12.562 26.5338 12.3527C26.5368 12.1912 26.5368 12.0267 26.5368 11.8652Z" fill="#1A212A"/>
<path d="M29.1395 11.0039C29.1395 10.3669 29.1395 9.72994 29.1395 9.09592C29.1395 8.97031 29.1277 8.96134 29.2729 8.96134H29.6849C29.8746 8.96433 30.0229 9.04508 30.1296 9.20358C30.1829 9.28134 30.2037 9.36807 30.2096 9.46078C30.2126 9.49965 30.2096 9.53853 30.2096 9.57442V12.903V12.9897C30.2066 13.0435 30.1948 13.0555 30.1414 13.0555C29.928 13.0555 29.7146 13.0555 29.5011 13.0555C29.4004 13.0555 29.3025 13.0555 29.2018 13.0555C29.1543 13.0555 29.1395 13.0405 29.1395 12.9957C29.1365 12.9568 29.1395 12.9179 29.1395 12.882C29.1395 12.26 29.1395 11.632 29.1395 11.0039Z" fill="#1A212A"/>
<path d="M29.6343 15.5235C29.6699 15.5025 29.6728 15.4786 29.6817 15.4547C29.8448 14.9852 30.0078 14.5156 30.1679 14.0461C30.1768 14.0222 30.1827 14.0013 30.1916 13.9773C30.2301 13.8697 30.2301 13.8816 30.3191 13.8816H30.7163C30.8141 13.8816 30.8141 13.8846 30.8171 13.9893V14.0311V16.0528V16.1096C30.8141 16.1814 30.8082 16.1904 30.7341 16.1904C30.6303 16.1904 30.5266 16.1904 30.4198 16.1904C30.3872 16.1904 30.3694 16.1724 30.3694 16.1365C30.3694 16.1037 30.3694 16.0708 30.3724 16.0349C30.3754 15.6431 30.3813 15.2513 30.3843 14.8596C30.3843 14.8207 30.3843 14.7818 30.3843 14.7459C30.3843 14.728 30.3813 14.707 30.3606 14.6981C30.3309 14.6891 30.3191 14.716 30.3131 14.737C30.242 14.9403 30.1738 15.1437 30.1027 15.347C30.0137 15.6042 29.9248 15.8614 29.8359 16.1186C29.8121 16.1904 29.8062 16.1934 29.7351 16.1934C29.6728 16.1934 29.6106 16.1934 29.5513 16.1934C29.4772 16.1934 29.4713 16.1904 29.4475 16.1216C29.3972 15.981 29.3497 15.8435 29.3023 15.7029C29.1897 15.3769 29.077 15.054 28.9644 14.728C28.9555 14.7011 28.9407 14.6771 28.9288 14.6532C28.9259 14.6502 28.9081 14.6502 28.9051 14.6562C28.8992 14.6682 28.8932 14.6831 28.8932 14.6951C28.8932 14.7818 28.8962 14.8685 28.8962 14.9523C28.8992 15.3201 28.9051 15.688 28.9081 16.0558C28.9081 16.0857 28.911 16.1126 28.9081 16.1425C28.9081 16.1695 28.8903 16.1844 28.8636 16.1874C28.8458 16.1874 28.8251 16.1904 28.8073 16.1904C28.7124 16.1904 28.6176 16.1904 28.5227 16.1904C28.4782 16.1904 28.4664 16.1754 28.4634 16.1276C28.4634 16.0977 28.4634 16.0708 28.4634 16.0408C28.4634 15.371 28.4634 14.7011 28.4634 14.0311C28.4634 13.8577 28.4575 13.8756 28.6176 13.8756H28.9733C29.0563 13.8756 29.0592 13.8786 29.0859 13.9534C29.1571 14.1508 29.2252 14.3512 29.2934 14.5485C29.3942 14.8386 29.492 15.1257 29.5898 15.4158C29.6047 15.4577 29.6195 15.4876 29.6343 15.5235Z" fill="#1A212A"/>
<path d="M25.6714 14.9671H26.2258H26.3265C26.371 14.9701 26.3829 14.985 26.3858 15.0299C26.3918 15.2333 26.3532 15.4276 26.2554 15.6101C25.9145 16.2411 25.2475 16.3517 24.7673 16.1574C24.3701 15.9959 24.127 15.6878 24.0499 15.2631C23.964 14.7817 24.127 14.3899 24.4976 14.0819C24.6013 13.9951 24.7199 13.9323 24.8473 13.8964C25.1942 13.8007 25.5321 13.8127 25.8493 14.0071C26.042 14.1267 26.1694 14.3032 26.2643 14.5035C26.2791 14.5334 26.2643 14.5574 26.2258 14.5574C26.0894 14.5574 25.9501 14.5574 25.8137 14.5574C25.7663 14.5574 25.7337 14.5394 25.7011 14.5065C25.6477 14.4527 25.5884 14.4048 25.5173 14.372C25.0875 14.1656 24.5924 14.4318 24.5154 14.9132C24.4649 15.2273 24.6013 15.5263 24.8681 15.6819C25.123 15.8314 25.5706 15.8314 25.8107 15.4306C25.8137 15.4276 25.8167 15.4216 25.8167 15.4187C25.8374 15.3798 25.8226 15.3529 25.7782 15.3529C25.5795 15.3529 25.3809 15.3529 25.1793 15.3499C25.1171 15.3499 25.0549 15.3499 24.9956 15.3499C24.9689 15.3499 24.9481 15.3349 24.9481 15.308C24.9481 15.2123 24.9452 15.1166 24.9481 15.0209C24.9481 14.9761 24.9629 14.9641 25.0134 14.9641C25.0519 14.9611 25.0904 14.9641 25.126 14.9641C25.3127 14.9671 25.4936 14.9671 25.6714 14.9671Z" fill="#1A212A"/>
<path d="M35.2814 14.9671H35.8357H35.9367C35.984 14.9701 35.999 14.982 35.999 15.0269C36.0049 15.1824 35.9871 15.3349 35.9307 15.4785C35.6581 16.1573 34.985 16.3787 34.4129 16.1723C33.992 16.0198 33.7402 15.6998 33.6629 15.2542C33.58 14.7847 33.7402 14.3989 34.0988 14.0938C34.2054 14.0041 34.3269 13.9353 34.4603 13.8994C34.819 13.8008 35.1629 13.8157 35.4861 14.0221C35.6668 14.1387 35.7884 14.3092 35.8803 14.5006C35.8952 14.5334 35.8803 14.5574 35.8447 14.5574C35.7024 14.5574 35.5602 14.5574 35.4178 14.5604C35.3705 14.5604 35.3409 14.5334 35.3082 14.5036C35.1776 14.372 35.0177 14.3092 34.8339 14.3092C34.5435 14.3062 34.3329 14.4467 34.2026 14.6979C34.0275 15.0299 34.1225 15.4695 34.4812 15.6848C34.733 15.8374 35.1866 15.8344 35.4269 15.4396C35.4297 15.4366 35.4297 15.4306 35.4328 15.4276C35.4534 15.3858 35.4446 15.3619 35.4001 15.3619C35.2904 15.3589 35.1807 15.3619 35.0739 15.3589C34.9258 15.3589 34.7806 15.3589 34.6323 15.3589C34.579 15.3589 34.57 15.3529 34.57 15.305C34.57 15.2093 34.57 15.1136 34.57 15.0179C34.57 14.991 34.5878 14.9731 34.6145 14.9731C34.6472 14.9701 34.6797 14.9731 34.7152 14.9731C34.9021 14.9671 35.0919 14.9671 35.2814 14.9671Z" fill="#1A212A"/>
<path d="M33.1026 13.8845H33.4641C33.4968 13.8845 33.5177 13.8994 33.5205 13.9353V14.0221V16.0736V16.1454C33.5205 16.1813 33.4968 16.1962 33.4672 16.1962C33.3635 16.1962 33.2597 16.1962 33.1559 16.1962C33.1055 16.1962 33.0818 16.1603 33.0581 16.1245C32.9633 15.9719 32.8655 15.8164 32.7706 15.6639C32.5809 15.3618 32.3912 15.0568 32.2015 14.7547C32.1955 14.7458 32.1866 14.7308 32.1659 14.7398C32.1481 14.7488 32.1511 14.7637 32.1511 14.7757V14.8774V16.0676C32.1511 16.1962 32.1511 16.1962 32.0295 16.1962C31.9406 16.1962 31.8487 16.1962 31.7598 16.1962C31.7272 16.1962 31.7064 16.1813 31.7064 16.1424C31.7064 16.1125 31.7064 16.0856 31.7064 16.0557C31.7064 15.3828 31.7064 14.7069 31.7064 14.034C31.7064 14.0161 31.7064 13.9951 31.7064 13.9772C31.7094 13.8905 31.7123 13.8845 31.7924 13.8845H31.991C32.1452 13.8875 32.1155 13.8546 32.2163 14.0101C32.4653 14.3959 32.7113 14.7817 32.9574 15.1645C32.978 15.1974 32.9989 15.2302 33.0197 15.2602C33.0285 15.2751 33.0344 15.299 33.0581 15.2961C33.0936 15.2901 33.0818 15.2602 33.0818 15.2392C33.0818 14.8385 33.0818 14.4348 33.0818 14.034C33.0818 13.9892 33.0699 13.9383 33.1026 13.8845Z" fill="#1A212A"/>
<path d="M28.102 16.1964C28.0457 16.1964 27.9894 16.1964 27.9301 16.1964C27.8886 16.1964 27.859 16.1814 27.8442 16.1395C27.8056 16.0349 27.7641 15.9332 27.7256 15.8315C27.7196 15.8135 27.7137 15.7956 27.7078 15.7777C27.6959 15.7358 27.6722 15.7149 27.6248 15.7149C27.3817 15.7149 27.1416 15.7149 26.8985 15.7149C26.8481 15.7149 26.8244 15.7418 26.8066 15.7866C26.7681 15.8943 26.7296 16.002 26.691 16.1096C26.6584 16.1934 26.6555 16.1964 26.5695 16.1964C26.4657 16.1964 26.362 16.1964 26.2553 16.1964C26.2079 16.1964 26.196 16.1784 26.2138 16.1336C26.2731 15.978 26.3353 15.8225 26.3946 15.667C26.531 15.3111 26.6673 14.9552 26.8066 14.5994C26.8896 14.387 26.9727 14.1717 27.0527 13.9594C27.0734 13.9085 27.1001 13.8816 27.1564 13.8846C27.2365 13.8876 27.3165 13.8876 27.3995 13.8846C27.4499 13.8846 27.4766 13.9025 27.4943 13.9504C27.5507 14.1059 27.6129 14.2614 27.6722 14.4199C27.8827 14.9732 28.0932 15.5265 28.3006 16.0797C28.3095 16.1007 28.3184 16.1246 28.3244 16.1455C28.3362 16.1814 28.3244 16.1964 28.2858 16.1964C28.2265 16.1993 28.1643 16.1964 28.102 16.1964ZM27.5151 15.2842C27.5181 15.2633 27.524 15.2483 27.5181 15.2364C27.441 15.0181 27.361 14.7967 27.2839 14.5784C27.2513 14.5904 27.2424 14.6143 27.2365 14.6352C27.1831 14.7788 27.1297 14.9193 27.0764 15.0629C27.0556 15.1167 27.0349 15.1706 27.0141 15.2244C27.0023 15.2603 27.0141 15.2842 27.0468 15.2842H27.5151Z" fill="#1A212A"/>
<path d="M31.0396 13.8846H31.4397C31.4723 13.8846 31.4931 13.9056 31.4931 13.9385V14.0102V16.0917V16.1485C31.4931 16.1784 31.4753 16.1904 31.4486 16.1934C31.4427 16.1934 31.4397 16.1964 31.4338 16.1964C31.3211 16.1964 31.2055 16.1964 31.0929 16.1964C31.0603 16.1964 31.0396 16.1784 31.0425 16.1425C31.0425 16.1186 31.0425 16.0947 31.0425 16.0708C31.0425 15.3859 31.0425 14.704 31.0425 14.0192C31.0396 13.9803 31.0396 13.9445 31.0396 13.8846Z" fill="#1A212A"/>
<path d="M29.6699 8.60837C29.5187 8.60837 29.3675 8.60837 29.2163 8.60837C29.1511 8.60837 29.1422 8.59641 29.1422 8.5336C29.1422 8.30033 29.1422 8.06408 29.1422 7.83081C29.1422 7.77399 29.1541 7.76202 29.2074 7.75903C29.3823 7.75903 29.5572 7.75305 29.7321 7.76202C29.9811 7.77698 30.1768 7.96539 30.2064 8.21361C30.2183 8.32725 30.2123 8.44389 30.2123 8.55753C30.2123 8.59342 30.1856 8.60538 30.153 8.60538C30.076 8.60538 30.0019 8.60538 29.9248 8.60538C29.8418 8.60837 29.7558 8.60837 29.6699 8.60837Z" fill="#1A212A"/>
</g>
<defs>
<radialGradient id="paint0_radial_1_8345" cx="0" cy="0" r="1" gradientUnits="userSpaceOnUse" gradientTransform="translate(3.26977 10.5979) scale(3.87637)">
<stop stop-color="#FCE400"/>
<stop offset="0.12" stop-color="#FADF03"/>
<stop offset="0.6" stop-color="#F3D00A"/>
<stop offset="1" stop-color="#F1CB0D"/>
</radialGradient>
<radialGradient id="paint1_radial_1_8345" cx="0" cy="0" r="1" gradientUnits="userSpaceOnUse" gradientTransform="translate(4.18809 11.689) scale(2.33479)">
<stop offset="0.21" stop-color="#FDF6D9"/>
<stop offset="0.37" stop-color="#FDF5D5"/>
<stop offset="0.53" stop-color="#FDF3C8"/>
<stop offset="0.7" stop-color="#FCF0B3"/>
<stop offset="0.86" stop-color="#FCEB95"/>
<stop offset="1" stop-color="#FBE678"/>
</radialGradient>
<radialGradient id="paint2_radial_1_8345" cx="0" cy="0" r="1" gradientUnits="userSpaceOnUse" gradientTransform="translate(4.36915 11.9639) scale(2.10971)">
<stop stop-color="#C0A10F" stop-opacity="0"/>
<stop offset="0.96" stop-color="#C0A10F" stop-opacity="0"/>
<stop offset="1" stop-color="#C0A10F"/>
</radialGradient>
<radialGradient id="paint3_radial_1_8345" cx="0" cy="0" r="1" gradientUnits="userSpaceOnUse" gradientTransform="translate(4.52935 12.0761) rotate(-138.26) scale(2.12598 2.24816)">
<stop stop-color="white" stop-opacity="0"/>
<stop offset="0.96" stop-color="#FDF2B4" stop-opacity="0.35"/>
<stop offset="0.97" stop-color="#FEF8D5" stop-opacity="0.67"/>
<stop offset="0.98" stop-color="#FFFCEA" stop-opacity="0.88"/>
<stop offset="0.99" stop-color="#FFFEF5" stop-opacity="0.99"/>
<stop offset="1" stop-color="#FFFEF6"/>
</radialGradient>
<radialGradient id="paint4_radial_1_8345" cx="0" cy="0" r="1" gradientUnits="userSpaceOnUse" gradientTransform="translate(4.3605 11.9366) rotate(39.8896) scale(2.22073 2.27606)">
<stop offset="0.81" stop-color="#C0A10F"/>
<stop offset="0.92" stop-color="#C0A10F"/>
<stop offset="0.96" stop-color="#C0A10F" stop-opacity="0"/>
</radialGradient>
<radialGradient id="paint5_radial_1_8345" cx="0" cy="0" r="1" gradientUnits="userSpaceOnUse" gradientTransform="translate(4.49289 12.0671) scale(2.16048)">
<stop offset="0.58" stop-color="#FCEC91" stop-opacity="0"/>
<stop offset="0.96" stop-color="#FCEEA6"/>
<stop offset="0.97" stop-color="#FCEEA3" stop-opacity="0.85"/>
<stop offset="0.98" stop-color="#FCED9A" stop-opacity="0.41"/>
<stop offset="0.99" stop-color="#FCEC91" stop-opacity="0"/>
</radialGradient>
<linearGradient id="paint6_linear_1_8345" x1="1.4979" y1="10.2932" x2="1.48144" y2="10.371" gradientUnits="userSpaceOnUse">
<stop offset="0.07" stop-color="#F9E38E"/>
<stop offset="0.2" stop-color="#F9E389"/>
<stop offset="0.36" stop-color="#F9E179"/>
<stop offset="0.54" stop-color="#F8DF60"/>
<stop offset="0.73" stop-color="#F7DC3C"/>
<stop offset="0.93" stop-color="#F6D80F"/>
<stop offset="0.99" stop-color="#F6D700"/>
</linearGradient>
<linearGradient id="paint7_linear_1_8345" x1="5.2281" y1="8.65533" x2="5.14356" y2="8.66132" gradientUnits="userSpaceOnUse">
<stop offset="0.08" stop-color="#C0A10F"/>
<stop offset="0.45" stop-color="#D1B00E"/>
<stop offset="0.98" stop-color="#F1CB0D"/>
</linearGradient>
<linearGradient id="paint8_linear_1_8345" x1="3.61354" y1="8.79188" x2="3.55031" y2="8.83453" gradientUnits="userSpaceOnUse">
<stop offset="0.08" stop-color="#C0A10F"/>
<stop offset="0.42" stop-color="#D1B10C"/>
<stop offset="0.98" stop-color="#F5D307"/>
</linearGradient>
<linearGradient id="paint9_linear_1_8345" x1="5.79302" y1="8.93703" x2="5.84876" y2="8.99876" gradientUnits="userSpaceOnUse">
<stop offset="0.07" stop-color="#F9E38E"/>
<stop offset="0.21" stop-color="#F9E289"/>
<stop offset="0.38" stop-color="#F8DF79"/>
<stop offset="0.57" stop-color="#F6DA60"/>
<stop offset="0.78" stop-color="#F4D43C"/>
<stop offset="0.99" stop-color="#F1CB0F"/>
<stop offset="1" stop-color="#F1CB0D"/>
</linearGradient>
<linearGradient id="paint10_linear_1_8345" x1="1.88546" y1="9.61641" x2="1.96216" y2="9.58349" gradientUnits="userSpaceOnUse">
<stop offset="0.07" stop-color="#F9E38E"/>
<stop offset="0.2" stop-color="#F9E389"/>
<stop offset="0.36" stop-color="#F9E279"/>
<stop offset="0.55" stop-color="#F8E060"/>
<stop offset="0.74" stop-color="#F8DD3C"/>
<stop offset="0.94" stop-color="#F7DA0F"/>
<stop offset="1" stop-color="#F7D900"/>
</linearGradient>
<linearGradient id="paint11_linear_1_8345" x1="2.40323" y1="9.31638" x2="2.35197" y2="9.38709" gradientUnits="userSpaceOnUse">
<stop offset="0.08" stop-color="#C0A10F"/>
<stop offset="0.41" stop-color="#D1B20A"/>
<stop offset="0.98" stop-color="#F7D900"/>
</linearGradient>
<linearGradient id="paint12_linear_1_8345" x1="3.11785" y1="9.004" x2="3.2009" y2="8.99652" gradientUnits="userSpaceOnUse">
<stop offset="0.07" stop-color="#F9E38E"/>
<stop offset="0.2" stop-color="#F9E289"/>
<stop offset="0.37" stop-color="#F8E179"/>
<stop offset="0.56" stop-color="#F8DE60"/>
<stop offset="0.76" stop-color="#F7D93C"/>
<stop offset="0.97" stop-color="#F5D40F"/>
<stop offset="1" stop-color="#F5D307"/>
</linearGradient>
<linearGradient id="paint13_linear_1_8345" x1="4.60524" y1="8.69948" x2="4.67745" y2="8.74138" gradientUnits="userSpaceOnUse">
<stop offset="0.07" stop-color="#F9E38E"/>
<stop offset="0.2" stop-color="#F9E289"/>
<stop offset="0.37" stop-color="#F8E179"/>
<stop offset="0.56" stop-color="#F8DE60"/>
<stop offset="0.76" stop-color="#F7D93C"/>
<stop offset="0.97" stop-color="#F5D40F"/>
<stop offset="1" stop-color="#F5D307"/>
</linearGradient>
<linearGradient id="paint14_linear_1_8345" x1="7.74702" y1="11.7406" x2="7.69839" y2="11.6658" gradientUnits="userSpaceOnUse">
<stop offset="0.08" stop-color="#C0A10F"/>
<stop offset="0.45" stop-color="#D1B00E"/>
<stop offset="0.98" stop-color="#F1CB0D"/>
</linearGradient>
<linearGradient id="paint15_linear_1_8345" x1="6.18437" y1="9.34181" x2="6.10918" y2="9.32311" gradientUnits="userSpaceOnUse">
<stop offset="0.08" stop-color="#C0A10F"/>
<stop offset="0.45" stop-color="#D1B00E"/>
<stop offset="0.98" stop-color="#F1CB0D"/>
</linearGradient>
<linearGradient id="paint16_linear_1_8345" x1="7.64485" y1="11.023" x2="7.64037" y2="11.1091" gradientUnits="userSpaceOnUse">
<stop offset="0.07" stop-color="#F9E38E"/>
<stop offset="0.21" stop-color="#F9E289"/>
<stop offset="0.38" stop-color="#F8DF79"/>
<stop offset="0.57" stop-color="#F6DA60"/>
<stop offset="0.77" stop-color="#F4D43C"/>
<stop offset="0.98" stop-color="#F1CB0F"/>
<stop offset="0.99" stop-color="#F1CB0D"/>
</linearGradient>
<linearGradient id="paint17_linear_1_8345" x1="7.64342" y1="13.0877" x2="7.64192" y2="13.0006" gradientUnits="userSpaceOnUse">
<stop offset="0.08" stop-color="#C0A10F"/>
<stop offset="0.45" stop-color="#D1B00E"/>
<stop offset="0.98" stop-color="#F1CB0D"/>
</linearGradient>
<linearGradient id="paint18_linear_1_8345" x1="7.69091" y1="12.6463" x2="7.65986" y2="12.7192" gradientUnits="userSpaceOnUse">
<stop stop-color="#A47A11"/>
<stop offset="0.19" stop-color="#AA8011"/>
<stop offset="0.44" stop-color="#B99010"/>
<stop offset="0.72" stop-color="#D3AB0F"/>
<stop offset="0.98" stop-color="#F1CB0D"/>
</linearGradient>
<linearGradient id="paint19_linear_1_8345" x1="7.30255" y1="10.185" x2="7.2296" y2="10.1282" gradientUnits="userSpaceOnUse">
<stop offset="0.08" stop-color="#C0A10F"/>
<stop offset="0.45" stop-color="#D1B00E"/>
<stop offset="0.98" stop-color="#F1CB0D"/>
</linearGradient>
<linearGradient id="paint20_linear_1_8345" x1="6.91388" y1="9.74922" x2="6.94493" y2="9.81955" gradientUnits="userSpaceOnUse">
<stop offset="0.07" stop-color="#F9E38E"/>
<stop offset="0.21" stop-color="#F9E289"/>
<stop offset="0.38" stop-color="#F8DF79"/>
<stop offset="0.57" stop-color="#F6DA60"/>
<stop offset="0.78" stop-color="#F4D43C"/>
<stop offset="0.99" stop-color="#F1CB0F"/>
<stop offset="1" stop-color="#F1CB0D"/>
</linearGradient>
<linearGradient id="paint21_linear_1_8345" x1="2.78452" y1="14.9923" x2="2.8657" y2="15.0065" gradientUnits="userSpaceOnUse">
<stop offset="0.07" stop-color="#F9E38E"/>
<stop offset="0.21" stop-color="#F9E289"/>
<stop offset="0.38" stop-color="#F8DF79"/>
<stop offset="0.57" stop-color="#F6DA60"/>
<stop offset="0.77" stop-color="#F4D43C"/>
<stop offset="0.98" stop-color="#F1CB0F"/>
<stop offset="0.99" stop-color="#F1CB0D"/>
</linearGradient>
<linearGradient id="paint22_linear_1_8345" x1="7.12229" y1="14.0309" x2="7.05271" y2="14.0589" gradientUnits="userSpaceOnUse">
<stop stop-color="#A47A11"/>
<stop offset="0.19" stop-color="#AA8011"/>
<stop offset="0.44" stop-color="#B99010"/>
<stop offset="0.72" stop-color="#D3AB0F"/>
<stop offset="0.98" stop-color="#F1CB0D"/>
</linearGradient>
<linearGradient id="paint23_linear_1_8345" x1="3.24953" y1="15.3657" x2="3.1792" y2="15.3088" gradientUnits="userSpaceOnUse">
<stop stop-color="#A47A11"/>
<stop offset="0.19" stop-color="#AA8011"/>
<stop offset="0.44" stop-color="#B99010"/>
<stop offset="0.72" stop-color="#D3AB0F"/>
<stop offset="0.98" stop-color="#F1CB0D"/>
</linearGradient>
<linearGradient id="paint24_linear_1_8345" x1="4.58348" y1="15.3189" x2="4.50417" y2="15.2916" gradientUnits="userSpaceOnUse">
<stop stop-color="#A47A11"/>
<stop offset="0.19" stop-color="#AA8011"/>
<stop offset="0.44" stop-color="#B99010"/>
<stop offset="0.72" stop-color="#D3AB0F"/>
<stop offset="0.98" stop-color="#F1CB0D"/>
</linearGradient>
<linearGradient id="paint25_linear_1_8345" x1="4.03627" y1="15.32" x2="4.11408" y2="15.295" gradientUnits="userSpaceOnUse">
<stop offset="0.08" stop-color="#C0A10F"/>
<stop offset="0.45" stop-color="#D1B00E"/>
<stop offset="0.98" stop-color="#F1CB0D"/>
</linearGradient>
<linearGradient id="paint26_linear_1_8345" x1="5.39343" y1="15.3997" x2="5.46077" y2="15.3469" gradientUnits="userSpaceOnUse">
<stop offset="0.08" stop-color="#C0A10F"/>
<stop offset="0.45" stop-color="#D1B00E"/>
<stop offset="0.98" stop-color="#F1CB0D"/>
</linearGradient>
<linearGradient id="paint27_linear_1_8345" x1="6.62362" y1="14.4689" x2="6.66552" y2="14.4038" gradientUnits="userSpaceOnUse">
<stop offset="0.08" stop-color="#C0A10F"/>
<stop offset="0.45" stop-color="#D1B00E"/>
<stop offset="0.98" stop-color="#F1CB0D"/>
</linearGradient>
<linearGradient id="paint28_linear_1_8345" x1="5.9536" y1="15.0241" x2="5.86718" y2="15.0335" gradientUnits="userSpaceOnUse">
<stop stop-color="#A47A11"/>
<stop offset="0.19" stop-color="#AA8011"/>
<stop offset="0.44" stop-color="#B99010"/>
<stop offset="0.72" stop-color="#D3AB0F"/>
<stop offset="0.98" stop-color="#F1CB0D"/>
</linearGradient>
<linearGradient id="paint29_linear_1_8345" x1="1.34117" y1="13.3634" x2="1.33182" y2="13.2886" gradientUnits="userSpaceOnUse">
<stop offset="0.08" stop-color="#C0A10F"/>
<stop offset="0.45" stop-color="#D1B00E"/>
<stop offset="0.98" stop-color="#F1CB0D"/>
</linearGradient>
<linearGradient id="paint30_linear_1_8345" x1="0.973422" y1="12.2744" x2="0.998487" y2="12.2015" gradientUnits="userSpaceOnUse">
<stop offset="0.08" stop-color="#C0A10F"/>
<stop offset="0.45" stop-color="#D1B00E"/>
<stop offset="0.98" stop-color="#F1CB0D"/>
</linearGradient>
<linearGradient id="paint31_linear_1_8345" x1="1.11296" y1="11.7166" x2="1.12755" y2="11.793" gradientUnits="userSpaceOnUse">
<stop offset="0.07" stop-color="#F9E38E"/>
<stop offset="0.2" stop-color="#F9E289"/>
<stop offset="0.37" stop-color="#F8E079"/>
<stop offset="0.56" stop-color="#F7DD60"/>
<stop offset="0.76" stop-color="#F6D93C"/>
<stop offset="0.97" stop-color="#F4D30F"/>
<stop offset="0.99" stop-color="#F4D209"/>
</linearGradient>
<linearGradient id="paint32_linear_1_8345" x1="2.06172" y1="14.4076" x2="2.02281" y2="14.3283" gradientUnits="userSpaceOnUse">
<stop stop-color="#A47A11"/>
<stop offset="0.19" stop-color="#AA8011"/>
<stop offset="0.44" stop-color="#B99010"/>
<stop offset="0.72" stop-color="#D3AB0F"/>
<stop offset="0.98" stop-color="#F1CB0D"/>
</linearGradient>
<linearGradient id="paint33_linear_1_8345" x1="1.07219" y1="12.9856" x2="1.11371" y2="13.0548" gradientUnits="userSpaceOnUse">
<stop offset="0.07" stop-color="#F9E38E"/>
<stop offset="0.21" stop-color="#F9E289"/>
<stop offset="0.38" stop-color="#F8DF79"/>
<stop offset="0.57" stop-color="#F6DA60"/>
<stop offset="0.77" stop-color="#F4D43C"/>
<stop offset="0.98" stop-color="#F1CB0F"/>
<stop offset="0.99" stop-color="#F1CB0D"/>
</linearGradient>
<linearGradient id="paint34_linear_1_8345" x1="1.70183" y1="14.0005" x2="1.76805" y2="14.0525" gradientUnits="userSpaceOnUse">
<stop offset="0.07" stop-color="#F9E38E"/>
<stop offset="0.21" stop-color="#F9E289"/>
<stop offset="0.38" stop-color="#F8DF79"/>
<stop offset="0.57" stop-color="#F6DA60"/>
<stop offset="0.77" stop-color="#F4D43C"/>
<stop offset="0.98" stop-color="#F1CB0F"/>
<stop offset="0.99" stop-color="#F1CB0D"/>
</linearGradient>
<linearGradient id="paint35_linear_1_8345" x1="1.39353" y1="10.8667" x2="1.44927" y2="10.8091" gradientUnits="userSpaceOnUse">
<stop offset="0.08" stop-color="#C0A10F"/>
<stop offset="0.42" stop-color="#D1B10C"/>
<stop offset="0.98" stop-color="#F5D307"/>
</linearGradient>
<linearGradient id="paint36_linear_1_8345" x1="14.0751" y1="7.75904" x2="14.0751" y2="13.0555" gradientUnits="userSpaceOnUse">
<stop stop-color="#4196D1"/>
<stop offset="1" stop-color="#41C7F4"/>
</linearGradient>
<linearGradient id="paint37_linear_1_8345" x1="14.0751" y1="7.75904" x2="14.0751" y2="13.0555" gradientUnits="userSpaceOnUse">
<stop stop-color="#4196D1"/>
<stop offset="1" stop-color="#41C7F4"/>
</linearGradient>
<linearGradient id="paint38_linear_1_8345" x1="14.0751" y1="7.75904" x2="14.0751" y2="13.0555" gradientUnits="userSpaceOnUse">
<stop stop-color="#4196D1"/>
<stop offset="1" stop-color="#41C7F4"/>
</linearGradient>
<linearGradient id="paint39_linear_1_8345" x1="14.0751" y1="7.75904" x2="14.0751" y2="13.0555" gradientUnits="userSpaceOnUse">
<stop stop-color="#4196D1"/>
<stop offset="1" stop-color="#41C7F4"/>
</linearGradient>
<clipPath id="clip0_1_8345">
<rect width="36" height="24" fill="white"/>
</clipPath>
</defs>
</svg>
