<svg width="36" height="24" viewBox="0 0 36 24" fill="none" xmlns="http://www.w3.org/2000/svg">
<path d="M2.61911 15.2422L2.2859 15.9002C2.2859 15.9002 1.92609 15.6502 1.55323 15.6502C1.27341 15.6502 1.12324 15.7776 1.12324 15.9748C1.12324 16.1768 1.46532 16.3216 1.87782 16.4969C2.28147 16.6681 2.72451 17.0099 2.72451 17.484C2.72451 18.3484 2.06647 18.6499 1.36016 18.6499C0.51347 18.6499 0 18.1717 0 18.1717L0.412501 17.4784C0.412501 17.4784 0.895191 17.8865 1.2986 17.8865C1.47862 17.8865 1.8207 17.869 1.8207 17.5311C1.8207 17.2678 1.43478 17.1494 1.00455 16.9346C0.570134 16.7196 0.31573 16.3817 0.31573 16.0044C0.31573 15.3282 0.912447 14.8989 1.49587 14.8989C1.89568 14.9018 2.286 15.0211 2.61911 15.2422Z" fill="#221E20"/>
<path d="M6.04108 17.8613H7.28698V18.5841H5.21631V14.9658H6.04108V17.8613Z" fill="#221E20"/>
<path d="M11.1124 14.9001C12.1172 14.9001 12.9331 15.7163 12.9331 16.7733C12.9331 17.8303 12.1521 18.6511 11.1124 18.6511C10.0421 18.6511 9.28748 17.8308 9.28748 16.7733C9.28748 15.7158 10.1164 14.9001 11.1124 14.9001ZM11.1124 17.8527C11.7704 17.8527 12.0425 17.3131 12.0425 16.7733C12.0425 16.2335 11.7529 15.6941 11.1124 15.6941C10.4762 15.6941 10.178 16.2337 10.178 16.7733C10.178 17.3129 10.4368 17.8527 11.1124 17.8527Z" fill="#221E20"/>
<path d="M14.8599 14.9658H17.4044V15.6887H16.5437V18.5853H15.7189V15.6896H14.8599V14.9658Z" fill="#221E20"/>
<path d="M22.6284 16.44H22.6065L21.865 18.5634H21.3736L20.6323 16.44H20.6104L20.4393 18.5853H19.6145L19.9391 14.9658H20.8166L21.6194 17.0542L22.4223 14.9658H23.2997L23.6243 18.5853H22.7996L22.6284 16.44Z" fill="#221E20"/>
<path d="M27.0637 18.5853H26.2391V14.9658H27.0641L27.0637 18.5853Z" fill="#221E20"/>
<path d="M30.7836 17.8613H32.0298V18.5841H29.9589V14.9658H30.7836V17.8613Z" fill="#221E20"/>
<path d="M34.7541 17.8613H36V18.5841H33.9291V14.9658H34.7541V17.8613Z" fill="#221E20"/>
<path d="M21.7542 8.76365C21.7511 8.61955 21.7075 8.41271 21.6772 8.29006C21.6581 8.21381 21.7005 8.24785 21.743 8.37634C21.701 8.1807 21.6336 7.97083 21.6189 7.97083C21.6042 7.97083 21.6124 8.00115 21.6094 8.01374C21.5982 7.98622 21.5828 7.92046 21.5644 7.87383C21.541 7.81693 21.5177 7.78359 21.5341 7.83535C21.5658 7.92863 21.6891 8.42554 21.7024 8.51345C21.6891 8.46681 21.6744 8.41225 21.6639 8.3754C21.5467 7.96074 21.3824 7.56087 21.1743 7.1836C21.1896 7.1969 21.1976 7.20296 21.2067 7.21182C21.209 7.19037 21.2104 7.17334 21.2134 7.14606C21.2547 7.20576 21.2908 7.25682 21.3265 7.30929C21.2533 7.11342 21.1232 6.94879 21.0162 6.7788C21.0117 6.78626 21.008 6.79209 21.0022 6.80095C20.8788 6.63026 20.7132 6.48779 20.6459 6.28608C20.6431 6.29494 20.6407 6.30007 20.6386 6.3066C20.6298 6.20703 20.4987 6.26533 20.5129 6.16273C20.5883 6.20167 20.7139 6.3045 20.7746 6.35977C20.8352 6.41503 20.8609 6.41527 20.8823 6.4176C20.9038 6.41993 20.8609 6.38495 20.8734 6.37399C20.8898 6.35977 21.0509 6.57336 21.1327 6.6657C20.9061 6.159 20.3017 5.97432 19.8768 5.64996C18.7627 4.92709 17.2652 4.74054 16.072 5.43263C16.0188 5.46364 15.9463 5.50958 15.9153 5.5301C15.8843 5.55062 15.9523 5.5287 15.9551 5.53173C15.9227 5.55505 15.8938 5.57371 15.8591 5.59819C15.8243 5.62268 15.8982 5.60472 15.8824 5.61661C15.8665 5.62851 15.7987 5.72015 15.8875 5.66162C15.9764 5.60309 16.0766 5.53686 16.1298 5.53686C16.183 5.53686 15.9178 5.6861 15.8201 5.74953C15.6674 5.84933 15.5315 5.93794 15.4442 5.99927C15.371 6.05103 15.2957 6.1035 15.2794 6.09254C15.2507 6.07109 15.3533 5.98691 15.3659 5.96779C15.3857 5.93747 15.2551 6.02165 15.2852 5.98994C15.3812 5.89479 15.4824 5.80503 15.5883 5.72108C15.662 5.66488 15.708 5.63154 15.7063 5.60799C15.7047 5.58443 15.6303 5.62268 15.5506 5.66628C14.9725 5.98201 14.7724 6.65241 14.5101 7.20832C14.5334 7.20692 14.553 7.20529 14.5824 7.20319C14.5204 7.33541 14.4425 7.45293 14.4297 7.59634C14.459 7.57489 14.4763 7.54527 14.5108 7.53408C14.5248 7.58072 14.4982 7.62362 14.4875 7.66793C14.4907 7.66873 14.4939 7.66974 14.497 7.67096C14.5148 7.62432 14.5325 7.57629 14.5495 7.52965C14.5642 7.53128 14.5761 7.53198 14.591 7.53338C14.5421 7.88735 14.5045 8.23829 14.4084 8.5848L14.4129 8.58037C14.3301 8.83524 14.4388 9.08708 14.4061 9.35827H14.3965C14.3732 9.22536 14.3266 9.09524 14.3553 8.95556C14.3508 8.96163 14.3464 8.96746 14.3352 8.98075C14.3315 8.94297 14.3271 8.90753 14.3236 8.87372C14.3205 8.84783 14.2865 8.84783 14.2888 8.87069C14.3014 9.01246 14.2681 9.15214 14.3121 9.29625C14.318 9.27619 14.3231 9.25567 14.3261 9.24611C14.3711 9.45947 14.4856 9.97294 14.4546 9.90788C14.4236 9.84283 14.4052 9.75142 14.38 9.67307C14.4119 9.95149 14.5115 10.2145 14.612 10.4738C14.6038 10.4738 14.581 10.4554 14.5633 10.4141C14.553 10.3889 14.5264 10.3896 14.5309 10.4053C14.5576 10.473 14.5882 10.5391 14.6225 10.6032C14.6083 10.5589 14.5929 10.5058 14.5973 10.4983C14.66 10.5722 14.7274 10.7177 14.7694 10.7954C14.8114 10.873 14.9609 11.1382 14.8627 10.9992C14.7645 10.8602 14.5532 10.5795 14.452 10.3409C14.4217 10.271 14.404 10.1658 14.3891 10.1651C14.3742 10.1644 14.3774 10.1968 14.3751 10.2087C14.3655 10.1954 14.3639 10.1303 14.3518 10.1348C14.331 10.1422 14.4108 10.4281 14.3872 10.3889C14.3637 10.3498 14.3208 10.1709 14.3112 10.1177C14.3191 10.2322 14.3525 10.3365 14.3494 10.3645C14.2534 10.2124 14.297 10.0483 14.297 9.96805C14.2982 10.0144 14.3072 10.0602 14.3236 10.1035C14.3119 10.0149 14.3296 9.92094 14.3259 9.89366C14.3222 9.86638 14.2844 9.88853 14.2867 9.92094C14.2793 9.90392 14.2772 9.87431 14.2676 9.87664C14.258 9.87897 14.2587 9.90998 14.2571 9.9291C14.252 9.92164 14.2513 9.90835 14.2454 9.91278C14.2396 9.91721 14.2431 9.99486 14.2247 9.98274C14.2142 9.97691 14.2247 9.91278 14.2247 9.85495C14.2247 9.80249 14.2179 9.75748 14.2077 9.76168C14.1855 9.76891 14.2039 9.79549 14.1974 9.87687C14.1913 9.95079 14.1275 9.84353 14.1331 9.8925C14.1351 9.91022 14.116 9.96781 14.1307 10.035C14.1454 10.1021 14.1279 10.2033 14.1449 10.1849C14.162 10.1665 14.1552 10.1553 14.1683 10.1457C14.172 10.1509 14.1697 10.1665 14.1792 10.1614C14.1888 10.1562 14.1867 10.1348 14.1918 10.1164C14.4775 11.7824 16.0258 12.5478 17.5088 13.0022L17.4809 13.0146C19.2829 13.362 21.132 11.9186 21.6203 10.2605C21.6329 10.2169 21.6625 10.0476 21.6826 9.92561C21.6168 10.1443 21.5709 10.1385 21.5723 10.1229C21.59 9.97667 21.6101 9.87687 21.6469 9.80902C21.7528 9.64346 21.6877 9.22163 21.6551 9.20017C21.6301 9.18385 21.6203 9.22093 21.6182 9.22093C21.6213 9.18758 21.6301 9.07752 21.6049 9.13068C21.5856 9.16986 21.6516 10.1422 21.3212 10.5582C21.3079 10.2952 21.4496 10.0431 21.5266 9.78756C21.5246 9.78705 21.5226 9.78627 21.5208 9.78523C21.5007 9.81718 21.4816 9.84959 21.4601 9.88503C21.4578 9.87477 21.4557 9.86731 21.4541 9.86171C21.4275 9.8771 21.4308 9.92141 21.3892 9.92374C21.3988 9.86964 21.4084 9.81881 21.4172 9.76774C21.2036 10.1558 21.1299 10.6478 20.8417 11.0052C20.7923 11.0666 20.8809 10.8546 20.9327 10.7119C20.9793 10.5864 20.9702 10.5303 20.8839 10.6886C20.7825 10.8733 20.595 11.0995 20.4409 11.2426C19.8943 11.7496 19.2603 12.2045 18.4803 12.232V12.2372H18.5488C17.9948 12.3013 17.3512 12.2511 16.837 12.0133C16.8378 12.0115 16.8389 12.0097 16.8401 12.0082C16.9124 12.0341 17.066 12.1152 17.0602 12.0767C17.0579 12.0606 16.8636 12.0007 16.6598 11.9053C16.3812 11.7745 16.068 11.5987 16.0473 11.5817C16.0111 11.5523 16.0841 11.6283 16.0813 11.6306C15.6893 11.3569 15.4165 10.9197 15.2076 10.4766C15.1758 10.4102 15.1224 10.3614 15.091 10.2868C15.0688 10.2334 15.0579 10.1345 15.0637 10.1257C15.0889 10.0842 15.0275 10.0429 15.032 10.1094C15.0489 10.2027 15.0723 10.2948 15.1019 10.385C15.1138 10.4183 15.0746 10.3502 15.0597 10.3104C14.9609 10.0452 14.952 9.99789 14.9305 9.90252C14.9305 10.1723 15.1315 10.5993 15.1626 10.6739C15.1196 10.6443 15.0576 10.5594 15.0287 10.4729C15.0576 10.5748 15.0879 10.6594 15.0856 10.693C14.9394 10.4323 14.8235 9.86918 14.7878 9.86918C14.7522 9.86918 14.7878 9.95872 14.7916 10.0007C14.7067 9.87291 14.6516 9.4681 14.6838 9.36457C14.7071 8.90217 14.779 8.42857 14.9403 7.99275C14.9403 7.99275 14.9403 7.99042 14.9403 7.98972C14.9403 7.98902 14.9424 7.98389 14.9431 7.98086C15.083 7.6108 15.2859 7.26802 15.5786 6.98423C15.5765 6.98283 15.5741 6.9805 15.572 6.9791C15.5203 7.02574 15.4692 7.06981 15.4174 7.11505C15.4774 6.91544 15.6937 6.81191 15.7737 6.63469L15.7632 6.62816C15.8061 6.58899 15.8497 6.54981 15.8992 6.50388C15.812 6.54398 15.7693 6.63539 15.6709 6.64145C15.922 6.35697 16.2907 6.11399 16.57 5.94913C16.5442 5.96476 16.5467 6.01489 16.5973 6.03261C16.644 6.04893 16.6801 5.96266 16.7414 5.93934C17.1227 5.78707 17.5343 5.80549 17.9111 5.87801C17.506 5.7332 16.9874 5.77751 16.8753 5.80409C16.997 5.74346 17.1759 5.75093 17.2446 5.7472C18.4157 5.68657 19.5282 6.45351 20.2072 7.38438C20.245 7.43614 20.3238 7.5595 20.3534 7.65044C20.366 7.68868 20.4362 7.81227 20.4607 7.79431C20.4852 7.77636 20.4458 7.67772 20.3964 7.61942C20.3285 7.53874 20.2877 7.44057 20.2035 7.289C20.2819 7.38228 20.3434 7.45456 20.4096 7.53431C20.256 7.26685 19.8703 6.87977 19.8297 6.7697C20.0515 6.93153 20.2205 7.1414 20.3616 7.36968C20.488 7.57489 20.6158 7.84608 20.6934 8.01024C20.6987 8.02273 20.7048 8.03481 20.7118 8.04638C20.7053 8.02306 20.5967 7.76936 20.5953 7.76936C20.5295 7.5609 20.4141 7.36362 20.3173 7.16122C20.3803 7.21508 20.3721 7.21602 20.3905 7.19899C20.4089 7.18197 20.2863 7.0304 20.2634 6.93223C20.3432 7.05629 20.4229 7.18127 20.5071 7.31349C20.488 7.26685 20.4726 7.22628 20.4563 7.1864C20.4584 7.1864 20.4607 7.18407 20.4628 7.18337C20.5626 7.3068 20.6619 7.43023 20.7606 7.55367C20.6689 7.36292 20.5169 7.20716 20.426 7.02248L20.4423 7.01431C20.5272 7.15422 20.7142 7.33051 20.7555 7.38438C20.7967 7.43824 20.6675 7.21229 20.7214 7.27431C20.7753 7.33634 20.8581 7.45456 20.876 7.48045C20.894 7.50633 20.9077 7.50703 20.8849 7.47368L20.6232 7.09779L20.6321 7.09103C20.8553 7.38134 21.0672 7.68658 21.1917 8.03239C21.0602 7.51006 20.6787 7.09616 20.37 6.66617C20.5267 6.79046 20.6347 6.95672 20.7664 7.10152C20.769 7.09928 20.7717 7.09725 20.7746 7.09546C20.7559 7.06142 20.7375 7.02691 20.7191 6.99286C21.0124 7.24773 21.2111 7.96057 21.2302 8.00721C21.2493 8.05384 21.2169 7.91044 21.1948 7.81297C21.1726 7.7155 21.2104 7.74301 21.2097 7.80994C21.209 7.87686 21.3116 8.07367 21.251 8.1779C21.2458 8.16974 21.2414 8.16158 21.2325 8.14619C21.282 8.29612 21.2636 8.45119 21.3219 8.58923C21.3501 8.82055 21.3344 9.05187 21.3219 9.28155H21.3293C21.3382 9.2116 21.3477 9.13978 21.3566 9.06959H21.3662V9.15144C21.3795 9.02529 21.3573 8.88701 21.4032 8.77112C21.4114 8.83827 21.4193 8.90543 21.4282 8.97212C21.4334 8.97194 21.4386 8.97139 21.4438 8.97049C21.4711 8.68834 21.4408 8.40758 21.4121 8.12683C21.4165 8.12683 21.4203 8.12683 21.4238 8.12543C21.4298 8.16367 21.4357 8.20145 21.4424 8.24809C21.4496 8.23013 21.4534 8.22057 21.4585 8.20891C21.4925 8.29892 21.5051 8.39546 21.5641 8.47194C21.5464 8.36841 21.5709 8.26931 21.5716 8.16601C21.6182 8.28493 21.6416 8.51252 21.6499 8.53327C21.6583 8.55402 21.6602 8.51695 21.6574 8.50995C21.6898 8.60602 21.7134 8.89191 21.715 8.8476C21.7177 8.75469 21.7145 8.66169 21.7054 8.56918C21.7268 8.6326 21.7431 8.69763 21.7542 8.76365ZM20.7471 11.4327C20.6874 11.477 20.6806 11.4777 20.7545 11.386C20.8284 11.2944 20.9903 11.0363 21.0516 10.9257C21.1129 10.8152 21.0404 11.0617 21.0966 10.9605C21.1528 10.8593 21.1913 10.8119 21.2561 10.569C21.2622 10.6457 21.1824 10.9567 21.0803 11.1319C20.9781 11.307 20.7818 11.5138 20.7072 11.5994C20.6326 11.685 20.8431 11.4059 20.9201 11.3107C20.9756 11.2442 21.022 11.1707 21.0581 11.092C20.9807 11.1995 20.8061 11.3872 20.7471 11.4327ZM15.2505 10.8663C15.3437 11.1228 15.7343 11.5141 15.9227 11.6139C15.6131 11.4809 15.3549 11.2979 15.3118 11.213C15.284 11.1587 15.329 11.1689 15.3692 11.2165C15.4041 11.2622 15.4479 11.3003 15.4981 11.3284C15.3414 11.1267 15.2717 10.9945 15.2505 10.8663ZM16.4723 5.45082C16.3791 5.4795 16.2965 5.50538 16.4045 5.44709C16.5013 5.39532 16.7153 5.3193 16.7543 5.35988C16.7932 5.40045 16.5647 5.42121 16.4723 5.45082ZM19.6635 6.44441C19.8526 6.47846 19.8829 6.69415 19.9465 6.75408C19.8281 6.64472 19.7101 6.52346 19.6635 6.44441ZM20.2413 6.7282C20.2157 6.70423 20.1968 6.6739 20.1867 6.64029C20.2259 6.67776 20.2624 6.71797 20.2959 6.76061C20.3075 6.7746 20.2795 6.76061 20.2411 6.7282H20.2413Z" fill="#BD1F2D"/>
<path d="M14.8701 8.34125L14.945 7.98145L14.9548 7.98354L14.8848 8.34824L14.8701 8.34125Z" fill="#BD1F2D"/>
<path d="M14.4096 8.58492C14.4026 8.49236 14.4091 8.39927 14.4289 8.30859H14.4387C14.4289 8.40047 14.4192 8.49226 14.4096 8.58398V8.58492Z" fill="#BD1F2D"/>
<path d="M20.9954 10.3913C20.9674 10.4433 20.9329 10.5413 20.9954 10.4881C21.0579 10.435 21.0236 10.3384 20.9954 10.3913Z" fill="#BD1F2D"/>
<path d="M21.4776 9.71447C21.5009 9.65337 21.4816 9.52792 21.5124 9.6037C21.5431 9.67949 21.4422 9.81147 21.4776 9.71447Z" fill="#BD1F2D"/>
<path d="M14.1253 9.85891C14.144 9.89622 14.13 9.69125 14.099 9.69288C14.068 9.69451 14.0542 9.7162 14.068 9.77589C14.0817 9.83559 14.1104 9.82906 14.1253 9.85891Z" fill="#BD1F2D"/>
<path d="M14.1784 9.65687C14.1684 9.63075 14.1318 9.54727 14.1439 9.52978C14.156 9.51229 14.1726 9.51952 14.1843 9.55753C14.1959 9.59554 14.1901 9.68671 14.1784 9.65687Z" fill="#BD1F2D"/>
<path d="M14.7272 9.7108C14.7312 9.69471 14.747 9.64294 14.7363 9.63524C14.7256 9.62755 14.7151 9.63361 14.7116 9.65646C14.7081 9.67932 14.7228 9.72898 14.7272 9.7108Z" fill="#BD1F2D"/>
<path d="M14.2069 9.44735C14.2381 9.44525 14.2157 9.48419 14.1992 9.49935C14.1905 9.50751 14.171 9.45061 14.2069 9.44735Z" fill="#BD1F2D"/>
<path d="M14.3028 9.80616C14.3275 9.81246 14.3108 9.83554 14.2982 9.84254C14.2912 9.84697 14.2741 9.79893 14.3028 9.80616Z" fill="#BD1F2D"/>
<path d="M20.7827 7.99011C20.7594 7.93368 20.8216 8.047 20.8603 8.15333C20.8836 8.21606 20.9044 8.26853 20.8932 8.30047C20.8736 8.35737 20.8377 8.12139 20.7827 7.99011Z" fill="#BD1F2D"/>
<path d="M20.8379 7.67379C20.879 7.74911 20.9051 7.78922 20.9214 7.78223C20.9377 7.77523 20.9447 7.74072 20.9214 7.71064C20.8981 7.68056 20.8146 7.63182 20.8379 7.67379Z" fill="#BD1F2D"/>
<path d="M20.9856 7.80054C20.9956 7.83062 21.049 7.81709 21.0264 7.78631C21.0038 7.75553 20.9749 7.76766 20.9856 7.80054Z" fill="#BD1F2D"/>
<path d="M21.5146 9.45398C21.5172 9.48103 21.4659 9.4801 21.474 9.44978C21.4822 9.41947 21.5118 9.42413 21.5146 9.45398Z" fill="#BD1F2D"/>
<path d="M21.6635 9.92127C21.6754 9.88046 21.638 9.87464 21.6346 9.91148C21.6311 9.94832 21.6516 9.96208 21.6635 9.92127Z" fill="#BD1F2D"/>
<path d="M21.414 9.70071C21.4249 9.75527 21.3501 9.80051 21.354 9.72962C21.358 9.65873 21.4018 9.64078 21.414 9.70071Z" fill="#BD1F2D"/>
<path d="M15.7049 5.54011C15.738 5.52029 15.8082 5.48741 15.7981 5.46573C15.7881 5.44404 15.7298 5.48625 15.7049 5.51003C15.6799 5.53381 15.6718 5.55993 15.7049 5.54011Z" fill="#BD1F2D"/>
<path d="M15.0231 10.0335C15.0026 10.0228 15.0196 9.99759 15.0324 10.0058C15.0453 10.0139 15.0502 10.0482 15.0231 10.0335Z" fill="#BD1F2D"/>
<path d="M20.5528 7.83308C20.5339 7.83705 20.5511 7.89161 20.5728 7.88392C20.5945 7.87622 20.5742 7.82842 20.5528 7.83308Z" fill="#BD1F2D"/>
<path d="M20.8377 7.55215C20.8188 7.55635 20.8256 7.58503 20.8473 7.57734C20.8689 7.56964 20.8594 7.54749 20.8377 7.55215Z" fill="#BD1F2D"/>
<path d="M20.775 7.89253C20.7678 7.86688 20.8424 7.93264 20.8238 7.96388C20.8051 7.99513 20.7862 7.9331 20.775 7.89253Z" fill="#BD1F2D"/>
<path d="M16.4852 6.08421C16.456 6.09866 16.4239 6.12105 16.4574 6.12921C16.4713 6.13344 16.4863 6.1322 16.4993 6.12574C16.5123 6.11928 16.5224 6.10809 16.5274 6.09447C16.5346 6.06952 16.5155 6.06952 16.4852 6.08421Z" fill="#BD1F2D"/>
</svg>
