<svg width="36" height="24" viewBox="0 0 36 24" fill="none" xmlns="http://www.w3.org/2000/svg">
<path d="M2.59816 9.52837C2.26452 9.64195 1.88118 10.004 1.69661 10.366C1.41266 10.9055 1.54754 11.7645 1.97347 12.2117C2.3426 12.6021 2.65495 12.7086 3.5636 12.7512C4.34446 12.7938 4.40835 12.808 4.58582 12.9784C4.82008 13.2197 4.88397 13.6457 4.7278 13.9509C4.50774 14.3768 4.41545 14.391 2.09415 14.391H0V14.8258V15.25L2.22192 15.2287C4.35156 15.2074 4.45095 15.2003 4.7278 15.0512C5.65064 14.5543 5.94169 13.4114 5.33829 12.6163C4.91947 12.0697 4.52903 11.9065 3.59909 11.9065C2.87501 11.9065 2.62655 11.8071 2.44908 11.4379C2.31421 11.154 2.31421 10.9623 2.44199 10.7068C2.64785 10.3234 2.68335 10.3092 4.21668 10.2737L5.68614 10.2205V9.8212V9.42189H4.28057C3.27254 9.42899 2.79693 9.45738 2.59816 9.52837Z" fill="#F26822"/>
<path d="M6.67322 12.3324V15.2429H7.09915H7.52507V14.3982V13.5534L8.25625 13.525C9.07971 13.4895 9.37786 13.3759 9.80379 12.9216C10.2297 12.4815 10.393 12.0911 10.393 11.5161C10.393 10.863 10.1871 10.3802 9.7186 9.96142C9.20749 9.50709 8.89514 9.42191 7.68835 9.42191H6.67322V12.3324ZM9.07971 10.4796C9.54113 10.8062 9.7115 11.5232 9.44885 12.0343C9.18619 12.5525 8.78866 12.7512 8.00779 12.7583H7.52507V11.509V10.2596L8.18526 10.288C8.73897 10.3022 8.87384 10.3377 9.07971 10.4796Z" fill="#F26822"/>
<path d="M11.2163 12.3324V15.2429H11.6067H11.9972V12.3324V9.42191H11.6067H11.2163V12.3324Z" fill="#F26822"/>
<path d="M13.1329 12.3395V15.25H13.5589L13.9848 15.25L13.999 13.3191L14.0203 11.3954L15.8305 13.0991C16.8243 14.0361 17.7472 14.888 17.8749 14.9944L18.1021 15.1932V12.3111V9.42899H17.6762H17.2502L17.236 11.3457L17.2147 13.2623L15.1774 11.3457L13.1329 9.42189V12.3395Z" fill="#F26822"/>
<path d="M26.053 12.2863V15.2039H26.4789H26.9048V14.352V13.5001H27.1036C27.274 13.5001 27.3876 13.6208 27.9342 14.352L28.566 15.2039H29.0842H29.6024L28.9635 14.3378L28.3246 13.4718L28.6511 13.3156C29.0771 13.1097 29.361 12.8329 29.5882 12.3998C29.8437 11.9029 29.8579 11.0724 29.6095 10.5612C29.4036 10.1495 29.0629 9.79458 28.6582 9.58161C28.3885 9.43964 28.2394 9.41834 27.2101 9.39704L26.053 9.36865V12.2863ZM28.4524 10.4335C29.1835 10.9588 29.0984 12.1372 28.3033 12.556C28.1684 12.627 27.8419 12.6838 27.494 12.7051L26.9048 12.7406V11.477V10.2205L27.565 10.2489C28.1116 10.2631 28.2536 10.2986 28.4524 10.4335Z" fill="#F26822"/>
<path d="M32.2287 9.53955C30.8728 9.99387 30.021 11.3497 30.2339 12.7198C30.4327 14.0047 31.3627 14.9488 32.6475 15.1689C33.8827 15.389 35.1534 14.7217 35.7213 13.5433C35.9414 13.096 35.9999 12.6151 35.9999 12.2513C35.9999 11.8875 35.9414 11.5414 35.7284 11.1013C35.4374 10.4837 34.9191 9.96548 34.3158 9.68152C33.7124 9.39757 32.8321 9.34078 32.2287 9.53955ZM33.8117 10.3772C34.2448 10.5263 34.7275 10.9593 34.9546 11.4136C35.0966 11.6976 35.1392 11.8892 35.1392 12.2513C35.1392 13.167 34.763 13.7775 33.9679 14.1751C33.5491 14.3809 33.4639 14.3951 32.9954 14.3667C32.3991 14.3241 32.037 14.168 31.6466 13.7704C30.6457 12.7695 30.9083 11.1155 32.1648 10.4837C32.6759 10.2281 33.2651 10.1926 33.8117 10.3772Z" fill="#F26822"/>
<path fill-rule="evenodd" clip-rule="evenodd" d="M22.8081 8.83235C22.1977 8.72908 21.6057 8.78776 21.0322 9.00839C20.7225 9.11706 20.445 9.27766 20.1997 9.49019C20.0187 9.6406 19.8645 9.81355 19.7373 10.009C19.6381 10.1459 19.5579 10.2941 19.4968 10.4538C19.4257 10.5995 19.3764 10.7539 19.3488 10.9171C19.3244 11.008 19.3059 11.1006 19.2933 11.195C19.2792 11.3366 19.273 11.4787 19.2748 11.6212C19.2796 11.7395 19.2919 11.8569 19.3118 11.9733C19.329 12.1106 19.366 12.2403 19.4228 12.3624C19.4596 12.5164 19.5213 12.6585 19.6078 12.7887C19.7243 12.9951 19.8661 13.1835 20.0333 13.3538C20.0442 13.3624 20.0566 13.3655 20.0703 13.3631C20.143 13.4489 20.2293 13.5168 20.3292 13.5669C20.3491 13.5926 20.3738 13.6142 20.4032 13.6318C20.865 13.8935 21.3583 13.9862 21.8831 13.9098C21.4963 13.881 21.1387 13.7667 20.8102 13.5669C20.6935 13.4687 20.5763 13.3698 20.4587 13.2705C20.3471 13.1214 20.2423 12.967 20.1442 12.8072C20.1294 12.7901 20.1263 12.7715 20.135 12.7516C20.1542 12.774 20.1758 12.7925 20.1997 12.8072C20.3711 13.0323 20.5993 13.1682 20.8842 13.2149C20.9031 13.2056 20.9062 13.1932 20.8934 13.1778C20.7803 13.0615 20.6785 12.938 20.5882 12.8072C20.5106 12.6765 20.4428 12.5406 20.3847 12.3995C20.3336 12.2485 20.2966 12.0941 20.2737 11.9362V11.6212C20.2881 11.475 20.319 11.3329 20.3662 11.195C20.3931 11.1042 20.4301 11.0177 20.4772 10.9356C20.5922 10.7402 20.734 10.5672 20.9027 10.4167C21.1373 10.2375 21.3963 10.1077 21.6796 10.0276C22.0372 9.95346 22.3949 9.95346 22.7526 10.0276C23.0693 10.1152 23.3591 10.2573 23.622 10.4538C23.7781 10.594 23.9076 10.7546 24.0105 10.9356C24.0587 11.026 24.1019 11.1187 24.14 11.2135C24.1765 11.3106 24.2074 11.4095 24.2325 11.51C24.2465 11.6086 24.2589 11.7074 24.2695 11.8065C24.2762 11.9875 24.2638 12.1666 24.2325 12.3439C24.2127 12.4849 24.1757 12.6207 24.1215 12.7516C24.0573 12.9172 23.9833 13.0778 23.8995 13.2334C23.7952 13.3688 23.6904 13.5047 23.585 13.6411C23.5037 13.7227 23.4173 13.7968 23.326 13.8634C23.1255 13.9886 22.9158 14.0936 22.6971 14.1785C22.503 14.2394 22.3057 14.2888 22.1051 14.3267C21.5911 14.4235 21.0855 14.3926 20.5882 14.234C20.3709 14.1406 20.1674 14.0233 19.9778 13.882C19.8611 13.7713 19.7439 13.6601 19.6263 13.5484C19.5455 13.4426 19.4715 13.3314 19.4043 13.2149C19.3267 13.0841 19.2589 12.9482 19.2008 12.8072C19.1465 12.6687 19.1034 12.5267 19.0713 12.381C19.0295 12.2174 19.0048 12.0507 18.9973 11.8806C18.9844 11.801 18.9782 11.7207 18.9788 11.6398C18.9947 11.3585 19.0286 11.0806 19.0806 10.8059C18.9807 11.0702 18.9098 11.342 18.8678 11.6212C18.8381 11.8049 18.8257 11.9902 18.8308 12.1771C18.8324 12.2579 18.8386 12.3382 18.8493 12.418C18.8687 12.5648 18.8996 12.7069 18.9418 12.8442C18.9696 12.9956 19.0189 13.1377 19.0898 13.2705C19.1247 13.3835 19.174 13.4885 19.2378 13.5855C19.2843 13.6789 19.3398 13.7654 19.4043 13.8449C19.4949 13.9974 19.6058 14.1333 19.7373 14.2526C19.7952 14.3199 19.8568 14.3847 19.9223 14.4472C20.0187 14.5231 20.1174 14.5941 20.2182 14.6603C20.3517 14.7688 20.4997 14.8552 20.6622 14.9197C20.99 15.0929 21.3415 15.1887 21.7166 15.2069C22.3298 15.2688 22.9156 15.173 23.474 14.9197C23.6273 14.8491 23.7753 14.7688 23.918 14.6788C24.0951 14.5632 24.2554 14.4273 24.399 14.2711C24.5304 14.1518 24.6414 14.0159 24.7319 13.8634C24.8064 13.7638 24.8742 13.6588 24.9354 13.5484C24.9836 13.458 25.0268 13.3653 25.0649 13.2705C25.129 13.121 25.1784 12.9665 25.2129 12.8072C25.2552 12.6696 25.286 12.5276 25.3054 12.381C25.3133 12.3009 25.3195 12.2205 25.3239 12.1401C25.328 11.9665 25.3218 11.7936 25.3054 11.6212C25.2833 11.362 25.2217 11.1149 25.1204 10.88C25.0759 10.7044 25.0019 10.5438 24.8984 10.3982C24.8382 10.2713 24.7642 10.1539 24.6764 10.0461C24.5292 9.84299 24.3565 9.66386 24.1585 9.50872C24.082 9.52697 24.0018 9.53315 23.918 9.52725C24.1085 9.68723 24.2873 9.86019 24.4544 10.0461C24.5414 10.1763 24.6277 10.306 24.7134 10.4353C24.7911 10.591 24.859 10.7516 24.9169 10.9171C24.9983 11.1381 25.0476 11.3667 25.0649 11.6027C25.0762 11.7197 25.0824 11.8371 25.0834 11.9548C25.0734 12.0981 25.0549 12.2402 25.0279 12.381C24.9933 12.5259 24.9501 12.668 24.8984 12.8072C24.8405 12.9603 24.7726 13.1086 24.6949 13.2519C24.6261 13.3457 24.5644 13.4446 24.5099 13.5484C24.43 13.6465 24.3498 13.7453 24.2695 13.8449C24.1456 13.9628 24.0223 14.0801 23.8995 14.197C23.6947 14.3613 23.4728 14.4972 23.2335 14.6047C22.7021 14.8095 22.1595 14.8496 21.6056 14.7251C21.7289 14.7023 21.8523 14.6807 21.9756 14.6603C22.4359 14.6095 22.8676 14.4736 23.2705 14.2526C23.4816 14.1523 23.6666 14.0165 23.8255 13.8449C23.9258 13.7691 24.006 13.6765 24.066 13.5669C24.1474 13.4721 24.2152 13.3671 24.2695 13.2519C24.3529 13.1062 24.4145 12.9518 24.4544 12.7887C24.5054 12.6648 24.5424 12.5351 24.5654 12.3995C24.6083 12.4532 24.6607 12.4655 24.7227 12.4366C24.7886 12.3021 24.8225 12.1601 24.8244 12.0104C24.8464 11.8526 24.8464 11.692 24.8244 11.5286C24.8134 11.4061 24.7887 11.2887 24.7504 11.1765C24.7427 11.0833 24.718 10.9968 24.6764 10.9171C24.6196 10.7167 24.5332 10.5314 24.4175 10.3611C24.3618 10.237 24.2878 10.1259 24.1955 10.0276C24.0464 9.83496 23.8737 9.66819 23.6775 9.52725C23.4334 9.32762 23.1621 9.17011 22.8636 9.05472C23.2508 9.13129 23.6023 9.2888 23.918 9.52725C24.0018 9.53315 24.082 9.52697 24.1585 9.50872C23.9414 9.31045 23.6948 9.15602 23.4185 9.04545C23.2267 8.94739 23.0232 8.87636 22.8081 8.83235ZM20.8102 9.52725C21.5617 9.10191 22.3078 9.10809 23.0485 9.54578C23.0998 9.58779 23.1491 9.63412 23.1965 9.68476C22.9091 9.5881 22.6131 9.52016 22.3086 9.48092C21.6394 9.41053 21.0474 9.58658 20.5327 10.009C20.3902 10.1332 20.2608 10.2691 20.1442 10.4167C20.0301 10.5437 19.9376 10.6858 19.8668 10.8429C19.8544 10.8553 19.8421 10.8676 19.8298 10.88C19.8669 10.7188 19.9224 10.5644 19.9963 10.4167C20.0609 10.287 20.1349 10.1635 20.2182 10.0461C20.3877 9.83916 20.585 9.66621 20.8102 9.52725Z" fill="url(#paint0_linear_1_17355)"/>
<defs>
<linearGradient id="paint0_linear_1_17355" x1="22.0774" y1="8.78296" x2="22.0774" y2="15.2251" gradientUnits="userSpaceOnUse">
<stop stop-color="#F2B339"/>
<stop offset="1" stop-color="#F75722"/>
</linearGradient>
</defs>
</svg>
