<svg width="36" height="24" viewBox="0 0 36 24" fill="none" xmlns="http://www.w3.org/2000/svg">
<path d="M9.70948 2.87589C8.4274 3.05 7.16115 3.39822 6.15606 3.84141C5.74453 4.02343 4.64448 4.69613 4.64448 4.76735C4.64448 4.78318 4.91355 4.69613 5.23803 4.5695C7.05035 3.86515 9.20298 3.53276 10.8728 3.69895C12.2895 3.84141 13.4212 4.22128 14.0226 4.75152C14.4896 5.15514 14.6558 5.55085 14.6558 6.24728C14.6479 6.80127 14.6241 6.91206 14.3155 7.52145C14.1018 7.96464 13.809 8.392 13.4607 8.76396C12.9542 9.31003 12.0916 10.0381 11.9492 10.0381C11.9175 10.0381 10.9282 9.128 9.74905 8.02003C8.57777 6.91206 7.58851 6.0336 7.56477 6.06526C7.53311 6.09692 6.82876 7.98838 5.98987 10.2755C5.15098 12.5627 4.36748 14.7074 4.24086 15.0556L4.01135 15.6729L4.54159 15.6255C7.33526 15.3405 10.2555 14.3434 12.4161 12.9188C13.4212 12.262 13.9277 11.8584 14.7587 11.0432C16.5235 9.31794 17.2674 7.79053 17.0616 6.33434C16.8084 4.57742 15.0119 3.12914 12.7168 2.84424C11.8542 2.73344 10.6513 2.74927 9.70948 2.87589ZM9.74113 10.9008L10.1368 11.2965L9.54328 11.5655C8.68856 11.9612 7.09784 12.4994 7.09784 12.4044C7.09784 12.3332 7.74679 10.4338 8.06335 9.57911C8.12667 9.39708 8.15041 9.405 8.74396 9.94315C9.07635 10.2518 9.52745 10.6792 9.74113 10.9008Z" fill="url(#paint0_linear_1_5495)"/>
<path d="M4.97686 6.55593C3.58398 7.18906 1.74792 9.12801 0.837804 10.9245C-0.618384 13.8131 -0.135626 17.1133 1.96952 18.6091C4.13006 20.1444 7.05826 20.4293 9.59076 19.3609C11.9254 18.3716 14.2838 16.0053 15.5184 13.4174C15.8587 12.7052 16.2227 11.7792 16.1674 11.7792C16.1515 11.7792 16.017 11.9692 15.8745 12.1907C15.4472 12.8555 14.5371 13.9081 13.8169 14.5729C12.1628 16.1003 10.3822 17.0579 8.08709 17.6752C7.36691 17.873 5.68913 17.9205 4.96103 17.7623C3.61564 17.4773 2.4127 16.6147 1.89037 15.5621C1.17811 14.1139 1.25725 12.1987 2.11197 10.3784C2.6897 9.13592 3.83723 7.69556 5.0006 6.73004C5.4517 6.35808 5.4517 6.34225 4.97686 6.55593Z" fill="url(#paint1_linear_1_5495)"/>
<path d="M19.7999 10.7662C18.2725 13.1325 16.7371 15.5147 16.381 16.0687L15.7321 17.0817H16.3889H17.0537L18.1142 15.4355L19.1747 13.7973H21.1848H23.1871L23.5195 14.9844C23.7015 15.6334 23.9152 16.3773 23.9864 16.6306L24.121 17.0817H25.1815C25.7671 17.0817 26.2498 17.0579 26.2498 17.0184C26.2498 16.9867 25.5851 14.6046 24.7699 11.7159L23.29 6.47682H22.9339H22.5698L19.7999 10.7662ZM22.4115 11.0749C22.6489 11.9138 22.831 12.6102 22.8151 12.626C22.7993 12.6419 22.1504 12.6419 21.3669 12.634L19.9344 12.6102L20.9395 11.0591C21.4856 10.1964 21.9446 9.5079 21.9604 9.52373C21.9763 9.53956 22.1741 10.236 22.4115 11.0749Z" fill="black"/>
<path d="M28.6241 6.70632C28.6241 6.79338 26.9067 16.6306 26.8434 16.9076L26.8038 17.0817H30.476H34.1481L34.1877 16.9076C34.2114 16.8047 34.2589 16.5593 34.2826 16.3457L34.338 15.9737H31.7264H29.1227L29.3759 14.4859C29.5263 13.6707 29.6846 12.7685 29.732 12.4757L29.827 11.9375L31.576 11.9217L33.3329 11.898L33.42 11.4073C33.4675 11.1303 33.4912 10.8929 33.4675 10.8691C33.4437 10.8454 32.6682 10.8296 31.7343 10.8296C30.8084 10.8296 30.0486 10.8058 30.0486 10.7662C30.0486 10.7346 30.1594 10.0461 30.3019 9.223L30.5551 7.74307H33.1826H35.81L35.8654 7.36319C35.8892 7.15743 35.9367 6.91209 35.9604 6.80921L36 6.6351H32.312C30.0803 6.6351 28.6241 6.66675 28.6241 6.70632Z" fill="black"/>
<defs>
<linearGradient id="paint0_linear_1_5495" x1="0.0324436" y1="2.80039" x2="17.4605" y2="19.6205" gradientUnits="userSpaceOnUse">
<stop stop-color="#E77E2B"/>
<stop offset="1" stop-color="#E21E2E"/>
</linearGradient>
<linearGradient id="paint1_linear_1_5495" x1="3.36452e-07" y1="19.9833" x2="13.6814" y2="6.39085" gradientUnits="userSpaceOnUse">
<stop stop-color="#ED8E26"/>
<stop offset="1" stop-color="#DD4A29"/>
</linearGradient>
</defs>
</svg>
