<svg width="36" height="24" viewBox="0 0 36 24" fill="none" xmlns="http://www.w3.org/2000/svg">
<path d="M13.7361 13.2726H15.9381V14.0296H12.8705V9.966H15.9381V10.723H13.7361V11.5766H15.4501V12.3165H13.7361V13.2726Z" fill="#1C1D1B"/>
<path d="M8.12695 14.0296V9.966H9.43489L10.1031 11.6051H10.2516L10.9141 9.966H12.2278V14.0296H11.4339V11.0018H11.2854L10.6 12.6409H9.74901L9.06934 11.0018H8.92084V14.0296H8.12695Z" fill="#1C1D1B"/>
<path d="M6.86355 14.0296L6.53573 12.9312H4.99848L4.67065 14.0296H3.83984L5.1228 9.966H6.42834L7.71695 14.0296H6.86355ZM5.6371 10.7798L5.21321 12.1913H6.30968L5.88579 10.7798H5.6371Z" fill="#1C1D1B"/>
<path d="M1.90705 11.77H3.69073V12.2483C3.69073 13.1932 3.19151 14.1041 1.93509 14.1041C0.67869 14.1041 0 13.2274 0 11.9978C0 10.7738 0.684298 9.89142 1.94071 9.89142C2.85497 9.89142 3.43269 10.381 3.58413 11.1268H2.71476C2.62502 10.8251 2.36699 10.6485 1.93509 10.6485C1.21715 10.6485 0.858176 11.2235 0.858176 11.9978C0.858176 12.772 1.21715 13.3527 1.94071 13.3527C2.5577 13.3527 2.83816 12.9826 2.85497 12.4646H1.90705V11.77Z" fill="#1C1D1B"/>
<path d="M21.0776 14.1571C21.0776 14.598 20.7202 14.9555 20.2792 14.9555H17.5647C17.1238 14.9555 16.7664 14.598 16.7664 14.1571V9.84583C16.7664 9.4049 17.1238 9.04745 17.5647 9.04745H20.2792C20.7202 9.04745 21.0776 9.4049 21.0776 9.84583V14.1571Z" fill="url(#paint0_linear_1_7565)"/>
<path d="M19.8706 11.8877V12.007C20.1053 12.1124 20.2985 12.3737 20.2985 12.6992C20.2985 13.2448 19.9442 13.6482 19.1667 13.6482H17.584V10.3748H19.1253C19.8476 10.3748 20.2064 10.7737 20.2064 11.2413C20.2064 11.5347 20.0776 11.7777 19.8706 11.8877ZM18.2695 11.6723H19.0424C19.3507 11.6723 19.5025 11.5485 19.5025 11.3055C19.5025 11.0625 19.3461 10.9433 19.0378 10.9433H18.2695V11.6723ZM18.2695 13.066H19.0655C19.4105 13.066 19.5946 12.9376 19.5946 12.6626C19.5946 12.3829 19.4197 12.2453 19.0746 12.2453H18.2695V13.066Z" fill="white"/>
<path d="M21.6624 14.1571C21.6624 14.598 22.0198 14.9554 22.4607 14.9554H25.255C25.696 14.9554 26.0534 14.598 26.0534 14.1571V9.84578C26.0534 9.40484 25.696 9.04739 25.255 9.04739H22.4607C22.0198 9.04739 21.6624 9.40484 21.6624 9.84578V14.1571Z" fill="url(#paint1_linear_1_7565)"/>
<path d="M23.2743 14.3306H25.0073V14.9552H22.6122V11.602H24.9585V12.2266H23.2743V12.9311H24.5852V13.5416H23.2743V14.3306Z" fill="white"/>
<mask id="mask0_1_7565" style="mask-type:luminance" maskUnits="userSpaceOnUse" x="22" y="9" width="4" height="2">
<path d="M25.0279 9.04739H22.6328V10.724H25.0279V9.04739Z" fill="white"/>
</mask>
<g mask="url(#mask0_1_7565)">
<path opacity="0.5" d="M23.2766 10.0994H25.0096V10.724H22.6145V7.37082H24.9607V7.99544H23.2766V8.6999H24.5875V9.31043H23.2766V10.0994Z" fill="white"/>
</g>
<path d="M31.015 14.1497C31.015 14.5906 30.6575 14.948 30.2166 14.948H27.4223C26.9814 14.948 26.6239 14.5906 26.6239 14.1497V9.83839C26.6239 9.39746 26.9814 9.04001 27.4223 9.04001H30.2166C30.6575 9.04001 31.015 9.39746 31.015 9.83839V14.1497Z" fill="url(#paint2_linear_1_7565)"/>
<path d="M29.7401 13.6818L29.4701 12.7754H28.2038L27.9338 13.6818H27.2495L28.3062 10.3286H29.3816L30.443 13.6818H29.7401ZM28.7299 11.0002L28.3807 12.1649H29.2839L28.9347 11.0002H28.7299Z" fill="white"/>
<path d="M31.6089 14.1571C31.6089 14.598 31.9663 14.9555 32.4073 14.9555H35.2016C35.6425 14.9555 36 14.598 36 14.1571V9.84583C36 9.4049 35.6425 9.04745 35.2016 9.04745H32.4073C31.9663 9.04745 31.6089 9.4049 31.6089 9.84583V14.1571Z" fill="url(#paint3_linear_1_7565)"/>
<path d="M35.2184 9.04745V9.66268H34.1723V12.4007H33.4702V9.66268H32.4241V9.04745H35.2184Z" fill="white"/>
<defs>
<linearGradient id="paint0_linear_1_7565" x1="18.922" y1="14.9555" x2="18.922" y2="9.04745" gradientUnits="userSpaceOnUse">
<stop stop-color="#057400"/>
<stop offset="0.632213" stop-color="#2BDC24"/>
</linearGradient>
<linearGradient id="paint1_linear_1_7565" x1="23.8579" y1="14.9554" x2="23.8579" y2="9.04739" gradientUnits="userSpaceOnUse">
<stop stop-color="#057400"/>
<stop offset="0.632213" stop-color="#2BDC24"/>
</linearGradient>
<linearGradient id="paint2_linear_1_7565" x1="28.8194" y1="14.948" x2="28.8194" y2="9.04001" gradientUnits="userSpaceOnUse">
<stop stop-color="#057400"/>
<stop offset="0.632213" stop-color="#2BDC24"/>
</linearGradient>
<linearGradient id="paint3_linear_1_7565" x1="33.8044" y1="14.9555" x2="33.8044" y2="9.04745" gradientUnits="userSpaceOnUse">
<stop stop-color="#057400"/>
<stop offset="0.632213" stop-color="#2BDC24"/>
</linearGradient>
</defs>
</svg>
