<svg width="36" height="24" viewBox="0 0 36 24" fill="none" xmlns="http://www.w3.org/2000/svg">
<path d="M10.068 9H9.80212V15.2304H10.068V9Z" fill="#FFCC29"/>
<path d="M15.2526 9H14.9601V15.2304H15.2526V9Z" fill="#FFCC29"/>
<path d="M35.7075 15.2393H36V9H35.7075V15.2393Z" fill="#FFCC29"/>
<path d="M30.8065 9H30.514V15.2304H30.8065V9Z" fill="#FFCC29"/>
<path d="M20.4372 9H20.1536V15.2304H20.4372V9Z" fill="#FFCC29"/>
<path d="M25.6218 9H25.3293V15.2304H25.6218V9Z" fill="#FFCC29"/>
<path d="M12.2481 10.0458L10.963 14.1935H11.5568L11.8581 13.1477H13.1875L13.4889 14.1935H14.0738L12.8064 10.0458H12.2481ZM11.9822 12.6957L12.5051 10.8877H12.5228L13.0369 12.6957H11.9822Z" fill="black"/>
<path d="M7.4357 12.5273V12.0842H8.72078V13.5909C8.60556 13.777 8.44604 13.9365 8.25992 14.0428C8.01177 14.1935 7.72816 14.2467 7.44456 14.2467C7.0546 14.2467 6.66465 14.1226 6.38991 13.8479C6.12403 13.5909 5.99109 13.2009 5.99109 12.7135V11.4993C5.99109 11.0207 6.12403 10.6485 6.37218 10.3914C6.6292 10.1167 6.99257 9.98376 7.37366 9.98376C7.73703 9.98376 8.08267 10.0635 8.34855 10.3117C8.5967 10.5421 8.71192 10.87 8.72078 11.2068V11.2245H8.16243C8.1713 11.0118 8.10039 10.7903 7.95859 10.6307C7.81679 10.4801 7.60409 10.4269 7.38252 10.4269C7.15209 10.4269 6.93053 10.5244 6.78873 10.7105C6.63806 10.8966 6.57602 11.1536 6.57602 11.5081V12.7489C6.57602 13.1034 6.65579 13.3693 6.81531 13.5554C6.97484 13.7415 7.20527 13.839 7.45342 13.839C7.61295 13.839 7.78134 13.8124 7.91428 13.7327C8.02063 13.6706 8.09153 13.5731 8.14471 13.4668V12.5273H7.4357Z" fill="black"/>
<path d="M18.5849 10.0458H19.3471V14.1935H18.7622V12.5982L18.8154 11.0029H18.7976L17.8936 14.1935H17.5037L16.5997 11.0029H16.5908L16.6352 12.5982V14.1935H16.0591V10.0458H16.8035L17.6987 13.3249L18.5849 10.0458Z" fill="black"/>
<path d="M28.8656 10.0458H29.4416V14.1935H28.8656L27.2969 11.1093H27.2703V14.1935H26.6942V10.0458H27.2703L28.839 13.13L28.8656 13.1211V10.0458Z" fill="black"/>
<path d="M21.8995 10.0458H23.8582V10.4978H23.1669V13.7326H23.8582V14.1935H21.8995V13.7238H22.5908V10.4889H21.8995V10.0458Z" fill="black"/>
<path d="M0.265879 15.2393H4.62629C4.77696 15.2393 4.89217 15.1241 4.89217 14.9734V9.26588C4.89217 9.11521 4.77696 9 4.62629 9H0.265879C0.115214 9 0 9.11521 0 9.26588V14.9645C0 15.1152 0.124077 15.2393 0.265879 15.2393Z" fill="#FFCC29"/>
<path d="M3.75776 12.3766C3.65141 12.1994 3.47416 12.0842 3.27031 12.0399C3.4387 11.969 3.58051 11.8538 3.66913 11.6942C3.75776 11.5347 3.80207 11.3486 3.80207 11.1713C3.80207 10.8346 3.69572 10.5244 3.4387 10.3294C3.18169 10.1344 2.88036 10.0458 2.52585 10.0458H1.20532V14.2023H2.69424C3.0133 14.2023 3.33235 14.096 3.57164 13.8833C3.80207 13.6883 3.91729 13.3781 3.91729 12.9793C3.91729 12.74 3.86411 12.5539 3.75776 12.3766ZM1.97637 10.6927H2.38405C2.5613 10.6927 2.68538 10.7282 2.79173 10.8346C2.89808 10.9409 2.93353 11.1004 2.92467 11.2511C2.92467 11.3929 2.89808 11.5436 2.79173 11.6499C2.69424 11.7474 2.57903 11.8006 2.4195 11.8006H1.96751V10.6927H1.97637ZM2.91581 13.4136C2.81832 13.5199 2.65879 13.5465 2.51699 13.5465H1.98523V12.3589H2.57903C2.72969 12.3589 2.8715 12.4032 2.95126 12.5185C3.03989 12.6514 3.05761 12.8109 3.05761 12.9704C3.04875 13.13 3.02216 13.2984 2.91581 13.4136Z" fill="black"/>
<path d="M33.3412 12.5274V12.0842H34.6263V13.5909C34.5111 13.777 34.3516 13.9365 34.1654 14.0429C33.9173 14.1935 33.6337 14.2467 33.3501 14.2467C32.9601 14.2467 32.5702 14.1226 32.2954 13.8479C32.0295 13.5909 31.8966 13.2009 31.8966 12.7135V11.4904C31.8966 11.0118 32.0295 10.6396 32.2777 10.3826C32.5347 10.1079 32.8981 9.97491 33.2792 9.97491C33.6425 9.97491 33.9882 10.0547 34.2541 10.3028C34.5022 10.5333 34.6174 10.8612 34.6263 11.198V11.2157H34.068C34.0768 11.003 34.0059 10.7814 33.8641 10.6219C33.7223 10.4712 33.5096 10.418 33.288 10.418C33.0576 10.418 32.836 10.5155 32.6942 10.7017C32.5436 10.8878 32.4815 11.1448 32.4815 11.4993V12.7401C32.4815 13.0946 32.5613 13.3604 32.7208 13.5466C32.8804 13.7327 33.1108 13.8302 33.3589 13.8302C33.5185 13.8302 33.6869 13.8036 33.8198 13.7238C33.9261 13.6618 33.9971 13.5643 34.0502 13.4579V12.5274H33.3412Z" fill="black"/>
</svg>
