<svg width="36" height="24" viewBox="0 0 36 24" fill="none" xmlns="http://www.w3.org/2000/svg">
<path d="M2.38339 11.1272H3.4122V11.9657L5.04111 12.0077V7.29836C5.04111 7.2435 5.01282 7.20749 4.96911 7.20749H3.48249C3.43962 7.20749 3.41046 7.2435 3.41046 7.29836V9.52742H2.38167V7.29836C2.38167 7.2435 2.35253 7.20749 2.30966 7.20749H0.843625C0.799903 7.20749 0.770752 7.2435 0.770752 7.29836V11.8979L2.38339 11.9391V11.1272Z" fill="black"/>
<path d="M8.8133 7.28036C8.79959 7.22549 8.77301 7.20749 8.73869 7.20749H7.12865C7.0952 7.20749 7.06778 7.22549 7.05404 7.28036L5.69177 12.0248L10.1773 12.144L8.8133 7.28036ZM7.50245 11.2721L7.9268 8.59122L8.33834 11.2721H7.50245Z" fill="black"/>
<path d="M16.4796 12.0762L17.1894 11.0372L17.727 12.336L19.4022 12.3789L18.1642 9.62856L19.7469 7.31378C19.788 7.25034 19.7606 7.2049 19.7066 7.2049H18.0288C17.9936 7.20575 17.9619 7.22633 17.9473 7.25891L16.4796 9.61656V7.29834C16.4796 7.24347 16.4522 7.20747 16.4118 7.20747H15.0401C14.999 7.20747 14.9724 7.24347 14.9724 7.29834V12.2648L16.4813 12.3034L16.4796 12.0762Z" fill="black"/>
<path d="M24.3963 11.4975C24.3963 9.03187 21.6151 9.90805 21.6151 8.93242C21.6151 8.65293 21.8517 8.52605 22.1767 8.52605C22.5556 8.52605 22.9277 8.69751 23.2997 9.08674C23.3177 9.11332 23.3538 9.12103 23.3803 9.10303C23.3898 9.09703 23.3966 9.08759 23.4018 9.07731L24.1588 8.0288C24.1871 7.99022 24.1845 7.93706 24.1528 7.90191C23.6178 7.28035 22.9954 7 22.2375 7C21.2087 7 20.1062 7.50582 20.1062 9.12274C20.1062 11.7144 22.9208 10.6848 22.9208 11.7505C22.9208 12.0762 22.6576 12.2383 22.2787 12.2383C21.8046 12.2383 21.3356 11.9948 20.8641 11.3535C20.8375 11.3175 20.7964 11.3081 20.7698 11.3535L20.0359 12.3952L24.2085 12.5032C24.3371 12.1834 24.4014 11.8422 24.3963 11.4975Z" fill="black"/>
<path d="M27.8245 7.28036C27.8108 7.22549 27.7834 7.20749 27.7499 7.20749H26.1398C26.1055 7.20749 26.079 7.22549 26.0653 7.28036L24.5624 12.5101L29.3274 12.6335L27.8245 7.28036ZM26.5128 11.2721L26.9414 8.59122L27.3487 11.2721H26.5128Z" fill="black"/>
<path d="M32.3058 10.0418L32.7294 12.7235L34.4682 12.769L35.9958 7.30692C36.0096 7.24348 35.9889 7.20747 35.9418 7.20747H34.5057C34.4655 7.20747 34.4382 7.23491 34.4313 7.2932L33.6726 10.4653L33.0519 7.2932C33.045 7.24777 33.0174 7.20747 32.9772 7.20747H31.6356C31.5951 7.20747 31.5678 7.24348 31.5609 7.2932L30.9402 10.4653L30.1779 7.28892C30.171 7.23491 30.1437 7.20319 30.1035 7.20319H28.67C28.6229 7.20319 28.6023 7.23919 28.616 7.30264L30.1119 12.6584L31.8858 12.7047L32.3058 10.0418Z" fill="black"/>
<path d="M14.272 11.7427C14.2729 11.7299 14.2634 11.7187 14.2506 11.7179C14.242 11.717 14.2334 11.7213 14.2291 11.729C14.0268 12.0308 13.6856 12.21 13.3221 12.2049C12.5308 12.2049 12.1578 11.4195 12.1578 10.3719C12.1578 9.42367 12.4682 8.58349 13.3375 8.58349C13.6942 8.56977 14.0328 8.74295 14.2317 9.03959C14.2394 9.05073 14.254 9.0533 14.2651 9.04559C14.2711 9.0413 14.2754 9.03444 14.2754 9.02673V7.26835C14.2763 7.2272 14.2506 7.19119 14.212 7.17747C13.9085 7.07288 13.5895 7.01972 13.2689 7.02058C11.5225 7.02058 10.3969 8.55605 10.3969 10.4893C10.3891 11.0612 10.5015 11.6287 10.7269 12.1551L14.2729 12.2469L14.272 11.7427Z" fill="black"/>
<path d="M2.63978 13.7463C2.63978 13.8003 2.66807 13.832 2.71179 13.832H4.19411C4.23698 13.832 4.26614 13.796 4.26614 13.7463V12.2606L2.63721 12.2177L2.63978 13.7463Z" fill="black"/>
<path d="M0.0720156 13.8363H1.54319C1.58692 13.8363 1.61606 13.8003 1.61606 13.7506V12.1911L0 12.15V13.7463C0 13.8003 0.0291492 13.8363 0.0720156 13.8363Z" fill="black"/>
<path d="M4.55752 13.8363H6.03985C6.08014 13.8329 6.11272 13.8038 6.12043 13.7643L6.30991 12.9422H7.97314L8.16259 13.7643C8.17033 13.8038 8.20288 13.8329 8.2432 13.8363H9.7255C9.77266 13.8363 9.79324 13.7918 9.77953 13.7283L9.40486 12.3935L4.92019 12.2769L4.50352 13.7283C4.48381 13.7918 4.51039 13.8363 4.55752 13.8363Z" fill="black"/>
<path d="M17.4467 13.7729C17.457 13.8097 17.4904 13.8346 17.5281 13.8355H19.0773C19.1313 13.8355 19.1519 13.7909 19.1245 13.7275L18.6315 12.6309L16.9563 12.5872L17.4467 13.7729Z" fill="black"/>
<path d="M14.2668 13.8363H15.6386C15.6797 13.8363 15.7063 13.8003 15.7063 13.7506V12.5563L14.1974 12.5169V13.7463C14.1991 13.8003 14.2265 13.8363 14.2668 13.8363Z" fill="black"/>
<path d="M19.1459 12.9421C19.6766 13.6366 20.5004 14.0447 21.3749 14.0447C22.2571 14.0447 23.0819 13.616 23.4402 12.7587L19.2642 12.6481L19.1459 12.8196C19.1176 12.8556 19.1176 12.9061 19.1459 12.9421Z" fill="black"/>
<path d="M23.5688 13.8363H25.0503C25.0906 13.8329 25.1231 13.8038 25.1317 13.7643L25.3212 12.9421H26.9853L27.1773 13.7643C27.1859 13.8038 27.2185 13.8329 27.2588 13.8363H28.7377C28.7857 13.8363 28.8054 13.7918 28.7925 13.7283L28.5568 12.8881L23.7917 12.7647L23.5148 13.7283C23.4908 13.7918 23.5217 13.8363 23.5688 13.8363Z" fill="black"/>
<path d="M32.0814 13.7549C32.0883 13.8003 32.1147 13.8363 32.1549 13.8363H33.4179C33.4581 13.8363 33.4848 13.8097 33.4917 13.7549L33.6975 13.021L31.9578 12.9764L32.0814 13.7549Z" fill="black"/>
<path d="M29.6525 13.8364H30.9144C30.9549 13.8364 30.9822 13.8004 30.9891 13.7549L31.1151 12.9542L29.3413 12.9087L29.5779 13.7549C29.5848 13.8098 29.6114 13.8364 29.6525 13.8364Z" fill="black"/>
<path d="M12.5282 14.0833C12.836 14.0841 13.1429 14.0378 13.4361 13.9444C13.4755 13.9307 13.5012 13.8938 13.5012 13.8526V12.4989L9.95447 12.4072C10.408 13.43 11.3073 14.0833 12.5282 14.0833Z" fill="black"/>
<path d="M2.229 15.8956H1.66831V15.6384C1.66831 15.593 1.64173 15.5699 1.58772 15.5699H1.47198C1.41797 15.5699 1.39139 15.593 1.39139 15.6384V16.7813C1.39139 16.8267 1.41797 16.8498 1.47198 16.8498H1.58772C1.64173 16.8498 1.66831 16.8267 1.66831 16.7813V16.4477H1.50713V16.1048H2.229V16.8224C2.229 17.0796 2.07125 17.2073 1.7549 17.2073H1.30137C0.98502 17.2073 0.827271 17.0796 0.827271 16.8224V15.5973C0.827271 15.341 0.98502 15.2132 1.30137 15.2123H1.75833C2.07468 15.2123 2.23243 15.341 2.23243 15.5973L2.229 15.8956Z" fill="black"/>
<path d="M8.21753 17.2022L8.15324 16.9047H7.65683L7.58912 17.2022H7.03442L7.56683 15.2089H8.25269L8.7851 17.2022H8.21753ZM7.74428 16.5164H8.06663L7.90805 15.7996L7.74428 16.5164Z" fill="black"/>
<path d="M14.1219 17.2022H13.6195V15.2123H14.2317L14.5746 16.2772L14.9098 15.2123H15.5176V17.2022H15.0178V15.9385L14.7606 16.7744H14.374L14.1168 15.9454L14.1219 17.2022Z" fill="black"/>
<path d="M20.4841 15.2123H21.0482V17.2022H20.4841V15.2123Z" fill="black"/>
<path d="M26.9561 15.2123H27.4705V17.2022H26.9887L26.5275 16.1563V17.2022H26.0131V15.2123H26.4914L26.9527 16.2772L26.9561 15.2123Z" fill="black"/>
<path d="M33.8241 15.8956H33.2643V15.6384C33.2643 15.593 33.2379 15.5699 33.1839 15.5699H33.0681C33.0141 15.5699 32.9874 15.593 32.9874 15.6384V16.7813C32.9874 16.8267 33.0141 16.8498 33.0681 16.8498H33.1785C33.2325 16.8498 33.2592 16.8267 33.2592 16.7813V16.4477H33.0981V16.1048H33.8232V16.8224C33.8232 17.0796 33.6657 17.2073 33.3501 17.2073H32.8923C32.5758 17.2073 32.4183 17.0796 32.4183 16.8224V15.5973C32.4183 15.341 32.5758 15.2132 32.8923 15.2123H33.3501C33.6657 15.2123 33.8232 15.341 33.8232 15.5973L33.8241 15.8956Z" fill="black"/>
</svg>
