<svg width="36" height="24" viewBox="0 0 36 24" fill="none" xmlns="http://www.w3.org/2000/svg">
<g clip-path="url(#clip0_1_7645)">
<path d="M4.1168 18.6319H5.95293V19.6841H2.84684V17.1151H6.18503V16.5853H2.68724L2.26636 17.0062V19.7929L2.68724 20.2138H6.09082L6.51171 19.7929V18.1021H4.1168V18.6319Z" fill="black"/>
<path d="M10.1831 16.5854L7.97717 19.8655V20.2137H8.47066L9.02953 19.3429H11.8742L12.4331 20.2137H12.9266V19.8655L10.7206 16.5854C10.7204 16.5854 10.1831 16.5854 10.1831 16.5854ZM9.37764 18.8132L10.4517 17.144L11.5258 18.8132H9.37764Z" fill="black"/>
<path d="M18.3179 16.5854L17.1567 19.5462L16.0029 16.5854H15.2989L14.3193 19.8655V20.2138H14.8707L15.6691 17.2022L16.852 20.2138H17.4615L18.6516 17.2022L19.4499 20.2138H20.0015V19.8655L19.0217 16.5854H18.3179Z" fill="black"/>
<path d="M21.5544 19.7929L21.9753 20.2138H25.495V19.6841H22.1349V18.6319H25.2918V18.1021H22.1349V17.1151H25.495V16.5854H21.5544V19.7929Z" fill="black"/>
<path d="M27.9332 17.7756V17.1151H31.569V16.5854H27.7735L27.3527 17.0062V17.8844L27.7735 18.3053L31.402 18.8859V19.6841H27.3527V20.2138H31.5617L31.9826 19.7929V18.7697L31.5763 18.3634L27.9332 17.7756Z" fill="black"/>
<path d="M22.2675 5.0964L24.1086 3.78503H36.0005L35.3739 5.33397C35.0621 6.10571 34.3131 6.61095 33.4806 6.61095H25.272L24.6408 8.19354H31.9825L31.4409 9.53391C31.1168 10.3361 30.1572 11.2908 29.2919 11.2908H23.3818L22.3629 13.8126C22.0513 14.584 21.3026 15.089 20.4707 15.089H18.23L22.2675 5.0964Z" fill="black"/>
<path d="M6.95306 7.51093C4.45838 7.79967 3.62235 8.39511 2.37291 10.7731C2.26949 10.97 1.9834 10.97 2.03894 10.7731C2.71108 8.39511 2.35613 7.79967 0.0948322 7.51093C-0.0923099 7.48703 0.0232404 7.20094 0.229717 7.17695C2.7244 6.88831 3.56052 6.31065 4.80986 3.93261C4.91329 3.7358 5.19938 3.7358 5.14384 3.93261C4.4717 6.31065 4.82664 6.88822 7.08795 7.17695C7.27509 7.20094 7.15954 7.48712 6.95306 7.51093Z" fill="#FFC20E"/>
<path d="M4.54297 9.45375L4.54324 9.45357L4.54452 9.45047C4.54406 9.45166 4.54342 9.45266 4.54297 9.45375Z" fill="black"/>
<path d="M19.5391 3.78503H6.83349L6.2044 5.342C6.05282 5.71719 6.16172 6.15623 6.48748 6.39636C6.49159 6.39937 6.49569 6.40238 6.49979 6.40539C6.68949 6.54283 6.92086 6.61095 7.15507 6.61095H16.0914L15.452 8.19354C15.452 8.19354 6.37914 8.18515 6.26851 8.19838C6.01671 8.21516 5.77466 8.27854 5.55268 8.38178C5.10526 8.5899 4.73955 8.95908 4.54137 9.43295L4.54338 9.45347L2.26648 15.0889H15.2911C16.1061 15.0889 16.8412 14.5985 17.1544 13.846L18.4715 10.6803L17.7127 9.36893L18.5549 8.75816C18.8194 8.56628 19.0246 8.30399 19.147 8.00093L20.3206 5.09612L19.5391 3.78503ZM14.2148 12.263H7.02547L7.71968 10.5449H14.909L14.2148 12.263Z" fill="black"/>
</g>
<defs>
<clipPath id="clip0_1_7645">
<rect width="36" height="24" fill="white"/>
</clipPath>
</defs>
</svg>
