<svg width="36" height="24" viewBox="0 0 36 24" fill="none" xmlns="http://www.w3.org/2000/svg">
<g clip-path="url(#clip0_1_13277)">
<path opacity="0.981" fill-rule="evenodd" clip-rule="evenodd" d="M3.70893 8.00333C4.27962 7.99901 4.85022 8.00333 5.42075 8.0163C4.19841 10.5172 2.97939 13.0201 1.76369 15.5249C1.17579 15.5595 0.587897 15.5595 0 15.5249C1.23666 13.0171 2.47298 10.5098 3.70893 8.00333Z" fill="#3BB54A"/>
<path opacity="0.981" fill-rule="evenodd" clip-rule="evenodd" d="M5.80952 8.00324C6.38038 7.9946 6.95099 8.00325 7.52134 8.02917C6.30564 10.5341 5.08662 13.0369 3.86427 15.5378C3.27637 15.5551 2.68849 15.5551 2.10059 15.5378C3.34757 13.0309 4.58386 10.5194 5.80952 8.00324Z" fill="black"/>
<path opacity="0.979" fill-rule="evenodd" clip-rule="evenodd" d="M9.69981 9.87073C9.73435 10.1555 9.75165 10.4495 9.75168 10.7526C9.74304 11.0465 9.73438 11.3405 9.72574 11.6344C8.93138 11.9612 8.13601 12.2854 7.33958 12.607C7.29165 12.7118 7.31758 12.7897 7.41739 12.8405C8.19344 13.1464 8.97153 13.4447 9.75168 13.7353C9.75168 14.3405 9.75168 14.9457 9.75168 15.5508C8.2415 14.8044 6.74581 14.0306 5.26465 13.2295C5.47061 12.7787 5.68674 12.3335 5.91306 11.8938C7.1769 11.2187 8.43916 10.5443 9.69981 9.87073Z" fill="black"/>
<path opacity="0.984" fill-rule="evenodd" clip-rule="evenodd" d="M12.4248 9.89652C14.0761 9.8922 15.7274 9.89652 17.3787 9.90949C17.7841 9.93223 18.1558 10.0533 18.494 10.2726C18.6895 10.4431 18.8148 10.655 18.87 10.908C18.8789 11.2705 18.8833 11.6293 18.883 11.9844C18.8986 12.6343 18.5873 13.006 17.9493 13.0997C18.356 13.1838 18.6456 13.4129 18.8182 13.787C18.856 14.3649 18.8689 14.9441 18.8571 15.5248C18.3124 15.5248 17.7677 15.5248 17.2231 15.5248C17.2274 15.1961 17.2231 14.8676 17.2101 14.5392C17.128 14.1891 16.9076 13.9946 16.5487 13.9556C15.7274 13.9426 14.9061 13.9383 14.0847 13.9426C14.0847 14.47 14.0847 14.9974 14.0847 15.5248C13.5314 15.5248 12.9781 15.5248 12.4248 15.5248C12.4248 13.6487 12.4248 11.7726 12.4248 9.89652ZM14.0069 11.2712C14.958 11.2668 15.909 11.2712 16.86 11.2841C17.1876 11.3853 17.3433 11.6101 17.3268 11.9585C17.327 12.1654 17.2794 12.3599 17.1842 12.5421C17.1339 12.6096 17.0691 12.6572 16.9896 12.6847C15.9954 12.6977 15.0012 12.702 14.0069 12.6977C14.0069 12.2222 14.0069 11.7467 14.0069 11.2712Z" fill="black"/>
<path opacity="0.967" fill-rule="evenodd" clip-rule="evenodd" d="M10.0898 9.92249C10.7123 9.92249 11.3348 9.92249 11.9573 9.92249C11.9573 10.4845 11.9573 11.0464 11.9573 11.6084C11.3348 11.6084 10.7123 11.6084 10.0898 11.6084C10.0898 11.0464 10.0898 10.4845 10.0898 9.92249Z" fill="black"/>
<path opacity="0.99" fill-rule="evenodd" clip-rule="evenodd" d="M27 9.94852C27.8645 9.9442 28.7292 9.94852 29.5937 9.96149C30.4939 11.2563 31.3973 12.5488 32.304 13.839C32.317 12.5422 32.3214 11.2454 32.317 9.94852C32.8876 9.94852 33.4582 9.94852 34.0288 9.94852C34.0133 11.8073 34.0047 13.6661 34.0029 15.5249C33.0951 15.5292 32.1873 15.5249 31.2795 15.5119C30.3689 14.2295 29.4482 12.9542 28.5173 11.6863C28.5043 12.9744 28.4999 14.2626 28.5043 15.5508C28.003 15.5508 27.5014 15.5508 27 15.5508C27 13.6834 27 11.816 27 9.94852Z" fill="black"/>
<path opacity="0.99" fill-rule="evenodd" clip-rule="evenodd" d="M20.5951 10.0004C22.1081 9.99608 23.6211 10.0004 25.134 10.0134C25.8885 10.1713 26.3079 10.6339 26.3919 11.401C26.4093 12.3261 26.4093 13.2511 26.3919 14.1762C26.358 14.9447 25.9648 15.3986 25.2118 15.5379C23.6643 15.5552 22.1167 15.5552 20.5692 15.5379C19.876 15.3807 19.4653 14.9528 19.3372 14.254C19.3199 13.2684 19.3199 12.2828 19.3372 11.2972C19.4836 10.5968 19.9028 10.1646 20.5951 10.0004ZM21.5288 11.375C22.428 11.3707 23.3272 11.375 24.2262 11.388C24.4986 11.4529 24.6672 11.6214 24.732 11.8938C24.7494 12.4557 24.7494 13.0177 24.732 13.5797C24.6319 13.8526 24.4373 14.0125 24.1484 14.0595C23.206 14.066 22.2636 14.0574 21.3213 14.0335C21.1748 14.008 21.0753 13.9258 21.0231 13.7871C21.0071 13.173 21.0158 12.5592 21.049 11.9456C21.1068 11.6636 21.2668 11.4734 21.5288 11.375Z" fill="black"/>
<path opacity="0.986" fill-rule="evenodd" clip-rule="evenodd" d="M10.0898 11.9974C10.7123 11.9974 11.3348 11.9974 11.9573 11.9974C11.9573 13.1819 11.9573 14.3663 11.9573 15.5508C11.3348 15.5508 10.7123 15.5508 10.0898 15.5508C10.0898 14.3663 10.0898 13.1819 10.0898 11.9974Z" fill="black"/>
<path opacity="0.972" fill-rule="evenodd" clip-rule="evenodd" d="M34.4443 13.813C34.9631 13.813 35.4818 13.813 36.0005 13.813C36.0005 14.3577 36.0005 14.9023 36.0005 15.447C35.4818 15.447 34.9631 15.447 34.4443 15.447C34.4443 14.9023 34.4443 14.3577 34.4443 13.813Z" fill="#3BB54A"/>
</g>
<defs>
<clipPath id="clip0_1_13277">
<rect width="36" height="24" fill="white"/>
</clipPath>
</defs>
</svg>
