<svg width="36" height="24" viewBox="0 0 36 24" fill="none" xmlns="http://www.w3.org/2000/svg">
<g clip-path="url(#clip0_1_1266)">
<path d="M8.73931 11.0596C8.73326 11.0451 8.72974 11.0309 8.72367 11.0159C8.36019 10.1248 6.97911 9.8548 5.38697 10.262L5.12582 10.0993C5.90963 9.761 6.69024 9.58441 7.34436 9.63273C8.32004 9.70664 8.79722 10.262 8.73931 11.0596ZM7.32376 12.9314C6.30295 14.2311 4.45819 15.1308 3.20289 15.0377C1.94971 14.9428 1.75962 13.8133 2.78078 12.5136C2.80103 12.4869 2.82306 12.4606 2.84439 12.434L2.84761 14.0634C2.84086 14.4777 3.23987 14.6721 3.5266 14.5076L7.27973 12.2187C7.57321 12.0286 7.5423 11.6033 7.26587 11.4395L5.74408 10.5636C6.15553 10.44 6.55028 10.3817 6.90097 10.4077C8.15521 10.5025 8.34385 11.6317 7.32376 12.9314ZM2.55021 15.7369C1.3983 15.6502 0.938887 14.8909 1.23877 13.857C1.23695 14.0293 1.264 14.1945 1.32795 14.348C1.77813 15.4548 3.79913 15.6048 5.84144 14.6859C5.88337 14.6671 5.92494 14.6465 5.96615 14.628C4.81957 15.3681 3.54224 15.8105 2.55021 15.7369ZM3.87729 9.95074L6.39678 11.5386C6.58297 11.6502 6.60535 11.9408 6.40709 12.0698L3.86201 13.6218C3.66766 13.7337 3.39514 13.6005 3.40047 13.3173L3.38839 10.2357C3.39941 9.97845 3.6538 9.82318 3.87729 9.95074ZM9.70933 10.5224C9.18134 9.22484 6.98838 8.93917 4.61527 9.77877L3.56214 9.11896C3.23419 8.93171 2.85969 9.15982 2.84157 9.53929L2.84228 10.6109C0.797128 11.8364 -0.388894 13.6005 0.116001 14.8423C0.701194 16.2767 3.32231 16.4735 5.97078 15.2804C8.61996 14.088 10.2935 11.9575 9.70933 10.5224Z" fill="#161F49"/>
<path d="M11.8145 12.3925L11.5857 13.2349C11.5515 13.3632 11.5253 13.4801 11.5043 13.5807C11.4826 13.6865 11.4737 13.7622 11.4737 13.8091C11.4737 13.8994 11.4982 13.9683 11.5483 14.0202C11.6009 14.0717 11.6706 14.0969 11.7562 14.0969C11.8905 14.0969 12.0301 14.0213 12.1747 13.8699C12.3186 13.7182 12.4565 13.5014 12.5912 13.2172C12.7521 12.8537 12.8836 12.4959 12.9848 12.1378C13.0826 11.7839 13.1341 11.5053 13.1341 11.307C13.1341 11.1631 13.1042 11.047 13.0463 10.9606C12.988 10.8732 12.9134 10.8284 12.826 10.8284C12.6267 10.8284 12.4451 10.9574 12.2785 11.2111C12.1119 11.4676 11.9573 11.8603 11.8145 12.3925ZM10.3769 10.4355C10.7325 10.4074 11.0694 10.3701 11.3927 10.3285C11.7146 10.287 12.0248 10.2386 12.3243 10.18L12.0724 11.0832C12.324 10.7339 12.5638 10.4774 12.7937 10.3196C13.0193 10.1566 13.2538 10.0791 13.5004 10.0791C13.8358 10.0791 14.0963 10.185 14.2771 10.396C14.4608 10.6092 14.5507 10.9119 14.5507 11.3035C14.5507 11.6339 14.4892 11.9828 14.3638 12.347C14.2377 12.7119 14.0604 13.0509 13.839 13.3657C13.5786 13.7317 13.3039 14.006 13.0101 14.1875C12.7148 14.3705 12.4039 14.4629 12.0724 14.4629C11.9363 14.4629 11.8095 14.4441 11.689 14.4032C11.5711 14.3609 11.4641 14.3037 11.3671 14.2263L11.1092 15.2055C11.0914 15.2641 11.0775 15.327 11.0708 15.3885C11.0608 15.4485 11.0584 15.5093 11.0584 15.57C11.0584 15.6876 11.0921 15.7729 11.1618 15.8205C11.2318 15.8678 11.3732 15.8969 11.5856 15.9104V16.1392H9.18091V15.9005C9.18907 15.9005 9.20081 15.8994 9.21608 15.8965C9.23207 15.8926 9.2445 15.8912 9.25054 15.8912C9.40013 15.8912 9.51134 15.8528 9.58595 15.7743C9.66128 15.6961 9.73767 15.4925 9.81833 15.1607L10.7755 11.2619C10.7922 11.1997 10.805 11.1361 10.8153 11.0757C10.8249 11.0174 10.8306 10.9695 10.8306 10.9375C10.8306 10.8302 10.7983 10.7584 10.7357 10.719C10.6711 10.6749 10.5513 10.655 10.3769 10.655L10.3769 10.4355Z" fill="#161F49"/>
<path d="M14.7892 8.28496C15.1488 8.25582 15.492 8.21674 15.8257 8.16913C16.1568 8.12187 16.4716 8.06715 16.7669 8L15.4462 13.2277C15.4376 13.2564 15.4277 13.2909 15.4163 13.3364C15.3989 13.4039 15.3925 13.4472 15.3925 13.4703C15.3925 13.5318 15.4039 13.5808 15.4281 13.6146C15.4536 13.6498 15.4895 13.6668 15.5361 13.6668C15.5837 13.6668 15.6373 13.6341 15.6992 13.567C15.7603 13.5013 15.879 13.3282 16.0555 13.0479L16.2662 13.2078C16.0012 13.6515 15.7457 13.9742 15.5055 14.1738C15.2653 14.3732 15.0159 14.4723 14.7551 14.4723C14.5252 14.4723 14.3454 14.4087 14.2214 14.279C14.096 14.1493 14.0345 13.9624 14.0345 13.7212C14.0345 13.6025 14.0989 13.2877 14.2257 12.7775L14.2385 12.726L15.115 9.32353C15.1229 9.29227 15.1339 9.24572 15.1481 9.1846C15.2039 8.96076 15.2284 8.81651 15.2284 8.75433C15.2284 8.6687 15.1996 8.60652 15.1399 8.56495C15.0816 8.5248 14.9907 8.50313 14.8646 8.50313H14.7892L14.7892 8.28496Z" fill="#161F49"/>
<path d="M18.9239 10.9922C18.9239 10.8671 18.8976 10.768 18.8429 10.6934C18.7882 10.6195 18.7175 10.5829 18.629 10.5829C18.5032 10.5829 18.3824 10.644 18.2651 10.7684C18.1479 10.8942 18.0136 11.1017 17.8597 11.3923C17.6799 11.7387 17.5389 12.0763 17.4376 12.4092C17.3335 12.745 17.282 13.0288 17.282 13.2644C17.282 13.4076 17.3108 13.5181 17.3676 13.602C17.4248 13.6808 17.5034 13.721 17.5989 13.721C17.7407 13.721 17.8853 13.6368 18.0353 13.4645C18.1848 13.2932 18.3263 13.0516 18.4602 12.7407C18.6009 12.3943 18.7118 12.0564 18.7967 11.7345C18.8809 11.4101 18.9239 11.1631 18.9239 10.9922ZM20.5171 10.2251L19.8125 12.811V12.8203C19.7052 13.2186 19.6512 13.4503 19.6512 13.5167C19.6512 13.5782 19.6619 13.6272 19.6867 13.6656C19.7098 13.7043 19.74 13.721 19.7805 13.721C19.8946 13.721 20.0435 13.5839 20.2222 13.3085C20.2762 13.23 20.3178 13.1678 20.3462 13.1244L20.5508 13.2858C20.321 13.6894 20.0918 13.9878 19.858 14.1779C19.6242 14.3687 19.3716 14.4629 19.1026 14.4629C18.8784 14.4629 18.7071 14.4132 18.5917 14.3147C18.4726 14.2128 18.4147 14.0678 18.4147 13.8742C18.4147 13.8166 18.419 13.7423 18.4314 13.6553C18.4417 13.5668 18.4602 13.4524 18.4847 13.3128C18.2719 13.7018 18.0399 13.9914 17.7894 14.1783C17.54 14.3687 17.261 14.4629 16.9537 14.4629C16.6361 14.4629 16.3863 14.3641 16.2026 14.1659C16.0182 13.9655 15.9261 13.6937 15.9261 13.3476C15.9261 12.9493 16.0132 12.53 16.1919 12.0866C16.3682 11.6489 16.6051 11.2569 16.904 10.9205C17.1395 10.6501 17.3833 10.4422 17.637 10.2966C17.8924 10.1509 18.1365 10.0791 18.3714 10.0791C18.5959 10.0791 18.77 10.1338 18.8997 10.2422C19.0291 10.3523 19.114 10.5197 19.1548 10.7425L19.2845 10.2251L20.5171 10.2251Z" fill="#161F49"/>
<path d="M20.1065 10.5829V10.3442C20.4497 10.3058 20.7972 10.2582 21.1515 10.2049C21.5029 10.1512 21.6944 10.1253 21.721 10.1253C21.8624 10.1253 22.0475 10.7474 22.2717 11.9939C22.3627 12.4899 22.4373 12.8896 22.496 13.1888C22.7631 12.6469 22.9458 12.2515 23.0445 12.0042C23.143 11.7583 23.1913 11.5753 23.1913 11.4584C23.1913 11.3678 23.1089 11.2577 22.9447 11.1322C22.7809 11.0054 22.6971 10.8597 22.6971 10.6988C22.6971 10.5122 22.7539 10.3619 22.8697 10.2479C22.9831 10.1356 23.1348 10.0791 23.3242 10.0791C23.5114 10.0791 23.6592 10.1356 23.7651 10.2479C23.8692 10.3619 23.9232 10.5215 23.9232 10.7243C23.9232 10.9795 23.8006 11.3905 23.558 11.9558C23.3146 12.5201 22.982 13.1554 22.561 13.866C22.0845 14.6761 21.6496 15.2641 21.2595 15.6365C20.869 16.0085 20.4931 16.1936 20.1317 16.1936C19.8915 16.1936 19.7036 16.1403 19.5661 16.0334C19.4293 15.9257 19.3604 15.7786 19.3604 15.591C19.3604 15.4205 19.419 15.2822 19.5387 15.17C19.657 15.0588 19.807 15.0037 19.9896 15.0037C20.1324 15.0037 20.2859 15.0609 20.4497 15.1735C20.6128 15.2879 20.724 15.3419 20.778 15.3419C20.8765 15.3419 20.9873 15.2595 21.1127 15.095C21.2417 14.9284 21.306 14.772 21.306 14.6203C21.306 14.5098 21.2957 14.3687 21.2762 14.1996C21.257 14.0287 21.2261 13.8201 21.1863 13.5725C21.1031 13.0413 21.0189 12.5563 20.9351 12.1211C20.8491 11.6865 20.7727 11.3433 20.7041 11.0924C20.6437 10.8771 20.583 10.7371 20.5215 10.671C20.46 10.6057 20.3605 10.5733 20.2184 10.5733H20.2074C20.1662 10.579 20.1346 10.5829 20.1065 10.5829Z" fill="#161F49"/>
<path d="M25.6012 13.2937C25.3358 13.6678 25.075 13.9549 24.8209 14.1532C24.5694 14.3536 24.3395 14.4531 24.1305 14.4531C23.9621 14.4531 23.8307 14.3973 23.7337 14.2896C23.6367 14.1795 23.5873 14.032 23.5873 13.8473C23.5873 13.7822 23.594 13.7101 23.6068 13.6291C23.6185 13.5474 23.6374 13.4568 23.6626 13.3612L24.4201 10.3994H23.6225L23.6967 10.1446C24.0396 10.0696 24.3427 9.90619 24.6074 9.65321C24.8707 9.39916 25.1098 9.04848 25.3198 8.59937H25.5919L25.2359 10.0863H25.9647L25.8911 10.3994H25.14L24.4127 13.2603C24.396 13.3253 24.3832 13.3822 24.3743 13.4358C24.3682 13.4881 24.3626 13.536 24.3626 13.5765C24.3626 13.6718 24.3832 13.7435 24.4262 13.7947C24.4656 13.8455 24.5257 13.87 24.5985 13.87C24.6937 13.87 24.8056 13.8146 24.9382 13.6984C25.0703 13.5847 25.2377 13.3978 25.4384 13.1402L25.6012 13.2937Z" fill="#161F49"/>
<path d="M26.3451 12.3186C26.9314 12.2905 27.4256 12.1299 27.8218 11.8404C28.2212 11.5462 28.418 11.2161 28.418 10.8416C28.418 10.7162 28.3864 10.622 28.3228 10.5588C28.2613 10.498 28.1657 10.4667 28.0375 10.4667C27.6822 10.4667 27.3521 10.6277 27.0501 10.956C26.7477 11.2864 26.5135 11.7398 26.3451 12.3186ZM26.2758 12.6323C26.2485 12.7386 26.2311 12.8413 26.2186 12.939C26.2041 13.0338 26.2002 13.123 26.2002 13.2037C26.2002 13.4517 26.2602 13.6411 26.3839 13.7715C26.5054 13.9022 26.6848 13.9989 26.9186 13.9989C27.1488 13.9989 27.4135 13.8894 27.7049 13.7313C27.9998 13.5743 28.3313 13.3362 28.6966 13.0182L28.8895 13.3103C28.4535 13.7032 28.0432 13.9939 27.6573 14.1794C27.2728 14.3687 26.8962 14.4611 26.5263 14.4611C26.1643 14.4611 25.88 14.3513 25.6807 14.1356C25.4796 13.9171 25.3798 13.6112 25.3798 13.2122C25.3798 12.831 25.4579 12.443 25.6143 12.05C25.7706 11.6584 25.9845 11.307 26.2545 11.0029C26.5164 10.7112 26.8045 10.4898 27.1147 10.3349C27.4295 10.1818 27.7504 10.1025 28.0808 10.1025C28.3853 10.1025 28.6237 10.174 28.8 10.3154C28.9758 10.4557 29.0647 10.6494 29.0647 10.8959C29.0647 11.3397 28.806 11.7252 28.2936 12.0493C27.7802 12.3726 27.1076 12.5655 26.2758 12.6323Z" fill="#161F49"/>
<path d="M32.0042 12.6933L31.9928 13.254C31.7167 13.658 31.4175 13.9593 31.0917 14.1604C30.7659 14.3597 30.4102 14.4588 30.0251 14.4588C29.6033 14.4588 29.2587 14.3178 28.994 14.0321C28.7303 13.751 28.5989 13.3766 28.5989 12.9115C28.5989 12.5696 28.6735 12.2211 28.8227 11.8654C28.9702 11.5083 29.1777 11.1914 29.4424 10.9096C29.6843 10.6549 29.9558 10.4559 30.2567 10.3195C30.5549 10.1806 30.8597 10.1091 31.1738 10.1091C31.5032 10.1091 31.7647 10.1859 31.9597 10.3362C32.1545 10.4868 32.2522 10.6869 32.2522 10.9391C32.2522 11.0887 32.2024 11.2184 32.1001 11.325C31.9992 11.4327 31.8798 11.4852 31.7402 11.4852C31.6261 11.4852 31.5341 11.4494 31.4634 11.3737C31.393 11.2991 31.3578 11.2024 31.3578 11.0816C31.3578 10.9974 31.3852 10.9011 31.4431 10.7888C31.4989 10.6783 31.5259 10.6094 31.5259 10.5817C31.5259 10.5298 31.4986 10.4882 31.4399 10.4559C31.3817 10.4236 31.3049 10.4076 31.2051 10.4076C31.0022 10.4076 30.7968 10.4694 30.5851 10.5973C30.3751 10.7274 30.1914 10.9022 30.0336 11.1242C29.8414 11.3936 29.6929 11.6803 29.5888 11.983C29.4861 12.285 29.4353 12.5785 29.4353 12.8692C29.4353 13.1975 29.5177 13.46 29.6844 13.6516C29.8528 13.8434 30.0787 13.9735 30.3648 13.9735C30.5904 13.9735 30.8121 13.8679 31.0299 13.7272C31.2491 13.584 31.6119 13.2991 32.0042 12.6933Z" fill="#161F49"/>
<path d="M31.5071 14.4637L32.999 9.05835C33.0079 9.02531 33.0132 8.99191 33.0171 8.95566C33.0228 8.92262 33.0243 8.88815 33.0243 8.86045C33.0243 8.76416 32.9998 8.69807 32.9532 8.66076C32.906 8.62772 32.7706 8.6096 32.5496 8.6096H32.2099L32.2625 8.36301C32.5365 8.352 32.7923 8.31967 33.0307 8.27313C33.2666 8.22338 33.4926 8.15943 33.7019 8.07593H33.9715L32.939 11.8095C33.4677 11.2705 33.9548 10.8534 34.3979 10.5528C34.8399 10.2575 35.1931 10.1076 35.4564 10.1076C35.5953 10.1076 35.6959 10.1406 35.7627 10.2067C35.8277 10.2749 35.8629 10.3783 35.8629 10.5172C35.8629 10.5606 35.8557 10.6121 35.8429 10.6743C35.8312 10.7386 35.8152 10.809 35.796 10.8846L35.0424 13.4279C35.0293 13.4766 35.0169 13.5317 35.0073 13.5907C34.997 13.6475 34.9916 13.7065 34.9916 13.7633C34.9916 13.796 35.0073 13.8245 35.0343 13.8508C35.0613 13.8756 35.0943 13.92 35.1298 13.92C35.2034 13.92 35.3068 13.839 35.4358 13.7388C35.5658 13.6386 35.7023 13.5015 35.8465 13.3281L36 13.4599C35.7406 13.7818 35.4905 14.0298 35.2507 14.1986C35.0098 14.3691 34.7873 14.4551 34.5848 14.4551C34.4523 14.4551 34.3478 14.4224 34.2714 14.3585C34.1936 14.2931 34.1567 14.2064 34.1567 14.0931C34.1567 14.0533 34.1599 14.0103 34.1687 13.9644C34.1766 13.919 34.1915 13.8696 34.2096 13.8152L34.9838 11.1849C34.998 11.1273 35.0073 11.0832 35.0122 11.0534C35.0169 11.0246 35.0183 10.9958 35.0183 10.9717C35.0183 10.9045 35.0002 10.8534 34.9611 10.8171C34.9241 10.7837 34.8701 10.7663 34.799 10.7663C34.6889 10.7663 34.5262 10.8349 34.3119 10.9742C34.0959 11.1131 33.8497 11.3117 33.5661 11.5686C33.3128 11.796 33.1255 11.9896 33.0079 12.1499C32.8903 12.3105 32.8043 12.4768 32.7511 12.6494L32.2376 14.4636C32.179 14.4548 31.9715 14.448 31.9111 14.4441C31.8511 14.4399 31.9388 14.4399 31.8766 14.4399C31.8137 14.4399 31.7509 14.4399 31.6901 14.4441C31.6311 14.448 31.57 14.4548 31.5071 14.4637Z" fill="#161F49"/>
</g>
<defs>
<clipPath id="clip0_1_1266">
<rect width="36" height="24" fill="white"/>
</clipPath>
</defs>
</svg>
