<svg width="36" height="24" viewBox="0 0 36 24" fill="none" xmlns="http://www.w3.org/2000/svg">
<path d="M18.469 12.138V7.72748C18.469 6.98303 19.2697 6.51612 19.9137 6.88442L20.1894 7.04246C20.3299 7.95474 20.5979 10.8052 18.4684 12.138H18.469Z" fill="url(#paint0_linear_975_25928)"/>
<path d="M21.4649 12.3268L19.9325 13.2129C19.2885 13.6015 18.469 13.1359 18.469 12.3816V12.1381C20.5985 10.8046 20.3305 7.95476 20.19 7.04248L20.3572 7.13782C21.1553 7.91493 22.7118 9.81785 21.4649 12.3268Z" fill="url(#paint1_linear_975_25928)"/>
<path d="M23.6516 11.0621L21.4649 12.3276C22.7118 9.8187 21.1553 7.91578 20.3572 7.13867L23.6282 9.0109C24.3801 9.44125 24.3931 10.6147 23.6516 11.0621Z" fill="url(#paint2_linear_975_25928)"/>
<g style="mix-blend-mode:multiply" opacity="0.82">
<path d="M18.469 12.1381V11.6202C20.5777 10.3814 20.19 7.73665 20.19 7.04248C20.3305 7.95476 20.5985 10.8052 18.469 12.1381Z" fill="#A80000"/>
</g>
<g style="mix-blend-mode:multiply" opacity="0.36">
<path d="M21.4649 12.3267L20.7455 12.7426C22.4607 10.5243 21.1553 7.9148 20.3572 7.1377C21.1553 7.9148 22.7118 9.81772 21.4649 12.3267Z" fill="#4C0700"/>
</g>
<path d="M17.9831 9.70573V12.6189L17.6904 12.79C15.0991 14.3527 11.8 12.4791 11.8 9.44386V4.67676C11.9483 10.6709 14.6561 10.9746 15.6279 10.889C15.8328 10.8871 16.0435 10.8322 16.2406 10.7134L17.9824 9.70507L17.9831 9.70573Z" fill="url(#paint3_linear_975_25928)"/>
<path d="M18.1925 0.903531C17.3769 0.764436 16.4955 0.808842 15.782 1.2196C15.0841 1.62186 14.5462 2.3735 14.3881 3.6469L14.4102 3.64951C14.4031 3.70241 14.3998 3.75661 14.3998 3.81277V9.66782C14.3998 10.3855 14.9898 10.8955 15.6279 10.8896C14.6561 10.9752 11.9483 10.6709 11.8 4.67738V3.85718C11.8 0.901572 14.9787 -0.952375 17.5356 0.511061L18.1925 0.903531Z" fill="url(#paint4_linear_975_25928)"/>
<path d="M23.7531 8.52129L22.6636 7.89895C22.8711 7.36216 22.8711 6.66342 22.8711 6.66342C22.862 6.42703 22.8223 6.18933 22.7527 5.95554C22.5407 5.24374 22.0613 4.64557 21.4031 4.27203L21.3874 4.26354L16.943 1.56393C16.5755 1.35234 16.1859 1.23676 15.782 1.21978C16.4955 0.809025 17.3769 0.764619 18.1925 0.903714L22.0496 3.2076C24.0432 4.32101 24.6682 6.70652 23.7537 8.52129H23.7531Z" fill="url(#paint5_linear_975_25928)"/>
<path d="M22.8718 6.66272C22.8718 6.66272 22.8718 7.36146 22.6643 7.89825L21.5235 7.24652C21.7466 6.5948 21.5332 5.79354 20.8899 5.42588L16.2172 2.75238C15.4549 2.31616 14.5189 2.8105 14.4103 3.64964L14.3882 3.64703C14.5469 2.37428 15.0842 1.62199 15.7821 1.21973C16.186 1.23671 16.5763 1.35229 16.9431 1.56387L21.3882 4.26284L21.4038 4.27133C22.062 4.64486 22.5414 5.24303 22.7534 5.95483C22.823 6.18862 22.8621 6.42697 22.8718 6.66272Z" fill="url(#paint6_linear_975_25928)"/>
<g style="mix-blend-mode:multiply" opacity="0.26">
<path d="M18.3045 0.970028C17.1675 0.894929 15.9987 1.3638 15.3612 2.61762C14.8812 2.72276 14.4792 3.11588 14.4103 3.64875L14.3882 3.64614C14.7088 1.07059 16.5802 0.627841 18.1932 0.903419L18.3051 0.970028H18.3045Z" fill="#000544"/>
</g>
<path d="M19.4818 12.7429C19.3042 12.7429 19.1123 12.6012 19.1123 12.3727V7.62124C19.1123 7.39268 19.3035 7.25098 19.4811 7.25098C19.5429 7.25098 19.604 7.26796 19.6619 7.30061L23.454 9.47062C23.6211 9.56662 23.7226 9.75599 23.7252 9.97868C23.7278 10.1994 23.6322 10.3901 23.4696 10.4906L19.6743 12.6868L19.6697 12.6894C19.6099 12.7253 19.5468 12.7436 19.4824 12.7436L19.4818 12.7429Z" fill="url(#paint7_linear_975_25928)"/>
<path d="M9.68957 22.4035H10.7252V23.999H2.69382C2.22804 23.999 1.83318 23.8357 1.50791 23.5092C1.18265 23.1826 1.02002 22.7862 1.02002 22.3185V16.9754C1.02002 16.5078 1.18265 16.1113 1.50791 15.7848C1.83318 15.4582 2.22804 15.2949 2.69382 15.2949H8.00406C8.46983 15.2949 8.86665 15.4582 9.19582 15.7848C9.52498 16.1113 9.68957 16.5084 9.68957 16.9754V22.4035ZM2.69382 22.4035H8.00406C8.06 22.4035 8.08863 22.3754 8.08863 22.3185V16.9754C8.08863 16.9192 8.06065 16.8905 8.00406 16.8905H2.69382C2.63788 16.8905 2.60925 16.9186 2.60925 16.9754V22.3185C2.60925 22.3754 2.63722 22.4035 2.69382 22.4035Z" fill="#490162"/>
<path d="M17.1668 16.9868H18.7444V22.33C18.7444 22.7891 18.5817 23.1823 18.2565 23.5088C17.9312 23.8354 17.5402 23.9987 17.0823 23.9987H13.3138C12.848 23.9987 12.4544 23.8354 12.1337 23.5088C11.8124 23.1823 11.6523 22.7898 11.6523 22.33V16.9868H13.2299V22.33C13.2299 22.3861 13.2578 22.4149 13.3144 22.4149H17.0829C17.1389 22.4149 17.1675 22.3868 17.1675 22.33V16.9868H17.1668Z" fill="#490162"/>
<path d="M25.282 16.9874C25.7393 16.9874 26.131 17.1507 26.4562 17.4773C26.7815 17.8038 26.9441 18.1964 26.9441 18.6562V22.3313C26.9441 22.7904 26.7815 23.1836 26.4562 23.5101C26.131 23.8367 25.74 24 25.282 24H19.8514V14.6904H21.429V16.9874H25.282ZM25.3666 22.3306V18.6555C25.3666 18.5993 25.3386 18.5706 25.282 18.5706H21.5135C21.4569 18.5706 21.429 18.5987 21.429 18.6555V22.3306C21.429 22.3868 21.4569 22.4155 21.5135 22.4155H25.282C25.338 22.4155 25.3666 22.3874 25.3666 22.3306Z" fill="#490162"/>
<path d="M29.4363 14.6904H27.8588V16.286H29.4363V14.6904Z" fill="#FE2511"/>
<path d="M29.4363 16.9868H27.8588V23.998H29.4363V16.9868Z" fill="#490162"/>
<path d="M34.9749 18.5713H32.2538V22.3306C32.2538 22.3868 32.2817 22.4155 32.3383 22.4155H34.9755V23.9993H32.3383C31.8725 23.9993 31.479 23.836 31.1583 23.5095C30.8369 23.1829 30.6769 22.7904 30.6769 22.3306V14.6904H32.2544V16.9874H34.9755V18.5713H34.9749Z" fill="#490162"/>
<defs>
<linearGradient id="paint0_linear_975_25928" x1="19.0733" y1="4.75294" x2="19.5407" y2="12.9162" gradientUnits="userSpaceOnUse">
<stop offset="0.12" stop-color="#C0001C"/>
<stop offset="0.91" stop-color="#FECC04"/>
</linearGradient>
<linearGradient id="paint1_linear_975_25928" x1="19.9728" y1="14.8279" x2="20.7176" y2="3.57333" gradientUnits="userSpaceOnUse">
<stop offset="0.14" stop-color="#FE2711"/>
<stop offset="0.7" stop-color="#FFB306"/>
</linearGradient>
<linearGradient id="paint2_linear_975_25928" x1="23.5885" y1="13.2301" x2="21.138" y2="6.29976" gradientUnits="userSpaceOnUse">
<stop offset="0.23" stop-color="#FC5F1C"/>
<stop offset="0.67" stop-color="#FFF734"/>
</linearGradient>
<linearGradient id="paint3_linear_975_25928" x1="11.8807" y1="10.8494" x2="18.001" y2="10.8494" gradientUnits="userSpaceOnUse">
<stop stop-color="#DD1060"/>
<stop offset="0.635" stop-color="#8F0B7D"/>
<stop offset="1" stop-color="#370791"/>
</linearGradient>
<linearGradient id="paint4_linear_975_25928" x1="14.9409" y1="-1.39801e-09" x2="14.9963" y2="10.9001" gradientUnits="userSpaceOnUse">
<stop offset="0.215" stop-color="#FE0075"/>
<stop offset="0.515" stop-color="#BD0A6D"/>
<stop offset="1" stop-color="#47007B"/>
</linearGradient>
<linearGradient id="paint5_linear_975_25928" x1="19.9739" y1="0.83252" x2="19.9739" y2="8.52129" gradientUnits="userSpaceOnUse">
<stop stop-color="#C100A2"/>
<stop offset="0.138824" stop-color="#CA00A7"/>
<stop offset="0.277547" stop-color="#F000BE"/>
<stop offset="0.444331" stop-color="#E006CB"/>
<stop offset="0.760641" stop-color="#9512CC"/>
<stop offset="1" stop-color="#8F08B1"/>
</linearGradient>
<linearGradient id="paint6_linear_975_25928" x1="18.5574" y1="1.39115" x2="18.5574" y2="7.78959" gradientUnits="userSpaceOnUse">
<stop stop-color="#6E0072"/>
<stop offset="0.274759" stop-color="#7E0066"/>
<stop offset="0.53923" stop-color="#8D0083"/>
<stop offset="0.745827" stop-color="#750197"/>
<stop offset="1" stop-color="#3103AC"/>
</linearGradient>
<linearGradient id="paint7_linear_975_25928" x1="22.1446" y1="7.3757" x2="21.274" y2="9.11653" gradientUnits="userSpaceOnUse">
<stop stop-color="white"/>
<stop offset="0.35" stop-color="white" stop-opacity="0.66"/>
<stop offset="1" stop-color="white" stop-opacity="0"/>
</linearGradient>
</defs>
</svg>
