<svg width="36" height="24" viewBox="0 0 36 24" fill="none" xmlns="http://www.w3.org/2000/svg">
<g opacity="0.994">
<path fill-rule="evenodd" clip-rule="evenodd" d="M19.849 2.85159C19.0588 2.76871 18.2665 2.73654 17.472 2.75509C16.9021 2.77433 16.3333 2.82342 15.7654 2.90238C15.197 2.97506 14.6484 3.12067 14.1198 3.33918C13.7545 3.49127 13.4515 3.72321 13.2107 4.03501C12.9708 4.41947 12.8388 4.83934 12.8145 5.29462C12.7926 5.69097 12.796 6.08714 12.8246 6.48312C12.8978 7.26879 12.9722 8.05436 13.0481 8.83981C13.1368 9.7581 13.2892 10.6655 13.5052 11.5622C13.6035 11.9684 13.7524 12.3544 13.9522 12.7202C14.128 13.0011 14.3599 13.2228 14.648 13.3856C15.0708 13.6112 15.5178 13.7703 15.9889 13.863C16.8754 14.0352 17.7693 14.0928 18.6706 14.0357C19.4003 14.0021 20.1114 13.87 20.8039 13.6395C21.14 13.5189 21.4447 13.3463 21.7181 13.1215C21.9824 12.8623 22.1737 12.556 22.292 12.2021C22.4222 11.837 22.5273 11.4645 22.6069 11.0848C22.7546 10.3691 22.8664 9.64791 22.9421 8.92107C23.0065 8.22661 23.0742 7.53248 23.1453 6.83866C23.1929 6.38266 23.2099 5.92554 23.1961 5.46731C23.1863 5.20595 23.1491 4.9486 23.0844 4.69529C22.9922 4.3229 22.8077 4.00632 22.5307 3.74551C22.2465 3.51187 21.9282 3.33579 21.5759 3.21728C21.0136 3.03304 20.438 2.91115 19.849 2.85159ZM19.8693 3.25792C19.1301 3.17523 18.3886 3.13967 17.6447 3.15125C16.8464 3.16428 16.0541 3.24723 15.2677 3.40013C14.9218 3.47218 14.5866 3.57714 14.262 3.71503C13.9654 3.84201 13.7199 4.03332 13.5256 4.28897C13.3487 4.58598 13.2471 4.90765 13.2208 5.25399C13.1883 5.63992 13.1883 6.02592 13.2208 6.41201C13.2904 7.16723 13.3615 7.92233 13.4341 8.67728C13.4643 8.96552 13.4981 9.25333 13.5357 9.54072C13.6271 10.2722 13.7693 10.9934 13.9624 11.7044C14.0508 12.0311 14.1862 12.3358 14.3687 12.6186C14.5631 12.857 14.8018 13.0382 15.0848 13.1621C15.5412 13.3541 16.0152 13.4828 16.507 13.5481C17.7056 13.7222 18.8976 13.6849 20.0826 13.4364C20.4696 13.3514 20.8352 13.2126 21.1797 13.0199C21.3676 12.9098 21.5251 12.7658 21.6521 12.5882C21.8111 12.3314 21.933 12.0571 22.0178 11.7653C22.2236 11.032 22.3725 10.287 22.4647 9.53056C22.568 8.61048 22.6629 7.68947 22.7491 6.76755C22.7736 6.50392 22.7906 6.2398 22.7999 5.97521C22.8184 5.59524 22.7879 5.21939 22.7085 4.84766C22.6364 4.53901 22.4891 4.2732 22.2666 4.05025C22.0197 3.84542 21.742 3.69305 21.4337 3.59313C20.9238 3.42818 20.4023 3.31644 19.8693 3.25792Z" fill="#00285B"/>
<path fill-rule="evenodd" clip-rule="evenodd" d="M17.5533 3.69979C18.2011 3.6881 18.8479 3.71011 19.4935 3.76582C19.9951 3.80878 20.4894 3.89344 20.9765 4.01978C21.2957 4.09985 21.5903 4.23191 21.8603 4.41594C22.0194 4.55626 22.1227 4.73063 22.1701 4.93909C22.2475 5.30079 22.2747 5.66648 22.2514 6.03616C22.2423 6.24639 22.2288 6.45632 22.2108 6.66597C22.1239 7.59121 22.029 8.5156 21.9263 9.43914C21.8404 10.1464 21.705 10.844 21.52 11.5317C21.4586 11.7495 21.3774 11.9595 21.2762 12.1615C21.1724 12.3499 21.0251 12.4939 20.8343 12.5932C20.5214 12.7495 20.1929 12.8612 19.849 12.9285C18.9826 13.1007 18.109 13.1515 17.2282 13.0808C16.6191 13.0429 16.0266 12.9245 15.4505 12.7253C15.2093 12.6412 15.001 12.5074 14.8258 12.324C14.6757 12.0915 14.5639 11.8409 14.4906 11.5723C14.325 10.9713 14.1997 10.3618 14.1147 9.74388C14.0728 9.45329 14.0355 9.1621 14.003 8.87028C13.938 8.17927 13.8702 7.48851 13.7998 6.79802C13.7538 6.36571 13.7369 5.9323 13.749 5.49778C13.7568 5.26162 13.7974 5.03137 13.8709 4.80703C13.9529 4.58622 14.0968 4.41861 14.3027 4.3042C14.6493 4.12431 15.015 3.99903 15.3997 3.92835C16.1127 3.79239 16.8306 3.7162 17.5533 3.69979ZM15.1763 5.68063C15.1127 5.68546 15.0534 5.70578 14.9985 5.74158C14.9493 5.85182 14.9155 5.96696 14.8969 6.08695C14.8866 6.14347 14.8934 6.19766 14.9172 6.24948C14.9626 6.28151 15.0118 6.30691 15.0645 6.32567C15.2306 6.35704 15.3931 6.40105 15.5521 6.45773C15.8736 6.59012 16.0039 6.82883 15.9432 7.17387C15.7749 8.0154 15.5988 8.85515 15.415 9.69309C15.3583 9.8717 15.2381 9.97833 15.0544 10.0131C14.962 10.0212 14.8706 10.0347 14.7801 10.0537C14.7585 10.0651 14.7399 10.0803 14.7242 10.0994C14.6861 10.1868 14.6641 10.2782 14.6582 10.3737C14.665 10.4668 14.7158 10.5194 14.8106 10.5311C15.6469 10.5408 16.4833 10.5442 17.3196 10.5413C17.3679 10.53 17.4 10.5012 17.4161 10.455C17.4403 10.3436 17.4623 10.2319 17.4821 10.1197C17.4763 10.0783 17.4559 10.0461 17.4212 10.0232C17.2829 9.99976 17.1543 9.95233 17.0352 9.88102C16.9038 9.79191 16.8513 9.66831 16.8777 9.51024C16.9488 9.11408 17.02 8.71791 17.0911 8.32174C17.1064 8.21458 17.1623 8.18241 17.2587 8.22524C17.6663 8.93389 18.0676 9.64666 18.4624 10.3635C18.5388 10.51 18.6607 10.5743 18.8281 10.5565C19.49 10.5478 20.152 10.5393 20.814 10.5311C20.8718 10.5217 20.9175 10.4929 20.9511 10.4448C20.9895 10.3392 21.0183 10.231 21.0375 10.1197C21.0334 10.0259 20.986 9.96665 20.8953 9.94196C20.7613 9.90745 20.6292 9.86682 20.4991 9.82007C20.3851 9.77361 20.2886 9.7042 20.2096 9.61183C20.1946 9.56534 20.1912 9.51793 20.1994 9.46961C20.4281 8.52448 20.6584 7.57977 20.8902 6.63549C20.9288 6.54289 20.9881 6.46671 21.068 6.40694C21.1874 6.34679 21.3128 6.30276 21.4438 6.27488C21.4784 6.26066 21.5072 6.23865 21.5302 6.20885C21.5638 6.0946 21.5943 5.97948 21.6216 5.86348C21.6421 5.7417 21.5896 5.68245 21.4641 5.68571C20.7091 5.67893 19.9539 5.67893 19.1989 5.68571C19.0971 5.69609 19.0277 5.74858 18.9906 5.84316C18.9662 5.94252 18.9442 6.0424 18.9246 6.14282C18.927 6.19862 18.9542 6.23587 19.0059 6.25456C19.0824 6.2628 19.1569 6.27973 19.2293 6.30535C19.3179 6.33008 19.384 6.38257 19.4274 6.46281C19.4432 6.5536 19.4465 6.64502 19.4376 6.73708C19.329 7.26605 19.2173 7.79427 19.1024 8.32174C18.6841 7.53938 18.271 6.75383 17.8631 5.96506C17.7696 5.79374 17.6258 5.70062 17.4314 5.68571C16.6797 5.68063 15.928 5.67893 15.1763 5.68063Z" fill="#00285B"/>
</g>
<path opacity="0.988" fill-rule="evenodd" clip-rule="evenodd" d="M33.5625 16.5295C34.1284 16.5197 34.6769 16.6129 35.2081 16.8089C35.4372 16.8892 35.6607 16.9822 35.8785 17.0882C35.7325 17.3239 35.5887 17.561 35.4468 17.7993C35.4393 17.8101 35.4291 17.8169 35.4163 17.8196C34.9028 17.5079 34.3459 17.3319 33.7453 17.2914C33.331 17.2917 32.9517 17.405 32.6076 17.6317C32.1022 18.0403 31.9075 18.5668 32.0235 19.2112C32.1767 19.8114 32.5508 20.199 33.146 20.3744C33.5987 20.4923 34.0491 20.4821 34.497 20.3439C34.8928 20.2188 35.255 20.0326 35.5839 19.7852C35.5992 19.78 35.6109 19.7851 35.6195 19.8004C35.7422 20.0154 35.8674 20.2287 35.9953 20.4404C36.003 20.452 36.0012 20.4621 35.9903 20.4709C35.4939 20.7995 34.9555 21.0348 34.3751 21.1768C33.6921 21.3108 33.0283 21.2465 32.3841 20.9838C31.607 20.6229 31.1719 20.0152 31.0788 19.1605C31.0027 18.4543 31.1992 17.838 31.668 17.3117C32.1067 16.8919 32.6298 16.6431 33.2374 16.5651C33.3472 16.5524 33.4556 16.5406 33.5625 16.5295Z" fill="#00285B"/>
<path opacity="0.99" fill-rule="evenodd" clip-rule="evenodd" d="M0 16.5804C0.31159 16.577 0.62311 16.5804 0.934548 16.5905C1.85913 17.6387 2.78183 18.6884 3.70264 19.7395C3.70772 18.6864 3.70941 17.6335 3.70772 16.5804C4.00569 16.5804 4.30366 16.5804 4.60163 16.5804C4.60163 18.1277 4.60163 19.6752 4.60163 21.2226C4.32734 21.2243 4.05307 21.2226 3.77882 21.2175C2.8155 20.1255 1.85216 19.0335 0.888836 17.9415C0.883757 19.0353 0.882061 20.1289 0.883757 21.2226C0.589172 21.2226 0.294586 21.2226 0 21.2226C0 19.6752 0 18.1277 0 16.5804Z" fill="#00285B"/>
<path opacity="0.988" fill-rule="evenodd" clip-rule="evenodd" d="M7.03954 17.1796C7.40452 17.1617 7.76006 17.2108 8.10614 17.3269C8.79121 17.5924 9.16879 18.0918 9.23878 18.8253C9.30399 19.4425 9.11271 19.9623 8.66484 20.3845C8.35441 20.6247 8.00223 20.7635 7.6084 20.801C7.15235 20.8582 6.70539 20.8176 6.26752 20.6791C5.60059 20.4073 5.23659 19.9113 5.17552 19.1909C5.12428 18.6675 5.26311 18.2036 5.59201 17.7993C5.89341 17.4851 6.26079 17.2937 6.69416 17.2253C6.81026 17.2059 6.92538 17.1907 7.03954 17.1796ZM7.12081 17.8704C7.53312 17.8574 7.88013 17.9996 8.16201 18.297C8.41333 18.6198 8.48108 18.9786 8.36518 19.3738C8.21474 19.7545 7.94209 19.9999 7.54745 20.1103C7.03691 20.2279 6.60181 20.0975 6.24213 19.7192C6.00742 19.4116 5.9397 19.0697 6.03897 18.6932C6.18126 18.2868 6.46061 18.0277 6.87701 17.9161C6.95909 17.8974 7.04035 17.8822 7.12081 17.8704Z" fill="#00285B"/>
<path opacity="0.988" fill-rule="evenodd" clip-rule="evenodd" d="M14.902 17.1795C15.2894 17.1601 15.6653 17.216 16.0295 17.3471C16.7008 17.6343 17.0614 18.1439 17.1114 18.8759C17.1561 19.3851 17.0172 19.8355 16.6949 20.227C16.364 20.5693 15.9594 20.7606 15.481 20.8009C14.9943 20.8639 14.5202 20.8131 14.0589 20.6485C13.5776 20.4381 13.2609 20.0808 13.1091 19.5769C13.0375 19.2647 13.0239 18.9498 13.0684 18.6321C13.2145 17.9409 13.6259 17.4922 14.3027 17.2862C14.5005 17.2313 14.7002 17.1958 14.902 17.1795ZM14.9934 17.8703C15.3944 17.8577 15.7347 17.9932 16.0143 18.2766C16.2771 18.5983 16.3515 18.9607 16.2378 19.3635C16.0916 19.7501 15.8191 19.999 15.42 20.1102C14.9357 20.224 14.5141 20.1106 14.1554 19.7699C13.8838 19.4518 13.8026 19.0895 13.9116 18.6829C14.0517 18.299 14.3175 18.0467 14.709 17.9262C14.8042 17.9019 14.8989 17.8833 14.9934 17.8703Z" fill="#00285B"/>
<path opacity="0.986" fill-rule="evenodd" clip-rule="evenodd" d="M9.17285 17.2202C9.46988 17.2169 9.76619 17.2202 10.0617 17.2304C10.4206 18.0499 10.7796 18.8692 11.1384 19.6887C11.5007 18.8676 11.858 18.0448 12.2101 17.2202C12.5047 17.2202 12.7993 17.2202 13.0939 17.2202C12.5811 18.4118 12.0597 19.6003 11.5295 20.7858C11.2664 20.7993 11.0041 20.7993 10.7423 20.7858C10.2161 19.5983 9.69295 18.4098 9.17285 17.2202Z" fill="#00285B"/>
<path opacity="0.99" fill-rule="evenodd" clip-rule="evenodd" d="M17.6853 17.2202C17.9562 17.2169 18.2271 17.2202 18.498 17.2304C18.8911 17.93 19.2822 18.6309 19.6712 19.3331C20.0623 18.6322 20.4534 17.9313 20.8445 17.2304C21.1153 17.2202 21.3862 17.2169 21.6571 17.2202C21.6571 18.4121 21.6571 19.6041 21.6571 20.7959C21.4133 20.7959 21.1695 20.7959 20.9257 20.7959C20.9275 20.0679 20.9257 19.3399 20.9207 18.6119C20.5094 19.3467 20.0929 20.078 19.6712 20.8061C19.2547 20.0747 18.8383 19.3433 18.4218 18.6119C18.4167 19.3399 18.415 20.0679 18.4167 20.7959C18.1729 20.7959 17.9291 20.7959 17.6853 20.7959C17.6853 19.6041 17.6853 18.4121 17.6853 17.2202Z" fill="#00285B"/>
<path opacity="0.987" fill-rule="evenodd" clip-rule="evenodd" d="M23.699 17.2202C23.9587 17.2169 24.2178 17.2203 24.4761 17.2304C25.0084 18.4159 25.5417 19.6011 26.076 20.7857C25.8018 20.7976 25.5275 20.7992 25.2532 20.7908C25.1259 20.5072 25.0006 20.2228 24.8773 19.9375C24.3525 19.9307 23.8277 19.9307 23.3028 19.9375C23.1747 20.2207 23.0495 20.5052 22.927 20.7908C22.6493 20.7976 22.3716 20.7976 22.094 20.7908C22.632 19.6018 23.167 18.4117 23.699 17.2202ZM24.085 18.1243C24.2498 18.4913 24.4123 18.8604 24.5726 19.2315C24.2476 19.2434 23.9226 19.2451 23.5974 19.2366C23.7613 18.8664 23.9239 18.4956 24.085 18.1243Z" fill="#00285B"/>
<path opacity="0.991" fill-rule="evenodd" clip-rule="evenodd" d="M25.6696 17.2202C26.7903 17.2202 27.9112 17.2202 29.0319 17.2202C29.0319 17.4505 29.0319 17.6807 29.0319 17.911C28.6086 17.911 28.1854 17.911 27.7621 17.911C27.7621 18.8726 27.7621 19.8342 27.7621 20.7959C27.4879 20.7959 27.2136 20.7959 26.9393 20.7959C26.9393 19.8342 26.9393 18.8726 26.9393 17.911C26.516 17.911 26.0928 17.911 25.6696 17.911C25.6696 17.6807 25.6696 17.4505 25.6696 17.2202Z" fill="#00285B"/>
<path opacity="0.991" fill-rule="evenodd" clip-rule="evenodd" d="M29.6312 17.2202C29.9088 17.2202 30.1866 17.2202 30.4642 17.2202C30.4642 18.4121 30.4642 19.604 30.4642 20.7959C30.1866 20.7959 29.9088 20.7959 29.6312 20.7959C29.6312 19.604 29.6312 18.4121 29.6312 17.2202Z" fill="#00285B"/>
</svg>
