<svg width="36" height="24" viewBox="0 0 36 24" fill="none" xmlns="http://www.w3.org/2000/svg">
<path d="M4.97421 8.12988H6.61548L4.03839 15.6812H2.54829L0 8.12988H1.68446L3.32574 13.8599L4.97421 8.12988Z" fill="#0F2032"/>
<path d="M11.7768 14.9972C11.3089 15.5803 10.589 15.8682 9.63164 15.8682C8.67423 15.8682 7.95437 15.5803 7.48646 14.9972C7.01856 14.4141 6.78101 13.7159 6.78101 12.8952C6.78101 12.0746 7.01856 11.3907 7.48646 10.8005C7.95437 10.2102 8.67423 9.91504 9.63164 9.91504C10.589 9.91504 11.3089 10.2102 11.7768 10.8005C12.2447 11.3907 12.4823 12.089 12.4823 12.8952C12.4823 13.7015 12.2447 14.4141 11.7768 14.9972ZM10.6106 14.191C10.841 13.8886 10.9562 13.4567 10.9562 12.8952C10.9562 12.3338 10.841 11.9018 10.6106 11.6067C10.3803 11.3116 10.0564 11.1532 9.62444 11.1532C9.19252 11.1532 8.86859 11.3044 8.63823 11.6067C8.40788 11.909 8.2927 12.341 8.2927 12.8952C8.2927 13.4495 8.40788 13.8886 8.63823 14.191C8.86859 14.4933 9.19972 14.6445 9.62444 14.6445C10.0492 14.6445 10.3803 14.4933 10.6106 14.191Z" fill="#0F2032"/>
<path d="M15.0737 15.6812H13.6124V8.12988H15.0737V15.6812Z" fill="#0F2032"/>
<path d="M16.1536 11.1895V10.1529H16.931V8.59082H18.3779V10.1457H19.2849V11.1823H18.3779V14.1337C18.3779 14.3641 18.4067 14.508 18.4643 14.5584C18.5219 14.616 18.7019 14.6448 18.997 14.6448C19.2921 14.6448 19.0906 14.6448 19.141 14.6448C19.1914 14.6448 19.2417 14.6448 19.2849 14.6376V15.7318L18.5939 15.7606C17.9028 15.7822 17.4349 15.667 17.183 15.4007C17.0174 15.2351 16.9382 14.9759 16.9382 14.6304V11.1895H16.1608H16.1536Z" fill="#0F2032"/>
<path d="M26.0588 9.52643H22.1428V11.1317H25.7277V12.4418H22.1428V14.3855H26.2388V15.746H20.5951V8.1875H26.0516V9.52643H26.0588Z" fill="#1EB3E1"/>
<path d="M31.6232 10.4765C31.9904 10.7788 32.1703 11.2827 32.1703 11.981V15.7386H30.673V12.3409C30.673 12.0457 30.637 11.8226 30.5579 11.6642C30.4139 11.3763 30.1475 11.2323 29.7444 11.2323C29.3413 11.2323 28.9166 11.4411 28.7294 11.8658C28.6358 12.0889 28.5855 12.3697 28.5855 12.7152V15.7386H27.1241V10.1669H28.5351V10.9804C28.7222 10.6924 28.9022 10.4837 29.0678 10.3613C29.3701 10.1381 29.7444 10.0229 30.2051 10.0229C30.6658 10.0229 31.2489 10.1741 31.616 10.4765H31.6232Z" fill="#1EB3E1"/>
<path d="M32.8687 11.2466V10.21H33.6461V8.64795H35.093V10.2028H36V11.2394H35.093V14.1908C35.093 14.4212 35.1218 14.5652 35.1794 14.6156C35.237 14.6731 35.4169 14.7019 35.7121 14.7019C36.0072 14.7019 35.8057 14.7019 35.8561 14.7019C35.9064 14.7019 35.9568 14.7019 36 14.6947V15.7889L35.309 15.8177C34.6179 15.8393 34.15 15.7241 33.898 15.4578C33.7325 15.2922 33.6533 15.0331 33.6533 14.6875V11.2466H32.8759H32.8687Z" fill="#1EB3E1"/>
</svg>
