<svg width="36" height="24" viewBox="0 0 36 24" fill="none" xmlns="http://www.w3.org/2000/svg">
<path d="M24.1142 7.31091H23.7469V7H22.7119H22.2111H22.0692V9.66724H22.7119V8.64454H23.7469V8.28453H24.1142V7.31091ZM22.7119 7.62999H23.4715V8.02272H22.7119V7.62999Z" fill="#111111"/>
<path d="M26.5265 7.31091H26.1593V7H24.8405V7.31091H24.4648V9.34815H24.8405V9.65906H26.1593V9.34815H26.5265V7.31091ZM25.8921 7.62999V9.03724H25.1159V7.62999H25.8921Z" fill="#111111"/>
<path d="M36.0001 7H34.005V7.62999H34.6812V9.66724H35.3239V7.62999H36.0001V7Z" fill="#111111"/>
<path d="M33.6125 7.62999V7H32.2187H31.7432H31.5759V9.66724H31.7432H32.2187H33.6125V9.03724H32.2187V8.64454H33.2539V8.01454H32.2187V7.62999H33.6125Z" fill="#111111"/>
<path d="M31.2677 8.01454V7H30.6248V8.01454H29.8652V7H29.2225V9.66724H29.8652V8.64454H30.6248V9.66724H31.2677V8.64454H30.942V8.01454H31.2677Z" fill="#111111"/>
<path d="M28.9216 8.01454V7.31091H28.5544V7H27.2356V7.31091H26.86V9.34815H27.2356V9.66724H28.5544V9.28269H28.9216V8.57908H28.2789V9.03724H27.5027V7.62999H28.2789V8.01454H28.9216Z" fill="#111111"/>
<path d="M31.2091 14.1508H29.2142V14.7808H29.8903V16.818H30.533V14.7808H31.2091V14.1508Z" fill="#111111"/>
<path d="M28.88 14.7808V14.1508H27.486H27.0103H26.8517V16.818H27.486V15.8035H28.521V15.1735H27.486V14.7808H28.88Z" fill="#111111"/>
<path d="M24.0641 14.7808V14.1508H22.4448V14.4698H22.0692V15.4353H22.4448V15.8035H23.4214V16.188H22.0692V16.818H23.6885V16.4498H24.0641V15.4844H23.6885V15.1735H22.7119V14.7808H24.0641Z" fill="#111111"/>
<path d="M26.4428 14.4701H26.1005V14.1592H24.7817V14.4701H24.4061V16.5074H24.7817V16.8183H26.1005V16.5074H26.4428V14.4701ZM25.8 14.781V16.1883H25.0489V14.781H25.8Z" fill="#111111"/>
<path d="M26.1255 10.8946V10.5837H24.8066V10.8946H24.431V13.2428H25.0737V12.5637H25.85V13.2428H26.4927V10.8946H26.1255ZM25.0737 11.9337V11.2056H25.85V11.9337H25.0737Z" fill="#111111"/>
<path d="M33.8888 11.2054V10.5754H32.2694V10.8945H31.9022V11.86H32.2694V12.22H33.246V12.6127H31.9022V13.2427H33.5212V12.8745H33.8888V11.909H33.5212V11.5981H32.5447V11.2054H33.8888Z" fill="#111111"/>
<path d="M31.5596 11.2054V10.5754H30.1739H29.6898H29.5312V13.2427H29.6898H30.1739H31.5596V12.6127H30.1739V12.22H31.209V11.5981H30.1739V11.2054H31.5596Z" fill="#111111"/>
<path d="M23.1126 11.5818V12.2118H23.4882V12.6127H22.7119V11.2054H23.7636V10.5754H22.4448V10.8945H22.0692V12.9236H22.4448V13.2427H23.7636V12.8581H24.1309V12.2118V12.1545V11.5818H23.1126Z" fill="#111111"/>
<path d="M28.5715 10.5754V11.2463H28.2126V11.5981H27.7869V11.2463H27.4363V10.9273H27.1108V10.5754H26.7936V11.86V11.95V13.2427H27.4363V12.1872H27.7869H27.8203V12.629H28.1792V12.1872H28.2126H28.5715V13.2427H29.2142V10.5754H28.5715Z" fill="#111111"/>
<path d="M1.7615 7H0.935181V7.80999H1.7615V7Z" fill="#111111"/>
<path d="M2.68766 7H1.86133V7.80999H2.68766V7Z" fill="#111111"/>
<path d="M3.62223 7H2.7959V7.80999H3.62223V7Z" fill="#111111"/>
<path d="M4.54911 7H3.72278V7.80999H4.54911V7Z" fill="#111111"/>
<path d="M5.48356 7H4.65723V7.80999H5.48356V7Z" fill="#111111"/>
<path d="M6.41044 7H5.58411V7.80999H6.41044V7Z" fill="#111111"/>
<path d="M7.34489 7H6.51855V7.80999H7.34489V7Z" fill="#111111"/>
<path d="M8.27177 7H7.44543V7.80999H8.27177V7Z" fill="#FF6D01"/>
<path d="M13.7887 7H12.9624V7.80999H13.7887V7Z" fill="#FFB918"/>
<path d="M14.7239 7H13.8976V7.80999H14.7239V7Z" fill="#111111"/>
<path d="M15.6501 7H14.8237V7.80999H15.6501V7Z" fill="#111111"/>
<path d="M16.5853 7H15.7589V7.80999H16.5853V7Z" fill="#111111"/>
<path d="M17.5115 7H16.6852V7.80999H17.5115V7Z" fill="#111111"/>
<path d="M12.8626 7.90002H12.0363V8.71002H12.8626V7.90002Z" fill="#111111"/>
<path d="M13.7887 7.90002H12.9624V8.71002H13.7887V7.90002Z" fill="#111111"/>
<path d="M14.7239 7.90002H13.8976V8.71002H14.7239V7.90002Z" fill="#111111"/>
<path d="M15.6501 7.90002H14.8237V8.71002H15.6501V7.90002Z" fill="#111111"/>
<path d="M16.5853 7.90002H15.7589V8.71002H16.5853V7.90002Z" fill="#111111"/>
<path d="M17.5115 7.90002H16.6852V8.71002H17.5115V7.90002Z" fill="#111111"/>
<path d="M18.4467 7.90002H17.6204V8.71002H18.4467V7.90002Z" fill="#111111"/>
<path d="M19.3728 7.90002H18.5465V8.71002H19.3728V7.90002Z" fill="#111111"/>
<path d="M11.9274 8.79993H11.1011V9.60993H11.9274V8.79993Z" fill="#E61973"/>
<path d="M12.8626 8.79993H12.0363V9.60993H12.8626V8.79993Z" fill="#111111"/>
<path d="M13.7887 8.79993H12.9624V9.60993H13.7887V8.79993Z" fill="#111111"/>
<path d="M18.4467 8.79993H17.6204V9.60993H18.4467V8.79993Z" fill="#111111"/>
<path d="M19.3728 8.79993H18.5465V9.60993H19.3728V8.79993Z" fill="#111111"/>
<path d="M11.9274 9.69995H11.1011V10.51H11.9274V9.69995Z" fill="#111111"/>
<path d="M12.8626 9.69995H12.0363V10.51H12.8626V9.69995Z" fill="#111111"/>
<path d="M11.9274 10.6H11.1011V11.41H11.9274V10.6Z" fill="#111111"/>
<path d="M12.8626 10.6H12.0363V11.41H12.8626V10.6Z" fill="#111111"/>
<path d="M11.9274 11.5082H11.1011V12.3181H11.9274V11.5082Z" fill="#111111"/>
<path d="M12.8626 11.5082H12.0363V12.3181H12.8626V11.5082Z" fill="#111111"/>
<path d="M16.5853 11.5082H15.7589V12.3181H16.5853V11.5082Z" fill="#111111"/>
<path d="M17.5115 11.5082H16.6852V12.3181H17.5115V11.5082Z" fill="#111111"/>
<path d="M18.4467 11.5082H17.6204V12.3181H18.4467V11.5082Z" fill="#111111"/>
<path d="M16.5854 12.41H15.759V13.22H16.5854V12.41Z" fill="#111111"/>
<path d="M17.5114 12.41H16.6851V13.22H17.5114V12.41Z" fill="#111111"/>
<path d="M18.4467 12.41H17.6204V13.22H18.4467V12.41Z" fill="#111111"/>
<path d="M19.3728 11.5082H18.5465V12.3181H19.3728V11.5082Z" fill="#111111"/>
<path d="M11.9274 12.4082H11.1011V13.2182H11.9274V12.4082Z" fill="#111111"/>
<path d="M12.8626 12.4082H12.0363V13.2182H12.8626V12.4082Z" fill="#111111"/>
<path d="M19.3728 12.4082H18.5465V13.2182H19.3728V12.4082Z" fill="#111111"/>
<path d="M11.9274 13.3081H11.1011V14.1181H11.9274V13.3081Z" fill="#111111"/>
<path d="M12.8626 13.3081H12.0363V14.1181H12.8626V13.3081Z" fill="#111111"/>
<path d="M19.3728 13.3081H18.5465V14.1181H19.3728V13.3081Z" fill="#111111"/>
<path d="M11.9274 14.2081H11.1011V15.0181H11.9274V14.2081Z" fill="#111111"/>
<path d="M12.8626 14.2081H12.0363V15.0181H12.8626V14.2081Z" fill="#111111"/>
<path d="M13.7887 14.2081H12.9624V15.0181H13.7887V14.2081Z" fill="#111111"/>
<path d="M18.4467 14.2081H17.6204V15.0181H18.4467V14.2081Z" fill="#111111"/>
<path d="M19.3728 14.2081H18.5465V15.0181H19.3728V14.2081Z" fill="#111111"/>
<path d="M20.308 11.5082H19.4817V12.3181H20.308V11.5082Z" fill="#14E792"/>
<path d="M20.308 12.4082H19.4817V13.2182H20.308V12.4082Z" fill="#111111"/>
<path d="M20.308 13.3081H19.4817V14.1181H20.308V13.3081Z" fill="#111111"/>
<path d="M20.308 14.2081H19.4817V15.0181H20.308V14.2081Z" fill="#FF1827"/>
<path d="M12.8626 15.1082H12.0363V15.9181H12.8626V15.1082Z" fill="#1787E7"/>
<path d="M13.7887 15.1082H12.9624V15.9181H13.7887V15.1082Z" fill="#111111"/>
<path d="M14.7239 15.1082H13.8976V15.9181H14.7239V15.1082Z" fill="#111111"/>
<path d="M15.6501 15.1082H14.8237V15.9181H15.6501V15.1082Z" fill="#111111"/>
<path d="M16.5853 15.1082H15.7589V15.9181H16.5853V15.1082Z" fill="#111111"/>
<path d="M17.5115 15.1082H16.6852V15.9181H17.5115V15.1082Z" fill="#111111"/>
<path d="M18.4467 15.1082H17.6204V15.9181H18.4467V15.1082Z" fill="#111111"/>
<path d="M19.3728 15.1082H18.5465V15.9181H19.3728V15.1082Z" fill="#111111"/>
<path d="M13.7887 16.0081H12.9624V16.8181H13.7887V16.0081Z" fill="#111111"/>
<path d="M14.7239 16.0081H13.8976V16.8181H14.7239V16.0081Z" fill="#111111"/>
<path d="M15.6501 16.0081H14.8237V16.8181H15.6501V16.0081Z" fill="#111111"/>
<path d="M16.5853 16.0081H15.7589V16.8181H16.5853V16.0081Z" fill="#111111"/>
<path d="M17.5115 16.0081H16.6852V16.8181H17.5115V16.0081Z" fill="#111111"/>
<path d="M18.4467 16.0081H17.6204V16.8181H18.4467V16.0081Z" fill="#FF6D01"/>
<path d="M1.7615 7.90002H0.935181V8.71002H1.7615V7.90002Z" fill="#111111"/>
<path d="M2.68766 7.90002H1.86133V8.71002H2.68766V7.90002Z" fill="#111111"/>
<path d="M0.826337 7.89185H0V8.70182H0.826337V7.89185Z" fill="#6314E7"/>
<path d="M3.62223 7.90002H2.7959V8.71002H3.62223V7.90002Z" fill="#111111"/>
<path d="M4.54911 7.90002H3.72278V8.71002H4.54911V7.90002Z" fill="#111111"/>
<path d="M5.48356 7.90002H4.65723V8.71002H5.48356V7.90002Z" fill="#111111"/>
<path d="M6.41044 7.90002H5.58411V8.71002H6.41044V7.90002Z" fill="#111111"/>
<path d="M7.34489 7.90002H6.51855V8.71002H7.34489V7.90002Z" fill="#111111"/>
<path d="M8.27177 7.90002H7.44543V8.71002H8.27177V7.90002Z" fill="#111111"/>
<path d="M1.7615 8.79175H0.935181V9.60175H1.7615V8.79175Z" fill="#111111"/>
<path d="M0.826337 8.79175H0V9.60175H0.826337V8.79175Z" fill="#111111"/>
<path d="M7.34489 8.79175H6.51855V9.60175H7.34489V8.79175Z" fill="#111111"/>
<path d="M8.27177 8.79175H7.44543V9.60175H8.27177V8.79175Z" fill="#111111"/>
<path d="M1.7615 9.69177H0.935181V10.5018H1.7615V9.69177Z" fill="#111111"/>
<path d="M0.826337 9.69177H0V10.5018H0.826337V9.69177Z" fill="#111111"/>
<path d="M8.27177 9.69177H7.44543V10.5018H8.27177V9.69177Z" fill="#111111"/>
<path d="M1.7615 10.5836H0.935181V11.3936H1.7615V10.5836Z" fill="#111111"/>
<path d="M0.826337 10.5836H0V11.3936H0.826337V10.5836Z" fill="#111111"/>
<path d="M8.27177 10.5836H7.44543V11.3936H8.27177V10.5836Z" fill="#111111"/>
<path d="M1.7615 11.4835H0.935181V12.2935H1.7615V11.4835Z" fill="#111111"/>
<path d="M0.826337 11.4835H0V12.2935H0.826337V11.4835Z" fill="#111111"/>
<path d="M8.27177 11.4835H7.44543V12.2935H8.27177V11.4835Z" fill="#111111"/>
<path d="M1.7615 12.3835H0.935181V13.1935H1.7615V12.3835Z" fill="#111111"/>
<path d="M0.826337 12.3835H0V13.1935H0.826337V12.3835Z" fill="#111111"/>
<path d="M7.34489 12.3835H6.51855V13.1935H7.34489V12.3835Z" fill="#111111"/>
<path d="M8.27177 12.3835H7.44543V13.1935H8.27177V12.3835Z" fill="#111111"/>
<path d="M9.20634 8.79175H8.38V9.60175H9.20634V8.79175Z" fill="#111111"/>
<path d="M9.20634 9.69177H8.38V10.5018H9.20634V9.69177Z" fill="#111111"/>
<path d="M9.20634 10.5836H8.38V11.3936H9.20634V10.5836Z" fill="#111111"/>
<path d="M9.20634 11.4835H8.38V12.2935H9.20634V11.4835Z" fill="#111111"/>
<path d="M9.20634 12.3835H8.38V13.1935H9.20634V12.3835Z" fill="#111111"/>
<path d="M1.7615 13.2754H0.935181V14.0854H1.7615V13.2754Z" fill="#111111"/>
<path d="M2.68766 13.2754H1.86133V14.0854H2.68766V13.2754Z" fill="#111111"/>
<path d="M0.826337 13.2754H0V14.0854H0.826337V13.2754Z" fill="#111111"/>
<path d="M3.62223 13.2754H2.7959V14.0854H3.62223V13.2754Z" fill="#111111"/>
<path d="M4.54911 13.2754H3.72278V14.0854H4.54911V13.2754Z" fill="#111111"/>
<path d="M5.48356 13.2754H4.65723V14.0854H5.48356V13.2754Z" fill="#111111"/>
<path d="M6.41044 13.2754H5.58411V14.0854H6.41044V13.2754Z" fill="#111111"/>
<path d="M7.34489 13.2754H6.51855V14.0854H7.34489V13.2754Z" fill="#111111"/>
<path d="M8.27177 13.2754H7.44543V14.0854H8.27177V13.2754Z" fill="#111111"/>
<path d="M1.7615 14.1753H0.935181V14.9853H1.7615V14.1753Z" fill="#111111"/>
<path d="M2.68766 14.1753H1.86133V14.9853H2.68766V14.1753Z" fill="#111111"/>
<path d="M0.826337 14.1753H0V14.9853H0.826337V14.1753Z" fill="#111111"/>
<path d="M3.62223 14.1753H2.7959V14.9853H3.62223V14.1753Z" fill="#111111"/>
<path d="M4.54911 14.1753H3.72278V14.9853H4.54911V14.1753Z" fill="#111111"/>
<path d="M5.48356 14.1753H4.65723V14.9853H5.48356V14.1753Z" fill="#111111"/>
<path d="M6.41044 14.1754H5.58411V14.9854H6.41044V14.1754Z" fill="#E719DD"/>
<path d="M1.7615 15.0754H0.935181V15.8854H1.7615V15.0754Z" fill="#111111"/>
<path d="M0.826337 15.0673H0V15.8773H0.826337V15.0673Z" fill="#111111"/>
<path d="M1.7615 15.9672H0.935181V16.7772H1.7615V15.9672Z" fill="#17BEE7"/>
<path d="M0.826337 15.9672H0V16.7772H0.826337V15.9672Z" fill="#111111"/>
</svg>
