<svg width="36" height="24" viewBox="0 0 36 24" fill="none" xmlns="http://www.w3.org/2000/svg">
<path fill-rule="evenodd" clip-rule="evenodd" d="M23.7413 0H27.0558C26.9206 0.115389 26.8106 0.261393 26.7487 0.468624C26.2925 0.489816 25.8341 0.555753 25.3779 0.671143C24.8668 0.800661 24.4221 1.11386 24.4221 1.65313C24.4221 1.82739 24.4679 1.99223 24.5459 2.13588L24.5413 2.02285L24.61 1.98753C24.6719 1.95456 24.7384 1.9263 24.8026 1.89804C24.9676 1.82739 25.1396 1.76852 25.3115 1.71907C26.32 1.42706 27.8054 1.42706 28.8139 1.71907C28.9859 1.76852 29.1578 1.82975 29.3228 1.89804C29.387 1.92394 29.4535 1.95456 29.5153 1.98753L29.5841 2.02285L29.5795 2.13588C29.6575 1.99223 29.7033 1.82739 29.7033 1.65313C29.7033 1.11386 29.2586 0.795952 28.7475 0.671143C28.2615 0.5534 27.7756 0.482751 27.2896 0.466268C27.3905 0.334394 27.5463 0.249618 27.7022 0.167197C27.8008 0.113035 27.8994 0.0612272 27.9887 0H30.3841C30.7096 0 30.9755 0.273167 30.9755 0.60756V10.4251C30.9755 10.7595 30.7096 11.0327 30.3841 11.0327H23.7413C23.4158 11.0327 23.1499 10.7595 23.1499 10.4251V0.60756C23.1476 0.273167 23.4135 0 23.7413 0ZM27.5578 4.78042C28.399 4.28826 28.7841 3.72073 28.8323 2.78112C28.4907 3.93031 27.991 4.48606 27.5578 4.78042ZM24.7201 3.31097C24.8393 4.95941 26.5722 5.09834 27.0627 6.03088C27.5532 5.09834 29.2861 4.95703 29.4053 3.31097L29.4603 2.09585C28.2753 1.46239 25.8524 1.46239 24.6673 2.09585L24.7201 3.31097Z" fill="url(#paint0_linear_1_6316)"/>
<path fill-rule="evenodd" clip-rule="evenodd" d="M14.6826 0H21.3254C21.6509 0 21.9167 0.273167 21.9167 0.60756V10.4251C21.9167 10.7595 21.6509 11.0327 21.3254 11.0327H14.6826C14.3571 11.0327 14.0912 10.7595 14.0912 10.4251V0.60756C14.0912 0.273167 14.3571 0 14.6826 0ZM18.5358 7.55214C19.377 7.05995 19.7621 6.49242 19.8102 5.55281C19.4687 6.702 18.969 7.25778 18.5358 7.55214ZM15.6636 6.17215C15.7828 7.82059 17.5157 7.96187 18.0063 8.89206C18.4968 7.95952 20.2297 7.81822 20.3489 6.17215L20.4039 4.95703C19.2189 4.32357 16.796 4.32357 15.6109 4.95703L15.6636 6.17215ZM17.6922 3.32981C17.2361 3.351 16.7777 3.41693 16.3215 3.53233C15.8103 3.66186 15.3656 3.97506 15.3656 4.51431C15.3656 4.68858 15.4115 4.85342 15.4894 4.99706L15.4849 4.88404L15.5536 4.84873C15.6155 4.81576 15.682 4.78748 15.7462 4.75923C15.9112 4.68858 16.0831 4.62971 16.255 4.58024C17.2636 4.28826 18.749 4.28826 19.7575 4.58024C19.9294 4.62971 20.1013 4.69093 20.2664 4.75923C20.3305 4.78514 20.397 4.81576 20.4589 4.84873L20.5277 4.88404L20.5231 4.99706C20.601 4.85342 20.6469 4.68858 20.6469 4.51431C20.6469 3.97506 20.2022 3.65714 19.691 3.53233C19.2051 3.41459 18.7191 3.34394 18.2332 3.32747C18.3341 3.19557 18.4899 3.1108 18.6458 3.02839C18.9896 2.84234 19.3243 2.66102 19.3655 2.14059C18.7283 2.22302 19.0492 2.1924 18.4212 2.59038C18.1186 2.75522 17.8091 2.92243 17.6922 3.32981Z" fill="url(#paint1_linear_1_6316)"/>
<path fill-rule="evenodd" clip-rule="evenodd" d="M5.62593 0H6.58178L6.6047 0.515721C6.72389 2.16414 8.4568 2.30308 8.94734 3.23563C9.43784 2.30308 11.1708 2.16179 11.29 0.515721L11.3129 0H12.2687C12.5942 0 12.8601 0.273167 12.8601 0.60756V10.4251C12.8601 10.7595 12.5942 11.0327 12.2687 11.0327H11.3152L11.345 10.3804C10.1599 9.74689 7.73705 9.74689 6.55198 10.3804L6.58178 11.0327H5.62593C5.30044 11.035 5.03455 10.7595 5.03455 10.4251V0.60756C5.03455 0.273167 5.30044 0 5.62593 0ZM10.7627 0C10.4258 0.981989 9.96965 1.47887 9.56853 1.74968C10.3318 1.30225 10.7192 0.791243 10.8201 0H10.7627ZM8.6356 8.75548C8.17944 8.77666 7.721 8.8426 7.26485 8.958C6.75369 9.08752 6.30901 9.40072 6.30901 9.93997C6.30901 10.1142 6.35485 10.2791 6.43279 10.4227L6.4282 10.3097L6.49697 10.2744C6.55886 10.2414 6.62533 10.2131 6.68951 10.1849C6.85455 10.1142 7.02647 10.0554 7.19838 10.0059C8.20694 9.71392 9.69228 9.71392 10.7009 10.0059C10.8728 10.0554 11.0447 10.1166 11.2097 10.1849C11.2739 10.2108 11.3404 10.2414 11.4023 10.2744L11.471 10.3097L11.4665 10.4227C11.5444 10.2791 11.5902 10.1142 11.5902 9.93997C11.5902 9.40072 11.1455 9.0828 10.6344 8.958C10.1484 8.84025 9.66249 8.7696 9.17654 8.75313C9.2774 8.62124 9.43326 8.53646 9.58913 8.45406C9.93298 8.26801 10.2676 8.08667 10.3089 7.56626C9.67165 7.64867 9.99257 7.61807 9.36452 8.01605C9.06194 8.17854 8.75249 8.34572 8.6356 8.75548Z" fill="url(#paint2_linear_1_6316)"/>
<path fill-rule="evenodd" clip-rule="evenodd" d="M4.32866 19.3114C5.66059 19.3114 6.47883 18.4613 6.47883 17.3051V17.2886C6.47883 16.1488 5.68569 15.7108 4.87434 15.5695L6.38503 14.0883V13.071H2.34843V14.2272H4.69557L3.26985 15.699L3.47373 16.5586H4.01941C4.75296 16.5586 5.18829 16.8388 5.18829 17.338V17.3545C5.18829 17.8114 4.83765 18.0987 4.34245 18.0987C3.73746 18.0987 3.31096 17.8349 2.90073 17.3616L2 18.2517C2.5112 18.8734 3.25385 19.3114 4.32866 19.3114Z" fill="#171717"/>
<path fill-rule="evenodd" clip-rule="evenodd" d="M13.1514 19.3114C14.9942 19.3114 16.3331 17.882 16.3331 16.137V16.1205C16.3331 14.3755 15.0102 12.965 13.1674 12.965C11.3245 12.965 9.98572 14.3944 9.98572 16.137V16.1535C9.98572 17.9008 11.3085 19.3114 13.1514 19.3114ZM13.1674 18.0656C12.1083 18.0656 11.3587 17.1896 11.3587 16.137V16.1205C11.3587 15.0679 12.0923 14.2107 13.1514 14.2107C14.2105 14.2107 14.96 15.0867 14.96 16.1394V16.1558C14.96 17.2085 14.2265 18.0656 13.1674 18.0656Z" fill="#171717"/>
<path fill-rule="evenodd" clip-rule="evenodd" d="M16.606 19.2055H17.9445L18.4899 17.8302H21.0161L21.5615 19.2055H22.9345L20.3788 13.0262H19.1664L16.606 19.2055ZM18.9622 16.6386L19.7553 14.6488L20.5485 16.6386H18.9622Z" fill="#171717"/>
<path fill-rule="evenodd" clip-rule="evenodd" d="M23.8584 19.2055H25.1741V17.331L25.864 16.5939L27.716 19.2055H29.2931L26.7509 15.6731L29.1831 13.071H27.5968L25.1741 15.7532V13.071H23.8584V19.2055Z" fill="#171717"/>
<path fill-rule="evenodd" clip-rule="evenodd" d="M32.1261 19.2949C33.4144 19.2949 34.3198 18.6119 34.3198 17.3921V17.3756C34.3198 16.3065 33.6368 15.8591 32.4265 15.5341C31.395 15.2633 31.1382 15.1314 31.1382 14.7287V14.7099C31.1382 14.4108 31.4019 14.1753 31.9062 14.1753C32.4105 14.1753 32.9308 14.4038 33.458 14.7805L34.1411 13.7632C33.5358 13.264 32.7931 12.9838 31.9222 12.9838C30.7028 12.9838 29.8316 13.7208 29.8316 14.8324V14.8488C29.8316 16.0663 30.6088 16.4101 31.8121 16.7257C32.8116 16.9894 33.0155 17.1637 33.0155 17.5052V17.5216C33.0155 17.8819 32.6924 18.1009 32.1537 18.1009C31.4706 18.1009 30.9089 17.8113 30.3704 17.3568L29.5933 18.3129C30.3086 18.9699 31.2231 19.2949 32.1261 19.2949Z" fill="#171717"/>
<path fill-rule="evenodd" clip-rule="evenodd" d="M3.31096 24C3.76725 24 4.1201 23.8163 4.37694 23.5926V22.4811H3.29275V22.9685H3.84505V23.3336C3.70518 23.4372 3.5289 23.4866 3.32944 23.4866C2.88694 23.4866 2.5752 23.1428 2.5752 22.6742V22.6671C2.5752 22.2315 2.89163 21.8688 3.29054 21.8688C3.57938 21.8688 3.75125 21.963 3.94133 22.1279L4.28755 21.6993C4.02851 21.4732 3.75567 21.3484 3.30875 21.3484C2.55451 21.3484 2.0022 21.9442 2.0022 22.6742V22.6813C2 23.4395 2.53409 24 3.31096 24Z" fill="#171717"/>
<path fill-rule="evenodd" clip-rule="evenodd" d="M8.11096 23.9552H8.67016L8.89721 23.3806H9.9516L10.1786 23.9552H10.7516L9.68345 21.3743H9.17694L8.11096 23.9552ZM9.09446 22.8837L9.42661 22.0525L9.75904 22.8837H9.09446Z" fill="#171717"/>
<path fill-rule="evenodd" clip-rule="evenodd" d="M14.5634 23.9553H15.0997V22.2928L15.7943 23.3784H15.8103L16.5119 22.2833V23.9553H17.0573V21.3932H16.4661L15.8103 22.4764L15.1548 21.3932H14.5634V23.9553Z" fill="#171717"/>
<path d="M21.6509 21.3932H21.103V23.9553H21.6509V21.3932Z" fill="#171717"/>
<path fill-rule="evenodd" clip-rule="evenodd" d="M25.6965 23.9553H26.2397V22.3257L27.4478 23.9553H27.9132V21.3932H27.3722V22.9709L26.203 21.3932H25.6965V23.9553Z" fill="#171717"/>
<path fill-rule="evenodd" clip-rule="evenodd" d="M33.135 24C33.591 24 33.9441 23.8163 34.2007 23.5926V22.4811H33.1165V22.9685H33.6691V23.3336C33.5292 23.4372 33.3526 23.4866 33.1532 23.4866C32.7109 23.4866 32.3967 23.1428 32.3967 22.6742V22.6671C32.3967 22.2315 32.7132 21.8688 33.1121 21.8688C33.4009 21.8688 33.5728 21.963 33.7629 22.1279L34.1091 21.6993C33.85 21.4732 33.5772 21.3484 33.1303 21.3484C32.3763 21.3484 31.8237 21.9442 31.8237 22.6742V22.6813C31.8237 23.4395 32.36 24 33.135 24Z" fill="#171717"/>
<defs>
<linearGradient id="paint0_linear_1_6316" x1="30.5909" y1="0.432545" x2="23.3589" y2="10.3058" gradientUnits="userSpaceOnUse">
<stop stop-color="#F8B900"/>
<stop offset="1" stop-color="#E67508"/>
</linearGradient>
<linearGradient id="paint1_linear_1_6316" x1="21.5343" y1="0.432569" x2="14.3022" y2="10.3058" gradientUnits="userSpaceOnUse">
<stop stop-color="#F8B900"/>
<stop offset="1" stop-color="#E67508"/>
</linearGradient>
<linearGradient id="paint2_linear_1_6316" x1="12.4774" y1="0.432544" x2="5.24527" y2="10.3058" gradientUnits="userSpaceOnUse">
<stop stop-color="#F8B900"/>
<stop offset="1" stop-color="#E67508"/>
</linearGradient>
</defs>
</svg>
