<svg width="36" height="24" viewBox="0 0 36 24" fill="none" xmlns="http://www.w3.org/2000/svg">
<path d="M23.492 10.7942L24.1807 16.2859L21.4039 11.9657L19.203 13.4631L19.8897 11.1671L15.3497 10.6264L20.2126 8.87451L19.5946 3.71503L22.3427 7.73071L24.5689 6.18237L23.8529 8.54276L28.3573 9.07455L23.4925 10.7937L23.492 10.7942ZM13.8335 11.7662C14.0772 12.1796 14.199 12.6466 14.199 13.1655C14.199 13.6844 14.0772 14.1513 13.8335 14.5648C13.5899 14.9782 13.2453 15.3036 12.7992 15.5392C12.353 15.7754 11.8371 15.8933 11.2508 15.8933C10.6646 15.8933 10.1481 15.7754 9.7025 15.5392C9.25636 15.3031 8.91174 14.9782 8.66813 14.5648C8.42451 14.1513 8.3027 13.6849 8.3027 13.1655C8.3027 12.6461 8.42451 12.1796 8.66813 11.7662C8.91174 11.3527 9.25636 11.0279 9.7025 10.7917C10.1486 10.5555 10.6646 10.4377 11.2508 10.4377C11.8371 10.4377 12.3535 10.5555 12.7992 10.7917C13.2453 11.0279 13.5899 11.3527 13.8335 11.7662ZM12.3803 13.1655C12.3803 12.912 12.3337 12.6901 12.2406 12.5005C12.1476 12.3104 12.0158 12.1633 11.8455 12.0588C11.6752 11.9544 11.4771 11.9024 11.2508 11.9024C11.0246 11.9024 10.8265 11.9544 10.6567 12.0588C10.4863 12.1633 10.3546 12.3104 10.2615 12.5005C10.1684 12.6906 10.1219 12.9125 10.1219 13.1655C10.1219 13.4185 10.1684 13.6408 10.2615 13.8305C10.3546 14.0206 10.4863 14.1677 10.6567 14.2722C10.827 14.3766 11.025 14.4286 11.2508 14.4286C11.4766 14.4286 11.6752 14.3766 11.8455 14.2722C12.0158 14.1677 12.1476 14.0206 12.2406 13.8305C12.3337 13.6403 12.3803 13.4185 12.3803 13.1655ZM0 15.715H1.71421V10.5724H0V15.715ZM4.54302 12.046C4.71335 11.938 4.91488 11.884 5.14859 11.884C5.32239 11.884 5.48281 11.9182 5.62938 11.9865C5.77594 12.0549 5.89528 12.1539 5.98688 12.2826C6.07898 12.4119 6.13344 12.5644 6.15077 12.7411H7.8838C7.85905 12.2866 7.72734 11.8855 7.48867 11.5374C7.25001 11.1898 6.9242 10.9195 6.51025 10.7269C6.0968 10.5343 5.62146 10.4382 5.08471 10.4382C4.54797 10.4382 4.0345 10.556 3.59579 10.7922C3.15709 11.0284 2.81494 11.3537 2.56885 11.7687C2.32276 12.1836 2.19996 12.6495 2.19996 13.166C2.19996 13.6824 2.32276 14.1489 2.56885 14.5633C2.81494 14.9782 3.15709 15.3036 3.59579 15.5397C4.0345 15.7759 4.53064 15.8938 5.08471 15.8938C5.63879 15.8938 6.09631 15.7977 6.51025 15.6051C6.92371 15.4125 7.25001 15.1426 7.48867 14.7945C7.72734 14.4469 7.85905 14.0454 7.8838 13.5908H6.15077C6.13344 13.7671 6.07848 13.9201 5.98688 14.0493C5.89478 14.1786 5.77594 14.2771 5.62938 14.3454C5.48281 14.4138 5.32239 14.4479 5.14859 14.4479C4.91488 14.4479 4.71335 14.394 4.54302 14.286C4.37268 14.1781 4.24295 14.0271 4.15383 13.8335C4.0642 13.6398 4.01964 13.4175 4.01964 13.1665C4.01964 12.9154 4.0642 12.6931 4.15383 12.4995C4.24345 12.3059 4.37318 12.1549 4.54302 12.0464V12.046ZM19.4446 13.8181L18.4469 14.497L18.7925 13.3413L19.3337 11.5335L18.0904 11.3854V13.5388L16.8035 11.2324L15.2992 11.0532L14.557 10.965V15.716H16.0999V12.7966L17.7259 15.716H19.6328V13.6904L19.4436 13.8191L19.4446 13.8181ZM21.2816 12.5678L20.5716 13.0511V15.715H22.2858V14.13L21.2816 12.5678ZM31.0718 14.139C31.1757 14.0592 31.3228 13.9671 31.5115 13.8632C31.8368 13.6844 32.0977 13.5091 32.2938 13.3378C32.4904 13.166 32.6349 12.9813 32.728 12.7822C32.8211 12.5837 32.8682 12.3579 32.8682 12.1044C32.8682 11.7667 32.7944 11.4726 32.6463 11.223C32.4983 10.973 32.2824 10.7808 31.9977 10.6452C31.713 10.5095 31.3684 10.4422 30.9633 10.4422C30.5335 10.4422 30.1617 10.5229 29.8472 10.6843C29.5328 10.8457 29.2907 11.0695 29.1204 11.3552C28.95 11.6409 28.8589 11.9647 28.8465 12.3277H30.4157C30.4107 12.1341 30.4583 11.9855 30.5573 11.8826C30.6568 11.7796 30.7851 11.7281 30.941 11.7281C31.0252 11.7281 31.0995 11.7434 31.1629 11.7746C31.2262 11.8058 31.2753 11.8499 31.3099 11.9068C31.3446 11.9638 31.3619 12.0321 31.3619 12.1118C31.3619 12.1915 31.3431 12.2643 31.306 12.3302C31.2683 12.396 31.201 12.4668 31.103 12.5421C31.0049 12.6179 30.8663 12.7045 30.6875 12.8011C30.1879 13.0719 29.8076 13.3447 29.5472 13.6191C29.306 13.8731 29.1357 14.1508 29.0372 14.4519C29.0288 14.4767 29.0213 14.5014 29.0144 14.5267C28.9228 14.847 28.8767 15.2431 28.8763 15.7155H32.8191V14.4524H30.8088C30.8192 14.4227 30.8326 14.3945 30.8494 14.3667C30.893 14.2944 30.9668 14.2192 31.0713 14.1395L31.0718 14.139ZM34.8413 10.5724C34.7691 10.8185 34.6651 11.022 34.5284 11.1834C34.3918 11.3448 34.2184 11.4681 34.0085 11.5523C33.7986 11.6365 33.546 11.685 33.2499 11.6979V13.1437C33.4762 13.1487 33.6876 13.1244 33.8852 13.0709C34.0778 13.0189 34.2472 12.9397 34.3937 12.8342V15.715H36V10.5724H34.8409H34.8413ZM25.2344 12.0464C25.4047 11.9385 25.6063 11.8845 25.84 11.8845C26.0138 11.8845 26.1742 11.9187 26.3208 11.987C26.4673 12.0554 26.5867 12.1544 26.6788 12.2831C26.7709 12.4124 26.8253 12.5649 26.8427 12.7416H28.5757C28.5509 12.2871 28.4192 11.886 28.1806 11.5379C27.9419 11.1903 27.6161 10.92 27.2021 10.7274C26.7912 10.5362 26.3188 10.4397 25.7865 10.4387L23.9609 11.0839L24.5348 15.6581C24.9101 15.8155 25.3245 15.8943 25.7771 15.8943C26.3138 15.8943 26.7887 15.7982 27.2026 15.6056C27.6161 15.413 27.9424 15.1431 28.1811 14.795C28.4197 14.4474 28.5514 14.0459 28.5762 13.5913H26.8432C26.8258 13.7676 26.7709 13.9206 26.6793 14.0498C26.5872 14.1791 26.4678 14.2776 26.3213 14.3459C26.1747 14.4143 26.0143 14.4484 25.8405 14.4484C25.6068 14.4484 25.4052 14.3945 25.2349 14.2865C25.0646 14.1786 24.9348 14.0276 24.8452 13.8339C24.7556 13.6403 24.711 13.418 24.711 13.167C24.711 12.9159 24.7556 12.6936 24.8452 12.5C24.9348 12.3064 25.0646 12.1554 25.2349 12.0469L25.2344 12.0464Z" fill="#E91339"/>
</svg>
