<svg width="36" height="24" viewBox="0 0 36 24" fill="none" xmlns="http://www.w3.org/2000/svg">
<path fill-rule="evenodd" clip-rule="evenodd" d="M9.17374 3.96165C8.92216 4.03609 8.98122 4.35574 9.20654 4.30538C9.30062 4.28568 9.36843 4.20029 9.36624 4.10396C9.36405 4.02076 9.29186 3.95289 9.20873 3.95727C9.19561 3.95727 9.18468 3.95946 9.17374 3.96165ZM29.0676 14.3042C28.5447 14.3042 28.372 14.4772 28.372 15.0005C28.372 14.4772 28.199 14.3042 27.6762 14.3042C28.199 14.3042 28.372 14.1313 28.372 13.608C28.372 14.1335 28.5447 14.3042 29.0676 14.3042ZM29.3694 13.249C29.0871 13.249 28.9953 13.3431 28.9953 13.6233C28.9953 13.3409 28.9014 13.249 28.6212 13.249C28.899 13.249 28.9953 13.1548 28.9953 12.8746C28.9932 13.157 29.0895 13.249 29.3694 13.249ZM26.6941 12.2922C26.3745 12.2922 26.2696 12.3973 26.2696 12.7169C26.2696 12.3973 26.1645 12.2922 25.8452 12.2922C26.1645 12.2922 26.2696 12.1827 26.2696 11.8675C26.2675 12.1806 26.3745 12.2922 26.6941 12.2922ZM27.055 11.6047C26.8473 11.6047 26.7771 11.6726 26.7771 11.8806C26.7771 11.6726 26.7093 11.6047 26.5016 11.6047C26.7093 11.6047 26.7771 11.5369 26.7771 11.3267C26.7771 11.5369 26.8473 11.6026 27.055 11.6047ZM30.8044 11.5391C30.5223 11.9244 30.3167 12.3666 30.1482 12.8417C29.9338 13.4088 29.5706 14.6764 29.9776 15.2435C30.2795 15.6813 30.8219 15.885 31.3361 15.7536C31.7102 15.6638 31.5855 15.4362 31.6314 15.064C31.7102 14.5078 31.8566 14.0437 32.0492 13.5226C32.2242 13.0607 32.4277 12.6097 32.6618 12.174C32.7666 11.9594 32.8848 11.7514 33.0116 11.55C33.0904 11.4362 33.3508 11.0311 33.4995 11.0749C33.5564 11.2107 33.3858 11.5938 33.3529 11.7208C32.8543 13.0891 32.3116 15.0968 32.5151 16.5462C32.583 17.065 32.6837 17.3956 32.9331 17.77C33.1363 18.0524 33.4886 18.3699 33.9175 18.4268C34.427 18.4837 34.7881 18.3371 35.1862 18.0765C35.5165 17.851 35.7986 17.6014 35.989 17.2599L36 17.238V17.1548C35.9431 17.1198 35.8753 17.1198 35.7965 17.1066C35.3219 17.0037 35.0156 16.8111 34.7203 16.4279C34.0529 15.5434 34.1426 14.105 34.2674 13.0519C34.3352 12.463 34.4599 11.92 34.5977 11.3639C34.7005 10.9676 35.0396 10.0153 34.7683 9.73283C34.6569 9.6584 34.5277 9.61679 34.3942 9.61022C34.2412 9.59709 34.0881 9.61679 33.9415 9.66714C33.7051 9.75036 33.4841 9.86856 33.2851 10.0174C33.003 10.2211 32.7536 10.4816 32.5151 10.7421C32.4363 10.8319 32.3685 10.9239 32.279 11.0136C32.1324 11.1953 31.9837 11.3989 31.848 11.5916C31.7692 11.7055 31.7123 11.7843 31.6445 11.8872C31.6095 11.955 31.4869 12.1586 31.441 12.1937C31.441 12.0579 31.4629 11.8762 31.452 11.7186C31.43 11.5829 31.417 11.4362 31.3622 11.3223C31.2049 11.0399 30.8986 11.4252 30.8044 11.5391ZM27.464 12.5856L27.3592 12.452L27.1731 12.6929L27.5384 13.1088L27.8841 12.8111L27.8643 12.8089C27.7069 12.7936 27.5624 12.7126 27.464 12.5856ZM27.3897 11.6573L26.8295 12.244C26.7902 12.2856 26.7925 12.3513 26.834 12.3907C26.858 12.4126 26.8888 12.4236 26.9193 12.4192L27.3918 12.3448L27.6018 12.5768L27.6543 12.6316C27.7289 12.7169 27.8447 12.752 27.954 12.7257L28.0417 12.706L27.7375 13.2008C27.709 13.2511 27.7265 13.3146 27.7769 13.3431C27.8097 13.3606 27.8468 13.3606 27.8797 13.3431L28.3829 13.03C28.5009 12.9578 28.5841 12.8396 28.6146 12.7038L28.6825 12.4039L28.3172 12.5462C29.4284 11.874 30.4522 11.1713 30.5049 10.2014C30.3669 10.2079 30.227 10.2211 30.0892 10.2429C29.8857 10.278 29.6867 10.3327 29.4941 10.4094C29.5422 10.5626 29.6165 10.7049 29.7128 10.8297C29.772 10.9085 29.8419 10.9786 29.9207 11.0377C29.8354 10.9895 29.7545 10.9348 29.6801 10.8735C29.5422 10.764 29.4263 10.6283 29.3366 10.4772L29.2622 10.5144L29.2251 10.5341C28.6825 10.8231 28.1729 11.3026 27.709 12.0163L27.9191 11.6047L27.3897 11.6573ZM28.5731 11.9113C28.479 11.874 28.3937 11.8171 28.3696 11.7449C28.5074 11.7711 28.6496 11.7711 28.7876 11.7471C28.8095 11.7449 28.8312 11.7383 28.8531 11.7339C29.1899 11.6573 29.4503 11.4515 29.5596 11.2019C29.5815 11.2347 29.5904 11.2741 29.5904 11.3136C29.586 11.5675 29.0587 11.92 28.8051 11.9485C28.7242 11.9529 28.6475 11.9397 28.5731 11.9113ZM28.8291 11.6814C28.6715 11.7186 28.5074 11.723 28.3501 11.6945C28.3435 11.6792 28.3412 11.6639 28.3412 11.6463C28.3368 11.3267 28.9624 10.8122 29.2536 10.8779C29.3279 10.8932 29.4328 10.9895 29.4986 11.0924C29.5116 11.1143 29.5226 11.1318 29.5356 11.1516C29.4328 11.3836 29.1923 11.5828 28.8839 11.6704C28.8641 11.677 28.8466 11.6814 28.8291 11.6814ZM26.3855 14.7027C26.379 14.7115 26.3703 14.7224 26.3615 14.7312L26.3594 14.7333V14.7377C26.3529 14.7509 26.344 14.764 26.3354 14.775C26.2892 14.8297 26.2302 14.8691 26.1624 14.8888C26.158 14.8888 26.158 14.8888 26.158 14.8932H26.1494L26.0946 14.9019C26.0027 14.9085 25.9153 14.8713 25.854 14.8034C25.9239 14.845 26.0072 14.8582 26.086 14.8428C26.1624 14.8319 26.2302 14.7903 26.2785 14.729C26.3002 14.7027 26.3156 14.6742 26.3265 14.6436C26.3419 14.6042 26.3484 14.5626 26.3461 14.5188C26.3419 14.4378 26.3111 14.3612 26.2566 14.2998C26.32 14.3349 26.368 14.394 26.3899 14.4641C26.4533 14.5275 26.5321 14.5735 26.6195 14.5976C26.7312 14.6283 26.8494 14.6151 26.9501 14.5604C27.0529 14.5078 27.1316 14.4181 27.1687 14.3108C27.2102 14.197 27.2081 14.0743 27.1666 13.9605C27.2365 14.0678 27.2585 14.2013 27.2256 14.3261C27.1906 14.4553 27.1032 14.5648 26.985 14.6261C26.8668 14.6896 26.7291 14.6983 26.6044 14.6545C26.5256 14.6261 26.4577 14.5779 26.4053 14.5122C26.4139 14.5757 26.4074 14.6392 26.3834 14.6983C26.3834 14.7005 26.3855 14.7049 26.3899 14.7049L26.3855 14.7027ZM24.71 15.5697C24.6267 15.596 24.537 15.5938 24.4561 15.5631C24.3752 15.5303 24.3074 15.4734 24.2615 15.3989C24.2132 15.3157 24.1915 15.2172 24.2023 15.1209C24.1347 15.215 24.1169 15.3398 24.1587 15.4493C24.2375 15.6682 24.478 15.7821 24.6946 15.7032C24.7141 15.6967 24.7361 15.6857 24.7535 15.677C24.8563 15.6222 24.9242 15.5193 24.9396 15.4055C24.885 15.4821 24.8039 15.5412 24.71 15.5697ZM23.5046 12.96C23.4892 13.1614 23.2683 13.2752 23.0255 13.6715C23.0233 13.6781 23.0255 13.6846 23.0298 13.6868C23.032 13.689 23.0364 13.689 23.0386 13.6868C23.137 13.6365 23.3885 13.5226 23.2617 13.6868C23.1633 13.8182 23.0889 13.9649 23.0364 14.1203C23.0342 14.1335 23.0495 14.1422 23.0539 14.1291C23.1042 14.0656 23.1786 14.0262 23.2573 14.0174H23.2945C23.2945 14.0174 23.2705 14.024 23.2289 14.1116V14.116C22.9336 14.5144 22.8701 14.8231 22.8483 15.0399C22.8483 15.0464 22.8548 15.0508 22.8614 15.0508C22.8658 15.0508 22.868 15.0486 22.8701 15.0464C22.9533 14.8976 23.1851 14.7553 23.2748 14.7684C23.288 14.7684 23.3011 14.7771 23.3055 14.7903C23.3559 14.9413 23.2573 15.1493 23.1698 15.3026C23.1458 15.3398 23.1217 15.3705 23.1042 15.4011C23.102 15.4077 23.0955 15.4099 23.0911 15.4164L23.0429 15.4821C23.0583 15.4646 23.0736 15.4493 23.0911 15.434V15.4318C23.1151 15.4077 23.1458 15.377 23.1808 15.3486C23.2267 15.3048 23.2989 15.307 23.3405 15.353C23.3601 15.3748 23.371 15.4033 23.371 15.434C23.3775 15.966 22.7301 16.325 22.3123 16.6315C22.3079 16.6359 22.3057 16.6425 22.3101 16.649C22.3123 16.6534 22.3167 16.6534 22.3211 16.6534C22.6558 16.5308 23.0626 16.2199 23.4169 16.2637C23.4237 16.2659 23.4323 16.2681 23.4388 16.2681C23.5505 16.29 23.6228 16.3973 23.603 16.5089C23.5985 16.5352 23.5876 16.5615 23.5724 16.5834C23.5659 16.5987 23.5549 16.6097 23.5416 16.6206L23.2661 16.8767C23.253 16.8855 23.2661 16.9008 23.2748 16.8965C23.4563 16.8133 23.6554 16.7739 23.8568 16.7826C24.0384 16.7914 24.2176 16.833 24.3838 16.9096C24.4561 16.938 24.5305 16.9621 24.6072 16.9818C24.6202 16.9862 24.6356 16.9884 24.6507 16.9906C24.5328 17.0147 24.419 17.0628 24.3204 17.1329C24.303 17.1482 24.2834 17.1614 24.2659 17.1723C24.2067 17.2095 24.071 17.3497 23.7037 17.4022C23.7757 17.4197 23.8524 17.4285 23.9267 17.4263C24.1498 17.4219 24.3708 17.3825 24.5808 17.3081L24.723 17.2599C25.2479 17.0738 25.7403 16.8023 26.3375 16.8987C26.3505 16.8987 26.3505 16.9162 26.3375 16.9205C26.0596 17.0103 25.7183 17.03 25.4689 17.2161H25.4668C25.3946 17.2687 25.3333 17.3321 25.2852 17.4088C25.2764 17.4241 25.2654 17.4394 25.2568 17.4569C25.7818 17.1811 26.3046 17.0541 26.81 16.9096C26.9041 16.8746 26.9981 16.8417 27.0878 16.8067C27.7135 16.5615 28.2976 16.244 28.6958 15.7208C28.8072 15.5719 28.9035 15.4121 28.9778 15.2435C28.9801 15.2391 28.9778 15.2325 28.9734 15.2303C28.9692 15.2282 28.9648 15.2282 28.9624 15.2325C28.0088 15.6726 27.0769 15.3814 26.3855 14.7137C26.4009 14.6961 26.4139 14.6786 26.4272 14.6589C26.4883 14.7005 26.5561 14.7268 26.6284 14.7399C26.9566 14.8078 27.278 14.5954 27.3459 14.267C27.3482 14.2473 27.3524 14.232 27.3547 14.2188C27.3853 13.9452 27.2321 13.6846 26.9785 13.5774L27.486 13.1614L27.1228 12.7498L26.6612 13.2577C26.565 13.0147 26.2892 12.8987 26.0487 12.995C25.9349 13.041 25.841 13.1307 25.7927 13.2424C25.7773 13.273 25.7664 13.3081 25.7577 13.3409C25.7358 13.4504 25.7533 13.562 25.8081 13.6606C25.7773 13.6628 25.7489 13.6671 25.7183 13.6737C25.434 12.7366 25.7731 11.7208 26.5626 11.1406C26.7158 11.0311 26.8799 10.9392 27.055 10.8713C27.0615 10.8691 27.0638 10.8626 27.0615 10.856C27.0594 10.8538 27.0571 10.8516 27.055 10.8494C26.4489 10.5736 24.5918 11.2457 24.0032 11.955C23.9967 11.9616 24.0055 11.9769 24.0186 11.9704C24.0799 11.9397 24.1981 11.8806 24.3009 11.8412C24.3139 11.8346 24.3228 11.8543 24.3139 11.8587C23.964 12.1193 23.8109 12.3469 23.4717 12.8133C23.3843 12.9162 23.3077 13.0256 23.242 13.1439L23.4827 12.9621C23.4913 12.9556 23.5046 12.9621 23.5002 12.9709L23.5046 12.96ZM25.819 13.4241C25.8561 13.2402 26.0356 13.1198 26.2193 13.157C26.2323 13.1592 26.2433 13.1636 26.2566 13.1658C26.344 13.192 26.4163 13.2599 26.4491 13.3453C26.3964 13.2796 26.3244 13.2358 26.2412 13.2227C26.1645 13.2074 26.086 13.2205 26.0181 13.2599C25.9503 13.2993 25.8999 13.3628 25.8715 13.4373C25.8475 13.5183 25.8496 13.6036 25.8804 13.6825C25.819 13.6102 25.7971 13.5161 25.819 13.4241ZM26.7466 13.6124C26.7904 13.608 26.8363 13.619 26.8734 13.643C26.8909 13.654 26.9062 13.6693 26.9216 13.6846C26.9675 13.7328 26.9871 13.7985 26.9806 13.8642C26.9762 13.9255 26.9412 13.9824 26.8864 14.013C26.9456 13.9277 26.9368 13.8116 26.8668 13.735C26.8515 13.7197 26.834 13.7043 26.8144 13.6956C26.7421 13.6584 26.6568 13.6606 26.589 13.7022C26.6219 13.6452 26.6808 13.6124 26.7466 13.6124ZM23.3559 13.0191C23.3491 13.0059 23.3733 13.0191 23.3559 13.0191V13.0191ZM23.8654 13.5861C24.2155 13.2227 24.8957 13.3146 24.8957 13.9496C24.6137 13.4504 23.9442 13.8029 24.0251 14.313C24.047 14.4597 24.1717 14.5275 24.3074 14.5845C24.1761 14.6042 24.0405 14.5801 23.9223 14.5166C23.4936 14.2802 23.7298 13.746 23.8654 13.5861ZM25.4319 13.908C25.5018 13.8335 25.5915 13.7854 25.6878 13.7656C25.7074 13.7591 25.7272 13.7569 25.7468 13.7569C25.8561 13.7481 25.9633 13.781 26.0508 13.8467C25.9612 13.8073 25.865 13.7941 25.7687 13.8073L25.7489 13.8116C25.7337 13.816 25.7183 13.8182 25.7009 13.8226C25.6878 13.8248 25.6745 13.8291 25.6636 13.8335H25.6615L25.6242 13.8532C25.5741 13.8795 25.5281 13.9123 25.4887 13.9561C25.4713 13.978 25.4559 13.9999 25.4405 14.024C25.3815 14.1225 25.3596 14.2407 25.3815 14.3546C25.3967 14.4378 25.434 14.5144 25.4887 14.5779C25.482 14.5538 25.482 14.5275 25.4864 14.5035C25.4908 14.44 25.5258 14.3852 25.5806 14.3546C25.5104 14.4531 25.5323 14.5888 25.6309 14.6589C25.703 14.7115 25.7992 14.7137 25.8759 14.6655C25.8431 14.718 25.7841 14.7509 25.7204 14.7531C25.7009 14.7531 25.6834 14.7531 25.6659 14.7509C25.6505 14.7487 25.6351 14.7443 25.6221 14.7355C25.5936 14.7246 25.5652 14.7049 25.5456 14.683C25.5281 14.6633 25.5128 14.6392 25.5018 14.6151C25.4165 14.556 25.3531 14.4706 25.3246 14.3699C25.3048 14.3064 25.3006 14.2386 25.3093 14.1707C25.3093 14.1597 25.3137 14.1466 25.3158 14.1357C25.3267 14.0831 25.3466 14.0328 25.375 13.9868C25.3901 13.9583 25.41 13.932 25.4319 13.908ZM24.268 14.9348C24.4801 14.7837 24.7755 14.8341 24.9265 15.0464C25.0773 15.2588 25.027 15.5544 24.8148 15.7054C24.6027 15.8543 24.3118 15.8062 24.1587 15.596C24.0055 15.3836 24.0535 15.0902 24.268 14.9348ZM24.9417 16.9534C25.0228 16.9315 25.3181 16.8592 25.4514 16.8242C25.4645 16.8198 25.4689 16.8395 25.4603 16.8461C25.3291 16.9337 25.0053 17.1395 24.909 17.0847C24.8258 17.0628 24.6727 17.1329 24.5962 17.203C24.688 17.0891 24.8062 17.0015 24.9417 16.9534ZM26.9501 15.6682C27.009 15.6529 27.0748 15.6573 27.1316 15.6792C27.3414 15.7667 27.2605 16.0251 27.206 16.1039C27.0638 16.29 26.7442 16.2834 26.7116 15.99C26.8689 16.2068 27.1578 16.0098 27.0964 15.7777C27.0748 15.712 27.0156 15.6879 26.9501 15.6682ZM27.0463 15.4011C27.0724 15.377 27.0834 15.342 27.0769 15.307C27.0964 15.3354 27.1074 15.3683 27.1053 15.4011C27.1009 15.5281 26.9501 15.5325 26.8997 15.5193C26.7771 15.4799 26.7202 15.3135 26.8647 15.2413C26.7815 15.3595 26.9412 15.4755 27.0463 15.4011ZM25.4514 12.1433C25.3377 12.3141 25.1211 12.1981 25.0622 12.1346C24.9242 11.9748 24.9855 11.6945 25.2503 11.7164C25.0314 11.8171 25.1561 12.1083 25.3706 12.093C25.4319 12.0886 25.4645 12.0382 25.4929 11.9835C25.4997 12.0426 25.4843 12.0973 25.4514 12.1433ZM25.1386 11.3464C24.9964 11.4537 24.8936 11.6923 24.4146 11.7405C24.4013 11.7405 24.3948 11.7273 24.4058 11.7208C24.4999 11.6376 24.8258 11.3617 25.13 11.3245C25.1407 11.3267 25.1475 11.3398 25.1386 11.3464ZM24.1936 12.7323C24.1717 12.7038 24.1871 12.66 24.2242 12.6338C24.244 12.6031 24.2834 12.5943 24.3118 12.614C24.3403 12.6338 24.3512 12.6731 24.3314 12.7016C24.3228 12.7148 24.3118 12.7235 24.2985 12.7279C24.2591 12.7585 24.2132 12.7585 24.1936 12.7323ZM25.3093 14.1685C25.3093 14.1663 25.3093 14.1641 25.3093 14.1619C25.3072 14.1641 25.3072 14.1663 25.3093 14.1685ZM25.8999 15.6551C25.8431 15.6113 25.8321 15.5303 25.8736 15.4734C25.9065 15.4077 25.9853 15.3836 26.0508 15.4164C26.0531 15.4164 26.0531 15.4186 26.0552 15.4186C26.11 15.4646 26.1209 15.5456 26.0771 15.6047C26.0312 15.6682 25.9503 15.6901 25.8999 15.6551ZM25.1167 12.9884C25.0358 13.0541 24.9286 13.0541 24.8717 12.9884C24.8172 12.9228 24.8368 12.8155 24.9155 12.7498C24.9943 12.6841 25.1037 12.6819 25.1561 12.7498C25.2086 12.8176 25.1955 12.9249 25.1167 12.9884ZM17.8781 11.5588C17.655 11.8872 17.4756 12.2462 17.3465 12.6228C17.154 13.2577 17.1103 13.7547 17.1103 14.3787L17.1671 14.9216C17.189 15.0946 17.2218 15.2632 17.2699 15.4318C17.4843 16.2703 17.994 17.3234 19.0353 17.3234L19.3394 17.3015C19.6785 17.2446 19.9738 17.0979 20.2778 16.938C20.8313 16.6359 21.3082 16.209 21.6692 15.6923C22.2117 14.9676 22.6995 13.8116 22.7783 12.8593C22.8001 12.5286 22.8264 12.3163 22.7673 11.9748C22.6995 11.4865 22.4501 11.0224 21.9754 10.8647C21.7151 10.775 21.3301 10.8166 21.0916 10.9545C20.6847 11.1909 20.5032 11.8828 20.4572 12.3601C20.4222 12.7454 20.5601 13.2096 20.6935 13.481C20.7723 13.6233 20.8663 13.7569 20.9757 13.8773C21.0785 14.0021 21.2579 14.0919 21.3935 14.1378C21.2995 14.3371 21.1813 14.5254 21.0435 14.6961C20.6935 15.1822 20.035 15.7952 19.346 15.7711L19.2213 15.7602C19.3088 15.4602 19.451 15.18 19.6391 14.9326C19.7069 14.8538 19.7747 14.7859 19.8316 14.7071C20.0132 14.4816 20.3304 14.1751 20.5338 13.9583C20.5557 13.9233 20.6126 13.8795 20.6235 13.8335C20.5447 13.8554 20.2494 14.105 20.1816 14.1641C19.9782 14.3458 19.5581 14.7071 19.311 14.8319C19.1184 14.9348 18.8581 14.9107 18.7575 14.7531C18.8822 14.5276 19.1316 14.1641 19.2891 13.9364C19.3109 13.9014 19.3569 13.8576 19.3569 13.8116C19.3088 13.8335 19.2213 13.9693 19.1753 14.0043C19.1141 14.0722 19.0397 14.1291 18.9609 14.1751C18.7247 14.3108 18.6306 14.2889 18.3375 14.3218C18.2806 14.1181 18.3594 13.4153 18.4053 13.2118C18.4403 13.0191 18.4841 12.8614 18.53 12.6929C18.7794 11.9113 19.2541 11.2873 20.0241 10.983C20.1444 10.9326 20.2691 10.8998 20.3982 10.8801C20.5338 10.845 20.851 10.9151 20.851 10.7772C20.8401 10.6874 20.3872 10.2232 19.9803 10.2232C19.731 10.2232 19.6741 10.2123 19.4138 10.2911C19.1272 10.3765 18.8625 10.5188 18.6328 10.7093C18.3156 10.9917 18.1231 11.1734 17.8737 11.5588H17.8781ZM21.341 13.5664C21.2273 13.2271 21.1945 12.2178 21.4307 12.1039C21.5554 12.0361 21.656 12.2856 21.691 12.3995C21.7938 12.6819 21.7938 13.1351 21.7589 13.4307C21.7545 13.5117 21.7392 13.5905 21.7107 13.6671C21.6888 13.735 21.6538 13.8248 21.6079 13.8488C21.4723 13.9167 21.3717 13.6781 21.3366 13.5664H21.341ZM10.4753 8.5834C9.97657 8.61844 8.25933 11.3136 7.97495 11.8565C7.50681 12.7257 5.58612 16.5768 6.42177 17.9474C6.62958 18.2561 6.93804 18.4837 7.29243 18.5932C7.48492 18.6501 7.98369 18.683 8.1412 18.5254C8.25495 18.4006 8.19807 18.186 8.19807 18.0065V17.6299C8.20245 16.8483 8.26152 16.0689 8.37963 15.296C8.41465 15.0596 8.61591 13.7897 8.71873 13.6321C8.71215 13.7306 8.70122 13.8291 8.68372 13.9277C8.63558 14.6764 8.55903 15.3442 8.63558 16.1017C8.67059 16.2944 8.68372 16.487 8.71435 16.6797C8.74933 16.8614 8.78216 17.0431 8.8281 17.2117C8.9178 17.5292 9.04248 17.8795 9.22405 18.1094C9.9372 18.9807 10.9107 18.8122 11.6238 18.1094C11.7901 17.9452 11.9213 17.7481 12.0088 17.5314C12.3588 16.7147 12.5754 15.9682 12.8926 15.1756C13.1311 14.567 13.4023 13.9736 13.7086 13.3978C14.0827 12.6491 14.9642 11.3026 15.4849 10.6327L15.7671 10.2824C15.7496 10.3152 15.5615 10.7553 15.4958 10.9041C15.3142 11.3354 15.1655 11.7886 15.008 12.2287C14.7849 12.9403 14.6121 13.6671 14.4895 14.405C14.4327 14.7793 14.3648 15.2435 14.3539 15.6288C14.3539 15.6967 14.343 15.7536 14.343 15.8434C14.343 15.9222 14.332 15.9572 14.332 16.047C14.332 17.146 14.3998 18.1991 14.8067 19.1734C15.0561 19.7514 15.509 20.3403 16.0515 20.6337C16.1652 20.6906 16.2549 20.7235 16.3687 20.7694C16.4277 20.7848 16.489 20.7957 16.5502 20.8045L16.7427 20.8395H17.0731L17.1081 20.8286H17.1431C17.1606 20.8198 17.1803 20.8154 17.1999 20.8176L17.55 20.7388C17.9372 20.5943 18.285 20.3622 18.5694 20.0601C18.9172 19.7054 19.335 19.1756 19.3919 18.6195C19.4028 18.4947 19.4269 18.4837 19.335 18.4049C19.1097 18.1904 18.8472 18.972 17.8518 18.5188C17.3531 18.2933 16.9812 17.816 16.7887 17.3168C16.3468 16.1148 16.3009 14.7575 16.4824 13.284C16.6181 12.1981 16.9812 10.6896 17.3662 9.63651C17.5237 9.2052 17.7731 8.65128 17.7731 8.18713C17.7731 8.10832 17.83 8.01636 17.6943 7.89158C17.3881 7.60913 16.7318 7.9485 16.4387 8.12801C15.6577 8.59217 15.1021 9.17017 14.4567 9.82698C14.2752 10.0196 13.9711 10.3831 13.8005 10.5845C13.4614 11.0158 13.1442 11.4449 12.827 11.8872C12.057 13.0016 11.311 14.3218 10.8582 15.5806C10.8013 15.7624 10.6219 16.2944 10.6219 16.4783C9.96564 16.2637 9.9547 13.7591 10.0225 13.1592C10.1931 11.596 10.565 10.5626 11.031 9.13732C11.066 9.01252 11.1338 8.84175 11.066 8.73009C10.9413 8.53524 10.681 8.57028 10.4753 8.5834ZM8.54152 8.01636C7.29681 8.20904 5.33892 9.31905 4.30856 10.0547C3.82294 10.3853 2.45351 11.5259 2.45351 12.1718C2.45351 12.4323 2.44258 12.4893 2.5782 12.7607C2.63288 12.879 2.70069 12.9906 2.78165 13.0913C2.90414 13.2336 3.15354 13.4832 3.35916 13.5642C3.54072 13.6212 3.60856 13.5423 3.68949 13.4175C3.95198 12.9862 4.24075 12.5724 4.55795 12.1806C4.69357 12.0098 6.17675 10.3787 6.39114 10.3108C6.38021 10.3459 5.93831 10.9567 5.9033 11.0027C5.7458 11.2282 5.573 11.4668 5.42861 11.7055C4.72639 12.7826 3.79886 14.5254 3.48165 15.8062C3.41385 16.0667 3.3351 16.4411 3.32417 16.6907C3.31322 17.0081 3.3351 17.2796 3.47072 17.5511C3.66543 17.9561 4.03075 18.2495 4.46607 18.3546C4.66952 18.4027 5.13327 18.4684 5.25798 18.2648C5.3061 18.175 5.29297 18.175 5.3061 18.0502L5.34111 17.5861C5.35204 17.2687 5.49861 16.3732 5.56642 16.0448C5.76549 15.1187 6.03675 14.2123 6.37801 13.3278C6.99054 11.7865 7.64681 10.6414 8.57654 9.31905C8.65528 9.19424 9.17593 8.51555 9.30062 8.39074C9.33561 8.35571 9.44717 8.35571 9.37936 8.18713C9.30062 8.01636 9.01624 7.99447 8.8478 7.99447C8.79966 7.99447 8.7581 8.00543 8.70122 8.00543C8.6509 8.00323 8.59621 8.01417 8.54152 8.01636ZM4.84015 7.86967C4.63015 7.96163 4.42889 8.0492 4.22763 8.1324C4.64108 8.36666 5.10922 8.49147 5.58612 8.49147C5.66048 8.49147 5.73924 8.48708 5.80925 8.4827C6.8221 8.4017 7.70807 7.76459 8.10621 6.82754C8.1587 6.70493 8.20245 6.57796 8.23744 6.45096C8.26371 6.34807 8.28558 6.24516 8.2987 6.14008C8.30308 6.12255 8.30309 6.10066 8.30747 6.08315C7.68399 6.45096 6.98615 6.82973 6.25114 7.20192C5.85738 7.39897 5.47018 7.58724 5.08954 7.75582C5.0064 7.79524 4.92327 7.83027 4.84015 7.86967ZM6.25114 8.12146C6.05426 8.13678 5.87705 7.93316 6.04333 7.74489C5.99519 7.96601 6.28396 8.03608 6.39333 7.86748C6.42396 7.81932 6.40645 7.76459 6.3802 7.71424C6.42396 7.7427 6.45678 7.78428 6.47426 7.83466C6.53771 8.01417 6.32988 8.10832 6.24675 8.11927L6.25114 8.12146ZM6.91396 7.55878C6.91396 7.52813 6.93585 7.50186 6.96648 7.50186C6.96867 7.50186 6.96867 7.50186 6.97084 7.50186C7.00147 7.50186 7.02772 7.52594 7.02772 7.55878C7.02772 7.58943 7.00366 7.6157 6.97084 7.6157C6.94023 7.6157 6.91396 7.59162 6.91396 7.55878ZM2.46225 8.01636C2.05974 8.05797 1.95912 8.59655 2.16037 8.73009C2.25006 8.79578 2.35943 8.82424 2.47102 8.81329C2.8582 8.7717 2.97415 8.25939 2.76414 8.10613C2.67445 8.04263 2.56946 8.01198 2.46225 8.01636ZM2.68538 6.51227C0.928768 7.59601 -0.167208 8.55275 0.0209239 8.92277C0.025299 8.9359 0.0318618 8.94905 0.0427996 8.95779C0.226556 9.18548 0.98127 9.09355 2.06412 8.76075C1.96349 8.66879 1.90224 8.53963 1.89567 8.4017C1.43191 8.46736 1.13221 8.42797 1.0469 8.25939C0.904705 7.9682 1.48222 7.35736 2.49946 6.63924C2.56069 6.59765 2.62195 6.55385 2.68538 6.51227ZM2.39444 5.827C2.40319 5.61681 2.20194 5.56646 2.11224 5.59054C1.95255 5.63215 1.87599 5.72408 1.86067 5.88392C1.84099 5.96054 1.8738 6.03935 1.9438 6.07658C2.00505 6.11819 2.08162 6.1335 2.15381 6.11819C2.28944 6.08973 2.39006 5.96931 2.39444 5.827ZM8.01651 3.87626C9.21311 3.48218 10.0685 3.38147 10.2172 3.67484C10.3878 4.00544 9.61125 4.76077 8.32276 5.59711V5.58835V5.58177C8.23528 4.07112 6.94023 2.91513 5.4308 3.00489C3.92138 3.09466 2.76634 4.38858 2.85384 5.89924C2.89759 6.65458 3.24979 7.35736 3.82949 7.84121L3.83606 7.84778H3.84042C3.84042 7.84778 3.84042 7.84997 3.84042 7.85216C3.51667 7.97477 3.21259 8.07547 2.9282 8.16305C2.95883 8.22874 2.97415 8.30098 2.97195 8.37324C2.97195 8.4017 2.9676 8.42797 2.96321 8.45643C3.30886 8.32506 3.67856 8.18058 4.06357 8.02074C4.73078 7.74051 5.44393 7.41428 6.17675 7.04647C6.94897 6.66115 7.67306 6.26486 8.32495 5.87954C10.2413 4.73888 11.4904 3.7033 11.3766 3.28294C11.3722 3.26543 11.3679 3.25667 11.3635 3.24354C11.1754 2.86696 9.75125 3.17348 7.82618 3.93757C7.88744 3.91567 7.9487 3.89816 8.00994 3.87626C8.01432 3.87188 8.01432 3.87188 8.0187 3.87188L8.01651 3.87626ZM5.69987 5.28403C5.63861 5.28403 5.58612 5.23367 5.58612 5.17237V5.17018C5.59048 5.10669 5.64519 5.06071 5.70642 5.0629C5.7633 5.06728 5.80925 5.11107 5.81363 5.17018C5.81363 5.23149 5.7633 5.28403 5.69987 5.28403ZM7.44993 5.13296C7.4193 5.02787 7.32086 4.99065 7.21366 4.96438C7.30774 4.93592 7.40837 4.9403 7.50024 4.97533C7.83714 5.1045 7.719 5.5183 7.63588 5.64746C7.41711 5.94742 6.91179 5.94961 6.84834 5.48765C7.10648 5.81823 7.55711 5.49639 7.44993 5.13296ZM5.00423 6.8122C5.0064 6.75092 5.05672 6.70055 5.11798 6.69835C5.17922 6.69835 5.23174 6.74873 5.23174 6.81001V6.8122C5.23174 6.87351 5.18141 6.92386 5.11798 6.92605C5.05672 6.92605 5.0064 6.8757 5.00423 6.8122ZM3.8973 5.17018C3.8973 5.20083 3.87105 5.22711 3.84042 5.22711C3.80979 5.22711 3.78354 5.20083 3.78354 5.17018C3.78354 5.13953 3.80979 5.11326 3.84042 5.11326C3.87105 5.11326 3.89511 5.13515 3.8973 5.1658C3.8973 5.16799 3.8973 5.16799 3.8973 5.17018ZM3.60856 5.8883C3.80324 5.68688 4.18387 5.73723 4.18387 6.09192C4.02637 5.81385 3.65231 6.0087 3.69604 6.29334C3.70919 6.37653 3.77919 6.41374 3.85355 6.44439C3.77919 6.45535 3.7048 6.4422 3.63916 6.40719C3.40072 6.27362 3.53198 5.97588 3.60856 5.8883ZM4.56015 4.35355C4.43982 4.35355 4.34138 4.25502 4.34138 4.13461C4.34138 4.0142 4.43982 3.91567 4.56015 3.91567C4.68045 3.91567 4.77889 4.0142 4.77889 4.13461C4.77889 4.25502 4.68483 4.35136 4.56451 4.35355C4.56234 4.35355 4.56015 4.35355 4.56015 4.35355ZM5.94705 4.07331C5.91207 4.00544 5.89894 3.92881 5.90988 3.85437C5.95801 3.5807 6.28396 3.60697 6.39552 3.64857C6.65585 3.76898 6.73459 4.14775 6.39552 4.26816C6.60771 4.02295 6.29489 3.73176 6.03894 3.8697C5.96456 3.9091 5.95144 3.98792 5.94486 4.07112H5.94705V4.07331Z" fill="#221D31"/>
<path fill-rule="evenodd" clip-rule="evenodd" d="M9.17374 3.96165C8.92216 4.03609 8.98122 4.35574 9.20654 4.30538C9.30062 4.28568 9.36843 4.20029 9.36624 4.10396C9.36405 4.02076 9.29186 3.95289 9.20873 3.95727C9.19561 3.95727 9.18468 3.95946 9.17374 3.96165ZM4.84015 7.86967C4.63015 7.96163 4.42889 8.0492 4.22763 8.1324C4.64108 8.36666 5.10922 8.49147 5.58612 8.49147C5.66048 8.49147 5.73924 8.48708 5.80925 8.4827C6.8221 8.4017 7.70807 7.76459 8.10621 6.82754C8.1587 6.70493 8.20245 6.57796 8.23744 6.45096C8.26371 6.34807 8.28558 6.24516 8.2987 6.14008C8.30308 6.12255 8.30309 6.10066 8.30747 6.08315C7.68399 6.45096 6.98615 6.82973 6.25114 7.20192C5.85738 7.39897 5.47018 7.58724 5.08954 7.75582C5.0064 7.79524 4.92327 7.83027 4.84015 7.86967ZM6.25114 8.12146C6.05426 8.13678 5.87705 7.93316 6.04333 7.74489C5.99519 7.96601 6.28396 8.03608 6.39333 7.86748C6.42396 7.81932 6.40645 7.76459 6.3802 7.71424C6.42396 7.7427 6.45678 7.78428 6.47426 7.83466C6.53771 8.01417 6.32988 8.10832 6.24675 8.11927L6.25114 8.12146ZM6.91396 7.55878C6.91396 7.52813 6.93585 7.50186 6.96648 7.50186C6.96867 7.50186 6.96867 7.50186 6.97084 7.50186C7.00147 7.50186 7.02772 7.52594 7.02772 7.55878C7.02772 7.58943 7.00366 7.6157 6.97084 7.6157C6.94023 7.6157 6.91396 7.59162 6.91396 7.55878ZM2.46225 8.01636C2.05974 8.05797 1.95912 8.59655 2.16037 8.73009C2.25006 8.79578 2.35943 8.82424 2.47102 8.81329C2.8582 8.7717 2.97415 8.25939 2.76414 8.10613C2.67445 8.04263 2.56946 8.01198 2.46225 8.01636ZM2.68538 6.51227C0.928768 7.59601 -0.167208 8.55275 0.0209239 8.92275C0.025299 8.9359 0.0318618 8.94905 0.0427996 8.95779C0.226556 9.18548 0.98127 9.09355 2.06412 8.76075C1.96349 8.66879 1.90224 8.53963 1.89567 8.4017C1.43191 8.46736 1.13221 8.42797 1.0469 8.25939C0.904705 7.9682 1.48222 7.35736 2.49946 6.63924C2.56069 6.59765 2.62195 6.55385 2.68538 6.51227ZM2.39444 5.827C2.40319 5.61681 2.20194 5.56646 2.11224 5.59054C1.95255 5.63215 1.87599 5.72408 1.86067 5.88392C1.84099 5.96054 1.8738 6.03935 1.9438 6.07658C2.00505 6.11819 2.08162 6.1335 2.15381 6.11819C2.28944 6.08973 2.39006 5.96931 2.39444 5.827ZM8.01651 3.87626C9.21311 3.48218 10.0685 3.38147 10.2172 3.67484C10.3878 4.00544 9.61125 4.76077 8.32276 5.59711V5.58835V5.58177C8.23528 4.07112 6.94023 2.91513 5.4308 3.00489C3.92138 3.09466 2.76634 4.38858 2.85384 5.89924C2.89759 6.65458 3.24979 7.35736 3.82949 7.84121L3.83606 7.84778H3.84042C3.84042 7.84778 3.84042 7.84997 3.84042 7.85216C3.51667 7.97477 3.21259 8.07547 2.9282 8.16305C2.95883 8.22874 2.97415 8.30098 2.97195 8.37324C2.97195 8.4017 2.9676 8.42797 2.96321 8.45643C3.30886 8.32506 3.67856 8.18058 4.06357 8.02074C4.73078 7.74051 5.44393 7.41428 6.17675 7.04647C6.94897 6.66115 7.67306 6.26486 8.32495 5.87954C10.2413 4.73888 11.4904 3.7033 11.3766 3.28294C11.3722 3.26543 11.3679 3.25667 11.3635 3.24354C11.1754 2.86696 9.75125 3.17348 7.82618 3.93757C7.88744 3.91567 7.9487 3.89816 8.00994 3.87626C8.01432 3.87188 8.01432 3.87188 8.0187 3.87188L8.01651 3.87626ZM5.69987 5.28403C5.63861 5.28403 5.58612 5.23367 5.58612 5.17237V5.17018C5.59048 5.10669 5.64519 5.06071 5.70642 5.0629C5.7633 5.06728 5.80925 5.11107 5.81363 5.17018C5.81363 5.23149 5.7633 5.28403 5.69987 5.28403ZM7.44993 5.13296C7.4193 5.02787 7.32086 4.99065 7.21366 4.96438C7.30774 4.93592 7.40837 4.9403 7.50024 4.97533C7.83714 5.1045 7.719 5.5183 7.63588 5.64746C7.41711 5.94742 6.91179 5.94961 6.84834 5.48765C7.10648 5.81823 7.55711 5.49639 7.44993 5.13296ZM5.00423 6.8122C5.0064 6.75092 5.05672 6.70055 5.11798 6.69835C5.17922 6.69835 5.23174 6.74873 5.23174 6.81001V6.8122C5.23174 6.87351 5.18141 6.92386 5.11798 6.92605C5.05672 6.92605 5.0064 6.8757 5.00423 6.8122ZM3.8973 5.17018C3.8973 5.20083 3.87105 5.22711 3.84042 5.22711C3.80979 5.22711 3.78354 5.20083 3.78354 5.17018C3.78354 5.13953 3.80979 5.11326 3.84042 5.11326C3.87105 5.11326 3.89511 5.13515 3.8973 5.1658C3.8973 5.16799 3.8973 5.16799 3.8973 5.17018ZM3.60856 5.8883C3.80324 5.68688 4.18387 5.73723 4.18387 6.09192C4.02637 5.81385 3.65231 6.0087 3.69604 6.29332C3.70919 6.37653 3.77919 6.41374 3.85355 6.44439C3.77919 6.45535 3.7048 6.4422 3.63916 6.40719C3.40072 6.27362 3.53198 5.97588 3.60856 5.8883ZM4.56015 4.35355C4.43982 4.35355 4.34138 4.25502 4.34138 4.13461C4.34138 4.0142 4.43982 3.91567 4.56015 3.91567C4.68045 3.91567 4.77889 4.0142 4.77889 4.13461C4.77889 4.25502 4.68483 4.35136 4.56451 4.35355C4.56234 4.35355 4.56015 4.35355 4.56015 4.35355ZM5.94705 4.07331C5.91207 4.00544 5.89894 3.92881 5.90988 3.85437C5.95801 3.5807 6.28396 3.60697 6.39552 3.64857C6.65585 3.76898 6.73459 4.14775 6.39552 4.26816C6.60771 4.02295 6.29489 3.73176 6.03894 3.8697C5.96456 3.9091 5.95144 3.98792 5.94486 4.07112H5.94705V4.07331Z" fill="#FE8F01"/>
</svg>
