<svg width="36" height="24" viewBox="0 0 36 24" fill="none" xmlns="http://www.w3.org/2000/svg">
<path d="M24.1318 14.8569C23.7156 14.9211 23.4578 15.1959 23.4251 15.6107C23.4055 15.8554 23.4395 16.0792 23.5233 16.2572C23.5966 16.4129 23.662 16.4784 24.2862 17.0319C24.633 17.3408 24.7547 17.4821 24.811 17.647C24.8332 17.7124 24.8385 17.7596 24.8385 17.8957C24.8385 18.0514 24.8359 18.0671 24.8005 18.1404C24.7416 18.2634 24.6605 18.321 24.5152 18.3432C24.4092 18.3602 24.2901 18.3445 24.2103 18.304C24.1501 18.2725 24.0389 18.1521 24.0088 18.0854C23.997 18.0579 23.9813 18.0252 23.9748 18.0134C23.9643 17.9938 23.9499 17.9401 23.9093 17.7478C23.9028 17.719 23.8975 17.6679 23.8962 17.6339C23.8962 17.5685 23.8688 17.5266 23.8321 17.5371C23.8203 17.5397 23.7641 17.5554 23.7065 17.5711C23.6489 17.5868 23.5612 17.613 23.5102 17.6274L23.4186 17.6562L23.4225 17.7674C23.429 17.931 23.4958 18.1692 23.5782 18.3157C23.6777 18.4976 23.8374 18.6377 24.0336 18.7162C24.1737 18.7725 24.4537 18.7908 24.6526 18.7554C24.9013 18.7123 25.1421 18.533 25.2481 18.3131C25.3449 18.1155 25.3724 17.8603 25.324 17.613C25.2572 17.2727 25.0832 17.028 24.616 16.6171C24.0402 16.1119 23.9905 16.0622 23.9342 15.9196C23.9172 15.8751 23.9041 15.8057 23.9002 15.7298C23.8936 15.6277 23.8975 15.595 23.9211 15.5204C23.9368 15.472 23.9643 15.4157 23.98 15.3974C24.0585 15.3071 24.2221 15.2456 24.3543 15.2587C24.4878 15.2718 24.561 15.3032 24.6369 15.3791C24.722 15.4629 24.7652 15.5571 24.7927 15.7102C24.8293 15.9143 24.8359 15.9379 24.8516 15.9484C24.8594 15.9536 24.8908 15.9497 24.9209 15.9405C25.0217 15.9104 25.1591 15.8725 25.2023 15.8633C25.273 15.8489 25.2847 15.8162 25.2651 15.6866C25.2088 15.311 25.0544 15.0624 24.8018 14.9394C24.7076 14.8936 24.6618 14.8805 24.5309 14.8609C24.3451 14.8334 24.2967 14.8321 24.1318 14.8569Z" fill="black"/>
<path d="M34.7384 14.857C34.4885 14.8897 34.3537 14.9512 34.2019 15.1043C34.0488 15.2561 33.9873 15.3857 33.9297 15.6788C33.9022 15.8201 33.9009 15.8476 33.9009 16.799C33.9009 17.7504 33.9022 17.7779 33.9297 17.9192C33.9781 18.1652 34.0357 18.3118 34.1351 18.4427C34.3079 18.6704 34.5657 18.7751 34.9544 18.7751C35.5145 18.7751 35.8246 18.5382 35.9502 18.0134C35.9934 17.8315 36 17.6771 36 16.7925C36 15.9039 35.9934 15.7482 35.9489 15.5754C35.8979 15.3752 35.856 15.2888 35.7448 15.1488C35.6126 14.9826 35.4294 14.8923 35.1467 14.8556C34.9661 14.8321 34.9295 14.8321 34.7384 14.857ZM35.1349 15.2875C35.2972 15.3241 35.3862 15.4328 35.4333 15.6474C35.4569 15.7508 35.4582 15.8319 35.4582 16.799C35.4582 17.77 35.4569 17.8472 35.4333 17.9572C35.381 18.2045 35.275 18.3131 35.0525 18.3445C34.9308 18.3615 34.7685 18.3432 34.6926 18.304C34.6259 18.2686 34.5408 18.177 34.5081 18.1024C34.4505 17.9703 34.444 17.8538 34.444 16.8056C34.444 16.0164 34.4479 15.7979 34.4636 15.6906C34.5068 15.387 34.6377 15.2731 34.9452 15.2692C35.0015 15.2679 35.0865 15.277 35.1349 15.2875Z" fill="black"/>
<path d="M0.564092 14.8923C0.553623 14.9054 0.549697 15.3686 0.547079 16.5255C0.543153 18.1037 0.543153 18.1417 0.51698 18.2124C0.465943 18.3524 0.359941 18.4165 0.157099 18.4309C-0.00779259 18.4427 5.93721e-05 18.4322 5.93721e-05 18.6285C5.93721e-05 18.7411 0.00529401 18.8013 0.0157633 18.8117C0.0380105 18.834 0.327225 18.8314 0.496042 18.8078C0.676637 18.7816 0.794416 18.7267 0.88864 18.6233C0.972394 18.5317 1.00249 18.4741 1.04568 18.3236L1.0784 18.2058L1.08363 16.5517C1.08625 15.2116 1.08363 14.8949 1.07054 14.8857C1.06138 14.8805 0.946221 14.8753 0.816664 14.8753C0.63476 14.8753 0.57587 14.8792 0.564092 14.8923Z" fill="black"/>
<path d="M2.30726 14.8858C2.2981 14.891 2.28502 14.9289 2.27716 14.9682C2.26931 15.0062 2.25492 15.0768 2.24445 15.1239C2.23398 15.171 2.21435 15.2679 2.19864 15.3399C2.18425 15.4118 2.16069 15.5231 2.1463 15.5885C2.13321 15.6526 2.10965 15.7626 2.09526 15.8306C2.05338 16.0282 2.01936 16.1944 1.99057 16.3279C1.97617 16.396 1.95131 16.5111 1.93691 16.5831C1.92121 16.6551 1.89634 16.7702 1.88195 16.8383C1.83614 17.0529 1.80997 17.1812 1.77987 17.3225C1.76417 17.3984 1.74061 17.5096 1.72753 17.5711C1.71444 17.6326 1.69088 17.7439 1.67518 17.8198C1.65948 17.8957 1.63592 18.0069 1.62283 18.0684C1.60975 18.1299 1.58619 18.2385 1.57049 18.3105C1.55609 18.3825 1.53123 18.495 1.51683 18.5618C1.50113 18.6272 1.49197 18.6913 1.49458 18.7057C1.49851 18.728 1.51683 18.7293 1.73014 18.7332C1.99318 18.7371 1.99449 18.7371 2.00758 18.6351C2.01281 18.601 2.02721 18.516 2.0403 18.4479C2.05469 18.3799 2.07825 18.2556 2.09395 18.1731C2.15415 17.8525 2.16331 17.8119 2.17771 17.7897C2.1921 17.7661 2.21696 17.7648 2.56507 17.7661C2.76922 17.7661 2.94065 17.7714 2.94589 17.7766C2.95374 17.7858 2.96421 17.842 3.0375 18.2412C3.09638 18.5709 3.11732 18.6783 3.1291 18.7057C3.13957 18.7358 3.1435 18.7358 3.37644 18.7358C3.5819 18.7358 3.61331 18.7332 3.62116 18.7149C3.62508 18.7031 3.61985 18.6508 3.60807 18.5997C3.58713 18.5055 3.55442 18.3537 3.5073 18.1273C3.49291 18.0593 3.46935 17.9467 3.45496 17.8787C3.44056 17.8106 3.41701 17.6968 3.40261 17.6261C3.37644 17.5057 3.35157 17.3905 3.29792 17.1393C3.28483 17.0778 3.26128 16.9705 3.24688 16.8998C3.23118 16.8304 3.20762 16.7179 3.19323 16.6511C3.18014 16.5857 3.15527 16.4719 3.14088 16.3999C3.12518 16.3279 3.10162 16.2193 3.08853 16.1578C3.07545 16.0963 3.05189 15.9877 3.0375 15.9157C3.02179 15.8437 3.00085 15.7469 2.99038 15.6997C2.97991 15.6526 2.9629 15.5702 2.95112 15.5165C2.94065 15.4629 2.92102 15.3621 2.90532 15.2941C2.89092 15.226 2.86737 15.1109 2.85167 15.0389C2.83727 14.9669 2.81895 14.9015 2.8111 14.8923C2.79539 14.8727 2.33605 14.8674 2.30726 14.8858ZM2.58208 15.7482C2.58601 15.7613 2.59255 15.8005 2.59779 15.8372C2.60171 15.8725 2.61349 15.9432 2.62396 15.9942C2.63312 16.0439 2.65406 16.1565 2.66976 16.2428C2.68547 16.3292 2.70902 16.4562 2.72211 16.5242C2.73519 16.5923 2.75875 16.7192 2.77445 16.8056C2.79016 16.8919 2.81371 17.0189 2.82811 17.0869C2.8412 17.155 2.85428 17.2466 2.8569 17.2898L2.85952 17.3683L2.56638 17.3722C2.4041 17.3735 2.26669 17.3696 2.26015 17.3631C2.25361 17.3565 2.25492 17.3173 2.26408 17.2688C2.29156 17.1092 2.32951 16.8959 2.35568 16.7558C2.37008 16.6786 2.39363 16.553 2.40803 16.4745C2.42242 16.3973 2.44467 16.2729 2.45907 16.197C2.47346 16.1211 2.49702 15.989 2.51272 15.9026C2.52843 15.8162 2.54413 15.7416 2.54806 15.7351C2.55853 15.7181 2.57685 15.7246 2.58208 15.7482Z" fill="black"/>
<path d="M4.03461 14.8897C4.01236 14.9119 4.00974 18.6704 4.03068 18.711C4.04377 18.7345 4.0634 18.7358 4.55153 18.7358C5.0004 18.7358 5.0763 18.7332 5.19932 18.7097C5.62856 18.6311 5.85234 18.4008 5.95834 17.931C5.98713 17.8015 5.98713 17.7884 5.98713 16.7794C5.98713 15.671 5.98713 15.6775 5.91123 15.4576C5.81308 15.1724 5.59191 14.9865 5.26737 14.9132C5.14566 14.8858 5.09855 14.8831 4.59341 14.8792C4.1694 14.8753 4.04639 14.8779 4.03461 14.8897ZM5.17183 15.3268C5.33542 15.3922 5.39431 15.4877 5.43226 15.7495C5.45712 15.9196 5.45843 15.9798 5.4532 16.8579C5.44665 17.863 5.44142 17.9546 5.37598 18.0959C5.33411 18.1862 5.2569 18.2595 5.16136 18.3014C5.08808 18.3341 5.07238 18.3354 4.82896 18.3354L4.57378 18.3367L4.56985 16.8265C4.56723 15.6422 4.57116 15.3124 4.58294 15.2967C4.59733 15.281 4.6379 15.2784 4.84205 15.2836C5.06714 15.2901 5.0907 15.2928 5.17183 15.3268Z" fill="black"/>
<path d="M6.53289 14.891C6.50803 14.9158 6.51065 18.7005 6.53551 18.7214C6.54729 18.7319 6.75537 18.7345 7.28407 18.7332L8.01561 18.7293L8.01953 18.5526C8.02215 18.3982 8.01953 18.3746 7.9999 18.3602C7.98289 18.3472 7.86904 18.3432 7.5314 18.3432C7.20162 18.3432 7.08122 18.3393 7.06945 18.3275C7.04982 18.3079 7.0472 16.9875 7.06683 16.956C7.0773 16.939 7.1388 16.9351 7.44896 16.9299L7.81931 16.9233V16.7401V16.5569L7.45419 16.553C7.21078 16.5517 7.08253 16.5451 7.07075 16.536C7.05767 16.5242 7.05374 16.4038 7.05374 15.9144C7.05374 15.3281 7.05505 15.3071 7.07861 15.2941C7.09562 15.2862 7.26574 15.281 7.54056 15.281C7.79183 15.281 7.9842 15.2757 7.99598 15.2679C8.01168 15.2587 8.01561 15.2221 8.01692 15.0886C8.01822 14.997 8.0143 14.9106 8.00775 14.8975C7.99598 14.8766 7.94756 14.8753 7.27229 14.8753C6.72658 14.8753 6.54467 14.8792 6.53289 14.891Z" fill="black"/>
<path d="M9.55715 14.8897C9.5336 14.9132 9.53229 18.6966 9.55584 18.7201C9.56631 18.7306 9.64352 18.7358 9.81627 18.7358C10.027 18.7358 10.0623 18.7332 10.0688 18.7149C10.0728 18.7031 10.0767 18.3001 10.0767 17.8198C10.0767 17.2217 10.0806 16.9417 10.0911 16.9364C10.1107 16.9233 10.4706 16.926 10.4811 16.939C10.4968 16.9548 10.5308 17.0581 10.553 17.1458C10.5635 17.189 10.5871 17.2806 10.6067 17.3487C10.6263 17.4167 10.6473 17.49 10.6525 17.5122C10.6577 17.5332 10.6787 17.6065 10.697 17.6719C10.7153 17.7386 10.7467 17.8486 10.765 17.914C10.7834 17.9807 10.8069 18.0645 10.8174 18.1011C10.8279 18.1365 10.8475 18.2111 10.8632 18.2647C10.8776 18.3184 10.8998 18.4008 10.9129 18.4479C10.926 18.495 10.947 18.5709 10.96 18.6181C10.9718 18.6652 10.9888 18.711 10.9954 18.7188C11.0058 18.7319 11.0726 18.7358 11.2493 18.7358H11.49V18.6927C11.49 18.6704 11.4835 18.6298 11.4756 18.605C11.4613 18.5552 11.4259 18.4309 11.3854 18.2844C11.3618 18.1993 11.3513 18.1587 11.282 17.9179C11.2689 17.8669 11.2414 17.77 11.2218 17.702C11.1668 17.5057 11.1236 17.3552 11.0713 17.172C11.0386 17.0594 10.9928 16.8946 10.9836 16.854C10.9744 16.8173 10.9967 16.7899 11.066 16.7585C11.1446 16.7218 11.2218 16.6511 11.278 16.5648C11.3461 16.464 11.367 16.4143 11.4011 16.2729C11.4272 16.1656 11.4312 16.1198 11.4298 15.8895C11.4298 15.6513 11.4272 15.6173 11.3971 15.5087C11.3382 15.298 11.2322 15.1436 11.0778 15.0467C10.9744 14.9813 10.9208 14.9604 10.7441 14.9185C10.6119 14.8858 10.5884 14.8845 10.0898 14.8792C9.68409 14.8753 9.56893 14.8766 9.55715 14.8897ZM10.5085 15.2823C10.7297 15.315 10.8252 15.3961 10.8881 15.6042C10.9129 15.688 10.9155 15.722 10.9116 15.9248C10.9077 16.1251 10.9038 16.1604 10.8763 16.2337C10.7925 16.4522 10.6028 16.5438 10.2468 16.5347L10.0832 16.5307L10.0793 15.9091C10.0767 15.3974 10.0793 15.2849 10.0937 15.2744C10.116 15.2574 10.3764 15.2627 10.5085 15.2823Z" fill="black"/>
<path d="M12.6025 14.9001C12.596 14.9145 12.5894 14.9355 12.5894 14.9485C12.5894 14.9603 12.5776 15.0218 12.5632 15.0833C12.5489 15.1448 12.5253 15.2548 12.5096 15.3267C12.4481 15.6173 12.4337 15.6853 12.4062 15.8175C12.3905 15.8934 12.3669 16.0046 12.3539 16.0661C12.3238 16.2049 12.2832 16.3933 12.2492 16.5595C12.2348 16.6302 12.2112 16.7401 12.1981 16.8055C12.1837 16.8697 12.1602 16.9822 12.1445 17.0542C12.1301 17.1262 12.1052 17.2413 12.0908 17.3094C12.0555 17.4756 12.0202 17.6418 11.9874 17.8001C11.9717 17.8721 11.9482 17.9833 11.9351 18.0488C11.9207 18.1129 11.8971 18.2254 11.8827 18.2974C11.867 18.3694 11.8435 18.4793 11.8291 18.5408C11.8134 18.6036 11.8042 18.6704 11.8068 18.6913L11.8108 18.7293L12.0385 18.7332C12.189 18.7358 12.2714 18.7319 12.2832 18.7214C12.2924 18.7136 12.3067 18.6743 12.3146 18.6337C12.3735 18.3196 12.4141 18.1037 12.452 17.9087C12.4651 17.8459 12.4821 17.787 12.4926 17.7792C12.5044 17.77 12.6261 17.7661 12.8799 17.7674C13.0828 17.7674 13.2516 17.7713 13.2542 17.7739C13.2595 17.7779 13.2974 17.9715 13.3484 18.2516C13.4152 18.6233 13.4322 18.7044 13.444 18.7188C13.461 18.741 13.9177 18.7423 13.9321 18.7214C13.9373 18.7136 13.9308 18.6638 13.9203 18.6128C13.9085 18.5618 13.8863 18.461 13.8719 18.389C13.847 18.2686 13.834 18.211 13.7672 17.8983C13.7541 17.8368 13.7306 17.7281 13.7149 17.6562C13.7005 17.5842 13.6769 17.4716 13.6625 17.4075C13.6481 17.3421 13.6246 17.2308 13.6102 17.1589C13.5945 17.0869 13.5709 16.9783 13.5578 16.9168C13.5447 16.8553 13.5212 16.744 13.5055 16.6681C13.4898 16.5922 13.4662 16.481 13.4531 16.4195C13.44 16.358 13.4165 16.2493 13.4008 16.1774C13.334 15.8594 13.2725 15.5688 13.2437 15.438C13.2307 15.3765 13.2071 15.2652 13.1914 15.1893C13.1417 14.9485 13.1377 14.9341 13.1181 14.904C13.0998 14.8766 13.0933 14.8753 12.8577 14.8753C12.6326 14.8753 12.6156 14.8766 12.6025 14.9001ZM12.897 15.7874C12.91 15.8685 12.9873 16.2978 13.0226 16.4784C13.0383 16.5621 13.071 16.7427 13.105 16.9364C13.1168 17.0005 13.1351 17.0947 13.1456 17.1458C13.1561 17.1955 13.1665 17.2662 13.1678 17.3028L13.1718 17.3683L12.8734 17.3722C12.6156 17.3748 12.575 17.3722 12.5685 17.3552C12.5593 17.3316 12.5646 17.2963 12.6679 16.7362C12.6823 16.659 12.7059 16.5281 12.7216 16.4456C12.8472 15.7507 12.8498 15.739 12.876 15.739C12.8839 15.739 12.893 15.7612 12.897 15.7874Z" fill="black"/>
<path d="M14.3455 14.8857C14.3325 14.8949 14.3298 15.2888 14.3325 16.8134L14.3364 18.7293L14.9122 18.7332C15.4448 18.7358 15.4972 18.7345 15.6163 18.7096C15.9343 18.6455 16.1541 18.4597 16.2614 18.1652C16.3412 17.9467 16.3661 17.5986 16.319 17.3447C16.2575 17.0084 16.1005 16.8055 15.8191 16.6956C15.7982 16.6877 15.7825 16.6747 15.7825 16.6655C15.7825 16.655 15.8243 16.6289 15.8741 16.6053C15.9905 16.5516 16.0887 16.4535 16.1463 16.3344C16.2313 16.163 16.2627 15.8463 16.2209 15.6002C16.1554 15.2155 15.967 15.0087 15.5927 14.9132C15.4802 14.8844 15.4487 14.8831 14.9187 14.8792C14.6125 14.8766 14.3547 14.8792 14.3455 14.8857ZM15.3048 15.2927C15.6607 15.3228 15.7694 15.455 15.7694 15.8528C15.7694 16.0988 15.7209 16.2716 15.6293 16.3553C15.5207 16.4561 15.4069 16.4849 15.1137 16.4849C14.9632 16.4849 14.8926 16.4797 14.8821 16.4692C14.8703 16.4574 14.8664 16.3082 14.8664 15.8803C14.8664 15.349 14.8677 15.3071 14.8899 15.2953C14.9174 15.2783 15.115 15.277 15.3048 15.2927ZM15.4867 16.9456C15.5862 16.9874 15.6869 17.0777 15.7327 17.1602C15.751 17.1955 15.7811 17.274 15.7968 17.3355C15.8387 17.4926 15.8387 17.7883 15.7982 17.9545C15.7497 18.1495 15.6935 18.2267 15.5469 18.2961C15.4618 18.3353 15.4618 18.3353 15.1844 18.3406C14.975 18.3445 14.9004 18.3419 14.886 18.3301C14.869 18.3157 14.8664 18.2215 14.8664 17.6247C14.8664 17.0908 14.8703 16.9312 14.8834 16.9181C14.8952 16.905 14.9567 16.9024 15.1543 16.9063C15.3925 16.9115 15.4147 16.9141 15.4867 16.9456Z" fill="black"/>
<path d="M16.8333 14.8897C16.8111 14.9119 16.8084 18.6704 16.8294 18.711C16.8425 18.7345 16.8634 18.7358 17.4104 18.7358C17.926 18.7358 17.9902 18.7332 18.1053 18.7097C18.4652 18.6351 18.6942 18.4034 18.7871 18.02C18.8172 17.8944 18.8212 17.8525 18.8212 17.6366C18.8225 17.3604 18.8002 17.2387 18.7165 17.0608C18.6419 16.9037 18.4914 16.7689 18.3056 16.6956C18.2846 16.6878 18.2689 16.6721 18.2689 16.6616C18.2689 16.6498 18.2846 16.6354 18.3056 16.6276C18.5594 16.5334 18.6838 16.3397 18.7139 15.9942C18.7426 15.667 18.6903 15.4014 18.5607 15.2142C18.4613 15.0716 18.2977 14.9695 18.0792 14.9132C17.9666 14.8845 17.9339 14.8831 17.4052 14.8779C16.9707 14.8753 16.8451 14.8779 16.8333 14.8897ZM17.7913 15.2928C18.0216 15.3124 18.1276 15.3687 18.1982 15.5061C18.2676 15.6422 18.2741 16.0034 18.2113 16.184C18.1276 16.4221 17.9876 16.4889 17.5819 16.4823L17.3594 16.4784L17.3555 15.8974C17.3542 15.4799 17.3568 15.3111 17.3672 15.2993C17.3856 15.2771 17.5701 15.2744 17.7913 15.2928ZM17.9718 16.9443C18.1197 17.0084 18.2061 17.1052 18.265 17.2754C18.2912 17.3526 18.299 17.4023 18.3042 17.5646C18.316 17.8865 18.2768 18.0763 18.1734 18.1941C18.0674 18.3145 17.9575 18.3432 17.6002 18.3432C17.4013 18.3432 17.3672 18.3406 17.3607 18.3223C17.3568 18.3105 17.3529 17.9938 17.3529 17.6182C17.3529 17.0895 17.3568 16.9312 17.3699 16.9181C17.3816 16.905 17.4431 16.9024 17.6408 16.9063C17.8776 16.9116 17.9012 16.9142 17.9718 16.9443Z" fill="black"/>
<path d="M19.3447 14.891C19.3224 14.9132 19.3224 18.6979 19.3447 18.7201C19.3552 18.7306 19.4311 18.7358 19.5999 18.7358H19.8394L19.8524 18.7018C19.8721 18.6521 19.8695 14.9159 19.8511 14.8923C19.8315 14.8687 19.3682 14.8674 19.3447 14.891Z" fill="black"/>
<path d="M20.2607 14.891C20.2385 14.9132 20.2385 15.243 20.2607 15.2653C20.2725 15.2771 20.3602 15.281 20.5722 15.281C20.7842 15.281 20.8718 15.2849 20.8836 15.2967C20.8954 15.3085 20.8993 15.7063 20.8993 17.0084C20.8993 18.3105 20.9033 18.7084 20.915 18.7201C20.9255 18.7306 21.0027 18.7358 21.1755 18.7358C21.3862 18.7358 21.4215 18.7332 21.428 18.7149C21.432 18.7031 21.4359 17.9362 21.4359 17.0084C21.4359 16.0806 21.4398 15.3137 21.4437 15.3019C21.4503 15.2836 21.4895 15.281 21.7421 15.281C21.9502 15.281 22.0366 15.2771 22.0483 15.2653C22.0588 15.2548 22.064 15.192 22.064 15.0703C22.064 14.9185 22.0614 14.8897 22.0431 14.8831C22.0313 14.8792 21.6296 14.8753 21.1493 14.8753C20.4884 14.8753 20.2725 14.8792 20.2607 14.891Z" fill="black"/>
<path d="M25.5477 14.891C25.5254 14.9132 25.5254 15.243 25.5477 15.2653C25.5595 15.277 25.6471 15.281 25.8592 15.281C26.0712 15.281 26.1588 15.2849 26.1706 15.2967C26.1824 15.3085 26.1863 15.7063 26.1863 17.0084C26.1863 18.3105 26.1902 18.7084 26.202 18.7201C26.2243 18.7424 26.6849 18.7424 26.7072 18.7201C26.7189 18.7084 26.7229 18.3105 26.7229 17.0084C26.7229 15.7063 26.7268 15.3085 26.7386 15.2967C26.7504 15.2849 26.8367 15.281 27.0461 15.281C27.389 15.281 27.3536 15.3085 27.3484 15.052L27.3445 14.8818L26.4546 14.8779C25.7728 14.8753 25.5595 14.8792 25.5477 14.891Z" fill="black"/>
<path d="M27.7083 14.8844C27.6861 14.8923 27.6834 17.5319 27.7044 17.7661C27.7515 18.2883 27.9229 18.5827 28.254 18.7083C28.483 18.796 28.9332 18.796 29.1688 18.7083C29.42 18.6154 29.5928 18.3995 29.6674 18.0854C29.7276 17.8342 29.7328 17.6928 29.7328 16.2481C29.7328 15.0232 29.7302 14.891 29.7119 14.8831C29.6713 14.8674 29.2552 14.874 29.2381 14.891C29.2264 14.9028 29.2224 15.2325 29.2224 16.2939C29.2224 17.5868 29.2211 17.6941 29.1976 17.8473C29.1609 18.0907 29.0837 18.2372 28.9594 18.3C28.873 18.3432 28.7317 18.3616 28.6191 18.3445C28.5027 18.3262 28.4451 18.2961 28.3744 18.2202C28.2933 18.1325 28.2566 18.0383 28.2279 17.8355C28.203 17.6706 28.2017 17.5842 28.2017 16.2834C28.2017 15.2299 28.1978 14.9028 28.186 14.891C28.1755 14.8805 28.1048 14.8753 27.9478 14.8766C27.8248 14.8766 27.7162 14.8805 27.7083 14.8844Z" fill="black"/>
<path d="M30.3021 14.891C30.2982 14.9001 30.2969 15.7678 30.2982 16.8186L30.3021 18.7293L30.8125 18.7332C31.2326 18.7358 31.3451 18.7332 31.4472 18.7162C31.6645 18.6795 31.811 18.6141 31.9393 18.4963C32.0898 18.3589 32.1775 18.1836 32.235 17.9048C32.2651 17.7622 32.2651 17.7504 32.2651 16.7663C32.2651 15.7769 32.2651 15.7717 32.235 15.6408C32.1748 15.3765 32.095 15.226 31.955 15.1082C31.8333 15.0061 31.7351 14.9603 31.5323 14.9119C31.4237 14.8857 31.3739 14.8831 30.8609 14.8779C30.4121 14.874 30.3074 14.8766 30.3021 14.891ZM31.3164 15.294C31.4826 15.3176 31.5925 15.3935 31.6527 15.527C31.7142 15.6592 31.7247 15.7992 31.7312 16.5935C31.7377 17.2989 31.726 17.7111 31.6959 17.9271C31.6697 18.1077 31.5833 18.2346 31.4446 18.2987C31.3648 18.3341 31.353 18.3354 31.1161 18.3406C30.9329 18.3445 30.8662 18.3419 30.8518 18.3301C30.8348 18.3157 30.8322 18.1299 30.8322 16.8134C30.8322 15.6631 30.8361 15.3084 30.8479 15.2967C30.8675 15.277 31.1894 15.2757 31.3164 15.294Z" fill="black"/>
<path d="M32.837 14.891C32.8148 14.9132 32.8148 18.6979 32.837 18.7201C32.8475 18.7306 32.9234 18.7358 33.0922 18.7358H33.3317L33.3448 18.7018C33.3657 18.6495 33.3618 14.9106 33.3421 14.891C33.3317 14.8805 33.2558 14.8753 33.0896 14.8753C32.9234 14.8753 32.8475 14.8805 32.837 14.891Z" fill="black"/>
<path d="M16.6086 5.00968C16.4091 5.0784 16.2851 5.18401 16.2046 5.35163L16.156 5.45556V7.91969V10.3838L16.1979 10.5012C16.2214 10.5649 16.2549 10.6319 16.275 10.6487C16.3085 10.6755 16.3153 10.6755 16.3505 10.652C16.3974 10.6218 16.4628 10.6185 16.4544 10.647C16.4494 10.6587 16.4242 10.6772 16.394 10.6855C16.332 10.7073 16.2482 10.8079 16.2214 10.8934C16.1996 10.9672 16.1811 11.3393 16.1962 11.4198C16.213 11.5086 16.2801 11.5656 16.3672 11.5656C16.4259 11.5656 16.4494 11.5572 16.4779 11.5237C16.5231 11.4717 16.5332 11.4717 16.5952 11.5237C16.6622 11.5807 16.7561 11.5807 16.8232 11.5237C16.8852 11.4717 16.8852 11.4717 16.9472 11.5237C17.021 11.5874 17.1148 11.5824 17.1802 11.5119C17.2288 11.4583 17.2288 11.455 17.2305 11.2555C17.2322 11.1448 17.2355 11.0426 17.2372 11.0292C17.2389 11.0158 17.2422 10.9889 17.2439 10.9705C17.2456 10.942 17.2489 10.9403 17.2623 10.9621C17.2707 10.9755 17.2791 11.0074 17.2791 11.0309C17.2791 11.0543 17.2892 11.0862 17.3009 11.1013C17.3193 11.1281 17.3747 11.1314 17.9697 11.1314C18.4693 11.1314 18.6268 11.1264 18.6537 11.1096C18.7056 11.0761 18.7207 11.1147 18.7207 11.289C18.7207 11.4332 18.7224 11.4432 18.7727 11.5036C18.8179 11.5589 18.833 11.5656 18.8984 11.5656C18.9571 11.5656 18.9822 11.5555 19.0124 11.5237C19.061 11.47 19.0895 11.47 19.1398 11.5237C19.1934 11.5807 19.2873 11.5807 19.3543 11.5237C19.4164 11.4717 19.4164 11.4717 19.4784 11.5237C19.5404 11.5756 19.636 11.5807 19.6963 11.5321C19.7701 11.4751 19.7818 11.4164 19.7717 11.1834C19.7617 10.9605 19.7315 10.8331 19.6745 10.7677C19.6309 10.7207 19.6343 10.704 19.6896 10.6839C19.7281 10.6688 19.7483 10.6403 19.7868 10.5498L19.8354 10.4341L19.8405 7.94651L19.8438 5.45892L19.7952 5.35331C19.7332 5.22089 19.6225 5.10858 19.4968 5.04991C19.361 4.98788 19.1582 4.98453 19.0224 5.0432C18.8565 5.11528 18.7526 5.22089 18.6788 5.39689C18.6486 5.4673 18.6453 5.52932 18.6402 6.23168C18.6352 6.87537 18.6319 6.99271 18.6101 7.00109C18.5967 7.00612 18.5095 6.99606 18.4139 6.9793C18.1793 6.93907 17.8306 6.93907 17.5842 6.9793C17.4635 6.99941 17.3897 7.00612 17.3797 6.99606C17.3696 6.986 17.3612 6.68427 17.3579 6.23336C17.3545 5.55279 17.3512 5.48238 17.3227 5.40528C17.2288 5.15886 17.0327 5.01303 16.7762 5.00129C16.7075 4.99794 16.6321 5.00129 16.6086 5.00968ZM16.855 5.28123C16.9187 5.3047 17.0059 5.39187 17.0461 5.4673C17.0763 5.52764 17.078 5.56955 17.0746 6.3222L17.0696 7.11508L16.9439 7.17878C16.7829 7.26091 16.674 7.33299 16.5533 7.44027C16.4996 7.48721 16.4494 7.52576 16.4393 7.52576C16.4309 7.52576 16.4242 7.1419 16.4242 6.53006C16.4242 5.43713 16.4209 5.47065 16.5281 5.3684C16.627 5.27453 16.7494 5.241 16.855 5.28123ZM19.3946 5.3114C19.4365 5.33822 19.4918 5.38851 19.5186 5.42371L19.5672 5.48574L19.5723 6.4915C19.5739 7.05305 19.5706 7.50397 19.5622 7.51235C19.5538 7.52074 19.5153 7.49894 19.4734 7.46039C19.3761 7.37155 19.2119 7.26091 19.056 7.18045C18.9403 7.12011 18.9302 7.11005 18.9168 7.04803C18.9101 7.01115 18.9051 6.65242 18.9084 6.25179L18.9135 5.52261L18.9587 5.44551C18.999 5.37678 19.0895 5.29799 19.1565 5.27453C19.2253 5.24938 19.3208 5.26447 19.3946 5.3114ZM16.793 9.66804C16.8433 9.6781 16.9422 9.69654 17.0109 9.71163C17.0796 9.72504 17.1752 9.7418 17.2204 9.74851C17.3747 9.76862 17.3847 9.77868 17.3713 9.86752C17.3462 10.0368 17.1903 10.1894 17.0143 10.2179C16.8014 10.2514 16.5415 10.0385 16.5415 9.82897C16.5415 9.65463 16.5684 9.6144 16.6589 9.63955C16.6824 9.64625 16.7427 9.65966 16.793 9.66804ZM19.4247 9.65463C19.465 9.67978 19.4566 9.89602 19.413 9.98151C19.3141 10.1676 19.0995 10.2631 18.9219 10.1994C18.7526 10.1391 18.6419 10.0184 18.6252 9.87255C18.6134 9.77365 18.6201 9.7703 18.8297 9.74012C18.9034 9.73007 19.0476 9.70325 19.1482 9.68145C19.3644 9.63619 19.3912 9.63284 19.4247 9.65463ZM18.1759 10.0335C18.1944 10.0804 18.1927 10.0938 18.1575 10.1642C18.1357 10.2078 18.1172 10.2514 18.1172 10.2614C18.1172 10.2698 18.1441 10.3034 18.1759 10.3335C18.2279 10.3855 18.3201 10.4257 18.3888 10.4257C18.4424 10.4257 18.4693 10.4458 18.4693 10.4861C18.4693 10.5347 18.4156 10.5514 18.315 10.5364C18.2279 10.5229 18.1709 10.4928 18.0753 10.409C18.0334 10.3721 17.9966 10.3419 17.9949 10.3419C17.9915 10.3419 17.9546 10.3754 17.9111 10.4173C17.777 10.5447 17.5306 10.595 17.5306 10.4944C17.5306 10.4509 17.5574 10.4341 17.6647 10.4106C17.73 10.3972 17.7753 10.3738 17.8205 10.3318C17.8926 10.2631 17.8943 10.2514 17.849 10.1827C17.8088 10.1223 17.8055 10.0351 17.8423 9.99827C17.8641 9.97815 17.8993 9.97313 18.0116 9.97648C18.1524 9.98151 18.1541 9.98151 18.1759 10.0335ZM16.7729 10.6051C16.7377 10.6084 16.6807 10.6084 16.6472 10.6051C16.612 10.6017 16.6404 10.5984 16.7092 10.5984C16.7779 10.5984 16.8064 10.6017 16.7729 10.6051ZM19.2823 10.6101C19.237 10.6168 19.1834 10.6151 19.1649 10.6084C19.1448 10.6001 19.175 10.5967 19.2487 10.5967C19.3644 10.5984 19.3644 10.5984 19.2823 10.6101ZM17.1433 10.7124C17.197 10.7677 17.2288 10.8129 17.2288 10.8381C17.2288 10.8917 17.1986 10.8884 17.1785 10.8347C17.1567 10.7811 17.0847 10.709 17.0243 10.6822C16.9673 10.657 16.964 10.6269 17.0176 10.6269C17.0428 10.6269 17.088 10.6587 17.1433 10.7124ZM18.9856 10.647C18.9805 10.6587 18.9554 10.6755 18.9286 10.6855C18.8481 10.714 18.7811 10.7928 18.7626 10.8867C18.7542 10.932 18.7391 10.9688 18.7291 10.9655C18.7023 10.9588 18.7123 10.8264 18.7408 10.8096C18.7559 10.8012 18.7727 10.7761 18.7777 10.7526C18.7844 10.7291 18.7945 10.7107 18.8028 10.7107C18.8095 10.7107 18.8364 10.6922 18.8615 10.6688C18.9084 10.6252 18.9973 10.6101 18.9856 10.647ZM19.6058 10.647C19.6343 10.6755 19.6309 10.6939 19.5991 10.6939C19.5605 10.6939 19.5069 10.6604 19.5169 10.642C19.532 10.6202 19.5823 10.6235 19.6058 10.647Z" fill="black"/>
<path d="M18.5581 11.6025C18.5397 11.6243 18.4978 11.6796 18.4643 11.7265C18.3939 11.8254 18.1642 12.0484 18.0871 12.0953C18.0217 12.1322 18.0184 12.1825 18.0737 12.2344C18.1005 12.2596 18.129 12.2713 18.1625 12.2663L18.2095 12.2612L18.2145 12.4523C18.2162 12.5596 18.2279 12.6552 18.238 12.6669C18.2497 12.682 18.3117 12.6887 18.4609 12.6887C18.714 12.6887 18.7258 12.6971 18.6436 12.8178C18.5481 12.9619 18.4425 13.039 18.1977 13.148C18.1642 13.1631 18.1256 13.1748 18.1122 13.1748C18.0234 13.1748 18.01 13.2318 18.0821 13.3123L18.129 13.3659L18.1893 13.3374C18.2212 13.3223 18.2564 13.3089 18.2665 13.3089C18.305 13.3089 18.4978 13.2083 18.5833 13.1446C18.6939 13.0625 18.776 12.967 18.8314 12.8563C18.8548 12.8094 18.8833 12.7742 18.8934 12.7775C18.9068 12.7809 18.9169 12.8563 18.9219 13.0005C18.9353 13.3257 18.9386 13.3307 19.299 13.3391C19.6779 13.3491 19.7567 13.3139 19.7785 13.1279C19.7902 13.0239 19.7718 12.9737 19.7081 12.9385C19.6578 12.9133 19.6259 12.9485 19.6142 13.0424C19.5991 13.1664 19.5823 13.1748 19.3493 13.1748C19.2136 13.1748 19.1398 13.1681 19.1264 13.1547C19.0979 13.1262 19.0979 12.7373 19.1264 12.7088C19.1784 12.6568 19.232 12.7172 19.1817 12.7725C19.1532 12.8027 19.1582 12.8094 19.299 12.9435C19.3795 13.0206 19.4549 13.0843 19.465 13.0876C19.4751 13.0893 19.5103 13.0709 19.5421 13.0441L19.5991 12.9954L19.5002 12.8949C19.4449 12.8412 19.3812 12.7842 19.3594 12.7708C19.3309 12.7541 19.3225 12.7356 19.3292 12.7172C19.3376 12.6937 19.3644 12.6887 19.4717 12.6887C19.5505 12.6887 19.6108 12.6803 19.6226 12.6686C19.6511 12.6401 19.6511 12.0836 19.6226 12.0551C19.6092 12.0416 19.5304 12.0349 19.3795 12.0349C19.1197 12.0349 19.118 12.0333 19.2186 11.8874L19.2823 11.7969L19.232 11.7567C19.1867 11.7215 19.1649 11.7165 18.9722 11.7131L18.7626 11.7081L18.7543 11.6494C18.7475 11.6008 18.7375 11.5891 18.6956 11.5807C18.6084 11.5622 18.5933 11.5639 18.5581 11.6025ZM18.9537 11.9075C18.9688 11.926 18.9638 11.9427 18.9286 11.983L18.885 12.0349H18.6838C18.486 12.0349 18.4844 12.0349 18.4894 11.9981C18.4928 11.9779 18.5196 11.9427 18.5514 11.9226C18.6017 11.8891 18.6302 11.8841 18.771 11.8841C18.89 11.8841 18.9403 11.8908 18.9537 11.9075ZM18.7861 12.2428C18.8112 12.273 18.7811 12.4725 18.7475 12.4959C18.7157 12.5211 18.4408 12.5127 18.4106 12.4875C18.3788 12.4624 18.3754 12.2696 18.4056 12.2394C18.4358 12.2093 18.761 12.2126 18.7861 12.2428ZM19.4382 12.3568C19.4415 12.4674 19.4382 12.4875 19.413 12.5009C19.3711 12.5227 19.009 12.5144 18.9873 12.4926C18.9588 12.4641 18.9755 12.2545 19.0074 12.2344C19.0191 12.226 19.1214 12.221 19.232 12.2227L19.4331 12.2277L19.4382 12.3568Z" fill="black"/>
<path d="M16.3018 11.7114C16.2816 11.7299 16.2884 11.8422 16.3101 11.864C16.3236 11.8774 16.4191 11.8841 16.6286 11.8841C16.9052 11.8841 16.927 11.8857 16.9438 11.9159C16.9522 11.9344 16.9605 12.0249 16.9605 12.1187C16.9605 12.2126 16.9522 12.3031 16.9438 12.3216C16.927 12.3501 16.9052 12.3534 16.6672 12.3534C16.3873 12.3534 16.3571 12.3635 16.3571 12.4456C16.3571 12.5177 16.409 12.5328 16.6756 12.5345C16.8834 12.5378 16.922 12.5412 16.9404 12.5663C16.9656 12.6015 16.9689 13.0105 16.9438 13.0591C16.927 13.0893 16.9052 13.091 16.6001 13.091C16.4225 13.091 16.2565 13.0977 16.233 13.1078C16.1995 13.1195 16.1895 13.1362 16.1895 13.1731C16.1895 13.2787 16.1593 13.2754 17.0594 13.2754C17.6713 13.2754 17.8808 13.2703 17.8959 13.2553C17.9277 13.2234 17.921 13.1279 17.8858 13.1094C17.8691 13.0994 17.7048 13.0927 17.5171 13.0927C17.331 13.0927 17.1717 13.0893 17.1617 13.0826C17.1416 13.0692 17.1399 12.5898 17.16 12.5563C17.1717 12.5378 17.2304 12.5328 17.4316 12.5328C17.7132 12.5345 17.7651 12.5211 17.7651 12.4456C17.7651 12.3618 17.735 12.3534 17.4383 12.3534C17.2053 12.3534 17.1634 12.3501 17.155 12.3266C17.1349 12.2763 17.1433 11.926 17.165 11.9042C17.1785 11.8908 17.2757 11.8841 17.4919 11.8841C17.7769 11.8841 17.7987 11.8824 17.8154 11.8522C17.8389 11.8086 17.8372 11.7449 17.8121 11.7198C17.797 11.7047 17.6059 11.6997 17.0527 11.6997C16.6454 11.6997 16.3068 11.7047 16.3018 11.7114Z" fill="black"/>
<path d="M17.316 12.6182C17.2858 12.6434 17.2623 12.6669 17.2623 12.6719C17.2623 12.6903 17.6328 13.0574 17.6512 13.0574C17.6697 13.0574 17.7652 12.9602 17.7652 12.9418C17.7652 12.9166 17.4098 12.5713 17.3847 12.5713C17.378 12.5713 17.3461 12.5931 17.316 12.6182Z" fill="black"/>
</svg>
