<svg width="36" height="24" viewBox="0 0 36 24" fill="none" xmlns="http://www.w3.org/2000/svg">
<path fill-rule="evenodd" clip-rule="evenodd" d="M7.45156 19C7.43936 19 6.3483 17.1551 5.24776 15.2808L6.36412 13.4419C7.46033 15.3311 7.46287 15.3266 7.48529 15.2863C7.4863 15.2845 7.48735 15.2826 7.48854 15.2808C7.5493 15.191 9.66775 11.6065 9.66775 11.5907C9.66775 11.5828 9.42473 11.5775 9.12889 11.5775H8.59003L9.13417 10.6398L9.68095 9.70206H11.3002H12.922L12.8718 9.78658C12.8531 9.8172 12.3382 10.6957 11.581 11.9875C11.1623 12.7017 10.6697 13.5422 10.1459 14.4356C8.67192 16.9476 7.46213 19 7.45156 19Z" fill="#18161C"/>
<path d="M3.68484 12.6077C3.22787 11.8179 0.538858 7.26399 0.116224 6.564L0 6.37382L4.74935 6.37646C7.35911 6.3791 9.72586 6.38702 10.0059 6.39759L10.513 6.41344L9.97944 7.33002L9.44586 8.24925H6.37385C4.68331 8.24925 3.30183 8.25718 3.30183 8.26774C3.30447 8.28095 3.49201 8.60321 3.72182 8.98886L4.13653 9.68885L6.35007 9.69677C7.68137 9.69942 8.55833 9.71262 8.55305 9.72583C8.54777 9.73904 8.30739 10.1617 8.01683 10.6635L7.48854 11.5749L6.38969 11.5828L5.29085 11.5907L5.78216 12.4386L5.89007 12.6247C6.06734 12.9303 6.22459 13.2015 6.36412 13.4419L5.24776 15.2808C4.68049 14.3147 4.1107 13.3408 3.68484 12.6077Z" fill="#D61A1F"/>
<path d="M22.7033 9.65189C22.1988 9.72585 21.7128 10.0006 21.4328 10.3704C20.9547 11.0017 20.8966 11.8311 21.277 12.5205C21.4064 12.7503 21.7207 13.0673 21.9637 13.2099C22.2781 13.3948 22.5158 13.4582 22.9279 13.4741C23.2343 13.4846 23.3188 13.4767 23.509 13.4292C24.0029 13.305 24.378 13.0541 24.6818 12.6526L24.7769 12.5232V11.9579V11.3926H23.892H23.0071V11.7228V12.053H23.5222H24.0373V12.193C24.0373 12.3567 24.0056 12.4122 23.8233 12.5549C23.5777 12.7503 23.1999 12.8401 22.8513 12.7926C22.36 12.7239 21.9928 12.4096 21.8581 11.9368C21.7894 11.7043 21.8132 11.2764 21.903 11.0545C22.0773 10.6345 22.4339 10.3783 22.8909 10.344C23.2818 10.3123 23.6067 10.4285 23.8735 10.6979C23.966 10.7904 24.0478 10.8643 24.0531 10.8643C24.0795 10.8643 24.5524 10.4575 24.5603 10.4285C24.5735 10.3704 24.1905 10.0058 23.9977 9.89226C23.612 9.66774 23.1656 9.58585 22.7033 9.65189Z" fill="#18161C"/>
<path d="M26.6814 9.68091C26.6682 9.71524 26.3168 10.5209 25.8995 11.4718C25.4821 12.4227 25.1176 13.2522 25.0912 13.3156L25.041 13.4291L25.4531 13.4212L25.8652 13.4133L25.9602 13.1835L26.058 12.951H26.8266H27.5979L27.6983 13.1888L27.7987 13.4265H28.2055C28.5832 13.4265 28.6123 13.4239 28.5938 13.379C28.5859 13.3552 28.2134 12.4993 27.767 11.4771L26.9587 9.62279H26.8319C26.7236 9.62279 26.6999 9.63072 26.6814 9.68091ZM27.0855 11.6963C27.2097 12.016 27.3127 12.2854 27.3127 12.2986C27.3127 12.3092 27.0908 12.3171 26.8214 12.3171C26.5519 12.3171 26.3353 12.3065 26.3406 12.2933C26.6972 11.3794 26.824 11.0782 26.8372 11.0941C26.8478 11.1047 26.9587 11.3767 27.0855 11.6963Z" fill="#18161C"/>
<path d="M29.9885 9.64925C29.6821 9.70472 29.4126 9.85793 29.2436 10.0719C29.1009 10.2515 29.0428 10.4338 29.0428 10.6926C29.0428 10.8802 29.0534 10.9277 29.13 11.0809C29.2779 11.3794 29.447 11.5115 30.0994 11.8285C30.7492 12.1454 30.7994 12.1877 30.7994 12.4096C30.7994 12.6024 30.699 12.7213 30.4877 12.782C30.1655 12.8771 29.8221 12.7609 29.5341 12.4624C29.4443 12.3673 29.3625 12.2907 29.3572 12.2907C29.3492 12.2907 29.233 12.3752 29.0957 12.4783L28.8447 12.6658L28.8923 12.7503C28.916 12.7952 29.0217 12.9167 29.1221 13.0198C29.4311 13.3341 29.8009 13.4794 30.2843 13.4794C30.7149 13.4794 31.0054 13.3764 31.2669 13.1307C31.4281 12.9775 31.5205 12.7979 31.5654 12.5575C31.6288 12.2062 31.5258 11.9077 31.2564 11.6568C31.0873 11.4956 31.0319 11.4666 30.1866 11.0651C29.8907 10.9251 29.8141 10.8406 29.8141 10.6636C29.8141 10.4285 30.0123 10.2938 30.3213 10.3149C30.5722 10.3334 30.7519 10.4364 30.9236 10.6609L30.9817 10.7375L31.2273 10.5447C31.362 10.439 31.4783 10.3492 31.4835 10.344C31.539 10.2991 31.1613 9.89755 30.9711 9.79982C30.6885 9.65718 30.287 9.59642 29.9885 9.64925Z" fill="#18161C"/>
<path d="M33.705 9.65188C33.285 9.71528 32.9126 9.90547 32.6088 10.2145C32.2865 10.5421 32.1281 10.859 32.0647 11.3028C32.0092 11.6911 32.0726 12.0477 32.2681 12.4439C32.5137 12.9484 33.0473 13.3473 33.6099 13.4503C33.8397 13.4926 34.2597 13.4846 34.479 13.4371C34.8857 13.3473 35.3057 13.0911 35.5646 12.7767C36.085 12.1454 36.1457 11.2262 35.7099 10.5447C35.4404 10.1221 35.0099 9.81301 34.5212 9.69151C34.2993 9.63604 33.9242 9.61755 33.705 9.65188ZM34.331 10.373C34.6823 10.4655 34.9412 10.6821 35.0971 11.0122C35.1842 11.1945 35.1948 11.242 35.2054 11.4824C35.2238 11.8945 35.1182 12.1956 34.8673 12.4466C34.3284 12.9854 33.3431 12.856 32.9865 12.1956C32.7197 11.7043 32.8069 11.0439 33.1873 10.6688C33.4699 10.3862 33.9348 10.2673 34.331 10.373Z" fill="#18161C"/>
<path d="M14.2639 11.5643V13.4265H14.6469H15.0299V12.7133V12.0001H15.7167H16.4035V11.6567V11.3133H15.7167H15.0299V10.8511V10.3888H15.8752H16.7205V10.0454V9.70205H15.4922H14.2639V11.5643Z" fill="#18161C"/>
<path d="M17.2488 10.8696C17.2514 12.2167 17.262 12.3356 17.4337 12.679C17.6239 13.062 17.9593 13.3288 18.3978 13.4397C18.6065 13.4925 19.0555 13.4925 19.2669 13.4371C19.8136 13.2971 20.1914 12.922 20.3551 12.3567C20.3948 12.2194 20.4027 12.0371 20.4106 10.9488L20.4238 9.70204H20.0382H19.6525V10.8696C19.6525 12.1348 19.6419 12.251 19.5125 12.4465C19.3619 12.6737 19.1533 12.7741 18.8337 12.7741C18.4691 12.7767 18.2288 12.6314 18.0888 12.3303C18.028 12.1982 18.028 12.1877 18.0201 10.9488L18.0122 9.70204H17.6318H17.2488V10.8696Z" fill="#18161C"/>
</svg>
