<svg width="36" height="24" viewBox="0 0 36 24" fill="none" xmlns="http://www.w3.org/2000/svg">
<path d="M26.2904 7C26.4131 7.0489 26.5459 7.03468 26.6729 7.05964C27.5749 7.23629 28.0984 7.81717 28.3826 8.65375C28.4548 8.86615 28.4962 9.0862 28.5245 9.30909C28.5346 9.38634 28.5146 9.41634 28.4363 9.41589C28.1288 9.41409 27.8212 9.41364 27.5138 9.41604C27.4345 9.41679 27.4184 9.37509 27.4115 9.30835C27.3865 9.0748 27.3209 8.85309 27.1942 8.6533C26.9242 8.22688 26.5109 8.10811 26.0414 8.13905C25.3607 8.18371 24.9238 8.6062 24.8444 9.28284C24.8332 9.37809 24.8063 9.42024 24.7004 9.41754C24.4141 9.41034 24.1271 9.41109 23.8403 9.41739C23.7425 9.41964 23.7109 9.38109 23.6974 9.29199C23.647 8.95975 23.5222 8.6596 23.2705 8.42824C22.6541 7.86259 21.5743 8.11609 21.2494 8.89915C21.1934 9.034 21.1534 9.17335 21.1406 9.31869C21.1342 9.39264 21.0997 9.41664 21.0281 9.41604C20.7247 9.41364 20.4215 9.41304 20.1181 9.41634C20.0368 9.41709 20.0176 9.38109 20.026 9.30954C20.161 8.19518 20.8309 7.05838 22.3634 7.01846C23.1352 6.99826 23.7194 7.33085 24.1814 7.92146C24.2815 8.04922 24.2825 8.04971 24.3886 7.92022C24.7781 7.44389 25.2548 7.11603 25.8794 7.03294C25.9414 7.02471 26.0107 7.04915 26.0656 7C26.1407 7 26.2156 7 26.2904 7Z" fill="#1E1E1C"/>
<path d="M35.9684 8.09737C35.9264 8.14479 35.8703 8.1343 35.8172 8.1343C35.489 8.13456 35.161 8.1373 34.8328 8.1328C34.7318 8.13132 34.6958 8.16126 34.6978 8.26755C34.7044 8.60386 34.6969 8.94031 34.7023 9.27661C34.7041 9.38416 34.6718 9.42061 34.5608 9.41761C34.2787 9.40981 33.9959 9.41131 33.7138 9.41701C33.6154 9.41911 33.5833 9.38716 33.5848 9.28906C33.5894 8.94841 33.5833 8.60791 33.5885 8.26755C33.59 8.16349 33.5543 8.13156 33.4522 8.1328C33.0992 8.13754 32.7461 8.13205 32.393 8.13655C32.3032 8.13754 32.2685 8.1156 32.2705 8.01877C32.2765 7.72809 32.2727 7.4374 32.2726 7.14672C32.2726 7.09656 32.2666 7.04515 32.3252 7.02021C32.3374 7.02171 32.3498 7.02469 32.3621 7.02469C33.5186 7.02495 34.6754 7.0252 35.8319 7.0242C35.861 7.0242 35.8997 7.04316 35.9188 7.00024C35.9354 7.00024 35.9519 7.00024 35.9686 7.00024C35.9684 7.36579 35.9684 7.73158 35.9684 8.09737Z" fill="#1D1D1B"/>
<path d="M8.33118 16.6024C8.32794 16.5826 8.31321 16.5779 8.2965 16.5736C7.9347 16.4794 7.75654 16.2266 7.6984 15.874C7.66372 15.6634 7.66347 15.452 7.71762 15.244C7.84162 14.7667 8.25982 14.5079 8.76883 14.5915C8.80975 14.5982 8.85067 14.6054 8.89084 14.6152C9.19001 14.6881 9.18776 14.6873 9.07873 14.9702C9.05078 15.0428 9.02134 15.0745 8.94848 15.0262C8.93501 15.0172 8.91854 15.0122 8.90306 15.0062C8.44546 14.8228 8.14404 15.0137 8.11035 15.5075C8.10262 15.62 8.11035 15.7313 8.13106 15.842C8.18646 16.136 8.39007 16.2857 8.68725 16.2437C8.79354 16.2289 8.90132 16.2091 9.00188 16.1732C9.09644 16.1392 9.10144 16.174 9.10144 16.2523C9.10144 16.5389 9.09919 16.5437 8.80426 16.5781C8.78455 16.5803 8.76184 16.5749 8.75485 16.6024C8.61388 16.6024 8.47266 16.6024 8.33118 16.6024Z" fill="#20201E"/>
<path d="M35.9184 7C35.8995 7.04291 35.8608 7.02396 35.8315 7.02396C34.675 7.02495 33.5183 7.02471 32.3618 7.02445C32.3496 7.02445 32.3372 7.02171 32.3249 7.01997C32.3238 7.01323 32.3244 7.00648 32.3264 7C33.5238 7 34.7209 7 35.9184 7Z" fill="#C5C5C5"/>
<path d="M0.0197119 12.613L0.00948166 12.6157L0 12.6115C0 11.6553 0 10.6995 0 9.74324C0.00648746 9.73979 0.0134739 9.73934 0.0204604 9.74174C0.0219576 10.1974 0.0247022 10.6533 0.0247022 11.109C0.0244526 11.6104 0.0214585 12.1117 0.0197119 12.613Z" fill="#C5C5C5"/>
<path d="M0 7.07482C0.00748552 7.07308 0.0147215 7.07282 0.022207 7.07383C0.0219576 7.83934 0.021708 8.60485 0.0214585 9.37045L0.0107292 9.37194L0 9.3694C0 8.6044 0 7.83959 0 7.07482Z" fill="#C5C5C5"/>
<path d="M35.9684 8.09738C35.9684 7.73158 35.9684 7.36579 35.9683 7C36.0217 7.00997 35.9915 7.05115 35.9917 7.07485C35.9939 7.41569 35.9932 7.75654 35.9932 8.09738C35.9852 8.09738 35.9767 8.09738 35.9684 8.09738Z" fill="#C5C5C5"/>
<path d="M12.5205 7.02196C12.521 7.01471 12.5215 7.00723 12.5215 7C12.8708 7 13.2199 7 13.5692 7C13.5692 7.00748 13.5697 7.01471 13.5702 7.02196C13.2204 7.02196 12.8706 7.02196 12.5205 7.02196Z" fill="#C5C5C5"/>
<path d="M17.4095 7.02196C17.4101 7.01471 17.4106 7.00723 17.4106 7C17.7599 7 18.109 7 18.4583 7C18.4583 7.00774 18.4586 7.01546 18.4588 7.0232C18.109 7.02295 17.7592 7.02245 17.4095 7.02196Z" fill="#C5C5C5"/>
<path d="M30.9796 7C30.9786 7.00798 30.9789 7.01621 30.9798 7.02421C30.63 7.02271 30.2802 7.02121 29.9304 7.01971C29.9293 7.01297 29.9298 7.00648 29.9319 7C30.2812 7 30.6304 7 30.9796 7Z" fill="#C5C5C5"/>
<path d="M8.25476 7.02046C8.25476 7.01373 8.25527 7.00673 8.25626 7C8.38925 7 8.52226 7 8.65525 7C8.65624 7.00673 8.65674 7.01347 8.65674 7.02046C8.52275 7.02046 8.38876 7.02046 8.25476 7.02046Z" fill="#C5C5C5"/>
<path d="M10.6808 9.70623C10.8345 9.70623 10.9882 9.70833 11.1419 9.70548C11.2077 9.70428 11.2437 9.72528 11.2454 9.79593C11.2681 10.7471 10.9982 11.5754 10.2204 12.1782C9.82293 12.4865 9.35534 12.6264 8.85929 12.6728C8.30312 12.7247 7.75442 12.6908 7.23119 12.4775C6.41677 12.1455 5.9634 11.5083 5.73757 10.6839C5.65773 10.392 5.65174 10.094 5.66023 9.79443C5.66223 9.72828 5.68743 9.70608 5.74831 9.70623C6.05995 9.70698 6.37161 9.70833 6.68325 9.70533C6.76984 9.70458 6.77308 9.75288 6.77233 9.81753C6.76933 10.0716 6.77632 10.3253 6.86914 10.5662C7.07998 11.1131 7.46897 11.4509 8.05235 11.5472C8.40967 11.6061 8.76373 11.5865 9.10781 11.4639C9.72537 11.2436 10.1268 10.6716 10.1268 10.0152C10.1268 9.70653 10.1268 9.70653 10.4313 9.70653C10.5146 9.70623 10.5977 9.70623 10.6808 9.70623Z" fill="#1E1E1C"/>
<path d="M8.25475 7.02051C8.38875 7.02051 8.52274 7.02051 8.65674 7.02051C9.26206 7.0557 9.82747 7.2084 10.3048 7.60164C10.8285 8.03305 11.108 8.60425 11.2228 9.2629C11.248 9.4084 11.2362 9.41545 11.084 9.41545C10.8058 9.4156 10.5274 9.4144 10.2491 9.4162C10.1743 9.41665 10.1254 9.4012 10.1094 9.31435C9.97318 8.5762 9.40329 8.22193 8.75479 8.15158C8.39349 8.1124 8.03244 8.12762 7.6866 8.25686C7.19681 8.43952 6.89714 8.79085 6.79109 9.30115C6.77288 9.3889 6.74418 9.4186 6.65561 9.4171C6.36068 9.4126 6.06575 9.4144 5.77082 9.4162C5.6972 9.41665 5.65079 9.4051 5.66651 9.3121C5.77929 8.6449 6.04902 8.06149 6.576 7.6186C7.04585 7.22386 7.60328 7.06119 8.20536 7.02475C8.22183 7.02375 8.23828 7.02201 8.25475 7.02051Z" fill="#1E1E1C"/>
<path d="M0.0214844 9.37038C0.021734 8.60493 0.0219834 7.83938 0.022233 7.07386C0.0564169 7.0282 0.10632 7.04666 0.149237 7.04666C0.839153 7.04542 1.52907 7.04291 2.21899 7.04641C3.28393 7.05215 4.24906 7.81367 4.47587 8.82843C4.51105 8.98563 4.51954 9.14883 4.53974 9.30933C4.54898 9.38163 4.52029 9.41658 4.44293 9.41613C4.13528 9.41403 3.82787 9.41463 3.52022 9.41583C3.45535 9.41613 3.42391 9.39708 3.41992 9.32403C3.38198 8.59743 2.92861 8.13056 2.09572 8.13431C1.8255 8.13555 1.55527 8.13804 1.28529 8.13281C1.17475 8.13081 1.13009 8.16375 1.13234 8.28201C1.13907 8.61438 1.13184 8.94693 1.13633 9.27933C1.13782 9.37983 1.10963 9.41988 1.00234 9.41733C0.719884 9.41088 0.437181 9.41508 0.154477 9.41508C0.105322 9.41508 0.0534226 9.42303 0.0214844 9.37038Z" fill="#1E1E1C"/>
<path d="M14.218 12.6904C13.69 12.6904 13.1623 12.6879 12.6343 12.6924C12.5283 12.6934 12.4896 12.666 12.4904 12.5529C12.4946 11.6469 12.4941 10.7409 12.4909 9.8349C12.4906 9.7404 12.5101 9.7017 12.6134 9.70395C12.9001 9.7101 13.187 9.70995 13.4737 9.70395C13.5745 9.70185 13.6005 9.7404 13.6 9.8334C13.5972 10.3611 13.6027 10.8891 13.5957 11.4168C13.594 11.5416 13.6252 11.5806 13.7542 11.5795C14.4359 11.5732 15.1176 11.5788 15.7992 11.5746C15.9049 11.5738 15.9454 11.598 15.942 11.712C15.9337 11.9902 15.9334 12.2689 15.942 12.5472C15.9457 12.6684 15.8992 12.6931 15.7894 12.6924C15.2655 12.6879 14.7418 12.6904 14.218 12.6904Z" fill="#1D1D1B"/>
<path d="M29.8861 11.1898C29.8861 10.7376 29.8883 10.2852 29.8841 9.83277C29.8834 9.73947 29.9018 9.70107 30.0059 9.70347C30.3002 9.71052 30.5953 9.70902 30.8899 9.70422C30.9782 9.70272 31.0054 9.73512 31.0052 9.81897C31.0037 10.7406 31.0031 11.662 31.0057 12.5832C31.006 12.6745 30.968 12.6933 30.886 12.6922C30.5912 12.6885 30.2963 12.687 30.0019 12.693C29.9068 12.6948 29.8831 12.6637 29.8838 12.5722C29.8883 12.1111 29.8861 11.6505 29.8861 11.1898Z" fill="#1E1E1C"/>
<path d="M28.5352 11.2145C28.5352 11.6669 28.5329 12.1196 28.5373 12.572C28.5382 12.6643 28.5125 12.6944 28.4182 12.6928C28.1236 12.6872 27.8288 12.6884 27.5339 12.6922C27.4489 12.6932 27.4154 12.665 27.4154 12.578C27.4171 11.6522 27.4171 10.7267 27.4156 9.80109C27.4156 9.73194 27.4384 9.70479 27.509 9.70524C27.8161 9.70749 28.1233 9.70809 28.4305 9.70509C28.526 9.70404 28.5362 9.75639 28.5358 9.83259C28.5343 10.2931 28.5352 10.7537 28.5352 11.2145Z" fill="#1E1E1C"/>
<path d="M4.53975 11.2283C4.53975 11.6726 4.53651 12.1171 4.542 12.5612C4.54324 12.6667 4.50981 12.6952 4.40751 12.6929C4.11683 12.6866 3.82614 12.6881 3.53544 12.6922C3.44811 12.6934 3.41993 12.6625 3.42017 12.5767C3.42216 11.6672 3.42216 10.7576 3.42017 9.84846C3.41993 9.76506 3.45137 9.74136 3.5307 9.74211C3.82563 9.74541 4.12056 9.74781 4.41525 9.74106C4.51781 9.73881 4.54249 9.77511 4.5415 9.87006C4.53775 10.3231 4.53975 10.7756 4.53975 11.2283Z" fill="#1E1E1C"/>
<path d="M18.4952 11.2031C18.4952 11.6558 18.4922 12.1086 18.4974 12.5612C18.4988 12.6665 18.4653 12.695 18.3627 12.6924C18.0762 12.686 17.7893 12.686 17.5029 12.6924C17.4018 12.6947 17.3789 12.6618 17.3792 12.5649C17.3826 11.6513 17.3826 10.7372 17.3793 9.82353C17.3792 9.73038 17.4048 9.70203 17.4984 9.70368C17.7933 9.70923 18.0882 9.70848 18.3831 9.70428C18.4715 9.70293 18.4973 9.73368 18.4967 9.81978C18.4935 10.2812 18.4952 10.7423 18.4952 11.2031Z" fill="#1D1D1B"/>
<path d="M21.1273 11.203C21.1273 11.6599 21.1248 12.1168 21.1293 12.5737C21.1302 12.6682 21.1008 12.6941 21.0087 12.6925C20.718 12.6872 20.4271 12.6881 20.1364 12.6919C20.0551 12.6929 20.016 12.676 20.0161 12.5842C20.0184 11.6662 20.0179 10.7482 20.0172 9.8302C20.0172 9.7432 20.0478 9.70315 20.142 9.70465C20.4283 9.709 20.7153 9.709 21.0018 9.70465C21.0973 9.70315 21.1308 9.7312 21.1294 9.83215C21.124 10.289 21.1273 10.7462 21.1273 11.203Z" fill="#1D1D1B"/>
<path d="M24.831 11.2031C24.831 11.6559 24.8279 12.1088 24.8333 12.5616C24.8346 12.6677 24.8006 12.6951 24.6986 12.6929C24.4119 12.6867 24.1251 12.6876 23.8385 12.6924C23.7462 12.6939 23.7152 12.6638 23.7158 12.5711C23.7182 11.6529 23.7185 10.7346 23.7155 9.81617C23.7152 9.72587 23.747 9.70367 23.8313 9.70487C24.1221 9.70892 24.4131 9.70997 24.7038 9.70442C24.8016 9.70262 24.834 9.73157 24.8331 9.83162C24.8283 10.2888 24.831 10.7459 24.831 11.2031Z" fill="#1D1D1B"/>
<path d="M33.5946 11.2027C33.5946 10.7416 33.5967 10.2808 33.5929 9.81973C33.5922 9.73333 33.6174 9.70318 33.7051 9.70438C33.9958 9.70858 34.2868 9.70843 34.5775 9.70438C34.6716 9.70318 34.6984 9.74008 34.6983 9.82993C34.6971 10.5732 34.6992 11.3166 34.7005 12.0601C34.7007 12.2344 34.698 12.4089 34.7014 12.5833C34.7029 12.6609 34.6803 12.6931 34.5957 12.6919C34.2967 12.6874 33.9976 12.6876 33.6987 12.6919C33.6166 12.6931 33.5923 12.6669 33.5931 12.5856C33.5964 12.1248 33.5946 11.6638 33.5946 11.2027Z" fill="#1D1D1B"/>
<path d="M0.0197754 12.6131C0.021522 12.1118 0.0245163 11.6106 0.0247657 11.1094C0.0250152 10.6537 0.022021 10.1979 0.0205239 9.74216C0.0407348 9.69701 0.0821547 9.70705 0.117836 9.70705C0.421 9.7063 0.724413 9.709 1.02758 9.7051C1.11017 9.70405 1.13587 9.73375 1.13587 9.8131C1.13437 10.7229 1.13437 11.6323 1.13562 12.542C1.13562 12.6107 1.12239 12.6508 1.04055 12.65C0.728904 12.647 0.417506 12.6491 0.105859 12.6485C0.0729225 12.6484 0.0379901 12.6503 0.0197754 12.6131Z" fill="#1D1D1B"/>
<path d="M29.9304 7.01978C30.2804 7.02128 30.6302 7.02278 30.98 7.02428C31.0158 7.06245 31.0041 7.11036 31.0041 7.15452C31.0049 7.85991 31.0022 8.5651 31.0071 9.2704C31.0079 9.38665 30.9717 9.4207 30.8577 9.4177C30.5757 9.41035 30.2933 9.4117 30.0113 9.4171C29.9118 9.4192 29.8838 9.3844 29.8844 9.28765C29.8878 8.57005 29.8859 7.85217 29.8868 7.13431C29.8868 7.09264 29.8667 7.03899 29.9304 7.01978Z" fill="#1F1F1D"/>
<path d="M12.5204 7.02197C12.8703 7.02197 13.2201 7.02197 13.5702 7.02197C13.6138 7.05691 13.5973 7.10606 13.5973 7.14922C13.5986 7.85934 13.5966 8.56944 13.6001 9.27939C13.6006 9.38019 13.5734 9.41934 13.4673 9.41709C13.1809 9.41109 12.8942 9.41364 12.6078 9.41604C12.5269 9.41679 12.49 9.39594 12.4905 9.30384C12.494 8.57724 12.4922 7.85036 12.493 7.12378C12.493 7.08835 12.4803 7.04743 12.5204 7.02197Z" fill="#1D1D1B"/>
<path d="M17.4095 7.02197C17.7593 7.02247 18.109 7.02272 18.4588 7.02322C18.5033 7.05541 18.4952 7.10356 18.4952 7.14848C18.4954 7.86334 18.4942 8.57799 18.4967 9.29289C18.4969 9.38319 18.47 9.41829 18.3758 9.41679C18.085 9.41229 17.794 9.41334 17.5031 9.41634C17.4136 9.41739 17.3791 9.38709 17.3795 9.29304C17.3825 8.57004 17.381 7.84688 17.3818 7.12378C17.3818 7.08835 17.369 7.04743 17.4095 7.02197Z" fill="#1D1D1B"/>
<path d="M27.0259 15.4092C27.1541 15.1554 27.275 14.9199 27.3914 14.6822C27.4187 14.6267 27.4501 14.6022 27.514 14.6052C27.6331 14.6108 27.7525 14.6067 27.8888 14.6067C27.7348 14.8907 27.5996 15.17 27.4366 15.4317C27.2819 15.6807 27.2038 15.9374 27.2365 16.2294C27.2468 16.3197 27.2357 16.412 27.239 16.5032C27.241 16.5573 27.2224 16.5762 27.1676 16.574C27.0724 16.5702 26.9765 16.5699 26.8813 16.574C26.8234 16.5765 26.8114 16.5506 26.813 16.5002C26.8159 16.4213 26.8057 16.3415 26.8153 16.2636C26.8535 15.9537 26.7662 15.6819 26.6035 15.4187C26.4454 15.1626 26.3143 14.8898 26.1619 14.6066C26.3108 14.6066 26.4448 14.6075 26.579 14.606C26.6417 14.6055 26.6477 14.6589 26.6669 14.6963C26.7856 14.9286 26.902 15.1619 27.0259 15.4092Z" fill="#20201E"/>
<path d="M20.3578 15.7675C20.3578 15.5353 20.3544 15.3026 20.3596 15.0706C20.3616 14.987 20.3431 14.9516 20.2518 14.9584C20.1402 14.9666 20.0275 14.9555 19.9159 14.9618C19.8423 14.9659 19.8288 14.9377 19.828 14.8705C19.8253 14.6068 19.8231 14.6068 20.0898 14.6068C20.4591 14.6068 20.8284 14.6098 21.1977 14.6048C21.2865 14.6035 21.3195 14.6195 21.3169 14.7181C21.3108 14.9603 21.3165 14.9606 21.0789 14.9606C20.782 14.9606 20.782 14.9606 20.782 15.254C20.782 15.6565 20.7801 16.0589 20.7837 16.4614C20.7844 16.5425 20.7712 16.5764 20.6779 16.576C20.3578 16.574 20.3578 16.5779 20.3578 16.2533C20.3578 16.0915 20.3578 15.9295 20.3578 15.7675Z" fill="#1F1F1D"/>
<path d="M14.313 15.5804C14.313 15.2856 14.315 14.9912 14.3115 14.6966C14.3108 14.6283 14.3265 14.606 14.3991 14.6046C14.7377 14.5989 14.7375 14.5965 14.7375 14.9313C14.7375 15.4416 14.7357 15.9521 14.7392 16.4623C14.7397 16.5462 14.722 16.576 14.6312 16.5756C14.3128 16.5738 14.3128 16.5775 14.3128 16.2646C14.313 16.0367 14.313 15.8087 14.313 15.5804Z" fill="#21211F"/>
</svg>
