<svg width="36" height="24" viewBox="0 0 36 24" fill="none" xmlns="http://www.w3.org/2000/svg">
<path d="M8.3172 15.1938H10.198V17.4334C9.92629 17.6312 9.63859 17.7782 9.33221 17.8664C9.02584 17.9572 8.70615 18 8.37311 18C7.93886 18 7.54192 17.9305 7.18492 17.7942C6.82796 17.6579 6.52159 17.4681 6.2685 17.2276C6.01541 16.9871 5.81827 16.7011 5.67971 16.3697C5.54119 16.0383 5.47192 15.6776 5.47192 15.29C5.47192 14.8945 5.53852 14.531 5.66906 14.1996C5.7996 13.8682 5.98609 13.5822 6.22852 13.3417C6.47096 13.1012 6.76669 12.9141 7.11034 12.7805C7.45402 12.6469 7.84031 12.5801 8.26657 12.5801C8.48767 12.5801 8.69284 12.5988 8.88731 12.6335C9.08179 12.6709 9.26029 12.719 9.42277 12.7832C9.5853 12.8473 9.73447 12.9221 9.87034 13.0077C10.0062 13.0959 10.1261 13.1894 10.2327 13.2909L9.87836 13.8335C9.82241 13.919 9.75045 13.9698 9.66255 13.9911C9.57465 14.0099 9.47872 13.9885 9.37751 13.9244C9.28159 13.8656 9.18832 13.8148 9.10309 13.772C9.01785 13.7292 8.92991 13.6945 8.83935 13.6678C8.74875 13.641 8.65552 13.6223 8.55694 13.609C8.45839 13.5956 8.34649 13.5903 8.22394 13.5903C7.99481 13.5903 7.78702 13.6304 7.6032 13.7132C7.41937 13.7934 7.26221 13.9083 7.13434 14.058C7.00376 14.205 6.90521 14.384 6.83595 14.5925C6.76669 14.801 6.73204 15.0308 6.73204 15.2847C6.73204 15.5653 6.77201 15.8165 6.84926 16.0356C6.92651 16.2548 7.03575 16.4392 7.17694 16.5889C7.31816 16.7385 7.48864 16.8534 7.68577 16.9336C7.88295 17.0111 8.10139 17.0512 8.34116 17.0512C8.48767 17.0512 8.62354 17.0379 8.74342 17.0085C8.86331 16.9791 8.98054 16.9416 9.09244 16.8909V16.0864H8.57029C8.493 16.0864 8.43172 16.065 8.38912 16.025C8.34649 15.9849 8.32252 15.9314 8.32252 15.8673V15.1938H8.3172ZM15.6834 17.9412H14.7323C14.6258 17.9412 14.5405 17.9171 14.4739 17.8664C14.4073 17.8156 14.3593 17.7541 14.3247 17.6739L14.013 16.7492H12.0016L11.6926 17.6766C11.6659 17.7434 11.618 17.8049 11.5487 17.861C11.4795 17.9145 11.3942 17.9439 11.293 17.9439H10.3339L12.3799 12.6389H13.6374L15.6834 17.9412ZM13.7359 15.9154L13.2457 14.4642C13.2085 14.3733 13.1712 14.2638 13.1286 14.1381C13.0886 14.0126 13.0459 13.8789 13.006 13.7319C12.9687 13.8789 12.9314 14.0179 12.8888 14.1435C12.8488 14.2691 12.8088 14.3787 12.7716 14.4722L12.2893 15.9154H13.7359ZM22.0453 12.6389V17.9439H20.9637V14.8918C20.9637 14.8223 20.9663 14.7448 20.969 14.662C20.9716 14.5791 20.9796 14.4963 20.9876 14.4108L19.5837 17.1368C19.541 17.2223 19.4824 17.2864 19.4078 17.3292C19.3332 17.3719 19.2507 17.396 19.1547 17.396H18.9869C18.8937 17.396 18.8084 17.3746 18.7338 17.3292C18.6592 17.2864 18.6006 17.2223 18.558 17.1368L17.154 14.4027C17.162 14.4909 17.1673 14.5764 17.1726 14.6593C17.178 14.7422 17.1806 14.8197 17.1806 14.8891V17.9385H16.099V12.6389H17.0341C17.0874 12.6389 17.1327 12.6389 17.1726 12.6415C17.2126 12.6442 17.2473 12.6522 17.2792 12.6629C17.3112 12.6736 17.3378 12.695 17.3644 12.719C17.3911 12.7458 17.4151 12.7805 17.4391 12.8259L18.8058 15.5172C18.8537 15.6107 18.9016 15.7043 18.9443 15.8058C18.9895 15.9047 19.0322 16.0062 19.0722 16.1105C19.1121 16.0036 19.1574 15.8994 19.2 15.7978C19.2453 15.6962 19.2933 15.6 19.3439 15.5065L20.6999 12.8259C20.7239 12.7805 20.7479 12.7431 20.7745 12.719C20.8011 12.6923 20.8278 12.6736 20.8597 12.6629C20.8917 12.6495 20.9263 12.6442 20.9663 12.6415C21.0063 12.6389 21.0516 12.6389 21.1048 12.6389H22.0453ZM24.3018 13.5849V14.8223H25.9642V15.7337H24.3018V16.9978H26.473V17.9439H23.0683V12.6389H26.473V13.5849H24.3018ZM30.1495 13.7159C30.1122 13.7747 30.0749 13.8174 30.0349 13.8468C29.995 13.8762 29.9443 13.8896 29.8804 13.8896C29.8245 13.8896 29.7658 13.8709 29.7019 13.8362C29.638 13.8014 29.566 13.7613 29.4835 13.7186C29.4035 13.6758 29.3103 13.6357 29.2064 13.601C29.1025 13.5662 28.9826 13.5475 28.8494 13.5475C28.6203 13.5475 28.4471 13.5956 28.3352 13.6945C28.2233 13.7934 28.1674 13.9244 28.1674 14.0927C28.1674 14.1996 28.202 14.2878 28.2686 14.3573C28.3352 14.4268 28.4258 14.4882 28.535 14.539C28.6443 14.5898 28.7721 14.6379 28.9133 14.678C29.0546 14.7208 29.1984 14.7689 29.3476 14.8197C29.4941 14.8731 29.6406 14.9319 29.7818 15.0041C29.923 15.0735 30.0483 15.1644 30.1601 15.274C30.2694 15.3836 30.36 15.5172 30.4266 15.6722C30.4932 15.8299 30.5278 16.017 30.5278 16.2388C30.5278 16.4846 30.4852 16.7145 30.3999 16.9256C30.3147 17.1394 30.1921 17.3265 30.0322 17.4842C29.8724 17.6418 29.6726 17.7675 29.4382 17.8583C29.2011 17.9492 28.9347 17.9946 28.6336 17.9946C28.4684 17.9946 28.3006 17.9786 28.1301 17.9439C27.9596 17.9091 27.7944 17.861 27.6346 17.7995C27.4747 17.7381 27.3255 17.6633 27.1843 17.5804C27.0431 17.4949 26.9206 17.4013 26.8167 17.2971L27.179 16.7225C27.2083 16.6824 27.2456 16.6477 27.2935 16.6183C27.3415 16.5915 27.3921 16.5755 27.4481 16.5755C27.52 16.5755 27.5946 16.5996 27.6665 16.645C27.7411 16.6904 27.8237 16.7412 27.9169 16.7973C28.0102 16.8534 28.1168 16.9042 28.2393 16.9497C28.3592 16.9951 28.5031 17.0192 28.6682 17.0192C28.892 17.0192 29.0625 16.971 29.1877 16.8722C29.3103 16.7733 29.3716 16.6183 29.3716 16.4045C29.3716 16.2815 29.3369 16.18 29.2703 16.1025C29.2037 16.025 29.1132 15.9608 29.0039 15.9101C28.8947 15.8593 28.7695 15.8138 28.6283 15.7764C28.4871 15.7363 28.3432 15.6936 28.1967 15.6482C28.0502 15.6 27.9063 15.5439 27.7651 15.4744C27.6239 15.4049 27.4987 15.3141 27.3895 15.2018C27.2802 15.0896 27.1897 14.9479 27.1231 14.7795C27.0565 14.6112 27.0218 14.4027 27.0218 14.1542C27.0218 13.9564 27.0618 13.7613 27.1417 13.5716C27.2216 13.3818 27.3388 13.2134 27.4934 13.0665C27.6479 12.9195 27.837 12.7992 28.0635 12.711C28.2873 12.6228 28.5457 12.5774 28.8361 12.5774C28.9986 12.5774 29.1558 12.5907 29.3103 12.6148C29.4648 12.6389 29.6086 12.6789 29.7472 12.7271C29.8857 12.7778 30.0136 12.8366 30.1335 12.9061C30.2534 12.9756 30.36 13.0531 30.4558 13.1413L30.1495 13.7159Z" fill="#15161A"/>
<path d="M1.94479 6.05612C2.30977 6.05612 2.62147 6.09087 2.87722 6.15768C3.13297 6.22449 3.34346 6.3207 3.50595 6.44631C3.66847 6.57192 3.7857 6.72159 3.86029 6.89797C3.93488 7.07436 3.97219 7.27213 3.97219 7.49128C3.97219 7.61154 3.95618 7.72379 3.92156 7.83604C3.88691 7.94561 3.83363 8.04984 3.7617 8.14605C3.68978 8.24226 3.59655 8.33047 3.48199 8.41065C3.36742 8.49082 3.23156 8.56031 3.0717 8.61907C3.42071 8.70461 3.67646 8.84092 3.84431 9.03067C4.01212 9.22042 4.09474 9.46627 4.09474 9.7656C4.09474 9.99011 4.0521 10.2012 3.9642 10.3963C3.87626 10.5914 3.74839 10.7598 3.58054 10.9041C3.41272 11.0484 3.2049 11.1607 2.95714 11.2435C2.70938 11.3237 2.42966 11.3665 2.11264 11.3665H0V6.05612H1.94479ZM1.2255 6.97815V8.28769H1.86487C2.00074 8.28769 2.12329 8.277 2.23252 8.25829C2.34176 8.23959 2.43499 8.20485 2.50957 8.15674C2.58682 8.10864 2.64277 8.04182 2.68275 7.9563C2.72272 7.87078 2.74136 7.76388 2.74136 7.6356C2.74136 7.50999 2.72539 7.40576 2.6934 7.32024C2.66145 7.23739 2.61349 7.1679 2.54955 7.11712C2.48295 7.06635 2.40034 7.02893 2.30179 7.00755C2.20054 6.98617 2.08331 6.97548 1.94479 6.97548H1.2255V6.97815ZM2.08864 10.4337C2.25116 10.4337 2.38436 10.4124 2.48561 10.3723C2.58949 10.3322 2.66944 10.2787 2.72805 10.2119C2.78666 10.1451 2.8266 10.0729 2.84794 9.99011C2.86924 9.90727 2.87989 9.8244 2.87989 9.7389C2.87989 9.64267 2.86657 9.55447 2.84261 9.47696C2.81595 9.39949 2.77331 9.33266 2.71204 9.27922C2.65076 9.22575 2.56819 9.18566 2.46697 9.15626C2.36573 9.12686 2.23785 9.11351 2.08331 9.11351H1.2255V10.4337H2.08864ZM22.6236 6.05612V11.3611H21.5419V8.31176C21.5419 8.24226 21.5446 8.16476 21.5472 8.08191C21.5499 7.99906 21.5579 7.91621 21.5659 7.83069L20.1619 10.5567C20.1193 10.6422 20.0607 10.7064 19.9861 10.7491C19.9115 10.7919 19.8289 10.8159 19.733 10.8159H19.5652C19.4719 10.8159 19.3867 10.7946 19.3121 10.7491C19.2375 10.7064 19.1789 10.6422 19.1362 10.5567L17.7323 7.82268C17.7402 7.91087 17.7456 7.99639 17.7509 8.07924C17.7563 8.16209 17.7589 8.23959 17.7589 8.30906V11.3584H16.6773V6.05612H17.6124C17.6656 6.05612 17.711 6.05612 17.7509 6.0588C17.7909 6.06147 17.8255 6.06949 17.8575 6.08017C17.8895 6.09354 17.9161 6.11225 17.9427 6.1363C17.9694 6.16302 17.9933 6.19777 18.0173 6.2432L19.3787 8.93445C19.4266 9.02797 19.4746 9.12154 19.5172 9.22309C19.5625 9.32197 19.6051 9.42352 19.6451 9.52777C19.6851 9.42086 19.7303 9.31661 19.773 9.21506C19.8183 9.11351 19.8662 9.01729 19.9168 8.92376L21.2729 6.2432C21.2968 6.19777 21.3208 6.16035 21.3474 6.1363C21.3741 6.10958 21.4007 6.09087 21.4327 6.08017C21.4647 6.06681 21.4993 6.06147 21.5393 6.0588C21.5792 6.05612 21.6245 6.05612 21.6778 6.05612H22.6236ZM24.8827 11.3611H23.6492V6.05612H24.8827V11.3611ZM30.5199 6.05612V11.3611H29.8806C29.7873 11.3611 29.7074 11.3451 29.6435 11.3157C29.5795 11.2863 29.5156 11.2328 29.4516 11.158L26.958 7.99372C26.9687 8.08726 26.974 8.1808 26.9767 8.26897C26.9793 8.35717 26.982 8.44005 26.982 8.51752V11.3611H25.9004V6.05612H26.5451C26.5984 6.05612 26.6437 6.0588 26.6783 6.06414C26.7156 6.06949 26.7476 6.07751 26.7769 6.09087C26.8062 6.10423 26.8328 6.12294 26.8595 6.14699C26.8861 6.17104 26.9154 6.20312 26.9501 6.24587L29.4649 9.43155C29.4516 9.33 29.4436 9.23111 29.4383 9.13489C29.433 9.0387 29.4303 8.9478 29.4303 8.86496V6.0588H30.5199V6.05612ZM34.0845 8.61375H35.9655V10.8533C35.6936 11.0511 35.406 11.1981 35.0996 11.2863C34.7933 11.3772 34.4734 11.4199 34.1404 11.4199C33.7061 11.4199 33.3094 11.3504 32.9523 11.2141C32.5953 11.0778 32.2889 10.8881 32.0358 10.6476C31.7827 10.407 31.5856 10.1211 31.4471 9.78967C31.3085 9.45829 31.2393 9.09746 31.2393 8.70997C31.2393 8.31442 31.3059 7.95096 31.4364 7.61956C31.5669 7.28817 31.7534 7.0022 31.9959 6.76167C32.2383 6.52114 32.534 6.33407 32.8777 6.20044C33.2212 6.06681 33.6075 6 34.0339 6C34.2551 6 34.4603 6.01871 34.6545 6.05345C34.8491 6.09087 35.0276 6.13897 35.19 6.20311C35.3527 6.26725 35.502 6.34209 35.6377 6.42761C35.7735 6.5158 35.8935 6.60934 36 6.71089L35.6456 7.2561C35.5897 7.34162 35.5177 7.3924 35.43 7.41378C35.3419 7.43248 35.2459 7.4111 35.145 7.34696C35.049 7.28817 34.9556 7.23739 34.8705 7.19463C34.785 7.15186 34.6973 7.11712 34.6065 7.0904C34.5161 7.06367 34.4227 7.04496 34.3241 7.0316C34.2259 7.01824 34.1138 7.01289 33.9911 7.01289C33.762 7.01289 33.5542 7.05298 33.3705 7.13583C33.1867 7.21601 33.0296 7.33093 32.9016 7.48059C32.7711 7.62758 32.6726 7.80664 32.6033 8.0151C32.534 8.22356 32.4994 8.4534 32.4994 8.70727C32.4994 8.98789 32.5393 9.23914 32.6166 9.45829C32.6939 9.67744 32.8031 9.86182 32.9443 10.0115C33.0855 10.1611 33.2561 10.2761 33.453 10.3563C33.6502 10.4337 33.8689 10.4738 34.1085 10.4738C34.2551 10.4738 34.3909 10.4605 34.5109 10.4311C34.6305 10.4017 34.7479 10.3642 34.8596 10.3135V9.50906H34.3376C34.2604 9.50906 34.1992 9.48769 34.1565 9.4476C34.1138 9.40751 34.0897 9.35404 34.0897 9.28991V8.61375H34.0845ZM14.8843 8.97187C14.7351 9.78165 14.0318 10.3669 13.2113 10.3669H13.174C13.0541 10.3642 12.9262 10.3669 12.6065 10.2306C12.2895 10.0943 12.2202 10.0141 11.9885 9.83242C11.8553 9.72821 11.6634 9.52777 11.4743 9.3594C11.2878 9.5625 10.8642 10.0329 10.8269 10.0703C10.9894 10.2467 11.3864 10.5941 11.5462 10.717L11.5223 10.6957C11.8739 10.9896 12.3028 11.1954 12.7744 11.2729C12.9209 11.297 13.0488 11.3077 13.1713 11.3077C13.3045 11.3077 13.4137 11.3023 13.531 11.289C14.5833 11.1607 15.4651 10.4097 15.7528 9.38077L14.8843 8.97187Z" fill="#EB1B23"/>
<path d="M11.9274 7.53925C12.2391 7.17846 12.6973 6.95129 13.2088 6.95129C13.6084 6.95129 13.984 7.09027 14.2824 7.33347L13.8775 7.62478L15.745 8.48535L15.5532 6.43282L15.071 6.77491C14.5835 6.28583 13.9201 6.00789 13.2115 6.00789C12.3936 6.00789 11.6636 6.38205 11.1787 6.97V6.97268C11.1601 6.99673 9.69753 8.79 9.09543 9.38333C9.06345 9.41539 9.02883 9.44479 8.99418 9.47419C8.98886 9.47951 8.98087 9.48488 8.97555 9.4902C8.93291 9.52763 8.89031 9.56505 8.84767 9.59978C8.83968 9.6078 8.82903 9.61583 8.82101 9.62115C8.78107 9.65325 8.7411 9.68531 8.70382 9.71472C8.69313 9.72274 8.68248 9.73073 8.6745 9.73875C8.64787 9.76013 8.62121 9.77884 8.59725 9.79755C8.5866 9.80558 8.57595 9.8136 8.56792 9.82159C8.55727 9.82961 8.54662 9.83764 8.53597 9.843C8.50132 9.86704 8.46671 9.89108 8.43472 9.91515C8.42407 9.92318 8.41608 9.9285 8.40543 9.93387L8.30951 9.99799C8.30152 10.0034 8.29353 10.0087 8.28288 10.014C8.25356 10.0328 8.22693 10.0488 8.20027 10.0648C8.18962 10.0701 8.17897 10.0782 8.16832 10.0835C8.1417 10.0995 8.1177 10.1129 8.09373 10.1263C7.9179 10.2225 7.77138 10.284 7.64883 10.3214C7.52628 10.3588 7.43036 10.3775 7.23588 10.3775C6.2928 10.3321 5.54685 9.51428 5.61877 8.54411C5.68005 7.70495 6.36472 7.02613 7.20123 6.97C7.73673 6.93526 8.2083 7.1651 8.55993 7.50986C8.61855 7.56598 9.09543 8.08178 9.19665 8.20739C9.37781 8.0123 9.81206 7.49917 9.82807 7.48046C9.7428 7.36821 9.38313 6.98871 9.35917 6.96199C8.84767 6.38739 8.10971 6.01323 7.28118 6.02392C5.90385 6.04263 4.75293 7.14639 4.67835 8.52544C4.59843 9.99533 5.71736 11.2247 7.13996 11.3209C7.19058 11.3236 7.41705 11.3316 7.53693 11.3182C7.65948 11.3049 7.76872 11.2781 7.86195 11.2568C8.01112 11.222 8.163 11.1419 8.16566 11.1419C8.17365 11.1392 8.18163 11.1338 8.18962 11.1312C8.21895 11.1178 8.2509 11.1044 8.28288 11.0884C8.2962 11.0831 8.31217 11.075 8.32548 11.067C8.35747 11.051 8.39212 11.0349 8.42673 11.0162C8.44005 11.0109 8.4507 11.0029 8.46405 10.9975C8.55727 10.9467 8.65852 10.8906 8.75973 10.8265C8.77308 10.8185 8.78906 10.8078 8.80237 10.7998C8.83968 10.7757 8.87696 10.7517 8.91693 10.7249C8.93291 10.7142 8.95158 10.7009 8.97022 10.6902C9.0075 10.6635 9.04747 10.6367 9.08745 10.6073C9.10342 10.594 9.1194 10.5833 9.13807 10.5699C9.17801 10.5405 9.21798 10.5084 9.25792 10.479C9.26861 10.4711 9.27926 10.463 9.28725 10.455C9.29523 10.4496 9.30056 10.4443 9.30855 10.439C9.36716 10.3935 9.42577 10.3428 9.48705 10.292C9.50036 10.2813 9.51637 10.2679 9.52968 10.2546C9.57498 10.2145 9.62291 10.1744 9.67087 10.1316C9.69217 10.1129 9.71085 10.0942 9.73215 10.0782C9.74013 10.0701 9.75078 10.0622 9.75877 10.0541C9.79342 10.0221 9.82807 9.98996 9.86535 9.95524C9.88668 9.93653 10.4195 9.41269 10.7791 8.97443C11.1388 8.53613 11.5278 8.01229 11.9274 7.53925Z" fill="#EB1B23"/>
</svg>
