<svg width="36" height="24" viewBox="0 0 36 24" fill="none" xmlns="http://www.w3.org/2000/svg">
<path d="M12.2798 21.4498C12.2798 21.6118 12.2798 21.8903 12.0711 21.9878C11.9884 22.0255 11.8841 22.0303 11.8 22.0208V21.7644C11.8109 21.7676 11.8204 21.7707 11.8366 21.7707C11.88 21.7707 11.9369 21.7565 11.9694 21.6905C11.9884 21.6543 11.9992 21.6103 11.9992 21.4215V20.3439H12.2798V21.4498Z" fill="black"/>
<path d="M13.8693 21.0503C13.8693 21.1525 13.8679 21.3161 13.7717 21.4514C13.6565 21.6119 13.4722 21.6606 13.3001 21.6606C13.2134 21.6606 12.979 21.6575 12.8286 21.4294C12.7838 21.3602 12.7432 21.2689 12.7432 21.0597V20.3424H13.0264V20.9873C13.0264 21.0408 13.0264 21.1163 13.0454 21.1903C13.082 21.335 13.1944 21.3995 13.3056 21.3995C13.4682 21.3995 13.5441 21.2752 13.5671 21.2091C13.5861 21.1525 13.5861 21.1022 13.5861 20.9873V20.3424H13.8693V21.0503Z" fill="black"/>
<path d="M15.0889 20.6931C15.0116 20.649 14.8721 20.5672 14.7284 20.5672C14.5644 20.5672 14.559 20.66 14.559 20.6742C14.559 20.7529 14.6688 20.7985 14.83 20.8645C14.971 20.9243 15.139 21.0234 15.139 21.2751C15.139 21.5772 14.868 21.6605 14.7 21.6605C14.5116 21.6605 14.3314 21.5583 14.3043 21.5347V21.2547C14.4005 21.3255 14.5292 21.4167 14.6932 21.4167C14.7298 21.4167 14.8612 21.4151 14.8612 21.2987C14.8612 21.2122 14.7975 21.1855 14.6498 21.1273C14.4886 21.0628 14.2853 20.9715 14.2853 20.6962C14.2853 20.498 14.4289 20.3265 14.7094 20.3265C14.7975 20.3265 14.91 20.3376 15.0889 20.4272V20.6931Z" fill="black"/>
<path d="M16.5686 20.5862H16.1648V21.6433H15.8802V20.5862H15.4737V20.3424H16.5686V20.5862Z" fill="black"/>
<path d="M18.1094 20.3424C18.1812 20.3424 18.2855 20.3424 18.4129 20.3943C18.501 20.4305 18.7707 20.5893 18.7707 20.9921C18.7707 21.1211 18.7422 21.3932 18.4983 21.5474C18.3912 21.615 18.2828 21.6449 18.0877 21.6449H17.6527V20.3439H18.1094V20.3424ZM17.9359 20.5909V21.3963H18.0498C18.2056 21.3963 18.2503 21.3806 18.2964 21.3586C18.4102 21.302 18.4834 21.1761 18.4834 20.9905C18.4834 20.8489 18.4387 20.6947 18.295 20.6255C18.2218 20.5909 18.1541 20.5909 18.0782 20.5909H17.9359Z" fill="black"/>
<path d="M19.7694 21.6606C19.3818 21.6606 19.1298 21.3349 19.1298 20.9952C19.1298 20.6915 19.3466 20.325 19.7748 20.325C20.1705 20.325 20.4171 20.6554 20.4171 20.9952C20.4171 21.2972 20.2044 21.6606 19.7694 21.6606ZM19.7721 20.6019C19.5715 20.6019 19.4211 20.7435 19.4211 21.0014C19.4211 21.3129 19.6406 21.3979 19.7748 21.3979C19.9537 21.3979 20.1285 21.261 20.1285 21.003C20.1271 20.7608 19.9916 20.6019 19.7721 20.6019Z" fill="black"/>
<path d="M22.5256 20.5862H22.1205V21.6433H21.8359V20.5862H21.4294V20.3424H22.5243V20.5862H22.5256Z" fill="black"/>
<path d="M24.042 21.6433H23.7601V21.1163H23.2045V21.6433H22.9213V20.3424H23.2045V20.8646H23.7601V20.3424H24.042V21.6433Z" fill="black"/>
<path d="M25.347 21.6433H24.5203V20.3424H25.3361V20.5846H24.8036V20.8473H25.3117V21.0912H24.8036V21.4042H25.347V21.6433Z" fill="black"/>
<path d="M26.9026 20.3423C26.9839 20.3423 27.0449 20.3423 27.1208 20.3674C27.2671 20.4178 27.3349 20.553 27.3349 20.6663C27.3349 20.7591 27.2875 20.8661 27.1831 20.9274C27.2427 20.9479 27.4203 21.014 27.4203 21.2625C27.4203 21.3774 27.3837 21.5016 27.2604 21.5803C27.1845 21.6306 27.1181 21.6416 26.9907 21.6416H26.4744V20.3407H26.9026V20.3423ZM26.759 20.5751V20.8598H26.8647C26.9284 20.8598 27.053 20.8598 27.053 20.7167C27.053 20.5751 26.9297 20.5751 26.8687 20.5751H26.759ZM26.759 21.0942V21.4072H26.8972C26.9948 21.4072 27.133 21.4072 27.133 21.2531C27.133 21.0942 27.0002 21.0942 26.885 21.0942H26.759Z" fill="black"/>
<path d="M28.6778 21.6433H27.8512V20.3424H28.6669V20.5846H28.1344V20.8473H28.6425V21.0912H28.1344V21.4042H28.6778V21.6433Z" fill="black"/>
<path d="M29.8689 20.6931C29.7917 20.649 29.6521 20.5672 29.5085 20.5672C29.3445 20.5672 29.3391 20.66 29.3391 20.6742C29.3391 20.7529 29.4488 20.7985 29.6101 20.8645C29.751 20.9243 29.9191 21.0234 29.9191 21.2751C29.9191 21.5772 29.648 21.6605 29.48 21.6605C29.2903 21.6605 29.1114 21.5583 29.0843 21.5347V21.2547C29.1819 21.3255 29.3093 21.4167 29.4732 21.4167C29.5098 21.4167 29.6413 21.4151 29.6413 21.2987C29.6413 21.2122 29.5776 21.1855 29.4299 21.1273C29.2686 21.0628 29.0653 20.9715 29.0653 20.6962C29.0653 20.498 29.2076 20.3265 29.4895 20.3265C29.5776 20.3265 29.69 20.3376 29.8689 20.4272V20.6931Z" fill="black"/>
<path d="M31.35 20.5862H30.9449V21.6433H30.6603V20.5862H30.2538V20.3424H31.3487V20.5862H31.35Z" fill="black"/>
<path d="M8.01828 3.37922C8.40092 3.88939 8.86008 4.4846 9.03864 4.70568C9.2172 4.93526 9.36175 5.18184 9.36175 5.25837C9.36175 5.6325 6.28368 16.9924 6.07111 17.4176C5.748 18.0468 4.97423 18.7526 4.41303 18.9226C3.86034 19.0842 3.52022 19.0842 2.77196 18.9141C2.44885 18.8376 2.12574 18.7781 2.07472 18.7696C2.0152 18.7611 1.52203 19.3223 0.986343 20.028L0 21.3034L0.408142 21.4905C1.1649 21.8391 1.76011 21.9412 2.99304 21.9412C3.86034 21.9412 4.311 21.8986 4.82117 21.7711C6.70033 21.3034 8.21385 20.0195 9.06415 18.1744C9.2257 17.8172 9.56582 16.7544 9.82091 15.802C10.8073 12.1288 13.144 2.4694 13.144 2.4694C13.144 2.4694 12.4993 2.4694 10.2886 2.4694H7.31254L8.01828 3.37922Z" fill="url(#paint0_linear_1_6867)"/>
<path d="M13.4361 2.46939C13.4702 2.52891 14.0199 3.24316 14.5471 3.9404L15.5079 5.19034L13.8498 11.3635C12.94 14.7647 12.1918 17.5706 12.1918 17.6132C12.1918 17.6635 16.2746 17.6869 20.5162 17.6865C24.8703 17.6861 29.3918 17.6605 29.8354 17.6132C31.3574 17.4346 32.5733 16.8564 33.6362 15.8105C34.6736 14.7902 35.1412 13.6253 35.0392 12.2903C34.9882 11.5761 34.8011 10.9893 34.4525 10.4367L34.1974 10.037L34.6906 9.50133C35.5154 8.62553 36 7.51164 36 6.50829C36 5.56447 35.5324 4.43357 34.8436 3.71932C34.342 3.19214 33.6633 2.68846 33.2617 2.57893C32.8601 2.46939 32.8601 2.46939 32.5223 2.46939C32.1846 2.46939 22.9905 2.46939 22.9905 2.46939C15.3889 2.46939 13.4361 2.46939 13.4361 2.46939ZM21.8341 5.31788C23.1351 5.54746 24.0024 6.16818 24.3255 7.095C24.5126 7.62218 24.5296 8.92313 24.3595 9.61187C23.8238 11.7631 22.3868 13.4892 20.5162 14.2545C19.6829 14.5946 18.5775 14.7987 17.1745 14.8582C15.9586 14.9092 15.9161 14.9092 15.9586 14.7477C15.9841 14.6626 16.5708 12.5029 17.2595 9.95199C17.9398 7.4011 18.5477 5.19034 18.5477 5.19034C18.6572 5.19034 21.1284 5.19034 21.8341 5.31788ZM31.8336 5.28387C32.5734 5.44542 33.024 5.98111 33.024 6.69536C33.024 7.13751 32.6754 7.84326 32.3268 8.10685C31.7571 8.549 31.468 8.59152 29.3252 8.59152H27.3525L27.3015 7.71571C27.242 6.78889 27.0719 6.03213 26.8083 5.51345L26.6468 5.19034H29.0191C30.4136 5.19034 31.5785 5.23285 31.8336 5.28387ZM31.451 11.6271C32.0122 11.9247 32.2587 12.5454 32.0887 13.2001C31.9526 13.7018 31.2639 14.3735 30.5922 14.6371C30.1075 14.8327 29.997 14.8412 27.259 14.8667L24.419 14.8922L24.8527 14.3735C25.4904 13.6083 25.9325 12.928 26.3237 12.1117L26.6723 11.3805L28.8916 11.4145C30.9663 11.44 31.1364 11.457 31.451 11.6271Z" fill="url(#paint1_linear_1_6867)"/>
<path d="M18.5476 5.1712H15.5172L14.0933 10.3923L17.0507 10.6844L18.5476 5.1712Z" fill="url(#paint2_linear_1_6867)"/>
<path d="M28.3692 2.46936H22.1257C22.1257 2.46936 23.6227 2.57889 24.8641 3.34562C26.1054 4.11234 26.6495 5.18942 26.6495 5.18942H28.4422L28.3692 2.46936Z" fill="url(#paint3_linear_1_6867)"/>
<defs>
<linearGradient id="paint0_linear_1_6867" x1="2.99392" y1="21.9664" x2="12.0122" y2="2.4694" gradientUnits="userSpaceOnUse">
<stop stop-color="#FFD200"/>
<stop offset="0.671875" stop-color="#FFCC02"/>
<stop offset="1" stop-color="#FFC604"/>
</linearGradient>
<linearGradient id="paint1_linear_1_6867" x1="36" y1="10.0637" x2="12.1948" y2="10.0637" gradientUnits="userSpaceOnUse">
<stop stop-color="#FF3238"/>
<stop offset="1" stop-color="#FFBE07"/>
</linearGradient>
<linearGradient id="paint2_linear_1_6867" x1="16.9776" y1="5.1712" x2="16.9411" y2="8.34767" gradientUnits="userSpaceOnUse">
<stop stop-opacity="0.3"/>
<stop offset="0.0364583" stop-opacity="0.25"/>
<stop offset="1" stop-opacity="0"/>
</linearGradient>
<linearGradient id="paint3_linear_1_6867" x1="22.1257" y1="2.46935" x2="28.4787" y2="2.46935" gradientUnits="userSpaceOnUse">
<stop stop-opacity="0.3"/>
<stop offset="0.151042" stop-opacity="0.25"/>
<stop offset="1" stop-opacity="0"/>
</linearGradient>
</defs>
</svg>
