<svg width="36" height="24" viewBox="0 0 36 24" fill="none" xmlns="http://www.w3.org/2000/svg">
<g clip-path="url(#clip0_1_2304)">
<path d="M21.7161 0.750004H14.2816C14.0453 0.750004 13.8187 0.843871 13.6516 1.01096C13.4845 1.17804 13.3906 1.40466 13.3906 1.64096V13.265C13.3906 13.382 13.4137 13.4979 13.4584 13.606C13.5032 13.7141 13.5688 13.8123 13.6516 13.895C13.7343 13.9777 13.8325 14.0434 13.9406 14.0881C14.0487 14.1329 14.1646 14.156 14.2816 14.156H21.7161C21.8333 14.1563 21.9494 14.1335 22.0578 14.0889C22.1662 14.0442 22.2647 13.9787 22.3477 13.8959C22.4307 13.8131 22.4965 13.7148 22.5415 13.6065C22.5864 13.4983 22.6095 13.3822 22.6095 13.265V1.64096C22.6095 1.52374 22.5864 1.40768 22.5415 1.29942C22.4965 1.19116 22.4307 1.09283 22.3477 1.01006C22.2647 0.927297 22.1662 0.861723 22.0578 0.817097C21.9494 0.772471 21.8333 0.749671 21.7161 0.750004ZM21.0449 7.90161C21.045 8.3839 20.8901 8.85345 20.6028 9.24088L19.4101 10.8485L20.7929 12.1278C20.822 12.155 20.8422 12.1903 20.851 12.2292C20.8598 12.268 20.8567 12.3086 20.8421 12.3457C20.8276 12.3828 20.8022 12.4147 20.7694 12.4372C20.7365 12.4597 20.6976 12.4718 20.6578 12.4719H18.9157C18.816 12.4725 18.7197 12.4355 18.646 12.3684L18.432 12.1701L18.2602 12.011L18.0001 11.7679L17.3478 11.1686C17.3121 11.1353 17.2899 11.09 17.2853 11.0414C17.2808 10.9927 17.2943 10.9441 17.3232 10.9047L19.1708 8.4137C19.374 8.13975 19.4836 7.80764 19.4833 7.46655V5.37209C19.4833 4.69962 19.2251 4.41168 19.1278 4.33528C19.0154 4.24814 18.7774 4.03977 18.0001 4.03977C17.2228 4.03977 16.9835 4.24814 16.8711 4.33528C16.7726 4.41231 16.5143 4.69962 16.5143 5.37209V7.59095C16.5143 7.77323 16.552 7.95354 16.6251 8.12055C16.6981 8.28756 16.8048 8.43768 16.9386 8.56146L17.5581 9.1348C17.5944 9.16816 17.6171 9.21378 17.6217 9.26287C17.6264 9.31196 17.6127 9.36103 17.5833 9.40063L16.842 10.3977C16.8255 10.42 16.8044 10.4386 16.7802 10.4523C16.7559 10.466 16.7291 10.4744 16.7014 10.477C16.6737 10.4796 16.6458 10.4764 16.6194 10.4675C16.5931 10.4586 16.5689 10.4443 16.5484 10.4254L15.6739 9.61595C15.4465 9.40546 15.2651 9.15025 15.141 8.86632C15.0169 8.58239 14.9528 8.27588 14.9528 7.96602V4.70025C14.9528 3.76068 15.2382 3.33635 15.5665 3.04779C15.9385 2.72071 16.6034 2.4334 17.9988 2.4334C19.3943 2.4334 20.0592 2.72071 20.4311 3.04779C20.7594 3.33635 21.0449 3.76068 21.0449 4.70025V7.90161Z" fill="#FF7800"/>
<path d="M35.2499 16.9015V20.93V21.372L33.1232 17.5121C32.8656 17.0524 32.6881 16.9028 32.3528 16.9028C32.0175 16.9028 31.7808 17.1345 31.7808 17.5973V18.4921V22.5206H32.5328V18.4921V18.0501L34.6569 21.91C34.9146 22.3697 35.092 22.5193 35.4273 22.5193C35.7626 22.5193 36 22.2876 36 21.8248V20.93V16.9015H35.2499Z" fill="#FF7800"/>
<path d="M20.2686 16.9047H19.2387L17.1663 19.1178V16.9078H16.4149V22.5307H17.1663V20.2172L17.388 19.9804L19.2955 22.5276H20.2704L17.9076 19.426L20.2686 16.9047Z" fill="#FF7800"/>
<path d="M28.0989 17.2418C27.6803 16.9665 27.201 16.9047 26.7287 16.9047H25.344V22.5276H26.1232V20.5512H26.7287C27.201 20.5512 27.6803 20.488 28.0989 20.214C28.5176 19.94 28.863 19.4695 28.863 18.7282C28.863 17.9869 28.5144 17.5159 28.0989 17.2418ZM27.6999 19.5889C27.4909 19.7543 27.1663 19.8566 26.7287 19.8566H26.1232V17.5992H26.7287C27.1663 17.5992 27.4909 17.7015 27.6999 17.867C27.8308 17.9691 27.9367 18.0997 28.0096 18.2489C28.0824 18.3981 28.1203 18.5619 28.1203 18.7279C28.1203 18.894 28.0824 19.0578 28.0096 19.207C27.9367 19.3562 27.8308 19.4868 27.6999 19.5889Z" fill="#FF7800"/>
<path d="M3.48432 21.8659C3.58272 21.7419 3.6674 21.6077 3.7369 21.4655C3.93959 21.0482 3.93832 20.5689 3.93769 20.2519V19.1457C3.93769 18.8299 3.93769 18.3494 3.7369 17.932C3.37761 17.192 2.73544 16.8207 1.9733 16.8195H1.96383C1.20232 16.8195 0.560158 17.192 0.200872 17.932C-0.00181746 18.3494 -0.000555095 18.8287 7.63379e-05 19.1457V20.2519C7.63379e-05 20.5676 7.68383e-05 21.0482 0.200872 21.4655C0.560789 22.2068 1.20485 22.5781 1.96888 22.5781C2.26499 22.5811 2.55807 22.5183 2.827 22.3944L3.43191 23.1843H4.49714L3.48432 21.8659ZM3.1825 20.2841C3.1825 20.5411 3.18565 20.8922 3.05621 21.1568C2.92045 21.4359 2.59653 21.8583 1.96446 21.8583C1.3324 21.8583 1.00974 21.4359 0.875242 21.1568C0.740747 20.8777 0.748956 20.4792 0.748956 20.2222V19.1753C0.748956 18.9183 0.738853 18.5199 0.875242 18.2408C1.01163 17.9617 1.33492 17.5393 1.96699 17.5393C2.59905 17.5393 2.92298 17.9617 3.05874 18.2408C3.19449 18.5199 3.18502 18.9183 3.18502 19.1753V20.2841H3.1825Z" fill="#FF7800"/>
<path d="M13.2408 17.8146C13.7548 17.4269 14.3414 17.3865 15.2469 17.5974V17.0777C15.2469 17.0777 14.7986 16.8195 14.087 16.8195C13.3753 16.8195 12.9605 17.0032 12.6302 17.2975C12.2514 17.6321 11.9641 18.1682 11.8801 19.0023C11.8551 19.2406 11.8437 19.4801 11.846 19.7196C11.8437 19.959 11.8551 20.1983 11.8801 20.4363C11.9641 21.2679 12.2539 21.804 12.6302 22.1412C12.9605 22.4348 13.3703 22.6185 14.087 22.6185C14.8036 22.6185 15.2469 22.3603 15.2469 22.3603V21.8387C14.3414 22.0496 13.7548 22.0092 13.2408 21.6221C12.7167 21.2275 12.6126 20.4919 12.6094 19.7196C12.6062 18.9474 12.7167 18.2092 13.2408 17.8146Z" fill="#FF7800"/>
<path d="M23.139 17.4768C23.5225 17.4925 23.9046 17.5319 24.2832 17.5949V16.9894C23.7882 16.8571 23.2758 16.8017 22.764 16.8252C22.466 16.836 22.1698 16.8769 21.88 16.9471C21.467 17.0538 21.2378 17.2501 21.1096 17.444C21.0305 17.5637 20.9803 17.7002 20.963 17.8427C20.9457 17.9851 20.9617 18.1297 21.0099 18.2649C21.0113 18.2686 21.0126 18.2724 21.0136 18.2762C21.0225 18.3008 21.032 18.3255 21.0427 18.3507C21.1879 18.7258 21.4089 19.0131 21.7221 19.3528C22.058 19.7165 22.7551 20.3675 23.0481 20.7173C23.2306 20.9415 23.4453 21.2402 23.3386 21.4978C23.2211 21.78 22.7071 21.9758 22.0928 21.9581C21.7094 21.9398 21.3275 21.9 20.9486 21.8388V22.4412C20.9486 22.4412 21.4247 22.6508 22.4672 22.6091C23.5097 22.5674 23.9239 22.2883 24.1209 21.9903C24.2196 21.8249 24.275 21.6372 24.2819 21.4447V21.429C24.2825 21.3967 24.2813 21.3645 24.2782 21.3324C24.263 21.0438 24.2036 20.8272 23.8361 20.4016C23.4238 19.9268 22.6844 19.2259 22.3517 18.8799L22.2601 18.7839C22.0164 18.5225 21.7493 18.1967 21.8737 17.886C22.005 17.5602 22.5859 17.4655 23.139 17.4768Z" fill="#FF7800"/>
<path d="M10.8181 16.9047H10.0389V22.5276H10.8181V16.9047Z" fill="#FF7800"/>
<path d="M30.6083 16.8959H29.8291V22.5188H30.6083V16.8959Z" fill="#FF7800"/>
<path d="M5.74667 16.9047H4.99463V20.5897C4.99463 21.2489 5.21689 22.6103 6.90724 22.6103C8.59758 22.6103 8.82048 21.2464 8.82048 20.5897V16.9047H8.06844V20.5897C8.06844 21.7648 7.264 21.9126 6.90724 21.9126C6.55048 21.9126 5.74667 21.7648 5.74667 20.5897V16.9047Z" fill="#FF7800"/>
</g>
<defs>
<clipPath id="clip0_1_2304">
<rect width="36" height="24" fill="white"/>
</clipPath>
</defs>
</svg>
