<svg width="36" height="24" viewBox="0 0 36 24" fill="none" xmlns="http://www.w3.org/2000/svg">
<path opacity="0.984" fill-rule="evenodd" clip-rule="evenodd" d="M11.4697 5.08353C13.3564 5.08279 15.2431 5.08353 17.1298 5.08572C17.3682 5.08872 17.6063 5.09385 17.844 5.1011C17.8454 5.09964 17.8469 5.09817 17.8484 5.09671C17.953 5.1056 18.0578 5.11512 18.1626 5.12527C18.2443 5.13923 18.3248 5.1568 18.4043 5.17801C18.5918 5.25883 18.7595 5.37089 18.9074 5.51419C18.9585 5.57683 19.0039 5.64274 19.0437 5.71194C19.0676 5.76378 19.0896 5.81651 19.1096 5.87015C19.1427 6.00437 19.1646 6.1406 19.1755 6.27884C19.1775 6.40883 19.1783 6.53847 19.1777 6.66776C19.1609 6.88715 19.1426 7.10615 19.1228 7.32474C19.1044 7.47223 19.0824 7.61871 19.0568 7.76419C19.0329 7.87284 19.0066 7.98124 18.9777 8.08939C18.9243 8.26214 18.8393 8.41887 18.7229 8.5596C18.5306 8.76167 18.2985 8.88839 18.0263 8.93973C18.0227 8.94375 18.0183 8.94668 18.0131 8.94852C17.9888 8.94846 17.9653 8.95285 17.9428 8.9617C17.9253 8.96316 17.9077 8.96463 17.8901 8.96609C17.885 8.96794 17.8806 8.97086 17.8769 8.97488C17.9509 8.99163 18.0256 9.00481 18.101 9.01443C18.1047 9.01846 18.1091 9.02138 18.1142 9.02322C18.2314 9.04525 18.3412 9.08626 18.4438 9.14627C18.5756 9.23265 18.6657 9.35057 18.7141 9.50003C18.7232 9.53365 18.732 9.56735 18.7404 9.6011C18.7673 9.77552 18.7761 9.9513 18.7668 10.1284C18.7599 10.2518 18.7511 10.3748 18.7404 10.4976C18.7312 10.5378 18.7268 10.5789 18.7273 10.6206C18.725 10.6311 18.7221 10.6413 18.7185 10.6514C18.7095 10.7261 18.7007 10.8008 18.6921 10.8755C18.679 11.0371 18.6644 11.1982 18.6482 11.3589C18.6431 11.3808 18.6387 11.4027 18.635 11.4248C17.9979 11.4336 17.36 11.4365 16.7212 11.4336C16.7204 11.4014 16.7212 11.3692 16.7234 11.3369C16.7308 11.2828 16.7382 11.2286 16.7453 11.1743C16.7519 11.0938 16.7578 11.0132 16.7629 10.9326C16.7658 10.9209 16.7687 10.9092 16.7717 10.8975C16.7712 10.8442 16.7756 10.7915 16.7849 10.7393C16.7854 10.6461 16.7891 10.5531 16.7959 10.4602C16.7898 10.3937 16.7861 10.3271 16.7849 10.2603C16.7759 10.2363 16.7715 10.2115 16.7717 10.1856C16.7606 10.1536 16.7488 10.1214 16.7365 10.0889C16.7009 10.0192 16.6519 9.96058 16.5893 9.91312C16.5584 9.90015 16.5276 9.88767 16.497 9.87576C16.4462 9.8653 16.3949 9.85651 16.3432 9.8494C16.2116 9.83907 16.0797 9.83248 15.9477 9.82962C14.9426 9.82892 13.9363 9.82966 12.9287 9.83182C12.9231 9.88284 12.9165 9.93483 12.9089 9.98782C12.9074 10.0215 12.906 10.0552 12.9045 10.0889C12.9023 10.0994 12.8993 10.1096 12.8957 10.1197C12.8943 10.1534 12.8928 10.187 12.8913 10.2207C12.8877 10.2308 12.8848 10.241 12.8825 10.2515C12.8811 10.2823 12.8796 10.313 12.8781 10.3438C12.8689 10.3886 12.8645 10.434 12.865 10.48C12.8613 10.4901 12.8584 10.5003 12.8562 10.5108C12.8547 10.543 12.8532 10.5752 12.8518 10.6075C12.8425 10.6478 12.8381 10.6888 12.8386 10.7305C12.8295 10.7768 12.8251 10.8237 12.8254 10.8711C12.8225 10.8799 12.8196 10.8887 12.8166 10.8975C12.8064 11.0175 12.7961 11.1377 12.7859 11.2578C12.7772 11.2992 12.7721 11.3409 12.7705 11.3831C12.7719 11.3845 12.7734 11.386 12.7749 11.3875C12.7705 11.4007 12.7661 11.4138 12.7617 11.427C12.4376 11.4321 12.1131 11.4343 11.7883 11.4336C11.4667 11.4322 11.1452 11.4307 10.8237 11.4292C10.8187 11.4016 10.818 11.3738 10.8215 11.3457C10.8291 11.2902 10.8364 11.2346 10.8435 11.1787C10.8449 11.145 10.8464 11.1114 10.8479 11.0777C10.8572 11.0358 10.8616 10.9934 10.861 10.9502C10.8701 10.9083 10.8745 10.8659 10.8742 10.8228C10.8854 10.7244 10.8971 10.6263 10.9094 10.5284C10.909 10.4838 10.9134 10.4399 10.9226 10.3965C10.9443 10.1487 10.9677 9.90116 10.9929 9.65384C11.0021 9.6106 11.0065 9.56665 11.0061 9.522C11.0152 9.48012 11.0196 9.43767 11.0192 9.39456C11.0354 9.25244 11.0515 9.11035 11.0676 8.96829C11.0713 8.89331 11.0772 8.81861 11.0852 8.74417C11.0944 8.70084 11.0987 8.65689 11.0984 8.61234C11.1013 8.60062 11.1042 8.5889 11.1071 8.57718C11.1214 8.41445 11.1361 8.25185 11.1511 8.08939C11.1533 8.07894 11.1563 8.06868 11.1599 8.05862C11.1613 8.02493 11.1628 7.99124 11.1643 7.95755C11.1736 7.91573 11.178 7.87325 11.1775 7.83011C11.1787 7.81933 11.1817 7.80908 11.1862 7.79935C11.1916 7.72456 11.1974 7.64985 11.2038 7.57523C11.2056 7.56322 11.2086 7.5515 11.2126 7.54007C11.223 7.41849 11.2333 7.29692 11.2434 7.17532C11.2463 7.16653 11.2492 7.15775 11.2522 7.14896C11.2536 7.11526 11.2551 7.08157 11.2566 7.04788C11.2588 7.03743 11.2617 7.02718 11.2653 7.01712C11.2703 6.94374 11.2761 6.8705 11.2829 6.79739C11.2903 6.74164 11.2976 6.68597 11.3049 6.6304C11.3063 6.59671 11.3078 6.56302 11.3093 6.52933C11.3115 6.51888 11.3145 6.50862 11.3181 6.49857C11.3195 6.46487 11.321 6.43118 11.3225 6.39749C11.3317 6.35715 11.3361 6.31613 11.3357 6.27444C11.3449 6.22964 11.3493 6.18423 11.3488 6.13821C11.358 6.09934 11.3624 6.05979 11.362 6.01956C11.3711 5.97472 11.3755 5.92931 11.3752 5.88333C11.3844 5.83852 11.3888 5.79312 11.3884 5.7471C11.3913 5.73831 11.3942 5.72952 11.3972 5.72073C11.3986 5.68704 11.4001 5.65335 11.4016 5.61966C11.4038 5.60921 11.4068 5.59895 11.4104 5.5889C11.4118 5.5552 11.4133 5.52152 11.4148 5.48782C11.4184 5.47777 11.4213 5.46751 11.4235 5.45706C11.4338 5.334 11.4448 5.21096 11.4565 5.08792C11.4622 5.08896 11.4666 5.0875 11.4697 5.08353ZM13.2451 6.69632C14.3188 6.69559 15.3926 6.69632 16.4663 6.69852C16.5715 6.70721 16.677 6.7116 16.7827 6.7117C16.8112 6.72065 16.8405 6.72505 16.8706 6.72488C16.9065 6.73589 16.9417 6.74907 16.976 6.76443C17.0333 6.79462 17.0787 6.83783 17.1123 6.89407C17.1379 6.94538 17.1533 6.99958 17.1584 7.05667C17.1622 7.06365 17.1651 7.07097 17.1672 7.07864C17.1701 7.17972 17.1701 7.28079 17.1672 7.38187C17.158 7.42522 17.1536 7.46917 17.154 7.5137C17.1502 7.52068 17.1473 7.528 17.1452 7.53568C17.1438 7.55911 17.1423 7.58255 17.1408 7.60599C17.1245 7.66841 17.1113 7.7314 17.1013 7.79495C17.0834 7.85031 17.0621 7.90451 17.0376 7.95755C17.0024 8.01983 16.9555 8.07184 16.8969 8.11356C16.8653 8.13243 16.833 8.15 16.8003 8.16629C16.7657 8.17665 16.7305 8.18544 16.6948 8.19266C16.6431 8.19255 16.5918 8.19695 16.541 8.20584C16.3958 8.20553 16.2508 8.20993 16.1059 8.21902C15.0996 8.22269 14.0932 8.22196 13.0869 8.21683C13.101 8.15921 13.1076 8.10061 13.1067 8.04105C13.1103 8.03099 13.1132 8.02073 13.1154 8.01028C13.115 7.96427 13.1194 7.91886 13.1286 7.87405C13.1284 7.82953 13.1328 7.78559 13.1418 7.74222C13.1519 7.62493 13.1622 7.50774 13.1726 7.39066C13.1766 7.37923 13.1796 7.36751 13.1814 7.3555C13.1828 7.32474 13.1843 7.29398 13.1858 7.26321C13.188 7.25276 13.1909 7.24251 13.1945 7.23245C13.1939 7.18632 13.1983 7.14091 13.2077 7.09622C13.2075 7.05015 13.2119 7.00474 13.2209 6.95999C13.2307 6.87225 13.2388 6.78436 13.2451 6.69632Z" fill="black"/>
<path opacity="0.983" fill-rule="evenodd" clip-rule="evenodd" d="M19.7402 5.08355C22.2921 5.08209 24.8439 5.08356 27.3955 5.08795C27.398 5.1253 27.3943 5.16192 27.3845 5.19781C27.3831 5.2315 27.3816 5.26519 27.3801 5.29889C27.3765 5.30894 27.3736 5.3192 27.3714 5.32965C27.3699 5.36334 27.3684 5.39703 27.367 5.43072C27.3634 5.44078 27.3604 5.45103 27.3582 5.46148C27.3567 5.49225 27.3552 5.52301 27.3538 5.55377C27.3446 5.5971 27.3402 5.64105 27.3406 5.68561C27.3383 5.69606 27.3354 5.70631 27.3318 5.71637C27.3304 5.75006 27.3289 5.78375 27.3274 5.81744C27.3238 5.8275 27.3209 5.83775 27.3186 5.8482C27.3172 5.8819 27.3157 5.91558 27.3142 5.94928C27.3106 5.95933 27.3077 5.96959 27.3054 5.98004C27.304 6.01373 27.3025 6.04742 27.301 6.08111C27.2981 6.0899 27.2952 6.09869 27.2922 6.10748C27.2908 6.14117 27.2893 6.17486 27.2879 6.20855C27.2785 6.25037 27.2741 6.29285 27.2747 6.336C27.2717 6.34772 27.2688 6.35943 27.2659 6.37115C27.2566 6.48811 27.2456 6.60456 27.2329 6.72052C26.2939 6.72271 25.355 6.72345 24.416 6.72271C24.4175 6.73145 24.4189 6.74024 24.4204 6.74908C24.4048 6.87201 24.3902 6.99506 24.3765 7.11822C24.3774 7.1208 24.3789 7.12299 24.3809 7.12481C24.3711 7.23571 24.3587 7.3463 24.3435 7.4566C24.3421 7.48736 24.3406 7.51812 24.3391 7.54889C24.3315 7.60453 24.3241 7.66019 24.3172 7.71588C24.2818 8.10729 24.2423 8.4984 24.1985 8.88922C24.197 8.91998 24.1956 8.95074 24.1941 8.9815C24.185 9.02337 24.1806 9.06585 24.1809 9.10894C24.1704 9.20742 24.1587 9.30556 24.1458 9.40338C24.1199 9.70717 24.0892 10.0104 24.0535 10.313C24.0497 10.389 24.0431 10.4644 24.0337 10.5394C24.0352 10.5408 24.0366 10.5423 24.0381 10.5438C24.0341 10.5545 24.0305 10.5655 24.0271 10.5767C24.0273 10.6212 24.0229 10.6651 24.0139 10.7086C23.9927 10.9478 23.9692 11.1866 23.9436 11.4249C23.604 11.4307 23.2634 11.4337 22.9219 11.4337C22.581 11.4337 22.2404 11.4322 21.9002 11.4293C21.9075 11.3252 21.9163 11.2212 21.9265 11.1172C21.9281 11.108 21.9311 11.0992 21.9353 11.0909C21.9368 11.0587 21.9383 11.0264 21.9397 10.9942C21.947 10.9385 21.9543 10.8829 21.9617 10.8272C21.9631 10.795 21.9646 10.7627 21.9661 10.7305C21.9754 10.6887 21.9798 10.6462 21.9793 10.6031C21.9815 10.5926 21.9844 10.5824 21.9881 10.5723C21.9895 10.5372 21.991 10.502 21.9924 10.4669C21.996 10.4568 21.999 10.4466 22.0012 10.4361C22.0027 10.4039 22.0042 10.3716 22.0056 10.3394C22.0079 10.329 22.0108 10.3187 22.0144 10.3087C22.0159 10.2749 22.0174 10.2413 22.0188 10.2076C22.0224 10.1975 22.0254 10.1873 22.0276 10.1768C22.0329 10.102 22.0388 10.0273 22.0452 9.95269C22.0525 9.89851 22.0598 9.84428 22.0672 9.7901C22.0686 9.75639 22.0701 9.72273 22.0715 9.68902C22.0752 9.67896 22.0781 9.66872 22.0803 9.65826C22.0818 9.62456 22.0833 9.59089 22.0847 9.55719C22.0877 9.5484 22.0906 9.53961 22.0935 9.53082C22.0983 9.45444 22.1041 9.37829 22.1111 9.3023C22.1184 9.24808 22.1257 9.19388 22.1331 9.13971C22.1345 9.10601 22.136 9.07233 22.1375 9.03863C22.139 9.02937 22.142 9.02058 22.1463 9.01227C22.1477 8.97857 22.1492 8.94488 22.1506 8.91119C22.1529 8.90074 22.1558 8.89048 22.1594 8.88043C22.1609 8.84527 22.1624 8.81012 22.1638 8.77496C22.1712 8.72369 22.1785 8.67242 22.1858 8.62115C22.1911 8.54338 22.197 8.46574 22.2034 8.38824C22.207 8.37819 22.2099 8.36793 22.2122 8.35748C22.2181 8.28126 22.2239 8.20508 22.2298 8.12896C22.2313 8.1197 22.2343 8.11091 22.2385 8.1026C22.24 8.06744 22.2415 8.03228 22.2429 7.99713C22.2465 7.98707 22.2495 7.97682 22.2517 7.96637C22.2532 7.93414 22.2547 7.90191 22.2561 7.86969C22.2584 7.85924 22.2613 7.84898 22.2649 7.83893C22.2754 7.71886 22.2857 7.59874 22.2957 7.47857C22.2993 7.46852 22.3022 7.45826 22.3045 7.44781C22.3103 7.37159 22.3162 7.29541 22.322 7.2193C22.3314 7.17748 22.3357 7.135 22.3352 7.09186C22.3375 7.0814 22.3404 7.07115 22.344 7.06109C22.3455 7.0274 22.347 6.99371 22.3484 6.96002C22.3577 6.9182 22.3621 6.87572 22.3616 6.83258C22.37 6.79789 22.3751 6.76273 22.377 6.72711C21.4409 6.72271 20.5049 6.72125 19.5689 6.72271C19.5665 6.66254 19.5709 6.60322 19.582 6.54474C19.5806 6.54327 19.5791 6.5418 19.5777 6.54034C19.587 6.46672 19.5965 6.39421 19.6062 6.32281C19.6057 6.27967 19.6101 6.23719 19.6194 6.19537C19.6188 6.1507 19.6232 6.10675 19.6326 6.06353C19.634 6.03131 19.6355 5.99908 19.637 5.96686C19.6499 5.85635 19.6624 5.74575 19.6743 5.63507C19.6729 5.6336 19.6714 5.63214 19.6699 5.63067C19.6822 5.56022 19.6918 5.48917 19.6985 5.41754C19.7043 5.34142 19.7102 5.26525 19.7161 5.18902C19.7202 5.17359 19.7238 5.1582 19.7271 5.14288C19.7254 5.12669 19.7254 5.10838 19.7271 5.08795C19.7327 5.08899 19.7371 5.08753 19.7402 5.08355Z" fill="black"/>
<path opacity="0.981" fill-rule="evenodd" clip-rule="evenodd" d="M1.34915 5.12308C3.50247 5.12234 5.65579 5.12308 7.80911 5.12527C8.02221 5.17138 8.14451 5.30248 8.17606 5.51859C8.179 5.62112 8.179 5.72366 8.17606 5.8262C8.15022 6.1459 8.12091 6.46524 8.08817 6.78421C8.08373 6.87234 8.07788 6.96023 8.07059 7.04788C8.06905 7.0614 8.06615 7.07458 8.0618 7.08743C8.0571 7.17546 8.05121 7.26335 8.04422 7.3511C8.03578 7.39849 8.03069 7.4461 8.02884 7.49393C8.03029 7.49539 8.03179 7.49686 8.03324 7.49832C8.02937 7.51348 8.02568 7.52886 8.02225 7.54446C8.01175 7.68363 8.00151 7.82279 7.99149 7.96194C7.98854 7.97366 7.98564 7.98538 7.9827 7.9971C7.98125 8.03665 7.97975 8.0762 7.9783 8.11575C7.97606 8.1262 7.97312 8.13646 7.96951 8.14651C7.96459 8.23454 7.95875 8.32243 7.95194 8.41019C7.9446 8.47322 7.9373 8.5362 7.92996 8.59915C7.91102 8.83939 7.892 9.07962 7.87284 9.31985C7.86541 9.38285 7.85807 9.44585 7.85086 9.50882C7.84941 9.54692 7.84792 9.58498 7.84647 9.62308C7.84467 9.63507 7.84172 9.64681 7.83768 9.65823C7.83623 9.69923 7.83473 9.74028 7.83328 9.78128C7.83034 9.79301 7.82744 9.8047 7.8245 9.81644C7.81412 9.95412 7.80388 10.0918 7.79373 10.2295C7.79136 10.2428 7.78842 10.256 7.78494 10.2691C7.77963 10.3556 7.77378 10.442 7.76737 10.5284C7.75814 10.5791 7.75374 10.6303 7.75418 10.6822C7.73999 10.7703 7.7305 10.859 7.72562 10.948C7.73041 10.974 7.72821 10.9997 7.71903 11.0249C7.70852 11.1641 7.69828 11.3032 7.68826 11.4424C7.6789 11.4931 7.67451 11.5444 7.67508 11.5962C7.67214 11.608 7.66924 11.6196 7.66629 11.6314C7.66673 11.6832 7.66234 11.7344 7.65311 11.7852C7.65166 11.8203 7.65016 11.8555 7.64871 11.8907C7.63953 11.9399 7.63514 11.9897 7.63553 12.0401C7.62648 12.0909 7.62208 12.1421 7.62235 12.1939C7.62037 12.2087 7.61742 12.2234 7.61356 12.2378C7.61228 12.3145 7.60644 12.3906 7.59598 12.4663C7.58719 12.4722 7.5784 12.4722 7.56961 12.4663C7.25079 12.0132 6.82522 11.718 6.293 11.5808C6.28935 11.5768 6.28496 11.5739 6.27982 11.5721C6.24519 11.5636 6.21003 11.5577 6.17435 11.5545C6.16943 11.5499 6.16354 11.547 6.15677 11.5457C5.47694 11.4374 4.87194 11.5956 4.34183 12.0203C4.00137 12.3103 3.76626 12.6656 3.63651 13.086C3.57082 13.3163 3.54006 13.5521 3.54422 13.7935C3.58946 14.5397 3.91539 15.1278 4.52201 15.5579C4.76261 15.7148 5.02333 15.8246 5.30423 15.8875C6.04449 16.0184 6.69339 15.8383 7.25101 15.347C7.27364 15.3221 7.29711 15.298 7.32132 15.2744C7.32967 15.2702 7.33846 15.2687 7.34769 15.2701C7.35041 15.319 7.34672 15.3673 7.3367 15.4151C7.33525 15.4532 7.33376 15.4912 7.33231 15.5293C7.32994 15.5426 7.32699 15.5558 7.32352 15.5689C7.31359 15.7023 7.30335 15.8355 7.29276 15.9688C7.28348 15.9924 7.27909 16.0173 7.27957 16.0435C7.25044 16.1684 7.18962 16.276 7.0972 16.3665C7.00975 16.4402 6.90868 16.4842 6.79398 16.4983C5.61479 16.5013 4.43556 16.5013 3.25638 16.4983C3.24672 16.491 3.24525 16.4822 3.25199 16.472C3.43548 16.3757 3.60247 16.2556 3.75296 16.1116C3.86898 15.9972 3.97299 15.8734 4.06497 15.7403C3.52057 15.2691 3.20929 14.6773 3.13114 13.9649C3.12243 13.8023 3.12243 13.6397 3.13114 13.4771C3.13475 13.467 3.13768 13.4568 3.13993 13.4463C3.1412 13.3885 3.14706 13.3314 3.1575 13.2749C3.16152 13.2713 3.16445 13.2669 3.16629 13.2617C3.16776 13.2442 3.16922 13.2266 3.17069 13.209C3.17752 13.1824 3.18485 13.156 3.19266 13.1299C3.19218 13.1093 3.19657 13.0903 3.20584 13.0728C3.21609 13.0306 3.22634 12.9881 3.23661 12.9453C3.2458 12.9342 3.2502 12.921 3.24979 12.9058C3.25676 12.8894 3.26408 12.8734 3.27176 12.8575C3.27135 12.8422 3.27575 12.8291 3.28495 12.8179C3.30603 12.7525 3.33166 12.6894 3.36185 12.6289C2.93255 12.3734 2.46527 12.2716 1.95999 12.3235C1.3295 12.4103 0.820461 12.7099 0.432894 13.2222C0.377011 13.3044 0.324276 13.3879 0.274691 13.4727C0.263659 13.5006 0.250476 13.527 0.23514 13.5518C0.232963 13.5604 0.232231 13.5692 0.232943 13.5782C0.222374 13.5798 0.21212 13.5827 0.202181 13.5869C0.185814 13.578 0.185082 13.5678 0.199984 13.5562C0.201449 13.5225 0.202914 13.4888 0.204378 13.4551C0.214837 13.3405 0.226556 13.2262 0.239535 13.1123C0.24433 13.0228 0.25019 12.9334 0.257113 12.8443C0.266413 12.7965 0.270808 12.7482 0.270296 12.6992C0.271601 12.6843 0.274531 12.6696 0.279086 12.6553C0.292466 12.4675 0.307114 12.2801 0.323031 12.0928C0.332143 12.0406 0.336538 11.9878 0.336214 11.9346C0.345352 11.8868 0.349747 11.8384 0.349398 11.7896C0.35836 11.7417 0.362755 11.6934 0.362582 11.6446C0.372859 11.5272 0.384578 11.41 0.397738 11.293C0.397461 11.2412 0.401855 11.19 0.410921 11.1392C0.412386 11.1026 0.413851 11.0659 0.415316 11.0293C0.417685 11.016 0.420614 11.0028 0.424105 10.9898C0.424908 10.9535 0.427105 10.9177 0.430697 10.8821C0.429232 10.8807 0.427767 10.8792 0.426302 10.8777C0.4305 10.8641 0.434162 10.8502 0.437289 10.836C0.446227 10.686 0.459411 10.5366 0.476839 10.3877C0.481484 10.2982 0.487342 10.2088 0.494418 10.1197C0.503602 10.0704 0.507997 10.0206 0.507601 9.97025C0.516619 9.92094 0.521013 9.8711 0.520785 9.82083C0.531688 9.70644 0.543408 9.59218 0.555941 9.47806C0.557404 9.43996 0.558872 9.4019 0.560336 9.3638C0.56956 9.31309 0.573954 9.26182 0.573519 9.20999C0.582704 9.16071 0.587098 9.11091 0.586703 9.06058C0.589071 9.04727 0.592003 9.03408 0.595492 9.02103C0.599913 8.93588 0.605775 8.85092 0.61307 8.76614C0.620396 8.70023 0.627717 8.63431 0.635043 8.56839C0.636506 8.52884 0.637974 8.48929 0.639437 8.44974C0.641252 8.43773 0.644183 8.42601 0.648226 8.41458C0.658479 8.27687 0.668735 8.13918 0.678988 8.0015C0.681357 7.98818 0.684288 7.975 0.687777 7.96194C0.688581 7.92571 0.690778 7.88982 0.694369 7.85428C0.692905 7.85282 0.691438 7.85135 0.689974 7.84988C0.694171 7.83627 0.697836 7.82235 0.700961 7.80814C0.706849 7.72018 0.712712 7.63228 0.718539 7.54446C0.727723 7.49518 0.732118 7.44538 0.731722 7.39505C0.740907 7.3458 0.745301 7.296 0.744906 7.24564C0.746892 7.2308 0.749819 7.21614 0.753695 7.20169C0.764202 7.06549 0.774455 6.92926 0.784457 6.793C0.793571 6.74075 0.797965 6.68802 0.79764 6.6348C0.799455 6.62279 0.802386 6.61107 0.806429 6.59964C0.807229 6.56194 0.809426 6.52459 0.813021 6.48758C0.811558 6.48612 0.81009 6.48465 0.808627 6.48318C0.813285 6.47116 0.81695 6.45871 0.819613 6.44583C0.821076 6.40921 0.822544 6.37259 0.824007 6.33597C0.833192 6.28672 0.837587 6.23692 0.837191 6.18655C0.846376 6.13727 0.85077 6.08747 0.850375 6.03714C0.851166 6.02195 0.854097 6.00731 0.859164 5.99319C0.868405 5.86858 0.878662 5.74406 0.889925 5.61966C0.910747 5.49899 0.96055 5.39059 1.03934 5.29446C1.12507 5.20316 1.22834 5.14603 1.34915 5.12308ZM6.09964 6.28763C6.10461 6.29036 6.109 6.29402 6.11283 6.29861C6.09766 6.32942 6.08079 6.35944 6.06229 6.3887C5.98688 6.49557 5.91362 6.60396 5.84256 6.7139C5.48652 7.24774 5.04342 7.69232 4.51322 8.04764C4.43921 8.09237 4.36449 8.13632 4.2891 8.17947C4.22689 8.20819 4.16537 8.23895 4.10453 8.27176C4.0972 8.27322 4.08988 8.27469 4.08255 8.27615C4.06128 8.28899 4.03931 8.30071 4.01663 8.31131C3.99816 8.31831 3.97912 8.32417 3.95951 8.32889C3.94632 8.33621 3.93314 8.34353 3.91995 8.35086C3.90619 8.35066 3.89447 8.35505 3.8848 8.36404C3.87601 8.36551 3.86722 8.36698 3.85843 8.36844C3.81606 8.38501 3.77358 8.40113 3.73099 8.41678C3.69005 8.42744 3.64904 8.43769 3.60794 8.44754C3.6043 8.45156 3.59991 8.45449 3.59476 8.45633C3.57565 8.45597 3.55807 8.46036 3.54203 8.46951C3.52292 8.46915 3.50534 8.47355 3.48929 8.4827C3.45293 8.48987 3.41632 8.49573 3.37943 8.50027C3.37357 8.50321 3.36771 8.50613 3.36185 8.50906C3.33423 8.50849 3.30786 8.51288 3.28275 8.52225C3.18761 8.53281 3.0924 8.54306 2.9971 8.55301C2.99041 8.56048 2.98601 8.55829 2.98392 8.54642C3.30558 8.24533 3.6381 7.95896 3.98148 7.68729C4.65296 7.17325 5.35754 6.70963 6.09525 6.29642C6.09683 6.29342 6.09832 6.29048 6.09964 6.28763ZM5.0889 6.35355C5.10217 6.35282 5.11536 6.35355 5.12845 6.35574C4.74151 6.62511 4.35479 6.89171 3.96829 7.15555C3.61891 7.40012 3.26881 7.64475 2.918 7.88943C2.90149 7.89918 2.88537 7.90797 2.86966 7.9158C3.06507 7.60747 3.29798 7.32915 3.56839 7.08084C3.95483 6.74397 4.39575 6.51546 4.89115 6.39529C4.91312 6.39587 4.93364 6.39148 4.95267 6.38211C4.99196 6.37494 5.03151 6.36908 5.07132 6.36453C5.07822 6.36186 5.08407 6.3582 5.0889 6.35355ZM1.14261 8.93314C1.25685 8.93586 1.3711 8.93805 1.48538 8.93973C2.6254 9.03584 3.59 9.50091 4.37918 10.335C4.61728 10.6 4.82307 10.8871 4.99661 11.1963C4.99222 11.2 4.98783 11.2037 4.98343 11.2073C4.81547 11.255 4.65507 11.3217 4.50223 11.4073C4.00106 10.5536 3.28255 9.96695 2.34671 9.64725C2.25301 9.61947 2.15926 9.59311 2.06546 9.56815C2.02622 9.55905 1.98667 9.55026 1.94681 9.54178C1.92923 9.54033 1.91165 9.53883 1.89408 9.53738C1.88893 9.53554 1.88453 9.53259 1.88089 9.52859C1.86185 9.52714 1.8428 9.52565 1.82376 9.5242C1.81791 9.52126 1.81204 9.51836 1.80619 9.51541C1.75247 9.50684 1.69827 9.50095 1.64359 9.49783C1.63432 9.49625 1.62553 9.49331 1.61722 9.48904C1.585 9.48759 1.55277 9.4861 1.52054 9.48465C1.50853 9.48285 1.49681 9.4799 1.48538 9.47586C1.3813 9.47445 1.27729 9.47081 1.17337 9.46487C1.11917 9.46813 1.06497 9.47103 1.01077 9.47366C1.01077 9.29495 1.01077 9.11624 1.01077 8.93753C1.05552 8.93897 1.09946 8.9375 1.14261 8.93314ZM1.64359 9.9263C1.64462 9.92366 1.64682 9.92221 1.65018 9.92191C2.02684 9.97446 2.3828 10.0872 2.71805 10.2603C2.71951 10.2691 2.72098 10.2779 2.72245 10.2867C2.7498 10.3315 2.77177 10.3799 2.78836 10.4317C2.80694 10.4596 2.82012 10.4903 2.82791 10.524C2.83524 10.5371 2.84256 10.5503 2.84989 10.5635C2.85574 10.584 2.86161 10.6045 2.86746 10.625C2.8704 10.628 2.87332 10.6309 2.87625 10.6338C2.88454 10.6534 2.8904 10.6739 2.89383 10.6953C2.89676 10.6983 2.89969 10.7012 2.90262 10.7041C2.90741 10.7282 2.91327 10.7516 2.9202 10.7744C2.92788 10.7904 2.9352 10.8064 2.94217 10.8228C2.94176 10.838 2.94616 10.8512 2.95536 10.8623C2.97365 10.9235 2.99122 10.985 3.00809 11.0469C3.00955 11.0586 3.01102 11.0703 3.01248 11.0821C3.01433 11.0872 3.01725 11.0916 3.02127 11.0952C3.02758 11.1277 3.03344 11.1599 3.03885 11.1919C3.04812 11.2095 3.05252 11.2285 3.05203 11.2491C3.05662 11.254 3.05955 11.2599 3.06082 11.2666C3.06848 11.3043 3.07434 11.3424 3.0784 11.3809C3.08133 11.3867 3.08426 11.3926 3.08719 11.3985C3.08865 11.419 3.09012 11.4395 3.09159 11.46C3.09561 11.4636 3.09853 11.468 3.10037 11.4732C3.10895 11.5285 3.11481 11.5841 3.11795 11.6402C3.12174 11.6472 3.12467 11.6544 3.12674 11.6621C3.1368 11.766 3.14559 11.87 3.15311 11.9742C3.15604 12.0035 3.15604 12.0327 3.15311 12.062C3.10077 12.0407 3.0473 12.0209 2.99271 12.0027C2.9428 11.9934 2.89446 11.9803 2.84769 11.9632C2.75872 11.9436 2.66936 11.926 2.57962 11.9104C2.55326 11.909 2.52689 11.9075 2.50052 11.906C2.47156 11.898 2.44079 11.8943 2.40824 11.8951C2.40897 11.8628 2.40824 11.8306 2.40604 11.7984C2.39689 11.761 2.39249 11.723 2.39286 11.6841C2.38992 11.6783 2.387 11.6724 2.38407 11.6665C2.3826 11.6446 2.38113 11.6226 2.37967 11.6006C2.27858 11.0031 2.0486 10.4626 1.68973 9.97903C1.67494 9.96062 1.65956 9.94304 1.64359 9.9263Z" fill="#AA0000"/>
<path opacity="0.945" fill-rule="evenodd" clip-rule="evenodd" d="M8.50782 6.23926C8.51771 6.24238 8.52794 6.24458 8.53858 6.24585C8.79421 6.39424 8.92016 6.61543 8.91651 6.90942C8.91304 6.92759 8.90939 6.9459 8.90552 6.96436C8.87037 7.41761 8.83082 7.87024 8.78687 8.32227C8.77663 8.46147 8.76635 8.60063 8.75611 8.73975C8.74776 8.7857 8.74262 8.83184 8.74073 8.87817C8.74218 8.87964 8.74367 8.8811 8.74512 8.88257C8.74148 8.89924 8.73783 8.91609 8.73414 8.93311C8.73203 9.00632 8.72543 9.07883 8.71436 9.15063C8.71629 9.15737 8.71779 9.16396 8.71876 9.17041C8.71559 9.19094 8.7119 9.21145 8.70777 9.23193C8.69727 9.36948 8.68703 9.50716 8.67701 9.64502C8.66967 9.70949 8.66237 9.77391 8.65503 9.83838C8.65416 9.86936 8.65196 9.90012 8.64844 9.93066C8.65064 9.94969 8.64844 9.96872 8.64185 9.98779C8.62827 10.177 8.61359 10.366 8.59791 10.5547C8.58872 10.604 8.58433 10.6537 8.58472 10.7041C8.58274 10.719 8.5798 10.7336 8.57593 10.748C8.57185 10.8318 8.566 10.9153 8.55835 10.9985C8.55102 11.0645 8.54372 11.1304 8.53638 11.1963C8.53559 11.234 8.53339 11.2713 8.52979 11.3083C8.53124 11.3098 8.53273 11.3113 8.53418 11.3127C8.52953 11.3248 8.52588 11.3372 8.5232 11.3501C8.52346 11.4019 8.51907 11.4531 8.51002 11.5039C8.49679 11.6887 8.48215 11.8732 8.46607 12.0576C8.45706 12.1113 8.45267 12.1655 8.45289 12.2202C8.45135 12.2337 8.44845 12.2469 8.4441 12.2598C8.42481 12.4986 8.40578 12.7373 8.38697 12.9761C8.37774 13.0268 8.37335 13.0781 8.37378 13.1299C8.36464 13.1777 8.36025 13.226 8.3606 13.2749C8.35164 13.3227 8.34724 13.3711 8.34742 13.4199C8.33762 13.5374 8.32588 13.6546 8.31226 13.7715C8.31252 13.8233 8.30813 13.8745 8.29908 13.9253C8.29763 13.9634 8.29613 14.0015 8.29468 14.0396C8.29288 14.0515 8.28994 14.0633 8.28589 14.0747C8.26673 14.3135 8.24766 14.5523 8.22877 14.791C8.21954 14.8417 8.21514 14.893 8.21558 14.9448C8.21404 14.9584 8.21114 14.9715 8.20679 14.9844C8.19335 15.1706 8.17871 15.3566 8.16285 15.5425C8.15366 15.5976 8.14927 15.6533 8.14966 15.7095C8.14606 15.7195 8.14312 15.7298 8.14087 15.7402C8.13064 15.8794 8.12035 16.0186 8.11011 16.1577C8.10774 16.171 8.1048 16.1842 8.10132 16.1973C8.09627 16.2823 8.09043 16.3673 8.08375 16.4521C8.08243 16.4671 8.07953 16.4818 8.07496 16.4961C8.07025 16.5841 8.06437 16.672 8.05738 16.7598C8.04863 16.7988 8.04424 16.8383 8.04419 16.8784C8.01774 17.0052 7.95841 17.1144 7.86622 17.2058C7.79832 17.2621 7.72067 17.2973 7.63331 17.3113C5.5503 17.3142 3.46729 17.3142 1.38428 17.3113C1.13472 17.2668 0.995564 17.1188 0.966802 16.8674C0.965919 16.8556 0.967382 16.8431 0.971197 16.8301C3.04792 16.8271 5.12434 16.8242 7.20044 16.8213C7.42861 16.79 7.56484 16.6611 7.60914 16.4346C7.61041 16.4278 7.61335 16.4219 7.61793 16.417C7.61938 16.3862 7.62087 16.3555 7.62232 16.3247C7.62456 16.3142 7.62751 16.304 7.63111 16.2939C7.63695 16.2031 7.64284 16.1123 7.64869 16.0215C7.65093 16.011 7.65387 16.0008 7.65748 15.9907C7.65893 15.9497 7.66042 15.9087 7.66187 15.8677C7.66547 15.8576 7.66842 15.8474 7.67066 15.8369C7.67725 15.7476 7.6831 15.6583 7.68824 15.5688C7.69048 15.5584 7.69342 15.5481 7.69703 15.5381C7.70177 15.4471 7.70762 15.3562 7.7146 15.2656C7.71685 15.2552 7.71979 15.2449 7.72339 15.2349C7.72484 15.1939 7.72634 15.1528 7.72779 15.1118C7.73139 15.1018 7.73434 15.0915 7.73658 15.0811C7.73803 15.0415 7.73952 15.002 7.74097 14.9624C7.74392 14.9507 7.74682 14.939 7.74976 14.9272C7.75121 14.8891 7.75271 14.8511 7.75416 14.813C7.7571 14.8013 7.76 14.7896 7.76294 14.7778C7.76439 14.7383 7.76589 14.6987 7.76734 14.6592C7.76958 14.6487 7.77252 14.6385 7.77613 14.6284C7.78197 14.5376 7.78782 14.4468 7.79371 14.356C7.79731 14.3459 7.80025 14.3357 7.8025 14.3252C7.80395 14.2842 7.80544 14.2431 7.80689 14.2021C7.81049 14.1921 7.81344 14.1818 7.81568 14.1714C7.81713 14.1318 7.81862 14.0923 7.82007 14.0527C7.82368 14.0427 7.82662 14.0324 7.82886 14.022C7.83031 13.9824 7.83181 13.9429 7.83326 13.9033C7.8362 13.8916 7.8391 13.8799 7.84205 13.8682C7.85242 13.7291 7.86266 13.5899 7.87281 13.4507C7.87575 13.439 7.87865 13.4273 7.8816 13.4155C7.88103 13.3637 7.88542 13.3124 7.89478 13.2617C7.90137 13.1724 7.90722 13.0831 7.91236 12.9937C7.9164 12.9822 7.91935 12.9705 7.92115 12.9585C7.9226 12.9204 7.92409 12.8823 7.92554 12.8442C7.92849 12.8325 7.93139 12.8208 7.93433 12.8091C7.93376 12.7572 7.93815 12.7059 7.94752 12.6553C7.94897 12.6172 7.95046 12.5791 7.95191 12.541C7.95485 12.5293 7.95775 12.5176 7.9607 12.5059C7.96013 12.454 7.96452 12.4027 7.97388 12.3521C7.97973 12.2642 7.98562 12.1763 7.99146 12.0884C7.9944 12.0766 7.9973 12.065 8.00025 12.0532C8.0017 12.0137 8.00319 11.9741 8.00464 11.9346C8.00689 11.9241 8.00983 11.9139 8.01343 11.9038C8.01488 11.8643 8.01638 11.8247 8.01783 11.7852C8.02077 11.7734 8.02367 11.7617 8.02662 11.75C8.03686 11.6094 8.04714 11.4688 8.05738 11.3281C8.06142 11.3167 8.06437 11.305 8.06617 11.293C8.06762 11.2549 8.06911 11.2168 8.07056 11.1787C8.07351 11.167 8.07641 11.1553 8.07935 11.1436C8.0808 11.1069 8.0823 11.0703 8.08375 11.0337C8.09302 10.9815 8.09741 10.9288 8.09693 10.8755C8.09987 10.8638 8.10277 10.8521 8.10572 10.8403C8.10717 10.8022 8.10866 10.7642 8.11011 10.7261C8.11947 10.6754 8.12387 10.6241 8.1233 10.5723C8.12734 10.5608 8.13028 10.5491 8.13209 10.5371C8.14232 10.3979 8.15261 10.2588 8.16285 10.1196C8.16579 10.1079 8.16869 10.0962 8.17164 10.0845C8.17309 10.0449 8.17458 10.0054 8.17603 9.96582C8.17963 9.95576 8.18258 9.94552 8.18482 9.93506C8.19066 9.84422 8.19655 9.75343 8.2024 9.6626C8.20644 9.65117 8.20939 9.63944 8.21119 9.62744C8.21703 9.53955 8.22292 9.45166 8.22877 9.36377C8.23057 9.35176 8.23351 9.34004 8.23755 9.32861C8.239 9.2876 8.2405 9.24658 8.24195 9.20557C8.24652 9.19583 8.24946 9.18558 8.25074 9.1748C8.25219 9.13672 8.25368 9.09863 8.25513 9.06055C8.25808 9.04883 8.26098 9.03711 8.26392 9.02539C8.26537 8.98438 8.26687 8.94336 8.26832 8.90234C8.27192 8.89229 8.27486 8.88203 8.2771 8.87158C8.27653 8.81972 8.28093 8.76846 8.29029 8.71777C8.29728 8.63007 8.30312 8.54218 8.30787 8.4541C8.31081 8.44238 8.31371 8.43067 8.31666 8.41895C8.32136 8.33092 8.32725 8.24303 8.33423 8.15527C8.33718 8.14355 8.34008 8.13184 8.34302 8.12012C8.34447 8.0791 8.34597 8.03808 8.34742 7.99707C8.35146 7.98564 8.3544 7.97392 8.35621 7.96191C8.36205 7.87405 8.3679 7.78616 8.37378 7.69824C8.37783 7.68681 8.38077 7.67509 8.38257 7.66309C8.39272 7.52388 8.40296 7.38472 8.41334 7.24561C8.41514 7.2336 8.41808 7.22188 8.42212 7.21045C8.42357 7.16944 8.42507 7.12842 8.42652 7.0874C8.43056 7.07597 8.43351 7.06425 8.43531 7.05225C8.43478 7.00185 8.43918 6.95204 8.44849 6.90283C8.4481 6.8525 8.45249 6.8027 8.46168 6.75342C8.46313 6.71387 8.46462 6.67432 8.46607 6.63477C8.46967 6.62471 8.47262 6.61445 8.47486 6.604C8.4807 6.51318 8.48659 6.42236 8.49244 6.33154C8.50057 6.30112 8.50571 6.27035 8.50782 6.23926Z" fill="#AA0000"/>
<path opacity="0.951" fill-rule="evenodd" clip-rule="evenodd" d="M8.43308 18.1221C6.30907 18.1221 4.18503 18.1221 2.06101 18.1221C2.04825 18.1084 2.03214 18.1018 2.01267 18.1023C1.82948 18.032 1.72767 17.8994 1.70725 17.7046C1.70375 17.6859 1.70448 17.6676 1.70944 17.6497C3.77048 17.6482 5.83151 17.6467 7.89255 17.6453C8.12506 17.6293 8.27523 17.5114 8.34299 17.2915C8.34268 17.2684 8.34708 17.2464 8.35617 17.2256C8.35573 17.1795 8.36013 17.1341 8.36936 17.0894C8.37973 16.9502 8.38997 16.811 8.40012 16.6719C8.40372 16.6618 8.40667 16.6516 8.40891 16.6411C8.41036 16.6016 8.41185 16.562 8.4133 16.5225C8.41625 16.5107 8.41915 16.4991 8.42209 16.4873C8.42851 16.3981 8.43435 16.3087 8.43967 16.2193C8.44371 16.2078 8.44666 16.1961 8.44846 16.1841C8.44991 16.146 8.4514 16.1079 8.45285 16.0698C8.4558 16.0581 8.4587 16.0464 8.46164 16.0347C8.4612 15.9829 8.4656 15.9316 8.47482 15.8809C8.47628 15.8428 8.47777 15.8047 8.47922 15.7666C8.48146 15.7562 8.48441 15.7459 8.48801 15.7359C8.48946 15.6949 8.49095 15.6538 8.4924 15.6128C8.49645 15.6014 8.49939 15.5897 8.50119 15.5777C8.50264 15.5396 8.50414 15.5015 8.50559 15.4634C8.50853 15.4517 8.51143 15.44 8.51438 15.4282C8.5138 15.3764 8.5182 15.3251 8.52756 15.2744C8.52901 15.2349 8.5305 15.1953 8.53195 15.1558C8.53556 15.1457 8.5385 15.1355 8.54074 15.125C8.54219 15.0869 8.54369 15.0489 8.54514 15.0108C8.54808 14.999 8.55098 14.9873 8.55393 14.9756C8.55538 14.9346 8.55687 14.8936 8.55832 14.8526C8.56127 14.8438 8.56417 14.835 8.56711 14.8262C8.56856 14.7866 8.57005 14.7471 8.5715 14.7075C8.57445 14.6958 8.57735 14.6841 8.58029 14.6724C8.59045 14.5318 8.60068 14.3911 8.61106 14.2505C8.614 14.2388 8.6169 14.2271 8.61984 14.2154C8.62129 14.1787 8.62279 14.1421 8.62424 14.1055C8.63351 14.0533 8.63791 14.0005 8.63742 13.9473C8.64103 13.9372 8.64397 13.927 8.64621 13.9165C8.64766 13.8755 8.64916 13.8345 8.65061 13.7935C8.65421 13.7834 8.65715 13.7732 8.6594 13.7627C8.66963 13.6221 8.67992 13.4815 8.69016 13.3408C8.69376 13.3308 8.6967 13.3205 8.69895 13.3101C8.70426 13.2207 8.71011 13.1313 8.71652 13.042C8.71947 13.0303 8.72237 13.0186 8.72531 13.0069C8.7319 12.9176 8.73775 12.8282 8.74289 12.7388C8.75023 12.6758 8.75753 12.6128 8.76486 12.5498C8.76631 12.5117 8.76781 12.4737 8.76926 12.4356C8.7722 12.4238 8.7751 12.4121 8.77805 12.4004C8.7795 12.3609 8.78099 12.3213 8.78244 12.2818C8.78605 12.2717 8.78899 12.2615 8.79123 12.251C8.79268 12.2114 8.79418 12.1719 8.79563 12.1323C8.79857 12.1206 8.80147 12.1089 8.80441 12.0972C8.80587 12.0576 8.80736 12.0181 8.80881 11.9785C8.81338 11.9688 8.81632 11.9585 8.8176 11.9478C8.81905 11.9068 8.82054 11.8657 8.82199 11.8247C8.82933 11.7632 8.83663 11.7017 8.84397 11.6402C8.85095 11.5524 8.8568 11.4646 8.86154 11.3765C8.86449 11.3648 8.86739 11.3531 8.87033 11.3413C8.88057 11.2007 8.89086 11.0601 8.90109 10.9195C8.90804 10.9026 8.91024 10.8858 8.90769 10.8689C8.90975 10.8226 8.91489 10.7765 8.92307 10.7305C8.92254 10.6801 8.92693 10.6303 8.93625 10.5811C8.94675 10.442 8.95699 10.3028 8.96701 10.1636C8.97106 10.1522 8.974 10.1404 8.9758 10.1284C8.97532 10.0751 8.97971 10.0224 8.98899 9.97024C8.9954 9.88388 9.00125 9.79749 9.00656 9.71096C9.00951 9.69923 9.01241 9.68754 9.01535 9.6758C9.01478 9.62395 9.01918 9.57266 9.02854 9.52199C9.02999 9.48389 9.03148 9.44584 9.03293 9.40774C9.03587 9.39602 9.03878 9.3843 9.04172 9.37258C9.04805 9.28337 9.05389 9.19402 9.0593 9.10451C9.06787 9.08092 9.07006 9.05821 9.06589 9.0364C9.06817 8.9945 9.07332 8.95275 9.08127 8.91115C9.08074 8.86222 9.08514 8.81388 9.09445 8.76614C9.10201 8.67701 9.10786 8.58766 9.11203 8.49807C9.11608 8.48664 9.11902 8.47492 9.12082 8.46291C9.12776 8.37377 9.13361 8.28442 9.1384 8.19485C9.14701 8.16815 9.14921 8.14398 9.14499 8.12234C9.14723 8.08333 9.15233 8.04451 9.16037 8.00588C9.16626 7.91796 9.17211 7.83007 9.17795 7.74221C9.18199 7.73078 9.18494 7.71906 9.18674 7.70705C9.18819 7.66897 9.18968 7.63088 9.19113 7.5928C9.19408 7.58108 9.19698 7.56936 9.19992 7.55764C9.20137 7.51809 9.20287 7.47854 9.20432 7.43899C9.21763 7.31309 9.23011 7.18711 9.24167 7.06106C9.25204 7.06034 9.26228 7.06107 9.27243 7.06325C9.53457 7.21464 9.65981 7.44242 9.64816 7.7466C9.63894 7.79735 9.63454 7.84862 9.63498 7.90041C9.629 7.98366 9.62096 8.06642 9.61081 8.1487C9.61226 8.15017 9.61376 8.15163 9.61521 8.1531C9.60479 8.23265 9.59525 8.31248 9.58664 8.3926C9.57983 8.48031 9.57399 8.5682 9.56906 8.65627C9.56265 8.67766 9.56045 8.69891 9.56247 8.71999C9.55891 8.74967 9.55671 8.7797 9.55588 8.81008C9.54147 8.96065 9.52828 9.11153 9.51633 9.26272C9.51286 9.27577 9.50991 9.28896 9.50754 9.30227C9.50807 9.35266 9.50367 9.40246 9.49436 9.45168C9.48539 9.62601 9.4715 9.7996 9.45261 9.97243C9.45406 9.97388 9.45555 9.97538 9.457 9.97683C9.44562 10.0548 9.43613 10.1331 9.42844 10.2119C9.42699 10.25 9.42549 10.2881 9.42404 10.3262C9.42044 10.3363 9.4175 10.3465 9.41525 10.357C9.40844 10.4826 9.39891 10.6078 9.38669 10.7327C9.38814 10.7341 9.38963 10.7356 9.39108 10.7371C9.38805 10.7554 9.38441 10.7737 9.3801 10.792C9.36806 10.9373 9.35637 11.0838 9.34494 11.2315C9.3409 11.2429 9.33795 11.2546 9.33615 11.2666C9.32987 11.3938 9.32033 11.5205 9.30759 11.6468C9.30904 11.6482 9.31053 11.6497 9.31198 11.6511C9.30834 11.6678 9.30469 11.6847 9.301 11.7017C9.29955 11.7763 9.29295 11.8503 9.28122 11.9236C9.28184 11.927 9.28333 11.9299 9.28562 11.9324C9.28232 11.9668 9.27718 12.0013 9.27024 12.0357C9.26878 12.0708 9.26729 12.106 9.26584 12.1411C9.2629 12.1529 9.26 12.1646 9.25705 12.1763C9.24914 12.3067 9.24035 12.437 9.23068 12.5674C9.22915 12.5809 9.22625 12.5941 9.2219 12.607C9.21139 12.7535 9.1997 12.9 9.18674 13.0464C9.18327 13.0595 9.18032 13.0726 9.17795 13.086C9.1765 13.1255 9.17501 13.1651 9.17356 13.2046C9.15958 13.3888 9.14275 13.5727 9.12302 13.7561C9.12447 13.7576 9.12596 13.7591 9.12741 13.7605C9.11577 13.8385 9.10628 13.9168 9.09885 13.9956C9.09191 14.1247 9.08312 14.2536 9.07248 14.3823C9.06475 14.4757 9.05521 14.5687 9.04392 14.6614C9.04594 14.6632 9.04739 14.6654 9.04831 14.668C9.04154 14.7059 9.03566 14.744 9.03073 14.7822C9.03166 14.7848 9.03311 14.787 9.03513 14.7888C9.01623 14.9573 9.00234 15.1265 8.99338 15.2964C8.99101 15.3097 8.98806 15.3229 8.98459 15.336C8.98248 15.4136 8.97589 15.4905 8.96482 15.5667C8.96688 15.5907 8.96468 15.6148 8.95822 15.6392C8.94513 15.8267 8.92975 16.0135 8.91208 16.1995C8.91353 16.2009 8.91503 16.2024 8.91648 16.2039C8.91226 16.2175 8.90861 16.2314 8.90549 16.2456C8.89424 16.4243 8.87886 16.6023 8.85935 16.7796C8.8608 16.781 8.86229 16.7825 8.86374 16.784C8.85377 16.8406 8.84788 16.8977 8.84616 16.9553C8.84761 16.9568 8.84911 16.9583 8.85056 16.9597C8.84713 16.9736 8.84348 16.9875 8.83957 17.0015C8.83812 17.0366 8.83663 17.0718 8.83518 17.107C8.83386 17.1219 8.83096 17.1366 8.82639 17.1509C8.81523 17.3271 8.80055 17.5029 8.78244 17.6782C8.75836 17.8121 8.69903 17.9271 8.60446 18.0232C8.55924 18.0627 8.50796 18.0905 8.45065 18.1067C8.44266 18.1096 8.43677 18.1148 8.43308 18.1221Z" fill="#AA0000"/>
<path opacity="0.928" fill-rule="evenodd" clip-rule="evenodd" d="M5.58984 11.9478C5.98329 11.9265 6.33335 12.0371 6.64014 12.2795C6.68914 12.3224 6.73748 12.3664 6.78516 12.4114C6.7892 12.4203 6.79069 12.4299 6.78955 12.4399C6.77628 12.4406 6.7631 12.4399 6.75 12.4377C6.72363 12.4304 6.69727 12.4231 6.6709 12.4158C6.65187 12.4143 6.6328 12.4128 6.61377 12.4114C6.60792 12.4084 6.60204 12.4055 6.59619 12.4026C6.56982 12.4011 6.54346 12.3996 6.51709 12.3982C6.5101 12.3944 6.50281 12.3915 6.49512 12.3894C6.38974 12.3821 6.28427 12.3777 6.17871 12.3762C6.10866 12.3847 6.03835 12.3891 5.96777 12.3894C5.9585 12.391 5.94971 12.3939 5.94141 12.3982C5.88494 12.3987 5.82926 12.4046 5.77441 12.4158C5.75358 12.4249 5.73161 12.4293 5.7085 12.429C5.26021 12.5189 4.85736 12.7078 4.5 12.9958C4.42797 13.059 4.35841 13.1257 4.29126 13.1958C4.28113 13.2169 4.26575 13.233 4.24512 13.2441C4.23677 13.2384 4.23237 13.2304 4.23193 13.22C4.33238 12.6594 4.64585 12.2668 5.17236 12.0422C5.22787 12.0237 5.28354 12.0062 5.33936 11.9895C5.3815 11.9795 5.42399 11.9707 5.4668 11.9631C5.5092 11.9627 5.55025 11.9576 5.58984 11.9478Z" fill="#AA0000"/>
<path opacity="0.938" fill-rule="evenodd" clip-rule="evenodd" d="M10.7621 12.2642C19.1572 12.2634 27.5522 12.2642 35.9472 12.2664C35.9527 12.2761 35.9557 12.2871 35.956 12.2994C35.945 12.3986 35.9398 12.4982 35.9406 12.5982C35.9333 12.6458 35.9282 12.6934 35.9252 12.741C27.5302 12.7439 19.1352 12.7439 10.7402 12.741C10.7396 12.6658 10.7396 12.5911 10.7402 12.5169C10.751 12.4377 10.7561 12.3579 10.7556 12.2774C10.7578 12.2729 10.76 12.2685 10.7621 12.2642Z" fill="#AA0000"/>
<path opacity="0.919" fill-rule="evenodd" clip-rule="evenodd" d="M1.78418 12.9497C1.85451 12.949 1.92482 12.9497 1.99512 12.9519C2.02969 12.9604 2.06485 12.9648 2.10059 12.9651C2.14329 12.9731 2.18577 12.9819 2.22803 12.9915C2.42616 13.0499 2.60487 13.1466 2.76416 13.2815C2.79143 13.311 2.82073 13.3381 2.85205 13.3628C2.85762 13.371 2.85762 13.3791 2.85205 13.387C2.8286 13.392 2.80662 13.3891 2.78613 13.3782C2.74308 13.3689 2.69914 13.363 2.6543 13.3606C2.64662 13.3586 2.6393 13.3556 2.63232 13.3518C2.58495 13.352 2.53807 13.3476 2.4917 13.3387C2.40381 13.3357 2.31592 13.3357 2.22803 13.3387C2.1787 13.3477 2.1289 13.3521 2.07861 13.3518C2.07164 13.3556 2.06431 13.3586 2.05664 13.3606C2.00758 13.3625 1.95924 13.3684 1.91162 13.3782C1.90647 13.3801 1.90208 13.383 1.89844 13.387C1.45809 13.4666 1.07137 13.657 0.738281 13.9583C0.691633 14.0013 0.649151 14.0474 0.61084 14.0967C0.599722 14.0995 0.589469 14.1039 0.580078 14.1099C0.632685 13.7183 0.82165 13.4071 1.14697 13.1761C1.20757 13.1393 1.2691 13.1041 1.33154 13.0706C1.36045 13.0598 1.38975 13.0495 1.41943 13.0398C1.4291 13.0308 1.44082 13.0264 1.45459 13.0266C1.46577 13.0175 1.47895 13.0131 1.49414 13.0135C1.51318 13.0061 1.53223 12.9988 1.55127 12.9915C1.62809 12.9741 1.70573 12.9602 1.78418 12.9497Z" fill="#AA0000"/>
<path opacity="0.976" fill-rule="evenodd" clip-rule="evenodd" d="M22.3198 13.899C22.8252 13.8982 23.3306 13.899 23.8359 13.9012C23.9779 13.9098 24.12 13.9142 24.2622 13.9143C24.3203 13.9236 24.3789 13.928 24.438 13.9275C24.4468 13.9305 24.4556 13.9334 24.4644 13.9363C24.4937 13.9378 24.5229 13.9393 24.5522 13.9407C24.5592 13.9445 24.5665 13.9474 24.5742 13.9495C24.6157 13.9527 24.6567 13.9586 24.6973 13.9671C24.7009 13.9711 24.7053 13.974 24.7104 13.9759C24.7396 13.9814 24.7689 13.9873 24.7983 13.9934C24.8013 13.9964 24.8042 13.9993 24.8071 14.0022C24.8296 14.0069 24.8516 14.0128 24.873 14.0198C24.876 14.0228 24.8789 14.0257 24.8818 14.0286C25.1359 14.1142 25.3022 14.2848 25.3806 14.5406C25.3836 14.5435 25.3865 14.5464 25.3894 14.5494C25.3909 14.5611 25.3923 14.5728 25.3938 14.5845C25.3967 14.5875 25.3996 14.5904 25.4026 14.5933C25.4108 14.6314 25.4196 14.6695 25.429 14.7076C25.4393 14.7747 25.4481 14.8422 25.4553 14.9097C25.4583 14.9961 25.4583 15.0825 25.4553 15.169C25.4465 15.239 25.4421 15.3093 25.4421 15.3799C25.435 15.3991 25.4328 15.4182 25.4355 15.437C25.4324 15.4677 25.4302 15.4985 25.429 15.5293C25.4226 15.5448 25.4204 15.5602 25.4224 15.5755C25.4204 15.616 25.4153 15.6563 25.407 15.6963C25.4075 15.738 25.4031 15.779 25.3938 15.8194C25.3943 15.8611 25.3899 15.9021 25.3806 15.9424C25.3818 15.9833 25.3766 16.0228 25.3652 16.0611C25.3674 16.0664 25.3689 16.0715 25.3696 16.0765C25.3597 16.1262 25.3531 16.1767 25.3499 16.2281C25.3449 16.2344 25.342 16.2418 25.3411 16.25C25.3414 16.2788 25.337 16.3066 25.3279 16.3335C25.3264 16.3541 25.3249 16.3745 25.3235 16.3951C25.3143 16.4174 25.3099 16.4408 25.3103 16.4654C25.3012 16.4862 25.2968 16.5082 25.2971 16.5313C25.2886 16.5709 25.2798 16.6104 25.2708 16.6499C25.2668 16.6536 25.2638 16.658 25.262 16.6631C25.2524 16.7045 25.2421 16.7455 25.2312 16.7862C25.0873 17.2259 24.7922 17.5065 24.3457 17.6277C24.2848 17.6377 24.2248 17.6509 24.1655 17.6673C24.1015 17.6778 24.0386 17.6866 23.9766 17.6936C23.947 17.6945 23.9178 17.6967 23.8887 17.7002C23.8861 17.6993 23.8839 17.6979 23.8821 17.6958C23.8609 17.699 23.8397 17.7027 23.8184 17.7068C23.7099 17.7083 23.6016 17.7098 23.4932 17.7112C23.4565 17.7132 23.4199 17.7161 23.3833 17.72C22.8398 17.723 22.2964 17.723 21.7529 17.72C21.5901 17.7132 21.4275 17.7045 21.2651 17.6936C21.199 17.6863 21.1331 17.6775 21.0674 17.6673C21.0625 17.6627 21.0566 17.6598 21.0498 17.6585C20.8946 17.6355 20.7496 17.5857 20.6147 17.5091C20.5149 17.443 20.4351 17.3588 20.3752 17.2564C20.3453 17.1916 20.3174 17.1257 20.2917 17.0586C20.2692 16.9656 20.2509 16.8718 20.2368 16.7774C20.2377 16.7748 20.2392 16.7726 20.2412 16.7708C20.2372 16.7146 20.2328 16.6582 20.228 16.6016C20.2333 16.532 20.2377 16.4625 20.2412 16.3929C20.2381 16.3454 20.2425 16.2986 20.2544 16.2522C20.2524 16.2504 20.2509 16.2482 20.25 16.2456C20.2608 16.0904 20.2754 15.9359 20.2939 15.782C20.2925 15.7806 20.291 15.7791 20.2896 15.7776C20.2927 15.7666 20.2963 15.7556 20.3005 15.7447C20.3219 15.5788 20.341 15.4132 20.3577 15.2481C20.382 15.1223 20.4091 14.9977 20.439 14.8745C20.4549 14.8328 20.4688 14.7903 20.4807 14.7471C20.5408 14.569 20.6382 14.4145 20.7729 14.2835C20.9154 14.1603 21.078 14.0753 21.2607 14.0286C21.2637 14.0257 21.2666 14.0228 21.2695 14.0198C21.2813 14.0184 21.293 14.0169 21.3047 14.0154C21.3252 14.0081 21.3457 14.0008 21.3662 13.9934C21.3794 13.992 21.3926 13.9905 21.4058 13.9891C21.4109 13.9872 21.4153 13.9843 21.4189 13.9803C21.4581 13.972 21.4976 13.9661 21.5376 13.9627C21.5434 13.9597 21.5493 13.9568 21.5552 13.9539C21.6146 13.9434 21.6747 13.9375 21.7354 13.9363C21.7471 13.9334 21.7588 13.9305 21.7705 13.9275C21.831 13.9277 21.891 13.9234 21.9507 13.9143C22.0356 13.9129 22.1206 13.9114 22.2056 13.9099C22.2443 13.9061 22.2824 13.9024 22.3198 13.899ZM22.9658 14.835C23.1736 14.8386 23.3817 14.8408 23.5898 14.8416C23.6971 14.8484 23.8041 14.8572 23.9106 14.868C23.9165 14.8709 23.9224 14.8738 23.9282 14.8767C24.0082 14.8838 24.0829 14.9072 24.1523 14.9471C24.2053 14.9878 24.2397 15.0397 24.2556 15.1031C24.256 15.1274 24.2604 15.1508 24.2688 15.1734C24.2702 15.2292 24.2739 15.2849 24.2798 15.3404C24.2728 15.4178 24.2691 15.4955 24.2688 15.5733C24.2606 15.6657 24.2518 15.758 24.2424 15.8501C24.2332 15.889 24.2289 15.9286 24.2292 15.9688C24.2272 15.9765 24.2242 15.9838 24.2205 15.9908C24.2191 16.043 24.2132 16.0943 24.2029 16.1446C24.1938 16.1654 24.1894 16.1874 24.1897 16.2105C24.1879 16.2156 24.1849 16.22 24.1809 16.2237C24.1777 16.2553 24.1718 16.286 24.1633 16.316C24.1478 16.3653 24.1302 16.4136 24.1106 16.461C24.0587 16.57 23.9788 16.6513 23.8711 16.7049C23.7311 16.7533 23.5861 16.7768 23.436 16.7752C23.4156 16.7788 23.3951 16.7818 23.3745 16.784C22.9497 16.7869 22.5249 16.7869 22.1001 16.784C22.0434 16.7749 21.9863 16.7705 21.9287 16.7708C21.8972 16.762 21.8649 16.7576 21.832 16.7576C21.7923 16.7506 21.7535 16.7411 21.7156 16.729C21.7085 16.7319 21.7019 16.7297 21.6958 16.7224C21.5699 16.6935 21.49 16.6166 21.4563 16.4917C21.4559 16.4675 21.4516 16.4441 21.4431 16.4214C21.4358 16.2779 21.4358 16.1343 21.4431 15.9908C21.4594 15.8724 21.4726 15.7538 21.4827 15.6348C21.4919 15.6065 21.4963 15.5771 21.4958 15.5469C21.5004 15.542 21.5034 15.5361 21.5046 15.5293C21.5042 15.5048 21.5086 15.4813 21.5178 15.459C21.5223 15.4222 21.5282 15.3855 21.5354 15.3492C21.5372 15.344 21.5402 15.3396 21.5442 15.336C21.5614 15.2242 21.601 15.1217 21.6628 15.0284C21.6812 15.01 21.6994 14.9918 21.7178 14.9734C21.8036 14.916 21.8988 14.8838 22.0034 14.8767C22.0111 14.8747 22.0184 14.8717 22.0254 14.868C22.0656 14.8682 22.1051 14.8638 22.144 14.8548C22.2156 14.8545 22.2859 14.8501 22.355 14.8416C22.5593 14.8408 22.763 14.8386 22.9658 14.835Z" fill="#AA0000"/>
<path opacity="0.971" fill-rule="evenodd" clip-rule="evenodd" d="M12.4849 13.9121C12.9565 13.9114 13.4282 13.9121 13.8999 13.9143C13.9993 13.9234 14.0989 13.9278 14.1987 13.9275C14.251 13.9366 14.3037 13.941 14.3569 13.9407C14.3652 13.945 14.374 13.9479 14.3833 13.9495C14.4337 13.9517 14.4835 13.9576 14.5327 13.9671C14.5862 13.9835 14.6404 13.9967 14.6953 14.0066C14.7065 14.0158 14.7197 14.0202 14.7349 14.0198C14.7378 14.0228 14.7407 14.0257 14.7437 14.0286C15.0053 14.1127 15.1525 14.2921 15.1853 14.5669C15.1882 14.5757 15.1911 14.5845 15.1941 14.5933C15.197 14.7076 15.197 14.8218 15.1941 14.9361C15.1911 14.9449 15.1882 14.9536 15.1853 14.9624C15.1852 15.0101 15.1801 15.057 15.1699 15.1031C14.7964 15.1031 14.4229 15.1031 14.0493 15.1031C14.0501 15.0444 14.0493 14.9859 14.0471 14.9273C14.0348 14.8732 14.0047 14.8322 13.957 14.8042C13.9451 14.802 13.9348 14.7969 13.9263 14.7889C13.9014 14.778 13.875 14.7721 13.8472 14.7713C13.8435 14.7673 13.8391 14.7643 13.834 14.7625C13.8025 14.7624 13.7718 14.758 13.7417 14.7493C13.6755 14.7488 13.6096 14.7444 13.5439 14.7361C13.311 14.7332 13.0781 14.7332 12.8452 14.7361C12.7944 14.7399 12.7439 14.7436 12.6936 14.7471C12.6911 14.7448 12.6882 14.7433 12.6848 14.7427C12.5875 14.7463 12.4901 14.7485 12.3926 14.7493C12.3667 14.7526 12.341 14.7562 12.3157 14.7603C12.3142 14.7588 12.3127 14.7573 12.3113 14.7559C12.2596 14.7595 12.2076 14.7617 12.1553 14.7625C12.1221 14.7708 12.0884 14.7752 12.0542 14.7757C11.9954 14.7918 11.9413 14.8181 11.8916 14.8548C11.8458 14.903 11.8158 14.9594 11.8015 15.024C11.7748 15.1926 11.843 15.3003 12.0059 15.347C12.0503 15.3472 12.0943 15.3516 12.1377 15.3601C12.5962 15.3616 13.0547 15.3631 13.5132 15.3645C13.6639 15.3734 13.8148 15.3778 13.9658 15.3777C14.1228 15.3848 14.2795 15.3936 14.436 15.4041C14.443 15.4079 14.4503 15.4108 14.458 15.4129C14.6376 15.4272 14.8002 15.4859 14.9458 15.5887C15.0032 15.6356 15.0508 15.6905 15.0886 15.7535C15.1073 15.7914 15.1248 15.8295 15.1414 15.8677C15.1547 15.931 15.1679 15.994 15.1809 16.0567C15.1893 16.2075 15.1893 16.3584 15.1809 16.5093C15.1766 16.5176 15.1737 16.5264 15.1721 16.5357C15.1703 16.5876 15.1644 16.6388 15.1545 16.6895C15.1463 16.7307 15.1375 16.7717 15.1282 16.8125C15.1263 16.8177 15.1234 16.8221 15.1194 16.8257C15.1148 16.8538 15.109 16.8817 15.1018 16.9092C15.0989 16.9122 15.096 16.9151 15.093 16.918C15.0502 17.0886 14.9674 17.2381 14.8447 17.3662C14.768 17.4382 14.6816 17.4947 14.5854 17.5354C14.4399 17.5922 14.2891 17.6288 14.1328 17.6453C14.1251 17.6474 14.1178 17.6503 14.1108 17.6541C14.0319 17.6637 13.9528 17.6725 13.8735 17.6805C13.7198 17.6913 13.5645 17.7001 13.4077 17.7068C12.8526 17.7098 12.2973 17.7098 11.7422 17.7068C11.6553 17.6975 11.5689 17.6931 11.4829 17.6936C11.4543 17.6892 11.4257 17.6856 11.3972 17.6827C11.3958 17.6841 11.3943 17.6856 11.3928 17.687C11.3102 17.6751 11.2275 17.6641 11.1445 17.6541C11.1396 17.6495 11.1337 17.6466 11.127 17.6453C10.9804 17.6255 10.8456 17.575 10.7227 17.4937C10.6049 17.4049 10.5324 17.2891 10.5051 17.1465C10.4922 17.0614 10.4842 16.9757 10.481 16.8894C10.4846 16.7485 10.4992 16.6093 10.5249 16.472C10.8999 16.469 11.2749 16.469 11.6499 16.472C11.6535 16.5471 11.6557 16.6225 11.6565 16.6983C11.6679 16.7412 11.6891 16.7785 11.7202 16.8103C11.7573 16.8344 11.7968 16.852 11.8389 16.8631C11.9218 16.8744 12.0053 16.8817 12.0894 16.885C12.4126 16.8965 12.7356 16.8972 13.0583 16.8872C13.0863 16.889 13.1142 16.8905 13.1418 16.8916C13.2815 16.8861 13.4214 16.881 13.5615 16.8763C13.619 16.8691 13.6762 16.8603 13.7329 16.8499C13.8014 16.8335 13.8658 16.8072 13.9263 16.7708C13.943 16.754 13.9598 16.7372 13.9768 16.7203C13.9873 16.703 13.9968 16.6854 14.0054 16.6675C14.0077 16.6531 14.0129 16.6399 14.0208 16.628C14.022 16.5949 14.0242 16.562 14.0273 16.5291C14.0329 16.4399 14.0036 16.3652 13.9395 16.305C13.9246 16.2961 13.91 16.2873 13.8955 16.2786C13.8666 16.269 13.8374 16.2602 13.8076 16.2522C13.7012 16.2389 13.5943 16.233 13.4868 16.2347C12.9756 16.2332 12.4643 16.2317 11.9531 16.2303C11.8595 16.225 11.7657 16.2221 11.6719 16.2215C11.569 16.2148 11.4665 16.206 11.3643 16.1951C11.3159 16.1883 11.2683 16.1788 11.2214 16.1665C11.072 16.1394 10.9402 16.0735 10.8259 15.9688C10.7709 15.9085 10.727 15.8412 10.6941 15.7666C10.6817 15.7333 10.6715 15.6996 10.6633 15.6656C10.6526 15.6018 10.6438 15.5373 10.637 15.4722C10.6272 15.214 10.6587 14.9627 10.7314 14.7185C10.8292 14.3454 11.065 14.1154 11.439 14.0286C11.4441 14.0268 11.4485 14.0238 11.4521 14.0198C11.4868 14.0113 11.5219 14.0055 11.5576 14.0022C11.5613 13.9982 11.5657 13.9953 11.5708 13.9934C11.5898 13.992 11.6089 13.9905 11.6279 13.9891C11.6338 13.9861 11.6397 13.9832 11.6455 13.9803C11.7006 13.9707 11.7563 13.9649 11.8125 13.9627C11.8213 13.9597 11.8301 13.9568 11.8389 13.9539C11.8848 13.9542 11.9302 13.9498 11.9751 13.9407C12.0234 13.9393 12.0718 13.9378 12.1201 13.9363C12.1348 13.9334 12.1494 13.9305 12.1641 13.9275C12.2402 13.9261 12.3164 13.9246 12.3926 13.9231C12.424 13.9198 12.4548 13.9161 12.4849 13.9121Z" fill="#AA0000"/>
<path opacity="0.971" fill-rule="evenodd" clip-rule="evenodd" d="M32.77 13.9121C33.2417 13.9114 33.7134 13.9121 34.1851 13.9143C34.2116 13.9162 34.2379 13.9191 34.2642 13.9231C34.337 13.9239 34.4095 13.9261 34.4817 13.9297C34.4831 13.9283 34.4846 13.9268 34.4861 13.9253C34.4994 13.9306 34.5133 13.9343 34.5278 13.9363C34.5644 13.9378 34.6011 13.9393 34.6377 13.9407C34.6465 13.9437 34.6553 13.9466 34.6641 13.9495C34.7161 13.9508 34.7674 13.9566 34.8179 13.9671C34.8696 13.9837 34.9223 13.9969 34.9761 14.0066C35.024 14.0224 35.0708 14.0399 35.1167 14.0594C35.2302 14.1128 35.3203 14.1926 35.387 14.2989C35.4131 14.3499 35.435 14.4026 35.4529 14.4571C35.4676 14.5206 35.4786 14.5843 35.4858 14.6482C35.4858 14.7215 35.4858 14.7947 35.4858 14.868C35.4834 14.8993 35.4775 14.9301 35.4683 14.9602C35.4708 14.9642 35.4723 14.9685 35.4727 14.9734C35.4687 15.0171 35.4628 15.0603 35.4551 15.1031C35.0815 15.1031 34.708 15.1031 34.3345 15.1031C34.3352 15.0459 34.3345 14.9888 34.3323 14.9317C34.3227 14.8927 34.3044 14.8583 34.2773 14.8284C34.2439 14.8069 34.2088 14.7893 34.1719 14.7757C34.1239 14.7653 34.0756 14.7566 34.0269 14.7493C33.9606 14.749 33.8947 14.7446 33.8291 14.7361C33.5962 14.7332 33.3633 14.7332 33.1304 14.7361C33.0796 14.7399 33.029 14.7436 32.9788 14.7471C32.9763 14.7448 32.9734 14.7433 32.97 14.7427C32.8712 14.7463 32.7723 14.7485 32.6733 14.7493C32.649 14.7528 32.6248 14.7565 32.6008 14.7603C32.5994 14.7588 32.5979 14.7573 32.5964 14.7559C32.5448 14.7595 32.4928 14.7617 32.4404 14.7625C32.4073 14.7708 32.3736 14.7752 32.3394 14.7757C32.2805 14.792 32.2263 14.8183 32.1768 14.8548C32.1312 14.9011 32.1012 14.956 32.0867 15.0196C32.058 15.19 32.1261 15.2991 32.291 15.347C32.3355 15.3472 32.3794 15.3516 32.4229 15.3601C32.8813 15.3616 33.3399 15.3631 33.7983 15.3645C33.9491 15.3734 34.0999 15.3778 34.251 15.3777C34.4064 15.3848 34.5617 15.3936 34.7168 15.4041C34.7497 15.4133 34.7834 15.4177 34.8179 15.4173C34.8228 15.4218 34.8287 15.4248 34.8354 15.4261C34.9711 15.4498 35.0971 15.4996 35.2134 15.5755C35.2858 15.6317 35.3436 15.6998 35.387 15.7798C35.4072 15.8261 35.4248 15.8729 35.4397 15.9204C35.4499 15.9682 35.4587 16.0166 35.4661 16.0655C35.4669 16.095 35.4691 16.1243 35.4727 16.1534C35.4726 16.2432 35.4726 16.3333 35.4727 16.4236C35.463 16.4838 35.4564 16.5446 35.4529 16.606C35.4499 16.6118 35.447 16.6177 35.4441 16.6236C35.4428 16.6685 35.4369 16.7125 35.4265 16.7554C35.4106 16.8204 35.393 16.8849 35.3738 16.9488C35.3708 16.9517 35.3679 16.9546 35.365 16.9576C35.3557 16.9898 35.3454 17.022 35.3342 17.0542C35.2403 17.2903 35.074 17.4551 34.8354 17.5486C34.7959 17.5581 34.7578 17.5713 34.7212 17.5882C34.6411 17.6086 34.5606 17.6262 34.4795 17.6409C34.4259 17.6508 34.3717 17.6566 34.3169 17.6585C34.3081 17.6614 34.2993 17.6643 34.2905 17.6673C34.2202 17.6694 34.1506 17.676 34.0818 17.687C34.0717 17.6869 34.0614 17.6854 34.051 17.6827C33.9783 17.6928 33.905 17.6986 33.8313 17.7002C33.8183 17.7006 33.8052 17.6991 33.7917 17.6958C33.7604 17.6991 33.729 17.7028 33.6973 17.7068C33.1406 17.7098 32.584 17.7098 32.0273 17.7068C31.9883 17.7027 31.9495 17.699 31.9109 17.6958C31.9035 17.6973 31.8963 17.6988 31.8889 17.7002C31.8475 17.6966 31.8058 17.6944 31.7637 17.6936C31.736 17.6889 31.7081 17.6852 31.6802 17.6827C31.6462 17.6856 31.6125 17.6812 31.5791 17.6695C31.5765 17.6704 31.5743 17.6718 31.5725 17.6739C31.5435 17.6718 31.5149 17.6667 31.4868 17.6585C31.4678 17.657 31.4487 17.6555 31.4297 17.6541C31.4074 17.6449 31.3839 17.6405 31.3594 17.6409C31.2498 17.6155 31.1458 17.576 31.0474 17.5223C30.8978 17.4226 30.8092 17.2842 30.7815 17.107C30.7753 17.0337 30.7702 16.9605 30.7661 16.8872C30.7708 16.7482 30.7847 16.6106 30.8079 16.4742C31.1847 16.4698 31.562 16.4683 31.9395 16.4698C31.9387 16.5474 31.9395 16.6251 31.9417 16.7027C31.9483 16.7276 31.9585 16.7511 31.9724 16.773C32.012 16.8214 32.0625 16.8514 32.124 16.8631C32.1584 16.8629 32.1921 16.8673 32.2251 16.8763C32.3129 16.877 32.4 16.8821 32.4866 16.8916C32.4939 16.8902 32.5012 16.8887 32.5085 16.8872C32.6108 16.8907 32.7133 16.8937 32.8162 16.896C33.0039 16.8934 33.1915 16.8905 33.3787 16.8872C33.3943 16.8863 33.4104 16.8878 33.427 16.8916C33.5652 16.8866 33.7036 16.8814 33.8423 16.8763C33.8783 16.8674 33.9149 16.863 33.9521 16.8631C33.9589 16.8618 33.9648 16.8589 33.9697 16.8543C34.0474 16.8437 34.1207 16.8203 34.1895 16.784C34.2494 16.7447 34.2882 16.6912 34.3059 16.6236C34.3089 16.562 34.3089 16.5005 34.3059 16.439C34.2874 16.3677 34.2456 16.3142 34.1807 16.2786C34.1519 16.2689 34.1226 16.2601 34.0928 16.2522C33.9878 16.2389 33.8824 16.233 33.7764 16.2347C33.2637 16.2332 32.751 16.2317 32.2383 16.2303C32.143 16.2256 32.0478 16.222 31.9526 16.2193C31.95 16.2202 31.9478 16.2216 31.946 16.2237C31.9235 16.2205 31.9007 16.2169 31.8779 16.2127C31.7151 16.2084 31.5569 16.185 31.4033 16.1424C31.1023 16.0389 30.9433 15.8286 30.9265 15.5118C30.9207 15.4386 30.9192 15.3653 30.9221 15.292C30.9284 15.1935 30.9371 15.0954 30.9485 14.9976C30.9506 14.9899 30.9535 14.9826 30.9573 14.9756C30.9604 14.9367 30.9663 14.8986 30.9749 14.8614C30.982 14.832 30.9915 14.8034 31.0034 14.7757C31.0014 14.7739 30.9999 14.7717 30.999 14.7691C31.0148 14.7119 31.0338 14.6562 31.0562 14.6021C31.1208 14.4128 31.2379 14.2626 31.4077 14.1516C31.4612 14.1233 31.5154 14.0969 31.5703 14.0725C31.6114 14.0634 31.651 14.0502 31.689 14.033C31.7007 14.0315 31.7124 14.0301 31.7241 14.0286C31.7293 14.0268 31.7337 14.0238 31.7373 14.0198C31.8023 14.01 31.8668 13.9968 31.9307 13.9803C31.9526 13.9788 31.9746 13.9773 31.9966 13.9759C32.0024 13.9729 32.0083 13.97 32.0142 13.9671C32.0515 13.9674 32.0881 13.963 32.124 13.9539C32.17 13.9542 32.2154 13.9498 32.2603 13.9407C32.3071 13.9393 32.354 13.9378 32.4009 13.9363C32.4171 13.9339 32.4332 13.9309 32.4492 13.9275C32.5239 13.9261 32.5986 13.9246 32.6733 13.9231C32.7063 13.92 32.7385 13.9163 32.77 13.9121Z" fill="#AA0000"/>
<path opacity="0.973" fill-rule="evenodd" clip-rule="evenodd" d="M16.3037 13.9385C16.6904 13.9385 17.0771 13.9385 17.4638 13.9385C17.4545 13.9965 17.4494 14.0551 17.4484 14.1143C17.4392 14.1546 17.4348 14.1956 17.4353 14.2373C17.4259 14.2791 17.4215 14.3216 17.4221 14.3647C17.42 14.3724 17.4171 14.3797 17.4133 14.3867C17.4118 14.4204 17.4103 14.4541 17.4089 14.4878C17.4059 14.4966 17.403 14.5054 17.4001 14.5142C17.3987 14.5449 17.3972 14.5757 17.3957 14.6064C17.3928 14.6152 17.3899 14.624 17.3869 14.6328C17.3817 14.7047 17.3759 14.7765 17.3693 14.8481C17.3671 14.8586 17.3642 14.8688 17.3606 14.8789C17.3558 14.9494 17.35 15.0197 17.343 15.0898C17.3337 15.1317 17.3293 15.1741 17.3298 15.2173C17.3268 15.2261 17.3239 15.2349 17.321 15.2437C17.3195 15.2744 17.3181 15.3052 17.3166 15.3359C17.3073 15.3763 17.3029 15.4173 17.3034 15.459C17.2941 15.4993 17.2898 15.5403 17.2902 15.582C17.2866 15.5921 17.2837 15.6023 17.2814 15.6128C17.2746 15.6845 17.2688 15.7563 17.2639 15.8281C17.2609 15.8369 17.258 15.8457 17.2551 15.8545C17.2536 15.8853 17.2521 15.916 17.2507 15.9468C17.2414 15.9871 17.237 16.0281 17.2375 16.0698C17.2346 16.0786 17.2317 16.0874 17.2287 16.0962C17.2273 16.127 17.2258 16.1577 17.2243 16.1885C17.2221 16.1989 17.2191 16.2092 17.2155 16.2192C17.2102 16.2912 17.2044 16.3629 17.198 16.4346C17.1964 16.4438 17.1934 16.4526 17.1892 16.4609C17.1897 16.5041 17.1853 16.5465 17.176 16.5884C17.1745 16.6191 17.173 16.6499 17.1716 16.6807C17.1637 16.7004 17.16 16.721 17.1606 16.7422C18.0131 16.7422 18.8657 16.7422 19.7182 16.7422C19.7165 16.7823 19.7143 16.8233 19.7116 16.8652C19.708 16.8753 19.7051 16.8855 19.7028 16.896C19.6872 17.0912 19.6682 17.2861 19.6457 17.4805C19.6393 17.496 19.6371 17.5114 19.6391 17.5266C19.6356 17.5788 19.6298 17.6308 19.6215 17.6826C18.3837 17.6885 17.1459 17.6885 15.9082 17.6826C15.9031 17.6608 15.9023 17.6388 15.906 17.6167C15.9133 17.564 15.9206 17.5112 15.9279 17.4585C15.9288 17.4296 15.931 17.401 15.9345 17.3728C15.9331 17.3714 15.9316 17.3699 15.9301 17.3684C15.9341 17.3576 15.9378 17.3467 15.9411 17.3354C15.9456 17.2664 15.9514 17.1975 15.9587 17.1289C15.9605 17.1169 15.9634 17.1052 15.9675 17.0938C15.9779 16.981 15.9881 16.8682 15.9982 16.7554C16.0005 16.7449 16.0034 16.7347 16.007 16.7246C16.0079 16.6957 16.0101 16.6671 16.0136 16.6389C16.0122 16.6375 16.0107 16.636 16.0092 16.6345C16.0145 16.6242 16.0182 16.6132 16.0202 16.6016C16.0305 16.4931 16.0407 16.3847 16.051 16.2764C16.06 16.2315 16.0644 16.1861 16.0642 16.1401C16.0671 16.1313 16.07 16.1226 16.073 16.1138C16.0744 16.083 16.0759 16.0522 16.0773 16.0215C16.0796 16.011 16.0825 16.0008 16.0861 15.9907C16.087 15.9618 16.0892 15.9332 16.0927 15.905C16.0913 15.9036 16.0898 15.9021 16.0883 15.9006C16.0923 15.8899 16.096 15.8789 16.0993 15.8677C16.1097 15.7594 16.12 15.6509 16.1301 15.5425C16.139 15.4991 16.1434 15.4552 16.1433 15.4106C16.1524 15.3718 16.1568 15.3322 16.1564 15.292C16.1583 15.28 16.1612 15.2683 16.1652 15.2568C16.1702 15.1863 16.176 15.116 16.1828 15.0459C16.1903 14.9946 16.1976 14.9433 16.2048 14.8921C16.2098 14.8186 16.2156 14.7453 16.2224 14.6724C16.2253 14.6636 16.2282 14.6548 16.2312 14.646C16.2309 14.6044 16.2353 14.5634 16.2443 14.5229C16.2458 14.4936 16.2473 14.4644 16.2487 14.4351C16.2505 14.4231 16.2535 14.4113 16.2575 14.3999C16.2711 14.2456 16.2865 14.0918 16.3037 13.9385Z" fill="#AA0000"/>
<path opacity="0.973" fill-rule="evenodd" clip-rule="evenodd" d="M26.0859 13.9385C27.5756 13.9385 29.0654 13.9385 30.5551 13.9385C30.5275 14.1612 30.5048 14.3838 30.487 14.6064C30.4828 14.6148 30.4798 14.6235 30.4782 14.6328C30.4768 14.6636 30.4753 14.6943 30.4738 14.7251C30.4709 14.7339 30.468 14.7427 30.4651 14.7515C30.4636 14.7837 30.4621 14.8159 30.4607 14.8481C30.4573 14.8594 30.4537 14.8703 30.4497 14.8811C30.4421 14.8826 30.4348 14.8848 30.4277 14.8877C29.8834 14.8819 29.3392 14.8819 28.7951 14.8877C28.7937 14.9185 28.7922 14.9492 28.7907 14.98C28.7892 14.9893 28.7862 14.998 28.7819 15.0063C28.7805 15.0386 28.779 15.0708 28.7776 15.103C28.7753 15.1135 28.7724 15.1237 28.7688 15.1338C28.7638 15.2014 28.758 15.2687 28.7512 15.3359C28.7437 15.3887 28.7364 15.4415 28.7292 15.4941C28.7278 15.5249 28.7263 15.5557 28.7248 15.5864C28.7235 15.5972 28.7206 15.6075 28.716 15.6172C28.7108 15.6891 28.705 15.7609 28.6985 15.8325C28.6944 15.8439 28.6915 15.8557 28.6897 15.8677C28.6807 15.9883 28.6675 16.1085 28.6501 16.228C28.6399 16.3408 28.6296 16.4536 28.6193 16.5664C28.6171 16.5769 28.6142 16.5871 28.6106 16.5972C28.6097 16.6261 28.6075 16.6546 28.604 16.6829C28.6054 16.6843 28.6069 16.6858 28.6084 16.6873C28.6039 16.6964 28.6002 16.7059 28.5974 16.7158C28.5895 16.7966 28.5807 16.8772 28.571 16.9575C28.5696 16.9883 28.5681 17.019 28.5666 17.0498C28.5575 17.0917 28.5531 17.1341 28.5534 17.1772C28.5505 17.186 28.5476 17.1948 28.5446 17.2036C28.5432 17.2344 28.5417 17.2651 28.5402 17.2959C28.538 17.3064 28.5351 17.3166 28.5315 17.3267C28.521 17.4454 28.51 17.564 28.4985 17.6826C28.1132 17.6885 27.7279 17.6885 27.3427 17.6826C27.336 17.6483 27.3382 17.6146 27.3493 17.5815C27.3559 17.5099 27.3617 17.4381 27.3669 17.3662C27.3699 17.3574 27.3728 17.3486 27.3757 17.3398C27.3771 17.3076 27.3786 17.2754 27.3801 17.2432C27.383 17.2344 27.3859 17.2256 27.3889 17.2168C27.3933 17.1463 27.3992 17.076 27.4065 17.0059C27.4077 16.9951 27.4107 16.9848 27.4152 16.9751C27.4256 16.861 27.4359 16.7467 27.446 16.6323C27.449 16.6235 27.4519 16.6147 27.4548 16.606C27.4562 16.5737 27.4577 16.5415 27.4592 16.5093C27.4635 16.501 27.4664 16.4922 27.468 16.4829C27.4784 16.3701 27.4886 16.2573 27.4987 16.1445C27.5017 16.1357 27.5046 16.127 27.5075 16.1182C27.5178 16.0054 27.5281 15.8926 27.5383 15.7798C27.5399 15.7705 27.5428 15.7617 27.5471 15.7534C27.5573 15.6421 27.5676 15.5307 27.5778 15.4194C27.5869 15.3776 27.5913 15.3351 27.591 15.292C27.5926 15.2827 27.5956 15.2739 27.5998 15.2656C27.6101 15.1513 27.6203 15.0371 27.6306 14.9229C27.6356 14.91 27.6393 14.8968 27.6416 14.8833C27.0941 14.8819 26.5477 14.8833 26.0024 14.8877C25.9843 14.8865 25.977 14.877 25.9804 14.8591C25.982 14.8389 25.9856 14.8191 25.9914 14.7998C26.0046 14.6487 26.0193 14.4978 26.0354 14.3472C26.0445 14.3039 26.0489 14.26 26.0485 14.2153C26.0508 14.2049 26.0537 14.1946 26.0573 14.1846C26.0618 14.1155 26.0676 14.0466 26.0749 13.978C26.0758 13.9639 26.0794 13.9507 26.0859 13.9385Z" fill="#AA0000"/>
<path opacity="0.909" fill-rule="evenodd" clip-rule="evenodd" d="M0 16.1445C0 15.9995 0 15.8545 0 15.7095C0.00870258 15.7035 0.0138295 15.6948 0.0153809 15.6831C0.0168457 15.6465 0.0183106 15.6098 0.0197754 15.5732C0.0270996 15.5088 0.0344238 15.4444 0.041748 15.3799C0.0425613 15.348 0.0447586 15.3166 0.0483398 15.2854C0.0468751 15.284 0.0454101 15.2825 0.0439453 15.281C0.0550745 15.2225 0.0602016 15.1632 0.0593262 15.103C0.0610308 15.0989 0.0639606 15.096 0.0681152 15.0942C0.074442 15.0971 0.0810338 15.0985 0.0878906 15.0986C0.0878906 15.103 0.0878906 15.1074 0.0878906 15.1118C0.0922852 15.1118 0.0966797 15.1118 0.101074 15.1118C0.100349 15.1265 0.101082 15.1412 0.103271 15.1558C0.27111 15.6925 0.597037 16.1121 1.08105 16.4148C1.11623 16.4339 1.15139 16.4529 1.18652 16.4719C1.19326 16.4822 1.19179 16.491 1.18213 16.4983C0.922852 16.5012 0.663574 16.5012 0.404297 16.4983C0.196585 16.4706 0.0662142 16.3557 0.0131836 16.1533C0.00982112 16.1484 0.00542658 16.1455 0 16.1445Z" fill="#AA0000"/>
<path opacity="0.984" fill-rule="evenodd" clip-rule="evenodd" d="M30.898 5C31.7315 5 32.5649 5 33.3985 5C33.414 5.00854 33.4316 5.01366 33.4512 5.01538C33.5201 5.01685 33.5889 5.01831 33.6577 5.01978C33.7853 5.02745 33.9127 5.03624 34.0401 5.04614C34.2331 5.06324 34.425 5.08521 34.6157 5.11206C34.6607 5.12048 34.7054 5.13 34.7498 5.14062C34.7512 5.13916 34.7527 5.1377 34.7542 5.13623C34.8504 5.15835 34.9463 5.18105 35.042 5.20435C35.0974 5.22332 35.1531 5.24089 35.209 5.25708C35.2631 5.2813 35.3173 5.3062 35.3716 5.33179C35.5824 5.42827 35.7457 5.57695 35.8616 5.77783C35.8853 5.82806 35.9073 5.87933 35.9275 5.93164C35.9375 5.97824 35.9507 6.02366 35.9671 6.06787C35.9667 6.09244 35.9711 6.11587 35.9802 6.13818C35.9817 6.16309 35.9832 6.18799 35.9846 6.21289C35.9878 6.22335 35.9929 6.23213 36 6.23926C36 6.24219 36 6.24512 36 6.24805C35.9942 6.24951 35.9942 6.25098 36 6.25244C36 6.48242 36 6.7124 36 6.94238C35.9936 6.96347 35.9885 6.98544 35.9846 7.0083C35.9832 7.05225 35.9817 7.09619 35.9802 7.14014C35.9768 7.15319 35.9738 7.16638 35.9715 7.17969C35.9707 7.22031 35.9685 7.2606 35.9649 7.30054C35.3174 7.30347 34.6699 7.30347 34.0225 7.30054C34.0158 7.24547 34.018 7.19054 34.0291 7.13574C34.032 7.07861 34.032 7.02148 34.0291 6.96436C34.0224 6.87263 33.9807 6.80159 33.9038 6.75122C33.8638 6.73098 33.8227 6.7134 33.7808 6.69849C33.7691 6.69702 33.7574 6.69556 33.7456 6.69409C33.7427 6.69116 33.7398 6.68823 33.7368 6.6853C33.7149 6.68588 33.6943 6.68149 33.6753 6.67212C33.648 6.6724 33.6216 6.66801 33.5962 6.65894C33.5325 6.64751 33.468 6.64165 33.4029 6.64136C33.3911 6.63843 33.3794 6.6355 33.3677 6.63257C33.1833 6.62209 32.9987 6.6133 32.814 6.6062C32.1724 6.60327 31.5308 6.60327 30.8892 6.6062C30.7468 6.61319 30.6048 6.62198 30.4629 6.63257C30.3754 6.64847 30.2875 6.66166 30.1992 6.67212C30.1817 6.68139 30.1627 6.68579 30.1421 6.6853C30.1385 6.68932 30.1341 6.69225 30.1289 6.69409C29.967 6.72542 29.8315 6.80378 29.7224 6.9292C29.6846 6.97991 29.6524 7.03411 29.6258 7.0918C29.6011 7.1569 29.5792 7.22282 29.5598 7.28955C29.5508 7.33778 29.5398 7.38539 29.5269 7.43237C29.5275 7.43577 29.529 7.4387 29.5313 7.44116C29.5286 7.45997 29.5228 7.47754 29.5137 7.4939C29.5151 7.49536 29.5166 7.49683 29.5181 7.49829C29.5098 7.54591 29.5017 7.59352 29.4939 7.64111C29.4844 7.75008 29.4712 7.85848 29.4544 7.96631C29.4434 8.09713 29.4302 8.2275 29.4148 8.35742C29.4045 8.51878 29.3914 8.67991 29.3753 8.84082C29.3639 9.03287 29.3639 9.22477 29.3753 9.4165C29.3835 9.44507 29.3879 9.47438 29.3884 9.50439C29.4057 9.60762 29.4489 9.69771 29.5181 9.77466C29.546 9.79681 29.5739 9.81878 29.6016 9.84058C29.7062 9.89863 29.819 9.93084 29.94 9.93726C29.9525 9.94095 29.965 9.94459 29.9773 9.94824C29.9817 9.94679 29.9861 9.9453 29.9905 9.94385C30.0382 9.94626 30.0858 9.95141 30.1333 9.95923C30.2536 9.9602 30.3737 9.96459 30.4937 9.97241C30.7105 9.97386 30.9273 9.97536 31.1441 9.97681C31.1968 9.98059 31.2495 9.98349 31.3023 9.9856C31.6231 9.98854 31.9439 9.98854 32.2647 9.9856C32.4564 9.97672 32.6484 9.97232 32.8404 9.97241C32.9177 9.96332 32.9953 9.95892 33.0733 9.95923C33.157 9.95136 33.2405 9.94257 33.3238 9.93286C33.3861 9.92144 33.4476 9.90825 33.5083 9.89331C33.606 9.86554 33.6873 9.81206 33.7522 9.73291C33.7642 9.70751 33.7774 9.68259 33.7918 9.6582C33.801 9.63342 33.8098 9.6085 33.8181 9.5835C33.8178 9.56438 33.8222 9.5468 33.8313 9.53076C33.8398 9.49024 33.8457 9.44924 33.8489 9.40771C33.8527 9.40073 33.8556 9.39341 33.8577 9.38574C33.8571 9.3526 33.8615 9.32038 33.8709 9.28906C33.8723 9.26123 33.8738 9.2334 33.8753 9.20557C33.8834 9.1744 33.8885 9.14291 33.8906 9.11108C33.0483 9.10962 32.2061 9.10815 31.3638 9.10669C31.3612 9.10202 31.3597 9.0969 31.3594 9.09131C31.3665 9.05067 31.3701 9.00966 31.3704 8.96826C31.3722 8.95626 31.3751 8.94454 31.3792 8.93311C31.393 8.77182 31.4076 8.61068 31.4231 8.44971C31.4323 8.40637 31.4367 8.36243 31.4363 8.31787C31.4454 8.276 31.4498 8.23352 31.4495 8.19043C31.4658 8.06966 31.4798 7.94881 31.4912 7.82788C32.9663 7.82568 34.4414 7.82495 35.9165 7.82568C35.9192 7.86311 35.9156 7.89973 35.9055 7.93555C35.9041 7.96924 35.9026 8.00293 35.9011 8.03662C35.8975 8.04668 35.8946 8.05693 35.8924 8.06738C35.8928 8.10914 35.8884 8.15015 35.8792 8.19043C35.8743 8.25641 35.8684 8.32233 35.8616 8.38818C35.8587 8.39697 35.8557 8.40576 35.8528 8.41455C35.8514 8.44385 35.8499 8.47314 35.8484 8.50244C35.8446 8.50942 35.8417 8.51674 35.8396 8.52441C35.8294 8.62423 35.8191 8.72384 35.8089 8.82324C35.8027 8.86412 35.7954 8.90514 35.7869 8.94629C35.7875 8.97943 35.7831 9.01165 35.7737 9.04297C35.7723 9.06787 35.7708 9.09277 35.7693 9.11768C35.7599 9.14899 35.7556 9.18122 35.7561 9.21436C35.7523 9.22133 35.7494 9.22866 35.7473 9.23633C35.7372 9.31364 35.7284 9.39128 35.721 9.46924C35.7193 9.48748 35.7149 9.50505 35.7078 9.52197C35.7001 9.57436 35.6943 9.62709 35.6902 9.68018C35.6856 9.6851 35.6827 9.69099 35.6814 9.69775C35.68 9.71828 35.6785 9.73875 35.677 9.75928C35.6678 9.78762 35.6634 9.81693 35.6638 9.84717C35.5471 10.7066 35.0615 11.2112 34.2071 11.3611C34.1763 11.3684 34.1455 11.3757 34.1148 11.3831C34.0874 11.3828 34.0611 11.3872 34.0357 11.3962C34.0083 11.396 33.982 11.4004 33.9566 11.4094C33.9037 11.4154 33.851 11.4212 33.7984 11.427C33.7891 11.4286 33.7803 11.4315 33.772 11.4358C33.7032 11.4426 33.6343 11.4485 33.5655 11.4534C33.5178 11.4628 33.4695 11.4672 33.4204 11.4666C33.4071 11.4689 33.3939 11.4719 33.3809 11.4753C33.2583 11.4869 33.1352 11.4928 33.0117 11.4929C32.9926 11.4954 32.9736 11.4984 32.9546 11.5017C32.8653 11.5032 32.7759 11.5047 32.6865 11.5061C32.6528 11.5083 32.6191 11.5113 32.5855 11.5149C32.3115 11.515 32.0376 11.5194 31.7637 11.5281C31.418 11.531 31.0723 11.531 30.7266 11.5281C30.4747 11.5195 30.2228 11.5151 29.9707 11.5149C29.9386 11.5104 29.9064 11.5075 29.874 11.5061C29.7935 11.5047 29.7129 11.5032 29.6323 11.5017C29.4944 11.494 29.3568 11.4852 29.2193 11.4753C29.2092 11.4717 29.199 11.4688 29.1885 11.4666C29.1133 11.4648 29.0386 11.4589 28.9644 11.449C28.8524 11.4335 28.7411 11.4159 28.6304 11.3962C28.6255 11.3917 28.6196 11.3887 28.6128 11.3875C28.2872 11.3331 27.9972 11.1998 27.7427 10.9875C27.5871 10.8511 27.4868 10.6834 27.4417 10.4844C27.4398 10.4792 27.4369 10.4748 27.4329 10.4712C27.4225 10.3976 27.4093 10.3244 27.3933 10.2515C27.3935 10.207 27.3891 10.163 27.3801 10.1196C27.3743 9.88531 27.3743 9.65095 27.3801 9.4165C27.3894 9.34216 27.3938 9.26745 27.3933 9.19238C27.3958 9.17618 27.3987 9.16007 27.4021 9.14404C27.412 8.99306 27.4222 8.84218 27.4329 8.69141C27.4365 8.68135 27.4394 8.67109 27.4417 8.66064C27.4431 8.62109 27.4446 8.58154 27.4461 8.54199C27.4497 8.53194 27.4526 8.52168 27.4549 8.51123C27.465 8.38964 27.4752 8.26806 27.4856 8.14648C27.4869 8.13571 27.4898 8.12546 27.4944 8.11572C27.5003 8.04248 27.5061 7.96924 27.512 7.896C27.5149 7.88721 27.5178 7.87842 27.5208 7.86963C27.5309 7.77006 27.5411 7.67045 27.5515 7.5708C27.5545 7.56201 27.5574 7.55322 27.5603 7.54443C27.5652 7.4901 27.5711 7.43591 27.5779 7.38184C27.5872 7.352 27.5916 7.32124 27.5911 7.28955C27.594 7.28369 27.5969 7.27783 27.5999 7.27197C27.6013 7.24854 27.6028 7.2251 27.6043 7.20166C27.6083 7.19802 27.6112 7.19363 27.6131 7.18848C27.6145 7.16797 27.616 7.14746 27.6175 7.12695C27.6204 7.1211 27.6233 7.11523 27.6262 7.10938C27.6321 7.06543 27.638 7.02148 27.6438 6.97754C27.6478 6.9739 27.6508 6.96951 27.6526 6.96436C27.6523 6.94124 27.6567 6.91927 27.6658 6.89844C27.6672 6.88086 27.6687 6.86328 27.6702 6.8457C27.6742 6.84206 27.6771 6.83767 27.679 6.83252C27.6849 6.79728 27.6908 6.76212 27.6966 6.72705C27.7006 6.72341 27.7035 6.71902 27.7053 6.71387C27.7115 6.68149 27.7174 6.64926 27.7229 6.61719C27.7259 6.61426 27.7288 6.61133 27.7317 6.6084C27.7332 6.59521 27.7347 6.58203 27.7361 6.56885C27.7391 6.56592 27.742 6.56299 27.7449 6.56006C27.7545 6.51753 27.7648 6.47505 27.7757 6.43262C27.8013 6.36966 27.8233 6.30521 27.8416 6.23926C27.8445 6.23633 27.8474 6.2334 27.8504 6.23047C28.0166 5.75954 28.3367 5.43947 28.8106 5.27026C28.9022 5.24341 28.9944 5.21704 29.0874 5.19116C29.108 5.19164 29.127 5.18725 29.1446 5.17798C29.206 5.16773 29.2676 5.15747 29.3291 5.14722C29.3403 5.14089 29.3513 5.13869 29.3621 5.14062C29.3771 5.13714 29.3924 5.13494 29.4082 5.13403C29.478 5.11951 29.5483 5.1078 29.6192 5.09888C29.7781 5.08014 29.9377 5.06549 30.0982 5.05493C30.1182 5.05144 30.1379 5.04777 30.1575 5.04395C30.1589 5.04541 30.1604 5.04688 30.1619 5.04834C30.2257 5.04623 30.2894 5.04111 30.353 5.03296C30.4368 5.03295 30.5203 5.02856 30.6035 5.01978C30.6945 5.01973 30.7854 5.01607 30.876 5.00879C30.8854 5.00854 30.8927 5.00561 30.898 5Z" fill="black"/>
</svg>
