<svg width="36" height="24" viewBox="0 0 36 24" fill="none" xmlns="http://www.w3.org/2000/svg">
<path d="M17.9275 5.69461C17.9275 5.71039 17.9406 5.72881 17.9538 5.7367C17.9696 5.74459 17.9801 5.73407 17.9801 5.71302C17.9801 5.68935 17.9696 5.67093 17.9538 5.67093C17.9406 5.67093 17.9275 5.68146 17.9275 5.69461Z" fill="black"/>
<path d="M16.5386 7.17038C16.3939 7.25982 16.3834 7.31506 16.3544 8.22263C16.3307 9.01446 16.3307 9.05392 16.3781 9.13284C16.4439 9.24069 16.5885 9.31172 16.6938 9.28804C16.7385 9.27752 16.9831 9.15651 17.2383 9.01709C18.2985 8.44624 18.2985 8.44624 18.3037 8.25946C18.309 8.08321 18.2458 8.02534 17.6829 7.68335C17.5408 7.59654 17.3751 7.49395 17.3146 7.45449C17.2015 7.38346 16.92 7.20984 16.8148 7.15196C16.7306 7.10461 16.6385 7.10987 16.5386 7.17038Z" fill="#24114E"/>
<path d="M14.584 7.81488C14.6024 7.74385 14.6287 7.66756 14.6471 7.64652C14.7023 7.58075 14.6997 7.74911 14.6392 8.22C14.5708 8.77506 14.5419 9.55899 14.5655 10.264C14.5997 11.3163 14.7707 11.9634 15.1285 12.379C15.2158 12.4817 15.2891 12.5564 15.3651 12.6119C15.1289 12.4499 14.9741 12.3117 14.7773 12.0897C14.549 11.832 14.2841 11.4189 14.2841 11.4189C14.0405 11.0503 13.9388 10.9355 13.8811 10.4916C13.9425 10.1858 14.0135 9.856 14.0631 9.65633C14.1894 9.15651 14.4577 8.20947 14.534 7.99902C14.5445 7.97009 14.5682 7.88854 14.584 7.81488Z" fill="url(#paint0_linear_1_12779)"/>
<path d="M13.7158 11.4189C13.729 11.3741 13.7474 11.2715 13.7553 11.1874C13.7659 11.0879 13.8186 10.8021 13.8811 10.4916C13.9388 10.9355 14.0405 11.0503 14.2841 11.4189C14.2841 11.4189 14.549 11.832 14.7773 12.0897C14.9741 12.3117 15.1289 12.4499 15.3651 12.6119C15.3795 12.6224 15.394 12.6322 15.4087 12.6414C15.5289 12.7167 15.663 12.7498 15.873 12.7736C16.5017 12.8447 17.4119 12.6211 18.6378 12.0949C18.9692 11.9529 19.6821 11.6004 19.9531 11.4452C20.2372 11.2821 20.4003 11.2005 20.4003 11.2216C20.4003 11.2505 20.1004 11.4873 19.3744 12.0318C19.135 12.2107 18.8982 12.3869 18.8482 12.4264C18.501 12.6947 17.4961 13.355 17.0068 13.6339C15.8098 14.3178 15.0364 14.5625 14.4103 14.4546C13.8684 14.3599 13.6159 13.8259 13.608 12.75C13.6054 12.3817 13.6711 11.5556 13.7158 11.4189Z" fill="url(#paint1_linear_1_12779)"/>
<path d="M19.213 6.7723C19.2633 6.82566 19.3139 6.8885 19.322 6.91529C19.3483 6.99704 19.2071 6.9053 18.8405 6.60369C18.4067 6.25064 17.7582 5.80932 17.1485 5.45452C16.2391 4.924 15.6001 4.72474 15.0579 4.80676C14.9245 4.82612 14.8223 4.84851 14.7349 4.88331C14.9976 4.76944 15.197 4.71175 15.4897 4.66317C15.8293 4.6068 16.3201 4.6021 16.3201 4.6021C16.7617 4.59176 16.913 4.56668 17.3197 4.75381C17.546 4.96846 17.7876 5.20391 17.9303 5.35207C18.2865 5.72477 18.9459 6.45555 19.0836 6.63206C19.1025 6.65636 19.159 6.71977 19.213 6.7723Z" fill="url(#paint2_linear_1_12779)"/>
<path d="M16.6222 4.12085C16.6531 4.15577 16.7302 4.22591 16.7973 4.27736C16.8758 4.3392 17.0899 4.53578 17.3197 4.75381C16.913 4.56668 16.7617 4.59176 16.3201 4.6021C16.3201 4.6021 15.8293 4.6068 15.4897 4.66317C15.197 4.71175 14.9976 4.76944 14.7349 4.88331C14.7183 4.88992 14.7023 4.89696 14.6867 4.90452C14.559 4.96635 14.4596 5.06232 14.3278 5.22747C13.9334 5.72219 13.6388 6.61197 13.4326 7.92995C13.3767 8.2862 13.2962 9.07741 13.2836 9.38942C13.2707 9.71676 13.253 9.89826 13.2352 9.88707C13.2107 9.87168 13.1696 9.49181 13.0945 8.58735C13.0702 8.28949 13.0469 7.99526 13.04 7.93195C12.9974 7.49519 12.9725 6.29303 12.9964 5.73036C13.0536 4.35296 13.2576 3.56786 13.6818 3.09494C14.0502 2.68633 14.6367 2.75638 15.5522 3.32176C15.8655 3.51535 16.5301 4.01024 16.6222 4.12085Z" fill="url(#paint3_linear_1_12779)"/>
<path d="M17.1456 10.8545C17.0729 10.8646 16.9923 10.8694 16.9659 10.8604C16.884 10.8344 17.0406 10.7726 17.499 10.6488C18.0381 10.5002 18.7737 10.2278 19.4164 9.93682C20.3759 9.50362 20.9088 9.0986 21.1565 8.60928C21.218 8.48939 21.2591 8.39312 21.2814 8.30177C21.2218 8.58186 21.1532 8.77774 21.023 9.04433C20.872 9.35369 20.5912 9.75625 20.5912 9.75625C20.3435 10.1221 20.2762 10.2599 19.8879 10.4827C19.5818 10.5425 19.2499 10.6028 19.0464 10.6332C18.5363 10.7072 17.5585 10.8206 17.3349 10.8304C17.3041 10.8317 17.2197 10.841 17.1456 10.8545Z" fill="url(#paint4_linear_1_12779)"/>
<path d="M20.8081 10.2815C20.7617 10.2864 20.6599 10.3085 20.579 10.3333C20.4831 10.3615 20.1988 10.4218 19.8879 10.4827C20.2762 10.2599 20.3435 10.1221 20.5912 9.75625C20.5912 9.75625 20.872 9.35369 21.023 9.04433C21.1532 8.77774 21.2218 8.58186 21.2814 8.30177C21.2856 8.28444 21.2892 8.26729 21.2921 8.25019C21.3158 8.1103 21.2952 7.97372 21.2371 7.77057C21.0628 7.16232 20.5087 6.40635 19.5546 5.47405C19.2968 5.22189 18.6989 4.69748 18.452 4.50627C18.1928 4.30591 18.0552 4.18628 18.0746 4.17825C18.1014 4.1672 18.4347 4.35404 19.2151 4.81732C19.4718 4.97032 19.7251 5.12189 19.7806 5.15303C20.1612 5.37159 21.155 6.04844 21.5995 6.39428C22.6885 7.23959 23.2098 7.8611 23.349 8.48096C23.4683 9.018 23.0711 9.45523 22.0796 9.87315C21.7402 10.0161 20.9516 10.2706 20.8081 10.2815Z" fill="url(#paint5_linear_1_12779)"/>
<path d="M2.82762 15.6542C2.80657 15.6595 2.59612 15.6963 2.35936 15.7331C1.68592 15.8436 1.10981 16.0356 0.767823 16.2645C0.696796 16.3119 0.628399 16.3513 0.617877 16.3513C0.570525 16.3513 0.125947 16.8169 0.0838563 16.909C-0.0213693 17.1326 -0.0266306 17.3825 0.0628112 17.6219C0.1391 17.8245 0.523173 18.1112 0.802021 18.1796C1.21503 18.277 1.69644 18.2822 1.69644 18.1875C1.69644 18.1533 1.51229 17.9823 1.47284 17.9823C1.42022 17.9823 1.22819 17.7613 1.17294 17.6403C0.915139 17.0695 1.69381 16.2698 2.70661 16.062C2.83814 16.0356 3.07753 15.9988 3.23536 15.983C3.4958 15.9541 3.56419 15.9567 3.91407 16.0067C4.34813 16.0698 4.4744 16.104 4.71905 16.2277C4.90845 16.3224 5.09786 16.5144 5.17415 16.6854C5.29516 16.959 5.25833 17.3931 5.08471 17.7456C4.87952 18.1638 4.47177 18.4769 3.90618 18.6505C3.57472 18.7505 2.98545 18.811 2.98545 18.7426C2.98545 18.7294 3.05385 18.4295 3.14066 18.0797C3.34848 17.2247 3.48528 16.6118 3.48528 16.5407C3.48528 16.4171 3.20117 16.3513 2.65136 16.3513C2.46196 16.3513 2.28833 16.3592 2.26466 16.3671C2.20678 16.3882 2.1305 16.6696 2.07788 17.0484C2.05421 17.2221 1.9937 17.5299 1.94635 17.7324C1.899 17.935 1.83323 18.2664 1.80167 18.4664C1.7701 18.6663 1.70959 18.9688 1.67013 19.1372C1.62804 19.3055 1.58069 19.5423 1.56491 19.6659C1.54912 19.7896 1.49125 20.0789 1.43601 20.3104C1.38076 20.5419 1.32815 20.7971 1.31763 20.876C1.29921 21.0233 1.26501 21.2154 1.22029 21.4232C1.20188 21.5048 1.20451 21.5495 1.22555 21.5758C1.27291 21.6337 1.4781 21.6836 1.8648 21.731C2.20415 21.7757 2.22783 21.7757 2.27518 21.731C2.30149 21.7073 2.32779 21.6547 2.33305 21.6152C2.34095 21.5416 2.34884 21.5389 2.53824 21.5863C2.74607 21.6389 3.09594 21.6573 3.4274 21.6363C3.80884 21.61 4.3376 21.5232 4.52438 21.4548C4.59541 21.4285 4.69274 21.3995 4.74009 21.3943C4.78744 21.3864 4.97685 21.3048 5.16099 21.2154C5.46352 21.0654 5.52139 21.026 5.72395 20.8234C5.90283 20.6419 5.95545 20.5735 5.98175 20.4735C6.02648 20.3157 6.00806 19.9711 5.95019 19.8632C5.89757 19.7633 5.65819 19.5134 5.53718 19.4239C5.38986 19.3187 5.08997 19.1714 4.92687 19.1267C4.67433 19.0583 4.69537 18.9899 4.99789 18.9162C5.21624 18.8636 5.68712 18.6347 5.91336 18.4743C6.13959 18.3112 6.42107 18.006 6.49473 17.8429C6.69203 17.4062 6.70255 17.1458 6.54471 16.7906C6.30269 16.2514 5.69238 15.9094 4.65591 15.7305C4.28236 15.6647 4.15872 15.6568 3.55104 15.6516C3.17486 15.6489 2.84866 15.6489 2.82762 15.6542ZM3.58524 19.2477C3.90092 19.3292 4.12452 19.445 4.26921 19.5975C4.51386 19.8553 4.54542 20.1052 4.37443 20.4578C4.19029 20.8418 3.90618 21.0654 3.43266 21.1996C3.23273 21.2548 3.09857 21.268 2.7487 21.2733C2.39356 21.2759 2.41724 21.3285 2.52246 20.8103C2.61716 20.3394 2.63032 20.2789 2.71976 19.8895C2.76185 19.7001 2.81183 19.4765 2.83025 19.3897C2.84603 19.3029 2.86444 19.2161 2.86971 19.195C2.88549 19.1451 3.30902 19.1766 3.58524 19.2477Z" fill="#261350"/>
<path d="M14.0499 17.714C13.9999 17.7955 13.9026 18.1112 13.8657 18.3164C13.8421 18.4453 13.8079 18.6294 13.7921 18.732L13.7579 18.9162L13.6106 18.9241L13.4632 18.932L13.4448 18.8215C13.4054 18.5689 13.287 18.4637 13.0345 18.4506C12.8661 18.4427 12.8661 18.4427 12.8424 18.3506C12.8187 18.2506 12.7135 18.0981 12.6293 18.0349C12.5978 18.0139 12.4978 17.9586 12.4031 17.9165C12.2374 17.8403 12.219 17.8376 11.8507 17.8376H11.4692L11.2351 17.9507C11.1036 18.0139 10.9405 18.106 10.8721 18.1559C10.7668 18.2296 10.6879 18.2585 10.4327 18.3111C10.0697 18.3874 9.80402 18.4269 9.62514 18.4322C9.52254 18.4374 9.46993 18.4216 9.3726 18.3585C9.20687 18.2533 8.98326 18.2085 8.71231 18.227C8.35454 18.248 8.06254 18.398 8.06254 18.5584C8.06517 18.711 8.21775 18.8557 8.39926 18.8767C8.50975 18.8899 8.52027 18.8978 8.5571 18.9951C8.60708 19.1319 8.60708 19.5739 8.55447 19.7843C8.47555 20.1131 8.27299 20.3972 8.07569 20.4525C7.91785 20.4946 7.8705 20.4893 7.75212 20.4051C7.58113 20.2789 7.52589 20.1026 7.52589 19.6791C7.52326 19.103 7.66794 18.6715 7.95994 18.3822C8.14146 18.2033 8.30982 18.1244 8.58867 18.0823C8.75966 18.056 8.81227 18.0376 8.82016 18.0034C8.83595 17.9218 8.72283 17.8902 8.41768 17.8929C8.09148 17.8929 7.75738 17.9639 7.53641 18.0744C7.46538 18.1112 7.39699 18.1402 7.3812 18.1402C7.33122 18.1402 7.01554 18.3716 6.83929 18.54C6.61306 18.7531 6.51046 18.9215 6.40524 19.2398C6.31316 19.5291 6.30264 19.7343 6.37367 19.9684C6.46574 20.2657 6.55518 20.4183 6.74722 20.5945C7.1839 20.9997 7.76791 21.1365 8.41505 20.9839C8.81753 20.8892 9.09638 20.7287 9.36471 20.4314C9.54885 20.2289 9.64092 20.0631 9.74615 19.7291C9.7935 19.5844 9.80665 19.4791 9.80928 19.2082L9.81192 18.8688L9.94345 18.8346C10.0171 18.8136 10.125 18.7847 10.1881 18.7689C10.2486 18.7531 10.3091 18.7452 10.317 18.7557C10.3249 18.7636 10.3012 18.8162 10.2644 18.8688C10.1697 19.0056 10.146 19.0846 10.1171 19.3766C10.0723 19.8369 10.1144 20.1105 10.2723 20.3815C10.4512 20.6814 10.7405 20.8865 11.1404 20.9944C11.414 21.0654 11.5402 21.0733 11.7507 21.0312C12.1769 20.9444 12.4373 20.8208 12.703 20.5814C13.0081 20.3052 13.2002 19.9974 13.337 19.5581L13.408 19.3292L13.5395 19.3134C13.6132 19.3029 13.679 19.3003 13.6842 19.3082C13.6921 19.316 13.6658 19.5133 13.629 19.7501C13.5895 19.9869 13.5553 20.3025 13.5527 20.4551L13.5474 20.7313L13.6421 20.7629C13.7421 20.7945 14.234 20.8865 14.4708 20.9155C14.6049 20.9313 14.6076 20.9313 14.6523 20.8444C14.676 20.7971 14.7207 20.6919 14.747 20.613C14.9364 20.0921 15.4573 19.2345 15.8308 18.8373C15.8598 18.8057 15.8466 18.9293 15.7887 19.2319C15.7677 19.3476 15.7414 19.4765 15.7361 19.5212C15.7282 19.5633 15.7019 19.7054 15.6809 19.8369C15.623 20.1579 15.5888 20.5788 15.6098 20.6629C15.623 20.7103 15.6572 20.7419 15.7203 20.7603C15.8335 20.7997 16.2964 20.8944 16.4674 20.9155L16.599 20.9313L16.7173 20.6629C16.9225 20.1999 17.2487 19.6843 17.5749 19.3108C17.6986 19.1687 17.7144 19.1845 17.6486 19.3897C17.5723 19.6317 17.5328 19.8869 17.5328 20.1579C17.5328 20.3815 17.5434 20.4577 17.5986 20.5998C17.6723 20.7971 17.7565 20.9286 17.8091 20.9286C17.8275 20.9286 17.8485 20.947 17.8564 20.9655C17.8932 21.0602 18.0353 21.0996 18.3483 21.0996C18.6114 21.0996 18.664 21.0917 18.7561 21.0417C18.9271 20.947 19.1165 20.7918 19.2033 20.6735C19.2454 20.613 19.2954 20.563 19.3085 20.563C19.3243 20.5603 19.3585 20.6024 19.3875 20.655C19.4664 20.7997 19.761 21.0523 19.9662 21.1496C20.153 21.239 20.3845 21.2996 20.7475 21.3495C20.9264 21.3758 20.9869 21.3732 21.2342 21.3232C21.6419 21.2417 21.9734 21.0681 22.2417 20.7971C22.4706 20.5709 22.752 20.2184 23.0309 19.8238C23.1387 19.6712 23.3045 19.4397 23.3992 19.3108C23.4939 19.1793 23.5991 19.0293 23.6333 18.9741C23.6885 18.8846 23.7412 18.8478 23.7412 18.8978C23.7412 18.9083 23.7175 18.9898 23.6912 19.0767C23.6649 19.1608 23.6149 19.3318 23.5833 19.4555C23.5518 19.5791 23.5149 19.7054 23.5044 19.7343C23.4623 19.8395 23.4465 20.15 23.4728 20.2973C23.5097 20.4998 23.6017 20.7313 23.678 20.8234C23.7149 20.8655 23.8201 20.9392 23.9148 20.9839C24.3331 21.1891 24.7619 21.0786 25.167 20.6577C25.3011 20.5183 25.3722 20.4867 25.3722 20.5656C25.3722 20.6235 25.4905 20.755 25.6221 20.8366C25.7694 20.9313 26.0114 21.0207 26.1982 21.047C26.3271 21.0681 26.6007 21.0102 26.7796 20.926C26.8927 20.8708 27.09 20.6998 27.1794 20.5735L27.2373 20.4946L27.3504 20.6103C27.4977 20.7576 27.5661 20.7918 27.7687 20.8129C27.9818 20.8339 28.2422 20.7866 28.4027 20.6998L28.5289 20.6314L28.5947 20.6971C28.6447 20.7471 28.7183 20.7761 28.8893 20.8103C29.1208 20.855 29.5654 20.926 29.6259 20.9286C29.6601 20.9286 29.689 20.8708 29.8153 20.5446C29.889 20.3578 30.06 20.0158 30.2652 19.6475C30.3388 19.516 30.6624 19.074 30.7571 18.982L30.8228 18.9162L30.8044 19.0346C30.7939 19.1003 30.7755 19.1714 30.765 19.1924C30.7281 19.2634 30.6387 19.6712 30.6229 19.8501C30.5913 20.2052 30.6913 20.5972 30.8649 20.7787C31.028 20.9523 31.3332 21.0312 31.6357 20.9812C31.8514 20.9444 32.0882 20.8103 32.2539 20.634C32.3644 20.5156 32.4223 20.4788 32.4223 20.5288C32.4223 20.5761 32.6143 20.7708 32.7432 20.855C32.8879 20.9497 33.1641 21.0339 33.3325 21.0339C33.3851 21.0339 33.4982 21.0154 33.5824 20.9944C33.756 20.9497 33.7928 20.9576 33.7718 21.0312C33.7586 21.0812 33.6929 21.1128 33.5955 21.1128C33.5377 21.1128 33.0642 21.2785 32.8958 21.3574C32.3618 21.6073 31.9751 22.0414 31.9751 22.3939C31.9751 22.5649 31.9987 22.628 32.1119 22.7411C32.225 22.8569 32.4328 22.949 32.6722 22.9858C32.9958 23.0358 33.2562 22.9569 33.5955 22.7017C33.8902 22.4781 34.2506 22.0519 34.4584 21.6784C34.6767 21.289 34.7267 21.2154 34.7899 21.1996C34.8819 21.1733 35.4159 21.1759 35.6895 21.2022C35.9394 21.2285 35.9999 21.2075 35.9999 21.1023C35.9999 21.0602 35.9736 21.0365 35.9105 21.0128C35.7842 20.9655 35.4291 20.9286 35.1266 20.9286C34.9845 20.9286 34.8688 20.9207 34.8688 20.9076C34.8688 20.8786 35.0135 20.4604 35.0845 20.2815C35.1213 20.1947 35.166 20.0579 35.1844 19.979C35.2002 19.9 35.2502 19.6949 35.2923 19.5212C35.3817 19.1451 35.437 18.8267 35.4607 18.5611C35.4791 18.3743 35.4764 18.3611 35.4159 18.3269C35.3844 18.3059 35.2607 18.2848 35.145 18.2769L34.9345 18.2664L34.7899 18.1244C34.6241 17.9639 34.4952 17.9087 34.2216 17.885C33.7481 17.8455 33.1615 18.1138 32.7958 18.54C32.6222 18.7426 32.4512 19.0188 32.3907 19.1871C32.3276 19.366 32.2644 19.6843 32.2644 19.8211C32.2644 20.0395 31.9672 20.4814 31.8199 20.4814C31.7909 20.4814 31.7436 20.4499 31.712 20.4104C31.662 20.3473 31.6568 20.3157 31.6725 20.1921C31.6883 20.0553 31.7646 19.7185 31.8199 19.5475C31.9093 19.2608 32.1645 18.4874 32.1855 18.4427C32.1987 18.4137 32.2355 18.3033 32.2671 18.1954L32.3276 18.0007L32.2565 17.9402C32.2171 17.906 32.1408 17.8666 32.0856 17.8534C31.8199 17.7824 31.6147 17.7429 31.4384 17.7271L31.2437 17.7114L31.0833 17.835C30.8228 18.0349 30.302 18.7215 30.0442 19.2056C29.9626 19.3581 29.8442 19.5107 29.8442 19.4634C29.8442 19.4449 29.8732 19.3634 29.91 19.2792C29.9468 19.195 29.9995 19.0451 30.0284 18.9425C30.0547 18.8425 30.1205 18.6294 30.1704 18.469C30.2231 18.3111 30.2809 18.1033 30.2967 18.0112C30.3257 17.856 30.323 17.8429 30.2757 17.814C30.1626 17.7482 29.9679 17.7166 29.5417 17.7008C29.1761 17.6877 29.0893 17.6929 29.0656 17.7219C28.9972 17.8061 28.8604 18.3795 28.8183 18.7478C28.6894 19.8922 28.6236 20.1289 28.3948 20.2473C28.2632 20.3131 28.2264 20.3104 28.1633 20.2289C28.0975 20.1447 28.0922 20.0079 28.1475 19.7843C28.2132 19.5107 28.3395 18.8715 28.3711 18.6452C28.4158 18.3164 28.3685 18.2717 27.9712 18.2717C27.8265 18.2717 27.8187 18.2691 27.7213 18.1507C27.5951 17.9981 27.474 17.9376 27.2268 17.8981C26.6507 17.8087 26.0219 18.1138 25.5695 18.7031C25.359 18.9793 25.2222 19.3424 25.1643 19.779C25.1301 20.0184 25.1038 20.0763 24.9249 20.3025C24.7645 20.4998 24.6961 20.5472 24.5987 20.5235C24.5409 20.5104 24.5304 20.4919 24.5304 20.413C24.5304 20.292 24.6093 19.9816 24.754 19.5344C24.8618 19.1977 24.9223 18.9925 25.0328 18.5742C25.0617 18.4664 25.0775 18.3585 25.067 18.3059C25.046 18.1954 24.8986 18.0454 24.7724 18.0086C24.5935 17.956 24.1568 17.9271 23.4913 17.9218C22.7415 17.9165 22.6337 17.9323 22.4863 18.0823C22.3785 18.1875 22.3838 18.2691 22.5021 18.3795C22.5784 18.4506 22.581 18.4506 23.4623 18.4979C23.5596 18.5005 23.6465 18.5111 23.6544 18.5163C23.6596 18.5242 23.5938 18.5926 23.5097 18.6689C23.265 18.8925 22.9493 19.2634 22.5442 19.808C22.1575 20.3315 21.926 20.584 21.6393 20.8024L21.4709 20.9286H21.221C20.9921 20.9286 20.9606 20.9234 20.8685 20.8602C20.6765 20.7261 20.4371 20.2841 20.4897 20.1526C20.4976 20.1289 20.537 20.1131 20.5791 20.1131C20.7396 20.1131 21.1237 20.029 21.3289 19.95C21.5604 19.8632 21.7997 19.708 21.9602 19.5449C22.2548 19.245 22.3548 18.6242 22.1759 18.2243C22.0839 18.0191 21.9234 17.8771 21.6735 17.7798C21.5077 17.7166 21.4578 17.7114 21.1237 17.7087C20.7606 17.7087 20.7001 17.7166 20.4397 17.8192C20.0293 17.9744 19.5953 18.4295 19.398 18.9109C19.2638 19.2345 19.2401 19.3239 19.2059 19.6712C19.1717 19.9948 19.1638 20.0158 19.056 20.1973C18.8561 20.5261 18.7166 20.6314 18.5667 20.563C18.5009 20.5314 18.4983 20.5261 18.5141 20.342C18.522 20.2368 18.5535 20.0763 18.5851 19.9816C18.614 19.8869 18.6509 19.7633 18.6693 19.7054C18.7719 19.3424 18.9245 18.9293 19.0507 18.6715C19.1296 18.5084 19.1902 18.3611 19.1823 18.3401C19.156 18.2743 18.8008 18.1665 18.4694 18.127C18.1616 18.0902 18.1353 18.0902 17.9879 18.1349C17.9011 18.1638 17.7749 18.2243 17.7038 18.2717C17.5171 18.4006 17.183 18.7478 17.0699 18.932C17.0146 19.0214 16.9646 19.0793 16.9594 19.0635C16.9488 19.0319 17.0804 18.6163 17.2145 18.2506C17.2593 18.1296 17.2961 18.027 17.2961 18.0218C17.2961 17.9823 17.1383 17.8771 17.0488 17.8534C16.7226 17.7719 16.5569 17.7403 16.3859 17.7271C16.2123 17.714 16.1833 17.7192 16.0728 17.7824C15.9229 17.8718 15.5073 18.3927 15.1626 18.9241C15.0837 19.0451 15.018 19.1293 15.0127 19.1135C14.9995 19.0767 15.1021 18.7452 15.1811 18.5637C15.26 18.3901 15.3547 18.0349 15.3599 17.9034C15.3626 17.814 15.3573 17.8087 15.2231 17.764C15.0495 17.7061 14.0814 17.6666 14.0499 17.714ZM21.3183 18.2085C21.4499 18.3743 21.3894 18.9635 21.2052 19.3187C21.1 19.5239 20.8527 19.6949 20.6081 19.7343L20.4976 19.7527L20.5134 19.6159C20.5423 19.3792 20.7817 18.69 20.9159 18.4637C21.0632 18.2138 21.1289 18.1402 21.2052 18.1402C21.2368 18.1402 21.2894 18.1691 21.3183 18.2085ZM12.2295 18.4058C12.3715 18.5611 12.3531 18.6031 12.1085 18.7057C11.6192 18.9109 11.5613 19.0951 11.9322 19.2582C11.9953 19.2871 12.0559 19.3213 12.0664 19.3345C12.1137 19.4055 11.9875 20.029 11.8822 20.2447C11.7165 20.584 11.4192 20.5472 11.3114 20.1763C11.2535 19.9763 11.2693 19.6686 11.3614 19.2056C11.4429 18.8136 11.5218 18.6531 11.7297 18.4664C11.9454 18.2717 12.0927 18.2533 12.2295 18.4058ZM27.2268 18.44C27.282 18.4795 27.2846 18.4585 27.1347 19.1793C27.0663 19.5081 26.8848 20.0842 26.8006 20.2341C26.7217 20.3762 26.598 20.4814 26.5139 20.4814C26.4218 20.4814 26.3271 20.3683 26.3087 20.2368C26.2876 20.0973 26.3481 19.6501 26.4192 19.416C26.4612 19.2845 26.6059 18.9346 26.677 18.7899C26.7717 18.6058 26.8322 18.5321 26.9453 18.4637C27.0558 18.3953 27.1557 18.3874 27.2268 18.44ZM34.34 18.44C34.3637 18.469 34.3637 18.5058 34.3453 18.5795C34.3321 18.6347 34.2874 18.8688 34.2506 19.1003C34.1795 19.5265 34.0638 19.8974 33.9007 20.2184C33.7402 20.534 33.4745 20.5577 33.3982 20.2604C33.3535 20.0763 33.4482 19.537 33.5955 19.1661C33.6666 18.9872 33.7244 18.8531 33.7718 18.7505C33.8218 18.6452 33.9822 18.4769 34.0638 18.44C34.1717 18.3927 34.3032 18.3953 34.34 18.44ZM33.5535 21.6784C33.4929 21.8415 33.2851 22.2308 33.1983 22.3492C33.1457 22.4202 33.0615 22.5044 33.0115 22.536C32.9247 22.5886 32.9168 22.5886 32.8695 22.5465C32.8405 22.5202 32.8116 22.4754 32.8011 22.4491C32.7774 22.3755 32.8826 22.1834 33.0405 22.0125C33.1825 21.8546 33.5271 21.5837 33.5587 21.6021C33.5692 21.61 33.5666 21.6442 33.5535 21.6784Z" fill="#261350"/>
<defs>
<linearGradient id="paint0_linear_1_12779" x1="14.5899" y1="13.017" x2="14.4814" y2="7.63074" gradientUnits="userSpaceOnUse">
<stop stop-color="#402077"/>
<stop offset="0.395833" stop-color="#4B1C96"/>
<stop offset="1" stop-color="#754DC3"/>
</linearGradient>
<linearGradient id="paint1_linear_1_12779" x1="20.4003" y1="14.477" x2="13.6132" y2="14.477" gradientUnits="userSpaceOnUse">
<stop stop-color="#1B1337"/>
<stop offset="0.510417" stop-color="#5726A8"/>
<stop offset="1" stop-color="#8063EA"/>
</linearGradient>
<linearGradient id="paint2_linear_1_12779" x1="14.804" y1="4.01139" x2="19.4235" y2="6.78332" gradientUnits="userSpaceOnUse">
<stop stop-color="#C33112"/>
<stop offset="0.395833" stop-color="#E45035"/>
<stop offset="1" stop-color="#D29059"/>
</linearGradient>
<linearGradient id="paint3_linear_1_12779" x1="10.4781" y1="8.15618" x2="14.0867" y2="2.40797" gradientUnits="userSpaceOnUse">
<stop stop-color="#CD9059"/>
<stop offset="0.510417" stop-color="#F4A321"/>
<stop offset="1" stop-color="#F4CC11"/>
</linearGradient>
<linearGradient id="paint4_linear_1_12779" x1="21.9517" y1="8.86368" x2="17.0145" y2="11.0196" gradientUnits="userSpaceOnUse">
<stop stop-color="#241F6B"/>
<stop offset="0.395833" stop-color="#27398E"/>
<stop offset="1" stop-color="#156EA6"/>
</linearGradient>
<linearGradient id="paint5_linear_1_12779" x1="21.0837" y1="2.93584" x2="23.6739" y2="9.20918" gradientUnits="userSpaceOnUse">
<stop stop-color="#0E0642"/>
<stop offset="0.510417" stop-color="#1D54AC"/>
<stop offset="1" stop-color="#0F7EC6"/>
</linearGradient>
</defs>
</svg>
