<svg width="36" height="24" viewBox="0 0 36 24" fill="none" xmlns="http://www.w3.org/2000/svg">
<path d="M19.2533 0.0997868C19.0124 0.206327 18.8271 0.373085 18.6835 0.604692L18.5816 0.766817L18.5677 11.9118C18.5584 22.802 18.5584 23.066 18.6465 23.2652C18.8549 23.7609 19.2811 24.0249 19.7906 23.9832C20.314 23.9415 20.7217 23.6034 20.8236 23.117C20.8977 22.7788 20.893 1.16982 20.8236 0.831669C20.7819 0.632484 20.7263 0.544474 20.5317 0.354555C20.1751 -0.00212097 19.698 -0.0947647 19.2533 0.0997868Z" fill="#D41E5C"/>
<path d="M13.3241 4.22702C13.2361 4.25018 13.0786 4.29187 12.9767 4.31966C12.8748 4.35209 12.7729 4.38914 12.7497 4.41231C12.7219 4.43084 12.6663 4.44936 12.6246 4.44936C12.481 4.44936 11.865 4.89405 11.5824 5.2044C11.4064 5.39432 11.2211 5.66762 11.1053 5.89923C10.744 6.62648 10.7671 6.14473 10.7671 14.1398L10.7718 21.2641L10.8691 21.6439C11.0265 22.2461 11.2396 22.6121 11.7214 23.0984C12.041 23.4181 12.217 23.5524 12.4533 23.6636C13.338 24.0805 14.1764 24.1082 15.0843 23.7562C15.881 23.4458 16.6268 22.6074 16.8677 21.7458C16.9233 21.542 16.9511 21.19 16.9696 20.3701L16.9974 19.2723H15.8347H14.6721L14.6582 20.2126C14.6443 21.1529 14.6443 21.1576 14.5146 21.3475C14.283 21.6995 13.829 21.7875 13.4584 21.5467C13.0925 21.3197 13.0925 21.3151 13.0925 19.4854V17.8826H15.038H16.9881L16.9696 12.287C16.9557 6.27907 16.965 6.56626 16.7287 6.04746C16.5712 5.70468 16.2053 5.20904 15.932 4.9589C15.6726 4.71803 15.1445 4.43547 14.7508 4.31503C14.6535 4.28724 14.5053 4.24092 14.4219 4.21776C14.232 4.16217 13.5418 4.1668 13.3241 4.22702ZM14.2459 6.60795C14.6767 6.83956 14.6443 6.44119 14.6443 11.2818V15.5434L13.9077 15.5573C13.4075 15.5665 13.1527 15.5526 13.111 15.5156C13.0554 15.4693 13.0462 14.8022 13.0462 11.3791C13.0462 8.6461 13.0647 7.23792 13.0971 7.12212C13.1249 7.02484 13.2176 6.86272 13.3102 6.76081C13.5742 6.46898 13.8985 6.41803 14.2459 6.60795Z" fill="#D41E5C"/>
<path d="M23.2831 4.21313C23.2461 4.23166 23.121 4.29651 23.0052 4.34747C22.8662 4.41695 22.7458 4.52812 22.6346 4.68561L22.4725 4.92649L22.4586 14.0009L22.4493 23.0753L22.5466 23.3023C22.6717 23.5941 22.982 23.8813 23.2461 23.9508C23.4869 24.0202 23.9131 23.9878 24.103 23.8905C24.2837 23.7933 24.557 23.5061 24.6589 23.3023C24.7376 23.1494 24.7423 22.6491 24.7562 14.3854C24.7654 9.56791 24.7562 5.47771 24.7423 5.29706C24.7145 5.01449 24.682 4.91722 24.5431 4.70414C24.4087 4.49569 24.3207 4.42158 24.0891 4.31041C23.7973 4.17144 23.4453 4.12975 23.2831 4.21313Z" fill="#D41E5C"/>
<path d="M7.64973 10.2396C7.63583 10.2627 7.58951 10.2859 7.54782 10.2859C7.42275 10.2859 7.17262 10.5082 7.03828 10.7399L6.90858 10.9576L6.88542 16.0529L6.86226 21.1483L6.74646 21.3197C6.52411 21.6486 6.05627 21.7829 5.72738 21.6115C5.56063 21.5235 5.36607 21.2734 5.32902 21.0974C5.31512 21.0232 5.30122 19.9301 5.29659 18.6701L5.28733 16.3772L5.16226 16.1687C5.00477 15.8954 4.87507 15.7796 4.60177 15.6638C4.13392 15.4647 3.69387 15.5527 3.30476 15.9279C2.98978 16.2336 2.98514 16.2568 3.00831 19.0499C3.0222 21.3799 3.02683 21.5328 3.11948 21.7968C3.25844 22.2091 3.44373 22.5519 3.6985 22.8715C3.98569 23.2235 4.18951 23.3903 4.62956 23.6265C6.40831 24.5854 8.64101 23.5848 9.10886 21.6162C9.2015 21.2363 9.2015 21.0881 9.19224 16.09L9.17834 10.9576L9.0718 10.7723C8.84483 10.3785 8.51131 10.1933 8.02493 10.1933C7.83502 10.1933 7.66363 10.2118 7.64973 10.2396Z" fill="#D41E5C"/>
<path d="M26.9658 10.2812C26.7527 10.3785 26.5165 10.624 26.396 10.8788C26.3219 11.0363 26.3173 11.3327 26.3034 14.5706C26.2895 18.0216 26.2941 18.0957 26.3914 18.5219C26.5443 19.1982 26.7851 19.6336 27.2715 20.1107C27.5726 20.4071 27.7579 20.5415 27.9802 20.6434L28.2813 20.7777V21.8894C28.2767 22.5009 28.2906 23.0614 28.3091 23.1401C28.4203 23.6033 28.9298 23.9971 29.4301 23.9971C29.8702 23.9971 30.2824 23.7423 30.4677 23.3578C30.5696 23.154 30.5789 23.0753 30.5928 21.9682L30.6113 20.7962L30.88 20.6619C31.4312 20.384 31.9824 19.8003 32.2326 19.2398C32.4873 18.6562 32.5105 18.508 32.5337 17.5352C32.5475 16.9238 32.5383 16.5393 32.5059 16.4142C32.4317 16.1409 32.1909 15.8445 31.9222 15.6962C31.6211 15.5295 31.1579 15.5156 30.9031 15.6592C30.5789 15.8445 30.5048 15.9047 30.3797 16.1178C30.2593 16.3262 30.2546 16.354 30.2315 17.2341C30.2037 18.2625 30.1805 18.3412 29.8424 18.5774C29.5969 18.7396 29.3838 18.7581 29.129 18.6284C28.9345 18.5265 28.726 18.318 28.6843 18.1837C28.6704 18.1328 28.6473 16.493 28.638 14.5428C28.6148 10.6379 28.6287 10.8093 28.323 10.5175C28.0636 10.2674 27.8691 10.1932 27.4892 10.1979C27.2715 10.1979 27.0862 10.2303 26.9658 10.2812Z" fill="#D41E5C"/>
</svg>
