<svg width="36" height="24" viewBox="0 0 36 24" fill="none" xmlns="http://www.w3.org/2000/svg">
<mask id="mask0_1_7083" style="mask-type:luminance" maskUnits="userSpaceOnUse" x="0" y="4" width="13" height="17">
<path d="M3.73998 18.3097C3.23753 17.5774 3.19522 16.8207 3.78846 15.7978C4.38169 14.775 6.33663 13.4736 6.33663 13.4736C6.33663 13.4736 7.45646 12.8743 7.45646 12.2811C7.45646 12.2675 7.45591 12.254 7.45518 12.2406C7.45591 12.2272 7.45646 12.2137 7.45646 12.2001C7.45646 11.6069 6.33663 11.0077 6.33663 11.0077C6.33663 11.0077 6.33517 11.0066 6.33281 11.0051C6.24021 10.943 4.36699 9.681 3.78846 8.68338C3.19522 7.66052 3.23772 6.90386 3.73998 6.17153C4.24224 5.4392 5.48318 4.97907 7.37166 5.10018C9.26013 5.2213 11.3378 5.79474 12.8956 7.19675C12.8956 7.19675 11.5662 4.8338 8.18279 4.1741C4.79934 3.51441 2.19651 4.84596 0.69554 6.21384C0.297507 6.57646 0.0932255 6.92256 0.0258578 7.2525C-0.16081 8.16714 0.705708 8.95757 1.42188 9.63379C2.37882 10.5372 2.80427 11.4347 2.79647 12.2406C2.80427 13.0465 2.37882 13.944 1.42188 14.8474C0.705708 15.5236 -0.16081 16.3141 0.0256763 17.2285C0.0930439 17.5585 0.297326 17.9046 0.695358 18.2674C2.19651 19.6353 4.79916 20.967 8.18261 20.3071C11.5661 19.6474 12.8954 17.2845 12.8954 17.2845C11.3376 18.6865 9.25995 19.2599 7.37147 19.381C5.48318 19.5021 4.24242 19.042 3.73998 18.3097Z" fill="white"/>
</mask>
<g mask="url(#mask0_1_7083)">
<path d="M2.39313 9.16912L6.33259 11.0053C6.23998 10.9432 4.36676 9.68118 3.78824 8.68356C3.195 7.6607 3.23749 6.90404 3.73975 6.17171C4.24201 5.43938 5.48296 4.97925 7.37143 5.10037C9.25991 5.22148 11.3376 5.79492 12.8954 7.19693C12.8954 7.19693 11.566 4.83398 8.18257 4.17429C4.79911 3.51459 2.19629 4.84615 0.695316 6.21402C0.297284 6.57664 0.0930024 6.92274 0.0256348 7.25268C0.0561409 8.25866 2.39313 9.16912 2.39313 9.16912Z" fill="#2899D5"/>
<path d="M3.73993 18.3097C3.23749 17.5774 3.19518 16.8207 3.78842 15.7978C4.38165 14.775 6.33659 13.4736 6.33659 13.4736L2.39313 15.3114C2.39313 15.3114 0.055233 16.2222 0.0256348 17.2285C0.0930024 17.5585 0.297284 17.9046 0.695316 18.2674C2.19647 19.6353 4.79911 20.967 8.18257 20.3071C11.566 19.6474 12.8954 17.2845 12.8954 17.2845C11.3376 18.6865 9.25991 19.2599 7.37143 19.381C5.48314 19.5022 4.24238 19.042 3.73993 18.3097Z" fill="#FBAD18"/>
<path d="M2.39321 15.3114L6.33667 13.4734C6.33667 13.4734 7.4565 12.8742 7.4565 12.2809C7.4565 12.2673 7.45596 12.2539 7.45523 12.2404C7.45596 12.227 7.4565 12.2136 7.4565 12.1999C7.4565 11.6067 6.33667 11.0075 6.33667 11.0075C6.33667 11.0075 6.33522 11.0064 6.33286 11.0049L2.39321 9.16912C2.39321 9.16912 0.0562287 8.25866 0.0257226 7.25269C-0.160946 8.16732 0.705573 8.95776 1.42174 9.63398C2.37869 10.5374 2.80414 11.4349 2.79633 12.2408C2.80414 13.0467 2.37869 13.9442 1.42174 14.8476C0.705755 15.5237 -0.160764 16.3141 0.0257226 17.2285C0.0553208 16.2224 2.39321 15.3114 2.39321 15.3114Z" fill="#EE212E"/>
</g>
<path d="M9.67051 12.6389C9.67051 12.7329 9.71754 12.8034 9.8116 12.8504C9.90548 12.8974 10.0246 12.9218 10.1688 12.9232C10.3128 12.9248 10.4539 12.9187 10.5919 12.9051C10.7299 12.8914 10.8602 12.8755 10.983 12.8573C11.1057 12.8391 11.1764 12.8301 11.1945 12.8301C11.2067 13.0939 11.1544 13.2804 11.0377 13.3895C10.9209 13.4987 10.6867 13.5533 10.3347 13.5533C9.84955 13.5533 9.4931 13.4547 9.26576 13.2577C9.03823 13.0607 8.92456 12.7195 8.92456 12.2341C8.92456 11.9915 8.95561 11.786 9.01771 11.6176C9.07981 11.4493 9.17079 11.3213 9.29063 11.2332C9.41048 11.1453 9.54376 11.083 9.69103 11.0467C9.83811 11.0104 10.0103 10.9921 10.2073 10.9921C10.5833 10.9921 10.8601 11.0716 11.0375 11.2308C11.2149 11.3901 11.3037 11.6441 11.3037 11.9928C11.3037 12.1262 11.2779 12.2332 11.2263 12.3135C11.1747 12.3939 11.1072 12.4476 11.0239 12.4749C10.9403 12.5021 10.8403 12.5219 10.7237 12.5341C10.6069 12.5462 10.4916 12.5501 10.378 12.5455C10.2643 12.541 10.1414 12.5462 10.0095 12.5615C9.87751 12.5767 9.76439 12.6024 9.67051 12.6389ZM9.64781 12.1611C9.69938 12.1248 9.78345 12.1005 9.90021 12.0883C10.017 12.0761 10.1261 12.0694 10.2278 12.0678C10.3293 12.0663 10.4195 12.0451 10.4985 12.004C10.5773 11.9632 10.6153 11.8987 10.6122 11.8106C10.6122 11.7318 10.5501 11.6666 10.4257 11.6151C10.2528 11.5423 10.0845 11.5363 9.92073 11.5969C9.69321 11.679 9.60223 11.8669 9.64781 12.1611Z" fill="#142747"/>
<path d="M14.2333 11.8564V13.5123C14.1271 13.5183 14.0361 13.5175 13.9604 13.5099C13.8845 13.5023 13.8125 13.4849 13.7443 13.4576C13.676 13.4304 13.6261 13.3855 13.5941 13.3234C13.5623 13.2613 13.5478 13.1832 13.5509 13.0892V12.1066V12.0976V11.87C13.5055 11.6487 13.299 11.5606 12.9322 11.6062C12.7412 11.6305 12.6304 11.6487 12.6001 11.6608C12.6092 11.7124 12.6137 11.7731 12.6137 11.8428V13.0892C12.6166 13.1832 12.6016 13.2613 12.5683 13.3234C12.5349 13.3855 12.4848 13.4304 12.4182 13.4576C12.3513 13.4849 12.2802 13.5025 12.2044 13.5099C12.1285 13.5175 12.0376 13.5183 11.9315 13.5123V11.2969C11.9315 11.0999 12.2484 10.9937 12.8823 10.9785C13.7799 10.9541 14.2302 11.2468 14.2333 11.8564Z" fill="#142747"/>
<path d="M16.6124 10.0048C16.6579 10.0382 16.7148 10.0594 16.7829 10.0685C16.8512 10.0776 16.9133 10.0821 16.9694 10.0821C17.0255 10.0821 17.0792 10.0905 17.1308 10.1072C17.1824 10.1239 17.2225 10.164 17.2514 10.2277C17.2802 10.2915 17.2946 10.3839 17.2946 10.5052V13.1892C17.2915 13.1923 17.2771 13.2097 17.2514 13.2415C17.2256 13.2733 17.202 13.2991 17.1809 13.3188C17.1597 13.3386 17.1203 13.3642 17.0627 13.3962C17.0051 13.428 16.9414 13.453 16.8717 13.4712C16.8019 13.4894 16.7079 13.5061 16.5897 13.5213C16.4715 13.5364 16.3378 13.544 16.1893 13.544C15.7222 13.544 15.387 13.4432 15.1838 13.2415C14.9807 13.0399 14.8792 12.704 14.8792 12.2339C14.8792 12.0519 14.9033 11.8889 14.952 11.7449C15.0004 11.6009 15.0649 11.4832 15.1454 11.3922C15.2256 11.3013 15.3204 11.2255 15.4297 11.1647C15.5388 11.1041 15.6496 11.0616 15.7618 11.0374C15.874 11.0133 15.9908 11.0011 16.1121 11.0011C16.3456 11.0011 16.5125 11.0374 16.6126 11.1102V10.0048H16.6124ZM16.6124 12.2795V11.6336C16.573 11.6214 16.5297 11.6109 16.4827 11.6018C16.4357 11.5927 16.3774 11.5858 16.3075 11.5813C16.2378 11.5767 16.1717 11.5775 16.1096 11.5836C16.0475 11.5898 15.9828 11.608 15.9162 11.6383C15.8495 11.6686 15.7918 11.7087 15.7433 11.7589C15.6948 11.809 15.6552 11.8787 15.6251 11.968C15.5948 12.0576 15.5797 12.1629 15.5797 12.2842C15.5797 12.3995 15.5979 12.4995 15.6344 12.5843C15.6707 12.6693 15.7155 12.7345 15.7685 12.7799C15.8216 12.8255 15.8868 12.8594 15.9641 12.8823C16.0415 12.9052 16.1112 12.9186 16.1733 12.9232C16.2354 12.9277 16.303 12.9263 16.3758 12.9186C16.4486 12.9112 16.4992 12.9043 16.5281 12.8981C16.557 12.8921 16.5835 12.886 16.6076 12.88H16.6122C16.6153 12.8798 16.6153 12.6797 16.6124 12.2795Z" fill="#142747"/>
<path d="M17.9407 12.252C17.9376 12.2339 17.9354 12.2095 17.9338 12.1792C17.9322 12.1489 17.9369 12.0899 17.9474 12.0018C17.9579 11.9139 17.9754 11.8297 17.9997 11.7494C18.0239 11.6692 18.0663 11.5804 18.127 11.4832C18.1876 11.3862 18.2626 11.3029 18.3522 11.233C18.4415 11.1633 18.5621 11.105 18.7139 11.0578C18.8655 11.0107 19.0384 10.9873 19.2325 10.9873C19.369 10.9873 19.4947 10.998 19.61 11.0191C19.7253 11.0403 19.8244 11.0692 19.908 11.1055C19.9913 11.1418 20.0656 11.1874 20.131 11.2421C20.1961 11.2967 20.2499 11.3505 20.2924 11.4035C20.3349 11.4565 20.3705 11.5195 20.3993 11.5923C20.428 11.6652 20.45 11.7282 20.4653 11.7812C20.4803 11.8342 20.491 11.8965 20.497 11.9677C20.503 12.039 20.5068 12.0928 20.5085 12.1291C20.5099 12.1654 20.5099 12.2117 20.5085 12.2678C20.5068 12.3239 20.5061 12.355 20.5061 12.3612C20.5061 12.4097 20.5045 12.4538 20.5016 12.4932C20.4985 12.5326 20.4894 12.5949 20.4743 12.6797C20.4591 12.7646 20.438 12.8404 20.4106 12.9072C20.3834 12.974 20.3401 13.0466 20.2809 13.1255C20.2217 13.2044 20.152 13.2704 20.0718 13.3234C19.9913 13.3764 19.8867 13.4213 19.7578 13.4576C19.6289 13.4939 19.484 13.5122 19.3235 13.5122C19.1566 13.5122 19.008 13.5017 18.8777 13.4805C18.7473 13.4592 18.6365 13.4312 18.5455 13.3964C18.4546 13.3615 18.375 13.3138 18.3068 13.2531C18.2385 13.1925 18.1831 13.1304 18.1408 13.0666C18.0983 13.0029 18.0634 12.9241 18.0362 12.83C18.009 12.7361 17.9884 12.6457 17.9748 12.5593C17.9612 12.4728 17.9498 12.3704 17.9407 12.252ZM18.6184 12.2931C18.6274 12.3993 18.6403 12.4834 18.657 12.5455C18.6737 12.6076 18.7041 12.6691 18.748 12.7298C18.792 12.7904 18.8579 12.8344 18.9459 12.8618C19.0338 12.889 19.146 12.9027 19.2826 12.9027C19.3886 12.9027 19.4796 12.8859 19.5555 12.8525C19.6312 12.8191 19.6873 12.7814 19.7238 12.7389C19.7602 12.6964 19.789 12.645 19.8103 12.5842C19.8315 12.5235 19.8437 12.4781 19.8466 12.4476C19.8495 12.4173 19.8511 12.3839 19.8511 12.3476C19.8511 12.3446 19.8511 12.3287 19.8511 12.2998C19.8511 12.2709 19.8511 12.2468 19.8511 12.227C19.8511 12.2074 19.8495 12.1778 19.8466 12.1382C19.8435 12.0988 19.8382 12.0646 19.8306 12.0358C19.823 12.0069 19.8125 11.9729 19.7988 11.9334C19.7852 11.894 19.7685 11.8598 19.7489 11.8309C19.7291 11.8021 19.7033 11.7727 19.6715 11.7421C19.6398 11.7118 19.604 11.6868 19.5646 11.6672C19.5252 11.6475 19.4774 11.6316 19.4213 11.6194C19.3652 11.6072 19.3038 11.6012 19.237 11.6012C19.1157 11.6012 19.0126 11.6179 18.9276 11.6514C18.8426 11.6848 18.7805 11.7234 18.7411 11.7674C18.7017 11.8113 18.6714 11.8691 18.6501 11.9403C18.6289 12.0116 18.6175 12.067 18.616 12.1062C18.6144 12.1456 18.6153 12.1957 18.6184 12.2564C18.6184 12.2749 18.6184 12.2869 18.6184 12.2931Z" fill="#142747"/>
<path d="M22.8217 10.9875C22.8187 10.9937 22.8194 11.0254 22.8241 11.083C22.8286 11.1406 22.8279 11.1959 22.8217 11.249C22.8156 11.302 22.8036 11.359 22.7854 11.4195C22.7673 11.4801 22.73 11.5286 22.6739 11.5651C22.6178 11.6014 22.5457 11.6198 22.4579 11.6198C22.3306 11.6198 22.232 11.6243 22.1622 11.6334C22.0925 11.6425 22.0302 11.6652 21.9757 11.7017C21.9211 11.738 21.8848 11.7897 21.8666 11.8564C21.8485 11.9232 21.8394 12.0142 21.8394 12.1293V13.585C21.7847 13.5456 21.7126 13.5146 21.6233 13.4917C21.5338 13.469 21.458 13.4516 21.3958 13.4394C21.3335 13.4273 21.2783 13.3917 21.2298 13.3325C21.1813 13.2733 21.157 13.1877 21.157 13.0755V11.8564C21.157 11.8382 21.1577 11.8132 21.1593 11.7814C21.1608 11.7496 21.1662 11.7057 21.1753 11.6494C21.1844 11.5933 21.1995 11.5371 21.2207 11.481C21.242 11.4249 21.2737 11.3666 21.3162 11.3058C21.3587 11.2452 21.4101 11.1921 21.4709 11.1466C21.5316 11.101 21.6097 11.0632 21.7052 11.0329C21.8007 11.0026 21.9076 10.9875 22.0259 10.9875C22.2291 10.9875 22.379 10.9875 22.4762 10.9875C22.5732 10.9875 22.6264 10.9875 22.6354 10.9875C22.6445 10.9875 22.6619 10.9875 22.6877 10.9875C22.7132 10.9875 22.758 10.9875 22.8217 10.9875Z" fill="#142747"/>
<path d="M24.0591 14.5175C24.0044 14.4781 23.9324 14.4545 23.843 14.4471C23.7535 14.4394 23.6778 14.4356 23.6155 14.4356C23.5532 14.4356 23.498 14.4029 23.4495 14.3378C23.401 14.2726 23.3767 14.1656 23.3767 14.0171V11.3333C23.3796 11.3304 23.3941 11.3128 23.4199 11.281C23.4457 11.2492 23.4691 11.2241 23.4904 11.206C23.5116 11.1878 23.551 11.162 23.6086 11.1286C23.6662 11.0952 23.7299 11.0694 23.7996 11.0513C23.8693 11.0331 23.9634 11.0164 24.0816 11.0012C24.1998 10.9861 24.3333 10.9785 24.482 10.9785C24.949 10.9785 25.2841 11.0792 25.4874 11.281C25.6906 11.4827 25.7923 11.8185 25.7923 12.2886C25.7923 12.5161 25.756 12.7131 25.6832 12.88C25.6104 13.0469 25.5127 13.1751 25.3897 13.2644C25.267 13.3539 25.1364 13.4191 24.9986 13.46C24.8606 13.5008 24.7143 13.5214 24.5597 13.5214C24.3505 13.5214 24.1837 13.5001 24.0593 13.4576V14.5175H24.0591ZM24.0591 12.243V12.8889C24.1076 12.9042 24.1599 12.9161 24.216 12.9252C24.2721 12.9343 24.3426 12.9419 24.4275 12.9479C24.5123 12.9541 24.5913 12.945 24.6641 12.9207C24.737 12.8965 24.8067 12.8615 24.8733 12.8161C24.94 12.7707 24.9932 12.6979 25.0326 12.5978C25.072 12.4978 25.0918 12.3779 25.0918 12.2385C25.0918 12.1232 25.0729 12.0231 25.0349 11.9383C24.997 11.8535 24.953 11.7881 24.9029 11.7427C24.8528 11.6973 24.7869 11.6632 24.705 11.6403C24.6231 11.6176 24.5548 11.604 24.5004 11.5995C24.4457 11.5949 24.3776 11.5971 24.2957 11.6064C24.2138 11.6155 24.1637 11.6216 24.1455 11.6245C24.1274 11.6276 24.1001 11.6336 24.0636 11.6427H24.0591C24.056 11.6425 24.056 11.8428 24.0591 12.243Z" fill="#142747"/>
<path d="M27.1159 11.074C27.2645 11.0133 27.5132 10.983 27.8621 10.983C28.0318 10.983 28.1775 11.0118 28.2988 11.0694C28.4201 11.127 28.5079 11.1931 28.5626 11.2673C28.6173 11.3416 28.6588 11.4266 28.6877 11.5221C28.7164 11.6176 28.7324 11.689 28.7355 11.7358C28.7384 11.7829 28.7384 11.823 28.7355 11.8564V13.5123C28.2806 13.5729 28.0531 13.432 28.0531 13.0892C28.0531 12.9619 28.0531 12.795 28.0531 12.5887C28.056 12.1369 28.0349 11.8617 27.9893 11.7631C27.944 11.6645 27.8012 11.6122 27.5617 11.6062C27.413 11.6062 27.2645 11.6334 27.1159 11.6881V13.0892C27.1219 13.2711 27.0651 13.3902 26.9454 13.4463C26.8256 13.5025 26.6551 13.5244 26.4337 13.5123V9.96393C26.4884 10.0033 26.5603 10.0269 26.6498 10.0344C26.7391 10.042 26.815 10.0458 26.8773 10.0458C26.9394 10.0458 26.9948 10.0785 27.0433 10.1437C27.0918 10.2089 27.1161 10.3158 27.1161 10.4644V11.074H27.1159Z" fill="#142747"/>
<path d="M29.495 10.7282C29.4252 10.6554 29.3904 10.569 29.3904 10.4689C29.3904 10.3689 29.426 10.2832 29.4973 10.212C29.5685 10.1408 29.6542 10.105 29.7543 10.105C29.8543 10.105 29.94 10.1408 30.0114 10.212C30.0826 10.2834 30.1184 10.3689 30.1184 10.4689C30.1184 10.569 30.0828 10.6547 30.0114 10.7259C29.94 10.7972 29.8545 10.8328 29.7543 10.8328C29.6542 10.8328 29.5678 10.798 29.495 10.7282ZM30.0909 11.4424C30.0909 11.2939 30.0666 11.1869 30.0181 11.1217C29.9696 11.0565 29.9142 11.0239 29.8521 11.0239C29.79 11.0239 29.7141 11.02 29.6246 11.0124C29.5351 11.005 29.4632 10.9814 29.4085 10.942V13.5121C29.6299 13.5243 29.8004 13.5023 29.9202 13.4462C30.0401 13.3901 30.0969 13.271 30.0907 13.089V11.4424H30.0909Z" fill="#142747"/>
<path d="M33.066 11.8564V13.5123C32.9598 13.5183 32.8688 13.5175 32.7931 13.5099C32.7172 13.5023 32.6453 13.4849 32.577 13.4576C32.5088 13.4304 32.4588 13.3855 32.4269 13.3234C32.3951 13.2613 32.3806 13.1832 32.3836 13.0892V12.1066V12.0976V11.87C32.3383 11.6487 32.1318 11.5606 31.765 11.6062C31.574 11.6305 31.4632 11.6487 31.4329 11.6608C31.442 11.7124 31.4465 11.7731 31.4465 11.8428V13.0892C31.4494 13.1832 31.4343 13.2613 31.4011 13.3234C31.3677 13.3855 31.3176 13.4304 31.2509 13.4576C31.1841 13.4849 31.1129 13.5025 31.0372 13.5099C30.9613 13.5175 30.8703 13.5183 30.7643 13.5123V11.2969C30.7643 11.0999 31.0811 10.9937 31.7151 10.9785C32.6126 10.9541 33.063 11.2468 33.066 11.8564Z" fill="#142747"/>
<path d="M33.8938 11.6243C33.8938 11.6153 33.8922 11.6031 33.8893 11.588C33.8862 11.573 33.8855 11.5434 33.8869 11.4992C33.8884 11.4553 33.8929 11.4135 33.9006 11.3741C33.9082 11.3347 33.9233 11.29 33.9461 11.2399C33.9688 11.1898 33.9992 11.1475 34.0371 11.1126C34.0751 11.0778 34.1265 11.0482 34.1918 11.0238C34.257 10.9997 34.3336 10.9875 34.4215 10.9875C34.4488 10.9875 34.4913 10.9875 34.5488 10.9875C34.6276 10.9846 34.7088 10.9846 34.7921 10.9875C34.8755 10.9906 34.9588 10.9944 35.0424 10.999C35.1257 11.0035 35.2069 11.0164 35.2857 11.0376C35.3645 11.0589 35.4395 11.0847 35.5109 11.115C35.582 11.1453 35.6474 11.1885 35.7064 11.2447C35.7656 11.3008 35.8172 11.3652 35.8611 11.438C35.9051 11.5109 35.9392 11.6004 35.9635 11.7064C35.9877 11.8126 35.9999 11.9323 35.9999 12.0658V12.0976V12.1293V12.1656V12.1974V12.2337V12.2701V12.3109V12.3563V12.4019V12.4565V12.5294V12.5657C35.9999 12.6901 35.9862 12.803 35.959 12.9045C35.9318 13.0062 35.8976 13.0888 35.8566 13.1524C35.8157 13.2161 35.7649 13.2722 35.7042 13.3207C35.6436 13.3692 35.5868 13.4048 35.5337 13.4277C35.4807 13.4504 35.4192 13.4685 35.3494 13.4823C35.2797 13.4959 35.2258 13.5043 35.188 13.5074C35.15 13.5105 35.1054 13.5119 35.0538 13.5119H34.4261C34.417 13.5119 34.4034 13.5112 34.3852 13.5096C34.3671 13.5081 34.3329 13.5036 34.2828 13.4959C34.2327 13.4883 34.1849 13.477 34.1395 13.4618C34.0941 13.4467 34.0433 13.4217 33.9872 13.3868C33.9311 13.3519 33.8833 13.3111 33.8439 13.264C33.8045 13.217 33.7711 13.1556 33.7439 13.0797C33.7166 13.004 33.703 12.919 33.703 12.825C33.703 12.6583 33.7242 12.5179 33.7667 12.4042C33.8092 12.2906 33.8737 12.2025 33.9601 12.1404C34.0466 12.0783 34.1428 12.0351 34.249 12.0108C34.3551 11.9866 34.484 11.9744 34.6356 11.9744C34.8995 11.9744 35.0792 11.957 35.1747 11.9221C35.2703 11.8873 35.318 11.8333 35.318 11.7607C35.318 11.6576 35.2187 11.5878 35.02 11.5515C34.8214 11.5152 34.6106 11.5076 34.3878 11.5288C34.1646 11.5501 34.0001 11.5819 33.8938 11.6243ZM35.336 12.3113C35.3238 12.3265 35.3064 12.3447 35.2837 12.3659C35.261 12.3872 35.2101 12.4153 35.1313 12.45C35.0525 12.4849 34.9706 12.5023 34.8857 12.5023C34.7371 12.5023 34.6166 12.5205 34.5239 12.557C34.4313 12.5933 34.3852 12.645 34.3852 12.7117C34.3852 12.7905 34.4186 12.8497 34.4853 12.8891C34.5519 12.9285 34.6854 12.9483 34.8857 12.9483C34.9676 12.9483 35.0304 12.9475 35.0745 12.9459C35.1184 12.9445 35.1593 12.933 35.1973 12.9118C35.2352 12.8905 35.2617 12.8709 35.2768 12.8526C35.2919 12.8344 35.3048 12.7957 35.3155 12.7365C35.326 12.6774 35.3322 12.6205 35.3336 12.566C35.3351 12.5114 35.336 12.4266 35.336 12.3113Z" fill="#142747"/>
</svg>
