<svg width="36" height="24" viewBox="0 0 36 24" fill="none" xmlns="http://www.w3.org/2000/svg">
<path d="M21.4354 9.75448L21.6935 7.95352L20.6144 5.69436L19.8813 5.94497L18.9257 4.92012L17.2369 4L16.8666 5.36522L16.6048 4.64895L15.3069 5.91691L14.5813 7.18488L14.5495 8.49961L14.0389 8.25648L14.3868 10.3623L15.1779 11.7182L17.0424 12.3577L18.5703 12.4138L21.2035 11.4507L21.9609 9.57682L21.4354 9.75448ZM20.2965 8.75395L18.8041 8.79509L18.7499 10.4745L18.6695 11.4694L17.3678 11.4563V10.5025L17.2612 8.83623L15.7015 8.90356L15.6473 7.29148L17.9457 7.27839L20.3246 7.21106L20.3657 7.42613L20.2965 8.75395Z" fill="black"/>
<path d="M3.16482 14.27L0.183787 14.3635C0.131423 14.3654 0.0827985 14.3878 0.0491357 14.4271C0.0136026 14.4664 -0.00322886 14.5169 0.000511457 14.5674L0.0547459 15.379C0.0622266 15.48 0.146384 15.5586 0.247373 15.5567L1.05715 15.5473L1.24043 19.3587C1.2423 19.4092 1.26661 19.4578 1.30401 19.4915C1.34329 19.5252 1.39378 19.5439 1.44428 19.5401L2.35878 19.4784C2.46164 19.4709 2.54019 19.3849 2.53645 19.2821L2.42985 15.5268L3.23215 15.5174C3.28451 15.5174 3.33314 15.495 3.36867 15.4557C3.4042 15.4164 3.4229 15.3659 3.41916 15.3136L3.36119 14.4477C3.35558 14.3467 3.26768 14.2682 3.16482 14.27ZM6.63584 14.5188L5.73442 14.4701C5.62969 14.4683 5.54741 14.5487 5.5418 14.6515L5.52871 16.6395L5.13597 16.7237L5.03685 14.4683C5.03311 14.3673 4.94895 14.2869 4.84797 14.2869L3.95964 14.3093C3.90728 14.3093 3.85865 14.3299 3.82312 14.3654C3.78572 14.4028 3.76701 14.4514 3.76701 14.5038L3.92972 19.5177C3.93159 19.6206 4.01575 19.7047 4.1186 19.7066L5.00693 19.6841C5.05929 19.6841 5.10792 19.6654 5.14345 19.628C5.17898 19.5925 5.19956 19.542 5.19956 19.4915L5.10231 17.8121L5.45016 17.8364L5.51187 19.34C5.51 19.3924 5.5287 19.4429 5.56424 19.4803C5.59977 19.5177 5.6484 19.5401 5.70076 19.5401L6.62836 19.6037C6.6321 19.6037 6.63584 19.6037 6.63958 19.6037C6.7387 19.6 6.81725 19.5196 6.82099 19.4186L6.82473 14.717C6.8266 14.6646 6.80789 14.616 6.77236 14.5786C6.73683 14.5412 6.6882 14.5188 6.63584 14.5188ZM9.97782 14.098L9.15682 14.1597C9.0577 14.1672 8.98102 14.2495 8.98102 14.3486C8.98102 14.3486 8.9885 17.4867 8.97728 17.8963C8.9698 18.1394 9.00346 18.5489 8.73603 18.5602C8.55275 18.5677 8.48917 18.3002 8.48543 17.9206C8.48169 17.4942 8.51722 14.5749 8.51722 14.5449C8.51909 14.4458 8.44428 14.3635 8.34704 14.3523L7.4157 14.2532C7.36146 14.2476 7.30723 14.2644 7.26795 14.3018C7.22681 14.3392 7.20437 14.3916 7.20624 14.4458C7.20624 14.4458 7.24177 18.1226 7.24364 18.2516C7.25486 18.7285 7.62141 19.5831 8.65561 19.5551C9.81511 19.5233 10.0246 18.8332 10.0956 18.0272C10.1256 17.6924 10.1798 14.6272 10.1835 14.2869C10.1835 14.2326 10.1611 14.1821 10.1237 14.1466C10.0863 14.1111 10.0302 14.0924 9.97782 14.098ZM13.5816 14.2981L12.7307 14.3392C12.6802 14.3411 12.6316 14.3654 12.5979 14.4028C12.5642 14.4421 12.5474 14.4926 12.5493 14.5431L12.6895 16.8976L11.8087 14.4645C11.7788 14.3822 11.6965 14.3317 11.6105 14.3411L10.7577 14.4346C10.6604 14.4458 10.5856 14.5281 10.5875 14.6272L10.7277 19.269C10.7277 19.3681 10.8063 19.4522 10.9054 19.4578L11.7601 19.5214C11.8143 19.5252 11.8685 19.5065 11.9078 19.4672C11.9471 19.4298 11.9677 19.3756 11.9658 19.3213L11.833 17.2903L12.5717 19.3999C12.5979 19.4709 12.6634 19.5196 12.74 19.5252H13.6396C13.6471 19.5252 13.6527 19.5252 13.6602 19.5252C13.705 19.5233 13.7499 19.5046 13.7836 19.4728C13.821 19.4354 13.8434 19.3849 13.8434 19.3325L13.7892 14.4888C13.7892 14.4365 13.7668 14.3878 13.7294 14.3523C13.6845 14.313 13.634 14.2943 13.5816 14.2981ZM14.7224 14.199C14.6626 14.199 14.6027 14.199 14.541 14.2008C14.44 14.2027 14.3577 14.285 14.3559 14.386L14.2025 19.2091C14.1988 19.312 14.2773 19.398 14.3783 19.4055C14.382 19.4055 14.4905 19.4148 14.6607 19.4148C15.2591 19.4148 16.6898 19.3064 17.019 18.3002C17.2939 17.4643 17.249 16.3216 17.1798 15.7774C17.0433 14.7151 16.2391 14.199 14.7224 14.199ZM15.996 17.3764C15.895 18.1917 15.6388 18.2422 15.3583 18.3395L15.4892 15.3098C15.5864 15.336 15.7099 15.3323 15.8669 15.5417C16.0988 15.8484 16.0951 16.5797 15.996 17.3764ZM19.9701 18.5564L18.8517 18.6443L18.7994 17.6008L19.5231 17.5596C19.6166 17.554 19.6914 17.4811 19.7008 17.3894L19.7681 16.748C19.7737 16.6919 19.755 16.6358 19.7176 16.5965C19.6783 16.5554 19.6241 16.5348 19.568 16.5367L18.7825 16.5778V15.4426H19.942H19.9439C20.0505 15.4445 20.1347 15.3566 20.1347 15.2519C20.1347 15.2369 20.1328 15.2238 20.1309 15.2088L20.0655 14.5281C20.0561 14.4271 19.972 14.3542 19.8691 14.356L17.7446 14.4084C17.6399 14.4122 17.5576 14.4982 17.5594 14.601L17.6268 19.3718C17.6286 19.4765 17.7128 19.5607 17.8175 19.5607H19.9663C20.0692 19.5607 20.1552 19.4784 20.1571 19.3756L20.1739 18.7528C20.1758 18.6986 20.1534 18.6462 20.1141 18.6088C20.0785 18.5714 20.0243 18.5527 19.9701 18.5564ZM23.4448 15.7587C23.3981 15.0892 23.1662 14.2008 21.7093 14.2008C21.397 14.2008 21.0305 14.242 20.619 14.3224C20.5293 14.3392 20.4638 14.4196 20.4657 14.5131L20.533 19.1811C20.5349 19.2802 20.6115 19.3606 20.7088 19.3681L21.3783 19.4204C21.4307 19.4261 21.483 19.4074 21.5223 19.3699C21.5616 19.3344 21.584 19.2839 21.584 19.2297V17.7242L21.9244 17.7055L22.3022 19.3176C22.319 19.4092 22.3994 19.4728 22.4892 19.4728C22.4948 19.4728 22.4985 19.4728 22.5041 19.4728L23.1737 19.4204C23.2279 19.4167 23.2765 19.3905 23.3102 19.3475C23.3439 19.3045 23.3569 19.2503 23.3476 19.1979L22.8726 17.4044C23.2036 17.1482 23.5122 16.6881 23.4448 15.7587ZM22.2367 16.417C22.0647 16.6021 21.7692 16.6582 21.5822 16.6732V15.2967C21.642 15.2836 21.7056 15.2762 21.7654 15.2762C22.0216 15.2762 22.334 15.3902 22.3751 15.9382C22.3919 16.1421 22.3471 16.2991 22.2367 16.417ZM25.9957 17.1258C26.2725 16.7611 26.972 15.9158 26.899 14.4365C26.8972 14.386 26.8728 14.3373 26.8354 14.3037C26.798 14.27 26.7475 14.2513 26.6952 14.2551L25.9004 14.3074C25.7956 14.3149 25.7152 14.4047 25.7227 14.5113C25.7507 14.9302 25.474 15.8241 25.0756 16.387L25.1336 14.5674C25.1355 14.515 25.1149 14.4645 25.0775 14.429C25.0401 14.3916 24.9915 14.371 24.9391 14.3729L23.9142 14.3878C23.8638 14.3878 23.8151 14.4103 23.7796 14.4458C23.7441 14.4832 23.7254 14.5318 23.7272 14.5823L23.8301 19.413C23.832 19.4672 23.8544 19.5177 23.8974 19.5532C23.9386 19.5888 23.9947 19.6056 24.047 19.5981L24.8456 19.4915C24.9391 19.4784 25.0102 19.3999 25.012 19.3045L25.0251 17.8888C25.1878 17.986 25.6628 18.6742 25.7433 19.355C25.7545 19.4522 25.8368 19.5252 25.934 19.5233L26.7756 19.5196C26.7793 19.5196 26.7831 19.5196 26.7868 19.5196C26.8336 19.5158 26.8785 19.4971 26.9102 19.4616C26.9458 19.4242 26.9664 19.3756 26.9645 19.3232C26.957 19.1549 26.6709 17.67 25.9957 17.1258ZM28.3783 14.1559L27.4676 14.2738C27.3722 14.285 27.3011 14.3673 27.3011 14.4626L27.2936 19.196C27.2936 19.2484 27.3161 19.3008 27.3553 19.3363C27.3927 19.3718 27.4432 19.3905 27.4937 19.3868C27.4956 19.3868 27.4975 19.3868 27.4993 19.3868L28.4905 19.3138C28.5915 19.3064 28.6682 19.2222 28.6682 19.1212L28.5971 14.3448C28.5953 14.2906 28.5728 14.2382 28.5317 14.2027C28.4887 14.1653 28.4326 14.1485 28.3783 14.1559ZM30.3158 14.2943C30.039 14.313 29.1339 14.4739 29.0591 15.8092C29.0497 15.9793 29.0404 16.1402 29.031 16.2935C28.9768 17.2006 28.9375 17.857 29.0534 18.4255C29.1245 18.7659 29.4069 19.5532 30.5309 19.5532C30.6001 19.5532 30.673 19.5495 30.7459 19.5439C31.2154 19.5046 31.5632 19.355 31.7783 19.0969C32.0868 18.7304 32.0457 18.2609 32.0233 18.0085L32.0195 17.958C32.012 17.8551 31.9241 17.7784 31.8213 17.7822L31.1125 17.814C31.0583 17.8158 31.0078 17.842 30.9722 17.885C30.9386 17.9281 30.9236 17.9823 30.9311 18.0365C30.9461 18.1319 30.9629 18.4349 30.8395 18.5845C30.8077 18.6219 30.7497 18.6742 30.6169 18.6761H30.6076C30.5047 18.6761 30.428 18.6462 30.3682 18.5807C30.2653 18.4723 30.1494 18.2048 30.1812 17.5559C30.1886 17.4044 30.1961 17.2286 30.2036 17.0416C30.2223 16.5554 30.2447 16.0018 30.2896 15.6558L30.2915 15.6446C30.3252 15.3809 30.3757 15.2687 30.5963 15.2593C30.7534 15.2519 30.8638 15.2836 30.9217 15.3547C30.9965 15.4445 30.9872 15.596 30.9778 15.6465C30.9666 15.7026 30.9816 15.7605 31.0171 15.8036C31.0527 15.8484 31.1069 15.8746 31.163 15.8746L32.0177 15.8858C32.1186 15.8858 32.2065 15.8054 32.2103 15.7007C32.2122 15.6783 32.2252 15.1583 31.8325 14.7507C31.5015 14.4047 30.9891 14.2495 30.3158 14.2943ZM35.9955 19.1343C35.9824 19.0782 35.614 17.6307 34.864 16.9462C35.2306 16.6002 35.9805 15.9158 35.7299 14.3598C35.7131 14.2588 35.6215 14.1896 35.5205 14.2008L34.533 14.3112C34.4807 14.3168 34.4339 14.3448 34.4021 14.386C34.3703 14.4271 34.3572 14.4795 34.3666 14.5318C34.3684 14.5468 34.5704 15.6708 33.8055 16.3459L33.8242 14.429C33.8242 14.3748 33.8018 14.3224 33.7606 14.285C33.7195 14.2495 33.6653 14.2307 33.611 14.2382L32.6236 14.3486C32.5245 14.3598 32.4515 14.4439 32.4534 14.5431L32.5694 19.3419C32.5712 19.3943 32.5937 19.4466 32.6348 19.4803C32.6722 19.5121 32.719 19.5289 32.7676 19.527C32.7732 19.527 32.7769 19.527 32.7825 19.5252L33.6166 19.4317C33.7101 19.4204 33.7812 19.3456 33.7868 19.2521L33.856 17.7523C34.1178 18.0253 34.5611 18.7229 34.6321 19.3082C34.6452 19.413 34.7387 19.4859 34.8435 19.4747L35.829 19.3643C35.8833 19.3587 35.9319 19.3288 35.9637 19.2858C35.9974 19.2428 36.0067 19.1867 35.9955 19.1343Z" fill="black"/>
</svg>
