<svg width="36" height="24" viewBox="0 0 36 24" fill="none" xmlns="http://www.w3.org/2000/svg">
<path d="M17.4364 2.02406C21.0123 1.71566 24.1546 4.40794 24.463 8.05043C24.6464 10.2093 23.7796 12.3264 22.1458 13.7101C19.8036 15.6939 16.4278 15.7439 14.0273 13.8518C11.1933 11.6096 10.6765 7.45033 12.877 4.55798C13.9773 3.10764 15.636 2.19077 17.4364 2.02406ZM17.4864 2.24911C14.0356 2.53251 11.46 5.61654 11.7351 9.13403C12.0102 12.6515 15.0359 15.2771 18.4866 14.9937C21.9458 14.7103 24.513 11.6346 24.238 8.1088C24.0796 6.10832 23.0044 4.30793 21.3456 3.22434C20.2037 2.4825 18.8534 2.14075 17.4864 2.24911Z" fill="#E40707"/>
<path d="M17.1351 2.58252C20.1493 2.11575 23.0374 3.99952 23.8602 6.97521C24.3135 8.61723 24.0701 10.4677 23.1297 11.893C22.2734 12.2848 21.3079 12.3515 20.3843 12.3098C18.8395 12.2348 17.3283 11.8263 15.7751 11.7846C14.9019 11.7596 14.0035 11.8764 13.1892 12.2348C11.2162 9.51746 11.7955 5.69156 14.4821 3.69945C15.2545 3.11598 16.1696 2.74089 17.1351 2.58252ZM18.0419 2.69921C17.916 3.0743 17.7984 3.44939 17.6725 3.83281C17.2779 3.83281 16.8833 3.82448 16.4887 3.84115C16.8077 4.07453 17.1268 4.30791 17.4458 4.54964C17.3283 4.92473 17.2023 5.29983 17.0848 5.68324C17.4038 5.44987 17.7229 5.21646 18.0419 4.98309C18.3609 5.21646 18.68 5.44987 18.999 5.68324C18.8815 5.30814 18.7556 4.92473 18.638 4.54964C18.957 4.31627 19.2761 4.08287 19.5951 3.84115C19.2005 3.83281 18.8059 3.84115 18.4113 3.84115C18.2854 3.44939 18.1594 3.0743 18.0419 2.69921ZM15.2965 4.17456C15.2545 4.36627 15.2293 4.558 15.1874 4.74968L14.608 4.82473L15.1202 5.1081C15.0866 5.29983 15.053 5.49987 15.0194 5.68324C15.1622 5.54987 15.3049 5.41651 15.4476 5.27483C15.6155 5.36651 15.7834 5.46651 15.9598 5.54987C15.8758 5.37483 15.7919 5.19146 15.7079 5.01641C15.8506 4.88305 15.9934 4.74136 16.1277 4.608C15.9346 4.633 15.7415 4.658 15.5484 4.683C15.4644 4.53295 15.3804 4.35795 15.2965 4.17456ZM20.5355 4.708L19.9561 4.633C20.0989 4.77468 20.2332 4.90805 20.3759 5.04141C20.292 5.21646 20.208 5.39983 20.124 5.57487L20.6362 5.29983C20.7789 5.43319 20.9217 5.57487 21.0644 5.70824C21.0224 5.51651 20.9972 5.31651 20.9636 5.12478C21.1315 5.0331 21.2995 4.93305 21.4758 4.84137L20.8965 4.76637C20.8545 4.57464 20.8293 4.37459 20.7873 4.19123C20.7034 4.35795 20.6194 4.53295 20.5355 4.708ZM13.4578 5.54987C13.4662 5.66656 13.4746 5.78324 13.483 5.89997L13.1556 6.03333L13.4914 6.11665C13.4998 6.23338 13.5082 6.35006 13.5166 6.46675C13.5754 6.36675 13.6341 6.2667 13.7013 6.17502L14.0372 6.25002L13.8189 5.98329L14.0035 5.68324L13.6761 5.8166C13.609 5.72492 13.5334 5.63324 13.4578 5.54987ZM22.3993 5.8166L22.0802 5.68324L22.265 5.98329C22.1894 6.07502 22.1138 6.15834 22.0383 6.25002L22.3741 6.17502L22.5588 6.46675L22.584 6.11665L22.9198 6.03333L22.6008 5.89997L22.626 5.54987L22.3993 5.8166ZM14.3478 6.42507C13.9784 6.52511 13.6257 6.75848 13.441 7.10021C13.4242 8.3005 13.441 9.50078 13.4326 10.7094C13.7097 10.9011 14.0119 11.0345 14.3394 11.1178C14.7172 11.2178 15.1034 11.1928 15.4896 11.1678C15.8758 11.1428 16.2704 11.0428 16.5559 10.7761C17.0008 10.3843 17.1351 9.69251 16.9001 9.14237C16.7741 8.83396 16.4971 8.61723 16.2032 8.48391C16.4971 8.3005 16.7238 7.98377 16.707 7.62535C16.7154 6.98353 16.1613 6.42507 15.5484 6.35838C15.1538 6.3167 14.7424 6.3167 14.3478 6.42507ZM16.0101 6.33338C16.4467 6.49175 16.7321 6.89184 16.8833 7.31694C17.0764 7.31694 17.2695 7.31694 17.4626 7.31694C17.4626 8.60059 17.4626 9.89256 17.4626 11.1762H18.4533C18.4533 9.89256 18.4533 8.60059 18.4533 7.31694C18.638 7.31694 18.8227 7.31694 18.999 7.31694C19.2929 6.87516 19.7043 6.50011 20.208 6.33338C18.8059 6.3417 17.4038 6.33338 16.0101 6.33338ZM20.334 6.46675C19.7966 6.65848 19.36 7.04189 19.1082 7.55867C18.8311 8.11713 18.7891 8.75896 18.8815 9.36742C18.9654 9.94256 19.2509 10.4843 19.7127 10.8428C20.1493 11.1845 20.7202 11.2928 21.2491 11.2512C21.7864 11.2095 22.3489 11.0595 22.7771 10.7094C22.7771 9.94256 22.7771 9.17573 22.7771 8.40054C22.2398 8.40054 21.7025 8.40054 21.1651 8.40054C21.1651 8.69227 21.1651 8.99232 21.1651 9.28405H21.7948C21.7948 9.57578 21.7948 9.87588 21.7948 10.1676C21.4674 10.3927 21.0308 10.3927 20.6614 10.2593C20.2584 10.1009 19.9813 9.70083 19.8974 9.28405C19.8134 8.85896 19.8386 8.41722 19.9981 8.01713C20.1493 7.65035 20.4599 7.3503 20.8461 7.27526C21.3247 7.15026 21.82 7.35862 22.181 7.66703C22.3237 7.39199 22.4581 7.11689 22.6092 6.84184C22.0047 6.28338 21.0895 6.2167 20.334 6.46675Z" fill="#E40707"/>
<path d="M14.6081 7.45033C14.86 7.14191 15.4393 7.19196 15.6072 7.57537C15.6744 7.78374 15.582 8.07547 15.3469 8.13383C15.0783 8.20884 14.8012 8.16715 14.5242 8.17552C14.541 7.94211 14.4654 7.66706 14.6081 7.45033ZM14.5242 8.97571C14.8684 8.99234 15.2294 8.92566 15.5569 9.05903C16.0354 9.25076 16.0018 10.0759 15.5232 10.2426C15.1958 10.2843 14.8348 10.3093 14.5242 10.1509C14.5242 9.76754 14.5242 9.36744 14.5242 8.97571ZM16.4216 12.0681C18.1763 12.2431 19.9226 12.7182 21.6941 12.5098C22.1139 12.4682 22.5253 12.3682 22.9283 12.2098C22.6177 12.6182 22.2902 13.0099 21.8788 13.3183C21.5514 13.3767 21.224 13.3433 20.9049 13.31C19.9562 13.185 19.0495 12.8933 18.1427 12.5932C17.5718 12.4182 17.0093 12.2014 16.4216 12.0681ZM15.2714 12.4432C16.027 12.4598 16.749 12.7182 17.4711 12.9516C18.6633 13.335 19.8387 13.8018 21.098 13.9018C20.5607 14.2019 19.9982 14.4436 19.3937 14.577C19.3098 14.602 19.2426 14.5353 19.167 14.5103C18.4198 14.0935 17.7061 13.6184 16.9589 13.1767C16.4216 12.8683 15.8675 12.5848 15.2714 12.4432ZM14.3311 13.4434C14.86 13.4767 15.3973 13.5518 15.8759 13.7851C16.4216 14.0269 16.9002 14.377 17.3871 14.7104C16.2789 14.5686 15.221 14.1352 14.3311 13.4434Z" fill="#E40707"/>
<path d="M6.13475 18.861C6.2848 18.9944 6.44316 19.1278 6.60153 19.2611C6.50148 19.3361 6.39316 19.4028 6.29312 19.4779C6.49317 19.8029 6.50148 20.2197 6.3348 20.5614C6.15143 20.8865 5.78466 21.0699 5.41793 21.0699C5.25956 21.0782 5.09283 21.0116 4.94283 21.1032C4.87615 21.1282 4.7761 21.2282 4.88447 21.2783C5.00115 21.3283 5.13451 21.2866 5.25956 21.2699C5.61797 21.2032 6.02639 21.1949 6.34312 21.395C6.72658 21.67 6.67653 22.3202 6.2848 22.5619C5.62629 22.987 4.7261 22.912 4.08427 22.4785C4.22596 22.3119 4.36769 22.1451 4.50937 21.9868C4.86778 22.3035 5.40961 22.3952 5.8347 22.1618C5.9347 22.1118 5.96807 21.9868 5.91802 21.8868C5.89302 21.8451 5.85134 21.8034 5.80134 21.7867C5.41793 21.67 5.02615 21.8451 4.64274 21.7784C4.43437 21.7617 4.20096 21.6367 4.18432 21.4033C4.14264 21.1532 4.35932 20.9782 4.55105 20.8698C4.07596 20.6031 3.91759 19.8946 4.25932 19.4612C4.63442 18.9694 5.35124 18.9194 5.8847 19.1528L6.13475 18.861ZM5.04283 19.5779C4.71774 19.7029 4.66774 20.1864 4.90115 20.4114C5.05115 20.5614 5.28456 20.5781 5.47624 20.5197C5.76802 20.4114 5.84302 19.9863 5.67629 19.7446C5.54293 19.5362 5.25956 19.4945 5.04283 19.5779ZM35.275 19.1445C35.3582 19.0528 35.45 18.9527 35.5332 18.861C35.6832 18.9944 35.8418 19.1278 36 19.2611C35.9 19.3361 35.7918 19.4028 35.6914 19.4779C35.8668 19.7696 35.9 20.1363 35.775 20.4531C35.6414 20.7698 35.3582 20.9949 35.0164 21.0449C34.8414 21.0782 34.6664 21.0449 34.4913 21.0449C34.3913 21.0782 34.2413 21.1032 34.2327 21.2366C34.3327 21.3449 34.4832 21.2949 34.6082 21.2783C34.9664 21.2032 35.3664 21.1866 35.7 21.3783C36.0832 21.6033 36.0918 22.2285 35.7582 22.5035C35.425 22.7786 34.9914 22.8619 34.5745 22.8453C34.1827 22.8286 33.7995 22.7036 33.4745 22.4785C33.6159 22.3119 33.7577 22.1535 33.8913 21.9868C34.1413 22.2035 34.4664 22.3119 34.7914 22.2869C34.9745 22.2619 35.2082 22.2452 35.3164 22.0618C35.375 21.9201 35.2414 21.7784 35.1082 21.7701C34.6995 21.7117 34.2745 21.8868 33.8745 21.745C33.6913 21.7034 33.5659 21.5367 33.5659 21.3449C33.5577 21.1199 33.7663 20.9699 33.9327 20.8698C33.4577 20.6115 33.2995 19.8946 33.6409 19.4612C34.0327 18.9694 34.7495 18.911 35.275 19.1445ZM34.4332 19.5779C34.0745 19.7196 34.0663 20.3031 34.3913 20.4781C34.6082 20.5948 34.9332 20.5698 35.075 20.3447C35.1914 20.1363 35.1914 19.8446 35.0164 19.6695C34.8745 19.5195 34.6245 19.5029 34.4332 19.5779ZM11.9194 19.2945C12.3445 18.8944 13.053 18.936 13.4948 19.2945C13.8865 18.9694 14.495 18.911 14.9284 19.1861C15.1785 19.3528 15.2952 19.6612 15.2952 19.953C15.2952 20.5614 15.2952 21.1699 15.2952 21.7784H14.6284C14.6284 21.2199 14.6284 20.6782 14.6284 20.1197C14.6284 19.953 14.6034 19.7612 14.47 19.6529C14.2199 19.4612 13.8198 19.5445 13.6615 19.8113C13.6448 20.4697 13.6615 21.1199 13.6532 21.7784H12.9863C12.9863 21.1699 12.9947 20.5614 12.9863 19.953C12.9947 19.5945 12.5362 19.4529 12.2695 19.6112C12.1695 19.6779 12.0111 19.7529 12.0111 19.8946C12.0028 20.5197 12.0111 21.1449 12.0111 21.7784H11.3443V19.0694H11.8027L11.9194 19.2945ZM15.8954 19.4945C16.3871 18.9194 17.3123 18.861 17.9042 19.3195C18.2876 19.6195 18.4293 20.1613 18.2876 20.6198C17.6041 20.6198 16.9289 20.6198 16.2454 20.6198C16.2704 20.8865 16.4205 21.1449 16.6705 21.2282C17.0206 21.3533 17.454 21.3199 17.7624 21.0699C17.8458 21.2282 17.9375 21.395 18.0208 21.5617C17.6291 21.8284 17.1373 21.8534 16.6789 21.8117C16.2287 21.7701 15.787 21.4533 15.637 21.0032C15.4702 20.5031 15.5286 19.8946 15.8954 19.4945ZM16.6955 19.5945C16.4621 19.6696 16.3288 19.903 16.2704 20.1363C16.7372 20.1363 17.204 20.1363 17.6707 20.1363C17.6291 19.9613 17.5874 19.7863 17.4374 19.6779C17.229 19.5279 16.9372 19.5195 16.6955 19.5945ZM22.4802 19.1695C22.9553 18.9777 23.4888 18.9611 23.9805 19.1278C24.264 19.2278 24.4556 19.5029 24.5056 19.7946C24.6057 20.2697 24.5307 20.7448 24.5807 21.2199C24.5974 21.3866 24.6724 21.5367 24.7891 21.645C24.6724 21.8201 24.4556 21.8534 24.264 21.8117C24.1139 21.7701 24.0305 21.6367 23.9555 21.52C23.7722 21.7284 23.4804 21.8117 23.2137 21.8284C22.9219 21.8367 22.6136 21.7784 22.3968 21.5617C22.1718 21.3366 22.1384 20.9699 22.2301 20.6698C22.3218 20.3697 22.5969 20.178 22.8886 20.078C23.2137 19.978 23.5555 19.953 23.8972 20.0113C23.8722 19.8446 23.8055 19.6695 23.6388 19.6112C23.3137 19.4862 22.9386 19.5362 22.6219 19.6612C22.5719 19.5029 22.5219 19.3361 22.4802 19.1695ZM23.0303 20.6115C22.7969 20.7532 22.7803 21.1866 23.0553 21.2866C23.2804 21.3533 23.5638 21.3449 23.7555 21.1782C23.9305 21.0032 23.8889 20.7365 23.8972 20.5031C23.6055 20.4614 23.2804 20.4531 23.0303 20.6115ZM25.5892 19.2945C26.006 18.8944 26.7229 18.936 27.1563 19.2945C27.548 18.9694 28.1565 18.911 28.5816 19.1861C28.8316 19.3528 28.9567 19.6612 28.9484 19.953C28.9567 20.5614 28.9484 21.1699 28.9484 21.7867H28.2816C28.2816 21.2366 28.2816 20.6865 28.2816 20.128C28.2816 19.9613 28.2566 19.7696 28.1232 19.6529C27.8731 19.4612 27.473 19.5445 27.3063 19.8113C27.2896 20.4697 27.3063 21.1199 27.298 21.7784H26.6312C26.6228 21.1699 26.6395 20.5614 26.6228 19.953C26.6228 19.5945 26.1644 19.4529 25.8977 19.6112C25.7976 19.6779 25.6392 19.7529 25.6392 19.8946C25.6392 20.5197 25.6392 21.1449 25.6392 21.7784H24.9724C24.9724 20.8782 24.9724 19.9696 24.9724 19.0694H25.4309C25.4976 19.1445 25.5476 19.2195 25.5892 19.2945ZM31.3572 19.3111C31.6822 18.9861 32.1991 18.9527 32.6159 19.0861C32.9909 19.2111 33.2409 19.5862 33.2577 19.9863C33.2745 20.5864 33.2577 21.1866 33.2659 21.7867H32.5991C32.5991 21.2532 32.5991 20.7198 32.5991 20.1864C32.5991 19.978 32.5491 19.7362 32.3577 19.6279C32.049 19.4695 31.674 19.5695 31.4404 19.8029C31.4322 20.4614 31.4404 21.1199 31.4404 21.7784H30.7736C30.7736 20.8782 30.7736 19.9696 30.7736 19.0694H31.2572C31.2822 19.1528 31.3154 19.2278 31.3572 19.3111ZM2.75899 19.0694H3.80086C3.80086 19.9696 3.80086 20.8782 3.80086 21.7784H3.12572C3.12572 21.0449 3.12572 20.3197 3.12572 19.5862H2.75899C2.76731 19.4195 2.75899 19.2445 2.75899 19.0694ZM9.79393 19.0694H10.8359V21.7784H10.1607C10.1607 21.0449 10.1607 20.3197 10.1607 19.5862C10.044 19.5862 9.91898 19.5862 9.79393 19.5862V19.0694ZM29.2149 19.0694H30.2572C30.2572 19.9696 30.2572 20.8782 30.2572 21.7784H29.5904C29.5904 21.0449 29.5904 20.3197 29.5904 19.5862H29.2236C29.2149 19.4112 29.2149 19.2445 29.2149 19.0694ZM19.5462 18.3943C19.9463 18.0859 20.4797 17.9858 20.9798 18.0192C21.3132 18.0442 21.6383 18.1609 21.9134 18.3776C21.8134 18.5526 21.7217 18.736 21.6217 18.911C21.2882 18.686 20.8881 18.536 20.4881 18.636C20.0546 18.711 19.7129 19.0861 19.6212 19.5112C19.5295 19.9196 19.5462 20.3781 19.7712 20.7448C20.0963 21.2783 20.8798 21.42 21.3883 21.0699C21.3883 20.8282 21.3883 20.5781 21.3883 20.3364H20.8465C20.8465 20.1447 20.8465 19.9613 20.8465 19.7696C21.2632 19.7696 21.6717 19.7696 22.0801 19.7696C22.0801 20.3281 22.0801 20.8782 22.0801 21.4367C21.6633 21.7284 21.1466 21.8367 20.6548 21.8367C20.1713 21.8451 19.6545 21.6783 19.3295 21.3033C18.896 20.8448 18.7877 20.1697 18.8794 19.5529C18.9377 19.1028 19.1794 18.6777 19.5462 18.3943ZM0.0166826 18.0692C0.400096 18.0608 0.775191 18.0358 1.1586 18.0358C1.49202 18.0442 1.84211 18.1025 2.10884 18.3109C2.36721 18.5193 2.46726 18.886 2.37557 19.2028C2.30889 19.4279 2.11716 19.5695 1.92543 19.6779C2.18384 19.7696 2.43389 19.9363 2.54226 20.1947C2.70062 20.5614 2.67562 21.0282 2.39221 21.3283C2.10048 21.645 1.66707 21.7701 1.25861 21.7701C0.841874 21.7784 0.416777 21.7701 0 21.7701L0.0166826 18.0692ZM0.708508 18.6027C0.708508 18.8944 0.708508 19.1945 0.708508 19.4862C0.966875 19.4945 1.25029 19.5279 1.49202 19.4112C1.76707 19.2861 1.80875 18.836 1.54202 18.686C1.29197 18.5526 0.991875 18.6027 0.708508 18.6027ZM0.708508 20.0113C0.708508 20.4197 0.708508 20.8282 0.708508 21.2282C1.00024 21.2449 1.30029 21.2699 1.57538 21.1699C2.0338 21.0282 2.05048 20.2197 1.59202 20.078C1.31697 19.978 1.00856 20.003 0.708508 20.0113ZM2.7673 18.0775H3.80086C3.80086 18.2693 3.80086 18.4693 3.80086 18.661C3.45081 18.661 3.10904 18.661 2.75899 18.661C2.75899 18.4693 2.7673 18.2693 2.7673 18.0775ZM6.8099 18.0692C7.72677 18.0692 8.65201 18.0692 9.5772 18.0692C9.5772 18.2609 9.5772 18.4609 9.5772 18.661H8.75201C8.75201 19.6946 8.75201 20.7448 8.75201 21.7784C8.51864 21.7784 8.28523 21.7784 8.05187 21.7784C8.05187 20.7365 8.05187 19.6946 8.05187 18.661H6.8099V18.0692ZM9.79393 18.661C9.79393 18.4693 9.79393 18.2693 9.79393 18.0775C10.1357 18.0775 10.4858 18.0775 10.8275 18.0775V18.661C10.4858 18.661 10.1357 18.661 9.79393 18.661ZM29.2236 18.0775C29.5654 18.0775 29.9154 18.0775 30.2654 18.0775C30.2654 18.2693 30.2654 18.4693 30.2654 18.661C29.9236 18.661 29.5736 18.661 29.2317 18.661C29.2236 18.4693 29.2236 18.2693 29.2236 18.0775Z" fill="#E40707"/>
</svg>
