<svg width="36" height="24" viewBox="0 0 36 24" fill="none" xmlns="http://www.w3.org/2000/svg">
<path d="M3.95431 10.7036C3.95431 11.0795 3.77479 11.4417 3.3263 11.6434C3.89202 11.8176 4.09924 12.4232 4.09924 12.7294C4.09924 13.8154 3.29175 14.1633 2.29115 14.1633H0V9.29028H2.29115C3.2436 9.29028 3.95431 9.72215 3.95431 10.7036ZM0.897515 11.2463H2.29115C2.86367 11.2463 3.0505 11.003 3.0505 10.7242C3.0505 10.5014 2.871 10.1255 2.29115 10.1255H0.897515V11.2463ZM0.897515 13.307H2.29115C2.66376 13.307 3.19494 13.1818 3.19494 12.722C3.19494 12.2621 2.66376 12.0536 2.29115 12.0536H0.897515V13.3064V13.307Z" fill="#1C1C13"/>
<path d="M8.17022 13.2444H5.6446L5.23066 14.1635H4.24365L6.41024 9.29053H7.40407L9.57066 14.1635H8.57683L8.16968 13.2444H8.17022ZM6.90743 10.3137L6.01042 12.388H7.80441L6.90743 10.3137Z" fill="#1C1C13"/>
<path d="M13.9531 13.5506C13.4565 14.0448 12.8143 14.2745 12.1178 14.2745C10.3238 14.2745 9.56444 13.0285 9.55766 11.7614C9.55084 10.4875 10.372 9.19238 12.1178 9.19238C12.7735 9.19238 13.3942 9.44316 13.8914 9.93733L13.2843 10.5291C12.9671 10.2161 12.5391 10.0698 12.1183 10.0698C10.9523 10.0698 10.4484 10.9468 10.4552 11.7614C10.462 12.5692 10.9246 13.4113 12.1183 13.4113C12.5391 13.4113 13.0153 13.237 13.333 12.9171L13.9542 13.5506H13.9531Z" fill="#1C1C13"/>
<path d="M18.3486 9.31826L16.2024 11.6502L18.5281 14.1079V14.1633H17.4035L15.3818 12.005V14.1633H14.4707V9.29028H15.3818V11.3509L17.2172 9.29028H18.3491V9.31826H18.3486Z" fill="#1C1C13"/>
<path d="M21.971 10.4667C21.8056 10.1884 21.3498 9.92391 20.8254 9.92391C20.1492 9.92391 19.8248 10.2095 19.8248 10.5712C19.8248 10.9957 20.3214 11.1145 20.9013 11.1836C21.9087 11.3087 22.8475 11.5732 22.8475 12.7363C22.8475 13.8223 21.8951 14.2885 20.8186 14.2885C19.8316 14.2885 19.0727 13.9823 18.7137 13.0911L19.4731 12.6941C19.6871 13.2299 20.2461 13.467 20.8327 13.467C21.4194 13.467 21.9437 13.2653 21.9437 12.7363C21.9437 12.277 21.4675 12.0891 20.8259 12.0193C19.8389 11.9011 18.9283 11.6366 18.9283 10.5437C18.9283 9.54114 19.908 9.1304 20.7987 9.12354C21.5507 9.12354 22.3305 9.33947 22.6963 10.0913L21.972 10.4672L21.971 10.4667Z" fill="#1C1C13"/>
<path d="M27.1535 14.1638H23.5378V9.29028H27.1535V10.1815H24.4416V11.3023H27.0573V12.1586H24.4416V13.2584H27.1535V14.1633V14.1638Z" fill="#1C1C13"/>
<path d="M31.2869 13.2444H28.7613L28.3473 14.1635H27.3604L29.5269 9.29053H30.5207L32.6874 14.1635H31.6935L31.2864 13.2444H31.2869ZM30.0241 10.3137L29.1271 12.388H30.9211L30.0241 10.3137Z" fill="#1C1C13"/>
<path d="M33.5573 10.1257H32.0254V9.29053H36.0001V10.1257H34.4682V14.1635H33.5573V10.1257Z" fill="#1C1C13"/>
<g opacity="0.15">
<path d="M0.896991 8.99111V8.00225H2.29062C2.87048 8.00225 3.04998 8.37816 3.04998 8.60095C3.04998 8.753 2.99398 8.89397 2.85059 8.99111H3.87267C3.92866 8.86123 3.95376 8.72133 3.95376 8.57983C3.95376 7.59837 3.24309 7.1665 2.29062 7.1665H0V8.99111H0.896991Z" fill="#1C1C13"/>
<path d="M6.56109 8.99111L6.90756 8.1902L7.254 8.99111H8.21536L7.4042 7.1665H6.41092L5.59973 8.99111H6.56109Z" fill="#1C1C13"/>
<path d="M10.5609 8.99161C10.7634 8.41878 11.2621 7.94679 12.1173 7.94679C12.538 7.94679 12.9661 8.09304 13.2832 8.40611L13.8903 7.81428C13.3937 7.32011 12.7725 7.06934 12.1167 7.06934C10.6687 7.06934 9.85752 7.96052 9.62622 8.99109H10.5604L10.5609 8.99161Z" fill="#1C1C13"/>
<path d="M16.6952 8.99111L18.3484 7.19449V7.1665H17.2165L15.5916 8.99111H16.6952Z" fill="#1C1C13"/>
<path d="M15.3812 7.1665H14.4701V8.99111H15.3812V7.1665Z" fill="#1C1C13"/>
<path d="M20.4729 8.99144C20.0971 8.90802 19.825 8.76178 19.825 8.44817C19.825 8.086 20.1495 7.8009 20.8256 7.8009C21.35 7.8009 21.8053 8.06541 21.9712 8.34364L22.6955 7.96774C22.3296 7.21593 21.5499 7 20.7979 7C19.9077 7.00686 18.9275 7.41761 18.9275 8.42019C18.9275 8.64352 18.9662 8.83147 19.0348 8.99144H20.4718H20.4729Z" fill="#1C1C13"/>
<path d="M24.4416 8.99111V8.05769H27.1535V7.1665H23.5378V8.99111H24.4416Z" fill="#1C1C13"/>
<path d="M29.6776 8.99111L30.024 8.1902L30.3705 8.99111H31.3318L30.5206 7.1665H29.5269L28.7157 8.99111H29.6776Z" fill="#1C1C13"/>
<path d="M33.5573 8.99111H34.4682V8.00225H36.0001V7.1665H32.0254V8.00172H33.5573V8.99058V8.99111Z" fill="#1C1C13"/>
</g>
<g opacity="0.15">
<path d="M28.1003 14.4626L27.3604 16.1267H28.3473L28.7613 15.2081H31.2869L31.694 16.1267H32.6877L31.9474 14.4626H28.1003Z" fill="#1C1C13"/>
<path d="M24.4416 14.4626H23.5378V16.1273H27.1535V15.2224H24.4416V14.4632V14.4626Z" fill="#1C1C13"/>
<path d="M21.8919 14.4626C21.9254 14.5323 21.9437 14.611 21.9437 14.6997C21.9437 15.2287 21.4058 15.4304 20.8327 15.4304C20.2597 15.4304 19.6871 15.1939 19.4731 14.6575L18.7137 15.0545C19.0727 15.9457 19.8316 16.2519 20.8186 16.2519C21.8951 16.2519 22.8475 15.7857 22.8475 14.6997C22.8475 14.6157 22.8423 14.5371 22.8329 14.4626H21.8919Z" fill="#1C1C13"/>
<path d="M15.3812 14.4626H14.4701V16.1273H15.3812V14.4626Z" fill="#1C1C13"/>
<path d="M15.844 14.4626L17.403 16.1267H18.5281V16.0713L17.0058 14.4626H15.844Z" fill="#1C1C13"/>
<path d="M12.1173 15.375C11.2946 15.375 10.8194 14.9753 10.6012 14.4626H9.65137C9.90362 15.4351 10.6766 16.2387 12.1173 16.2387C12.8144 16.2387 13.456 16.009 13.9526 15.5148L13.3314 14.8813C13.0138 15.2018 12.5381 15.3755 12.1168 15.3755L12.1173 15.375Z" fill="#1C1C13"/>
<path d="M4.98365 14.4626L4.24365 16.1267H5.23066L5.6446 15.2081H8.17022L8.57738 16.1267H9.57117L8.83118 14.4626H4.98365Z" fill="#1C1C13"/>
<path d="M3.14418 14.4626C3.17662 14.5297 3.19494 14.6041 3.19494 14.686C3.19494 15.1453 2.66376 15.2709 2.29115 15.2709H0.897515V14.4626H0V16.1273H2.29115C3.29175 16.1273 4.09924 15.7793 4.09924 14.6934C4.09924 14.6279 4.08931 14.5487 4.0689 14.4632H3.14418V14.4626Z" fill="#1C1C13"/>
<path d="M34.4681 14.4626H33.5571V16.1273H34.4681V14.4626Z" fill="#1C1C13"/>
</g>
<path d="M10.4866 18.0976C10.3364 17.9488 10.1276 17.8743 9.93345 17.8743C9.42948 17.8743 9.17147 18.2465 9.1741 18.6483C9.1741 19.0575 9.43208 19.4096 9.93345 19.4096C10.1177 19.4096 10.3097 19.3452 10.4573 19.209V18.7227H9.85756V18.606H10.5829V19.256C10.4034 19.4371 10.1894 19.5363 9.93396 19.5363C9.3489 19.5363 9.0464 19.1245 9.0464 18.6509C9.04377 18.1077 9.4101 17.7534 9.93396 17.7534C10.1601 17.7534 10.3888 17.84 10.5635 18.0137L10.4871 18.0981L10.4866 18.0976Z" fill="#1C1C13"/>
<path d="M14.031 19.5135L13.8415 19.0869H12.8137L12.6269 19.5135H12.4845L13.2564 17.7776H13.4014L14.1733 19.5135H14.031ZM13.7902 18.9628L13.3281 17.9064L12.866 18.9628H13.7902Z" fill="#1C1C13"/>
<path d="M17.5908 17.9708L16.932 18.9876H16.8875L16.2239 17.9708V19.5135H16.0909V17.7776H16.2485L16.9074 18.7897L17.5589 17.7776H17.7211V19.5135H17.5908V17.9708Z" fill="#1C1C13"/>
<path d="M19.8228 19.5135V17.7776H19.9531V19.5135H19.8228Z" fill="#1C1C13"/>
<path d="M22.1114 17.7776L23.269 19.2136V17.7776H23.3993V19.5135H23.3475L22.1873 18.0801V19.5135H22.0543V17.7776H22.1109H22.1114Z" fill="#1C1C13"/>
<path d="M26.8578 18.0976C26.7076 17.9488 26.4988 17.8743 26.3047 17.8743C25.8007 17.8743 25.5427 18.2465 25.5453 18.6483C25.5453 19.0575 25.8033 19.4096 26.3047 19.4096C26.4889 19.4096 26.681 19.3452 26.8285 19.209V18.7227H26.2288V18.606H26.9541V19.256C26.7746 19.4371 26.5606 19.5363 26.3052 19.5363C25.7201 19.5363 25.4176 19.1245 25.4176 18.6509C25.415 18.1077 25.7813 17.7534 26.3052 17.7534C26.5313 17.7534 26.76 17.84 26.9348 18.0137L26.8584 18.0981L26.8578 18.0976Z" fill="#1C1C13"/>
</svg>
