<svg width="36" height="24" viewBox="0 0 36 24" fill="none" xmlns="http://www.w3.org/2000/svg">
<g clip-path="url(#clip0_1_9793)">
<path d="M2.05333 9.18591C1.1379 9.34102 0.453611 9.93407 0.155565 10.8312C-0.127274 11.6919 -0.0177883 12.7168 0.432322 13.3859C0.757739 13.8695 1.29909 14.2527 1.88301 14.4108C2.21755 14.5021 2.84102 14.5021 3.17556 14.4108C3.55268 14.3074 3.83856 14.1523 4.06361 13.9364L4.25826 13.7418V14.1462C4.25826 14.7819 4.13052 15.1712 3.83248 15.451C3.66521 15.6061 3.40061 15.746 3.16339 15.8068C2.92617 15.8646 2.2875 15.8585 2.03812 15.7946C1.7644 15.7247 1.3295 15.4996 1.08011 15.3019C0.964546 15.2107 0.864184 15.1347 0.85506 15.1347C0.83073 15.1377 0.106904 16.1383 0.106904 16.1626C0.109946 16.2022 0.532684 16.5032 0.730367 16.6066C1.12573 16.8165 1.65188 16.9442 2.27838 16.9868C4.02712 17.1054 5.09157 16.4242 5.45044 14.9583C5.51431 14.6998 5.51735 14.6298 5.52647 11.9778L5.53864 9.26499H4.94254H4.34949V9.63906C4.34949 9.84587 4.34037 10.0223 4.33125 10.0344C4.31908 10.0436 4.25217 9.97361 4.17918 9.87324C3.94196 9.55087 3.62263 9.3471 3.16948 9.23153C2.86535 9.15246 2.36658 9.13421 2.05333 9.18591ZM3.39149 10.3872C3.90851 10.5697 4.23393 10.9894 4.31604 11.5794C4.42857 12.4097 3.96933 13.1092 3.18772 13.2947C2.19018 13.5289 1.28084 12.8294 1.2778 11.8227C1.2778 11.0989 1.7127 10.515 2.38787 10.3386C2.61596 10.2808 3.16035 10.3081 3.39149 10.3872Z" fill="#C13743"/>
<path d="M8.33359 9.1616C8.29101 9.16768 8.15415 9.18897 8.02946 9.20722C7.73142 9.24979 7.29955 9.38969 7.07754 9.51439C6.8829 9.62387 6.51794 9.90063 6.49665 9.95233C6.49057 9.97058 6.63047 10.1348 6.81295 10.3142L7.14141 10.6397L7.29651 10.518C7.64322 10.2443 8.02642 10.1166 8.50086 10.1166C9.24597 10.1166 9.65959 10.4176 9.69608 10.9833L9.70825 11.1993L8.95401 11.2358C7.65234 11.2966 7.06537 11.4608 6.6031 11.8957C6.36892 12.1177 6.25639 12.3063 6.18949 12.583C5.97964 13.4772 6.43583 14.204 7.37559 14.4717C7.56719 14.5234 7.69796 14.5386 7.99905 14.5416C8.43699 14.5416 8.61035 14.5082 8.96314 14.3439C9.20948 14.2284 9.47103 14.0094 9.63526 13.7813L9.69913 13.6901L9.70217 14.0611V14.4352H10.2831H10.8609L10.8487 12.6013C10.8366 10.5667 10.8366 10.5545 10.6298 10.1196C10.4169 9.67557 9.94547 9.33495 9.38283 9.21938C9.14561 9.17072 8.48565 9.13423 8.33359 9.1616ZM9.63222 12.4188C9.61397 12.7625 9.54098 12.9906 9.38283 13.2004C9.15169 13.4985 8.56169 13.6688 8.08725 13.5715C7.67667 13.4833 7.45466 13.2795 7.42729 12.9602C7.39687 12.58 7.67363 12.3306 8.27885 12.2029C8.57689 12.139 8.63772 12.1329 9.18211 12.1299L9.65047 12.1238L9.63222 12.4188Z" fill="#C13743"/>
<path d="M14.0603 9.18593C13.9417 9.21026 13.7653 9.26196 13.671 9.30758C13.4672 9.40186 13.1084 9.73336 12.9897 9.94017C12.9441 10.0223 12.8955 10.077 12.8863 10.0649C12.8742 10.0557 12.8651 9.87022 12.8651 9.65428V9.265H12.272H11.679V11.8501V14.4352H12.2994H12.9228L12.935 12.875C12.9472 11.181 12.9472 11.1749 13.1266 10.8465C13.23 10.6549 13.4003 10.5028 13.6254 10.3933C13.7744 10.3234 13.8291 10.3142 14.112 10.3142C14.3796 10.3142 14.4526 10.3264 14.553 10.3812C14.7932 10.5089 14.9392 10.737 14.994 11.0624C15.0122 11.178 15.0244 11.8988 15.0244 12.8446V14.4352H15.663H16.3017V12.9054C16.3017 11.2783 16.3108 11.1536 16.4568 10.8738C16.5541 10.6822 16.7457 10.4906 16.9373 10.3994C17.0894 10.3234 17.1411 10.3142 17.4118 10.3142C17.6824 10.3142 17.7311 10.3234 17.871 10.3964C18.0687 10.4998 18.1964 10.6549 18.2846 10.889C18.3515 11.0715 18.3515 11.1019 18.3637 12.7534L18.3728 14.4352H19.0084H19.6471V12.7534C19.6471 10.9407 19.6289 10.6883 19.4829 10.2686C19.3339 9.83372 19.0267 9.49006 18.6344 9.31062C18.1447 9.08556 17.357 9.10077 16.8552 9.34407C16.6636 9.43835 16.3352 9.7364 16.1953 9.94321L16.0949 10.0892L15.9976 9.91583C15.8029 9.56913 15.4836 9.32887 15.0639 9.21938C14.8145 9.15247 14.3249 9.13727 14.0603 9.18593Z" fill="#C13743"/>
<path d="M22.7493 9.16157C21.7031 9.2893 20.9306 9.8124 20.5322 10.664C20.3314 11.0989 20.301 11.2448 20.301 11.8501C20.301 12.4766 20.3314 12.6195 20.5595 13.0818C20.8272 13.617 21.183 13.979 21.7 14.2375C22.8587 14.8153 24.3763 14.5659 25.1245 13.6718L25.2431 13.5289L24.8234 13.2126C24.5953 13.0392 24.3885 12.8841 24.3672 12.8719C24.3398 12.8567 24.2729 12.9023 24.1726 13.0058C23.8046 13.3707 23.4518 13.5228 22.9621 13.5228C22.4938 13.5228 22.144 13.3829 21.8795 13.0909C21.7426 12.9388 21.5997 12.6408 21.5753 12.4492L21.554 12.3063H23.5217H25.4864V12.0234C25.4864 11.6706 25.4408 11.2296 25.38 10.9863C25.1458 10.0587 24.5223 9.40791 23.6921 9.22239C23.464 9.17069 22.95 9.13724 22.7493 9.16157ZM23.4852 10.2047C23.6981 10.2868 23.9262 10.4876 24.0357 10.6853C24.1118 10.8252 24.2091 11.1567 24.2091 11.2783C24.2091 11.33 24.127 11.333 22.8861 11.333C21.3685 11.333 21.5084 11.3695 21.627 11.0198C21.773 10.5818 22.0558 10.2899 22.4603 10.1591C22.658 10.0922 23.2693 10.1196 23.4852 10.2047Z" fill="#C13743"/>
<path d="M25.4804 9.31974C25.4925 9.35015 25.967 10.515 26.5357 11.9048L27.5667 14.4352H28.254L28.9383 14.4321L29.8324 12.1512C30.3251 10.8982 30.7387 9.88238 30.7509 9.89454C30.7631 9.90975 31.2101 10.9438 31.7393 12.1968L32.7034 14.4717L32.5574 14.8427C32.3932 15.2624 32.2442 15.5452 32.1408 15.6426C31.9248 15.8463 31.5051 15.9102 31.0702 15.8068C30.9212 15.7703 30.7935 15.746 30.7874 15.7521C30.7722 15.7703 30.6201 16.8743 30.6323 16.8865C30.6749 16.926 31.2558 16.9929 31.5842 16.9929C32.4966 16.9959 32.9893 16.7161 33.3664 15.9862C33.4212 15.8767 34.0355 14.3226 34.735 12.5344L36.0002 9.2802L35.3463 9.27108C34.8718 9.265 34.6833 9.27412 34.6681 9.29845C34.6559 9.31974 34.3609 10.1257 34.0142 11.0928C33.6675 12.063 33.3725 12.8537 33.3634 12.8537C33.3542 12.8537 33.0258 12.0478 32.6304 11.0654L31.9127 9.2802H30.7813H29.6469L28.9596 11.0806C28.5794 12.0721 28.2601 12.8841 28.251 12.8841C28.2418 12.8841 27.9256 12.0721 27.5484 11.0806L26.8641 9.2802L26.1616 9.27108C25.4864 9.265 25.4591 9.265 25.4804 9.31974Z" fill="#C13743"/>
</g>
<defs>
<clipPath id="clip0_1_9793">
<rect width="36" height="24" fill="white"/>
</clipPath>
</defs>
</svg>
