<svg width="36" height="24" viewBox="0 0 36 24" fill="none" xmlns="http://www.w3.org/2000/svg">
<path d="M25.0446 10.1463C25.0332 10.1227 24.9959 10.1032 24.9812 10.1016H24.9179C24.9025 10.1024 24.8595 10.1227 24.8441 10.1438L22.4063 14.2742C22.3909 14.2993 22.3892 14.3245 22.399 14.3432C22.4144 14.3692 22.4461 14.374 22.4631 14.374L22.8657 14.3756C22.9404 14.3756 22.9753 14.3164 22.9802 14.3091C23.0614 14.1662 23.1434 14.025 23.2237 13.8861C23.2968 13.7636 23.3715 13.6337 23.4445 13.5054L23.4811 13.4429H23.5533L25.5592 13.4494H25.6307L25.6526 13.5111L25.9391 14.318C25.9562 14.3659 25.9862 14.3846 26.0382 14.3846L26.4416 14.3862C26.4587 14.3862 26.492 14.383 26.5123 14.3562C26.5277 14.3383 26.5301 14.3123 26.5212 14.2872L25.0446 10.1463ZM25.3092 13.0062L23.9121 13.0005L23.7417 12.9997L23.8285 12.8519L24.6955 11.3518L24.8189 11.1366L24.896 11.3518L25.4253 12.8568L25.4781 13.0062H25.3092ZM35.864 10.8006C35.877 10.8006 35.8891 10.7998 35.9021 10.7973C35.8891 10.7998 35.8762 10.8006 35.864 10.8006ZM35.5726 14.0079L35.5344 14.3456C35.5295 14.387 35.4906 14.4211 35.4492 14.4211L32.8912 14.4114C32.8474 14.4114 32.8166 14.3781 32.8222 14.3367L33.2882 10.2672C33.2939 10.2266 33.3312 10.1934 33.3734 10.1934L35.9322 10.2015C35.9744 10.2015 36.0044 10.2356 35.9995 10.2762L35.9598 10.6203C35.9557 10.6609 35.9176 10.6942 35.8753 10.6942L33.9198 10.6877L33.8094 10.6869L33.7972 10.7933L33.6689 11.9216L33.6551 12.0264L33.7655 12.0272L35.4078 12.032C35.4467 12.0328 35.4808 12.0686 35.476 12.1067L35.4362 12.4509C35.4321 12.4923 35.3931 12.5256 35.3517 12.5256L33.7095 12.5191H33.5991L33.5869 12.6238L33.4506 13.8204L33.4368 13.9267H33.548L35.5036 13.9332C35.5466 13.934 35.5774 13.9681 35.5726 14.0079ZM32.0429 14.318C32.0462 14.348 32.0413 14.3708 32.0259 14.3862C32.0121 14.4 31.9902 14.4073 31.9601 14.4073L31.5453 14.4057C31.5072 14.4057 31.4779 14.3748 31.4731 14.3521L31.3253 11.7991L31.3026 11.4191L31.1167 11.7763L29.7367 14.4195L29.7358 14.4219L29.735 14.4244C29.7229 14.4463 29.6953 14.4609 29.6628 14.4609L29.5483 14.4601C29.5175 14.4601 29.4907 14.4414 29.4858 14.4227V14.4211L29.485 14.4187L28.7016 11.7577L28.5953 11.398L28.4873 11.7788L27.7648 14.3407V14.3432C27.7592 14.3627 27.721 14.3927 27.6869 14.3927L27.2705 14.3911C27.2421 14.3911 27.2201 14.3838 27.2096 14.37C27.195 14.3513 27.199 14.3204 27.2047 14.2993L28.4695 10.1731C28.4833 10.139 28.5206 10.1146 28.549 10.1146L28.6505 10.1154C28.6724 10.1154 28.7081 10.1373 28.713 10.1536V10.156L28.7138 10.1576L29.6555 13.1896L29.7302 13.4299L29.8592 13.1904L31.4877 10.1674L31.4893 10.1649L31.4901 10.1633C31.4982 10.1479 31.5315 10.1252 31.5607 10.1252L31.663 10.126C31.689 10.126 31.7223 10.1503 31.7288 10.1844L32.0421 14.3148V14.3164V14.318H32.0429ZM21.9314 13.2327C21.9046 13.477 21.8778 13.727 21.8478 13.973C21.847 13.9901 21.825 14.0241 21.8096 14.0355C21.7601 14.0631 21.092 14.4308 20.2031 14.4276C19.5975 14.426 19.0569 14.2003 18.6778 13.7928C18.2995 13.3837 18.1258 12.8381 18.1931 12.2553C18.3303 11.0555 19.4555 10.0829 20.7007 10.087C21.2649 10.0886 21.7422 10.2737 22.1603 10.6528C22.1749 10.6699 22.1822 10.6902 22.1806 10.7096C22.179 10.7299 22.17 10.7486 22.1546 10.7624L22.153 10.7632L22.1522 10.7648C22.1002 10.8127 22.0467 10.859 21.9955 10.9045L21.9915 10.9077C21.9411 10.9516 21.8859 11.0019 21.8323 11.0514L21.8307 11.0522L21.8299 11.0538C21.8064 11.0774 21.7909 11.0774 21.7861 11.0774C21.7706 11.0774 21.7512 11.0652 21.7292 11.0441L21.7284 11.0433L21.7276 11.0425C21.4346 10.7689 21.0449 10.6122 20.6601 10.6098C19.7509 10.6074 18.9254 11.3404 18.8231 12.2463C18.7192 13.1466 19.3751 13.8829 20.2851 13.8853C20.6066 13.887 20.9288 13.822 21.2471 13.6938L21.3152 13.6653L21.3234 13.598L21.3899 13.0127L21.4021 12.9063H21.2917L20.7316 12.9039C20.6877 12.9039 20.6569 12.8747 20.6618 12.8365L20.7032 12.4801C20.708 12.4355 20.7421 12.4055 20.7884 12.4071L21.9525 12.4103C21.989 12.4103 22.0191 12.4452 22.0142 12.4842C21.9866 12.7277 21.959 12.9794 21.933 13.2229L21.9322 13.2294L21.9314 13.2327ZM14.0466 10.2656L13.5895 14.249C13.5773 14.3643 13.4621 14.4601 13.3387 14.4593H13.1788H13.1536C13.1365 14.4593 13.1227 14.4528 13.113 14.4414L13.0984 14.4227L10.9391 11.575L10.6411 14.1743C10.6273 14.2937 10.5145 14.3927 10.3887 14.3927L10.0023 14.3886C9.87887 14.3886 9.78632 14.2872 9.79931 14.1695L10.2563 10.1869C10.2693 10.0716 10.3838 9.97417 10.5072 9.97498L10.6614 9.97579H10.6866C10.7028 9.97579 10.7174 9.9831 10.7256 9.99365L10.7402 10.0123L12.9084 12.7837L13.1974 10.2615C13.212 10.1422 13.3249 10.0432 13.4499 10.044L13.8436 10.0456C13.9678 10.0464 14.0604 10.1463 14.0466 10.2656ZM17.5892 10.8274C17.715 10.8274 17.8278 10.7307 17.8424 10.609L17.8806 10.2778C17.8936 10.1584 17.8035 10.0594 17.6785 10.0586L15.2155 10.0505C15.0897 10.0505 14.9769 10.1479 14.9631 10.2688L14.5141 14.1865C14.5003 14.3058 14.5913 14.4049 14.7171 14.4057L17.18 14.4138C17.3042 14.4146 17.4179 14.3172 17.4317 14.1962L17.469 13.8707C17.4828 13.7514 17.3919 13.6515 17.2669 13.6507L15.4315 13.645L15.5532 12.584L17.0867 12.5889C17.2125 12.5905 17.3245 12.4923 17.3391 12.3714L17.3765 12.041C17.3903 11.9224 17.2977 11.8218 17.1743 11.821L15.6401 11.8161L15.7537 10.82L17.5892 10.8274Z" fill="#ED2224"/>
<path d="M6.87354 12.778C6.77937 13.0313 6.66654 12.9793 6.66654 12.9793C6.66654 12.9793 6.74284 13.1425 7.0156 13.1092C7.30135 13.0743 7.34762 12.7309 7.34762 12.7309C7.39308 12.7374 7.44341 12.7382 7.49861 12.7334C7.57817 12.7269 7.66909 12.7098 7.77218 12.6733C7.77218 12.6733 7.67152 12.5905 7.62769 12.4054C7.89882 12.3656 7.99948 12.1562 7.99948 12.1562C7.78355 12.2398 7.67315 12.2211 7.60739 12.2081C7.6082 12.1741 7.60658 12.1375 7.61632 12.0994C7.75189 11.5985 6.7883 11.3241 7.71698 10.3751C7.71698 10.3751 7.11058 11.0611 7.8355 11.4857C8.11963 11.6529 8.07173 12.0068 8.18294 12.1562C8.2349 12.226 8.24951 12.2999 8.42323 12.3307C8.49629 12.3453 8.26737 12.6603 8.26737 12.6603C8.26737 12.6603 8.40943 12.7399 8.64322 12.416C8.84536 12.6238 9.25612 11.6034 8.91598 11.4913C8.91598 11.4913 8.72765 11.5969 8.58965 11.2308C8.50522 11.0075 8.85429 10.6828 8.68057 10.5002C8.69761 10.4726 9.05804 10.4279 8.95251 9.92948C8.88919 9.62993 8.91517 9.26625 8.97281 9.21755C8.97281 9.21755 8.66595 9.22566 8.53201 9.59421C8.56692 9.48868 8.64241 9.21917 8.66352 8.97807C8.68462 8.73697 8.65459 8.42119 8.29741 8.12327C8.29741 8.12327 8.60507 8.62738 8.25763 9.06818C8.25763 9.06818 8.47275 7.81641 7.02778 7.36669C7.02778 7.36669 7.37603 7.44786 7.59927 8.01773C7.69263 8.25477 7.60901 8.49181 7.60901 8.49181C7.60901 8.49181 7.5319 8.2012 7.18932 7.79693C6.75177 7.28145 5.75247 6.51756 3.60693 7.41296C3.60693 7.41296 5.1891 7.17105 5.8442 8.25234C6.15917 8.74671 6.53341 9.09416 6.72336 9.16153C5.99925 8.87498 5.50569 9.04301 5.50569 9.04301C5.73137 9.16072 6.10966 9.23865 6.19083 9.83937C6.19083 9.83937 5.9611 9.63643 5.65262 9.7314C5.38798 9.81258 5.30437 10.078 5.30437 10.078C5.30437 10.078 5.67779 9.71192 5.82472 10.1454C5.89534 10.3549 5.88073 10.8679 6.61864 11.2908C6.61864 11.2908 6.26146 11.4637 5.9546 11.2446C5.9546 11.2446 6.06582 11.7381 6.69333 11.7154C6.8362 11.7105 6.919 11.7471 6.91981 11.8526C6.89302 12.1351 6.36455 12.0263 6.36455 12.0263C6.36455 12.0263 6.40433 12.1846 6.59997 12.278C6.90764 12.4249 6.96852 12.278 6.96852 12.278C6.84675 12.6822 6.47496 12.5085 6.47496 12.5085C6.47496 12.5085 6.54802 12.7658 6.87354 12.778ZM8.06361 10.2112C8.06361 10.2112 8.10501 10.3354 8.22516 10.3711C8.4557 10.4417 8.45002 10.6966 8.36072 10.8038C8.36072 10.8038 7.99705 10.9621 8.06361 10.2112ZM8.256 10.1836C7.93454 10.0391 8.02627 9.71192 8.02627 9.71192C7.81683 9.84749 7.59197 10.3037 7.59197 10.3037C7.59197 10.3037 7.50592 10.0472 7.41906 9.89944C7.26888 9.64454 7.07568 9.63074 7.07568 9.63074C6.76314 10.0521 7.00586 10.5253 7.00586 10.5253C6.86136 10.5911 6.6365 10.5554 6.6365 10.5554C6.64543 10.6926 6.75827 10.8509 6.89221 10.9807C7.34113 11.3988 7.19663 11.5847 7.19663 11.5847C7.1739 11.3136 6.95228 11.2235 6.81022 11.083C6.31666 10.596 6.44005 10.2445 6.45466 10.2639C6.57075 10.4888 6.84675 10.4174 6.84675 10.4174C6.62838 9.79066 7.10165 9.14854 7.25751 8.94398C7.14224 9.46757 7.65447 9.50979 7.691 9.92055C7.98974 9.40588 8.2487 9.34256 8.2487 9.34256C8.16996 9.54875 8.187 9.90513 8.32257 10.0342C8.62212 10.3183 8.56123 10.5708 8.56123 10.5708C8.5523 10.324 8.37452 10.2371 8.256 10.1836ZM8.45408 11.6829C8.7106 11.5685 8.65784 12.2138 8.65784 12.2138C8.31202 11.9094 8.45408 11.6829 8.45408 11.6829Z" fill="#ED2224"/>
<path d="M6.17221 8.89198C4.64768 8.61191 3.11504 9.49432 2.25049 11.0083C1.34698 12.5921 1.84866 14.7222 3.55502 15.456C6.32239 16.6429 8.3559 14.6012 9.07838 12.9842C9.61254 11.7892 9.31948 11.0107 9.33815 10.949C9.33815 10.949 10.2676 12.6392 7.82175 15.4325C7.82175 15.4325 8.12535 15.3903 8.34859 15.1776C6.99048 17.1421 4.95048 16.8702 4.95048 16.8702C4.95048 16.8702 5.00974 16.9822 5.69082 17.0398C2.8642 17.5667 1.91441 15.797 1.91441 15.797C1.91441 15.797 1.75936 15.9853 1.99803 16.3888C1.23982 15.9001 0.135802 14.6792 0.618 13.084C0.618 13.084 0.248639 13.4972 0.186132 14.0062C-0.561518 11.4467 1.18462 9.98464 1.18462 9.98464C1.18462 9.98464 0.960571 9.88316 0.406125 10.5196C0.501915 9.88966 2.27241 7.21321 4.77107 7.86832C5.55769 8.07451 5.62101 8.55752 6.17221 8.89198Z" fill="#ED2224"/>
</svg>
