<svg width="36" height="24" viewBox="0 0 36 24" fill="none" xmlns="http://www.w3.org/2000/svg">
<g clip-path="url(#clip0_1_12420)">
<path d="M17.808 5.80715C16.8188 5.23407 15.7624 4.88025 14.6984 4.72577C14.2973 5.72742 14.078 6.82126 14.078 7.96493C14.078 9.1086 14.2973 10.2024 14.6984 11.2041C15.7649 11.0496 16.8188 10.6933 17.808 10.1227C18.7972 9.55211 19.6319 8.81209 20.2972 7.96493C19.6344 7.11776 18.7972 6.38023 17.808 5.80715Z" fill="#730A13"/>
<path d="M20.3 7.96497C19.6347 8.81213 18.8 9.54966 17.8108 10.1227C16.8216 10.6958 15.7676 11.0521 14.7012 11.2041C13.4853 12.3029 12.5833 14.0546 12.2544 15.4399C14.7137 15.0861 17.148 14.2639 19.4304 12.9433C21.7127 11.6227 23.6413 9.91843 25.1761 7.96497C23.7559 8.41845 21.6779 8.45333 20.3 7.96497Z" fill="#990E19"/>
<path d="M19.4304 2.98663C17.148 1.66605 14.7112 0.846298 12.2544 0.48999C13.5077 1.75825 14.3424 3.16354 14.7012 4.72581C15.7651 4.8803 16.8216 5.2366 17.8108 5.80719C18.8 6.38028 19.6347 7.11532 20.3 7.96497C21.6779 8.45334 23.7559 8.41845 25.1761 7.96497C23.6413 6.00902 21.7127 4.30721 19.4304 2.98663Z" fill="#BF1220"/>
<path d="M14.0807 7.96497C14.0807 6.8213 14.3 5.72746 14.7011 4.72581C14.3398 3.16603 13.5076 1.75825 12.2543 0.48999C11.3299 2.79976 10.8241 5.32381 10.8241 7.96497C10.8241 10.6061 11.3324 13.1302 12.2543 15.44C12.5832 14.0546 13.4852 12.3005 14.7011 11.2041C14.3025 10.2025 14.0807 9.10864 14.0807 7.96497Z" fill="#E61626"/>
<path d="M4.15432 23.4353H2.98995L1.48874 21.2645H1.97112C2.63648 21.2645 2.96916 20.9568 2.96916 20.4495C2.96916 19.9338 2.63232 19.6344 1.97112 19.6344H1.08536V23.4394H0V18.7487H2.02934C3.28104 18.7487 4.067 19.3974 4.067 20.4495C4.067 21.1523 3.71352 21.6679 3.10223 21.9299L4.15432 23.4353ZM6.81991 23.5143C8.15478 23.5143 8.94489 22.7491 8.94489 21.3727V18.7487H7.87201V21.3352C7.87201 22.2251 7.48943 22.5953 6.82823 22.5953C6.17119 22.5953 5.78445 22.2251 5.78445 21.3352V18.7487H4.69908V21.3727C4.69493 22.7533 5.48504 23.5143 6.81991 23.5143ZM13.0119 20.9984C13.3945 20.7988 13.6357 20.437 13.6357 19.9671C13.6357 19.2352 13.0327 18.7487 11.86 18.7487H9.56867V23.4353H11.9931C13.2281 23.4353 13.8685 22.9654 13.8685 22.1545C13.8727 21.5681 13.5359 21.1647 13.0119 20.9984ZM11.7269 19.5637C12.255 19.5637 12.5461 19.7425 12.5461 20.1126C12.5461 20.4827 12.2592 20.6699 11.7269 20.6699H10.6499V19.5637H11.7269ZM11.9141 22.616H10.6457V21.4558H11.9141C12.4754 21.4558 12.779 21.643 12.779 22.038C12.779 22.4455 12.4796 22.616 11.9141 22.616ZM18.4928 18.7487H17.4282L16.1765 20.8321L14.9248 18.7487H13.7729L15.5901 21.7636V23.4394H16.6755V21.7802L18.4928 18.7487Z" fill="#BF1220"/>
<path d="M23.1877 20.4495C23.1877 21.4933 22.4018 22.142 21.1501 22.142H20.6012L20.6053 21.2562H21.0877C21.7531 21.2562 22.0857 20.9568 22.0857 20.4453C22.0857 19.9297 21.7489 19.6303 21.0877 19.6303H20.2019V23.4353H19.1166V18.7487H21.1459C22.4018 18.7487 23.1877 19.3974 23.1877 20.4495ZM23.8115 23.4353H26.5769L26.9719 22.5495H24.8969V18.7445H23.8115V23.4353ZM31.3259 23.4353H32.4653L30.3694 18.7487H29.2965L27.2048 23.4353H28.3193L28.7351 22.4289H30.9142L31.3259 23.4353ZM29.0803 21.6055L29.8247 19.8091L30.569 21.6055H29.0803ZM36 18.7487H34.9313L33.6796 20.8321L32.4279 18.7487H31.2718L33.0891 21.7636V23.4394H34.1744V21.7802L36 18.7487Z" fill="black"/>
</g>
<defs>
<clipPath id="clip0_1_12420">
<rect width="36" height="24" fill="white"/>
</clipPath>
</defs>
</svg>
