<svg width="36" height="24" viewBox="0 0 36 24" fill="none" xmlns="http://www.w3.org/2000/svg">
<path d="M9.17733 9.84073C9.46984 10.5062 9.60146 11.2228 9.60146 11.9906V12.1223C9.57952 12.8462 9.44059 13.519 9.17733 14.1479C8.90676 14.7548 8.5192 15.3252 8.00731 15.8371C6.94698 16.8974 5.66728 17.4385 4.16088 17.4385C2.65448 17.4385 1.37477 16.9047 0.314442 15.8371L0.248629 15.7566L0.160878 15.6689C0.095064 15.5811 0.0658136 15.4788 0.0658136 15.3471C0.0658136 15.2009 0.117002 15.0692 0.219379 14.9742C0.329068 14.8645 0.453382 14.8206 0.592322 14.8206C0.687386 14.8206 0.775137 14.8426 0.840951 14.8791L1.0457 15.0912L1.08227 15.1204C1.93053 15.9614 2.9543 16.3855 4.16088 16.3855C5.37477 16.3855 6.40585 15.9541 7.26143 15.0912C7.56856 14.7841 7.81719 14.455 8.01463 14.1113C8.35101 13.5117 8.53382 12.8462 8.55576 12.1149V11.9833C8.55576 10.7694 8.12432 9.73104 7.26143 8.86815C6.47898 8.0857 5.55759 7.66157 4.48263 7.59575L4.15356 7.58844C3.26874 7.58844 2.47898 7.82244 1.76965 8.27583C1.5064 8.45133 1.25777 8.64877 1.02377 8.88277L0.8117 9.11678C0.731261 9.16796 0.650823 9.18259 0.541134 9.18259C0.394881 9.18259 0.263254 9.12409 0.153565 9.02171C0.0438757 8.91202 0 8.80233 0 8.65608C0 8.53908 0.0292504 8.44402 0.0877514 8.35626L0.219379 8.21001L0.285192 8.1442C0.738574 7.69813 1.22852 7.35444 1.74771 7.09118C2.47166 6.73286 3.26143 6.55005 4.13163 6.55005L4.46069 6.55736C5.82815 6.62317 6.99817 7.157 7.97806 8.13689C8.52651 8.65608 8.90676 9.22647 9.17733 9.84073ZM4.59232 10.7402C5.17002 10.7402 5.67459 10.9522 6.0841 11.3764C6.2011 11.4934 6.30347 11.625 6.39123 11.7639C6.45704 11.8809 6.51554 12.0053 6.56673 12.1296C6.65448 12.3709 6.69836 12.6415 6.69836 12.9193C6.69836 13.3508 6.58867 13.7383 6.39123 14.0747L6.36929 14.082L6.24497 14.2649L6.0841 14.4477C5.66728 14.8718 5.17002 15.1058 4.56307 15.1204L3.0713 15.0839L3.15905 15.0912C3.0128 15.0912 2.88848 15.0327 2.79342 14.9303C2.68373 14.8352 2.63985 14.7109 2.63985 14.572C2.63985 14.4257 2.69104 14.3014 2.79342 14.199L2.85923 14.1479C2.94698 14.0894 3.04205 14.0674 3.15905 14.0674L4.85558 14.0016C4.9872 13.9431 5.11883 13.8554 5.22852 13.731C5.46252 13.5117 5.5649 13.2411 5.5649 12.912C5.5649 12.6049 5.46984 12.3416 5.26508 12.1223L5.21389 12.0857C5.06033 11.9248 4.87751 11.8078 4.66545 11.7639C4.15356 11.7347 3.64168 11.7347 3.1298 11.7639H3.07861C2.99086 11.7566 2.91773 11.7274 2.84461 11.6762L2.76417 11.6104C2.6691 11.5226 2.61792 11.4202 2.61792 11.3106V11.2594V9.23378C2.61792 9.08753 2.6691 8.97052 2.74954 8.86815C2.85923 8.77308 2.98355 8.7219 3.12249 8.7219C3.25411 8.7219 3.37112 8.77308 3.4808 8.86815C3.59049 8.97784 3.64168 9.08753 3.64168 9.23378V10.9669C3.9415 10.8133 4.25594 10.7402 4.59232 10.7402ZM3.48812 12.3855C3.63437 12.3855 3.75868 12.4367 3.86106 12.5391C3.96344 12.6415 4.02194 12.7731 4.02194 12.912C4.02194 13.051 3.96344 13.1826 3.86106 13.285C3.766 13.3947 3.64168 13.4458 3.48812 13.4458H3.4223C3.3053 13.4239 3.20292 13.38 3.10055 13.285C2.99086 13.1753 2.94698 13.0656 2.94698 12.912C2.94698 12.7658 2.99817 12.6415 3.10055 12.5391C3.1883 12.4513 3.29068 12.4075 3.40768 12.3928L3.48812 12.3855Z" fill="url(#paint0_linear_243_19326)"/>
<path d="M19.1444 13.7311C19.1444 14.5501 18.8811 15.179 18.3619 15.6031C17.8793 15.9834 17.2138 16.1735 16.3656 16.1735H12.9287C12.0365 16.1735 11.5831 15.7859 11.5831 15.0035V9.07297C11.5831 8.72196 11.7148 8.44408 11.9707 8.23933C12.1974 8.06383 12.4972 7.97607 12.8628 7.97607H16.1974C17.9085 7.97607 18.7641 8.6269 18.7641 9.93585C18.7641 10.3892 18.6691 10.7622 18.4789 11.0474C18.2888 11.3326 17.989 11.5885 17.5795 11.8079C18.0182 11.8518 18.3912 12.0711 18.691 12.466C18.9908 12.8536 19.1444 13.2777 19.1444 13.7311ZM17.2504 10.2869C17.2504 9.67991 16.914 9.37278 16.234 9.37278H13.9744C13.404 9.37278 13.1188 9.64335 13.1188 10.1845V11.2668H16.2486C16.5484 11.2668 16.7897 11.179 16.9725 11.0108C17.1553 10.8353 17.2504 10.594 17.2504 10.2869ZM17.6307 13.6799C17.6307 12.9998 17.2065 12.6561 16.3656 12.6561H13.1188V13.987C13.1188 14.5136 13.3967 14.7768 13.9451 14.7768H16.3656C16.7385 14.7768 17.0383 14.6891 17.2577 14.5136C17.5063 14.3161 17.6307 14.0382 17.6307 13.6799Z" fill="url(#paint1_linear_243_19326)"/>
<path d="M27.2541 15.4057C27.2541 15.9176 27.042 16.1808 26.6179 16.1808C26.3327 16.1808 26.084 16.0492 25.8793 15.7859L21.7915 10.5282V15.4423C21.7915 15.9395 21.5356 16.1808 21.031 16.1808C20.5776 16.1808 20.351 15.9322 20.351 15.4276V8.71465C20.351 8.21739 20.5776 7.97607 21.031 7.97607C21.3455 7.97607 21.6014 8.10039 21.8062 8.34902L25.8208 13.5117V8.71465C25.8208 8.21739 26.0475 7.97607 26.5009 7.97607C27.0127 7.97607 27.2614 8.2247 27.2614 8.71465V15.4057H27.2541Z" fill="url(#paint2_linear_243_19326)"/>
<path d="M36 15.2959C36 15.9248 35.7441 16.2465 35.2322 16.2465C34.7496 16.2465 34.5082 15.9248 34.5156 15.2886C33.9305 15.9028 33.053 16.2465 32.0293 16.2465C30.8739 16.2465 30.0402 15.8151 29.3821 15.0107C28.7678 14.2648 28.468 13.2995 28.468 12.1222C28.468 10.8644 28.7971 9.86261 29.4479 9.10941C30.1353 8.30503 31.1006 7.90283 32.3364 7.90283C33.6453 7.90283 34.7349 8.39278 35.4223 9.12404C35.8026 9.51161 36 9.86993 36 10.199C36 10.3745 35.9415 10.5354 35.8318 10.667C35.7221 10.7913 35.5832 10.8571 35.4077 10.8571C35.0932 10.8571 34.8373 10.7328 34.6399 10.4769C34.0622 9.74561 33.2066 9.24835 32.2633 9.24835C31.5613 9.24835 30.9909 9.55548 30.5521 10.1624C30.1572 10.7109 29.9525 11.3471 29.9525 12.0783C29.9525 12.89 30.1353 13.5482 30.5082 14.0454C30.9324 14.6158 31.532 14.901 32.3071 14.901C33.3821 14.901 34.1207 14.3379 34.5229 13.2191H33.0823C32.6581 13.2191 32.4461 12.9997 32.4461 12.561C32.4461 12.1222 32.6581 11.9028 33.0823 11.9028H35.064C35.6856 11.9028 36 12.188 36 12.7657V15.2959Z" fill="url(#paint3_linear_243_19326)"/>
<defs>
<linearGradient id="paint0_linear_243_19326" x1="-1.29588" y1="8.9824" x2="28.7754" y2="25.5477" gradientUnits="userSpaceOnUse">
<stop stop-color="#91F378"/>
<stop offset="1" stop-color="#0AE2A9"/>
</linearGradient>
<linearGradient id="paint1_linear_243_19326" x1="0.618333" y1="4.24011" x2="32.6803" y2="21.902" gradientUnits="userSpaceOnUse">
<stop stop-color="#91F378"/>
<stop offset="1" stop-color="#0AE2A9"/>
</linearGradient>
<linearGradient id="paint2_linear_243_19326" x1="3.95111" y1="1.15118" x2="34.3795" y2="17.9132" gradientUnits="userSpaceOnUse">
<stop stop-color="#91F378"/>
<stop offset="1" stop-color="#0AE2A9"/>
</linearGradient>
<linearGradient id="paint3_linear_243_19326" x1="5.87541" y1="-2.49369" x2="36.8856" y2="14.5889" gradientUnits="userSpaceOnUse">
<stop stop-color="#91F378"/>
<stop offset="1" stop-color="#0AE2A9"/>
</linearGradient>
</defs>
</svg>
