<svg width="36" height="24" viewBox="0 0 36 24" fill="none" xmlns="http://www.w3.org/2000/svg">
<mask id="mask0_1_5546" style="mask-type:luminance" maskUnits="userSpaceOnUse" x="14" y="4" width="8" height="8">
<path d="M14.2845 4L14.2343 4.04936V7.98948L14.2595 8.13825C14.4602 8.70004 14.8367 8.98013 15.3893 8.98013H19.5062V9.50083H16.1171C15.4602 9.50083 14.8493 9.31096 14.2845 8.931H14.2343C14.3431 9.20329 14.4769 9.46754 14.636 9.72399C15.6526 11.0618 16.8577 11.7312 18.2513 11.7312H21.7157L21.7658 11.6814V7.74176L21.741 7.59299C21.5398 7.03143 21.1633 6.75019 20.6112 6.75019H16.4934V6.23018H19.8827C20.5395 6.23018 21.1505 6.42004 21.7155 6.80024H21.7655C21.6569 6.52726 21.5231 6.26324 21.364 6.00725C20.3474 4.66924 19.1421 4 17.749 4H14.2845Z" fill="white"/>
</mask>
<g mask="url(#mask0_1_5546)">
<path d="M21.7655 4H14.2343V11.7312H21.7655V4Z" fill="url(#paint0_linear_1_5546)"/>
</g>
<path d="M1.71912 18.2768C1.22804 18.2768 0.833848 18.1891 0.536767 18.014C0.178845 17.797 0 17.4581 0 16.9974V16.9005H0.205707V16.9746C0.205707 17.7173 0.71194 18.0884 1.72509 18.0884C2.07154 18.0884 2.36081 18.0353 2.59338 17.9286C2.90538 17.7837 3.06173 17.5592 3.06173 17.2545C3.06173 17.0449 3.00479 16.8851 2.89023 16.7744C2.79495 16.6796 2.637 16.5995 2.41614 16.5345C2.30181 16.5001 2.02975 16.4376 1.59928 16.3463C1.11578 16.2434 0.788391 16.1481 0.616892 16.0607C0.289505 15.8855 0.125812 15.6304 0.125812 15.295C0.125812 14.648 0.620795 14.3241 1.61076 14.3241C2.64641 14.3241 3.17193 14.7204 3.18731 15.5124H2.98161C2.95888 15.1162 2.81424 14.8441 2.54769 14.6956C2.33808 14.5737 2.02608 14.5128 1.61076 14.5128C0.758086 14.5128 0.331519 14.7736 0.331519 15.2952C0.331519 15.5544 0.451591 15.7487 0.691506 15.8779C0.847623 15.9617 1.11417 16.0379 1.49115 16.1064C2.1799 16.2319 2.63907 16.3651 2.8675 16.5061C3.13382 16.6659 3.26744 16.9209 3.26744 17.2715C3.26744 17.6257 3.08653 17.8921 2.7247 18.0714C2.44622 18.2084 2.11125 18.2768 1.71912 18.2768Z" fill="#434343"/>
<path d="M5.9684 18.317C5.40477 18.317 5.01241 18.0939 4.79178 17.6485V19.1961H4.5863V15.4495H4.79178V16.0552C4.89831 15.8382 5.05649 15.6713 5.26587 15.5551C5.47525 15.4387 5.70759 15.3811 5.96266 15.3811C6.40438 15.3811 6.74508 15.5154 6.98477 15.7836C7.22468 16.0524 7.34475 16.4055 7.34475 16.8433C7.34475 17.2885 7.22859 17.6427 6.99625 17.9056C6.75266 18.1795 6.40989 18.317 5.9684 18.317ZM5.99388 15.5694C5.6254 15.5694 5.33291 15.6867 5.11641 15.9206C4.90014 16.155 4.79178 16.4585 4.79178 16.8314C4.79178 17.2315 4.8866 17.5433 5.0767 17.7683C5.28562 18.008 5.58959 18.1283 5.98837 18.1283C6.36053 18.1283 6.64934 18.0023 6.85436 17.7513C7.04423 17.519 7.13928 17.218 7.13928 16.8488C7.13928 16.476 7.04239 16.1734 6.84862 15.9408C6.64338 15.6931 6.35869 15.5694 5.99388 15.5694Z" fill="#434343"/>
<path d="M8.83906 14.8551C8.79704 14.8551 8.76674 14.829 8.74768 14.7752V14.387C8.77064 14.3298 8.80094 14.3011 8.83906 14.3011C8.87326 14.3011 8.9116 14.328 8.95339 14.3815V14.7812C8.91528 14.8306 8.8774 14.8551 8.83906 14.8551ZM8.74791 18.2254V15.4151H8.95339V18.2254H8.74791Z" fill="#434343"/>
<path d="M12.5173 18.2596V16.4266C12.5173 16.1562 12.4328 15.9498 12.2652 15.807C12.0979 15.664 11.8731 15.5928 11.5914 15.5928C11.2601 15.5928 10.9984 15.6947 10.8062 15.8986C10.6138 16.1025 10.5179 16.3676 10.5179 16.695V18.2599H10.3124V15.473H10.5179V15.9753C10.7082 15.5949 11.0643 15.4045 11.5859 15.4045C11.9167 15.4045 12.1835 15.4844 12.3853 15.6445C12.6103 15.8153 12.7225 16.0572 12.7225 16.3697V18.2599L12.5173 18.2596Z" fill="#434343"/>
<path d="M15.4422 18.346C15.0005 18.346 14.6501 18.2089 14.3914 17.9353C14.1395 17.6724 14.0144 17.3241 14.0144 16.89C14.0144 16.448 14.1448 16.0942 14.4054 15.8277C14.666 15.5614 15.0156 15.428 15.4534 15.428C15.8913 15.428 16.2395 15.5614 16.499 15.8277C16.7579 16.0942 16.887 16.448 16.887 16.89C16.887 17.3278 16.7556 17.6804 16.493 17.9465C16.2303 18.2131 15.8798 18.346 15.4422 18.346ZM15.4477 15.6162C15.0664 15.6162 14.7672 15.7322 14.5482 15.9647C14.3289 16.1969 14.2194 16.5052 14.2194 16.8897C14.2194 17.2704 14.3305 17.5773 14.5509 17.8092C14.7718 18.0418 15.0707 18.1577 15.4475 18.1577C15.8251 18.1577 16.1247 18.0418 16.3472 17.8092C16.5701 17.5773 16.6813 17.2704 16.6813 16.8897C16.6813 16.5013 16.572 16.192 16.3532 15.9613C16.1342 15.7313 15.8325 15.6162 15.4477 15.6162Z" fill="#434343"/>
<path d="M22.1166 18.2835V16.4501C22.1166 15.8943 21.8537 15.6162 21.3275 15.6162C21.0426 15.6162 20.8135 15.6989 20.6429 15.8646C20.4716 16.0304 20.3856 16.2522 20.3856 16.53V18.2835H20.1803V16.4503C20.1803 15.8945 19.9117 15.6165 19.3742 15.6165C19.0737 15.6165 18.8377 15.7306 18.6664 15.959C18.5183 16.1606 18.4442 16.414 18.4442 16.7185V18.2838H18.2378V15.4966H18.4442V15.9817C18.6265 15.6126 18.9557 15.428 19.4316 15.428C19.8887 15.428 20.1874 15.6165 20.3284 15.9934C20.4955 15.6165 20.825 15.428 21.3161 15.428C21.9864 15.428 22.3212 15.7496 22.3212 16.3931V18.2838L22.1166 18.2835Z" fill="#434343"/>
<path d="M23.8728 16.9524C23.8965 17.7559 24.2911 18.1574 25.0586 18.1574C25.3162 18.1574 25.5456 18.0989 25.7449 17.9809C25.9444 17.8627 26.0881 17.6896 26.1756 17.4609H26.3861C26.2871 17.7766 26.112 18.0073 25.8613 18.1517C25.6326 18.281 25.3603 18.3455 25.0435 18.3455C24.5873 18.3455 24.2386 18.2123 23.9984 17.9458C23.7785 17.6948 23.6674 17.3443 23.6674 16.895C23.6674 16.461 23.7945 16.1077 24.0478 15.8354C24.3006 15.5634 24.6424 15.427 25.0726 15.427C25.499 15.427 25.8401 15.5494 26.0947 15.7939C26.3498 16.0384 26.4779 16.3708 26.4779 16.791V16.9517H23.8731L23.8728 16.9524ZM25.0754 15.6162C24.7251 15.6162 24.4443 15.72 24.2319 15.9275C24.0191 16.135 23.8999 16.4135 23.8728 16.7643H26.238C26.23 16.4138 26.1216 16.1353 25.9129 15.9275C25.7045 15.72 25.4248 15.6162 25.0754 15.6162Z" fill="#434343"/>
<path d="M30.0459 18.2836V16.4501C30.0459 16.1797 29.9614 15.973 29.7942 15.8302C29.6266 15.6874 29.4019 15.6163 29.1202 15.6163C28.7891 15.6163 28.5274 15.7182 28.3352 15.9218C28.1426 16.1257 28.0464 16.3911 28.0464 16.7185V18.2838H27.8409V15.4966H28.0464V15.9992C28.237 15.6183 28.5933 15.4282 29.1144 15.4282C29.4457 15.4282 29.713 15.5081 29.9139 15.6681C30.1388 15.8392 30.2511 16.0809 30.2511 16.3934V18.284L30.0459 18.2836Z" fill="#434343"/>
<path d="M34.1841 18.2835V17.6549C33.94 18.1159 33.5392 18.3457 32.9797 18.3457C32.5485 18.3457 32.2119 18.205 31.9679 17.9233C31.736 17.6602 31.6194 17.3176 31.6194 16.8952C31.6194 16.4647 31.736 16.1162 31.9679 15.8499C32.2193 15.5682 32.5637 15.4272 33.0015 15.4272C33.5617 15.4272 33.9552 15.6518 34.1841 16.1011V15.4272H34.39V18.2828H34.1841V18.2835ZM32.9758 15.6162C32.6112 15.6162 32.3242 15.7438 32.1153 15.9987C31.9217 16.2352 31.8244 16.5336 31.8244 16.8957C31.8244 17.2612 31.9197 17.558 32.1093 17.7867C32.3182 18.0344 32.6075 18.1577 32.9755 18.1577C33.3406 18.1577 33.6344 18.0344 33.8592 17.7867C34.0757 17.5507 34.1836 17.2536 34.1836 16.8957C34.1836 16.5035 34.0791 16.192 33.87 15.9615C33.6618 15.7312 33.3631 15.6162 32.9758 15.6162Z" fill="#434343"/>
<path d="M35.7946 18.2835V14.4106H36V18.2835H35.7946Z" fill="#434343"/>
<defs>
<linearGradient id="paint0_linear_1_5546" x1="14.2344" y1="7.86617" x2="21.7659" y2="7.86617" gradientUnits="userSpaceOnUse">
<stop stop-color="#28BFD6"/>
<stop offset="0.9754" stop-color="#A24E9D"/>
<stop offset="1" stop-color="#A24E9D"/>
</linearGradient>
</defs>
</svg>
