<svg width="36" height="24" viewBox="0 0 36 24" fill="none" xmlns="http://www.w3.org/2000/svg">
<g clip-path="url(#clip0_1_6551)">
<path d="M12.7233 14.6302L13.6551 10.5104H12.1304L12.3486 9.56067H16.5094L16.2989 10.5104H14.7742L13.8425 14.6302H12.7233Z" fill="black"/>
<path d="M17.8391 14.6302L16.9792 9.56067H18.1908L18.7529 13.4597L21.0759 9.56067H22.3979L19.2381 14.6302H17.8391Z" fill="black"/>
<path d="M21.5764 14.6302L22.7264 9.56067H25.2598C26.1659 9.56067 26.6742 10.1305 26.6742 10.7774C26.6742 11.4627 26.1197 12.0402 25.4857 12.0993C25.9709 12.2199 26.2352 12.6768 26.2352 13.126C26.2352 13.8319 25.727 14.6302 24.4205 14.6302H21.5764ZM24.5488 12.5177H23.1653L22.8983 13.7113H24.3306C24.8389 13.7113 25.1289 13.393 25.1289 13.0336C25.1289 12.7384 24.9082 12.5177 24.5488 12.5177ZM24.9467 10.4796H23.6325L23.3732 11.5962H24.7721C25.3112 11.5962 25.4832 11.2548 25.4832 10.957C25.4883 10.6926 25.2598 10.4796 24.9467 10.4796Z" fill="black"/>
<path d="M26.4482 14.6302L27.5982 9.56067H31.2893L31.0711 10.4873H28.4992L28.2579 11.5885H30.7759L30.5655 12.5151H28.0397L27.7727 13.6933H30.3447L30.1419 14.6276H26.4482V14.6302Z" fill="black"/>
<path d="M32.2134 14.6302L33.1452 10.5104H31.6205L31.8387 9.56067H35.9995L35.789 10.5104H34.2643L33.3326 14.6302H32.2134Z" fill="black"/>
<path d="M2.67161 10.1228H4.24252C4.28616 10.1228 4.32722 10.1485 4.35033 10.187L5.28722 11.9607C5.33343 12.0454 5.45407 12.0454 5.50027 11.9607L6.97877 9.15255C7.11738 8.89073 6.92744 8.57501 6.62968 8.57501H2.99503C2.71268 8.57501 2.45343 8.73159 2.32252 8.98057L0.0457289 13.3006C-0.0928806 13.5624 0.0970658 13.8755 0.392253 13.8755H4.45043L2.5638 10.2974C2.52273 10.2178 2.5792 10.1228 2.67161 10.1228Z" fill="url(#paint0_linear_1_6551)"/>
<path d="M4.48899 13.8909H6.26011C6.30375 13.8909 6.34482 13.8653 6.36792 13.8268L8.32129 10.1202H10.6828C10.9266 10.1202 11.0806 10.3795 10.9677 10.5951L8.65498 14.9844C8.5138 15.2539 8.23401 15.4233 7.92856 15.4233H4.11166C3.91402 15.4233 3.78824 15.2129 3.88065 15.0409L4.48899 13.8909Z" fill="url(#paint1_linear_1_6551)"/>
</g>
<defs>
<linearGradient id="paint0_linear_1_6551" x1="-0.333587" y1="13.5928" x2="8.88529" y2="8.07017" gradientUnits="userSpaceOnUse">
<stop offset="0.5078" stop-color="#FFD200"/>
<stop offset="0.999" stop-color="#F26322"/>
</linearGradient>
<linearGradient id="paint1_linear_1_6551" x1="1.56832" y1="16.7675" x2="10.7872" y2="11.2449" gradientUnits="userSpaceOnUse">
<stop offset="0.5078" stop-color="#FFD200"/>
<stop offset="0.999" stop-color="#F26322"/>
</linearGradient>
<clipPath id="clip0_1_6551">
<rect width="36" height="24" fill="white"/>
</clipPath>
</defs>
</svg>
