<svg width="36" height="24" viewBox="0 0 36 24" fill="none" xmlns="http://www.w3.org/2000/svg">
<path d="M25.7074 0H24.1886C23.2994 0 22.5792 0.720965 22.5792 1.60935C22.5792 2.49849 23.3002 3.2187 24.1886 3.2187H25.7074C26.8424 3.2187 27.7655 4.27376 27.7655 5.57089C27.7655 6.85973 26.8424 7.90875 25.7074 7.90875C24.8183 7.90875 24.0981 8.62971 24.0981 9.5181C24.0981 10.4072 24.819 11.1275 25.7074 11.1275C28.6177 11.1275 30.985 8.63499 30.985 5.57089C30.985 2.49925 28.6177 0 25.7074 0Z" fill="#FF780A"/>
<path d="M21.3421 1.50523C21.1747 0.531622 20.2494 -0.122979 19.2758 0.0444422C18.6589 0.150023 18.1717 0.56028 17.9387 1.09422L14.8263 5.89361C14.7237 6.05123 14.5465 6.11609 14.3814 6.08818C14.2833 6.06103 14.1936 5.99919 14.1317 5.90417L14.1227 5.94263C14.1099 5.92755 14.0978 5.91171 14.0865 5.89512L10.7569 0.97129C10.6521 0.810656 10.5239 0.671139 10.3783 0.555755C10.1242 0.296328 9.78936 0.111561 9.40399 0.0451965C8.42963 -0.122224 7.50504 0.531622 7.33762 1.50598L5.10233 14.5263C4.93491 15.4999 5.58875 16.4253 6.56311 16.5927C6.66567 16.6101 6.76748 16.6191 6.86779 16.6191C7.72299 16.6191 8.4794 16.0037 8.62948 15.1327L9.99373 7.18773C10.137 6.89512 10.5654 6.84912 10.7577 7.14474L12.9952 10.6266C13.2335 10.9917 13.5955 11.2503 14.0065 11.3604C14.1634 11.4064 14.3286 11.4306 14.496 11.4306C14.4967 11.4306 14.4975 11.4306 14.4975 11.4306C15.0888 11.4306 15.64 11.1319 15.9628 10.6364L18.2004 7.15455C18.3067 6.9909 18.4854 6.93207 18.6483 6.96149L20.0518 15.1319C20.2011 16.0037 20.9583 16.6183 21.8135 16.6183C21.9138 16.6183 22.0164 16.6101 22.1182 16.592C23.0918 16.4245 23.7464 15.4992 23.579 14.5256L21.3421 1.50523Z" fill="#FF780A"/>
<path fill-rule="evenodd" clip-rule="evenodd" d="M3.51659 19.2873C3.54977 19.0897 3.7632 18.865 4.0543 18.865C4.32881 18.865 4.54223 19.0626 4.60256 19.2602L5.24962 21.4329H5.26093L5.90799 19.2602C5.96833 19.0626 6.1825 18.865 6.45626 18.865C6.74736 18.865 6.96078 19.0897 6.99397 19.2873L7.50452 22.3484C7.5098 22.3816 7.5098 22.414 7.5098 22.4419C7.5098 22.6832 7.33409 22.8371 7.11463 22.8371C6.83484 22.8371 6.72474 22.7111 6.68703 22.4532L6.3635 20.2202H6.35219L5.69382 22.5188C5.65535 22.6508 5.55128 22.8371 5.2549 22.8371C4.95852 22.8371 4.85445 22.6508 4.81599 22.5188L4.15762 20.2202H4.1463L3.82278 22.4532C3.78431 22.7111 3.67496 22.8371 3.39517 22.8371C3.17572 22.8371 3 22.6832 3 22.4419C3 22.4148 3 22.3816 3.00528 22.3484L3.51659 19.2873Z" fill="black"/>
<path fill-rule="evenodd" clip-rule="evenodd" d="M10.7309 22.3212C10.7309 22.5241 10.7309 22.8371 10.3523 22.8371C10.1223 22.8371 10.0287 22.7111 9.9737 22.5022C9.77083 22.7436 9.52347 22.8695 9.22181 22.8695C8.48124 22.8695 7.91638 22.2383 7.91638 21.3499C7.91638 20.4834 8.49783 19.819 9.22181 19.819C9.51291 19.819 9.79798 19.9344 9.9737 20.181C9.99557 19.9887 10.16 19.8522 10.3523 19.8522C10.7309 19.8522 10.7309 20.1651 10.7309 20.368V22.3212ZM9.33192 22.1455C9.74368 22.1455 9.94051 21.7285 9.94051 21.3499C9.94051 20.9713 9.74821 20.5437 9.33192 20.5437C8.89828 20.5437 8.70673 20.9713 8.70673 21.3499C8.70673 21.7285 8.90432 22.1455 9.33192 22.1455Z" fill="black"/>
<path fill-rule="evenodd" clip-rule="evenodd" d="M11.3454 20.2912C11.3454 20.028 11.5098 19.8523 11.7405 19.8523C11.9434 19.8523 12.0754 19.9624 12.1025 20.1434C12.2564 19.9292 12.4917 19.8198 12.865 19.8198C13.4849 19.8198 13.9457 20.215 13.9457 20.8839V22.3983C13.9457 22.6615 13.7813 22.8372 13.5505 22.8372C13.3205 22.8372 13.1553 22.6615 13.1553 22.3983V21.0212C13.1553 20.6539 12.9245 20.4782 12.6395 20.4782C12.3159 20.4782 12.135 20.7142 12.135 21.0212V22.3983C12.135 22.6615 11.9705 22.8372 11.7398 22.8372C11.509 22.8372 11.3446 22.6615 11.3446 22.3983V20.2912H11.3454Z" fill="black"/>
<path fill-rule="evenodd" clip-rule="evenodd" d="M14.5603 20.2912C14.5603 20.028 14.7247 19.8523 14.9555 19.8523C15.1584 19.8523 15.2903 19.9624 15.3175 20.1434C15.4713 19.9292 15.7066 19.8198 16.0799 19.8198C16.6998 19.8198 17.1606 20.215 17.1606 20.8839V22.3983C17.1606 22.6615 16.9962 22.8372 16.7655 22.8372C16.5354 22.8372 16.3703 22.6615 16.3703 22.3983V21.0212C16.3703 20.6539 16.1395 20.4782 15.8544 20.4782C15.5309 20.4782 15.3499 20.7142 15.3499 21.0212V22.3983C15.3499 22.6615 15.1855 22.8372 14.9547 22.8372C14.724 22.8372 14.5596 22.6615 14.5596 22.3983V20.2912H14.5603Z" fill="black"/>
<path fill-rule="evenodd" clip-rule="evenodd" d="M20.4744 22.3212C20.4744 22.5241 20.4744 22.8371 20.0958 22.8371C19.8658 22.8371 19.7723 22.7111 19.7172 22.5022C19.5144 22.7436 19.267 22.8695 18.9653 22.8695C18.2248 22.8695 17.6599 22.2383 17.6599 21.3499C17.6599 20.4834 18.2414 19.819 18.9653 19.819C19.2564 19.819 19.5415 19.9344 19.7172 20.181C19.7391 19.9887 19.9035 19.8522 20.0958 19.8522C20.4744 19.8522 20.4744 20.1651 20.4744 20.368V22.3212ZM19.0754 22.1455C19.4872 22.1455 19.684 21.7285 19.684 21.3499C19.684 20.9713 19.4917 20.5437 19.0754 20.5437C18.6418 20.5437 18.4503 20.9713 18.4503 21.3499C18.4503 21.7285 18.6478 22.1455 19.0754 22.1455Z" fill="black"/>
<path fill-rule="evenodd" clip-rule="evenodd" d="M22.7459 19.3258C22.7459 19.0679 22.8997 18.8982 23.1735 18.8982H24.1448C24.951 18.8982 25.549 19.4246 25.549 20.2097C25.549 21.0106 24.9291 21.5098 24.1772 21.5098H23.5686V22.4095C23.5686 22.684 23.3929 22.8371 23.1569 22.8371C22.9208 22.8371 22.7451 22.6833 22.7451 22.4095V19.3258H22.7459ZM23.5694 20.7851H24.129C24.4744 20.7851 24.6938 20.5324 24.6938 20.2036C24.6938 19.8748 24.4744 19.6222 24.129 19.6222H23.5694V20.7851Z" fill="black"/>
<path fill-rule="evenodd" clip-rule="evenodd" d="M25.9282 19.0189C25.9282 18.7557 26.0926 18.58 26.3234 18.58C26.5542 18.58 26.7186 18.7557 26.7186 19.0189V22.3982C26.7186 22.6614 26.5542 22.8371 26.3234 22.8371C26.0926 22.8371 25.9282 22.6614 25.9282 22.3982V19.0189Z" fill="black"/>
<path fill-rule="evenodd" clip-rule="evenodd" d="M30.021 22.3212C30.021 22.5241 30.021 22.8371 29.6424 22.8371C29.4124 22.8371 29.3189 22.7111 29.2639 22.5022C29.061 22.7436 28.8136 22.8695 28.512 22.8695C27.7714 22.8695 27.2065 22.2383 27.2065 21.3499C27.2065 20.4834 27.788 19.819 28.512 19.819C28.8031 19.819 29.0881 19.9344 29.2639 20.181C29.2857 19.9887 29.4501 19.8522 29.6424 19.8522C30.021 19.8522 30.021 20.1651 30.021 20.368V22.3212ZM28.6221 22.1455C29.0338 22.1455 29.2307 21.7285 29.2307 21.3499C29.2307 20.9713 29.0384 20.5437 28.6221 20.5437C28.1884 20.5437 27.9969 20.9713 27.9969 21.3499C27.9961 21.7285 28.1937 22.1455 28.6221 22.1455Z" fill="black"/>
<path fill-rule="evenodd" clip-rule="evenodd" d="M30.4382 20.3952C30.4164 20.3348 30.3998 20.2745 30.3998 20.1923C30.3998 19.9947 30.6079 19.8522 30.7731 19.8522C30.9654 19.8522 31.1019 19.9562 31.1683 20.132L31.7112 21.6184L32.2927 20.132C32.3583 19.9562 32.4956 19.8522 32.6879 19.8522C32.8523 19.8522 33.0612 19.9947 33.0612 20.1923C33.0612 20.2745 33.0499 20.3348 33.0227 20.3952L31.7007 23.687C31.6351 23.8514 31.5144 24 31.3274 24C31.0589 24 30.9156 23.8295 30.9156 23.6599C30.9156 23.5829 30.9375 23.5007 30.9654 23.4291L31.3108 22.5731L30.4382 20.3952Z" fill="black"/>
</svg>
