<svg width="36" height="24" viewBox="0 0 36 24" fill="none" xmlns="http://www.w3.org/2000/svg">
<g clip-path="url(#clip0_1_6939)">
<path d="M27.7246 4.4408C28.1379 3.79815 28.279 3.01769 28.1169 2.27104C27.9548 1.52438 27.5028 0.872663 26.8603 0.459189C26.2177 0.0459483 25.4372 -0.0951446 24.6906 0.0669352C23.9439 0.229015 23.2922 0.680998 22.8787 1.3235L19.8105 6.09652L16.7609 1.32721C16.7549 1.31754 16.7482 1.31011 16.7423 1.30118C16.7081 1.24837 16.6679 1.19779 16.633 1.14721C16.6121 1.11969 16.592 1.09143 16.5705 1.06465C16.5363 1.02225 16.4961 0.982087 16.4619 0.941177C16.4277 0.900268 16.4039 0.876466 16.3734 0.84597C16.3429 0.815474 16.3101 0.786465 16.2782 0.757457C16.2462 0.728448 16.1971 0.683076 16.1547 0.648117C16.1279 0.626546 16.0996 0.606463 16.0721 0.585637C16.0223 0.547702 15.9717 0.511256 15.9189 0.475553L15.8936 0.456958C15.8735 0.444313 15.852 0.433899 15.8319 0.421999C15.7805 0.390759 15.7285 0.360262 15.6757 0.331998C15.6385 0.312659 15.6013 0.294807 15.5634 0.276956C15.5254 0.259104 15.4734 0.235302 15.4272 0.215963C15.3811 0.196624 15.3343 0.180261 15.2867 0.163153C15.2391 0.146045 15.2123 0.136376 15.1699 0.124475C15.1178 0.108855 15.065 0.0947224 15.0122 0.0820777C14.9757 0.073152 14.9378 0.0649701 14.9021 0.057532C14.8486 0.0463748 14.7943 0.0374491 14.7407 0.030011C14.7013 0.0240606 14.6663 0.0195977 14.6239 0.0158786C14.5726 0.010672 14.5228 0.00695294 14.4752 0.00472151C14.4276 0.00249008 14.3866 0.00472151 14.342 0.00472151C14.2974 0.00472151 14.2528 0.00472151 14.2081 0.00472151C14.1635 0.00472151 14.107 0.010672 14.0594 0.0158786C14.0199 0.0158786 13.985 0.0240606 13.9418 0.030011C13.8883 0.0374491 13.834 0.0463748 13.7804 0.0567882C13.7433 0.0642263 13.7061 0.0724082 13.6704 0.0813339C13.6173 0.0937307 13.5645 0.107863 13.5119 0.123731C13.4733 0.135632 13.4338 0.148277 13.3951 0.161665C13.3565 0.175054 13.3014 0.195137 13.2553 0.214476C13.2092 0.233815 13.1638 0.253898 13.1192 0.274724C13.0746 0.295551 13.0448 0.310427 13.0061 0.329766C12.9533 0.357287 12.9013 0.387783 12.8499 0.419023C12.8299 0.431668 12.8083 0.441338 12.7882 0.453982L12.7622 0.472578C12.7101 0.506793 12.6588 0.546959 12.6089 0.581918C12.5814 0.602744 12.5532 0.622827 12.5264 0.644398C12.484 0.679357 12.4431 0.718778 12.4022 0.753738C12.3613 0.788697 12.3375 0.811011 12.307 0.841507C12.2765 0.872003 12.2482 0.904731 12.2184 0.936715C12.1887 0.968698 12.1441 1.01779 12.1098 1.06019C12.0883 1.08696 12.0675 1.11523 12.0466 1.14275C12.0087 1.19333 11.9722 1.24391 11.9373 1.29597C11.9313 1.3049 11.9239 1.31308 11.9187 1.32201L6.41524 9.85573C6.002 10.4984 5.86091 11.2788 6.02299 12.0255C6.18507 12.7722 6.63705 13.4239 7.27955 13.8373C7.59768 14.0421 7.95303 14.1822 8.32531 14.2496C8.69758 14.317 9.07948 14.3104 9.44921 14.2302C9.81895 14.15 10.1693 13.9978 10.4802 13.7822C10.7911 13.5666 11.0564 13.2919 11.2612 12.9738L14.3257 8.2134L17.3753 12.9834C17.5792 13.3021 17.8438 13.5775 18.1542 13.7939C18.4645 14.0103 18.8144 14.1635 19.1839 14.2447C19.5535 14.3258 19.9354 14.3334 20.3078 14.2669C20.6803 14.2005 21.036 14.0613 21.3547 13.8574C21.3792 13.8411 21.4015 13.8232 21.4253 13.8068L21.4447 13.7935C21.5153 13.7436 21.5837 13.6923 21.6492 13.638L21.6723 13.6179C21.737 13.5629 21.7995 13.5056 21.8582 13.4454L21.882 13.4201C21.94 13.3601 21.9951 13.2976 22.0471 13.2326C22.0576 13.22 22.0672 13.2066 22.0776 13.1932C22.1245 13.1315 22.1706 13.069 22.2123 13.0043L22.2286 12.9827L27.7246 4.4408Z" fill="url(#paint0_linear_1_6939)"/>
<path opacity="0.25" d="M16.8257 1.43803C16.799 1.39043 16.77 1.34357 16.7395 1.29745C16.7201 1.26696 16.7 1.2372 16.6785 1.20819C16.6569 1.17919 16.6465 1.16505 16.6301 1.14348C16.6138 1.12191 16.5892 1.0877 16.5676 1.06092C16.5327 1.01778 16.4933 0.977613 16.459 0.937448C16.4248 0.897282 16.401 0.872736 16.3705 0.84224C16.34 0.811744 16.3073 0.782735 16.2753 0.753727C16.2433 0.724718 16.195 0.679346 16.1518 0.644387C16.1251 0.622816 16.0968 0.602733 16.0693 0.581907C16.0195 0.543973 15.9696 0.507526 15.9161 0.471823L15.8908 0.453228C15.8699 0.440583 15.8491 0.43017 15.829 0.418269C15.7777 0.386285 15.7256 0.356533 15.6728 0.328268C15.6356 0.308929 15.5985 0.291077 15.5598 0.273226C15.5211 0.255375 15.4698 0.231573 15.4244 0.212234C15.379 0.192895 15.3314 0.176531 15.2838 0.159423C15.2362 0.142316 15.2094 0.132646 15.167 0.120745C15.115 0.105125 15.0622 0.0909927 15.0094 0.0783479C14.9729 0.0694222 14.935 0.0612403 14.8993 0.0538022C14.8457 0.0426451 14.7922 0.0337194 14.7379 0.0262813C14.6984 0.0210746 14.6635 0.0158679 14.6211 0.0121489C14.5705 0.00694222 14.5199 0.00322317 14.4723 0.000991746C14.4247 -0.00123968 14.3838 0.000991746 14.3392 0.000991746C14.2946 0.000991746 14.2499 0.000991746 14.2046 0.000991746C14.1592 0.000991746 14.1034 0.00694222 14.0558 0.0121489C14.0082 0.0173556 13.9814 0.0203308 13.9383 0.0262813C13.884 0.0337194 13.8304 0.0426451 13.7769 0.0530584C13.7397 0.0604965 13.7025 0.0686784 13.6668 0.0776041C13.6137 0.0900009 13.5609 0.104133 13.5084 0.120001C13.4697 0.131902 13.4303 0.144547 13.3916 0.158679C13.3529 0.172812 13.2979 0.191407 13.2517 0.210746C13.2056 0.230085 13.1602 0.250168 13.1156 0.270995C13.071 0.291821 13.0412 0.306697 13.0026 0.326036C12.9498 0.353557 12.8977 0.384054 12.8464 0.415294C12.8255 0.427938 12.8047 0.437608 12.7846 0.450253H12.7809L12.7586 0.465873C12.7058 0.500832 12.6552 0.540254 12.6054 0.575213C12.5778 0.596039 12.5496 0.616122 12.5228 0.637693C12.4797 0.672652 12.4395 0.712073 12.3986 0.747033C12.3577 0.781992 12.3346 0.804306 12.3034 0.834802C12.2721 0.865298 12.2439 0.898026 12.2149 0.93001C12.1859 0.961993 12.1405 1.01034 12.1063 1.05348C12.084 1.08026 12.0639 1.10852 12.043 1.13604C12.0059 1.18588 11.9687 1.23646 11.9337 1.28927L11.9151 1.3153L8.59995 6.46023L6.57605 9.60655C6.76285 9.89238 7.01821 10.1269 7.31886 10.2888C7.61951 10.4507 7.95589 10.5348 8.29735 10.5333C8.63881 10.5319 8.97448 10.4451 9.27379 10.2808C9.5731 10.1164 9.82652 9.87978 10.011 9.59241L12.6143 5.54163L13.6132 3.98781C13.6229 3.97293 13.6341 3.96029 13.6437 3.94616C13.8639 3.61582 14.1504 3.3349 14.485 3.12127C14.5786 3.06122 14.6757 3.00683 14.7758 2.95838C15.4021 2.65151 16.1186 2.5832 16.7916 2.76623C17.4645 2.94925 18.0478 3.37107 18.4324 3.95285L16.8257 1.43803Z" fill="#FF2805"/>
<path d="M14.235 8.35097C14.2647 8.30411 14.2975 8.26097 14.3302 8.21783L14.3257 8.21039L14.235 8.35097Z" fill="url(#paint1_linear_1_6939)"/>
<path d="M22.6726 11.1708C22.2259 11.3562 21.7447 11.4442 21.2613 11.4289C20.7778 11.4136 20.3032 11.2954 19.869 11.0822C19.4349 10.869 19.0511 10.5657 18.7435 10.1924C18.4358 9.81922 18.2113 9.38467 18.0848 8.9178C18.0848 8.91036 18.0848 8.90367 18.0789 8.89697C18.0722 8.86945 18.0655 8.84267 18.0595 8.81515L18.0551 8.8211C17.9309 8.45333 17.7088 8.1264 17.4126 7.87548C17.1165 7.62457 16.7575 7.45918 16.3743 7.39713C15.9912 7.33508 15.5983 7.37872 15.2381 7.52334C14.8779 7.66796 14.564 7.90809 14.3301 8.21787L16.4908 11.594L17.3782 12.9805C17.5821 13.2992 17.8468 13.5746 18.1571 13.791C18.4674 14.0074 18.8174 14.1605 19.1869 14.2417C19.5564 14.3228 19.9383 14.3304 20.3107 14.264C20.6832 14.1975 21.0389 14.0584 21.3576 13.8545C21.3821 13.8381 21.4044 13.8202 21.4282 13.8039L21.4468 13.7905C21.5212 13.7414 21.5859 13.6901 21.6521 13.635L21.6752 13.615C21.7392 13.5607 21.8016 13.5034 21.8611 13.4424C21.8693 13.4342 21.8768 13.4253 21.8842 13.4171C21.9422 13.3576 21.9973 13.2951 22.0501 13.2297C22.0605 13.217 22.0702 13.2036 22.0798 13.1902C22.1274 13.13 22.1728 13.0668 22.2159 13.0013C22.2204 12.9939 22.2264 12.9872 22.2316 12.9797L24.2332 9.86839C23.8585 10.4519 23.3138 10.9065 22.6726 11.1708Z" fill="url(#paint2_linear_1_6939)"/>
<path d="M19.8113 6.09651C20.0175 6.37279 20.2877 6.59493 20.5986 6.74388C20.9095 6.89282 21.2519 6.96414 21.5965 6.95171C21.941 6.93927 22.2774 6.84346 22.5768 6.67249C22.8761 6.50152 23.1296 6.26049 23.3154 5.97006L26.8611 0.459924C26.543 0.255176 26.1876 0.115097 25.8153 0.0476862C25.4431 -0.0197247 25.0612 -0.0131474 24.6914 0.0670427C24.3217 0.147233 23.9714 0.299465 23.6605 0.515047C23.3496 0.730628 23.0842 1.00534 22.8795 1.32349L21.9765 2.72706L20.8943 4.4103L19.8113 6.09651Z" fill="url(#paint3_linear_1_6939)"/>
<path d="M3.43491 20.2683V22.4655H2.36159V20.426C2.36159 19.9797 2.08267 19.7744 1.73903 19.7744C1.34555 19.7744 1.07332 20.0035 1.07332 20.5115V22.4655H0V18.89H1.07332V19.2262C1.26671 18.9614 1.62448 18.7896 2.0968 18.7896C2.81978 18.7866 3.43491 19.3021 3.43491 20.2683Z" fill="black"/>
<path d="M5.81063 21.6064C5.9376 21.61 6.06399 21.5879 6.18213 21.5412C6.30027 21.4945 6.4077 21.4243 6.49791 21.3349L7.35626 21.8281C7.00593 22.3153 6.47634 22.5652 5.79426 22.5652C4.56995 22.5652 3.81201 21.7425 3.81201 20.6759C3.81201 19.6093 4.58483 18.7866 5.71542 18.7866C6.75675 18.7866 7.53329 19.5959 7.53329 20.6759C7.53368 20.8203 7.51923 20.9644 7.49015 21.1058H4.95153C5.08764 21.4777 5.41715 21.6064 5.81063 21.6064ZM6.47113 20.3032C6.35658 19.8882 6.03451 19.738 5.71244 19.738C5.30484 19.738 5.0326 19.9388 4.93293 20.3032H6.47113Z" fill="black"/>
<path d="M9.21661 19.918V21.1825C9.21661 21.4896 9.4814 21.5187 9.95372 21.4896V22.4633C8.5509 22.6061 8.14329 22.1844 8.14329 21.1825V19.918H7.57056V18.89H8.14329V18.2102L9.21661 17.8881V18.89H9.95372V19.921L9.21661 19.918Z" fill="black"/>
<path d="M13.9835 18.89V22.2892C13.9835 23.492 13.0455 24 12.0942 24C11.3504 24 10.7271 23.7203 10.3976 23.1342L11.3139 22.6046C11.4501 22.8545 11.6576 23.0554 12.1321 23.0554C12.6327 23.0554 12.9407 22.7973 12.9407 22.2892V21.9605C12.7041 22.2535 12.3612 22.4254 11.8956 22.4254C10.8796 22.4254 10.135 21.5953 10.135 20.6075C10.135 19.6197 10.8788 18.7896 11.8956 18.7896C12.3612 18.7896 12.7041 18.9614 12.9407 19.2552V18.89H13.9835ZM12.9384 20.6075C12.9384 20.1136 12.5807 19.7774 12.0726 19.7774C11.5646 19.7774 11.2068 20.1136 11.2068 20.6075C11.2068 21.1014 11.5646 21.4376 12.0726 21.4376C12.5807 21.4376 12.9377 21.0984 12.9377 20.6045L12.9384 20.6075Z" fill="black"/>
<path d="M18.262 18.89V22.4685H17.1879V22.1323C16.9521 22.4038 16.601 22.5682 16.122 22.5682C15.1848 22.5682 14.4113 21.7455 14.4113 20.6789C14.4113 19.6123 15.1848 18.7896 16.122 18.7896C16.601 18.7896 16.9521 18.9547 17.1879 19.2262V18.89H18.262ZM17.1879 20.6752C17.1879 20.1389 16.8301 19.8027 16.3362 19.8027C15.8423 19.8027 15.4853 20.1396 15.4853 20.6752C15.4853 21.2107 15.8431 21.5484 16.3362 21.5484C16.8294 21.5484 17.1879 21.2129 17.1879 20.6752Z" fill="black"/>
<path d="M24.2371 20.2683V22.4655H23.1638V20.3613C23.1638 20.0035 22.9919 19.7744 22.6483 19.7744C22.2905 19.7744 22.0897 20.0251 22.0897 20.4476V22.4655H21.0164V20.3613C21.0164 20.0035 20.8446 19.7744 20.5017 19.7744C20.1439 19.7744 19.9431 20.0251 19.9431 20.4476V22.4655H18.8698V18.89H19.9431V19.2195C20.1074 18.9763 20.4228 18.7896 20.9018 18.7896C21.3243 18.7896 21.639 18.9614 21.8398 19.2619C22.0399 18.9763 22.3694 18.7896 22.8774 18.7896C23.7 18.7866 24.2371 19.3735 24.2371 20.2683Z" fill="black"/>
<path d="M24.6869 17.9283C24.6869 17.8009 24.7247 17.6763 24.7954 17.5704C24.8662 17.4645 24.9668 17.3819 25.0845 17.3332C25.2022 17.2844 25.3317 17.2716 25.4567 17.2965C25.5816 17.3214 25.6964 17.3827 25.7865 17.4728C25.8766 17.5629 25.9379 17.6776 25.9628 17.8026C25.9876 17.9275 25.9749 18.0571 25.9261 18.1748C25.8774 18.2925 25.7948 18.3931 25.6889 18.4638C25.583 18.5346 25.4584 18.5724 25.331 18.5724C25.1607 18.5707 24.9979 18.5022 24.8775 18.3818C24.7571 18.2614 24.6886 18.0986 24.6869 17.9283ZM24.7947 18.89H25.8681V22.4685H24.7947V18.89Z" fill="black"/>
<path d="M29.9114 20.2683V22.4655H28.8374V20.426C28.8374 19.9797 28.5584 19.7744 28.2148 19.7744C27.8213 19.7744 27.5498 20.0035 27.5498 20.5115V22.4655H26.4795V18.89H27.5536V19.2262C27.7462 18.9614 28.104 18.7896 28.5763 18.7896C29.2956 18.7866 29.9114 19.3021 29.9114 20.2683Z" fill="black"/>
<path d="M34.1409 18.89V22.2892C34.1409 23.492 33.2037 24 32.2517 24C31.5078 24 30.8853 23.7203 30.5558 23.1342L31.4721 22.6046C31.6075 22.8545 31.815 23.0554 32.2903 23.0554C32.7917 23.0554 33.0996 22.7973 33.0996 22.2892V21.9605C32.8631 22.2535 32.5194 22.4254 32.0545 22.4254C31.0385 22.4254 30.2939 21.5953 30.2939 20.6075C30.2939 19.6197 31.0378 18.7896 32.0545 18.7896C32.5194 18.7896 32.8631 18.9614 33.0996 19.2552V18.89H34.1409ZM33.0996 20.6075C33.0996 20.1136 32.7411 19.7774 32.2331 19.7774C31.725 19.7774 31.3673 20.1136 31.3673 20.6075C31.3673 21.1014 31.725 21.4376 32.2331 21.4376C32.7411 21.4376 33.0996 21.0984 33.0996 20.6045V20.6075Z" fill="black"/>
<path d="M34.4562 18.9079V18.8382H34.943V18.9079H34.7389V19.4873H34.6603V18.9079H34.4562Z" fill="black"/>
<path d="M35.0644 18.8382H35.1582L35.3788 19.377H35.3864L35.607 18.8382H35.7008V19.4873H35.6273V18.9941H35.6209L35.4181 19.4873H35.3471L35.1442 18.9941H35.1379V19.4873H35.0644V18.8382Z" fill="black"/>
</g>
<defs>
<linearGradient id="paint0_linear_1_6939" x1="5.42227" y1="12.704" x2="28.1088" y2="1.82756" gradientUnits="userSpaceOnUse">
<stop stop-color="#77001A"/>
<stop offset="1" stop-color="#FF2805"/>
</linearGradient>
<linearGradient id="paint1_linear_1_6939" x1="14.5158" y1="8.13644" x2="14.5227" y2="8.14086" gradientUnits="userSpaceOnUse">
<stop stop-color="#77001A"/>
<stop offset="1" stop-color="#FF2805"/>
</linearGradient>
<linearGradient id="paint2_linear_1_6939" x1="14.9303" y1="7.50673" x2="22.6759" y2="12.4861" gradientUnits="userSpaceOnUse">
<stop stop-color="#77001A"/>
<stop offset="1" stop-color="#FF2805"/>
</linearGradient>
<linearGradient id="paint3_linear_1_6939" x1="20.4362" y1="6.16844" x2="26.2795" y2="0.740713" gradientUnits="userSpaceOnUse">
<stop stop-color="#77001A"/>
<stop offset="0.5" stop-color="#AD0418"/>
<stop offset="1" stop-color="#FF2805"/>
</linearGradient>
<clipPath id="clip0_1_6939">
<rect width="36" height="24" fill="white"/>
</clipPath>
</defs>
</svg>
