<svg width="36" height="24" viewBox="0 0 36 24" fill="none" xmlns="http://www.w3.org/2000/svg">
<g clip-path="url(#clip0_777_20717)">
<path d="M17.7623 4.57723C17.0081 4.61426 16.2722 4.82263 15.6106 5.18651C14.9489 5.5504 14.3788 6.06024 13.9436 6.67734C13.8154 7.21679 13.7505 7.76936 13.7502 8.32385C13.7423 10.4046 15.3203 12.0634 17.401 12.0696C17.6947 12.0711 17.9857 12.0144 18.2573 11.9027C18.5289 11.791 18.7757 11.6267 18.9834 11.4191C19.0513 11.3516 19.115 11.28 19.1741 11.2046C18.9705 11.3689 18.7326 11.4854 18.4779 11.5457C18.2428 11.6019 18.0012 11.6259 17.7597 11.6169C17.6619 11.616 17.5643 11.6072 17.4678 11.5905C16.9401 11.512 16.448 11.2776 16.0545 10.9173C15.661 10.557 15.3842 10.0874 15.2596 9.56862C14.7735 7.49752 15.8442 5.33763 17.7623 4.57723ZM22.9331 10.1848C22.8397 9.86762 22.717 9.55978 22.5665 9.26534C21.7832 7.73926 20.1728 6.9648 18.5939 7.27687C19.0864 7.26737 19.5724 7.39097 20.0005 7.63465C21.6909 8.60163 22.5401 10.5743 22.0909 12.3746C22.5439 11.723 22.8334 10.9719 22.9348 10.1848H22.9331ZM20.4057 3.71222C20.4453 3.83651 20.4747 3.96381 20.4936 4.09286C21.8861 4.72722 22.9842 5.86897 23.5637 7.28519C24.1432 8.70141 24.1605 10.2854 23.6122 11.7139C23.0638 13.1425 21.991 14.308 20.6127 14.9727C19.2344 15.6374 17.6545 15.7512 16.1951 15.2908C14.7358 14.8305 13.5071 13.8307 12.7597 12.4954C12.0123 11.1602 11.8026 9.59007 12.1732 8.10543C12.5438 6.62079 13.4669 5.3335 14.7542 4.50616C16.0414 3.67883 17.5958 3.37381 19.1003 3.65332C19.0871 3.74562 19.0713 3.83968 19.0502 3.93199C17.626 3.66731 16.1544 3.95343 14.9332 4.73248C13.7119 5.51152 12.8321 6.72534 12.4718 8.12839C12.1114 9.53143 12.2974 11.019 12.9921 12.2901C13.6868 13.5612 14.8384 14.5211 16.2139 14.9754C17.5894 15.4298 19.0861 15.3448 20.4013 14.7376C21.7164 14.1304 22.7519 13.0463 23.2982 11.7047C23.8445 10.3631 23.8609 8.86403 23.344 7.51082C22.827 6.1576 21.8155 5.05122 20.5138 4.41548C20.514 4.51321 20.5063 4.61081 20.491 4.70733C21.7129 5.33451 22.6524 6.40066 23.1209 7.69178C23.5894 8.98291 23.5523 10.4035 23.0169 11.6683C22.4815 12.9332 21.4875 13.9487 20.2345 14.5111C18.9814 15.0736 17.562 15.1412 16.2611 14.7006C14.9602 14.2599 13.8741 13.3435 13.2208 12.1353C12.5676 10.9271 12.3954 9.51654 12.739 8.1867C13.0826 6.85687 13.9164 5.70619 15.0731 4.96561C16.2299 4.22503 17.6239 3.94937 18.9755 4.19395C18.8216 4.65898 18.5359 5.07303 18.0155 5.28752C16.9659 5.71299 16.7734 6.28879 16.747 6.6369C16.6547 7.02018 16.4912 7.02018 16.2283 7.33401C16.0685 7.50002 15.9493 7.70075 15.8799 7.9205C15.8105 8.14024 15.7929 8.37306 15.8284 8.60076C15.904 8.43021 16.1633 8.07331 16.4701 7.92738C16.8165 7.74549 17.1964 7.63602 17.5865 7.60564C17.5865 7.60564 18.3126 7.61267 18.4436 7.02985C18.8032 7.02985 19.1935 6.95864 19.488 6.57625C19.5267 6.52274 19.5841 6.48572 19.6488 6.47251C20.5224 6.19866 21.4669 6.26137 22.2966 6.64833C21.5766 5.87123 20.5639 5.74552 19.7833 5.76134C20.1997 5.62266 20.6405 5.57295 21.0773 5.61542C20.9169 5.48676 20.7321 5.39198 20.534 5.33683C20.3359 5.28168 20.1287 5.2673 19.9249 5.29455C20.3117 4.98688 20.3837 4.21505 20.0558 3.4986C19.9372 4.9271 19.4326 5.03962 19.4326 5.03962C20.1429 3.55047 19.0458 2.12988 19.0458 2.12988C19.1205 2.52757 19.1477 2.93275 19.1267 3.33685C17.5376 3.04837 15.8984 3.38044 14.5469 4.26463C13.1954 5.14883 12.2345 6.51777 11.8624 8.08936C11.4902 9.66094 11.7351 11.3154 12.5466 12.7118C13.358 14.1082 14.6742 15.1401 16.2239 15.5949C17.7736 16.0497 19.4387 15.8927 20.8761 15.1563C22.3134 14.4198 23.4135 13.1601 23.9497 11.6366C24.4858 10.1132 24.4171 8.44209 23.7578 6.96777C23.0984 5.49344 21.8987 4.32822 20.4057 3.71222ZM17.1162 8.51373C16.9351 8.51373 16.6987 8.55504 16.6389 8.73701C16.5791 8.91898 16.6609 9.06403 16.8692 9.2038C16.8359 9.31383 16.819 9.42817 16.8191 9.54312C16.8195 9.78824 16.8958 10.0272 17.0375 10.2272C17.1791 10.4273 17.3792 10.5786 17.6103 10.6604L18.005 10.1128L17.7096 10.7756V10.7844C17.7096 10.8629 17.7408 10.9383 17.7964 10.9939C17.8519 11.0494 17.9273 11.0806 18.0058 11.0806C18.0844 11.0806 18.1598 11.0494 18.2153 10.9939C18.2709 10.9383 18.3021 10.8629 18.3021 10.7844L18.2652 10.6965C18.527 10.6372 18.7609 10.4908 18.9287 10.2813C19.0966 10.0718 19.1883 9.81156 19.1891 9.54312C19.1891 9.42817 19.1723 9.31383 19.139 9.2038C19.3473 9.06403 19.4255 8.90843 19.3693 8.73701C19.313 8.56559 19.0739 8.51548 18.8928 8.51373C18.9829 8.58897 19.0431 8.69386 19.0628 8.80955C19.0824 8.92523 19.0602 9.04414 19.0001 9.1449C18.945 9.23995 18.8689 9.32114 18.7777 9.38225C19.0414 9.02447 19.0519 8.81964 18.6247 8.53482C18.4383 8.41985 18.2236 8.35896 18.0045 8.35896C17.7855 8.35896 17.5708 8.41985 17.3843 8.53482C16.9571 8.81964 16.9712 9.02447 17.2349 9.38225C17.1438 9.32088 17.0678 9.23975 17.0125 9.1449C16.9519 9.04453 16.9291 8.92588 16.9481 8.81022C16.9672 8.69455 17.0267 8.58944 17.1162 8.51373ZM20.6984 13.7196C20.8488 13.5101 20.9882 13.293 21.116 13.0691C22.1472 11.2617 21.5907 9.04205 19.7833 8.0109C19.4892 7.84251 19.1606 7.7433 18.8225 7.7208C19.1113 7.82091 19.381 7.96956 19.6198 8.16034C19.8955 8.37763 20.1254 8.64749 20.2961 8.95427C20.4667 9.26105 20.5748 9.59864 20.6141 9.9475C20.8461 11.9553 19.662 13.8778 17.8291 14.5187C17.8872 14.5187 17.9452 14.5187 18.005 14.5187C18.9612 14.5188 19.897 14.2412 20.6984 13.7196ZM13.032 9.544C13.0312 10.1908 13.1575 10.8315 13.4039 11.4296C13.4593 11.4868 13.5164 11.543 13.5735 11.5984C14.6117 12.5909 16.0244 12.9003 17.2736 12.503C15.1163 12.4309 13.2791 10.7756 13.112 8.64998C13.0586 8.94498 13.0318 9.2442 13.032 9.544ZM19.6541 6.80832L19.5917 6.83206C20.9103 6.89974 22.163 7.55553 22.9023 8.68866C22.7961 8.07842 22.576 7.49362 22.2535 6.9648C21.4382 6.58513 20.5091 6.5292 19.6541 6.80832ZM16.042 14.1117C16.3275 14.1115 16.6128 14.095 16.8964 14.0624C18.9632 13.8216 20.4224 12.0634 20.1833 9.99321C20.1588 9.77702 20.1028 9.56557 20.0172 9.36555C20.6176 12.0845 16.3954 13.9367 14.0605 12.568C14.5786 13.2431 15.2607 13.7745 16.042 14.1117Z" fill="#B3A063"/>
<path d="M35.9842 17.7284C35.9746 17.7086 35.9585 17.6927 35.9385 17.6836C35.9167 17.6735 35.8929 17.6687 35.869 17.6695H32.9391L32.8309 18.6743L33.0823 18.7007L33.0955 18.6277C33.0955 18.6183 33.0982 18.6052 33.1034 18.5882C33.1034 18.5706 33.1131 18.5504 33.1201 18.5284C33.1685 18.3772 33.2722 18.1961 33.492 18.1961H35.2853C35.135 18.4326 34.9601 18.7235 34.7754 19.0347L34.7034 19.1587C34.5275 19.4532 34.357 19.7608 34.1997 20.0483C34.1539 20.1362 34.1117 20.2153 34.0643 20.298L33.9359 20.5388C33.8946 20.6179 33.8551 20.6944 33.8173 20.7691C33.6668 21.0461 33.5375 21.3341 33.4305 21.6306L33.3997 21.7335H34.3341L34.3412 21.6623C34.3606 21.5134 34.3924 21.3664 34.4361 21.2227C34.4854 21.0469 34.5513 20.8509 34.633 20.6285C34.6647 20.5406 34.6981 20.4527 34.7333 20.3648C34.7684 20.2769 34.8053 20.1828 34.8431 20.0905C34.9495 19.8268 35.0664 19.563 35.1895 19.2993C35.2387 19.193 35.2888 19.0883 35.3381 18.9873C35.3873 18.8862 35.4497 18.7622 35.5077 18.6488L35.5956 18.4888L35.6572 18.3754C35.7618 18.1855 35.8567 18.0238 35.9411 17.9025L35.9508 17.8884C35.978 17.858 35.9952 17.8199 36 17.7794C35.9995 17.7613 35.994 17.7436 35.9842 17.7284Z" fill="#B3A063"/>
<path d="M2.50976 17.8867L2.4913 17.8815L2.46405 17.8727C2.37086 17.846 2.27441 17.8323 2.17747 17.8322H0.485249L0 17.8252V17.9298H0.0228555C0.0228555 17.9298 0.336685 17.9579 0.428109 18.0845C0.448876 18.1135 0.459954 18.1482 0.459756 18.1839V21.4127C0.459756 21.5006 0.398221 21.5692 0.27603 21.6184C0.213686 21.6422 0.148787 21.6588 0.0826333 21.6676H0.0597765V21.7722L0.485249 21.7652H1.11994L1.54541 21.7722V21.6676H1.52256C1.52256 21.6676 1.48476 21.6632 1.43465 21.6509C1.32652 21.6254 1.14631 21.563 1.14631 21.4127V18.0151H1.84957C1.95048 18.0164 2.05009 18.0381 2.14239 18.0788C2.2347 18.1196 2.3178 18.1787 2.38669 18.2524C2.44144 18.3108 2.48788 18.3765 2.5247 18.4476C2.56353 18.5241 2.59107 18.6058 2.60646 18.6902C2.61814 18.7508 2.62402 18.8123 2.62404 18.8739C2.62404 18.9038 2.62404 18.9328 2.62404 18.9618C2.61779 19.0643 2.59554 19.1651 2.55811 19.2607C2.53283 19.3231 2.50006 19.3821 2.46053 19.4365C2.43399 19.4717 2.40459 19.5047 2.37262 19.535C2.25178 19.6534 2.10616 19.7435 1.94627 19.7987C1.90935 19.8119 1.87067 19.8251 1.82848 19.8374L1.77046 19.8532C1.69627 19.872 1.62115 19.887 1.54541 19.8981C1.49707 19.9051 1.44608 19.9112 1.39509 19.9156L1.30718 19.9218H1.23422H1.21049V20.0405H1.2351C2.18099 20.0405 2.70667 19.9174 2.99325 19.6282C3.17874 19.4427 3.26488 19.1886 3.26401 18.8256C3.2684 18.3904 2.97743 18.0291 2.50976 17.8867Z" fill="#B3A063"/>
<path d="M13.58 19.032C13.2442 18.5635 12.7062 18.3059 12.0628 18.3059C11.9669 18.3055 11.8711 18.3123 11.7762 18.3261C11.7454 18.3261 11.7147 18.3349 11.6839 18.3411C11.6232 18.3525 11.5626 18.3666 11.5037 18.3833C11.4161 18.4087 11.3303 18.4401 11.247 18.4773C10.9305 18.6128 10.6607 18.8382 10.4712 19.1256C10.2816 19.413 10.1806 19.7497 10.1807 20.094C10.1817 20.3479 10.2411 20.5983 10.3542 20.8256C10.4673 21.053 10.6311 21.2514 10.8329 21.4055C10.9984 21.5346 11.1848 21.6343 11.3841 21.7C11.6029 21.7729 11.8322 21.8094 12.0628 21.8082C12.3606 21.808 12.6544 21.7385 12.9207 21.6051C13.0241 21.5528 13.1224 21.491 13.2144 21.4205C13.2606 21.386 13.3049 21.349 13.3471 21.3097C13.4102 21.2507 13.469 21.1873 13.5229 21.1198C13.5594 21.0727 13.5935 21.0237 13.6249 20.973C13.6407 20.9484 13.6556 20.9238 13.6706 20.8992C13.8225 20.6373 13.9017 20.3396 13.9 20.0368C13.9014 19.7038 13.8065 19.3774 13.6266 19.0971C13.6117 19.0769 13.5959 19.054 13.58 19.032ZM12.5524 21.5163C12.4857 21.5446 12.4161 21.5659 12.3449 21.5796C12.3092 21.5867 12.2731 21.5917 12.2368 21.5945C12.2017 21.5945 12.1647 21.5998 12.1278 21.5998C11.2241 21.5998 10.8092 20.7348 10.8092 19.9296C10.8049 19.6991 10.8425 19.4698 10.92 19.2527C10.96 19.1462 11.0144 19.0456 11.0817 18.9538C11.094 18.9371 11.1072 18.9204 11.1204 18.9046C11.2254 18.7796 11.3568 18.6795 11.5052 18.6116C11.6536 18.5436 11.8152 18.5095 11.9784 18.5116C12.1525 18.5056 12.3255 18.5404 12.4837 18.6134C12.6419 18.6864 12.7807 18.7954 12.8891 18.9318C12.9337 18.9872 12.974 19.046 13.0095 19.1076C13.058 19.1919 13.0992 19.2801 13.1326 19.3714C13.1669 19.4656 13.1942 19.5623 13.2144 19.6606C13.251 19.8364 13.2693 20.0155 13.2689 20.1951C13.2767 20.4769 13.2164 20.7564 13.093 21.01C13.0834 21.0293 13.0728 21.0478 13.0623 21.0662C13.0388 21.1054 13.0133 21.1432 12.9858 21.1796C12.97 21.1995 12.9541 21.2189 12.9383 21.2376C12.9181 21.2605 12.8979 21.2825 12.8768 21.3027C12.849 21.3293 12.8196 21.3543 12.7889 21.3774C12.7167 21.4342 12.6372 21.481 12.5524 21.5163Z" fill="#B3A063"/>
<path d="M22.7021 18.3859L22.2204 18.3797V18.4817H22.2432C22.2781 18.4848 22.3127 18.4898 22.347 18.4966C22.47 18.5221 22.6766 18.5845 22.6766 18.7252V20.7181L20.1607 18.2329V21.3897C20.1607 21.5936 19.7317 21.6332 19.7273 21.6341H19.7045V21.7369L20.1862 21.7299H20.4851L20.9677 21.7369V21.6341H20.9448C20.9448 21.6341 20.5106 21.5936 20.5106 21.3897V19.4012L22.1448 20.9528L23.0388 21.874V18.7278C23.0406 18.6995 23.0496 18.6721 23.065 18.6482C23.0804 18.6244 23.1016 18.6049 23.1267 18.5916C23.1479 18.5775 23.1703 18.5651 23.1935 18.5547L23.2269 18.5406L23.2814 18.5221L23.3043 18.516C23.3236 18.5102 23.3433 18.5055 23.3632 18.5019C23.4265 18.4887 23.4748 18.4843 23.4748 18.4834H23.4977V18.3797L23.0221 18.3859H22.7021Z" fill="#B3A063"/>
<path d="M31.4331 21.6176C31.3459 21.6111 31.2613 21.5854 31.1853 21.5422C31.1093 21.499 31.0438 21.4395 30.9936 21.3679L29.9343 19.928L30.86 18.7412C31.0551 18.5206 31.4059 18.4775 31.4094 18.4775H31.4323V18.3738L31.0762 18.3808H30.7633L30.2358 18.3738V18.4784H30.2596C30.2596 18.4784 30.453 18.4863 30.511 18.5786C30.5221 18.5985 30.5279 18.6209 30.5279 18.6437C30.5279 18.6664 30.5221 18.6888 30.511 18.7087L29.7418 19.6871L29.021 18.7122C29.0095 18.6918 29.0035 18.6688 29.0035 18.6454C29.0035 18.622 29.0095 18.599 29.021 18.5786C29.079 18.4907 29.2697 18.4784 29.2724 18.4784H29.2961V18.3738L28.7687 18.3808H28.1164L27.8395 18.3738V18.4705L27.8553 18.4775C27.8665 18.4807 27.878 18.4828 27.8896 18.4837C27.9767 18.4904 28.0612 18.5163 28.1372 18.5594C28.2132 18.6026 28.2787 18.662 28.3291 18.7333L29.3462 20.1108L29.3814 20.1557L28.4267 21.3679C28.2324 21.5868 27.8817 21.6316 27.8782 21.6316H27.8562V21.7336L28.2078 21.7266H28.4759L29.0526 21.7336V21.6299H29.028C28.9602 21.6262 28.8938 21.6088 28.8328 21.5789C28.8083 21.5662 28.7876 21.547 28.7731 21.5235C28.7692 21.5157 28.7663 21.5074 28.7643 21.4989C28.7629 21.4896 28.7629 21.4801 28.7643 21.4708C28.7692 21.4484 28.7792 21.4273 28.7933 21.4092L29.5669 20.4036L30.2991 21.389C30.3106 21.4092 30.3166 21.4321 30.3166 21.4554C30.3166 21.4786 30.3106 21.5015 30.2991 21.5217C30.242 21.6141 30.0504 21.6228 30.0477 21.6228H30.024V21.7266L30.5514 21.7195H31.2037L31.4806 21.7275V21.6299L31.4648 21.6237C31.4545 21.6205 31.4439 21.6184 31.4331 21.6176Z" fill="#B3A063"/>
<path d="M8.14111 18.4106L8.13496 18.3859H7.58026L7.16974 18.3789V18.4818H7.19171C7.30445 18.4937 7.41177 18.5362 7.50203 18.6048C7.51874 18.6203 7.53206 18.6391 7.54114 18.6599C7.55022 18.6808 7.55486 18.7034 7.55477 18.7261V19.861H5.82299V18.7279C5.82311 18.7052 5.82785 18.6827 5.83691 18.6618C5.84598 18.641 5.85919 18.6222 5.87574 18.6066C5.94023 18.5525 6.01734 18.5156 6.0999 18.4993C6.14913 18.4879 6.18781 18.4844 6.18781 18.4835H6.20979V18.3789L5.80014 18.3859H5.2428L4.83228 18.3789V18.4818H4.85513C4.85513 18.4818 4.89205 18.4818 4.94304 18.4976C5.02533 18.5139 5.10215 18.5508 5.16632 18.6048C5.18304 18.6203 5.19636 18.6391 5.20544 18.6599C5.21452 18.6808 5.21916 18.7034 5.21907 18.7261V21.388C5.21907 21.5919 4.86041 21.6324 4.85689 21.6324H4.83403V21.7343L5.24456 21.7273H5.79926L6.20979 21.7343V21.6324H6.18781C6.18781 21.6324 5.82475 21.5919 5.82475 21.388V20.1265H7.55653V21.3897C7.55351 21.4308 7.53836 21.47 7.513 21.5024C7.48764 21.5348 7.45323 21.5589 7.41412 21.5717C7.34416 21.6036 7.26976 21.6246 7.19347 21.6341H7.17149V21.7361L7.58202 21.7291H8.13672L8.54725 21.7361V21.6341H8.52527C8.47359 21.6276 8.42265 21.6162 8.37319 21.5998C8.27737 21.5673 8.16221 21.5049 8.16221 21.3897V18.7279C8.16282 18.7002 8.16998 18.6729 8.18312 18.6485C8.19626 18.624 8.215 18.6031 8.23781 18.5872C8.25314 18.5751 8.26963 18.5645 8.28704 18.5556L8.31957 18.5389C8.35828 18.5225 8.39827 18.5093 8.43912 18.4993C8.48835 18.4879 8.52703 18.4844 8.52703 18.4835H8.54901V18.3789L8.14463 18.3859L8.14111 18.4106Z" fill="#B3A063"/>
<path d="M18.145 20.9678C18.1106 21.0668 18.062 21.1604 18.0009 21.2456C17.9226 21.3537 17.7952 21.482 17.6281 21.482H16.4801V20.1406H17.1596C17.1821 20.1392 17.2047 20.1392 17.2273 20.1406C17.2644 20.1456 17.3004 20.1569 17.3337 20.174C17.3477 20.1811 17.3609 20.1897 17.3732 20.1995C17.5183 20.3129 17.4919 20.5449 17.4919 20.5511V20.5792H17.6633L17.6572 20.1151V19.8856L17.6633 19.4206H17.4884V19.4487C17.4946 19.519 17.4868 19.5898 17.4655 19.6571C17.461 19.6703 17.4557 19.6832 17.4497 19.6958C17.4372 19.7213 17.4212 19.7449 17.4022 19.7661C17.3817 19.7889 17.3573 19.8079 17.3301 19.8223C17.2968 19.8392 17.2608 19.8502 17.2238 19.8549C17.2014 19.8585 17.1788 19.8602 17.1561 19.8601H16.4766V18.6365H17.5736C17.601 18.6385 17.6276 18.6459 17.6521 18.6583C17.6765 18.6706 17.6983 18.6877 17.7161 18.7086C17.801 18.8003 17.8635 18.9104 17.8989 19.0303C17.8989 19.0417 17.9051 19.0523 17.9068 19.0637C17.9086 19.0751 17.9112 19.0839 17.913 19.0927V19.1165L18.051 19.1006L17.9631 18.3859H15.9008L15.4902 18.3789V18.4818H15.5122C15.5122 18.4818 15.5491 18.4818 15.6001 18.4976C15.6827 18.5137 15.7599 18.5506 15.8243 18.6048C15.8408 18.6204 15.854 18.6392 15.8631 18.6601C15.8722 18.6809 15.8769 18.7034 15.877 18.7261V21.388C15.877 21.5919 15.5184 21.6324 15.514 21.6324H15.492V21.7343L15.9025 21.7273H18.0712L18.2918 20.981L18.1547 20.9405L18.145 20.9678Z" fill="#B3A063"/>
<path d="M25.3938 18.3859L24.9833 18.3789V18.4818H25.0061C25.0061 18.4818 25.0431 18.4818 25.094 18.4976C25.1763 18.5139 25.2532 18.5508 25.3173 18.6048C25.334 18.6203 25.3474 18.6391 25.3564 18.6599C25.3655 18.6808 25.3702 18.7034 25.3701 18.7261V21.388C25.3701 21.5919 25.0114 21.6324 25.0079 21.6324H24.985V21.7343L25.3956 21.7273H25.9494L26.3599 21.7343V21.6324H26.3379C26.3379 21.6324 25.9749 21.5919 25.9749 21.388V18.7279C25.975 18.7052 25.9797 18.6827 25.9888 18.6618C25.9979 18.641 26.0111 18.6222 26.0276 18.6066C26.0921 18.5525 26.1692 18.5156 26.2518 18.4993C26.301 18.4879 26.3397 18.4844 26.3397 18.4835H26.3617V18.3789L25.9511 18.3859H25.3938Z" fill="#B3A063"/>
</g>
<defs>
<clipPath id="clip0_777_20717">
<rect width="36" height="24" fill="white"/>
</clipPath>
</defs>
</svg>
