<svg width="36" height="24" viewBox="0 0 36 24" fill="none" xmlns="http://www.w3.org/2000/svg">
<g clip-path="url(#clip0_1_18816)">
<path d="M9.5408 6.38965H10.0244L11.8535 7.53278H11.3434L9.5408 6.38965Z" fill="#FFA200"/>
<path d="M7.65021 17.6098H8.13384L9.96286 16.4667H9.45285L7.65021 17.6098Z" fill="#FDE43B"/>
<path d="M6.35021 15.447L7.50952 11.9473L8.55395 15.447H11.0754H11.0995C11.0995 15.447 10.9021 15.9937 10.7757 16.3439C10.5257 16.4022 10.3831 16.4274 10.128 16.4583C9.86252 16.4904 9.44443 16.5022 9.44443 16.5022H2.26657C1.72689 16.5022 1.39408 16.5022 0.863391 16.3352C0.555999 16.2384 0.359682 16.1065 0.206771 15.9219C0.0166078 15.6922 0 15.447 0 15.447H6.35021Z" fill="url(#paint0_linear_1_18816)"/>
<path d="M2.20361 8.22756C2.39666 8.0657 2.52265 7.99148 2.7523 7.88462C2.98599 7.77587 3.38194 7.68237 3.38194 7.68237L3.07611 8.58809L2.59894 10.3639L2.28456 11.5339L1.20519 15.4469L0 15.447C0 15.447 5.76675e-06 14.6932 0.0628509 14.4269C0.402397 12.9879 0.485621 12.8617 0.863391 11.4723C1.08385 10.6615 1.22319 10.2061 1.45704 9.41466C1.66927 8.69646 1.78107 8.58186 2.20361 8.22756Z" fill="url(#paint1_linear_1_18816)"/>
<path d="M10.8295 8.58772L9.86615 12.0699L8.62582 8.58772H3.06713L3.38194 7.68237C3.38194 7.68237 3.66021 7.62524 3.84068 7.60286C4.01894 7.58075 4.29941 7.5652 4.29941 7.5652L11.891 7.53003C12.4307 7.53003 12.7635 7.53251 13.2942 7.69959C13.6016 7.79636 13.7979 7.92821 13.9508 8.11287C14.141 8.34252 14.1397 8.58772 14.1397 8.58772H12.9475H10.8295Z" fill="url(#paint2_linear_1_18816)"/>
<path d="M11.954 15.7894C11.7609 15.9513 11.6349 16.0255 11.4053 16.1324C11.1716 16.2411 11.0284 16.2896 10.7757 16.3439C10.8823 16.0249 11.0425 15.5457 11.0754 15.447C11.0794 15.4352 11.0815 15.4289 11.0815 15.4289L11.873 12.4831L12.9475 8.58772L12.9524 8.57007H14.1397C14.1397 8.57007 14.1378 9.10281 14.0948 9.44061C14.0153 10.0647 12.9372 14.1097 12.7005 14.6023C12.4639 15.0949 12.3765 15.4351 11.954 15.7894Z" fill="url(#paint3_linear_1_18816)"/>
<path d="M9.5408 6.38965L11.3484 7.5353L7.6972 7.56356L9.5408 6.38965Z" fill="url(#paint4_linear_1_18816)"/>
<path d="M7.65021 17.6098L5.80829 16.4363H9.50062L7.65021 17.6098Z" fill="url(#paint5_linear_1_18816)"/>
<path d="M5.27854 8.58765H6.13436L4.29173 15.4465H3.43591L4.56977 11.2259L4.80128 10.3641L5.27854 8.58765Z" fill="url(#paint6_linear_1_18816)"/>
<path d="M1.97874 10.3641L2.59894 10.3639L4.80128 10.3641H5.07295V11.2259H4.56977H1.97874V10.3641Z" fill="url(#paint7_linear_1_18816)"/>
<path d="M8.65266 15.447L7.50952 11.9473L8.21299 15.447H8.65266Z" fill="#FFF348"/>
<path d="M11.0621 8.58765L9.86615 12.0699L10.6136 8.58765H11.0621Z" fill="#FFA200"/>
<path d="M13.8711 9.11573L13.9052 8.86892C13.9375 8.63595 13.8895 8.39891 13.7693 8.19677C13.624 7.9526 13.3849 7.77875 13.1078 7.71586L12.3019 7.53296L12.5821 7.53296C12.653 7.53296 12.7238 7.54055 12.7931 7.55561L13.3673 7.68023C13.6601 7.74379 13.9177 7.91658 14.0876 8.16343C14.2229 8.35987 14.2953 8.59276 14.2953 8.83125V9.00202C14.2953 9.15295 14.2755 9.30322 14.2364 9.44902L12.7892 14.8502C12.6713 15.29 12.4039 15.675 12.033 15.9389C11.8445 16.073 11.6337 16.1727 11.4103 16.2332L11.2538 16.2757C10.8923 16.3737 10.5221 16.436 10.1485 16.4618L9.94528 16.4758L11.1832 16.0311C11.3363 15.9761 11.4816 15.9014 11.6154 15.8089C11.9816 15.5558 12.2459 15.1809 12.3611 14.7509L13.8711 9.11573Z" fill="#FFF348"/>
<path d="M1.39814 15.4463H0.96727L2.12143 11.2254H2.5149L1.39814 15.4463Z" fill="url(#paint8_linear_1_18816)"/>
<path d="M4.54617 15.4465H4.11529L5.94431 8.58765H6.34881L4.54617 15.4465Z" fill="#FFF349"/>
<path d="M4.54617 15.4465H4.11529L5.94431 8.58765H6.34881L4.54617 15.4465Z" fill="url(#paint9_linear_1_18816)"/>
<path d="M2.76111 10.3639H2.59894H2.32642L2.80731 8.58765H3.20078L2.76111 10.3639Z" fill="#FFAA06"/>
<path d="M2.59894 10.3639L4.80128 10.3641L5.27854 8.58765H3.20078L2.76111 10.3639H2.59894Z" fill="black"/>
<path d="M6.35021 15.447L7.50952 11.9473L8.65266 15.447H11.0754L11.0815 15.4289L11.873 12.4831L12.9475 8.58772L11.0621 8.58765L9.86615 12.0699L8.62582 8.58772L6.34881 8.58765L4.54617 15.4465H4.29173H4.11529H3.43591L4.56977 11.2259L2.5149 11.2254L1.39814 15.4463L1.20519 15.4469L0 15.447H6.35021Z" fill="black"/>
<path d="M16.704 8.61981C16.704 8.61981 16.0258 8.72487 15.8315 8.8013C15.3221 9.00508 14.94 9.45087 14.7266 10.0909C14.663 10.2819 13.8414 13.3419 13.7332 13.7972C13.6186 14.2748 13.6186 14.6378 13.7332 14.8766C13.8669 15.1473 14.0866 15.3001 14.4815 15.3925C14.6534 15.4339 14.9814 15.4466 16.3633 15.4562C18.5094 15.4753 18.8564 15.4403 19.3977 15.1569C19.7767 14.9562 20.1174 14.5073 20.3052 13.9501C20.4009 13.673 21.2637 10.438 21.3337 10.1004C21.5057 9.27256 21.2797 8.85225 20.56 8.66119C20.3849 8.61662 20.1237 8.60706 18.5922 8.60387C17.6211 8.60069 16.704 8.61981 16.704 8.61981ZM19.1176 10.4571C19.0731 10.6449 18.3342 13.3865 18.3024 13.482L18.2674 13.5871H17.0925C16.4461 13.5871 15.9175 13.5871 15.9175 13.5871C15.9175 13.568 16.6499 10.8296 16.7326 10.5367L16.7804 10.3711H17.9618H19.1399L19.1176 10.4571Z" fill="black"/>
<path d="M22.444 8.58789C22.3675 8.81715 21.0429 13.8736 21.011 14.0551C20.8932 14.7046 21.0334 15.0963 21.444 15.2746C21.8422 15.4434 21.9153 15.4497 23.9246 15.4497C25.6026 15.4497 25.8159 15.4434 26.0739 15.3924C26.8412 15.2364 27.252 14.8893 27.5577 14.1442C27.6277 13.9755 27.962 12.7973 28.3792 11.2403C28.7677 9.80106 29.0828 8.59744 29.0828 8.58789C29.0828 8.58789 28.5988 8.58789 28.0067 8.58789H26.9304L26.2649 11.0556C25.8987 12.4121 25.5771 13.5679 25.5644 13.587H24.4181H23.837H23.2558L23.9278 11.1193C24.294 9.76921 24.5933 8.61017 24.5933 8.58789C24.5933 8.58789 24.3576 8.58789 23.5265 8.58789C22.6987 8.58789 22.444 8.58789 22.444 8.58789Z" fill="black"/>
<path d="M29.6317 8.58789C29.6254 8.61017 29.5235 9.02411 29.4089 9.46353C29.2942 9.89975 29.1637 10.3424 29.1541 10.371C29.1541 10.371 29.2306 10.371 30.2209 10.371H31.2748L31.2525 10.4411C31.2397 10.4825 30.9372 11.6033 30.5807 12.9343C30.224 14.2652 29.88 15.437 29.8705 15.4657H30.9818H32.0676C32.0771 15.4274 32.402 14.2111 32.765 12.8547L33.432 10.3774H34.4812H35.5384C35.5479 10.3487 35.8854 9.02411 36 8.58789C36 8.58789 35.3632 8.58789 32.8286 8.58789C30.31 8.58789 29.6317 8.58789 29.6317 8.58789Z" fill="black"/>
</g>
<defs>
<linearGradient id="paint0_linear_1_18816" x1="7.84834" y1="24.9094" x2="17.2922" y2="-3.18208" gradientUnits="userSpaceOnUse">
<stop offset="0.380208" stop-color="#FFA200"/>
<stop offset="1" stop-color="#FDE43B"/>
</linearGradient>
<linearGradient id="paint1_linear_1_18816" x1="25.7581" y1="23.4168" x2="26.8563" y2="5.14086" gradientUnits="userSpaceOnUse">
<stop offset="0.380208" stop-color="#FFA200"/>
<stop offset="1" stop-color="#FDE43B"/>
</linearGradient>
<linearGradient id="paint2_linear_1_18816" x1="3.90758" y1="35.8869" x2="13.3896" y2="7.70711" gradientUnits="userSpaceOnUse">
<stop offset="0.380208" stop-color="#FFA200"/>
<stop offset="1" stop-color="#FDE43B"/>
</linearGradient>
<linearGradient id="paint3_linear_1_18816" x1="-19.8952" y1="22.1156" x2="-18.8052" y2="3.85949" gradientUnits="userSpaceOnUse">
<stop offset="0.380208" stop-color="#FFA200"/>
<stop offset="1" stop-color="#FDE43B"/>
</linearGradient>
<linearGradient id="paint4_linear_1_18816" x1="-6.2778" y1="131.366" x2="37.6845" y2="28.9121" gradientUnits="userSpaceOnUse">
<stop offset="0.380208" stop-color="#FFA200"/>
<stop offset="1" stop-color="#FDE43B"/>
</linearGradient>
<linearGradient id="paint5_linear_1_18816" x1="1.10535" y1="35.3435" x2="45.4072" y2="-66.7505" gradientUnits="userSpaceOnUse">
<stop offset="0.380208" stop-color="#FFA200"/>
<stop offset="1" stop-color="#FDE43B"/>
</linearGradient>
<linearGradient id="paint6_linear_1_18816" x1="14.0804" y1="24.1837" x2="15.2041" y2="3.4806" gradientUnits="userSpaceOnUse">
<stop offset="0.380208" stop-color="#FFA200"/>
<stop offset="1" stop-color="#FDE43B"/>
</linearGradient>
<linearGradient id="paint7_linear_1_18816" x1="19.0116" y1="124.888" x2="84.7473" y2="-7.81352" gradientUnits="userSpaceOnUse">
<stop offset="0.380208" stop-color="#FFA200"/>
<stop offset="1" stop-color="#FDE43B"/>
</linearGradient>
<linearGradient id="paint8_linear_1_18816" x1="7.14763" y1="6.38965" x2="6.53744" y2="17.9547" gradientUnits="userSpaceOnUse">
<stop stop-color="#FFAA06"/>
<stop offset="1" stop-color="#FFF348"/>
</linearGradient>
<linearGradient id="paint9_linear_1_18816" x1="9.17373" y1="10.7051" x2="8.08205" y2="26.0629" gradientUnits="userSpaceOnUse">
<stop stop-color="#FFAB00"/>
<stop offset="1" stop-color="#FFE600" stop-opacity="0"/>
</linearGradient>
<clipPath id="clip0_1_18816">
<rect width="36" height="24" fill="white"/>
</clipPath>
</defs>
</svg>
