<svg width="36" height="24" viewBox="0 0 36 24" fill="none" xmlns="http://www.w3.org/2000/svg">
<path d="M11.7477 13.6982L16.2882 4.97748L18.3783 3.5L22.8107 14.0586L17.5495 7.5L11.7477 13.6982Z" fill="#101419"/>
<path d="M15.604 12.0766L17.4418 13.6261L24.2527 7.31982L17.55 15.0315L15.604 12.0766Z" fill="#7CD6FB"/>
<path fill-rule="evenodd" clip-rule="evenodd" d="M7.20721 17.5181L7.6036 16.8334H6.73874L6.34234 17.5181L5.40541 19.1757L4.46847 17.5181L4.07207 16.8334H3.20721L3.6036 17.5181L5.40541 20.6532L7.20721 17.5181ZM3.53153 20.6532H4.3964L4 19.9685L2.1982 16.8334L0.396397 19.9685L0 20.6532H0.864865L1.26126 19.9685L2.1982 18.3109L3.13514 19.9685L3.53153 20.6532ZM10.8468 20.6532H9.98198L9.58559 19.9685L8.64865 18.3109L7.71171 19.9685L7.31532 20.6532H6.45045L6.84685 19.9685L8.64865 16.8334L10.4505 19.9685L10.8468 20.6532ZM14.3063 17.5181V16.8334H9.98198V17.5181H11.7477V20.6532H12.5045V17.5181H14.3063ZM17.8739 20.6532H17.009L16.6126 19.9685L15.6757 18.3109L14.7387 19.9685L14.3423 20.6532H13.4775L13.8739 19.9685L15.6757 16.8334L17.4775 19.9685L17.8739 20.6532ZM22.1622 20.6532L21.7658 19.9685L21.1532 18.8874C21.2613 18.8874 21.3694 18.8514 21.4775 18.8154C21.8739 18.6352 22.1622 18.2748 22.1622 17.8784C22.1622 17.5901 22.018 17.3379 21.8378 17.1577C21.6216 16.9775 21.3333 16.8694 21.009 16.8694H18.2703V20.6892H19.027V18.9235H19.7838C20.0721 18.9235 20.2883 19.0676 20.4324 19.2478L20.4685 19.2838L20.9009 20.0045L21.2973 20.6892L22.1622 20.6532ZM21.1532 18.1667C21.1171 18.2027 21.045 18.2027 21.009 18.2027H19.0631V17.482H21.009C21.1532 17.482 21.2252 17.5541 21.2973 17.5901C21.3333 17.6262 21.4054 17.6982 21.4054 17.8424C21.3694 17.9865 21.2973 18.1307 21.1532 18.1667Z" fill="#101419"/>
<path fill-rule="evenodd" clip-rule="evenodd" d="M30.1622 19.7883V16.8334H29.8379V19.7883C29.8379 20.0766 29.6217 20.2928 29.3694 20.2928H25.91C25.6577 20.2928 25.4415 20.0766 25.4415 19.7883V16.8334H25.1172V19.7883C25.1172 20.2568 25.4775 20.6532 25.91 20.6532H29.3694C29.8019 20.6532 30.1622 20.2928 30.1622 19.7883ZM36.0001 20.6532L33.7658 18.7433L36.0001 16.8334H35.4956L33.5136 18.5271L31.5316 16.8334H31.0271L33.2613 18.7433L31.0271 20.6532H31.5316L33.5136 18.9595L35.4956 20.6532H36.0001Z" fill="#7CD6FB"/>
</svg>
