<svg width="36" height="24" viewBox="0 0 36 24" fill="none" xmlns="http://www.w3.org/2000/svg">
<g clip-path="url(#clip0_969_25598)">
<path d="M12.6453 21.3701C12.3662 21.3701 12.1536 21.2967 12.0073 21.1498C11.8628 21.003 11.7905 20.7768 11.7905 20.4712C11.7905 20.272 11.8241 20.1057 11.8914 19.9723C11.9586 19.839 12.0578 19.7394 12.1889 19.6736C12.32 19.606 12.4797 19.5723 12.6679 19.5723C12.7856 19.5723 12.8923 19.5849 12.9881 19.6102C13.0839 19.6356 13.1663 19.6744 13.2352 19.7267C13.3058 19.7774 13.3596 19.8415 13.3965 19.9192C13.4352 19.9968 13.4546 20.0889 13.4546 20.1952H13.21C13.21 20.1209 13.1965 20.0576 13.1696 20.0053C13.1427 19.9513 13.1041 19.9073 13.0537 19.8736C13.0049 19.8399 12.9478 19.8162 12.8822 19.8027C12.8166 19.7875 12.7469 19.7799 12.673 19.7799C12.5721 19.7799 12.4822 19.7926 12.4032 19.8179C12.3242 19.8432 12.2578 19.8829 12.204 19.9369C12.1502 19.9909 12.1091 20.0601 12.0805 20.1445C12.0519 20.2289 12.0376 20.3294 12.0376 20.4459V20.499C12.0376 20.656 12.0612 20.7835 12.1082 20.8814C12.1569 20.9793 12.2267 21.0511 12.3174 21.0966C12.4082 21.1406 12.5175 21.1625 12.6453 21.1625C12.7746 21.1625 12.8814 21.1448 12.9654 21.1093C13.0495 21.0722 13.1116 21.0165 13.152 20.9422C13.194 20.868 13.215 20.7742 13.215 20.6611V20.6307H12.6049V20.4256H13.457V21.3397H13.2755L13.2503 21.1194C13.205 21.1785 13.1511 21.2266 13.089 21.2638C13.0268 21.3009 12.9578 21.3279 12.8822 21.3448C12.8083 21.3617 12.7293 21.3701 12.6453 21.3701ZM14.43 21.3397L15.1133 19.6027H15.4284L16.1142 21.3397H15.8545L15.6855 20.9093H14.8434L14.6771 21.3397H14.43ZM14.9216 20.7042H15.6049L15.3956 20.1598C15.3906 20.1445 15.383 20.1235 15.3729 20.0965C15.3629 20.0694 15.3519 20.0399 15.3402 20.0078C15.3284 19.974 15.3167 19.9403 15.3048 19.9065C15.2931 19.871 15.2822 19.839 15.2721 19.8103H15.2569C15.2452 19.8441 15.2318 19.8829 15.2166 19.9268C15.2015 19.9707 15.1864 20.0137 15.1712 20.0559C15.1561 20.0965 15.1435 20.1311 15.1334 20.1598L14.9216 20.7042ZM17.1041 21.3397V19.6027H17.4747L17.8681 20.7295C17.8781 20.7599 17.8882 20.7936 17.8983 20.8308C17.9101 20.8662 17.9202 20.9 17.9286 20.9321C17.9387 20.9641 17.9462 20.992 17.9512 21.0157H17.9689C17.9739 20.9903 17.9807 20.9616 17.989 20.9295C17.9974 20.8958 18.0067 20.8612 18.0168 20.8257C18.0269 20.7903 18.0361 20.7582 18.0445 20.7295L18.4379 19.6027H18.8059V21.3397H18.5664V20.3218C18.5664 20.2695 18.5672 20.2129 18.569 20.1521C18.5706 20.0897 18.5723 20.0331 18.574 19.9825C18.5756 19.9301 18.5765 19.893 18.5765 19.871H18.5563C18.5513 19.893 18.5429 19.9243 18.5311 19.9648C18.5193 20.0036 18.5067 20.0449 18.4933 20.0889C18.4815 20.1311 18.4706 20.169 18.4605 20.2028L18.0546 21.3397H17.8479L17.4419 20.2028C17.4319 20.1741 17.421 20.1412 17.4092 20.104C17.399 20.0652 17.3882 20.0255 17.3764 19.985C17.3663 19.9445 17.3562 19.9066 17.3462 19.871H17.3285C17.3302 19.9082 17.331 19.9546 17.331 20.0103C17.3327 20.0644 17.3336 20.1192 17.3336 20.1749C17.3352 20.2289 17.3361 20.2779 17.3361 20.3218V21.3397H17.1041ZM19.9951 21.3397V19.6027H21.3264V19.8103H20.2346V20.3471H21.2153V20.5548H20.2346V21.1321H21.3415V21.3397H19.9951ZM23.0931 21.3701C22.9991 21.3701 22.9082 21.3609 22.8209 21.3423C22.7351 21.3237 22.6586 21.2942 22.5914 21.2537C22.524 21.2115 22.4703 21.1574 22.43 21.0916C22.3914 21.0258 22.372 20.9447 22.372 20.8485C22.372 20.84 22.372 20.8316 22.372 20.8232C22.3737 20.8147 22.3746 20.8063 22.3746 20.7979H22.6166C22.6166 20.803 22.6159 20.8113 22.6141 20.8232C22.6141 20.8333 22.6141 20.8426 22.6141 20.851C22.6141 20.9186 22.6343 20.976 22.6746 21.0232C22.7149 21.0705 22.7703 21.1059 22.8411 21.1296C22.9132 21.1515 22.9948 21.1625 23.0855 21.1625C23.126 21.1625 23.1679 21.16 23.2116 21.1549C23.257 21.1498 23.2999 21.1414 23.3402 21.1296C23.3821 21.1161 23.4191 21.0992 23.4512 21.0789C23.4848 21.057 23.5109 21.0308 23.5292 21.0004C23.5495 20.9684 23.5596 20.9295 23.5596 20.884C23.5596 20.8266 23.5428 20.7793 23.509 20.7422C23.4771 20.7033 23.4344 20.6721 23.3805 20.6485C23.3267 20.6232 23.2653 20.6012 23.1965 20.5826C23.1293 20.5624 23.0595 20.5429 22.9873 20.5243C22.9149 20.5059 22.8444 20.4847 22.7754 20.4611C22.7082 20.4357 22.6478 20.4054 22.5938 20.3699C22.5401 20.3328 22.4964 20.2872 22.4628 20.2332C22.4309 20.1791 22.4149 20.1133 22.4149 20.0357C22.4149 19.9631 22.4293 19.8981 22.4578 19.8407C22.488 19.7833 22.5317 19.7352 22.5888 19.6964C22.6478 19.6559 22.72 19.6255 22.8058 19.6052C22.8914 19.5833 22.9898 19.5723 23.1006 19.5723C23.1915 19.5723 23.2754 19.5824 23.3528 19.6027C23.4318 19.6212 23.5008 19.6508 23.5596 19.6913C23.62 19.7301 23.6671 19.7799 23.7006 19.8407C23.7344 19.9014 23.7511 19.9749 23.7511 20.061V20.0914H23.5141V20.0534C23.5141 19.996 23.4965 19.9471 23.4613 19.9065C23.426 19.866 23.3771 19.8348 23.315 19.8128C23.2545 19.7909 23.1855 19.7799 23.1082 19.7799C23.0073 19.7799 22.9233 19.79 22.8562 19.8103C22.7888 19.8289 22.7384 19.8567 22.7048 19.8939C22.6729 19.9294 22.6569 19.9699 22.6569 20.0154C22.6569 20.0677 22.6729 20.1116 22.7048 20.1471C22.7384 20.1825 22.7821 20.2121 22.836 20.2357C22.8897 20.2577 22.9511 20.2779 23.02 20.2965C23.0888 20.3151 23.1586 20.3345 23.2291 20.3547C23.3015 20.3733 23.3713 20.3952 23.4385 20.4206C23.5073 20.4442 23.5687 20.4746 23.6225 20.5117C23.6782 20.5472 23.7218 20.5928 23.7536 20.6485C23.7857 20.7025 23.8017 20.7691 23.8017 20.8485C23.8017 20.9717 23.7714 21.0722 23.7107 21.1498C23.6503 21.2258 23.567 21.2815 23.4613 21.317C23.3553 21.3524 23.2327 21.3701 23.0931 21.3701Z" fill="black"/>
<path fill-rule="evenodd" clip-rule="evenodd" d="M0 15.0371V18.9456H2.00815C2.23885 18.9456 2.44306 18.9095 2.62079 18.8373C2.79855 18.7652 2.94036 18.6512 3.04626 18.4955C3.15217 18.3398 3.20508 18.1346 3.20508 17.8801C3.20508 17.6902 3.17105 17.5307 3.103 17.4016C3.03869 17.2686 2.9517 17.1623 2.84205 17.0825C2.73237 17.0027 2.60945 16.9477 2.47332 16.9173V16.8945C2.59434 16.8527 2.70211 16.7901 2.79665 16.7065C2.89119 16.6229 2.96497 16.5185 3.01791 16.3931C3.07085 16.2678 3.09733 16.131 3.09733 15.9829C3.09733 15.7892 3.05193 15.6221 2.96117 15.4815C2.87418 15.341 2.74941 15.2327 2.58677 15.1568C2.42415 15.077 2.23128 15.0371 2.00815 15.0371H0ZM2.00248 18.4784H0.538911V17.1736H1.95711C2.11215 17.1736 2.24072 17.1984 2.34285 17.2477C2.44496 17.2933 2.52248 17.3655 2.57542 17.4643C2.62839 17.5592 2.65485 17.6788 2.65485 17.8232C2.65485 18.0587 2.59434 18.2277 2.47332 18.3302C2.3523 18.429 2.19535 18.4784 2.00248 18.4784ZM1.90604 16.7122H0.538911V15.5043H1.94576C2.12729 15.5043 2.27287 15.5537 2.38255 15.6525C2.49223 15.7474 2.54707 15.8974 2.54707 16.1025C2.54707 16.2203 2.51871 16.3267 2.46197 16.4216C2.40903 16.5127 2.33528 16.5849 2.24072 16.6381C2.14618 16.6875 2.03463 16.7122 1.90604 16.7122ZM4.68706 18.8544C4.92533 18.9608 5.20894 19.0139 5.53797 19.0139C5.8708 19.0139 6.15631 18.9608 6.39453 18.8544C6.6366 18.7481 6.82192 18.581 6.95051 18.353C7.07908 18.1213 7.14339 17.8251 7.14339 17.4643V15.0371H6.61014V17.5212C6.61014 17.8631 6.51558 18.1194 6.32648 18.2903C6.1374 18.4613 5.87455 18.5468 5.53797 18.5468C5.20519 18.5468 4.94611 18.4613 4.76081 18.2903C4.57928 18.1194 4.48852 17.8631 4.48852 17.5212V15.0371H3.9496V17.4643C3.9496 17.8251 4.01201 18.1213 4.1368 18.353C4.26539 18.581 4.44879 18.7481 4.68706 18.8544ZM8.11024 18.9456V15.0371H8.64916V18.4727H10.5836V18.9456H8.11024ZM11.1516 15.0371V18.9456H13.6249V18.4727H11.6905V15.0371H11.1516Z" fill="black"/>
<path d="M24.6718 17.774L24.1678 17.7108L23.8843 17.6475L24.0103 18.1855L24.3254 18.0273L24.0734 17.9639L24.6718 17.774Z" fill="black"/>
<path fill-rule="evenodd" clip-rule="evenodd" d="M16.9946 15.2656C16.6731 15.0606 16.2628 14.958 15.7636 14.958C15.2568 14.958 14.837 15.0606 14.5042 15.2656C14.1752 15.4669 14.0107 15.7822 14.0107 16.2114C14.0107 16.5039 14.0882 16.7356 14.2432 16.9065C14.3983 17.0774 14.5798 17.2009 14.7878 17.2768C14.9959 17.349 15.2587 17.4193 15.5764 17.4876C15.8373 17.5409 16.0245 17.5921 16.1379 17.6415C16.2552 17.6871 16.3138 17.7574 16.3138 17.8523C16.3138 17.9587 16.2609 18.029 16.155 18.0631C16.0529 18.0973 15.9224 18.1144 15.7636 18.1144C15.548 18.1144 15.3891 18.0821 15.287 18.0175C15.1849 17.9492 15.1339 17.8163 15.1339 17.6187H13.9482C13.9482 18.1391 14.1165 18.5018 14.4532 18.7069C14.7935 18.912 15.2681 19.0146 15.877 19.0146C16.3989 19.0146 16.8149 18.9026 17.125 18.6784C17.439 18.4543 17.5959 18.1106 17.5959 17.6472C17.5921 17.3737 17.5146 17.1572 17.3633 16.9977C17.212 16.8382 17.0343 16.7242 16.83 16.6558C16.6296 16.5836 16.3724 16.5153 16.0585 16.4508C15.79 16.3976 15.5953 16.3463 15.4743 16.2969C15.3532 16.2475 15.2927 16.1715 15.2927 16.069C15.2927 15.9969 15.3362 15.9361 15.4232 15.8867C15.514 15.8373 15.6425 15.8126 15.8089 15.8126C15.9791 15.8126 16.1058 15.8506 16.189 15.9266C16.2722 16.0025 16.3138 16.0975 16.3138 16.2114V16.2342H17.4881V16.1659C17.4805 15.7671 17.316 15.4669 16.9946 15.2656ZM20.8503 17.4592V18.9462H22.104V15.0264H20.8503V16.4564H19.4718V15.0264H18.2181V18.9462H19.4718V17.4592H20.8503ZM26.8286 18.9462L25.6179 18.6273C24.6094 16.9181 24.294 17.108 24.2627 17.4245C24.2373 17.6784 23.916 18.6906 23.916 18.6906C23.506 18.7986 23.2026 18.8441 22.9731 18.8785C22.8229 18.901 22.7044 18.9188 22.6085 18.9462H22.5805L24.0043 15.0264H25.4623L26.8863 18.9462H26.8286ZM30.8705 16.878C30.9989 16.6843 31.0633 16.4678 31.0633 16.2285C31.0633 16.012 31.0123 15.8126 30.9099 15.6303C30.8115 15.4442 30.6624 15.2979 30.4619 15.1916C30.2651 15.0815 30.0269 15.0264 29.7471 15.0264H27.3587V18.9462H28.6126V17.5162H29.0776L29.7698 18.9462H31.1767L30.3088 17.3054C30.5546 17.2142 30.7418 17.0718 30.8705 16.878ZM29.6847 16.0234C29.7527 16.0918 29.7868 16.1773 29.7868 16.2798C29.7868 16.3823 29.7527 16.4697 29.6847 16.5419C29.6166 16.6103 29.5333 16.6444 29.4349 16.6444H28.6126V15.9209H29.4349C29.5333 15.9209 29.6166 15.9551 29.6847 16.0234ZM34.4177 15.0264H35.9719L34.5709 16.6388L36.0003 18.9462H34.5198L33.7086 17.5105L33.0278 18.0688V18.9462H31.7742V15.0264H33.0278V16.7015L34.4177 15.0264Z" fill="black"/>
<path d="M24.6718 17.774L24.1678 17.7108L23.8843 17.6475L24.0105 18.1855L24.3254 18.0273L24.0734 17.9639L24.6718 17.774Z" fill="black"/>
<path d="M14.3525 7.74805L14.3635 7.81351C14.3649 7.78269 14.3602 7.76277 14.3525 7.74805Z" fill="black"/>
<path d="M23.5919 10.6038C23.3783 9.96693 22.6144 9.62219 22.3856 9.5316C22.0526 9.4002 21.7152 9.35327 21.3894 9.36131V9.25272C21.3894 8.58164 21.0816 7.9827 20.5995 7.58956C20.7082 7.39888 20.787 7.1888 20.8291 6.96545C20.5995 7.12052 20.2214 7.31495 19.3389 7.53405C17.7711 7.92293 17.413 8.25066 17.413 8.25066C17.3035 8.3232 17.2126 8.41946 17.1378 8.52857C17.1719 8.36827 17.2926 8.22504 17.2926 8.22504C17.2926 8.22504 17.0075 8.36635 16.8796 8.73439C16.7721 9.04261 16.8247 9.27975 16.8322 9.30963C16.7536 9.03741 16.7612 8.78844 16.855 8.56647C17.17 7.82003 18.3821 7.47761 19.0334 7.29362C19.1291 7.26659 19.212 7.24334 19.2816 7.22154C19.32 7.20968 20.2175 6.9294 20.2664 6.69466C20.2763 6.64628 20.2606 6.5979 20.2233 6.56614C20.1655 6.51633 20.0792 6.50684 19.8096 6.6069C19.6397 6.66997 19.5682 6.64818 19.5454 6.63585C19.5236 6.62399 19.518 6.60596 19.5174 6.60596L19.51 6.4466L19.3542 6.51253C18.8666 6.71885 18.7382 6.67947 18.7174 6.66997C18.7174 6.66428 18.7185 6.65481 18.7198 6.65008L18.7884 6.47459L18.6009 6.48835C18.3262 6.50874 18.1192 6.45562 17.9852 6.32994C18.2305 6.38449 18.5436 6.37785 18.7924 6.21186C18.9116 6.13219 18.9888 6.13505 19.0069 6.15354C19.0159 6.16634 19.0248 6.21423 19.0248 6.24934V6.41388L19.1806 6.3617C20.0162 6.08144 20.6679 6.47885 20.6741 6.48265L20.7254 6.5149L20.7812 6.49261C21.2989 6.28536 21.9057 5.66315 21.9313 5.63659L22.0345 5.53037L21.9082 5.45307C21.612 5.27191 21.2573 5.1154 20.864 4.98832V4.64543C20.864 3.53237 19.9626 2.62988 18.8509 2.62988H15.9844V4.7953C14.211 4.42443 12.7057 5.15666 12.6384 5.19034L12.3926 5.31269L12.6502 5.40802C13.8017 5.83341 14.255 6.38022 14.3763 6.55426C14.1456 6.92797 14.0504 7.44442 14.0258 7.60046C12.5257 8.91267 12.4816 10.1746 12.4802 10.2283L12.4745 10.499L12.6773 10.3198C13.2959 9.77204 13.9723 9.78437 13.9784 9.78575L14.1058 9.79004L14.1006 9.66246C14.0954 9.53964 14.1035 9.42532 14.1181 9.32292C14.4236 10.674 15.6632 11.7093 17.0795 11.7093C17.1032 11.7093 17.1269 11.7093 17.1506 11.7084C17.9847 11.688 18.3882 11.5523 18.7786 11.4209C19.0476 11.3304 19.3238 11.2384 19.7544 11.1829C19.7051 11.4181 19.4962 11.596 19.2465 11.596H18.8592C18.1628 11.7928 17.682 11.8354 17.2088 11.8354C17.0956 11.8354 16.9829 11.8331 16.8673 11.8298C16.5641 11.8207 16.2663 11.7691 15.9854 11.6785V13.2222H19.2465C20.3696 13.2222 21.29 12.3571 21.3814 11.2564C22.161 11.4888 22.4433 11.9772 22.4584 12.0047L22.6532 12.3623L22.6806 11.9559C22.7247 11.3048 22.4685 10.9031 22.3155 10.7238C22.854 10.3957 23.3921 10.7271 23.4162 10.7424L23.6989 10.9225L23.5919 10.6038ZM19.2465 8.7334C19.5325 8.7334 19.7652 8.96627 19.7652 9.25272V9.79578C19.5018 9.92282 19.2915 10.049 19.1588 10.1286C19.1157 10.1547 19.0812 10.1756 19.0566 10.1889C18.3897 10.556 17.987 10.5004 17.7474 10.3392C17.691 10.3093 17.6455 10.27 17.6091 10.2244C17.5868 10.1965 17.5679 10.1666 17.5513 10.1348C17.5006 10.0367 17.4779 9.92519 17.4689 9.82754C17.4556 9.68522 17.4708 9.57285 17.4708 9.57285C17.5011 9.75066 17.557 9.85597 17.6091 9.9186V9.46759C18.2068 9.44431 18.536 9.75448 18.5507 9.7692L18.7312 9.94654L18.752 9.69424C18.7838 9.30823 18.6942 8.98526 18.4868 8.7334H19.2465ZM19.4706 5.50998L19.3389 5.42888L19.0846 5.27284C19.1679 5.26384 19.2551 5.26431 19.3389 5.26907C19.6055 5.28473 19.8434 5.35015 19.8434 5.35015L19.4706 5.50998ZM17.5106 4.41399V4.15648H18.8515C19.12 4.15648 19.3389 4.37511 19.3389 4.64447V4.66678C19.0717 4.63687 18.7994 4.6184 18.5251 4.61318C17.3746 4.59232 16.496 4.82185 16.3117 4.87447C16.7991 4.60844 17.2084 4.47802 17.5106 4.41399ZM12.7635 9.9437C12.7668 9.93039 12.7701 9.91621 12.7734 9.90196C12.7734 9.901 12.7734 9.90006 12.7739 9.89962C12.7772 9.88628 12.781 9.87212 12.7848 9.85787C12.7853 9.85597 12.7857 9.85405 12.7862 9.8522C12.79 9.83888 12.7933 9.82517 12.7976 9.81139C12.7985 9.80855 12.7995 9.80572 12.7999 9.80281C12.8037 9.78957 12.8075 9.77633 12.8118 9.76254C12.8127 9.75872 12.8141 9.75495 12.8156 9.75113C12.8198 9.73789 12.8236 9.72509 12.8279 9.7113C12.8293 9.70657 12.8312 9.70184 12.8326 9.69708C12.8368 9.68428 12.8411 9.67101 12.8459 9.65772C12.8478 9.6525 12.8496 9.64682 12.8516 9.64162C12.8563 9.62878 12.8605 9.61551 12.8653 9.60274L12.8657 9.60156C12.868 9.59529 12.8702 9.58901 12.8729 9.58281C12.8776 9.57048 12.8824 9.55764 12.8871 9.54531C12.8899 9.53771 12.8933 9.53014 12.8961 9.52255L12.8967 9.52094C12.9012 9.50915 12.9058 9.49736 12.9108 9.48556C12.9141 9.47752 12.9179 9.46897 12.9212 9.46046C12.9264 9.4486 12.9311 9.43627 12.9363 9.42394C12.9401 9.41489 12.9444 9.40592 12.9482 9.39645C12.9534 9.38459 12.9586 9.37271 12.9643 9.36038C12.9685 9.35088 12.9733 9.34095 12.978 9.33096C12.9837 9.3191 12.9889 9.30724 12.9946 9.29538C12.999 9.28578 13.0037 9.27619 13.0085 9.26659L13.0097 9.26411C13.0154 9.25225 13.0212 9.24084 13.0268 9.22898C13.0325 9.21813 13.0382 9.20671 13.0439 9.19537C13.0496 9.18395 13.0557 9.17209 13.0619 9.16075C13.068 9.14886 13.0746 9.13656 13.0813 9.12467C13.0874 9.11328 13.0931 9.10241 13.0993 9.09099C13.1064 9.07866 13.1135 9.06586 13.1206 9.05309C13.1268 9.04168 13.1329 9.0308 13.1395 9.01941C13.1471 9.00661 13.1547 8.99377 13.1623 8.98052C13.1689 8.96911 13.1755 8.95777 13.1826 8.94635C13.1907 8.93311 13.1992 8.91932 13.2078 8.90561C13.2144 8.89467 13.221 8.88377 13.2281 8.87284C13.2372 8.85862 13.2466 8.84441 13.2556 8.83019C13.2627 8.81924 13.2698 8.80836 13.2769 8.79742C13.2864 8.78324 13.2963 8.76854 13.3063 8.75385C13.3138 8.7429 13.3209 8.73202 13.3286 8.72108C13.339 8.70638 13.3494 8.69122 13.3603 8.67652C13.3678 8.66562 13.3755 8.65467 13.3835 8.64382C13.3936 8.62967 13.4042 8.6155 13.4148 8.60137C13.4156 8.60033 13.4164 8.59929 13.4171 8.59826C13.418 8.59707 13.4189 8.59587 13.4198 8.59468C13.427 8.58497 13.4341 8.57525 13.4417 8.56556C13.4531 8.55039 13.4654 8.53516 13.4773 8.51999C13.4858 8.50912 13.4944 8.49773 13.5033 8.48683C13.5156 8.47115 13.5289 8.45507 13.5417 8.43936C13.5502 8.42849 13.5587 8.41808 13.5678 8.40716C13.5815 8.39054 13.5952 8.37444 13.6094 8.35782C13.6184 8.34739 13.627 8.33696 13.6359 8.3265C13.6502 8.30993 13.6648 8.29331 13.6795 8.27721C13.689 8.26676 13.698 8.25586 13.7075 8.24543C13.7221 8.2293 13.7373 8.21318 13.752 8.19705C13.7624 8.18615 13.7724 8.17478 13.7828 8.16386C13.7979 8.14773 13.8136 8.13161 13.8292 8.11548C13.8401 8.10412 13.8505 8.09319 13.8614 8.0818C13.8628 8.08039 13.8642 8.07897 13.8657 8.07755C13.8804 8.06279 13.8955 8.04767 13.9107 8.03298C13.922 8.02159 13.9329 8.01066 13.9443 7.9993C13.9614 7.98223 13.9794 7.96561 13.9969 7.94855C14.0082 7.93765 14.0191 7.9272 14.0305 7.9163C14.0495 7.89827 14.0693 7.88025 14.0891 7.86223L14.0906 7.86082C14.0994 7.85249 14.1081 7.84453 14.1171 7.8363C14.1184 7.83515 14.1197 7.834 14.121 7.83283C14.1518 7.80531 14.1835 7.77735 14.2153 7.74936L14.2494 7.71995L14.255 7.67537C14.255 7.67537 14.255 7.67206 14.2565 7.66686C14.2569 7.66353 14.2579 7.65737 14.2584 7.65214C14.2584 7.65024 14.2588 7.64787 14.2593 7.64551C14.2598 7.64124 14.2607 7.63695 14.2617 7.63222C14.2617 7.62938 14.2626 7.62654 14.2631 7.62322C14.264 7.61752 14.265 7.61136 14.2664 7.60519C14.2669 7.60189 14.2673 7.59903 14.2678 7.59572C14.2693 7.5867 14.2712 7.57676 14.273 7.56631C14.273 7.56488 14.2735 7.56347 14.274 7.56204C14.2749 7.56204 14.2754 7.56108 14.2763 7.56061C14.2787 7.54451 14.2811 7.52836 14.2835 7.51272C14.2835 7.51129 14.2835 7.51036 14.2839 7.50893C14.2863 7.49611 14.2891 7.48284 14.2919 7.46861V7.46721C14.2948 7.45392 14.2977 7.43969 14.301 7.42544C14.3015 7.42263 14.3019 7.42023 14.3029 7.4174C14.3095 7.38704 14.3176 7.35479 14.3261 7.32111C14.327 7.31734 14.328 7.31401 14.3289 7.31021C14.3321 7.29688 14.3358 7.28354 14.3395 7.27023L14.3398 7.26896C14.3408 7.26516 14.3417 7.26136 14.3427 7.25757C14.3474 7.2405 14.3521 7.22295 14.3574 7.20539C14.3583 7.20256 14.3593 7.19972 14.3597 7.19688C14.364 7.18216 14.3687 7.16697 14.373 7.1523C14.3744 7.14705 14.3763 7.14185 14.3777 7.13711C14.3824 7.12192 14.3872 7.10676 14.3924 7.0916C14.3933 7.08874 14.3943 7.08543 14.3952 7.08257C14.4014 7.06455 14.4076 7.04702 14.4137 7.02899C14.4156 7.02423 14.4175 7.01903 14.4189 7.01429C14.4242 7.00053 14.4294 6.98678 14.4345 6.97302C14.4364 6.96781 14.4383 6.96259 14.4407 6.95738C14.4478 6.93936 14.4549 6.9218 14.4625 6.90378C14.4635 6.90188 14.4644 6.89954 14.4654 6.89761C14.472 6.88198 14.4791 6.86632 14.4862 6.85067C14.4885 6.84544 14.4909 6.84024 14.4933 6.83503C14.4999 6.82078 14.5066 6.80702 14.5137 6.79329C14.5156 6.78949 14.5175 6.78569 14.5194 6.7819C14.5279 6.76483 14.5369 6.74821 14.5459 6.73164C14.5483 6.72785 14.5501 6.72405 14.5525 6.71978C14.5601 6.70699 14.5672 6.69419 14.5752 6.68186C14.5781 6.67707 14.5809 6.67283 14.5837 6.6681C14.5937 6.65244 14.6037 6.63678 14.6146 6.62162L14.6558 6.56279L14.6511 6.55332C14.8168 6.29296 14.9115 6.05679 14.759 5.88606C14.58 5.68497 13.6151 5.39379 13.0481 5.31032C13.0339 5.30416 13.0202 5.29799 13.0055 5.29183C13.0221 5.28567 13.0391 5.27903 13.0571 5.27284C13.0643 5.27001 13.0723 5.26764 13.0794 5.26481C13.0903 5.26098 13.1012 5.25672 13.1125 5.25294C13.122 5.24962 13.132 5.24631 13.1414 5.24298C13.1514 5.23968 13.1614 5.23586 13.1717 5.23255C13.1832 5.22873 13.1954 5.22449 13.2073 5.22069C13.2163 5.21783 13.2253 5.21453 13.2348 5.21167C13.248 5.20743 13.2618 5.20314 13.2755 5.1984C13.284 5.19554 13.2925 5.19271 13.3015 5.19034C13.3162 5.18558 13.3318 5.18085 13.347 5.17658C13.3551 5.17421 13.3631 5.17185 13.3717 5.16901C13.3882 5.16425 13.4052 5.15902 13.4228 5.15429C13.4304 5.15239 13.4375 5.15002 13.4451 5.14812C13.4635 5.14292 13.482 5.13769 13.501 5.13247C13.5081 5.13059 13.5147 5.12869 13.5218 5.12677C13.5417 5.12157 13.5621 5.11637 13.5824 5.11067C13.5886 5.10924 13.5947 5.10734 13.6014 5.10591C13.6231 5.10022 13.6449 5.09501 13.6672 5.08981C13.6724 5.08838 13.6781 5.08742 13.6833 5.08601C13.707 5.08029 13.7307 5.07462 13.7548 5.06939C13.7591 5.06846 13.7629 5.06749 13.7672 5.06656C13.7928 5.06086 13.8188 5.05517 13.8453 5.04947C13.8477 5.049 13.8505 5.04853 13.8529 5.04806C13.8813 5.04237 13.9097 5.0362 13.9386 5.031C13.9386 5.031 13.9396 5.031 13.9401 5.031C14.3896 4.94467 14.9348 4.89536 15.5207 4.96176C15.6168 4.97266 15.7135 4.98642 15.8115 5.00348C15.8522 5.01058 15.8934 5.01865 15.9347 5.0272C15.9512 5.03051 15.9683 5.03477 15.9848 5.0381C15.9986 5.04094 16.0123 5.04427 16.0256 5.04713C16.0365 5.04947 16.0474 5.05233 16.0583 5.0547C16.0336 5.06775 16.0099 5.08123 15.9861 5.09475L15.9848 5.09548C15.7452 5.23208 15.5354 5.40565 15.4084 5.6271C15.5676 5.46017 15.7722 5.35015 15.9848 5.26338C16.0697 5.22873 16.1554 5.19744 16.2407 5.16805C16.5286 5.07178 16.8564 5.00632 17.1539 4.94278C17.1619 4.94135 17.1705 4.94041 17.1785 4.93898C17.2079 4.93471 17.2377 4.93047 17.268 4.92618C17.2822 4.92428 17.296 4.92238 17.3102 4.92049C17.3552 4.91479 17.4011 4.90862 17.4485 4.90342C17.4499 4.90342 17.4518 4.90342 17.4533 4.90295C17.4717 4.90103 17.4916 4.89916 17.5106 4.89679C17.5413 4.89346 17.5716 4.89013 17.6034 4.8868C17.6096 4.88633 17.6152 4.88587 17.6214 4.88493C17.6721 4.88017 17.7237 4.8759 17.7763 4.87164C17.7805 4.87164 17.7848 4.87117 17.7891 4.8707C17.8407 4.8669 17.8937 4.86358 17.9477 4.86074C17.9515 4.86074 17.9553 4.86074 17.9592 4.86027C18.0122 4.85741 18.0666 4.85504 18.1216 4.85364C18.1311 4.85364 18.1407 4.85319 18.1502 4.85274L18.1514 4.85268C18.2054 4.85125 18.2604 4.84982 18.3158 4.84935C18.3253 4.84935 18.3347 4.84935 18.3447 4.84935C18.403 4.84935 18.4617 4.84935 18.5214 4.85031C18.5791 4.85125 18.6384 4.85314 18.6991 4.85551C18.7353 4.85687 18.7725 4.85908 18.8097 4.8613C18.8118 4.86143 18.8139 4.86155 18.8161 4.86168C18.8386 4.86311 18.861 4.86357 18.8838 4.86547C18.9348 4.86874 18.9874 4.87298 19.0398 4.8772L19.0415 4.87733C19.0523 4.8783 19.0633 4.87876 19.0741 4.8797C19.1609 4.8873 19.2499 4.89679 19.3394 4.90769C19.8376 4.9665 20.3701 5.07225 20.8651 5.23825C21.1374 5.32978 21.3984 5.43884 21.6357 5.56832C21.6382 5.56972 21.6404 5.57068 21.6428 5.57211C21.5296 5.54553 21.2658 5.49005 20.8651 5.44264C20.6287 5.41465 20.3446 5.3895 20.0149 5.37483L20.2265 5.30463C20.2265 5.30463 19.8514 5.17135 19.3394 5.11824C19.1385 5.0974 18.9164 5.08838 18.6875 5.10497L18.9004 5.37007C18.7112 5.37623 18.5138 5.38619 18.3077 5.40092C18.0373 5.41988 17.7701 5.47679 17.5115 5.56403C17.395 5.6034 17.2799 5.64799 17.1676 5.6992C17.1098 5.50334 16.9952 5.32312 16.8427 5.19271C16.9241 5.38526 16.9692 5.58822 16.9763 5.79263C16.9133 5.62663 16.8095 5.47536 16.6774 5.36203C16.7489 5.53131 16.7915 5.70869 16.8057 5.88842C16.8043 5.88938 16.8034 5.88985 16.8019 5.89079C16.7508 5.67501 16.6296 5.47346 16.4638 5.33118C16.5566 5.55172 16.6025 5.786 16.5978 6.02074C16.5348 6.06391 16.4727 6.10849 16.4121 6.15495C16.3491 6.0269 16.261 5.91165 16.1545 5.82012C16.2151 5.96383 16.2554 6.1137 16.2747 6.26544C16.1739 6.34987 16.0777 6.43997 15.9863 6.53339C15.7367 6.78806 15.523 7.0731 15.3582 7.37708C14.913 8.19848 14.7638 9.21573 15.0067 10.0717C15.0067 10.0717 14.39 9.44239 14.3621 8.09652C14.1689 8.19421 13.4024 8.6452 12.7635 9.9437Z" fill="black"/>
<path d="M12.7635 9.9437C12.7668 9.93039 12.7701 9.91621 12.7734 9.90196C12.7734 9.901 12.7734 9.90006 12.7739 9.89962C12.7772 9.88628 12.781 9.87212 12.7848 9.85787L12.7862 9.8522C12.79 9.83888 12.7933 9.82517 12.7976 9.81139C12.7985 9.80855 12.7995 9.80572 12.7999 9.80281C12.8037 9.78957 12.8075 9.77633 12.8118 9.76254C12.8127 9.75872 12.8141 9.75495 12.8156 9.75113C12.8198 9.73789 12.8236 9.72509 12.8279 9.7113C12.8293 9.70657 12.8312 9.70184 12.8326 9.69708C12.8368 9.68428 12.8411 9.67101 12.8459 9.65772L12.8516 9.64162C12.8563 9.62878 12.8605 9.61551 12.8653 9.60274L12.8657 9.60156C12.868 9.59529 12.8702 9.58901 12.8729 9.58281L12.8871 9.54531C12.8899 9.53771 12.8933 9.53014 12.8961 9.52255L12.8967 9.52094C12.9012 9.50915 12.9058 9.49736 12.9108 9.48556C12.9141 9.47752 12.9179 9.46897 12.9212 9.46046C12.9264 9.4486 12.9311 9.43627 12.9363 9.42394C12.9401 9.41489 12.9444 9.40592 12.9482 9.39645C12.9534 9.38459 12.9586 9.37271 12.9643 9.36038C12.9685 9.35088 12.9733 9.34095 12.978 9.33096C12.9837 9.3191 12.9889 9.30724 12.9946 9.29538C12.999 9.28578 13.0037 9.27619 13.0085 9.26659L13.0097 9.26411C13.0154 9.25225 13.0212 9.24084 13.0268 9.22898C13.0325 9.21813 13.0382 9.20671 13.0439 9.19537C13.0496 9.18395 13.0557 9.17209 13.0619 9.16075C13.068 9.14886 13.0746 9.13656 13.0813 9.12467L13.0993 9.09099C13.1064 9.07866 13.1135 9.06586 13.1206 9.05309C13.1268 9.04168 13.1329 9.0308 13.1395 9.01941C13.1471 9.00661 13.1547 8.99377 13.1623 8.98052C13.1689 8.96911 13.1755 8.95777 13.1826 8.94635L13.2078 8.90561C13.2144 8.89467 13.221 8.88377 13.2281 8.87284C13.2372 8.85862 13.2466 8.84441 13.2556 8.83019L13.2769 8.79742L13.3063 8.75385C13.3138 8.7429 13.3209 8.73202 13.3286 8.72108C13.339 8.70638 13.3494 8.69122 13.3603 8.67652C13.3678 8.66562 13.3755 8.65467 13.3835 8.64382C13.3936 8.62967 13.4042 8.6155 13.4148 8.60137L13.4171 8.59826L13.4198 8.59468C13.427 8.58497 13.4341 8.57525 13.4417 8.56556C13.4531 8.55039 13.4654 8.53516 13.4773 8.51999C13.4858 8.50912 13.4944 8.49773 13.5033 8.48683C13.5156 8.47115 13.5289 8.45507 13.5417 8.43936C13.5502 8.42849 13.5587 8.41808 13.5678 8.40716C13.5815 8.39054 13.5952 8.37444 13.6094 8.35782C13.6184 8.34739 13.627 8.33696 13.6359 8.3265C13.6502 8.30993 13.6648 8.29331 13.6795 8.27721C13.689 8.26676 13.698 8.25586 13.7075 8.24543C13.7221 8.2293 13.7373 8.21318 13.752 8.19705C13.7624 8.18615 13.7724 8.17478 13.7828 8.16386C13.7979 8.14773 13.8136 8.13161 13.8292 8.11548L13.8614 8.0818L13.8657 8.07755C13.8804 8.06279 13.8955 8.04767 13.9107 8.03298L13.9443 7.9993C13.9614 7.98223 13.9794 7.96561 13.9969 7.94855L14.0305 7.9163C14.0495 7.89827 14.0693 7.88025 14.0891 7.86223L14.0906 7.86082C14.0994 7.85249 14.1081 7.84453 14.1171 7.8363L14.121 7.83283C14.1518 7.80531 14.1835 7.77735 14.2153 7.74936L14.2494 7.71995L14.255 7.67537C14.255 7.67537 14.255 7.67206 14.2565 7.66686C14.2569 7.66353 14.2579 7.65737 14.2584 7.65214C14.2584 7.65024 14.2588 7.64787 14.2593 7.64551C14.2598 7.64124 14.2607 7.63695 14.2617 7.63222C14.2617 7.62938 14.2626 7.62654 14.2631 7.62322C14.264 7.61752 14.265 7.61136 14.2664 7.60519L14.2678 7.59572C14.2693 7.5867 14.2712 7.57676 14.273 7.56631C14.273 7.56488 14.2735 7.56347 14.274 7.56204C14.2749 7.56204 14.2754 7.56108 14.2763 7.56061L14.2835 7.51272C14.2835 7.51129 14.2835 7.51036 14.2839 7.50893C14.2863 7.49611 14.2891 7.48284 14.2919 7.46861V7.46721C14.2948 7.45392 14.2977 7.43969 14.301 7.42544C14.3015 7.42263 14.3019 7.42023 14.3029 7.4174C14.3095 7.38704 14.3176 7.35479 14.3261 7.32111L14.3289 7.31021C14.3321 7.29688 14.3358 7.28354 14.3395 7.27023L14.3398 7.26896L14.3427 7.25757C14.3474 7.2405 14.3521 7.22295 14.3574 7.20539C14.3583 7.20256 14.3593 7.19972 14.3597 7.19688C14.364 7.18216 14.3687 7.16697 14.373 7.1523C14.3744 7.14705 14.3763 7.14185 14.3777 7.13711C14.3824 7.12192 14.3872 7.10676 14.3924 7.0916L14.3952 7.08257L14.4137 7.02899C14.4156 7.02423 14.4175 7.01903 14.4189 7.01429L14.4345 6.97302C14.4364 6.96781 14.4383 6.96259 14.4407 6.95738C14.4478 6.93936 14.4549 6.9218 14.4625 6.90378L14.4654 6.89761C14.472 6.88198 14.4791 6.86632 14.4862 6.85067L14.4933 6.83503C14.4999 6.82078 14.5066 6.80702 14.5137 6.79329L14.5194 6.7819C14.5279 6.76483 14.5369 6.74821 14.5459 6.73164C14.5483 6.72785 14.5501 6.72405 14.5525 6.71978C14.5601 6.70699 14.5672 6.69419 14.5752 6.68186C14.5781 6.67707 14.5809 6.67283 14.5837 6.6681C14.5937 6.65244 14.6037 6.63678 14.6146 6.62162L14.6558 6.56279L14.6511 6.55332C14.8168 6.29296 14.9115 6.05679 14.759 5.88606C14.58 5.68497 13.6151 5.39379 13.0481 5.31032C13.0339 5.30416 13.0202 5.29799 13.0055 5.29183C13.0221 5.28567 13.0391 5.27903 13.0571 5.27284C13.0643 5.27001 13.0723 5.26764 13.0794 5.26481C13.0903 5.26098 13.1012 5.25672 13.1125 5.25294L13.1414 5.24298C13.1514 5.23968 13.1614 5.23586 13.1717 5.23255C13.1832 5.22873 13.1954 5.22449 13.2073 5.22069C13.2163 5.21783 13.2253 5.21453 13.2348 5.21167C13.248 5.20743 13.2618 5.20314 13.2755 5.1984C13.284 5.19554 13.2925 5.19271 13.3015 5.19034C13.3162 5.18558 13.3318 5.18085 13.347 5.17658C13.3551 5.17421 13.3631 5.17185 13.3717 5.16901C13.3882 5.16425 13.4052 5.15902 13.4228 5.15429C13.4304 5.15239 13.4375 5.15002 13.4451 5.14812L13.501 5.13247L13.5218 5.12677C13.5417 5.12157 13.5621 5.11637 13.5824 5.11067C13.5886 5.10924 13.5947 5.10734 13.6014 5.10591C13.6231 5.10022 13.6449 5.09501 13.6672 5.08981C13.6724 5.08838 13.6781 5.08742 13.6833 5.08601C13.707 5.08029 13.7307 5.07462 13.7548 5.06939L13.7672 5.06656L13.8453 5.04947L13.8529 5.04806C13.8813 5.04237 13.9097 5.0362 13.9386 5.031C13.9386 5.031 13.9396 5.031 13.9401 5.031C14.3896 4.94467 14.9348 4.89536 15.5207 4.96176C15.6168 4.97266 15.7135 4.98642 15.8115 5.00348C15.8522 5.01058 15.8934 5.01865 15.9347 5.0272C15.9512 5.03051 15.9683 5.03477 15.9848 5.0381C15.9986 5.04094 16.0123 5.04427 16.0256 5.04713C16.0365 5.04947 16.0474 5.05233 16.0583 5.0547C16.0336 5.06775 16.0099 5.08123 15.9861 5.09475L15.9848 5.09548C15.7452 5.23208 15.5354 5.40565 15.4084 5.6271C15.5676 5.46017 15.7722 5.35015 15.9848 5.26338C16.0697 5.22873 16.1554 5.19744 16.2407 5.16805C16.5286 5.07178 16.8564 5.00632 17.1539 4.94278C17.1619 4.94135 17.1705 4.94041 17.1785 4.93898L17.268 4.92618L17.3102 4.92049C17.3552 4.91479 17.4011 4.90862 17.4485 4.90342C17.4499 4.90342 17.4518 4.90342 17.4533 4.90295C17.4717 4.90103 17.4916 4.89916 17.5106 4.89679L17.6034 4.8868C17.6096 4.88633 17.6152 4.88587 17.6214 4.88493C17.6721 4.88017 17.7237 4.8759 17.7763 4.87164C17.7805 4.87164 17.7848 4.87117 17.7891 4.8707C17.8407 4.8669 17.8937 4.86358 17.9477 4.86074C17.9515 4.86074 17.9553 4.86074 17.9592 4.86027C18.0122 4.85741 18.0666 4.85504 18.1216 4.85364C18.1311 4.85364 18.1407 4.85319 18.1502 4.85274L18.1514 4.85268C18.2054 4.85125 18.2604 4.84982 18.3158 4.84935H18.3447C18.403 4.84935 18.4617 4.84935 18.5214 4.85031C18.5791 4.85125 18.6384 4.85314 18.6991 4.85551C18.7353 4.85687 18.7725 4.85908 18.8097 4.8613L18.8161 4.86168C18.8386 4.86311 18.861 4.86357 18.8838 4.86547C18.9348 4.86874 18.9874 4.87298 19.0398 4.8772L19.0415 4.87733C19.0523 4.8783 19.0633 4.87876 19.0741 4.8797C19.1609 4.8873 19.2499 4.89679 19.3394 4.90769C19.8376 4.9665 20.3701 5.07225 20.8651 5.23825C21.1374 5.32978 21.3984 5.43884 21.6357 5.56832C21.6382 5.56972 21.6404 5.57068 21.6428 5.57211C21.5296 5.54553 21.2658 5.49005 20.8651 5.44264C20.6287 5.41465 20.3446 5.3895 20.0149 5.37483L20.2265 5.30463C20.2265 5.30463 19.8514 5.17135 19.3394 5.11824C19.1385 5.0974 18.9164 5.08838 18.6875 5.10497L18.9004 5.37007C18.7112 5.37623 18.5138 5.38619 18.3077 5.40092C18.0373 5.41988 17.7701 5.47679 17.5115 5.56403C17.395 5.6034 17.2799 5.64799 17.1676 5.6992C17.1098 5.50334 16.9952 5.32312 16.8427 5.19271C16.9241 5.38526 16.9692 5.58822 16.9763 5.79263C16.9133 5.62663 16.8095 5.47536 16.6774 5.36203C16.7489 5.53131 16.7915 5.70869 16.8057 5.88842L16.8019 5.89079C16.7508 5.67501 16.6296 5.47346 16.4638 5.33118C16.5566 5.55172 16.6025 5.786 16.5978 6.02074C16.5348 6.06391 16.4727 6.10849 16.4121 6.15495C16.3491 6.0269 16.261 5.91165 16.1545 5.82012C16.2151 5.96383 16.2554 6.1137 16.2747 6.26544C16.1739 6.34987 16.0777 6.43997 15.9863 6.53339C15.7367 6.78806 15.523 7.0731 15.3582 7.37708C14.913 8.19848 14.7638 9.21573 15.0067 10.0717C15.0067 10.0717 14.39 9.44239 14.3621 8.09652C14.1689 8.19421 13.4024 8.6452 12.7635 9.9437Z" fill="white"/>
<path d="M17.5106 4.41399V4.15648H18.8515C19.12 4.15648 19.3389 4.37511 19.3389 4.64447V4.66678C19.0717 4.63687 18.7994 4.6184 18.5251 4.61318C17.3746 4.59232 16.496 4.82185 16.3117 4.87447C16.7991 4.60844 17.2084 4.47802 17.5106 4.41399Z" fill="white"/>
<path d="M19.4706 5.50998L19.3389 5.42888L19.0846 5.27284C19.1679 5.26384 19.2551 5.26431 19.3389 5.26907C19.6055 5.28473 19.8434 5.35015 19.8434 5.35015L19.4706 5.50998Z" fill="white"/>
<path d="M19.2465 8.7334C19.5325 8.7334 19.7652 8.96627 19.7652 9.25272V9.79578C19.5018 9.92282 19.2915 10.049 19.1588 10.1286C19.1157 10.1547 19.0812 10.1756 19.0566 10.1889C18.3897 10.556 17.987 10.5004 17.7474 10.3392C17.691 10.3093 17.6455 10.27 17.6091 10.2244C17.5868 10.1965 17.5679 10.1666 17.5513 10.1348C17.5006 10.0367 17.4779 9.92519 17.4689 9.82754C17.4556 9.68522 17.4708 9.57285 17.4708 9.57285C17.5011 9.75066 17.557 9.85597 17.6091 9.9186V9.46759C18.2068 9.44431 18.536 9.75448 18.5507 9.7692L18.7312 9.94654L18.752 9.69424C18.7838 9.30823 18.6942 8.98526 18.4868 8.7334H19.2465Z" fill="white"/>
</g>
<defs>
<clipPath id="clip0_969_25598">
<rect width="36" height="24" fill="white"/>
</clipPath>
</defs>
</svg>
