<svg width="36" height="24" viewBox="0 0 36 24" fill="none" xmlns="http://www.w3.org/2000/svg">
<g clip-path="url(#clip0_686_20660)">
<path d="M1.06182 21.5752C1.37297 21.5729 1.64731 21.6255 1.91062 21.739C1.98128 21.7695 2.00501 21.8021 1.96582 21.8766C1.92161 21.9608 1.88271 22.0476 1.84935 22.1366C1.82285 22.2051 1.79102 22.2216 1.71871 22.1918C1.50002 22.0996 1.26457 22.0536 1.02723 22.057C0.944213 22.056 0.861704 22.07 0.78361 22.0982C0.724178 22.1215 0.675417 22.1574 0.666953 22.227C0.658489 22.2965 0.703753 22.3398 0.758954 22.3729C0.827587 22.4148 0.903763 22.4386 0.979756 22.4621C1.17277 22.5221 1.37039 22.5681 1.55734 22.6461C1.63684 22.6787 1.7128 22.7193 1.78403 22.7674C2.18129 23.041 2.15295 23.6092 1.72883 23.8414C1.483 23.9761 1.21362 23.9947 0.94222 23.9818C0.656686 23.9706 0.376172 23.9032 0.116788 23.7833C0.0498113 23.7516 0.0325152 23.7181 0.0682115 23.6499C0.11734 23.5547 0.1615 23.4565 0.201245 23.3569C0.227741 23.2898 0.260677 23.28 0.325814 23.3082C0.599056 23.4256 0.881683 23.5006 1.18326 23.4749C1.25686 23.4686 1.33046 23.4541 1.39321 23.4138C1.50011 23.3461 1.50729 23.2261 1.40995 23.145C1.35412 23.1016 1.2899 23.0703 1.22135 23.053C1.0655 23.0073 0.908547 22.9654 0.752514 22.9203C0.625062 22.8858 0.502831 22.8343 0.389111 22.7672C0.171068 22.6325 0.0667395 22.4373 0.0842196 22.1808C0.100964 21.9359 0.246693 21.7852 0.458479 21.6884C0.657017 21.597 0.869539 21.5703 1.06182 21.5752Z" fill="#2A4349"/>
<path d="M18.7867 21.6354C18.4299 21.592 18.0691 21.6281 17.7114 21.617C17.6181 21.6141 17.5883 21.6472 17.5892 21.7386C17.5929 22.0851 17.5907 22.4316 17.5907 22.7783C17.5907 23.1279 17.5907 23.4775 17.5907 23.8271C17.5907 23.8922 17.5993 23.9389 17.6844 23.9375C18.0216 23.9334 18.3593 23.9439 18.6964 23.9301C19.0235 23.9167 19.3179 23.8022 19.5327 23.5446C19.8348 23.1821 19.8837 22.7667 19.7233 22.3341C19.5643 21.9068 19.2276 21.689 18.7867 21.6354ZM19.2533 22.7967C19.2401 23.1411 19.0344 23.3755 18.7035 23.4169C18.542 23.4372 18.379 23.4239 18.2167 23.425C18.148 23.425 18.1379 23.3825 18.1381 23.3275C18.1381 23.1435 18.1381 22.9595 18.1381 22.7755C18.1381 22.5915 18.1398 22.4075 18.1381 22.2235C18.1372 22.1528 18.164 22.1236 18.2354 22.1265C18.4066 22.1337 18.5788 22.112 18.7488 22.1462C19.0681 22.2113 19.2662 22.4664 19.2533 22.7967Z" fill="#2A4349"/>
<path d="M29.0794 21.5418C28.3841 21.5397 27.8343 22.0836 27.835 22.7725C27.835 23.4574 28.3826 23.9989 29.0739 23.9995C29.7731 23.9995 30.3161 23.4613 30.3161 22.7689C30.3159 22.0816 29.7738 21.5438 29.0794 21.5418ZM29.0774 23.4887C28.6945 23.4887 28.3811 23.165 28.3818 22.7685C28.3826 22.372 28.6937 22.0529 29.0801 22.054C29.4665 22.0551 29.7747 22.3779 29.7707 22.7757C29.7661 23.1707 29.4581 23.4879 29.0774 23.4887Z" fill="#2A4349"/>
<path d="M35.9139 23.174C35.8744 22.9256 35.7055 22.7876 35.497 22.6844C35.3034 22.5887 35.0937 22.539 34.8881 22.478C34.7941 22.45 34.6994 22.4228 34.6149 22.3712C34.5632 22.3392 34.5229 22.2995 34.5288 22.231C34.5347 22.1626 34.5786 22.128 34.6342 22.1037C34.7143 22.0719 34.7998 22.0563 34.8859 22.0577C35.126 22.0544 35.364 22.1009 35.5851 22.1944C35.6475 22.22 35.6795 22.2104 35.7044 22.1471C35.7393 22.0554 35.7793 21.9657 35.8243 21.8785C35.8632 21.8049 35.8427 21.7705 35.7712 21.7394C35.5113 21.6272 35.2306 21.5713 34.9476 21.5752C34.6925 21.5727 34.4447 21.6041 34.2222 21.7408C33.9998 21.8776 33.9083 22.0917 33.9525 22.346C33.9893 22.5573 34.1168 22.6956 34.2988 22.7944C34.5038 22.9048 34.7304 22.9503 34.9514 23.0125C35.0434 23.0382 35.1354 23.0633 35.2188 23.1096C35.2893 23.1486 35.3463 23.2002 35.3373 23.2898C35.3283 23.3794 35.2637 23.4186 35.1873 23.446C35.0872 23.4815 34.9827 23.4828 34.8782 23.4793C34.639 23.4699 34.4118 23.4075 34.1946 23.3111C34.1198 23.2778 34.0842 23.2936 34.057 23.3674C34.0233 23.4561 33.9795 23.5409 33.9407 23.6278C33.8903 23.7406 33.8903 23.7413 33.9996 23.7917C34.2971 23.929 34.6109 23.9882 34.938 23.9862C35.1612 23.9849 35.3796 23.9555 35.5793 23.8501C35.8381 23.713 35.9599 23.4631 35.9139 23.174Z" fill="#2A4349"/>
<path d="M13.6317 21.6115C13.5491 21.6161 13.4661 21.6115 13.3833 21.6124C13.1734 21.6141 13.1888 21.5902 13.1883 21.804C13.1872 22.178 13.1942 22.5523 13.1839 22.9264C13.175 23.248 12.9533 23.4732 12.6521 23.4913C12.3443 23.5097 12.1122 23.3257 12.0532 23.0118C12.0444 22.957 12.0407 22.9016 12.0421 22.8462C12.0412 22.4721 12.0399 22.0978 12.0421 21.7237C12.0421 21.6424 12.0184 21.6062 11.9317 21.6104C11.8186 21.6159 11.7047 21.6148 11.5915 21.6104C11.5159 21.6076 11.4901 21.6365 11.4907 21.712C11.4934 22.1136 11.4863 22.5155 11.4934 22.9172C11.5045 23.5334 11.9008 23.9476 12.5146 23.9954C13.2177 24.0506 13.7208 23.5976 13.7357 22.8929C13.7395 22.7059 13.7357 22.5188 13.7357 22.3317C13.7357 22.1262 13.7327 21.9206 13.7373 21.7153C13.7407 21.6338 13.7103 21.6071 13.6317 21.6115Z" fill="#2A4349"/>
<path d="M7.68073 21.6166C7.36793 21.6207 7.05513 21.6181 6.74232 21.6183C6.42676 21.6183 6.1112 21.6196 5.79564 21.6183C5.72204 21.6183 5.68873 21.6413 5.69204 21.7188C5.69628 21.8227 5.69572 21.9272 5.69204 22.0316C5.68965 22.1026 5.71762 22.1304 5.78883 22.1295C5.96032 22.1269 6.13199 22.1295 6.30403 22.1295C6.46871 22.1295 6.46963 22.1295 6.46963 22.2938C6.46963 22.8055 6.47129 23.3172 6.46816 23.8289C6.46816 23.9134 6.49558 23.9437 6.57856 23.9393C6.6794 23.9343 6.78097 23.9393 6.8818 23.9382C7.01778 23.9382 7.01814 23.9382 7.01833 23.7989C7.01833 23.2811 7.01998 22.7633 7.01704 22.2456C7.01704 22.1593 7.04243 22.1256 7.13186 22.128C7.32175 22.1331 7.51182 22.128 7.70226 22.1298C7.7674 22.1298 7.79757 22.1077 7.79518 22.0387C7.79169 21.9377 7.78966 21.8363 7.79518 21.7355C7.80089 21.6459 7.76942 21.6154 7.68073 21.6166Z" fill="#2A4349"/>
<path d="M24.0966 22.7823C24.0966 22.4299 24.0948 22.0776 24.0979 21.7252C24.0979 21.6467 24.0747 21.6135 23.9934 21.617C23.8802 21.6218 23.7665 21.6213 23.6534 21.617C23.573 21.6141 23.5454 21.6474 23.5466 21.7258C23.55 21.9217 23.5476 22.1179 23.5476 22.3146C23.5476 22.8171 23.5492 23.3196 23.5463 23.8219C23.5463 23.9093 23.5744 23.943 23.6627 23.9382C23.7699 23.9323 23.8773 23.9323 23.9844 23.9382C24.0744 23.9434 24.0994 23.9079 24.0985 23.8212C24.0944 23.4738 24.0966 23.1284 24.0966 22.7823Z" fill="#2A4349"/>
<path d="M14.136 13.8712C14.136 12.5376 13.1124 11.4577 11.5408 11.4577H8.24932V18.0221H9.79056V12.875H11.4241C12.2127 12.875 12.5977 13.3263 12.5977 13.8712C12.5977 14.4162 12.2127 14.8574 11.4241 14.8574H10.288L12.7202 18.0293H14.4676L12.7952 15.8436C13.6227 15.486 14.136 14.7824 14.136 13.8712ZM27.589 11.4563H26.0579V13.9664L27.589 15.9157V11.4563ZM3.24354 11.4577H0.0500488V18.0221H1.59273V12.8562H3.23633C3.92261 12.8562 4.38974 13.3349 4.38974 13.9174C4.38974 14.4998 3.91972 14.9641 3.23633 14.9641H2.05986L3.14694 16.3583H3.24642C4.99095 16.3583 5.92953 15.2597 5.92953 13.9073C5.92953 12.5549 4.98951 11.4577 3.24354 11.4577ZM16.9719 11.4577H18.5117V18.0235H16.9719V11.4577ZM29.9881 11.4563V12.8851H32.194V18.0221H33.7353V12.8851H35.9426V11.4563H29.9881ZM21.4659 11.4563V18.0221H23.0057V14.3124L25.908 18.0221H27.7303L22.6928 11.4563H21.4659Z" fill="#2A4349"/>
<path d="M15.476 0.124776L13.6815 2.43383L17.9379 7.97583L19.7226 5.64995L15.476 0.124776ZM18.0332 0H16.3467L20.2091 5.00925L21.0573 3.93394L18.0332 0ZM22.2041 2.43383L20.3129 0H19.0118L21.5438 3.29324L22.2041 2.43383Z" fill="#2A4349"/>
</g>
<defs>
<clipPath id="clip0_686_20660">
<rect width="36" height="24" fill="white"/>
</clipPath>
</defs>
</svg>
