<svg width="36" height="24" viewBox="0 0 36 24" fill="none" xmlns="http://www.w3.org/2000/svg">
<path d="M0 11.8893V14H2.03298C3.69593 13.9635 4.14822 13.8904 4.52284 13.7533C5.56447 13.3787 5.98477 12.7665 5.92081 11.6975C5.88426 11.003 5.66497 10.5919 5.14416 10.2355C4.59594 9.86091 4.02258 9.77868 1.93019 9.77868H0V11.8893ZM3.79188 11.0853C4.45888 11.4599 4.43147 12.2914 3.74619 12.6294C3.50863 12.7574 3.19797 12.7939 2.49442 12.7939H1.5533V11.8985C1.5533 11.4051 1.58071 10.9665 1.61726 10.9391C1.64467 10.9025 2.06497 10.8751 2.54924 10.8751C3.28934 10.8751 3.48122 10.9117 3.79188 11.0853Z" fill="black"/>
<path d="M6.69284 11.7888C6.15375 12.8944 5.66492 13.936 5.66492 13.9817C5.76771 13.9817 5.97101 13.9817 6.41872 13.9817H7.19994L7.37355 13.6345L7.54943 13.269H8.70756H9.84512L10.0507 13.6162L10.2334 13.9817H11.0466C11.4852 13.9817 11.7982 13.9817 11.901 13.9817C11.9284 13.9543 11.4669 12.9675 10.8822 11.8345L9.82228 9.77867H8.71669H7.62025L6.69284 11.7888ZM9.02735 11.469C9.19182 11.798 9.31974 12.1086 9.31974 12.1543C9.31974 12.2091 9.03649 12.2457 8.67101 12.2457C8.31466 12.2457 8.04055 12.2091 8.05883 12.1726C8.30553 11.5604 8.6436 10.8751 8.68015 10.8751C8.70756 10.8751 8.86289 11.1401 9.02735 11.469Z" fill="black"/>
<path d="M12.1523 11.8802V13.9909H12.9632H13.7513V13.2279V12.5198L14.7016 12.5198C15.8529 12.5198 16.0082 12.6203 16.0813 13.397L16.1155 13.9909H16.9379H17.7442L17.7168 13.196C17.6803 12.4193 17.6803 12.401 17.3422 12.1178L17.0041 11.8254L17.3239 11.5787C17.598 11.3503 17.6346 11.2772 17.6346 10.8843C17.6346 10.3361 17.397 10.0071 16.9219 9.87006C16.73 9.82438 15.6016 9.77869 14.3681 9.77869H12.1523V11.8802ZM15.8437 10.8386C16.0447 10.9208 16.0265 11.3046 15.8163 11.4234C15.7158 11.469 15.2224 11.5147 14.7199 11.5147H13.797V11.1493V10.7838H14.7473C15.2681 10.7838 15.7615 10.8112 15.8437 10.8386Z" fill="black"/>
<path d="M19.599 9.97971C19.8183 10.7289 20.4214 12.4284 20.467 12.4284C20.5036 12.4284 20.5767 12.2548 20.6315 12.0355C20.6863 11.8254 20.8051 11.4051 20.8873 11.1036C21.0153 10.6467 21.0244 10.4914 20.933 10.1624L20.8097 9.76727H20.1929C19.5716 9.76727 19.5442 9.78783 19.599 9.97971Z" fill="black"/>
<path d="M23.1168 9.87006C23.1168 9.91575 23.1991 10.199 23.2904 10.4822C23.3818 10.7746 23.5554 11.3137 23.6742 11.6701C23.7838 12.0355 23.9026 12.3371 23.93 12.3371C23.9574 12.3371 24.1219 11.9259 24.2864 11.4325C24.5605 10.601 24.5788 10.4914 24.4782 10.1533L24.3731 9.77869H23.7564C23.4092 9.77869 23.1168 9.81524 23.1168 9.87006Z" fill="black"/>
<path d="M26.1412 10.5736C25.9676 11.0213 25.7117 11.6883 25.5655 12.0629C25.4193 12.4376 25.2183 12.9492 25.1269 13.2051C25.0356 13.4518 24.9351 13.735 24.8985 13.8173C24.8437 13.9634 24.8985 13.9817 25.4742 13.9817H26.1229L26.3148 13.4518C26.4153 13.1685 26.5889 12.7208 26.6802 12.4741C26.7808 12.2183 27.0457 11.5513 27.2742 10.9756C27.5026 10.4 27.6967 9.82436 27.6967 9.77867C27.6625 9.77867 27.3997 9.77867 27.0616 9.77867H26.4427L26.1412 10.5736Z" fill="black"/>
<path d="M28.1079 11.8528V13.9817H28.8617H29.6498V11.8528V9.77867H28.8732H28.1079V11.8528Z" fill="black"/>
<path d="M30.1705 11.8528V13.9634L31.002 13.9634L31.7969 13.9634V12.7391V11.4964L33.1127 12.7391L34.4124 13.9634H35.2005L36 13.9634V11.8802V9.77867H35.1776H34.3553V10.9391V12.1086L33.1858 10.9391L31.9797 9.77867H31.0842H30.1705L30.1705 11.8528Z" fill="black"/>
<path d="M22.0659 11.533C21.7462 12.401 21.3372 13.8927 21.3921 13.9475C21.4263 13.9475 21.7004 13.9475 22.0431 13.9475H22.6256L22.6964 13.5614C22.7604 13.2416 22.7238 13.0406 22.4771 12.3005C22.3218 11.8163 22.1665 11.4234 22.1482 11.4234C22.1208 11.4234 22.0842 11.4782 22.0659 11.533Z" fill="black"/>
</svg>
