<svg width="36" height="24" viewBox="0 0 36 24" fill="none" xmlns="http://www.w3.org/2000/svg">
<path d="M35.7869 6.66945C35.9409 6.74645 35.9794 7.01594 35.8254 7.13144C35.7484 7.20844 35.6714 7.20844 35.5944 7.16994C35.5174 7.13144 35.5174 7.05444 35.5559 6.93895C35.5944 6.82345 35.5944 6.78495 35.4789 6.74645C35.3249 6.70795 35.171 6.74645 35.1325 6.86195C35.0555 7.01594 35.1325 7.16994 35.248 7.24694C35.2865 7.28544 35.325 7.32394 35.3634 7.32394C35.4404 7.36243 35.4789 7.36243 35.5559 7.40093C35.9409 7.51643 36.0949 7.86292 35.9409 8.24791C35.7869 8.5944 35.3249 8.7869 35.017 8.7099C34.7475 8.6329 34.5935 8.36341 34.709 8.13242C34.7475 8.01692 34.863 7.93992 34.9785 7.93992C35.1325 7.97842 35.2095 8.05542 35.2095 8.17091C35.2095 8.28641 35.1325 8.32491 35.017 8.32491C35.017 8.47891 35.1325 8.5944 35.2864 8.5944C35.4404 8.5944 35.5559 8.47891 35.6329 8.36341C35.7099 8.17091 35.6329 7.93992 35.4404 7.82442C35.4019 7.78592 35.3249 7.74743 35.2864 7.70893C35.248 7.70893 35.171 7.70893 35.1325 7.67043C34.8245 7.55493 34.7475 7.43943 34.7475 7.20844C34.7475 6.90045 34.9015 6.66945 35.171 6.59245C35.2865 6.55396 35.3634 6.55396 35.4789 6.55396C35.5174 6.55396 35.6714 6.59245 35.7869 6.66945Z" fill="black"/>
<path d="M32.553 18.0651C32.3606 17.9496 32.1296 17.9111 31.9371 17.8341C31.8216 17.7956 31.7831 17.7186 31.8216 17.6031C32.2836 15.8322 32.4376 14.0227 32.4761 12.2133C32.4761 12.0208 32.553 11.7513 32.2066 11.8283C32.1296 11.8668 32.0911 11.7513 32.0911 11.6743C32.0526 11.4818 32.0526 11.2508 31.9756 11.0583C31.9371 10.8658 32.0141 10.8273 32.1681 10.7888C33.2075 10.6348 34.2085 10.4808 35.248 10.2883C35.3635 10.2498 35.4405 10.2883 35.4405 10.4423C35.4405 10.5193 35.479 10.5578 35.479 10.6348C35.5175 10.9813 35.5175 11.0198 35.171 11.1353C35.017 11.1738 35.017 11.2893 35.017 11.4048C35.0555 12.1748 35.094 12.9832 35.171 13.7532C35.2865 14.9467 35.4405 16.1787 35.8255 17.3336C35.941 17.7186 35.941 17.7186 35.556 17.7956C35.325 17.8341 35.094 17.9881 34.9015 17.9111C34.7475 17.7956 34.786 17.5261 34.7475 17.2951C34.632 16.6791 34.555 16.0632 34.478 15.4857C34.4395 15.2932 34.401 15.1777 34.17 15.2547C33.9005 15.3317 33.631 15.3317 33.3615 15.3702C33.246 15.3702 33.169 15.4087 33.1305 15.5627C32.9765 16.4096 32.8225 17.2181 32.6685 18.0651C32.63 18.1036 32.5915 18.1036 32.553 18.0651ZM34.247 12.9832C34.247 12.9832 34.324 11.9053 34.1315 11.8283C33.9005 11.7513 33.631 11.8668 33.3615 11.9053C33.2075 11.9438 33.169 12.0208 33.169 12.1748C33.169 12.7907 33.2075 13.4067 33.2075 14.0227C33.2075 14.1767 33.246 14.2537 33.4 14.2152C33.5925 14.1767 33.8235 14.1767 34.016 14.1382C34.247 14.1382 34.247 14.0227 34.247 13.8302C34.247 13.5607 34.247 13.2527 34.247 12.9832Z" fill="black"/>
<path d="M30.3971 8.82542C30.3201 8.78692 30.2816 8.78692 30.2046 8.74842C30.1661 8.74842 30.1661 8.70992 30.1661 8.67142C30.3201 8.13243 30.3586 7.59345 30.3586 7.01596C30.3586 6.97746 30.3971 6.86197 30.2816 6.90046C30.2431 6.90046 30.2431 6.86197 30.2431 6.86197C30.2431 6.78497 30.2431 6.74647 30.2046 6.66947C30.2046 6.63097 30.2046 6.59247 30.2431 6.59247C30.5511 6.55397 30.8591 6.47698 31.1671 6.43848C31.2056 6.43848 31.2056 6.43848 31.2441 6.47698C31.2441 6.51547 31.2441 6.51547 31.2441 6.55397C31.2441 6.66947 31.2441 6.66947 31.1671 6.70797C31.1286 6.70797 31.1286 6.74647 31.1286 6.78497C31.1671 7.05446 31.1671 7.28546 31.1671 7.51645C31.2056 7.90144 31.2441 8.24793 31.3596 8.59442C31.3981 8.70992 31.3981 8.70992 31.2826 8.74842C31.2056 8.74842 31.1286 8.82542 31.0901 8.78692C31.0516 8.74842 31.0516 8.67142 31.0516 8.59442C31.0131 8.40193 30.9746 8.20943 30.9746 8.01694C30.9746 7.93994 30.9361 7.93994 30.8591 7.93994C30.7821 7.97844 30.7051 7.97844 30.6281 7.97844C30.5896 7.97844 30.5896 7.97844 30.5511 8.01694C30.5126 8.32493 30.4741 8.55592 30.3971 8.82542ZM30.9361 7.24696C30.9361 7.24696 30.9746 6.90046 30.8976 6.90046C30.8206 6.86197 30.7436 6.90046 30.6666 6.93896C30.6281 6.93896 30.5896 6.97746 30.5896 7.01596C30.5896 7.20846 30.5896 7.40095 30.5896 7.59345C30.5896 7.63195 30.5896 7.67045 30.6666 7.67045C30.7436 7.67045 30.7821 7.67045 30.8591 7.63195C30.9361 7.63195 30.9361 7.59345 30.9361 7.55495C30.9361 7.43945 30.9361 7.36245 30.9361 7.24696Z" fill="black"/>
<path d="M18.6164 18.0651C18.4239 17.9496 18.1929 17.9111 18.0004 17.8341C17.8849 17.7956 17.8464 17.7186 17.8849 17.6031C18.3469 15.8322 18.5009 14.0227 18.5394 12.2133C18.5394 12.0208 18.6164 11.7513 18.2699 11.8283C18.1929 11.8668 18.1544 11.7513 18.1544 11.6743C18.1159 11.4818 18.1159 11.2508 18.0389 11.0583C18.0004 10.8658 18.0774 10.8273 18.2314 10.7888C19.2709 10.6348 20.2719 10.4808 21.3113 10.2883C21.4268 10.2498 21.5038 10.2883 21.5038 10.4423C21.5038 10.5193 21.5423 10.5578 21.5423 10.6348C21.5808 10.9813 21.5808 11.0198 21.2343 11.1353C21.0803 11.1738 21.0803 11.2893 21.0803 11.4048C21.1188 12.1748 21.1573 12.9832 21.2343 13.7532C21.3498 14.9467 21.5038 16.1787 21.8888 17.3336C22.0043 17.7186 22.0043 17.7186 21.6193 17.7956C21.3883 17.8341 21.1573 17.9881 20.9648 17.9111C20.8108 17.7956 20.8493 17.5261 20.8108 17.2951C20.6953 16.6791 20.6184 16.0632 20.5414 15.4857C20.5029 15.2932 20.4644 15.1777 20.2334 15.2547C19.9639 15.3317 19.6944 15.3317 19.4249 15.3702C19.3094 15.3702 19.2324 15.4087 19.1939 15.5627C19.0399 16.4096 18.8859 17.2181 18.7319 18.0651C18.6934 18.1036 18.6549 18.1036 18.6164 18.0651ZM20.3104 12.9832C20.3104 12.9832 20.3874 11.9053 20.1949 11.8283C19.9639 11.7513 19.6944 11.8668 19.4249 11.9053C19.2709 11.9438 19.2324 12.0208 19.2324 12.1748C19.2324 12.7907 19.2709 13.4067 19.2709 14.0227C19.2709 14.1767 19.3094 14.2537 19.4634 14.2152C19.6559 14.1767 19.8869 14.1767 20.0794 14.1382C20.3104 14.1382 20.3104 14.0227 20.3104 13.8302C20.3104 13.5607 20.3104 13.2527 20.3104 12.9832Z" fill="black"/>
<path d="M4.48725 18.0651C4.29476 17.9496 4.06376 17.9111 3.87127 17.8341C3.75577 17.7956 3.71727 17.7186 3.75577 17.6031C4.21776 15.8322 4.37175 14.0227 4.41025 12.2133C4.41025 12.0208 4.48725 11.7513 4.14076 11.8283C4.06376 11.8668 4.02526 11.7513 4.02526 11.6743C3.98676 11.4818 3.98676 11.2508 3.90977 11.0583C3.87127 10.8658 3.94827 10.8273 4.10226 10.7888C5.14174 10.6348 6.14271 10.4808 7.18218 10.2883C7.29768 10.2498 7.37468 10.2883 7.37468 10.4423C7.37468 10.5193 7.41318 10.5578 7.41318 10.6348C7.45168 10.9813 7.45168 11.0198 7.10519 11.1353C6.91269 11.2123 6.91269 11.3278 6.91269 11.4433C6.95119 12.2133 6.98969 13.0217 7.06669 13.7917C7.18218 14.9852 7.33618 16.2172 7.72117 17.3721C7.83667 17.7571 7.83667 17.7571 7.45168 17.8341C7.22068 17.8726 6.98969 18.0266 6.79719 17.9496C6.6432 17.8341 6.6817 17.5646 6.6432 17.3336C6.5277 16.7176 6.4507 16.1017 6.3737 15.5242C6.33521 15.3317 6.29671 15.2162 6.06571 15.2932C5.79622 15.3702 5.52673 15.3702 5.25723 15.4087C5.14174 15.4087 5.06474 15.4472 5.02624 15.6012C4.87224 16.4481 4.71825 17.2566 4.56425 18.1036C4.60275 18.1421 4.52575 18.1036 4.48725 18.0651ZM6.21971 12.9832C6.21971 12.9832 6.29671 11.9053 6.10421 11.8283C5.87322 11.7513 5.60372 11.8668 5.33423 11.9053C5.18023 11.9438 5.14173 12.0208 5.14173 12.1748C5.14173 12.7907 5.18023 13.4067 5.18023 14.0227C5.18023 14.1767 5.21873 14.2537 5.37273 14.2152C5.56522 14.1767 5.79622 14.1767 5.98871 14.1382C6.21971 14.1382 6.21971 14.0227 6.21971 13.8302C6.18121 13.5607 6.21971 13.2527 6.21971 12.9832Z" fill="black"/>
<path d="M26.2392 7.36236C26.3547 7.47785 26.3932 7.59335 26.4317 7.70885C26.6242 8.28633 26.7012 8.90232 26.7782 9.4798C26.8167 9.90329 26.8552 9.90329 27.3172 10.0188C27.2787 9.6338 27.2402 9.24881 27.2017 8.90232C27.1247 8.36333 27.0862 7.86284 27.0092 7.32386C26.8937 6.39988 26.2392 6.09189 25.4307 6.59238C24.8532 6.93887 24.2757 7.13136 23.5827 7.01587C23.0438 6.93887 22.6203 6.59238 22.2353 6.24589C21.9658 6.01489 21.7348 5.7839 21.4268 5.6299C20.6568 5.16791 19.8483 5.12941 19.0399 5.4759C18.3084 5.7454 17.8849 6.43838 17.6924 7.16986C17.5769 7.67035 17.4999 8.20934 17.4229 8.70982C17.3459 9.21031 17.1919 9.32581 16.6914 9.40281C15.6904 9.5183 14.6895 9.5568 13.6885 9.7108C13.3035 9.7493 12.9185 9.90329 12.572 10.0573C12.957 9.7493 13.4575 9.5953 13.958 9.5183C14.805 9.40281 15.6519 9.36431 16.4604 9.17181C17.1149 9.01782 17.1919 8.90232 17.3074 8.20934C17.3844 7.78585 17.4229 7.36236 17.5769 6.93887C17.9234 5.97639 18.5394 5.24491 19.6173 5.05242C20.6568 4.89842 21.5808 5.05242 22.3123 5.93789C22.6588 6.36138 23.1208 6.63088 23.6212 6.82337C23.9677 6.93887 24.2372 6.90037 24.5067 6.82337C24.8147 6.74637 25.0842 6.59238 25.3537 6.43838C25.5847 6.28438 25.8542 6.20739 26.1237 6.16889C26.7012 6.13039 27.0862 6.43838 27.2402 7.01587C27.4326 7.78585 27.3941 8.55583 27.4326 9.32581C27.4326 9.5953 27.4326 9.90329 27.5481 10.0958C27.7406 10.4423 27.7791 10.8273 27.8561 11.2123C28.1256 12.4057 28.3566 13.5992 28.5876 14.7542C28.5876 14.7927 28.6261 14.8312 28.6261 14.9082C28.7416 14.7542 28.7801 14.5617 28.8571 14.4077C29.3191 13.0987 29.5501 11.7512 29.8196 10.4038C29.8966 10.0188 29.8966 10.0188 30.2431 9.98029C30.5126 9.94179 30.7436 9.94179 31.0131 9.94179C30.4741 11.6742 30.7051 13.4452 30.8976 15.2162C30.9746 15.9476 31.1286 16.6406 31.3211 17.3721C30.8591 17.3336 30.4741 17.2951 30.0506 17.2566C29.9351 17.2566 29.9736 17.1411 30.0121 17.0641C30.0891 16.3326 30.1276 15.5627 30.0891 14.8312C30.0506 14.3692 29.9736 13.9072 29.7426 13.4452C29.3961 14.7542 29.0881 16.0631 28.7416 17.4106C28.7416 17.4491 28.7031 17.4491 28.6646 17.4106C28.2796 16.1401 27.8561 14.9082 27.4711 13.6377C27.3941 13.4067 27.3941 13.3297 27.3941 13.6377C27.3941 13.9072 27.3941 14.1767 27.3941 14.4077C27.3941 15.4857 27.3941 16.5636 27.5866 17.6416C27.6251 17.7571 27.5866 17.7571 27.4711 17.7571C27.1632 17.7571 26.8552 17.7571 26.5472 17.7956C26.3547 17.7956 26.3932 17.6801 26.4317 17.5646C26.6242 15.7166 26.7782 13.9072 26.7012 12.0592C26.6627 11.2893 26.5857 10.5578 26.3547 9.8263C26.3162 9.7493 26.2007 9.6338 26.4317 9.6338C26.5472 9.6338 26.4702 9.5183 26.4702 9.44131C26.4317 8.74832 26.3547 8.09384 26.2007 7.40086C26.2392 7.47785 26.2392 7.43936 26.2392 7.36236Z" fill="black"/>
<path d="M24.6223 7.63184C24.9688 8.51731 25.1228 9.40279 25.1998 10.3268C25.2383 10.5963 25.2768 10.8273 25.5463 11.0198C26.0853 11.3277 26.1238 12.0977 25.7003 12.5212C25.4693 12.7522 25.1613 12.7907 24.9303 12.6367C24.6993 12.4827 24.6608 12.2517 24.8148 11.9437C24.9688 11.6357 24.8918 11.4817 24.5838 11.3662C24.0448 11.2122 23.6213 11.3662 23.4289 11.7897C23.2364 12.2132 23.3904 12.7907 23.8523 13.0602C23.9678 13.1372 24.1218 13.2142 24.2758 13.2527C24.4683 13.3297 24.6608 13.3682 24.8533 13.4452C26.0853 13.8687 26.5858 14.9467 26.0853 16.1401C25.6233 17.2566 24.1603 17.9496 23.0824 17.6031C22.1969 17.3336 21.7349 16.4866 22.0429 15.6781C22.1969 15.2546 22.5819 15.0237 22.9669 15.1006C23.4289 15.1776 23.6983 15.4856 23.6983 15.9091C23.6983 16.2941 23.5058 16.4481 23.1209 16.4096C23.1209 16.8716 23.5443 17.2566 24.0448 17.2566C24.5453 17.2181 24.9688 16.9101 25.1228 16.4481C25.3538 15.8321 25.0843 15.0622 24.5453 14.7157C24.3913 14.6002 24.1988 14.5232 24.0063 14.4462C23.8523 14.3692 23.6983 14.3307 23.5058 14.2537C22.5434 13.9072 22.2739 13.5607 22.2739 12.7522C22.3124 11.7127 22.7744 10.9813 23.6598 10.7118C23.9678 10.6348 24.2758 10.5963 24.5838 10.6348C24.8148 10.6733 24.8533 10.6348 24.8533 10.3653C24.8148 9.47979 24.7763 8.63281 24.5838 7.74733C24.5453 7.70883 24.5453 7.67033 24.6223 7.63184Z" fill="black"/>
<path d="M9.26113 13.7917C9.22263 14.9082 9.03014 15.9477 9.14563 16.9872C9.18413 17.1412 9.14563 17.2182 8.95314 17.1412C8.72215 17.0642 8.45265 16.9872 8.22166 16.9487C8.02916 16.9102 7.99066 16.8332 8.02916 16.6407C8.29866 15.1777 8.52965 13.7148 8.49115 12.2133C8.49115 11.8668 8.45265 11.4818 8.45265 11.1353C8.45265 10.9813 8.49115 10.9043 8.64515 10.9428C8.87614 10.9428 9.14563 10.8658 9.33813 10.9813C9.53062 11.0583 9.49213 11.3663 9.56912 11.5973C9.95411 12.7138 10.4161 13.7917 11.0706 14.7927C11.1476 14.9082 11.3016 15.1777 11.3786 15.1777C11.4171 15.1777 11.4171 14.9467 11.4171 14.8697C11.3786 13.4453 11.3786 12.0208 11.3401 10.6348C11.3401 10.4038 11.3786 10.3268 11.6096 10.2883C12.1871 10.1728 12.1871 10.1728 12.1486 10.7118C12.0331 12.5983 12.1101 14.4847 12.2256 16.4097C12.2641 16.7177 12.2641 17.0257 12.2641 17.3337C12.2641 17.4107 12.3026 17.4877 12.2256 17.4877C12.0716 17.4877 11.8791 17.4877 11.7251 17.4877C11.4941 17.5262 11.4556 17.3337 11.3786 17.2182C10.7241 16.1402 10.0696 15.0237 9.41513 13.9457C9.33813 13.9072 9.29963 13.8687 9.26113 13.7917Z" fill="black"/>
<path d="M17.346 10.1729C17.423 10.1729 17.5 10.2114 17.5 10.2883C17.5385 10.5193 17.5385 10.7888 17.5385 11.0198C17.5385 11.1738 17.3845 11.1353 17.3075 11.1738C16.8455 11.2893 16.345 11.3663 15.883 11.4433C15.498 11.5203 15.498 11.5588 15.498 11.9438C15.498 13.6378 15.575 15.3317 15.9215 17.0257C15.96 17.2182 16.037 17.4107 16.0755 17.6032C16.114 17.7572 16.0755 17.7957 15.96 17.7957C15.7675 17.7957 15.5365 17.7957 15.344 17.7957C14.882 17.7957 14.9205 17.8727 14.9205 17.3722C14.9205 16.5637 14.9205 15.7167 14.882 14.9082C14.8435 13.9843 14.7665 13.0218 14.5355 12.0978C14.4585 11.8668 14.3815 11.7898 14.1505 11.8283C13.7655 11.9053 13.4191 11.9438 13.0341 12.0208C12.9186 12.0593 12.8416 11.9823 12.8416 11.8668C12.8031 11.4818 12.7646 11.1353 12.7261 10.7503C12.7261 10.5963 12.7646 10.5578 12.9186 10.5578C14.3815 10.6348 15.883 10.4808 17.346 10.1729Z" fill="black"/>
<path d="M2.40833 13.0216C2.44683 13.4836 2.36983 13.9456 2.36983 14.4846C2.10034 14.1381 1.75384 14.0996 1.40735 14.2151C1.17636 14.2536 1.13786 14.2921 1.13786 14.4846C1.09936 15.5241 1.25336 16.5635 1.59985 17.526C1.67685 17.7955 1.67685 17.7955 1.40735 17.7955C1.13786 17.7955 0.868367 17.7955 0.598874 17.7955C0.406379 17.7955 0.329381 17.757 0.36788 17.5645C0.406379 16.8715 0.444878 16.1401 0.444878 15.4471C0.444878 13.7916 0.406379 12.1747 0.0213884 10.5577C-0.0171107 10.4807 -0.0171107 10.4037 0.136885 10.4037C1.13786 10.4422 2.10034 10.1342 3.06281 9.94171C3.21681 9.90321 3.4093 9.90321 3.5633 9.86472C3.6788 9.82622 3.75579 9.86472 3.7173 10.0187C3.6403 10.4422 3.5633 10.8272 3.4093 11.2122C3.3708 11.3277 3.33231 11.3277 3.21681 11.2892C2.60082 10.9042 1.98484 11.0197 1.36885 11.2122C1.29186 11.2507 1.25336 11.2892 1.21486 11.4047C1.09936 11.9437 1.06086 12.4826 1.09936 13.0601C1.09936 13.2526 1.17636 13.3681 1.40735 13.3681C1.75384 13.2911 2.06184 13.1756 2.40833 13.0216Z" fill="black"/>
<path d="M20.3103 10.1343C19.9253 10.1343 19.6174 9.9803 19.3094 9.78781C18.8859 9.51832 18.5394 9.17183 18.2699 8.78683C18.1544 8.67134 18.1159 8.51734 18.1929 8.36335C18.2699 8.20935 18.4624 8.20935 18.6164 8.20935C18.9244 8.24785 19.2324 8.28635 19.5404 8.32485C19.8483 8.36335 20.1563 8.32485 20.3873 8.13235C20.8108 7.78586 21.2728 7.47787 21.6963 7.13138C21.8118 7.05438 21.9273 6.93888 22.0813 6.86188C22.2738 6.74639 22.3893 6.82338 22.3893 7.01588C22.4278 7.20837 22.3893 7.43937 22.2738 7.63186C21.9658 8.32485 21.5808 9.01783 21.2343 9.67231C21.0033 9.9803 20.7338 10.1728 20.3103 10.1343Z" fill="black"/>
<path d="M31.5906 6.28442C31.8601 6.32292 32.0141 6.43842 32.0526 6.70791C32.0911 7.0929 32.2066 7.43939 32.2836 7.90138C32.4761 7.43939 32.553 7.0544 32.63 6.66941C32.707 6.36142 32.6685 6.36142 33.015 6.39992C32.861 7.0929 32.938 7.78589 33.092 8.47887C33.092 8.55587 33.1305 8.63286 33.092 8.67136C33.015 8.70986 32.8995 8.67136 32.8225 8.67136C32.707 8.59437 32.707 8.51737 32.7455 8.44037C32.7455 8.13238 32.784 7.82439 32.63 7.43939C32.5146 7.86288 32.4376 8.24787 32.3221 8.59437C32.3221 8.63286 32.2836 8.63286 32.2836 8.59437C32.1681 8.24787 32.0526 7.90138 31.9371 7.59339C31.8601 7.90138 31.8601 8.20938 31.8986 8.51737C31.8986 8.59437 31.9756 8.70986 31.8601 8.74836C31.7831 8.78686 31.6676 8.78686 31.6291 8.74836C31.5136 8.70986 31.5906 8.59437 31.5906 8.51737C31.6676 7.78589 31.7831 7.0544 31.5906 6.28442Z" fill="black"/>
<path d="M29.7811 8.51732C29.3961 9.01781 28.9341 8.94081 28.7416 8.40182C28.5106 7.86284 28.5876 7.32385 28.8571 6.78486C28.9341 6.63087 29.0881 6.51537 29.2421 6.47687C29.5116 6.39987 29.7811 6.47687 29.8966 6.70787C30.0121 6.93886 29.9736 7.36235 29.8196 7.51635C29.7041 7.59334 29.5886 7.63184 29.5116 7.55485C29.3961 7.43935 29.3961 7.32385 29.4731 7.16985C29.5501 7.05436 29.6656 7.13136 29.7426 7.32385C29.8196 7.05436 29.7426 6.86186 29.5501 6.78486C29.3576 6.70787 29.1651 6.82336 29.0496 7.05436C28.8571 7.51635 28.8571 7.97833 29.0881 8.44032C29.1266 8.55582 29.2421 8.67132 29.3961 8.63282C29.5501 8.59432 29.5886 8.40182 29.5886 8.28633C29.5886 8.17083 29.5116 8.20933 29.4346 8.20933C29.3576 8.17083 29.2421 8.24783 29.2421 8.09383C29.2036 7.93984 29.3191 7.93984 29.4346 7.93984C29.6271 7.90134 29.8196 7.82434 30.0121 7.78584C30.0891 7.78584 30.1661 7.67034 30.2046 7.82434C30.2046 7.90134 30.2816 8.05533 30.1661 8.09383C29.9736 8.13233 30.0121 8.28633 30.0121 8.40182C30.0121 8.51732 30.0506 8.67132 30.0506 8.78681C30.0506 8.82531 30.0891 8.94081 30.0121 8.94081C29.9351 8.94081 29.8581 8.90231 29.8581 8.82531C29.7811 8.70982 29.7811 8.63282 29.7811 8.51732Z" fill="black"/>
<path d="M18.501 6.97735C18.501 6.74636 18.5395 6.55386 18.6935 6.36137C18.9245 6.05337 19.3095 6.01487 19.5405 6.36137C19.7714 6.70786 19.8099 7.09285 19.6559 7.43934C19.5789 7.67033 19.3865 7.82433 19.117 7.82433C18.8475 7.82433 18.6935 7.67033 18.6165 7.47784C18.501 7.32384 18.501 7.16985 18.501 6.97735Z" fill="black"/>
<path d="M34.4011 8.28644C34.4396 8.28644 34.4781 8.28644 34.4781 8.32494C34.5166 8.55594 34.4011 8.63294 34.1316 8.63294C33.9006 8.63294 33.6696 8.67143 33.4386 8.67143C33.2846 8.67143 33.2461 8.63294 33.2461 8.47894C33.3616 7.90145 33.3616 7.36247 33.2846 6.78498C33.2461 6.55399 33.3231 6.47699 33.5541 6.51549C33.6696 6.51549 33.8236 6.47699 33.9391 6.47699C34.0161 6.47699 34.1701 6.36149 34.1701 6.55399C34.1701 6.70798 34.1316 6.82348 33.9391 6.78498C33.8236 6.78498 33.6311 6.66948 33.5926 6.93898C33.5541 7.28547 33.5926 7.36247 33.9391 7.28547C34.0546 7.24697 34.0931 7.32397 34.0931 7.40097C34.0931 7.51646 34.0546 7.51646 33.9391 7.51646C33.5926 7.51646 33.5541 7.55496 33.5541 7.90145C33.5541 8.36344 33.5926 8.36344 34.0546 8.28644C34.2086 8.32494 34.3241 8.32494 34.4011 8.28644Z" fill="black"/>
<path d="M21.8889 6.24583C21.8889 6.36132 21.8119 6.36132 21.6964 6.36132C21.5424 6.36132 21.3884 6.39982 21.2344 6.39982C20.9649 6.43832 20.6954 6.51532 20.5029 6.74631C20.4644 6.78481 20.4259 6.86181 20.3489 6.82331C20.3104 6.78481 20.3104 6.74632 20.3104 6.66932C20.3874 6.13033 21.2344 5.70684 21.6964 6.01483C21.8119 6.09183 21.8504 6.16883 21.8889 6.24583Z" fill="black"/>
</svg>
