<svg width="36" height="24" viewBox="0 0 36 24" fill="none" xmlns="http://www.w3.org/2000/svg">
<g clip-path="url(#clip0_23_18264)">
<path fill-rule="evenodd" clip-rule="evenodd" d="M7.30093 1.75788C7.4335 1.78351 7.56553 1.81982 7.69706 1.86681C7.83464 1.89385 7.93039 1.96977 7.98426 2.09459C7.99747 2.22003 7.99747 2.34547 7.98426 2.47091C7.75118 3.30227 7.49369 4.12755 7.2118 4.94673C7.13117 5.24687 7.06516 5.55059 7.01374 5.85782C6.95695 6.00439 6.88432 6.14304 6.79587 6.27376C6.36825 7.60789 6.01173 8.96135 5.72632 10.3341C5.61833 10.5171 5.52589 10.7085 5.44902 10.9085C5.43581 11.0075 5.43581 11.1066 5.44902 11.2056C5.46885 11.2585 5.49856 11.3048 5.53815 11.3442C5.78976 11.4248 6.04065 11.5073 6.2908 11.5918C5.85163 11.8411 5.40929 12.0854 4.96376 12.3247C4.86804 12.394 4.78551 12.4765 4.71618 12.5722C4.65488 12.8212 4.60206 13.0721 4.55773 13.3249C4.42122 13.675 4.342 14.0381 4.32005 14.4142C4.29462 14.4797 4.26822 14.5458 4.24083 14.6123C4.23742 14.7054 4.22752 14.7979 4.21112 14.8896C4.13239 14.932 4.06966 14.9914 4.02296 15.0679C3.99899 15.2383 3.98578 15.41 3.98334 15.5828C3.89643 15.8424 3.80399 16.0999 3.70605 16.3553C3.67018 16.5971 3.61736 16.8347 3.5476 17.0683C3.541 17.207 3.53439 17.3456 3.52779 17.4843C3.48539 17.5401 3.42925 17.5665 3.35944 17.5635C3.36267 17.6102 3.35938 17.6564 3.34953 17.7021C3.25403 18.0115 3.16159 18.3218 3.07224 18.633C3.05917 18.6835 3.06248 18.733 3.08215 18.7816C3.01409 18.9527 2.95796 19.1277 2.91379 19.3064C2.90719 19.5705 2.90058 19.8346 2.89398 20.0987C2.72989 20.1902 2.59784 20.3156 2.49785 20.475C2.41017 20.6571 2.31775 20.8353 2.22056 21.0098C2.1965 21.1356 2.17338 21.261 2.15124 21.3861C2.09552 21.3766 2.05591 21.3964 2.0324 21.4456C2.02018 21.4477 2.01028 21.4543 2.00269 21.4654C1.99938 21.4917 1.99609 21.5182 1.99279 21.5446C2.0321 21.7082 2.05522 21.8732 2.06211 22.0398C2.03977 22.1546 1.97375 22.2339 1.86404 22.2774C1.81926 22.1893 1.78624 22.0968 1.76501 22.0001C1.74835 21.8134 1.72524 21.6286 1.69569 21.4456C1.69896 21.3727 1.69567 21.3 1.68579 21.2277C1.57899 20.6475 1.47996 20.0666 1.38869 19.4847C1.34331 19.0871 1.34991 18.6909 1.40849 18.2963C1.66045 17.0482 1.93774 15.807 2.24037 14.5727C2.39912 13.8326 2.55757 13.0932 2.71572 12.3544C3.16797 12.1002 3.62023 11.846 4.07247 11.5918C3.83073 11.5057 3.58646 11.4298 3.33963 11.364C3.34623 11.2848 3.35284 11.2056 3.35944 11.1264C2.85465 11.0214 2.35289 10.9058 1.85414 10.7797C1.36528 10.1816 1.02526 9.50494 0.834106 8.74958C0.525409 7.51131 0.370259 6.2536 0.368652 4.97643C0.383458 4.17374 0.413167 3.37157 0.457782 2.56994C0.484425 2.41106 0.543845 2.26581 0.63604 2.1342C0.721943 2.03182 0.811073 1.93278 0.903428 1.8371C1.02173 1.78539 1.14057 1.78539 1.25995 1.8371C1.44682 1.94052 1.63167 2.04946 1.81453 2.16391C1.88823 2.242 1.94436 2.33113 1.98288 2.4313C1.98568 2.6131 2.01208 2.79136 2.06211 2.96607C2.10564 3.09008 2.14526 3.21554 2.18095 3.3424C2.27071 3.45583 2.34003 3.58126 2.38892 3.71872C2.37186 3.77868 2.34215 3.8315 2.29979 3.87717C2.28658 3.93659 2.28658 3.99601 2.29979 4.05543C2.346 4.11485 2.39223 4.17427 2.43843 4.23369C2.4545 4.45931 2.48092 4.68377 2.51766 4.90711C2.53891 5.04497 2.57853 5.177 2.6365 5.30324C2.64595 5.46201 2.65916 5.62046 2.67611 5.7786C2.75639 6.13371 2.829 6.49023 2.89398 6.84815C3.05341 7.40012 3.17225 7.9613 3.2505 8.5317C3.37423 8.47516 3.46996 8.38934 3.5377 8.27422C3.60696 8.20197 3.65648 8.11614 3.68624 8.01674C3.69284 7.91111 3.69946 7.80546 3.70605 7.69983C3.8017 7.65202 3.89413 7.59921 3.98334 7.54138C4.4234 6.87253 4.77992 6.1595 5.05289 5.40228C5.27162 4.63382 5.54891 3.88777 5.88477 3.16414C6.09624 2.75412 6.34713 2.37119 6.63742 2.01536C6.7252 1.91751 6.82092 1.83168 6.92461 1.75788C7.05028 1.70734 7.17574 1.70734 7.30093 1.75788Z" fill="black"/>
<path fill-rule="evenodd" clip-rule="evenodd" d="M35.3272 2.41149C35.4359 2.57598 35.5448 2.74103 35.654 2.90665C35.6672 2.99909 35.6672 3.09151 35.654 3.18395C35.3392 4.68706 35.0356 6.19236 34.7429 7.69983C34.6308 8.47722 34.5317 9.25627 34.4458 10.037C34.3794 10.449 34.3166 10.8616 34.2576 11.2749C34.2588 11.3033 34.2653 11.3298 34.2774 11.3541C34.5232 11.4294 34.7674 11.5087 35.0103 11.5918C34.5975 11.8279 34.1815 12.059 33.7624 12.285C33.7088 12.31 33.6658 12.3463 33.6337 12.394C33.5759 12.9164 33.5097 13.438 33.4356 13.9587C33.4063 14.0571 33.3766 14.1561 33.3465 14.2558C33.3564 14.5201 33.3596 14.7842 33.3564 15.048C33.3192 15.1448 33.2728 15.2372 33.2178 15.3253C33.2047 15.4084 33.2079 15.491 33.2277 15.5729C33.177 15.8591 33.1342 16.1463 33.0989 16.4345C33.0896 16.779 33.0666 17.1223 33.0296 17.4644C33.0003 17.4593 32.9739 17.4658 32.9504 17.4843C32.9781 17.5479 32.9979 17.6139 33.0098 17.6823C32.9809 17.9269 32.9512 18.1712 32.9207 18.4152C32.891 18.4581 32.8612 18.501 32.8315 18.5439C32.8486 18.5575 32.8616 18.574 32.8712 18.5934C32.8393 18.6956 32.7996 18.7946 32.7523 18.8905C32.6931 18.9166 32.6467 18.9562 32.6137 19.0094C32.5641 19.0951 32.5047 19.1743 32.4354 19.247C32.3774 19.164 32.3245 19.0781 32.277 18.9895C32.2641 18.9014 32.2409 18.8156 32.2076 18.7321C32.1969 18.58 32.2003 18.4282 32.2175 18.2765C32.2116 18.1349 32.1884 17.9963 32.1482 17.8606C32.1042 17.1144 32.0579 16.3684 32.0096 15.6224C31.9963 15.5695 31.9731 15.5233 31.9402 15.4838C31.9359 15.4473 31.9292 15.411 31.9204 15.3749C31.9591 15.1448 32.0052 14.917 32.0591 14.6915C32.0236 14.6859 31.9908 14.6925 31.9601 14.7113C31.5697 15.4922 31.19 16.2778 30.8212 17.0683C30.6435 17.2855 30.4817 17.5133 30.3359 17.7516C30.2579 17.7878 30.1787 17.7911 30.0982 17.7615C30.1046 17.8288 30.098 17.8949 30.0784 17.9596C30.0444 17.9366 30.0113 17.9399 29.9794 17.9695C29.7631 18.1335 29.5518 18.3018 29.3456 18.4746C29.2378 18.478 29.1255 18.478 29.0089 18.4746C28.9003 18.455 28.7882 18.4484 28.6722 18.4548C28.67 18.5058 28.6833 18.5521 28.7118 18.5934C28.7558 18.6795 28.7359 18.7455 28.6524 18.7915C28.5529 18.7118 28.4539 18.6326 28.3553 18.5538C28.3553 18.5406 28.3487 18.534 28.3355 18.534C28.2459 18.4413 28.1469 18.3588 28.0384 18.2864C27.7389 17.9172 27.5375 17.498 27.4343 17.0287C27.3626 16.7158 27.2833 16.4055 27.1966 16.0978C27.2037 15.9728 27.2037 15.8473 27.1966 15.7215C27.1879 15.5776 27.1647 15.439 27.1273 15.3055C27.1336 15.2021 27.1336 15.0965 27.1273 14.9886C27.0787 14.9776 27.0326 14.9776 26.9886 14.9886C26.9165 15.1101 26.8407 15.229 26.7608 15.3451C26.3514 15.8205 25.9422 16.2959 25.5328 16.7712C24.9384 17.3725 24.2817 17.8908 23.5621 18.326C23.3408 18.4293 23.1164 18.5185 22.8887 18.5934C22.7827 18.6461 22.6771 18.6461 22.5718 18.5934C22.2228 18.4592 21.9554 18.2281 21.7696 17.9002C21.6838 17.7417 21.5979 17.5833 21.5121 17.4248C21.4424 17.2654 21.3895 17.1003 21.3537 16.9297C21.257 16.5039 21.1976 16.0747 21.1754 15.6422C21.1782 14.7753 21.2245 13.9104 21.314 13.0476C21.3554 12.8171 21.3951 12.586 21.4329 12.3544C21.8851 12.1002 22.3375 11.846 22.7896 11.5918C22.5484 11.5059 22.304 11.4299 22.0568 11.364C22.0609 11.2418 22.0841 11.1229 22.1261 11.0075C22.136 10.9712 22.1592 10.9481 22.1954 10.9382C22.1695 10.8592 22.1794 10.7833 22.2251 10.7104C22.278 10.6312 22.3307 10.552 22.3836 10.4727C22.7023 9.72944 23.0919 9.02962 23.5522 8.37325C23.8364 8.06463 24.1499 7.79064 24.493 7.55128C24.7635 7.40945 25.0276 7.25759 25.2853 7.09573C25.4164 7.04212 25.5485 6.9992 25.6814 6.96699C25.8333 6.94168 25.9852 6.94168 26.1369 6.96699C26.5683 7.03253 26.9282 7.2306 27.2164 7.56119C27.3513 7.73505 27.4933 7.9034 27.6422 8.06625C27.7064 8.10377 27.7757 8.12688 27.8502 8.13557C28.0421 8.7182 28.0883 9.3124 27.9888 9.91816C27.9064 10.0169 27.8338 10.1225 27.771 10.2351C27.6743 10.5252 27.562 10.8091 27.4343 11.0867C27.398 11.1231 27.3616 11.1594 27.3253 11.1957C27.2085 11.2363 27.0964 11.2858 26.9886 11.3442C27.232 11.4286 27.4762 11.5112 27.7215 11.5918C27.2328 11.8691 26.7444 12.1464 26.2558 12.4237C26.0589 12.5941 25.8905 12.7888 25.7507 13.008C25.678 13.0608 25.6055 13.1136 25.5328 13.1664C25.5229 13.2454 25.5196 13.3246 25.5229 13.4041C25.2712 13.4543 25.149 13.6061 25.1565 13.8597C25.1401 13.8762 25.1234 13.8927 25.107 13.9092C24.9317 13.9323 24.7897 14.0148 24.6812 14.1568C24.5532 14.3904 24.3948 14.6017 24.2058 14.7906C24.1167 14.9557 24.0176 15.1141 23.9087 15.2659C23.7691 15.3934 23.6205 15.509 23.4631 15.6125C23.3278 15.7611 23.1923 15.9096 23.057 16.0582C23.0119 16.131 22.9887 16.2103 22.9877 16.2959C23.015 16.4603 23.0382 16.6253 23.057 16.791C23.082 16.8325 23.1182 16.8523 23.166 16.8504C23.247 16.833 23.3197 16.7999 23.3838 16.7514C23.6049 16.6177 23.8162 16.4691 24.0176 16.3058C24.8856 15.5037 25.7769 14.7313 26.6915 13.9884C26.8716 13.8283 27.0134 13.6401 27.1174 13.4239C27.213 13.33 27.3186 13.2508 27.4343 13.1862C27.5464 12.9192 27.6488 12.6485 27.7413 12.3742C27.772 12.3553 27.8048 12.3487 27.8403 12.3544C27.8403 12.4534 27.8403 12.5524 27.8403 12.6515C27.8666 12.6515 27.8932 12.6515 27.9195 12.6515C27.9455 12.5434 27.9851 12.441 28.0384 12.3445C28.4874 12.0936 28.9362 11.8427 29.3852 11.5918C29.1422 11.5096 28.8978 11.4303 28.6524 11.3541C28.6433 11.3459 28.6367 11.336 28.6326 11.3244C28.7209 11.089 28.8035 10.8513 28.8801 10.6114C28.8986 10.4326 28.9184 10.2544 28.9396 10.0766C29.342 9.30434 29.8372 8.5979 30.425 7.95732C30.5025 7.89708 30.5851 7.84426 30.6726 7.79886C30.6211 7.7334 30.5552 7.68717 30.4746 7.66022C30.4526 7.63599 30.4492 7.60959 30.4647 7.58099C30.6514 7.48267 30.8265 7.36714 30.9895 7.23438C31.1304 7.16365 31.2755 7.11413 31.4253 7.08583C31.511 7.08583 31.597 7.08583 31.6828 7.08583C31.7877 7.10581 31.8933 7.10912 31.9997 7.09573C32.0476 7.06462 32.0741 7.02172 32.0789 6.96699C32.0789 6.94718 32.0789 6.92738 32.0789 6.90757C32.1926 6.91001 32.3047 6.92322 32.4156 6.94718C32.625 7.05457 32.8428 7.14699 33.0692 7.22447C33.0758 7.18486 33.0825 7.14525 33.089 7.10564C33.1611 6.58518 33.2435 6.06361 33.3366 5.54092C33.3978 5.27789 33.4671 5.01712 33.5446 4.75856C33.7575 4.13147 33.9787 3.50756 34.2081 2.88685C34.2899 2.66198 34.4384 2.50353 34.6537 2.41149C34.6801 2.41149 34.7066 2.41149 34.733 2.41149C34.8162 2.41777 34.8954 2.41116 34.9706 2.39168C35.0715 2.3931 35.1705 2.3799 35.2677 2.35207C35.301 2.35937 35.3208 2.37917 35.3272 2.41149ZM25.7606 9.10609C25.9145 9.26558 25.9375 9.44383 25.8299 9.64087C25.3904 10.1893 24.9779 10.757 24.592 11.3442C24.8125 11.4365 25.0402 11.5157 25.2754 11.5819C25.3003 11.5888 25.3068 11.6021 25.2952 11.6215C24.8612 11.86 24.4286 12.101 23.9978 12.3445C23.8828 12.4992 23.7705 12.6543 23.6611 12.8099C23.6962 12.655 23.7491 12.5064 23.8196 12.3643C24.2783 12.1118 24.7338 11.8543 25.1862 11.5918C24.9252 11.5136 24.6677 11.4278 24.4138 11.3343C24.7267 10.6457 25.0931 9.98883 25.513 9.36358C25.5863 9.26728 25.6687 9.18144 25.7606 9.10609ZM32.2175 9.18532C32.3807 9.64521 32.4435 10.1206 32.4057 10.6114C32.3728 10.8488 32.3431 11.0865 32.3166 11.3244C32.3229 11.3471 32.336 11.3637 32.3562 11.3739C32.5885 11.4468 32.8195 11.5228 33.0494 11.6017C32.6063 11.8566 32.1607 12.1075 31.7125 12.3544C31.6871 12.5033 31.6342 12.6419 31.554 12.7703C31.2294 13.2469 30.9125 13.7289 30.6033 14.2162C30.3413 14.5819 30.0608 14.9319 29.7615 15.2659C29.9176 14.3042 30.1256 13.3535 30.3854 12.4138C30.4039 12.3731 30.4336 12.3434 30.4746 12.3247C30.9101 12.0937 31.3393 11.8527 31.762 11.6017C31.5221 11.5096 31.2777 11.4271 31.0291 11.3541C31.1999 10.5076 31.596 9.78463 32.2175 9.18532Z" fill="black"/>
<path fill-rule="evenodd" clip-rule="evenodd" d="M21.6805 2.47091C21.8605 2.56854 21.9893 2.7138 22.0667 2.90665C22.0911 3.12274 22.1208 3.33733 22.1558 3.55037C22.1536 3.6614 22.1372 3.77034 22.1063 3.87717C22.0574 4.01736 22.0045 4.15601 21.9479 4.29311C21.9177 4.55206 21.8781 4.80955 21.829 5.06556C21.7698 5.17056 21.7104 5.27621 21.6508 5.38247C21.603 5.57122 21.5699 5.76267 21.5517 5.95686C21.5141 6.0818 21.4578 6.19733 21.3834 6.30347C21.5097 6.31835 21.6353 6.31504 21.7597 6.29357C22.1493 6.2743 22.5389 6.2743 22.9283 6.29357C23.2337 6.32847 23.5308 6.40439 23.8196 6.52134C23.9127 6.56577 23.9226 6.6285 23.8493 6.70951C23.7776 6.80091 23.6885 6.87023 23.5819 6.91747C23.3167 6.99068 23.0659 7.09633 22.8292 7.23438C22.6092 7.31471 22.3913 7.40055 22.1756 7.49186C22.056 7.5661 21.9999 7.67503 22.0073 7.81867C21.9841 7.84178 21.9611 7.86488 21.938 7.88799C21.7981 7.95884 21.6529 8.01826 21.5022 8.06625C21.2039 8.23005 21.0486 8.48423 21.0368 8.8288C20.9734 8.97246 20.914 9.1177 20.8585 9.26455C20.867 9.41626 20.8868 9.56812 20.9179 9.7201C20.9161 10.2614 20.9161 10.8028 20.9179 11.3442C21.1661 11.4269 21.4137 11.5095 21.6607 11.5918C21.2069 11.8435 20.7545 12.0977 20.3039 12.3544C20.2974 13.0674 20.2906 13.7804 20.2841 14.4935C20.1987 14.9849 20.1724 15.4801 20.2049 15.979C20.2978 16.7767 20.4067 17.5723 20.5317 18.3656C20.5283 18.3888 20.5252 18.4118 20.5218 18.435C20.5042 18.378 20.4875 18.3714 20.4723 18.4152C20.4885 18.5444 20.5083 18.6731 20.5317 18.8014C20.4901 18.8832 20.4471 18.9657 20.4029 19.049C20.3398 19.2462 20.3728 19.4244 20.502 19.5837C20.5117 19.6094 20.5151 19.6358 20.5119 19.663C20.5119 19.696 20.5119 19.729 20.5119 19.762C20.4117 19.7466 20.3225 19.7069 20.2445 19.6432C20.216 19.656 20.1863 19.6626 20.1554 19.663C20.0096 19.6528 19.9205 19.5736 19.888 19.4253C19.7444 19.2241 19.6057 19.0194 19.472 18.8113C19.3389 18.379 19.1872 17.9565 19.0165 17.5437C18.926 17.315 18.8796 17.0773 18.8778 16.8306C18.713 16.3564 18.6272 15.8678 18.6204 15.365C18.5549 15.2544 18.5086 15.1355 18.4817 15.0084C18.4784 14.6386 18.4784 14.2689 18.4817 13.8993C18.425 13.6744 18.3887 13.4466 18.3728 13.2159C18.3822 12.9349 18.3955 12.6543 18.4124 12.3742C18.4499 12.3288 18.4961 12.2924 18.551 12.2652C18.9569 12.0458 19.3597 11.8213 19.7592 11.5918C19.5087 11.5072 19.2577 11.4246 19.0066 11.3442C19.0016 10.9296 19.028 10.5169 19.0858 10.1063C19.0902 10.0059 19.0537 9.92339 18.9769 9.85874C18.969 9.69983 18.9557 9.54138 18.9373 9.38338C18.9349 9.34502 18.9184 9.31862 18.8877 9.30416C18.9363 9.24805 18.9394 9.18863 18.8977 9.1259C18.7734 9.21449 18.638 9.27391 18.4916 9.30416C18.3992 9.30416 18.3068 9.30416 18.2143 9.30416C18.0786 9.27427 17.9465 9.22806 17.8182 9.16551C17.6925 9.08292 17.5539 9.04661 17.4023 9.05658C17.4436 9.0772 17.4766 9.10691 17.5013 9.14571C17.3213 9.37202 17.2388 9.6295 17.2537 9.91816C17.2786 9.95803 17.2951 10.0009 17.3032 10.0469C17.1852 10.4423 17.0862 10.8417 17.0061 11.2452C17.0069 11.2834 17.0135 11.3197 17.0259 11.3541C17.2744 11.4244 17.5187 11.5037 17.7588 11.5918C17.3113 11.8535 16.8591 12.1077 16.402 12.3544C16.3496 12.5584 16.3628 12.7564 16.4416 12.9486C16.4911 13.0145 16.5472 13.0739 16.61 13.1268C16.5042 13.3582 16.4151 13.5959 16.3426 13.8399C16.3283 14.0908 16.3217 14.3417 16.3228 14.5925C16.405 14.6517 16.4941 14.6979 16.5902 14.7311C16.484 14.8181 16.4015 14.9237 16.3426 15.048C16.2738 15.227 16.2276 15.4118 16.204 15.6026C16.134 15.7926 16.068 15.9841 16.0059 16.177C15.988 16.2519 15.9781 16.3278 15.9762 16.4048C16.0456 16.7174 16.0291 17.0244 15.9267 17.3258C15.9084 17.464 15.8952 17.6026 15.8871 17.7417C15.7973 17.9647 15.7115 18.1891 15.6296 18.4152C15.6094 18.6004 15.5863 18.7853 15.5603 18.9697C15.5621 19.0046 15.5687 19.0376 15.5801 19.0688C15.5601 19.1287 15.5337 19.1881 15.5008 19.247C15.3967 19.189 15.3042 19.1164 15.2235 19.0292C14.9043 18.6415 14.6897 18.1991 14.5798 17.7021C14.3427 16.2923 14.2569 14.8728 14.3223 13.4437C14.3329 13.0801 14.3527 12.717 14.3818 12.3544C14.834 12.1002 15.2863 11.846 15.7385 11.5918C15.4959 11.5087 15.2516 11.4295 15.0057 11.3541C15.1626 9.45338 15.496 7.58167 16.0059 5.73899C16.2516 5.06919 16.5355 4.41557 16.8576 3.77814C17.0363 3.4468 17.2443 3.13649 17.4815 2.84723C17.6064 2.79544 17.7318 2.79544 17.8578 2.84723C17.9731 2.94791 18.1051 3.02385 18.2539 3.07501C18.2704 3.09151 18.287 3.10803 18.3035 3.12453C18.387 3.45308 18.3936 3.78319 18.3233 4.11485C18.2262 4.37505 18.1404 4.63913 18.0658 4.90711C18.0206 5.29885 17.9611 5.68836 17.8875 6.0757C17.8004 6.27115 17.7212 6.46921 17.6498 6.66989C17.6279 6.90452 17.6048 7.13889 17.5805 7.37302C17.5789 7.502 17.5987 7.62746 17.6399 7.74935C17.5486 7.93535 17.4496 8.11692 17.3428 8.29403C17.3941 8.32459 17.4436 8.35759 17.4914 8.39306C17.5574 8.26101 17.6234 8.12898 17.6895 7.99693C17.7883 7.9263 17.8841 7.85369 17.9766 7.77906C18.3431 7.54841 18.7128 7.32063 19.0858 7.09573C19.1789 6.99824 19.2086 6.88271 19.1749 6.74912C19.1516 6.78271 19.1286 6.81571 19.1056 6.84815C19.086 6.71321 19.0795 6.57456 19.0858 6.43221C19.0874 6.28761 19.1171 6.14896 19.1749 6.01628C19.2807 5.8643 19.3599 5.69925 19.4126 5.52111C19.4124 5.01367 19.5443 4.54493 19.8088 4.11485C19.8563 3.93945 19.8894 3.76119 19.9078 3.58008C20.0712 3.27313 20.2494 2.97604 20.4426 2.68878C20.5026 2.60569 20.5719 2.53308 20.6505 2.47091C20.9363 2.46626 21.2235 2.45306 21.5121 2.4313C21.5721 2.43092 21.6282 2.44412 21.6805 2.47091Z" fill="black"/>
<path fill-rule="evenodd" clip-rule="evenodd" d="M10.6878 6.70951C11.0775 6.79865 11.434 6.9637 11.7574 7.20467C11.8458 7.16898 11.9382 7.15579 12.0347 7.16506C12.0767 7.16159 12.1163 7.1682 12.1535 7.18486C12.3819 7.30382 12.6262 7.37314 12.8864 7.39283C13.2374 7.69749 13.5378 8.04411 13.7876 8.43267C13.8481 8.5482 13.9009 8.66704 13.946 8.78919C13.9367 8.99343 13.9367 9.1981 13.946 9.40319C14.222 10.0302 14.2451 10.6673 14.0153 11.3145C14.0182 11.3298 14.0248 11.343 14.0352 11.3541C14.2809 11.4294 14.5252 11.5087 14.768 11.5918C14.3043 11.8451 13.8455 12.1059 13.3914 12.3742C13.1272 13.3714 12.8169 14.3551 12.4605 15.3253C12.3189 15.5822 12.167 15.833 12.005 16.078C11.8087 16.4775 11.5776 16.8538 11.3118 17.207C11.1783 17.3272 11.0594 17.4592 10.9552 17.6031C10.8949 17.7463 10.8916 17.8916 10.9453 18.0388C10.7908 18.0527 10.6389 18.0824 10.4898 18.128C9.98408 18.2877 9.47573 18.4396 8.96468 18.5835C8.88427 18.617 8.81164 18.6599 8.74681 18.7123C8.63783 18.7437 8.53221 18.7371 8.42991 18.6924C8.30911 18.6082 8.19027 18.5191 8.07339 18.4251C7.73014 18.2469 7.40005 18.0489 7.08306 17.8309C7.00053 17.7483 6.91801 17.6658 6.83548 17.5833C6.68362 17.3588 6.53179 17.1343 6.37993 16.9099C6.31172 16.8429 6.2292 16.8165 6.13235 16.8306C6.05079 16.3006 5.95504 15.7724 5.84515 15.2461C5.7237 14.5514 5.68409 13.8516 5.72632 13.1466C5.74975 12.8799 5.78936 12.6158 5.84515 12.3544C6.29579 12.0977 6.74805 11.8435 7.2019 11.5918C6.97175 11.5161 6.74069 11.4435 6.50867 11.3739C6.47084 11.3659 6.45104 11.3427 6.44925 11.3046C6.68061 10.2678 7.09986 9.31711 7.70697 8.45248C7.84199 8.29169 7.98394 8.13655 8.13281 7.98703C8.42497 7.7212 8.72867 7.47031 9.04391 7.23438C9.40682 6.98042 9.80295 6.80545 10.2323 6.70951C10.3845 6.68891 10.5363 6.68891 10.6878 6.70951ZM11.2028 9.48242C11.4186 9.85098 11.5176 10.2504 11.4999 10.6807C11.4957 10.8927 11.4825 11.1039 11.4603 11.3145C11.4669 11.331 11.4735 11.3475 11.4801 11.364C11.7194 11.4394 11.9571 11.5186 12.1931 11.6017C11.7557 11.8551 11.3167 12.106 10.876 12.3544C10.8309 12.7779 10.7451 13.1939 10.6185 13.6022C10.4094 14.2249 10.152 14.8257 9.84607 15.4046C9.58265 15.7928 9.29545 16.1625 8.98449 16.5137C8.77284 16.2651 8.60448 15.9878 8.47942 15.6819C8.44934 15.5505 8.42293 15.4185 8.4002 15.2857C8.33141 15.119 8.2786 14.9473 8.24174 14.7708C8.24814 14.4408 8.24814 14.1107 8.24174 13.7804C8.19415 13.6919 8.14132 13.6061 8.08329 13.5229C8.02805 13.3454 8.05445 13.1804 8.16252 13.0278C8.18052 12.8095 8.20033 12.5916 8.22194 12.3742C8.6824 12.1159 9.14126 11.8551 9.59849 11.5918C9.33891 11.5088 9.08142 11.423 8.82604 11.3343C8.91586 11.092 9.00828 10.8511 9.10333 10.6114C9.17352 10.6038 9.23954 10.584 9.30139 10.552C9.41298 10.6036 9.52523 10.6036 9.6381 10.552C9.74773 10.6281 9.85998 10.6281 9.97481 10.552C10.0674 10.2249 10.2655 9.98398 10.569 9.82903C10.7777 9.70821 10.9889 9.59268 11.2028 9.48242Z" fill="black"/>
<g opacity="0.91">
<path fill-rule="evenodd" clip-rule="evenodd" d="M32.7524 6.967C32.8629 7.01705 32.9752 7.06327 33.0891 7.10564C33.0826 7.14525 33.0758 7.18487 33.0693 7.22448C32.8429 7.147 32.625 7.05458 32.4157 6.94719C32.4151 6.92744 32.425 6.91423 32.4454 6.90758C32.55 6.9195 32.6524 6.93931 32.7524 6.967Z" fill="#F111C9"/>
<path fill-rule="evenodd" clip-rule="evenodd" d="M18.8878 9.30416C18.7822 9.30416 18.6765 9.30416 18.5709 9.30416C18.5445 9.30416 18.5181 9.30416 18.4917 9.30416C18.6381 9.27392 18.7734 9.2145 18.8977 9.12591C18.9395 9.18863 18.9363 9.24805 18.8878 9.30416Z" fill="#E702C0"/>
<path fill-rule="evenodd" clip-rule="evenodd" d="M2.03246 21.4456C2.05597 21.3964 2.09559 21.3766 2.1513 21.3861C2.17345 21.261 2.19656 21.1356 2.22063 21.0098C2.31782 20.8353 2.41023 20.6571 2.49792 20.475C2.5979 20.3156 2.72995 20.1902 2.89405 20.0987C2.90064 19.8346 2.90726 19.5705 2.91385 19.3065C2.95802 19.1277 3.01415 18.9527 3.08221 18.7816C3.06254 18.733 3.05923 18.6835 3.07231 18.633C3.16165 18.3218 3.25409 18.0115 3.3496 17.7021C3.35944 17.6564 3.36273 17.6102 3.3595 17.5635C3.42932 17.5665 3.48545 17.5401 3.52786 17.4843C3.53445 17.3456 3.54107 17.207 3.54766 17.0683C3.61742 16.8347 3.67025 16.5971 3.70611 16.3553C3.80406 16.0999 3.8965 15.8425 3.98341 15.5828C3.98584 15.41 3.99905 15.2383 4.02302 15.0679C4.06972 14.9914 4.13245 14.932 4.21118 14.8896C4.22758 14.7979 4.23748 14.7054 4.24089 14.6123C4.26828 14.5458 4.29469 14.4797 4.32012 14.4142C4.34206 14.0381 4.42129 13.675 4.5578 13.3249C4.60212 13.0721 4.65495 12.8212 4.71625 12.5722C4.78557 12.4765 4.8681 12.394 4.96383 12.3247C5.40936 12.0854 5.8517 11.8411 6.29087 11.5918C6.04071 11.5073 5.78982 11.4248 5.53822 11.3442C5.49862 11.3048 5.46891 11.2585 5.44909 11.2056C5.43588 11.1066 5.43588 11.0075 5.44909 10.9085C5.52596 10.7085 5.61839 10.5171 5.72638 10.3341C6.01179 8.96135 6.36831 7.60789 6.79593 6.27376C6.88439 6.14304 6.95702 6.0044 7.0138 5.85783C7.06522 5.55059 7.13124 5.24688 7.21187 4.94673C7.49376 4.12755 7.75124 3.30227 7.98432 2.47091C7.99753 2.34547 7.99753 2.22003 7.98432 2.09459C7.93045 1.96977 7.8347 1.89385 7.69713 1.86681C7.56559 1.81983 7.43356 1.78351 7.301 1.75788C7.63551 1.73912 7.95241 1.80844 8.25171 1.96585C8.3182 2.06338 8.35122 2.17232 8.35074 2.29265C8.31343 2.54756 8.25732 2.79845 8.18239 3.0453C7.95792 3.74513 7.73343 4.44497 7.50897 5.14479C7.45301 5.43777 7.387 5.72827 7.3109 6.01628C7.24649 6.11202 7.18707 6.21106 7.13264 6.31338C6.7114 7.65634 6.35488 9.01639 6.06309 10.3935C5.94421 10.5719 5.85177 10.7633 5.7858 10.9679C5.75555 11.1054 5.78526 11.2275 5.87493 11.3343C6.1322 11.4201 6.38968 11.5059 6.64738 11.5918C6.19504 11.8543 5.73949 12.1118 5.28073 12.3643C5.20012 12.4226 5.1308 12.492 5.07276 12.5722C5.01081 12.8143 4.95799 13.0586 4.91431 13.3051C4.86242 13.4418 4.81621 13.5805 4.77567 13.721C4.72419 14.1224 4.65158 14.5185 4.5578 14.9094C4.4797 14.9413 4.42028 14.9941 4.37954 15.0679C4.36312 15.2803 4.33671 15.4915 4.30031 15.7017C4.22 15.9349 4.13415 16.166 4.04283 16.3949C4.00573 16.6556 3.9529 16.9131 3.88437 17.1674C3.87677 17.2801 3.87677 17.3924 3.88437 17.5041C3.83755 17.541 3.78803 17.574 3.73582 17.6031C3.62358 17.9728 3.51136 18.3425 3.39911 18.7123C3.4166 18.733 3.42981 18.7561 3.43873 18.7816C3.26132 19.2091 3.192 19.6547 3.23076 20.1185C3.07381 20.2028 2.94838 20.3216 2.85443 20.475C2.76705 20.6565 2.67463 20.8347 2.57714 21.0098C2.54615 21.135 2.51644 21.2606 2.48801 21.3861C2.34646 21.4184 2.29694 21.5042 2.33947 21.6436C2.36765 21.7581 2.39076 21.8736 2.40879 21.9902C2.4035 22.1301 2.33748 22.2257 2.21072 22.2774C2.15364 22.2024 2.11733 22.1166 2.10179 22.0199C2.08386 21.8274 2.06075 21.6359 2.03246 21.4456Z" fill="#FB00D0"/>
<path fill-rule="evenodd" clip-rule="evenodd" d="M3.43873 7.66022C3.48462 7.86254 3.51762 8.06721 3.53776 8.27422C3.47002 8.38934 3.3743 8.47516 3.25056 8.53171C3.17231 7.9613 3.05347 7.40012 2.89405 6.84815C2.82906 6.49023 2.75645 6.13371 2.67618 5.7786C2.65922 5.62047 2.64601 5.46201 2.63656 5.30325C2.57859 5.177 2.53898 5.04497 2.51772 4.90712C2.48098 4.68378 2.45456 4.45931 2.4385 4.23369C2.39229 4.17427 2.34606 4.11485 2.29985 4.05543C2.28664 3.99602 2.28664 3.9366 2.29985 3.87718C2.34222 3.8315 2.37193 3.77868 2.38898 3.71872C2.3401 3.58127 2.27078 3.45583 2.18101 3.3424C2.14532 3.21554 2.10571 3.09008 2.06217 2.96608C2.01214 2.79136 1.98574 2.6131 1.98295 2.4313C1.94442 2.33113 1.88829 2.24201 1.81459 2.16391C1.63174 2.04946 1.44688 1.94053 1.26001 1.8371C1.32878 1.80229 1.40139 1.79239 1.47788 1.80739C1.65856 1.88783 1.83682 1.97365 2.01266 2.06488C2.14249 2.13529 2.23821 2.23762 2.29985 2.37188C2.33845 2.7178 2.41768 3.05451 2.53753 3.38201C2.60475 3.46912 2.66417 3.56156 2.71579 3.6593C2.729 3.70551 2.729 3.75174 2.71579 3.79795C2.59002 3.94177 2.60323 4.07382 2.7554 4.19408C2.77467 4.23155 2.78788 4.27117 2.79501 4.31292C2.81173 4.6509 2.87115 4.98101 2.97327 5.30325C3.08581 6.09727 3.24096 6.88291 3.43873 7.66022Z" fill="#FB01D0"/>
<path fill-rule="evenodd" clip-rule="evenodd" d="M32.6137 19.0094C32.6468 18.9562 32.6932 18.9166 32.7524 18.8905C32.7997 18.7946 32.8393 18.6956 32.8712 18.5934C32.8617 18.574 32.8486 18.5576 32.8316 18.5439C32.8613 18.501 32.891 18.4581 32.9207 18.4152C32.9512 18.1712 32.9809 17.9269 33.0099 17.6823C32.998 17.6139 32.9782 17.5479 32.9504 17.4843C32.974 17.4659 33.0004 17.4593 33.0297 17.4644C33.0667 17.1223 33.0897 16.779 33.099 16.4345C33.1342 16.1463 33.177 15.8591 33.2277 15.5729C33.2079 15.491 33.2048 15.4085 33.2178 15.3253C33.2729 15.2372 33.3192 15.1448 33.3565 15.0481C33.3596 14.7842 33.3565 14.5201 33.3466 14.2558C33.3767 14.1561 33.4064 14.0571 33.4357 13.9587C33.5098 13.438 33.5759 12.9164 33.6338 12.394C33.6659 12.3463 33.7088 12.31 33.7625 12.285C34.1816 12.059 34.5975 11.8279 35.0103 11.5918C34.7675 11.5087 34.5233 11.4294 34.2775 11.3541C34.2654 11.3298 34.2589 11.3034 34.2577 11.2749C34.3167 10.8616 34.3795 10.449 34.4458 10.037C34.5318 9.25627 34.6308 8.47722 34.7429 7.69983C35.0357 6.19236 35.3393 4.68706 35.654 3.18395C35.6673 3.09151 35.6673 2.99909 35.654 2.90666C35.5449 2.74103 35.436 2.57599 35.3272 2.41149C35.4136 2.40346 35.4995 2.39026 35.5847 2.37188C35.6099 2.37326 35.633 2.37987 35.654 2.39169C35.7519 2.54901 35.8576 2.70085 35.9709 2.84724C36.0014 2.97101 36.008 3.09646 35.9907 3.22356C35.6885 4.70802 35.3914 6.19351 35.0994 7.68003C34.94 8.90021 34.7716 10.1183 34.5944 11.3343C34.8519 11.4202 35.1094 11.506 35.3668 11.5918C34.9095 11.8551 34.4508 12.1159 33.9903 12.3742C33.9144 12.9416 33.8417 13.5093 33.7724 14.0775C33.7477 14.1073 33.7278 14.1403 33.713 14.1766C33.7332 14.3956 33.7233 14.6135 33.6833 14.8302C33.7354 14.9917 33.7057 15.1369 33.5942 15.2659C33.5343 15.3702 33.531 15.4758 33.5842 15.5828C33.4624 16.2107 33.3963 16.8445 33.3862 17.4843C33.3525 17.4811 33.3194 17.4844 33.2872 17.4942C33.3173 17.5516 33.3438 17.611 33.3664 17.6724C33.3337 17.9128 33.304 18.1538 33.2772 18.3954C33.2515 18.4507 33.2218 18.5035 33.1881 18.5538C33.2014 18.567 33.2145 18.5802 33.2277 18.5934C33.1903 18.7013 33.1473 18.8069 33.099 18.9103C33.0283 18.9414 32.9689 18.9876 32.9207 19.049C32.8821 19.1239 32.8326 19.1899 32.7722 19.247C32.7094 19.174 32.6565 19.0948 32.6137 19.0094Z" fill="#FB00D0"/>
<path fill-rule="evenodd" clip-rule="evenodd" d="M21.7598 6.29357C21.6354 6.31504 21.5098 6.31835 21.3834 6.30347C21.4579 6.19733 21.5142 6.0818 21.5518 5.95686C21.57 5.76268 21.6031 5.57123 21.6508 5.38247C21.7104 5.27621 21.7699 5.17056 21.8291 5.06557C21.8782 4.80955 21.9178 4.55206 21.9479 4.29311C22.0046 4.15601 22.0574 4.01737 22.1064 3.87718C22.1373 3.77034 22.1537 3.6614 22.1559 3.55037C22.1208 3.33733 22.0911 3.12275 22.0668 2.90666C21.9893 2.7138 21.8606 2.56854 21.6805 2.47091C22.0291 2.42504 22.2702 2.57028 22.4035 2.90666C22.4334 3.13144 22.4631 3.35591 22.4926 3.58008C22.4954 3.70161 22.4789 3.82045 22.4431 3.9366C22.393 4.05409 22.3466 4.17293 22.3044 4.29311C22.2729 4.58781 22.2201 4.87832 22.146 5.1646C22.085 5.22717 22.0386 5.29978 22.0073 5.38247C21.9586 5.58517 21.919 5.78983 21.8885 5.99647C21.8558 6.10115 21.813 6.20018 21.7598 6.29357Z" fill="#FB00D0"/>
<path fill-rule="evenodd" clip-rule="evenodd" d="M17.9371 7.581C17.9503 7.64701 17.9635 7.71305 17.9767 7.77906C17.8841 7.85369 17.7884 7.9263 17.6895 7.99693C17.6235 8.12898 17.5575 8.26101 17.4915 8.39306C17.4436 8.35759 17.3941 8.32459 17.3429 8.29403C17.4496 8.11692 17.5487 7.93535 17.64 7.74935C17.5988 7.62746 17.579 7.50201 17.5806 7.37303C17.6049 7.13889 17.628 6.90452 17.6499 6.6699C17.7212 6.46922 17.8005 6.27115 17.8876 6.0757C17.9612 5.68836 18.0206 5.29885 18.0658 4.90711C18.1405 4.63913 18.2263 4.37505 18.3233 4.11485C18.3937 3.78319 18.3871 3.45308 18.3035 3.12453C18.287 3.10803 18.2705 3.09151 18.254 3.07501C18.1052 3.02385 17.9731 2.94791 17.8579 2.84724C17.9243 2.81002 17.997 2.80012 18.0757 2.81753C18.2422 2.91068 18.4138 2.99652 18.5907 3.07501C18.6214 3.09906 18.6445 3.12877 18.66 3.16414C18.7255 3.49432 18.7255 3.82443 18.66 4.15447C18.5582 4.43358 18.4724 4.71747 18.4026 5.00615C18.3516 5.35637 18.2988 5.70629 18.2441 6.05589C18.1891 6.21868 18.1231 6.37714 18.046 6.53125C17.9628 6.87584 17.9265 7.22577 17.9371 7.581Z" fill="#FB00CF"/>
<path fill-rule="evenodd" clip-rule="evenodd" d="M22.9283 6.29357C23.3009 6.28963 23.664 6.34576 24.0177 6.46193C24.1037 6.49168 24.1829 6.53129 24.2554 6.58077C24.2213 6.70842 24.1486 6.80745 24.0375 6.87786C23.5277 7.10631 23.0127 7.32418 22.4926 7.53148C22.4447 7.56442 22.4084 7.60732 22.3837 7.66022C22.3823 7.73416 22.3658 7.80348 22.3341 7.86819C22.105 7.96958 21.8806 8.0818 21.6607 8.2049C21.4918 8.38096 21.3995 8.59224 21.3834 8.83871C21.3169 8.99227 21.2541 9.14743 21.1953 9.30416C21.2083 9.43613 21.2281 9.56816 21.2547 9.70029C21.2563 10.2483 21.2563 10.7963 21.2547 11.3442C21.507 11.4306 21.7613 11.5131 22.0172 11.5918C21.5599 11.8551 21.1012 12.1159 20.6407 12.3742C20.6417 12.8825 20.6417 13.3909 20.6407 13.8993C20.6342 14.1237 20.6274 14.3482 20.6209 14.5727C20.5407 14.9985 20.5141 15.4276 20.5417 15.8601C20.6413 16.6995 20.7502 17.538 20.8685 18.3755C20.8613 18.4252 20.8481 18.4682 20.8288 18.5043C20.8421 18.6033 20.8552 18.7024 20.8685 18.8014C20.8344 18.8994 20.7914 18.9952 20.7397 19.0886C20.6898 19.2694 20.7229 19.4345 20.8388 19.5837C20.855 19.6507 20.8518 19.7168 20.8288 19.7818C20.7358 19.7534 20.6532 19.7072 20.5813 19.6432C20.5613 19.6597 20.5381 19.6663 20.5119 19.663C20.5151 19.6358 20.5117 19.6094 20.502 19.5837C20.3729 19.4244 20.3398 19.2462 20.403 19.049C20.4472 18.9657 20.4902 18.8832 20.5318 18.8014C20.5084 18.6731 20.4886 18.5444 20.4723 18.4152C20.4876 18.3714 20.5042 18.378 20.5219 18.435C20.5252 18.4119 20.5284 18.3888 20.5318 18.3656C20.4068 17.5723 20.2978 16.7767 20.2049 15.979C20.1725 15.4801 20.1988 14.9849 20.2842 14.4935C20.2907 13.7804 20.2974 13.0674 20.304 12.3544C20.7546 12.0977 21.207 11.8435 21.6607 11.5918C21.4137 11.5095 21.1662 11.4269 20.918 11.3442C20.9162 10.8028 20.9162 10.2615 20.918 9.7201C20.8869 9.56812 20.8671 9.41627 20.8586 9.26455C20.914 9.1177 20.9734 8.97246 21.0368 8.82881C21.0487 8.48423 21.204 8.23005 21.5023 8.06625C21.653 8.01826 21.7982 7.95884 21.938 7.888C21.9612 7.86488 21.9842 7.84179 22.0073 7.81867C22 7.67504 22.0561 7.5661 22.1757 7.49187C22.3914 7.40056 22.6093 7.31472 22.8293 7.23438C23.066 7.09633 23.3167 6.99068 23.582 6.91748C23.6885 6.87024 23.7776 6.80092 23.8493 6.70951C23.9226 6.6285 23.9127 6.56577 23.8196 6.52135C23.5309 6.40439 23.2338 6.32847 22.9283 6.29357Z" fill="#FB00D0"/>
<path fill-rule="evenodd" clip-rule="evenodd" d="M10.6879 6.70951C11.1922 6.70372 11.6411 6.85558 12.0348 7.16506C11.9383 7.15579 11.8459 7.16898 11.7575 7.20467C11.4341 6.96371 11.0776 6.79866 10.6879 6.70951Z" fill="#F500CA"/>
<path fill-rule="evenodd" clip-rule="evenodd" d="M26.137 6.96699C26.7282 6.93756 27.2135 7.14882 27.5928 7.6008C27.7126 7.75117 27.8346 7.89972 27.9592 8.04645C28.0216 8.09983 28.0941 8.12623 28.1771 8.12567C28.2876 8.39467 28.3504 8.67525 28.3652 8.96745C28.4019 9.28497 28.3953 9.60187 28.3454 9.91816C28.263 10.0169 28.1903 10.1225 28.1276 10.2351C28.0309 10.5252 27.9186 10.8091 27.7908 11.0867C27.759 11.141 27.716 11.1839 27.6621 11.2155C27.5557 11.2618 27.4502 11.308 27.3452 11.3541C27.5938 11.4271 27.8382 11.5096 28.078 11.6017C27.573 11.8839 27.0713 12.1711 26.5727 12.4633C26.3945 12.615 26.2459 12.79 26.1271 12.9882C26.0586 13.0621 25.9793 13.1215 25.8894 13.1664C25.8829 13.2457 25.8761 13.3249 25.8696 13.4041C25.7581 13.4433 25.6591 13.5028 25.5725 13.5824C25.5151 13.6789 25.4887 13.7846 25.4933 13.8993C25.3125 13.9336 25.1605 14.0194 25.0377 14.1568C24.9165 14.3838 24.7646 14.5884 24.5822 14.7708C24.4586 15.0081 24.3035 15.2227 24.1167 15.4145C24.0011 15.4888 23.8888 15.5681 23.78 15.6522C23.6646 15.7809 23.5489 15.9096 23.4334 16.0384C23.3431 16.1924 23.3199 16.3574 23.3641 16.5335C23.3787 16.6052 23.3855 16.6778 23.3839 16.7514C23.3197 16.7999 23.247 16.833 23.166 16.8504C23.1183 16.8523 23.082 16.8325 23.0571 16.791C23.0383 16.6253 23.0151 16.4603 22.9878 16.2959C22.9888 16.2103 23.0119 16.1311 23.0571 16.0582C23.1924 15.9096 23.3278 15.7611 23.4631 15.6125C23.6206 15.509 23.7691 15.3934 23.9088 15.2659C24.0177 15.1141 24.1167 14.9557 24.2059 14.7906C24.3948 14.6017 24.5533 14.3904 24.6812 14.1568C24.7898 14.0148 24.9318 13.9323 25.1071 13.9092C25.1235 13.8927 25.1401 13.8762 25.1566 13.8597C25.149 13.6061 25.2713 13.4543 25.523 13.4041C25.5196 13.3246 25.523 13.2454 25.5329 13.1664C25.6056 13.1136 25.6781 13.0608 25.7508 13.008C25.8906 12.7888 26.059 12.5941 26.2558 12.4237C26.7445 12.1464 27.2329 11.8691 27.7215 11.5918C27.4763 11.5112 27.2321 11.4286 26.9887 11.3442C27.0964 11.2858 27.2085 11.2363 27.3254 11.1957C27.3616 11.1594 27.3981 11.1231 27.4343 11.0867C27.5621 10.8091 27.6744 10.5252 27.771 10.2351C27.8338 10.1225 27.9065 10.0169 27.9889 9.91816C28.0883 9.3124 28.0422 8.71821 27.8503 8.13558C27.7758 8.12688 27.7065 8.10377 27.6423 8.06625C27.4933 7.90341 27.3513 7.73505 27.2165 7.56119C26.9283 7.2306 26.5684 7.03253 26.137 6.96699Z" fill="#FB00D0"/>
<path fill-rule="evenodd" clip-rule="evenodd" d="M8.74687 18.7123C8.8117 18.6599 8.88433 18.617 8.96475 18.5835C9.47579 18.4396 9.98415 18.2877 10.4898 18.128C10.639 18.0824 10.7908 18.0527 10.9454 18.0388C10.8916 17.8916 10.8949 17.7463 10.9553 17.6031C11.0595 17.4592 11.1783 17.3272 11.3118 17.207C11.5777 16.8538 11.8087 16.4775 12.005 16.078C12.1671 15.833 12.319 15.5822 12.4606 15.3253C12.817 14.3551 13.1273 13.3714 13.3915 12.3742C13.8455 12.1059 14.3044 11.8451 14.7681 11.5918C14.5252 11.5087 14.2809 11.4294 14.0352 11.3541C14.0249 11.343 14.0183 11.3298 14.0154 11.3145C14.2452 10.6673 14.2221 10.0302 13.9461 9.40319C13.9368 9.1981 13.9368 8.99344 13.9461 8.78919C13.901 8.66705 13.8481 8.54821 13.7876 8.43268C13.5379 8.04411 13.2375 7.6975 12.8864 7.39283C12.6263 7.37315 12.382 7.30382 12.1536 7.18486C12.2443 7.16294 12.3368 7.15965 12.4309 7.17496C12.584 7.2238 12.7358 7.27663 12.8864 7.33341C12.9997 7.35086 13.1119 7.37067 13.2231 7.39283C13.6598 7.74345 13.9998 8.16929 14.2432 8.67035C14.299 8.78006 14.3122 8.89229 14.2828 9.00706C14.2696 9.11931 14.2696 9.23153 14.2828 9.34378C14.4978 9.84575 14.5638 10.3673 14.4809 10.9085C14.4618 11.0581 14.4189 11.2 14.3521 11.3343C14.606 11.4278 14.8635 11.5136 15.1246 11.5918C14.6673 11.8551 14.2085 12.1159 13.748 12.3742C13.4776 13.3702 13.1673 14.354 12.8171 15.3253C12.5232 15.8074 12.2393 16.296 11.9654 16.791C11.873 16.9231 11.7806 17.0551 11.6881 17.1872C11.5481 17.314 11.4226 17.4526 11.3118 17.6031C11.2788 17.6726 11.2556 17.7452 11.2425 17.821C11.2621 17.8993 11.2753 17.9785 11.2821 18.0586C11.1346 18.0757 10.9893 18.1054 10.8464 18.1478C10.3331 18.3058 9.81813 18.4576 9.30146 18.6033C9.21019 18.6655 9.11116 18.7117 9.00436 18.742C8.9161 18.7534 8.83028 18.7435 8.74687 18.7123Z" fill="#FB00CF"/>
<path fill-rule="evenodd" clip-rule="evenodd" d="M25.9587 8.90803C25.8987 8.9812 25.8328 9.04721 25.7607 9.1061C25.6688 9.18144 25.5864 9.26728 25.5131 9.36358C25.0932 9.98883 24.7268 10.6457 24.4138 11.3343C24.6677 11.4278 24.9252 11.5136 25.1863 11.5918C24.7339 11.8543 24.2784 12.1118 23.8196 12.3643C23.7491 12.5064 23.6962 12.655 23.6612 12.8099C23.6445 12.8167 23.638 12.8299 23.6414 12.8495C23.5503 13.135 23.4776 13.4255 23.4235 13.721C23.275 13.9787 23.1165 14.2296 22.9481 14.4737C23.0424 13.7627 23.2076 13.0662 23.4433 12.3841C23.8985 12.1102 24.3606 11.8461 24.8298 11.5918C24.5885 11.5034 24.3443 11.4242 24.0969 11.3541C24.0775 11.3116 24.0809 11.2687 24.1068 11.2254C24.4158 10.5409 24.7856 9.89394 25.216 9.28436C25.3655 9.13549 25.5206 8.99354 25.6814 8.85852C25.7872 8.80991 25.8797 8.82641 25.9587 8.90803Z" fill="#FA01CF"/>
<path fill-rule="evenodd" clip-rule="evenodd" d="M32.4949 8.92784C32.3905 8.9991 32.2982 9.08494 32.2176 9.18532C31.5961 9.78463 31.1999 10.5076 31.0292 11.3541C31.2778 11.4271 31.5222 11.5096 31.762 11.6017C31.3394 11.8527 30.9102 12.0937 30.4746 12.3247C30.4336 12.3434 30.4039 12.3731 30.3855 12.4138C30.1256 13.3535 29.9177 14.3042 29.7616 15.2659C29.7224 15.4353 29.6958 15.6069 29.6824 15.7809C29.5998 15.9429 29.4742 16.0551 29.306 16.1176C29.3542 15.6064 29.4235 15.098 29.514 14.5925C29.6816 13.8532 29.8565 13.1171 30.0389 12.3841C30.0973 12.3283 30.1635 12.2821 30.2369 12.2454C30.6331 12.0276 31.0292 11.8097 31.4253 11.5918C31.171 11.5077 30.9169 11.4251 30.6628 11.3442C30.8836 10.3513 31.3887 9.53596 32.178 8.89813C32.2584 8.85178 32.3442 8.83857 32.4355 8.85852C32.4594 8.87909 32.4792 8.90221 32.4949 8.92784Z" fill="#FA00CF"/>
<path fill-rule="evenodd" clip-rule="evenodd" d="M17.8183 9.16552C17.799 9.20479 17.7792 9.24441 17.7588 9.28436C17.6313 9.48432 17.5818 9.70219 17.6103 9.93797C17.6295 9.97311 17.646 10.0094 17.6598 10.0469C17.5626 10.3648 17.4735 10.685 17.3924 11.0075C17.3667 11.1188 17.3601 11.2311 17.3726 11.3442C17.6227 11.4243 17.8703 11.5101 18.1154 11.6017C17.6647 11.8617 17.2125 12.1192 16.7586 12.3742C16.7284 12.5247 16.7219 12.6766 16.7388 12.8297C16.7532 12.8782 16.773 12.9245 16.7982 12.9684C16.8596 13.0196 16.9091 13.0791 16.9468 13.1466C16.8545 13.374 16.7719 13.6051 16.6992 13.8399C16.6958 14.0588 16.6793 14.2767 16.6497 14.4935C16.6478 14.5415 16.661 14.5844 16.6893 14.6222C16.7745 14.6605 16.8603 14.6968 16.9468 14.7311C16.8316 14.8299 16.7425 14.9487 16.6794 15.0877C16.6165 15.2963 16.5637 15.5076 16.5209 15.7215C16.4457 15.8943 16.3863 16.0726 16.3427 16.2563C16.3411 16.5142 16.3477 16.7717 16.3625 17.0287C16.2864 17.2739 16.2402 17.5247 16.2238 17.7814C16.138 18.0058 16.0522 18.2303 15.9664 18.4548C15.9422 18.6656 15.9224 18.8769 15.9069 19.0886C15.8953 19.1504 15.8689 19.2032 15.8277 19.247C15.7362 19.1997 15.6537 19.1403 15.5801 19.0688C15.5687 19.0376 15.5621 19.0046 15.5603 18.9697C15.5864 18.7853 15.6095 18.6004 15.6296 18.4152C15.7116 18.1891 15.7974 17.9647 15.8871 17.7417C15.8953 17.6026 15.9085 17.464 15.9267 17.3258C16.0291 17.0244 16.0456 16.7174 15.9763 16.4048C15.9781 16.3278 15.988 16.2519 16.006 16.177C16.0681 15.9841 16.1341 15.7926 16.204 15.6026C16.2277 15.4118 16.2739 15.227 16.3427 15.0481C16.4015 14.9237 16.484 14.8181 16.5903 14.7311C16.4942 14.698 16.405 14.6517 16.3229 14.5925C16.3218 14.3417 16.3284 14.0908 16.3427 13.8399C16.4152 13.5959 16.5043 13.3582 16.6101 13.1268C16.5473 13.0739 16.4911 13.0145 16.4417 12.9486C16.3628 12.7564 16.3496 12.5584 16.4021 12.3544C16.8591 12.1077 17.3114 11.8535 17.7588 11.5918C17.5187 11.5037 17.2745 11.4244 17.026 11.3541C17.0136 11.3197 17.007 11.2834 17.0062 11.2452C17.0863 10.8417 17.1853 10.4423 17.3033 10.0469C17.2952 10.0009 17.2787 9.95803 17.2538 9.91816C17.2389 9.6295 17.3214 9.37202 17.5014 9.14571C17.4766 9.10691 17.4436 9.0772 17.4023 9.05658C17.5539 9.04662 17.6926 9.08292 17.8183 9.16552Z" fill="#FA00CF"/>
<path fill-rule="evenodd" clip-rule="evenodd" d="M11.4406 9.40319C11.3571 9.41781 11.2779 9.44423 11.2029 9.48242C10.989 9.59268 10.7777 9.70822 10.5691 9.82903C10.2655 9.98398 10.0675 10.2249 9.97488 10.552C9.86004 10.6281 9.7478 10.6281 9.63817 10.552C9.68505 10.3033 9.8105 10.1019 10.0145 9.94787C10.2992 9.77253 10.5897 9.60746 10.886 9.45271C11.05 9.37632 11.2217 9.34332 11.4009 9.35368C11.4258 9.36194 11.439 9.37844 11.4406 9.40319Z" fill="#FA02CF"/>
<path fill-rule="evenodd" clip-rule="evenodd" d="M9.16281 10.4331C9.13738 10.4906 9.11757 10.55 9.10339 10.6114C9.00834 10.8511 8.91592 11.092 8.8261 11.3343C9.08149 11.423 9.33897 11.5088 9.59855 11.5918C9.14132 11.8551 8.68246 12.1159 8.222 12.3742C8.20039 12.5916 8.18059 12.8095 8.16258 13.0278C8.05452 13.1804 8.02812 13.3454 8.08336 13.523C8.14139 13.6061 8.19421 13.6919 8.24181 13.7804C8.24821 14.1107 8.24821 14.4408 8.24181 14.7708C8.27867 14.9473 8.33147 15.119 8.40026 15.2857C8.423 15.4185 8.4494 15.5505 8.47949 15.6819C8.60454 15.9878 8.7729 16.2651 8.98455 16.5137C9.0186 16.5676 9.06483 16.6072 9.1232 16.6326C8.9777 16.6946 8.83905 16.6781 8.70726 16.5831C8.45493 16.3064 8.26017 15.9928 8.12297 15.6422C8.10463 15.502 8.07821 15.3634 8.04374 15.2263C7.98232 15.0929 7.93609 14.9542 7.9051 14.8104C7.9051 14.4671 7.9051 14.1237 7.9051 13.7804C7.84069 13.6847 7.78127 13.5857 7.72684 13.4833C7.68723 13.3843 7.68723 13.2853 7.72684 13.1862C7.75986 13.1202 7.79285 13.0542 7.82587 12.9882C7.84685 12.7841 7.86006 12.5794 7.86548 12.3742C8.31951 12.1059 8.77837 11.8451 9.24204 11.5918C9.01902 11.5153 8.79453 11.4427 8.56862 11.3739C8.53449 11.3636 8.50809 11.3438 8.48939 11.3145C8.61209 10.9396 8.75404 10.5732 8.91523 10.2153C9.00159 10.2852 9.08412 10.3578 9.16281 10.4331Z" fill="#FB00D0"/>
<path fill-rule="evenodd" clip-rule="evenodd" d="M31.9403 15.4838C31.8389 15.6537 31.7531 15.8319 31.6828 16.0186C31.5034 16.3709 31.3285 16.7274 31.158 17.0881C30.9888 17.2902 30.8436 17.5081 30.7222 17.7417C30.6483 17.8026 30.5657 17.8158 30.4746 17.7814C30.4614 17.854 30.4483 17.9266 30.435 17.9992C30.4128 17.9728 30.3865 17.9629 30.3558 17.9695C30.1314 18.1412 29.9068 18.3128 29.6824 18.4845C29.5695 18.4981 29.4572 18.4948 29.3457 18.4746C29.5518 18.3018 29.7632 18.1335 29.9795 17.9695C30.0114 17.9399 30.0444 17.9366 30.0785 17.9596C30.0981 17.8949 30.1046 17.8288 30.0983 17.7615C30.1787 17.7911 30.2579 17.7878 30.336 17.7516C30.4818 17.5133 30.6436 17.2855 30.8212 17.0683C31.19 16.2778 31.5697 15.4922 31.9601 14.7113C31.9908 14.6925 32.0237 14.6859 32.0591 14.6915C32.0053 14.917 31.9591 15.1448 31.9205 15.3749C31.9292 15.411 31.936 15.4473 31.9403 15.4838Z" fill="#F901CE"/>
<path fill-rule="evenodd" clip-rule="evenodd" d="M27.1273 15.3055C27.0208 15.4253 26.9217 15.5507 26.8302 15.6819C26.3854 16.2296 25.91 16.7545 25.4042 17.2565C24.8969 17.6778 24.3621 18.0607 23.7998 18.4053C23.5618 18.4953 23.3207 18.5779 23.0769 18.6528C23.0121 18.6375 22.9493 18.6177 22.8887 18.5934C23.1165 18.5185 23.3409 18.4293 23.5622 18.326C24.2817 17.8908 24.9385 17.3725 25.5329 16.7712C25.9423 16.2959 26.3515 15.8205 26.7609 15.3452C26.8407 15.229 26.9166 15.1101 26.9887 14.9886C27.0326 14.9776 27.0788 14.9776 27.1273 14.9886C27.1337 15.0965 27.1337 15.2021 27.1273 15.3055Z" fill="#FB00D0"/>
<path fill-rule="evenodd" clip-rule="evenodd" d="M29.0089 18.4746C29.0299 18.5561 29.0497 18.6386 29.0684 18.7222C29.0543 18.7761 29.0212 18.7959 28.9693 18.7816C28.8893 18.7088 28.8035 18.6461 28.7118 18.5934C28.6833 18.5521 28.6701 18.5059 28.6722 18.4548C28.7883 18.4484 28.9004 18.455 29.0089 18.4746Z" fill="#FB00D0"/>
</g>
<g opacity="0.974">
<path fill-rule="evenodd" clip-rule="evenodd" d="M34.9706 2.39167C34.8953 2.41115 34.8161 2.41775 34.7329 2.41148C34.8086 2.37472 34.8878 2.36812 34.9706 2.39167Z" fill="#009E4B"/>
<path fill-rule="evenodd" clip-rule="evenodd" d="M19.0858 6.4322C19.0794 6.57455 19.086 6.71319 19.1056 6.84814C19.1 6.86376 19.0901 6.87697 19.0759 6.88775C19.0596 6.73237 19.0628 6.58053 19.0858 6.4322Z" fill="#005428"/>
<path fill-rule="evenodd" clip-rule="evenodd" d="M6.92458 1.75786C6.82089 1.83167 6.72516 1.9175 6.63738 2.01535C6.3471 2.37118 6.09621 2.75411 5.88473 3.16413C5.54887 3.88776 5.27158 4.63381 5.05286 5.40226C4.77989 6.15949 4.42337 6.87252 3.98331 7.54137C3.8941 7.5992 3.80166 7.65201 3.70602 7.69982C3.69942 7.80545 3.69281 7.91109 3.68621 8.01672C3.65644 8.11613 3.60692 8.20195 3.53766 8.27421C3.51752 8.06719 3.48452 7.86253 3.43863 7.66021C3.56179 7.6196 3.65092 7.54038 3.70602 7.42253C4.09761 6.80437 4.42113 6.15075 4.67654 5.46168C4.87625 4.79652 5.10731 4.1429 5.36976 3.50084C5.64333 2.89036 6.00316 2.33907 6.44922 1.84699C6.59303 1.74144 6.75149 1.71173 6.92458 1.75786Z" fill="#00FC77"/>
<path fill-rule="evenodd" clip-rule="evenodd" d="M0.903395 1.83709C0.811039 1.93277 0.72191 2.0318 0.636007 2.13419C0.543811 2.2658 0.484392 2.41104 0.457748 2.56993C0.413134 3.37156 0.383424 4.17372 0.368619 4.97642C0.370225 6.25359 0.525375 7.5113 0.834072 8.74956C1.02522 9.50493 1.36524 10.1816 1.85411 10.7797C2.35286 10.9058 2.85461 11.0214 3.3594 11.1263C3.35281 11.2056 3.34619 11.2848 3.3396 11.364C3.58643 11.4298 3.8307 11.5057 4.07244 11.5918C3.6202 11.846 3.16793 12.1002 2.71569 12.3544C2.55754 13.0932 2.39908 13.8326 2.24033 14.5727C1.93771 15.807 1.66042 17.0482 1.40846 18.2963C1.34987 18.6909 1.34328 19.087 1.38865 19.4847C1.47992 20.0666 1.57896 20.6475 1.68575 21.2277C1.69564 21.3 1.69892 21.3727 1.69566 21.4455C1.65828 21.4707 1.63847 21.5069 1.63624 21.5545C1.68995 21.726 1.71305 21.9011 1.70556 22.0794C1.68078 22.1768 1.62136 22.2428 1.5273 22.2774C1.46877 22.1881 1.42916 22.0891 1.40846 21.9803C1.38844 21.7014 1.35542 21.4242 1.30943 21.1484C1.19772 20.5903 1.10528 20.0292 1.03214 19.4649C0.993495 19.1281 0.993495 18.7914 1.03214 18.4548C1.09712 18.0704 1.16973 17.6875 1.25001 17.306C1.63742 15.666 2.00713 14.0221 2.35917 12.3742C2.8032 12.1142 3.24884 11.8567 3.69611 11.6017C3.46008 11.5186 3.2224 11.4394 2.98308 11.364C2.97648 11.3574 2.96987 11.3508 2.96327 11.3442C2.97771 11.2952 2.99092 11.2457 3.00289 11.1957C2.99655 11.1629 2.97674 11.1431 2.94347 11.1362C2.4607 11.0271 1.97873 10.9149 1.49759 10.7995C0.955579 10.1346 0.59576 9.37864 0.418135 8.53169C0.0163678 6.72132 -0.0958698 4.89252 0.0814243 3.04529C0.0226603 2.54075 0.191016 2.13473 0.586491 1.82719C0.693465 1.78774 0.7991 1.79104 0.903395 1.83709Z" fill="#00FC77"/>
<path fill-rule="evenodd" clip-rule="evenodd" d="M34.6537 2.41148C34.4384 2.50352 34.2899 2.66197 34.2081 2.88683C33.9787 3.50755 33.7575 4.13146 33.5445 4.75855C33.4671 5.0171 33.3978 5.27788 33.3366 5.54091C33.2435 6.0636 33.1611 6.58517 33.089 7.10562C32.9751 7.06326 32.8628 7.01703 32.7523 6.96698C32.8446 6.06025 33.0393 5.17556 33.3366 4.3129C33.5287 3.7565 33.7398 3.20851 33.9704 2.66896C34.1449 2.44611 34.3726 2.36028 34.6537 2.41148Z" fill="#00FD78"/>
<path fill-rule="evenodd" clip-rule="evenodd" d="M20.6505 2.4709C20.5719 2.53307 20.5025 2.60568 20.4425 2.68877C20.2494 2.97602 20.0712 3.27312 19.9077 3.58006C19.8893 3.76117 19.8563 3.93943 19.8087 4.11484C19.5443 4.54492 19.4124 5.01366 19.4126 5.5211C19.3599 5.69924 19.2807 5.86429 19.1749 6.01626C19.1171 6.14895 19.0874 6.28759 19.0858 6.4322C19.0628 6.58053 19.0596 6.73237 19.0759 6.88775C19.0901 6.87697 19.1 6.86376 19.1056 6.84814C19.1286 6.81569 19.1515 6.7827 19.1749 6.74911C19.2086 6.8827 19.1789 6.99823 19.0858 7.09572C18.7127 7.32062 18.343 7.5484 17.9766 7.77904C17.9634 7.71303 17.9502 7.64699 17.937 7.58098C18.2248 7.4155 18.5054 7.23724 18.7788 7.0462C18.8198 6.96444 18.8328 6.87862 18.8184 6.78872C18.792 6.82833 18.7656 6.86794 18.7392 6.90756C18.6999 6.67594 18.7065 6.44486 18.759 6.21433C18.8408 5.99802 18.9331 5.78675 19.0363 5.58052C19.0814 5.29644 19.1276 5.01255 19.1749 4.72884C19.2466 4.50315 19.3423 4.28858 19.4621 4.08513C19.4974 3.92454 19.5271 3.76278 19.5512 3.59987C19.7311 3.24666 19.9357 2.90995 20.1652 2.58974C20.3055 2.46474 20.4671 2.42513 20.6505 2.4709Z" fill="#00FC77"/>
<path fill-rule="evenodd" clip-rule="evenodd" d="M17.4814 2.84722C17.2442 3.13648 17.0363 3.44678 16.8575 3.77813C16.5355 4.41556 16.2516 5.06918 16.0059 5.73897C15.496 7.58165 15.1626 9.45337 15.0056 11.3541C15.2516 11.4295 15.4959 11.5087 15.7385 11.5918C15.2862 11.846 14.834 12.1002 14.3817 12.3544C14.3526 12.717 14.3328 13.0801 14.3223 13.4437C14.2569 14.8728 14.3427 16.2923 14.5798 17.7021C14.6897 18.1991 14.9043 18.6415 15.2235 19.0291C15.2243 19.1131 15.1979 19.1857 15.1443 19.247C15.0849 19.2107 15.0254 19.1744 14.966 19.1381C14.5155 18.6562 14.2481 18.0851 14.1639 17.4248C13.9407 15.7465 13.8944 14.0629 14.0252 12.3742C14.4692 12.1142 14.9149 11.8567 15.3622 11.6017C15.1334 11.52 14.9024 11.444 14.6689 11.3739C14.6476 11.3606 14.6344 11.3408 14.6293 11.3145C14.7773 9.79612 15.0249 8.29413 15.3721 6.80853C15.6655 5.51548 16.1607 4.30728 16.8575 3.18393C16.9234 3.06892 17.006 2.96658 17.1051 2.87693C17.2264 2.79982 17.3519 2.78992 17.4814 2.84722Z" fill="#00FC77"/>
<path fill-rule="evenodd" clip-rule="evenodd" d="M10.2323 6.70949C9.80292 6.80544 9.40679 6.98041 9.04387 7.23436C8.72863 7.4703 8.42494 7.72119 8.13277 7.98701C7.98391 8.13653 7.84195 8.29168 7.70693 8.45247C7.09982 9.3171 6.68058 10.2678 6.44922 11.3046C6.451 11.3427 6.47081 11.3658 6.50864 11.3739C6.74065 11.4435 6.97171 11.5161 7.20187 11.5918C6.74802 11.8435 6.29576 12.0977 5.84512 12.3544C5.78933 12.6158 5.74971 12.8799 5.72628 13.1466C5.68405 13.8516 5.72367 14.5514 5.84512 15.2461C5.95501 15.7724 6.05075 16.3006 6.13232 16.8306C6.22917 16.8164 6.31168 16.8428 6.3799 16.9099C6.53175 17.1343 6.68359 17.3588 6.83545 17.5833C6.91798 17.6658 7.00049 17.7483 7.08303 17.8309C7.40001 18.0488 7.73011 18.2469 8.07335 18.425C8.19023 18.5191 8.30907 18.6082 8.42987 18.6924C8.33118 18.755 8.22555 18.7649 8.11297 18.7221C8.0028 18.6648 7.90377 18.5922 7.81587 18.5043C7.46937 18.3212 7.13266 18.1231 6.80574 17.9101C6.69082 17.815 6.58188 17.7127 6.47893 17.6031C6.31828 17.3566 6.14992 17.1156 5.97386 16.8801C5.91074 16.8625 5.84803 16.846 5.7857 16.8306C5.61941 16.0705 5.48738 15.3047 5.38957 14.5331C5.33524 13.8572 5.35505 13.1838 5.44899 12.5128C5.45557 12.4533 5.47208 12.3971 5.49851 12.3444C5.93746 12.1019 6.3732 11.8543 6.80574 11.6017C6.57703 11.52 6.34595 11.444 6.11251 11.3739C6.101 11.3562 6.09439 11.3364 6.0927 11.3145C6.32787 10.2184 6.78011 9.22478 7.44945 8.33363C7.89298 7.87015 8.37824 7.45753 8.90523 7.09572C9.31201 6.84459 9.75435 6.71585 10.2323 6.70949Z" fill="#00FC77"/>
<path fill-rule="evenodd" clip-rule="evenodd" d="M32.0789 6.96698C32.0741 7.0217 32.0476 7.0646 31.9996 7.09572C31.8933 7.10911 31.7877 7.1058 31.6827 7.08582C31.7061 7.02556 31.7324 6.96615 31.7619 6.90756C31.8687 6.92162 31.9743 6.94143 32.0789 6.96698Z" fill="#05F877"/>
<path fill-rule="evenodd" clip-rule="evenodd" d="M25.6813 6.96698C25.5484 6.99918 25.4163 7.0421 25.2852 7.09572C25.0275 7.25758 24.7635 7.40943 24.493 7.55127C24.1499 7.79063 23.8364 8.06461 23.5521 8.37324C23.0918 9.02961 22.7022 9.72943 22.3836 10.4727C22.3307 10.552 22.278 10.6312 22.2251 10.7104C22.1794 10.7832 22.1695 10.8592 22.1954 10.9382C22.1592 10.9481 22.136 10.9712 22.1261 11.0075C22.0841 11.1229 22.0609 11.2417 22.0568 11.364C22.3039 11.4299 22.5484 11.5059 22.7896 11.5918C22.3374 11.846 21.885 12.1002 21.4328 12.3544C21.395 12.586 21.3554 12.8171 21.314 13.0476C21.2245 13.9104 21.1781 14.7753 21.1754 15.6422C21.1975 16.0747 21.257 16.5039 21.3536 16.9297C21.3895 17.1003 21.4424 17.2654 21.5121 17.4248C21.5978 17.5833 21.6838 17.7417 21.7696 17.9002C21.9553 18.2281 22.2227 18.4592 22.5717 18.5934C22.5111 18.6092 22.4517 18.629 22.3935 18.6528C21.9617 18.5477 21.6349 18.3034 21.413 17.92C21.3075 17.7219 21.2017 17.5239 21.0961 17.3258C20.9098 16.6829 20.8139 16.0293 20.8089 15.3649C20.8339 14.7239 20.8701 14.0835 20.9179 13.4437C20.9486 13.0839 21.0013 12.7274 21.0763 12.3742C21.5204 12.1142 21.966 11.8567 22.4133 11.6017C22.1671 11.5196 21.9227 11.4338 21.6804 11.3442C21.7517 11.0995 21.8278 10.8618 21.9082 10.6312C21.9413 10.5916 21.9742 10.552 22.0072 10.5123C22.334 9.74595 22.7369 9.02632 23.2154 8.35343C23.7849 7.74028 24.4617 7.28804 25.2456 6.99669C25.3898 6.97199 25.535 6.96208 25.6813 6.96698Z" fill="#00FC77"/>
<path fill-rule="evenodd" clip-rule="evenodd" d="M31.4252 7.08582C31.2755 7.11412 31.1303 7.16364 30.9895 7.23436C30.8265 7.36713 30.6514 7.48266 30.4646 7.58098C30.4492 7.60958 30.4525 7.63598 30.4745 7.66021C30.5551 7.68716 30.6211 7.73339 30.6726 7.79885C30.585 7.84425 30.5025 7.89707 30.425 7.9573C29.8372 8.59789 29.342 9.30432 28.9395 10.0766C28.9183 10.2543 28.8985 10.4326 28.8801 10.6114C28.8034 10.8513 28.7209 11.089 28.6325 11.3244C28.6367 11.336 28.6432 11.3459 28.6523 11.3541C28.8977 11.4303 29.1421 11.5095 29.3852 11.5918C28.9362 11.8427 28.4873 12.0936 28.0383 12.3444C27.985 12.441 27.9454 12.5433 27.9195 12.6514C27.8931 12.6514 27.8666 12.6514 27.8403 12.6514C27.8403 12.5524 27.8403 12.4534 27.8403 12.3544C27.8048 12.3487 27.7719 12.3553 27.7412 12.3742C27.6487 12.6485 27.5463 12.9192 27.4342 13.1862C27.3186 13.2508 27.213 13.33 27.1173 13.4239C27.0133 13.6401 26.8715 13.8283 26.6915 13.9884C25.7768 14.7313 24.8855 15.5037 24.0176 16.3058C23.8162 16.4691 23.6048 16.6177 23.3838 16.7514C23.3854 16.6778 23.3786 16.6052 23.364 16.5335C24.0186 15.9946 24.6591 15.4367 25.2852 14.8599C25.6227 14.5685 25.9662 14.2846 26.3152 14.0082C26.5083 13.8351 26.6634 13.6337 26.7806 13.4041C26.8796 13.3315 26.9787 13.2589 27.0777 13.1862C27.191 12.9199 27.2934 12.6492 27.3847 12.3742C27.4223 12.355 27.462 12.3484 27.5035 12.3544C27.497 12.4543 27.5037 12.5533 27.5234 12.6514C27.535 12.6556 27.5449 12.6622 27.5531 12.6713C27.5844 12.5573 27.6273 12.4484 27.6818 12.3444C28.1126 12.101 28.5452 11.86 28.9791 11.6215C28.9908 11.602 28.9843 11.5888 28.9593 11.5819C28.7381 11.5126 28.517 11.4433 28.2958 11.3739C28.2855 11.3628 28.2788 11.3496 28.276 11.3343C28.381 11.0723 28.4701 10.8049 28.5434 10.5322C28.5462 10.3791 28.5594 10.2272 28.583 10.0766C28.8139 9.65403 29.0649 9.24471 29.3356 8.8486C29.5866 8.5449 29.8373 8.24119 30.0883 7.9375C30.1594 7.88707 30.2353 7.84415 30.3161 7.80875C30.2501 7.73927 30.1709 7.68976 30.0784 7.66021C30.0879 7.63186 30.101 7.60546 30.118 7.58098C30.3373 7.45735 30.5486 7.32201 30.7518 7.17495C30.9721 7.11559 31.1965 7.08588 31.4252 7.08582Z" fill="#00FC77"/>
<path fill-rule="evenodd" clip-rule="evenodd" d="M25.9586 8.90802C26.0656 9.00513 26.1547 9.11737 26.226 9.24473C26.2835 9.41162 26.2571 9.56345 26.1468 9.70028C25.7168 10.2227 25.3173 10.7674 24.9485 11.3343C25.1965 11.4261 25.4474 11.5119 25.7012 11.5918C25.2521 11.8427 24.8033 12.0936 24.3543 12.3444C24.0313 12.796 23.7209 13.2549 23.4234 13.721C23.4775 13.4255 23.5502 13.135 23.6413 12.8495C23.6579 12.8427 23.6644 12.8295 23.6611 12.8099C23.7704 12.6543 23.8827 12.4992 23.9978 12.3444C24.4286 12.101 24.8612 11.86 25.2951 11.6215C25.3068 11.602 25.3003 11.5888 25.2753 11.5819C25.0402 11.5157 24.8124 11.4365 24.592 11.3442C24.9778 10.757 25.3904 10.1892 25.8299 9.64086C25.9374 9.44382 25.9145 9.26556 25.7606 9.10608C25.8327 9.0472 25.8986 8.98118 25.9586 8.90802Z" fill="#03FB77"/>
<path fill-rule="evenodd" clip-rule="evenodd" d="M32.4948 8.92782C32.7136 9.45917 32.8028 10.0138 32.7622 10.5916C32.721 10.8473 32.698 11.1015 32.6929 11.3541C32.9387 11.4294 33.1829 11.5087 33.4257 11.5918C32.9719 11.8435 32.5195 12.0977 32.069 12.3544C32.0357 12.5005 31.9828 12.6391 31.9105 12.7703C31.5425 13.3149 31.1794 13.8629 30.8211 14.4142C30.4442 14.8735 30.0645 15.3291 29.6823 15.7809C29.6957 15.6069 29.7223 15.4353 29.7615 15.2659C30.0608 14.9319 30.3412 14.5819 30.6033 14.2162C30.9124 13.7288 31.2294 13.2469 31.554 12.7703C31.6342 12.6419 31.6871 12.5033 31.7124 12.3544C32.1607 12.1074 32.6063 11.8566 33.0494 11.6017C32.8194 11.5228 32.5885 11.4468 32.3561 11.3739C32.3359 11.3636 32.3229 11.3471 32.3165 11.3244C32.3431 11.0865 32.3728 10.8488 32.4057 10.6114C32.4435 10.1206 32.3807 9.6452 32.2175 9.18531C32.2981 9.08493 32.3904 8.99909 32.4948 8.92782Z" fill="#01FB77"/>
<path fill-rule="evenodd" clip-rule="evenodd" d="M17.8182 9.1655C17.9465 9.22805 18.0785 9.27426 18.2143 9.30415C18.0604 9.33293 17.9085 9.32631 17.7587 9.28434C17.7791 9.24439 17.7989 9.20478 17.8182 9.1655Z" fill="#07F877"/>
<path fill-rule="evenodd" clip-rule="evenodd" d="M18.5708 9.30415C18.6764 9.30415 18.7821 9.30415 18.8877 9.30415C18.9184 9.31861 18.9349 9.34501 18.9372 9.38337C18.9556 9.54137 18.9689 9.69982 18.9768 9.85873C19.0537 9.92338 19.0901 10.0059 19.0858 10.1063C19.0279 10.5169 19.0016 10.9296 19.0066 11.3442C19.2577 11.4246 19.5086 11.5071 19.7592 11.5918C19.3597 11.8213 18.9568 12.0458 18.551 12.2652C18.496 12.2924 18.4498 12.3287 18.4124 12.3742C18.3954 12.6543 18.3822 12.9349 18.3727 13.2159C18.3886 13.4466 18.4249 13.6744 18.4817 13.8993C18.4784 14.2689 18.4784 14.6386 18.4817 15.0084C18.5086 15.1355 18.5548 15.2543 18.6203 15.3649C18.6272 15.8678 18.713 16.3564 18.8778 16.8306C18.8796 17.0773 18.9259 17.315 19.0165 17.5437C19.1872 17.9565 19.3389 18.379 19.472 18.8113C19.6057 19.0194 19.7443 19.224 19.8879 19.4253C19.9204 19.5736 20.0096 19.6528 20.1553 19.663C20.1613 19.7046 20.1547 19.7442 20.1355 19.7818C20.0454 19.7582 19.9695 19.712 19.9077 19.6432C19.8269 19.6896 19.7443 19.6929 19.6602 19.6531C19.4785 19.3791 19.2971 19.1051 19.1155 18.8311C18.9339 18.3056 18.7489 17.784 18.5609 17.2664C18.5562 17.106 18.5364 16.9475 18.5015 16.791C18.3519 16.3559 18.2759 15.9103 18.2737 15.4541C18.2084 15.3109 18.1589 15.1623 18.1252 15.0084C18.1229 14.6585 18.1229 14.3085 18.1252 13.9587C18.0066 13.4491 17.9802 12.9341 18.0459 12.4138C18.0513 12.3775 18.0679 12.3478 18.0955 12.3246C18.531 12.0937 18.9602 11.8527 19.3829 11.6017C19.1412 11.5145 18.8968 11.4353 18.65 11.364C18.648 10.9496 18.6744 10.5369 18.7293 10.1261C18.7335 10.0257 18.6972 9.94318 18.6203 9.87854C18.6142 9.68594 18.5977 9.49449 18.5708 9.30415Z" fill="#01FC77"/>
<path fill-rule="evenodd" clip-rule="evenodd" d="M11.4405 9.40318C11.5163 9.42269 11.5724 9.46892 11.6088 9.54182C11.7885 9.8718 11.8711 10.225 11.8564 10.6015C11.8465 10.8496 11.8366 11.0972 11.8267 11.3442C12.0739 11.4266 12.3215 11.5092 12.5694 11.5918C12.1172 11.846 11.6649 12.1002 11.2127 12.3544C11.1946 12.6625 11.1484 12.9662 11.074 13.2655C10.8886 13.8746 10.6641 14.4688 10.4006 15.048C10.0887 15.5977 9.71571 16.1028 9.28155 16.5632C9.23564 16.6027 9.18284 16.6258 9.1231 16.6326C9.06473 16.6072 9.0185 16.5676 8.98445 16.5137C9.29542 16.1625 9.58261 15.7928 9.84604 15.4046C10.1519 14.8257 10.4094 14.2249 10.6185 13.6022C10.745 13.1939 10.8309 12.7779 10.876 12.3544C11.3166 12.106 11.7557 11.8551 12.1931 11.6017C11.9571 11.5186 11.7194 11.4394 11.4801 11.364C11.4735 11.3475 11.4669 11.331 11.4603 11.3145C11.4825 11.1039 11.4957 10.8926 11.4999 10.6807C11.5176 10.2504 11.4185 9.85096 11.2028 9.48241C11.2778 9.44422 11.357 9.4178 11.4405 9.40318Z" fill="#00FC77"/>
<path fill-rule="evenodd" clip-rule="evenodd" d="M9.16271 10.4331C9.22079 10.4589 9.26701 10.4985 9.30136 10.552C9.2395 10.5839 9.17349 10.6038 9.10329 10.6114C9.11747 10.55 9.13728 10.4906 9.16271 10.4331Z" fill="#14F678"/>
<path fill-rule="evenodd" clip-rule="evenodd" d="M27.1272 15.3055C27.1647 15.439 27.1878 15.5776 27.1965 15.7215C27.2037 15.8473 27.2037 15.9728 27.1965 16.0978C27.2833 16.4055 27.3625 16.7158 27.4342 17.0287C27.5374 17.498 27.7388 17.9172 28.0383 18.2864C28.1469 18.3588 28.2459 18.4413 28.3354 18.534C28.3487 18.534 28.3552 18.5406 28.3552 18.5538C28.3653 18.62 28.3685 18.686 28.3651 18.7519C28.3427 18.7857 28.313 18.7956 28.276 18.7816C28.0714 18.6165 27.8666 18.4515 27.662 18.2864C27.4725 18.0503 27.3239 17.7895 27.2164 17.504C27.0846 17.0434 26.9593 16.5813 26.84 16.1176C26.8499 15.9717 26.8468 15.8264 26.8301 15.6818C26.9216 15.5507 27.0207 15.4253 27.1272 15.3055Z" fill="#01FC77"/>
<path fill-rule="evenodd" clip-rule="evenodd" d="M31.9402 15.4838C31.9731 15.5233 31.9963 15.5695 32.0095 15.6224C32.0579 16.3683 32.1042 17.1144 32.1482 17.8606C32.1884 17.9963 32.2116 18.1349 32.2175 18.2765C32.2003 18.4282 32.1969 18.58 32.2076 18.732C32.2409 18.8156 32.264 18.9014 32.2769 18.9895C32.2296 19.08 32.1702 19.1625 32.0987 19.2371C32.0854 19.2503 32.0723 19.2503 32.059 19.2371C31.8651 18.9577 31.7992 18.6507 31.861 18.3161C31.8443 18.1568 31.8212 17.9983 31.7917 17.8408C31.7546 17.2333 31.7184 16.6259 31.6827 16.0186C31.753 15.8319 31.8388 15.6536 31.9402 15.4838Z" fill="#00FD78"/>
</g>
</g>
<defs>
<clipPath id="clip0_23_18264">
<rect width="36" height="24" fill="white"/>
</clipPath>
</defs>
</svg>
