<svg width="36" height="24" viewBox="0 0 36 24" fill="none" xmlns="http://www.w3.org/2000/svg">
<path d="M36 7.26501H2.09839C0.939586 7.26501 0 8.2046 0 9.36341V16.7322H33.9016C35.0604 16.7322 36 15.7926 36 14.6338V7.26501Z" fill="black"/>
<path d="M6.02608 13.1192L3.26732 8.85011C3.24905 8.82197 3.21794 8.80493 3.18437 8.80493H2.20035C1.95496 8.80493 1.75598 9.00391 1.75598 9.2493V15.1924H3.06167V10.9046C3.06167 10.8754 3.08537 10.8517 3.1145 10.8517L5.87327 15.147C5.89154 15.1754 5.92265 15.1924 5.95647 15.1924H6.92271C7.1681 15.1924 7.36708 14.9935 7.36708 14.7481V8.80493H6.06139V13.0839C6.06139 13.1034 6.04559 13.1192 6.02608 13.1192Z" fill="white"/>
<path d="M34.486 8.80493H29.6836C29.4382 8.80493 29.2393 9.00391 29.2393 9.2493V10.0314H31.1044C31.1315 10.0314 31.1537 10.0536 31.1537 10.0808V15.1927H32.0151C32.2604 15.1927 32.4594 14.9937 32.4594 14.7483V10.0808C32.4594 10.0536 32.4816 10.0314 32.5088 10.0314H34.1571L34.4857 8.80493H34.486Z" fill="#78BE20"/>
<path d="M27.2067 13.1192L24.448 8.85011C24.4297 8.82197 24.3986 8.80493 24.365 8.80493H23.381C23.1356 8.80493 22.9366 9.00391 22.9366 9.2493V15.1924H24.2423V10.9046C24.2423 10.8754 24.266 10.8517 24.2952 10.8517L27.0539 15.147C27.0722 15.1754 27.1033 15.1924 27.1371 15.1924H28.1034C28.3488 15.1924 28.5477 14.9935 28.5477 14.7481V8.80493H27.2421V13.0839C27.2421 13.1034 27.2263 13.1192 27.2067 13.1192Z" fill="#78BE20"/>
<path d="M12.8404 9.13426L12.6 10.0311H14.4651C14.4922 10.0311 14.5144 10.0534 14.5144 10.0805V15.1924H15.3758C15.6212 15.1924 15.8201 14.9935 15.8201 14.7481V10.0805C15.8201 10.0534 15.8424 10.0311 15.8695 10.0311H17.5179L17.8464 8.80469H13.2695C13.0683 8.80469 12.8923 8.93973 12.8402 9.13401L12.8404 9.13426Z" fill="white"/>
<path d="M9.45065 12.4751H11.2839L11.5841 11.3546H9.45065C9.4235 11.3546 9.40128 11.3324 9.40128 11.3052V10.0805C9.40128 10.0534 9.4235 10.0311 9.45065 10.0311H11.887L12.2156 8.80469H8.5397C8.29431 8.80469 8.09534 9.00366 8.09534 9.24905V15.1922H11.6164C11.8176 15.1922 11.9937 15.0572 12.0457 14.8629L12.2862 13.966H9.45065C9.4235 13.966 9.40128 13.9438 9.40128 13.9166V12.5243C9.40128 12.4971 9.4235 12.4749 9.45065 12.4749V12.4751Z" fill="white"/>
<path d="M19.5147 12.4751H21.348L21.6482 11.3546H19.5147C19.4876 11.3546 19.4654 11.3324 19.4654 11.3052V10.0805C19.4654 10.0534 19.4876 10.0311 19.5147 10.0311H21.9511L22.2797 8.80469H19.3777C19.1765 8.80469 19.0005 8.93973 18.9484 9.13401L18.1932 11.9528C18.171 12.0362 18.1597 12.1221 18.1597 12.2083V15.1922H21.6808C21.882 15.1922 22.058 15.0572 22.1101 14.8629L22.3505 13.966H19.515C19.4878 13.966 19.4656 13.9438 19.4656 13.9166V12.5243C19.4656 12.4971 19.4878 12.4749 19.515 12.4749L19.5147 12.4751Z" fill="#78BE20"/>
</svg>
