<svg width="36" height="24" viewBox="0 0 36 24" fill="none" xmlns="http://www.w3.org/2000/svg">
<path fill-rule="evenodd" clip-rule="evenodd" d="M13.1956 13.453C13.0298 13.3788 12.9545 13.1819 13.0284 13.0153L15.6093 7.19653C15.6832 7.02994 15.8793 6.95435 16.0451 7.02851C16.2109 7.10264 16.2862 7.2996 16.2124 7.46616L13.6314 13.285C13.5576 13.4515 13.3615 13.5272 13.1956 13.453Z" fill="#BBDC00"/>
<path fill-rule="evenodd" clip-rule="evenodd" d="M14.3064 13.4531C14.1408 13.3794 14.0657 13.1837 14.1394 13.0182L16.0734 8.67669C16.1471 8.51119 16.3428 8.43608 16.5084 8.50977C16.6739 8.58353 16.749 8.77921 16.6753 8.9447L14.7414 13.2862C14.6677 13.4517 14.472 13.5268 14.3064 13.4531Z" fill="#BBDC00"/>
<path fill-rule="evenodd" clip-rule="evenodd" d="M15.4201 13.4531C15.2523 13.3794 15.1762 13.1839 15.2509 13.0185L16.5279 10.158C16.6026 9.99262 16.801 9.91756 16.9688 9.9912C17.1365 10.0649 17.2126 10.2604 17.1379 10.4258L15.8609 13.2863C15.7862 13.4517 15.5878 13.5268 15.4201 13.4531Z" fill="#8FCF69"/>
<path fill-rule="evenodd" clip-rule="evenodd" d="M16.4419 13.4525C16.2714 13.3776 16.194 13.1785 16.2699 13.0102L16.8878 11.643C16.9637 11.4746 17.1653 11.3982 17.3359 11.4732C17.5064 11.5482 17.5838 11.7472 17.5078 11.9156L16.89 13.2827C16.8141 13.4511 16.6124 13.5275 16.4419 13.4525Z" fill="#4DC0A1"/>
<path fill-rule="evenodd" clip-rule="evenodd" d="M19.7753 13.4525C19.6048 13.3776 19.5273 13.1785 19.6033 13.0102L20.2211 11.643C20.2971 11.4746 20.4987 11.3982 20.6692 11.4732C20.8398 11.5482 20.9171 11.7472 20.8412 11.9156L20.2233 13.2827C20.1475 13.4511 19.9458 13.5275 19.7753 13.4525Z" fill="#66CCCC"/>
<path fill-rule="evenodd" clip-rule="evenodd" d="M20.7938 13.4525C20.6233 13.3776 20.5459 13.1785 20.6219 13.0102L21.2397 11.643C21.3156 11.4746 21.5173 11.3982 21.6878 11.4732C21.8583 11.5482 21.9356 11.7472 21.8598 11.9156L21.2419 13.2827C21.166 13.4511 20.9644 13.5275 20.7938 13.4525Z" fill="#EE88D0"/>
<path fill-rule="evenodd" clip-rule="evenodd" d="M21.9049 13.4525C21.7344 13.3776 21.657 13.1785 21.7329 13.0102L22.3508 11.643C22.4267 11.4746 22.6284 11.3982 22.7989 11.4732C22.9694 11.5482 23.0467 11.7472 22.9709 11.9156L22.3529 13.2827C22.2771 13.4511 22.0755 13.5275 21.9049 13.4525Z" fill="#EE88D0"/>
<path fill-rule="evenodd" clip-rule="evenodd" d="M17.5474 13.453C17.3816 13.3788 17.3064 13.1819 17.3802 13.0153L19.9611 7.19653C20.035 7.02994 20.2311 6.95435 20.3969 7.02851C20.5627 7.10264 20.638 7.2996 20.5642 7.46616L17.9833 13.285C17.9094 13.4515 17.7133 13.5272 17.5474 13.453Z" fill="#4DC0A1"/>
<path fill-rule="evenodd" clip-rule="evenodd" d="M18.6587 13.453C18.4928 13.3788 18.4175 13.1819 18.4914 13.0153L21.0723 7.19653C21.1462 7.02994 21.3422 6.95435 21.5081 7.02851C21.6739 7.10264 21.7492 7.2996 21.6754 7.46616L19.0944 13.285C19.0206 13.4515 18.8245 13.5272 18.6587 13.453Z" fill="#66CCCC"/>
<path fill-rule="evenodd" clip-rule="evenodd" d="M30.5123 17.0338V16.4164H29.2549V17.0338H28.8606V15.4875H29.2549V16.1129H30.5123V15.4875H30.9066V17.0338H30.5123Z" fill="black"/>
<path fill-rule="evenodd" clip-rule="evenodd" d="M14.0021 17.0338V15.4875H15.7487V15.7917L14.3963 15.791V16.1125L15.6469 16.1122V16.4163L14.3963 16.4161V16.7291L15.7487 16.7297V17.0338H14.0021Z" fill="black"/>
<path fill-rule="evenodd" clip-rule="evenodd" d="M12.7479 17.0338V16.4164H11.4906V17.0338H11.0962V15.4875H11.4906V16.1129H12.7479V15.4875H13.1422V17.0338H12.7479Z" fill="black"/>
<path fill-rule="evenodd" clip-rule="evenodd" d="M0.394263 15.6113V17.034H0V15.4878H0.794093L1.77666 16.9261V16.8105V15.4878H2.17092V17.034H1.77605C1.77177 17.0341 1.37378 17.034 1.37378 17.034L0.394263 15.6113Z" fill="black"/>
<path fill-rule="evenodd" clip-rule="evenodd" d="M19.7731 15.6113V17.034H19.3789V15.4878H20.173L21.1555 16.9261V16.8105V15.4878H21.5498V17.034H21.1549C21.1506 17.0341 20.7526 17.034 20.7526 17.034L19.7731 15.6113Z" fill="black"/>
<path fill-rule="evenodd" clip-rule="evenodd" d="M9.28654 17.0342V15.8069L8.54004 15.8067V15.4873H10.4572V15.8061L9.71061 15.8069V17.0342H9.28654Z" fill="black"/>
<path fill-rule="evenodd" clip-rule="evenodd" d="M32.3465 17.0342V15.8069L31.6001 15.8067V15.4873H33.5172V15.8061L32.7707 15.8069V17.0342H32.3465Z" fill="black"/>
<path fill-rule="evenodd" clip-rule="evenodd" d="M22.4146 17.0347V15.4868H22.8386L22.8407 16.7236L24.0392 16.7232L24.039 17.0347H22.4146Z" fill="black"/>
<path fill-rule="evenodd" clip-rule="evenodd" d="M24.6439 15.4851H25.068V17.0372H24.6439V15.4851Z" fill="black"/>
<path fill-rule="evenodd" clip-rule="evenodd" d="M6.39294 15.7904V16.3095L7.26641 16.3091C7.38332 16.3091 7.47864 16.2138 7.47864 16.0968V16.0048C7.47864 15.8877 7.38332 15.7925 7.26641 15.7925L6.39294 15.7904ZM7.41347 17.0351L7.1207 16.6246L6.39199 16.624L6.39172 17.0356H5.96582V15.4851L7.45821 15.4857C7.68579 15.4857 7.87121 15.6711 7.87121 15.8989V16.2116C7.87121 16.4991 7.56833 16.6227 7.56833 16.6227L7.86537 17.0353L7.41347 17.0351Z" fill="black"/>
<path fill-rule="evenodd" clip-rule="evenodd" d="M17.0399 15.7904V16.3095L17.9132 16.3091C18.0302 16.3091 18.1255 16.2138 18.1255 16.0968V16.0048C18.1255 15.8877 18.0302 15.7925 17.9132 15.7925L17.0399 15.7904ZM18.0604 17.0351L17.7676 16.6246L17.0389 16.624L17.0386 17.0356H16.6127V15.4851L18.105 15.4857C18.3327 15.4857 18.518 15.6711 18.518 15.8989V16.2116C18.518 16.4991 18.2153 16.6227 18.2153 16.6227L18.5122 17.0353L18.0604 17.0351Z" fill="black"/>
<path fill-rule="evenodd" clip-rule="evenodd" d="M3.66775 15.7988C3.51817 15.7988 3.39644 15.9205 3.39644 16.0702V16.4517C3.39644 16.6014 3.51817 16.7232 3.66775 16.7232H4.47257C4.62234 16.7232 4.74408 16.6014 4.74408 16.4517V16.0702C4.74408 15.9205 4.62234 15.7988 4.47257 15.7988H3.66775ZM3.46929 17.0422C3.22854 17.0422 3.03259 16.8461 3.03259 16.6052V15.9188C3.03259 15.6779 3.22854 15.4819 3.46929 15.4819H4.67645C4.91721 15.4819 5.11329 15.6779 5.11329 15.9188V16.6052C5.11329 16.8461 4.91721 17.0422 4.67645 17.0422H3.46929Z" fill="black"/>
<path fill-rule="evenodd" clip-rule="evenodd" d="M26.3609 17.0417C26.1201 17.0417 25.9242 16.8458 25.9242 16.605V15.9183C25.9242 15.6775 26.1201 15.4817 26.3609 15.4817H27.5681C27.7723 15.4817 27.9504 15.6273 27.994 15.825L27.6083 15.9536C27.5635 15.8595 27.4694 15.7984 27.3641 15.7984H26.5593C26.4098 15.7984 26.288 15.9202 26.288 16.0699V16.4514C26.288 16.6011 26.4098 16.7229 26.5593 16.7229H27.3641C27.5139 16.7229 27.6356 16.6011 27.6356 16.4514V16.4419C27.6356 16.4224 27.6198 16.4065 27.6004 16.4065H26.9625L26.9651 16.1909H28.0033L28.0049 16.605C28.0049 16.8458 27.8088 17.0417 27.5681 17.0417H26.3609Z" fill="black"/>
<path fill-rule="evenodd" clip-rule="evenodd" d="M35.988 15.9623V15.9357C35.988 15.6859 35.7834 15.4814 35.5335 15.4814H34.6483C34.3984 15.4814 34.1939 15.6859 34.1939 15.9357V15.9705C34.1939 16.2204 34.3984 16.4248 34.6483 16.4248L35.484 16.426C35.5767 16.426 35.6527 16.4906 35.6527 16.5833C35.6527 16.6762 35.5767 16.752 35.484 16.752H34.7356C34.6429 16.752 34.5669 16.6875 34.5669 16.5946C34.5669 16.5838 34.5683 16.5732 34.5703 16.563L34.1908 16.564L34.1909 16.5906C34.1916 16.8406 34.3966 17.0444 34.6464 17.0437L35.5468 17.0413C35.7968 17.0405 36.0007 16.8355 36 16.5856L35.9998 16.5509C35.9992 16.3009 35.837 16.1283 35.587 16.1289L34.7082 16.1218C34.6941 16.1218 34.6806 16.1196 34.6675 16.1162C34.5943 16.0979 34.5395 16.0318 34.5395 15.953C34.5395 15.9059 34.5592 15.8631 34.5908 15.8325C34.6215 15.8009 34.6642 15.7811 34.7115 15.7811H35.4445C35.5373 15.7811 35.6133 15.857 35.6133 15.9498C35.6133 15.9542 35.6123 15.9582 35.612 15.9623H35.988Z" fill="black"/>
</svg>
