<svg width="36" height="24" viewBox="0 0 36 24" fill="none" xmlns="http://www.w3.org/2000/svg">
<path d="M18.5694 16.3725C18.2256 16.4406 17.9271 16.6742 17.7843 16.9824C17.7097 17.1413 17.6968 17.2095 17.7 17.4593C17.7 17.7869 17.7649 17.9654 17.9855 18.2703C18.0504 18.3579 18.1023 18.4422 18.1023 18.452C18.1023 18.465 18.0082 18.5363 17.8914 18.6109C17.6319 18.7796 17.3269 19.1008 17.2328 19.3052C17.009 19.7756 17.0771 20.3628 17.4015 20.7618C17.567 20.9694 17.8849 21.1868 18.1282 21.2614C18.3975 21.3457 18.9003 21.336 19.1534 21.2452C19.3675 21.1673 19.5881 21.0343 19.8152 20.8429C19.8995 20.7748 19.9774 20.7196 19.9871 20.7196C20.0001 20.7196 20.1039 20.8364 20.2142 20.9759L20.4218 21.2354H20.9344L21.447 21.2387L20.9928 20.6807L20.5419 20.1195L20.6846 19.9573C20.7625 19.8697 20.8857 19.7172 20.9636 19.6231L21.0966 19.4512L20.8306 19.1851L20.5646 18.9191L20.4802 19.0165C20.4348 19.0684 20.318 19.2046 20.2207 19.3149L20.0455 19.5193L19.7957 19.2176C19.6562 19.0554 19.481 18.8413 19.4032 18.7472L19.2637 18.5785L19.4194 18.4422C19.9287 18.0043 20.0844 17.6864 20.0131 17.2322C19.9125 16.6158 19.2702 16.233 18.5694 16.3725ZM19.0236 17.0667C19.1631 17.1251 19.2702 17.2646 19.2702 17.3911C19.2702 17.5371 19.1793 17.6766 18.9782 17.8453L18.7998 17.9913L18.7251 17.9199C18.5597 17.7642 18.4591 17.5696 18.4591 17.4009C18.4591 17.2646 18.4721 17.2289 18.5565 17.1511C18.6959 17.0213 18.8484 16.9921 19.0236 17.0667ZM19.056 19.568L19.494 20.1L19.3253 20.2492C19.2312 20.3303 19.0658 20.4439 18.9555 20.499C18.7803 20.5834 18.7284 20.5963 18.5565 20.5834C18.3164 20.5671 18.1315 20.4504 17.9952 20.2265C17.7616 19.8502 17.8719 19.5809 18.4267 19.1657C18.524 19.0943 18.6084 19.0327 18.6116 19.0327C18.6116 19.0327 18.8127 19.2727 19.056 19.568Z" fill="black"/>
<path d="M24.1039 16.4017C23.6886 16.5347 23.4064 16.765 23.2377 17.1089C23.1566 17.2808 23.1469 17.3295 23.1469 17.6377C23.1469 17.9459 23.1566 17.9978 23.2409 18.1795C23.3967 18.5201 23.6173 18.6985 24.2758 19.0164C24.5808 19.1657 24.8955 19.3311 24.9733 19.3895C25.2069 19.5582 25.3042 19.8859 25.1972 20.1454C25.1388 20.2817 24.9214 20.4731 24.7689 20.525C24.61 20.5769 24.3148 20.5542 24.1525 20.4763C23.9709 20.3887 23.76 20.1616 23.6562 19.9378C23.6075 19.834 23.5589 19.7464 23.5491 19.7464C23.5329 19.7464 22.923 20.087 22.8744 20.1259C22.8679 20.1292 22.9165 20.2492 22.9847 20.3855C23.2182 20.8624 23.627 21.1835 24.1298 21.2906C24.4056 21.3457 24.584 21.3457 24.8598 21.2873C25.1809 21.2192 25.4113 21.1024 25.6254 20.898C25.9401 20.5996 26.0731 20.2362 26.0406 19.7691C26.0277 19.5582 26.0017 19.4641 25.9076 19.2727C25.7162 18.8867 25.4729 18.7018 24.6716 18.3352C24.3764 18.1989 24.2109 18.1016 24.1169 18.0075C23.7016 17.5955 24.1104 16.9856 24.7138 17.1219C24.8533 17.1511 25.1096 17.2938 25.1096 17.3425C25.1096 17.3522 25.1517 17.4106 25.2004 17.4722L25.2912 17.5793L25.6221 17.4138C25.8038 17.323 25.953 17.2354 25.953 17.2224C25.953 17.1738 25.7681 16.9078 25.6481 16.7877C25.3431 16.4763 25.009 16.34 24.5678 16.3433C24.3861 16.3433 24.2174 16.366 24.1039 16.4017Z" fill="black"/>
<path d="M0 18.8218V21.2386H0.405516H0.811033V20.4114V19.5841H1.19708C1.67073 19.5841 1.86538 19.5485 2.16059 19.409C2.55962 19.2208 2.8451 18.8542 2.95216 18.3871C3.01055 18.1373 2.97811 17.6377 2.89052 17.4041C2.78995 17.1413 2.5726 16.8591 2.35524 16.7163C1.98216 16.4698 1.62855 16.4049 0.609897 16.4049H0V18.8218ZM1.65775 17.2354C1.87511 17.3003 2.08598 17.4982 2.13788 17.6863C2.23196 18.0334 2.13788 18.4325 1.91404 18.6206C1.73237 18.7764 1.6026 18.812 1.19384 18.8315L0.811033 18.8445V18.014V17.1835H1.14518C1.35929 17.1835 1.54421 17.2029 1.65775 17.2354Z" fill="black"/>
<path d="M7.23439 17.6215V18.1568H6.97486H6.71533V18.5299V18.9029H6.97162H7.23115L7.24088 19.7691C7.25061 20.5996 7.25386 20.645 7.32523 20.7748C7.43877 20.9889 7.58152 21.1317 7.77941 21.229C7.93837 21.3068 8.00001 21.3198 8.24007 21.3166C8.54502 21.3166 8.72994 21.2517 8.95378 21.0765C9.11274 20.95 9.3301 20.658 9.29117 20.6256C9.27495 20.6093 9.1387 20.5218 8.98622 20.4277L8.71047 20.259L8.66181 20.3368C8.50934 20.5704 8.32442 20.6677 8.17844 20.5866C8.02596 20.499 8.01298 20.4309 8.01298 19.6394V18.9029H8.56449H9.11923L9.1095 18.5363L9.09977 18.173L8.558 18.1633L8.01298 18.1568V17.6215V17.0862H7.62369H7.23439V17.6215Z" fill="black"/>
<path d="M4.37629 18.1373C3.89292 18.2735 3.52633 18.6596 3.39008 19.1851C3.32195 19.4414 3.3252 20.0026 3.39332 20.233C3.58797 20.8883 4.04215 21.2614 4.71368 21.323C5.16137 21.3619 5.65124 21.1965 5.99512 20.898C6.27411 20.6515 6.27411 20.6547 5.91726 20.4471L5.60582 20.2622L5.46632 20.3919C5.13218 20.7001 4.55472 20.6839 4.31466 20.3562C4.24328 20.2622 4.15245 20.0318 4.15245 19.954C4.15245 19.915 4.33736 19.9085 5.22626 19.9085H6.30331L6.2806 19.6004C6.2222 18.7958 5.87508 18.3059 5.24248 18.1373C5.0381 18.0821 4.57743 18.0821 4.37629 18.1373ZM5.11271 18.8672C5.2587 18.9353 5.3982 19.0943 5.43388 19.2338L5.45659 19.3246H4.82074C4.44766 19.3246 4.18489 19.3116 4.18489 19.2954C4.18489 19.1559 4.36332 18.9256 4.52552 18.851C4.66827 18.7893 4.95699 18.7958 5.11271 18.8672Z" fill="black"/>
<path d="M10.803 18.1406C10.5694 18.2087 10.391 18.3157 10.2061 18.5039C9.73891 18.9775 9.62861 19.8989 9.95951 20.5574C10.404 21.4398 11.6886 21.5956 12.4575 20.8624C12.5646 20.7618 12.6521 20.6645 12.6521 20.6515C12.6521 20.6385 12.5191 20.5445 12.3537 20.4471L12.0552 20.2687L11.9287 20.3822C11.6173 20.6645 11.1469 20.6969 10.8581 20.4569C10.7284 20.3498 10.6083 20.126 10.6083 19.9962V19.9086H11.6627H12.717V19.6556C12.717 19.143 12.5548 18.7375 12.2337 18.4423C11.9676 18.1925 11.7633 18.1178 11.322 18.1049C11.082 18.0951 10.9295 18.1081 10.803 18.1406ZM11.5751 18.8737C11.7113 18.9419 11.8444 19.0976 11.8898 19.25L11.9092 19.3247H11.2604H10.6116L10.6473 19.2176C10.6667 19.1625 10.7122 19.0716 10.7478 19.0197C10.8938 18.8121 11.2993 18.7407 11.5751 18.8737Z" fill="black"/>
<path d="M14.7283 18.1145C14.6051 18.1567 14.4299 18.3092 14.3391 18.4422L14.2417 18.5882V18.3741V18.1567H13.8524H13.4631V19.6977V21.2386H13.8524H14.2417V20.353C14.2417 19.3895 14.2612 19.2565 14.4169 19.0489C14.5207 18.9158 14.7446 18.8218 14.9035 18.851C14.9619 18.8639 15.069 18.9094 15.1339 18.9515C15.1987 18.997 15.2604 19.0261 15.2734 19.0197C15.2863 19.0132 15.3674 18.8575 15.4583 18.6758L15.6205 18.3481L15.5394 18.2832C15.348 18.1373 14.9197 18.0464 14.7283 18.1145Z" fill="black"/>
<path d="M27.7925 18.1373C27.0691 18.3449 26.6019 18.9581 26.6019 19.6945C26.6019 20.4893 27.108 21.1284 27.8607 21.2906C28.8242 21.4917 29.7195 20.8851 29.8461 19.9378C29.9466 19.1981 29.5346 18.4877 28.8371 18.1989C28.6684 18.1308 28.5679 18.1113 28.2889 18.1048C28.065 18.0984 27.8931 18.1081 27.7925 18.1373ZM28.662 18.9159C29.0383 19.1397 29.1745 19.7107 28.9604 20.1811C28.7366 20.6645 28.0099 20.7715 27.6336 20.3725C27.4 20.1259 27.3221 19.6069 27.4746 19.289C27.5622 19.1008 27.7504 18.9191 27.9158 18.8542C28.1202 18.7764 28.4738 18.8056 28.662 18.9159Z" fill="black"/>
<path d="M31.9546 18.121C31.7957 18.1697 31.6464 18.2638 31.4778 18.426L31.3058 18.5882V18.3708V18.1567H30.9165H30.5272V19.6977V21.2386H30.9133H31.3026L31.3123 20.2881C31.322 19.37 31.3253 19.3343 31.3999 19.1689C31.4907 18.9678 31.614 18.8542 31.7924 18.8055C31.9546 18.7634 32.1396 18.8055 32.2401 18.9126C32.3991 19.0813 32.4088 19.1559 32.4088 20.233V21.2386H32.8176H33.2263L33.2101 20.1421C33.1939 18.9613 33.1842 18.8737 33.0057 18.546C32.9019 18.3546 32.7332 18.2086 32.5386 18.1405C32.3926 18.0886 32.0909 18.0789 31.9546 18.121Z" fill="black"/>
<path d="M34.5013 18.1697C34.0179 18.3708 33.8038 18.9126 34.0309 19.3571C34.138 19.5647 34.3294 19.7236 34.67 19.8923C34.8452 19.9767 35.0334 20.0773 35.0885 20.1194C35.3026 20.2816 35.2994 20.5087 35.0885 20.6125C34.9198 20.6904 34.7414 20.6288 34.5403 20.4244C34.4559 20.3368 34.378 20.2654 34.3683 20.2654C34.3132 20.2654 33.8038 20.5996 33.8038 20.6352C33.8038 20.6969 33.9693 20.9142 34.1023 21.031C34.4559 21.3425 35.0139 21.4138 35.4486 21.2095C35.8671 21.0116 36.0715 20.6028 35.9774 20.1584C35.9028 19.795 35.6789 19.5809 35.121 19.3376C34.8095 19.2013 34.6473 19.0781 34.6473 18.971C34.6473 18.8704 34.7738 18.7731 34.9036 18.7731C35.0236 18.7731 35.2767 18.9029 35.3091 18.984C35.3351 19.0586 35.3675 19.0456 35.653 18.8672C35.9514 18.679 35.9514 18.679 35.6887 18.4163C35.4681 18.1957 35.2702 18.1113 34.9555 18.0983C34.7381 18.0918 34.6635 18.1048 34.5013 18.1697Z" fill="black"/>
<path d="M14.6988 2.59709C14.4469 2.72685 13.2829 3.5016 12.9241 3.7802C12.7676 3.90233 12.6035 4.05881 12.5577 4.1275C12.4013 4.35649 12.2143 5.3297 12.1723 6.12353C12.1494 6.56624 12.1494 6.57006 12.2715 6.82958C12.4165 7.13872 12.886 7.85622 13.1149 8.11193C13.2943 8.31802 13.4279 8.36763 14.0309 8.46304C14.5423 8.54319 14.6415 8.55464 14.6415 8.52029C14.6415 8.50502 14.5614 8.35618 14.466 8.19207C14.3668 8.02796 14.2103 7.73409 14.1149 7.53563C13.9584 7.21505 13.9393 7.14635 13.924 6.84867C13.905 6.47465 13.9889 5.92889 14.0958 5.71135C14.1836 5.52434 14.4087 5.39076 15.069 5.12743C15.569 4.92515 15.7789 4.88699 15.9239 4.96713C15.9659 4.99003 15.9239 5.01293 15.7598 5.04728C15.5728 5.08926 15.5117 5.12743 15.359 5.28772C15.2598 5.39076 15.0804 5.62357 14.9583 5.80295C14.7522 6.10445 14.737 6.14261 14.7408 6.34489C14.7408 6.48228 14.7866 6.68837 14.8629 6.92118C15.0346 7.42877 15.1644 7.65013 15.3323 7.73409L15.4697 7.79897L15.3438 8.04323C15.1873 8.33328 15.0232 8.76455 15.0232 8.87141C15.0232 8.94392 15.0385 8.95155 15.1682 8.92865C15.4087 8.88667 15.943 8.7073 16.0002 8.65005C16.0384 8.61189 16.0536 8.50121 16.0536 8.27222C16.0536 7.99361 16.0613 7.95163 16.1223 7.95163C16.2865 7.95545 16.2941 7.97835 16.3246 8.98972C16.3437 9.52021 16.378 10.1003 16.4009 10.2797C16.4696 10.8064 16.6567 11.7032 16.7406 11.9361C16.8169 12.1307 16.8513 12.1727 17.1146 12.3597C17.2749 12.4704 17.5993 12.6612 17.8283 12.7833L18.2481 13.0009L18.6756 12.9741C19.1183 12.9512 19.6717 12.8825 19.7289 12.8482C19.748 12.8367 19.7556 12.7299 19.7404 12.6116C19.645 11.749 19.6068 11.146 19.6335 10.9399L19.6602 10.7071L20.0037 10.9209C20.4273 11.1842 20.9082 11.3865 21.1105 11.3865C21.2899 11.3865 21.725 11.1957 21.828 11.0697C22.0036 10.8522 22.16 10.5965 22.16 10.5201C22.16 10.3408 21.4693 9.92476 21.1563 9.92094L21.0075 9.91713L20.7899 10.3179C20.6716 10.5392 20.5495 10.7224 20.5189 10.73C20.4846 10.7339 20.2785 10.6308 20.061 10.5011L19.6602 10.2606L19.6755 9.34465C19.6831 8.84088 19.6984 8.31802 19.7137 8.18062C19.7366 7.944 19.7404 7.93255 19.8434 7.9211L19.9465 7.90965V8.20734C19.9465 8.63097 19.977 8.67295 20.3739 8.79889C20.7975 8.93247 21.0151 8.97064 21.0151 8.90957C21.0151 8.82943 20.7136 8.09284 20.6144 7.93255L20.5228 7.78371L20.7212 7.68448C20.954 7.5738 21.0075 7.4822 21.1372 6.97843C21.1906 6.76089 21.225 6.52045 21.225 6.32962C21.225 6.02812 21.2212 6.01285 21.0571 5.76478C20.9655 5.62357 20.809 5.4213 20.7136 5.32207C20.5609 5.16177 20.5037 5.12743 20.2594 5.06636L19.9808 4.99385L20.1602 4.94805C20.3319 4.90607 20.3625 4.90989 20.7212 5.04346C21.2441 5.2381 21.7784 5.50908 21.8624 5.62357C21.9807 5.78386 22.0494 6.11208 22.0723 6.59678C22.0952 7.16162 22.0608 7.27993 21.641 8.01651C21.4807 8.29893 21.3586 8.53556 21.3662 8.53937C21.3891 8.55845 22.1028 8.45541 22.389 8.39053C22.6485 8.32947 22.6943 8.30657 22.8699 8.12719C23.0951 7.89438 23.6027 7.15017 23.7477 6.82958C23.8469 6.61204 23.8507 6.58914 23.8278 6.10445C23.8049 5.56251 23.6943 4.84882 23.5645 4.40993C23.4958 4.16949 23.4576 4.10842 23.2859 3.95195C23.0187 3.71151 22.2974 3.2001 21.6868 2.82226L21.1868 2.51313L20.8052 2.51694C20.3587 2.52458 19.6526 2.62381 19.3167 2.72685C19.042 2.81081 18.8282 3.01309 18.5038 3.49397L18.3054 3.79165L18.1375 3.76875C18.042 3.75349 17.9161 3.76112 17.8512 3.78402C17.7367 3.826 17.7291 3.82219 17.5726 3.58938C17.3055 3.18865 17.0498 2.89096 16.9009 2.81081C16.7177 2.70777 16.3246 2.61999 15.7216 2.55129C15.0575 2.47496 14.924 2.47878 14.6988 2.59709ZM18.4657 4.32978C18.7634 4.40993 18.771 4.41756 19.0381 4.71906L19.3053 5.02438L18.958 5.20376C18.7672 5.30299 18.5763 5.41366 18.5382 5.44801C18.4466 5.53197 18.1909 6.19604 18.1642 6.42122C18.1489 6.55861 18.168 6.66166 18.2596 6.89065C18.4657 7.42496 18.5267 7.50129 18.9198 7.70356L19.2671 7.88294L19.2328 8.44014C19.2175 8.74928 19.2099 9.21871 19.2137 9.48586C19.2213 9.75683 19.2175 9.97437 19.2061 9.97437C19.1946 9.97437 19.0916 9.91713 18.9809 9.84461C18.8664 9.7721 18.645 9.64616 18.4848 9.56601L18.1909 9.4248V9.1004V8.77981L18.5153 8.44396C18.6947 8.25695 18.8397 8.08139 18.8397 8.05086C18.8397 8.00888 18.7557 7.9898 18.4733 7.97071C18.0764 7.94018 17.2368 7.97453 17.1871 8.02415C17.1528 8.05849 17.4352 8.40961 17.6909 8.65768L17.8474 8.80653V9.11948V9.43243L17.5154 9.61181C17.3284 9.71104 17.0955 9.85225 16.9963 9.92476C16.8933 9.99727 16.8055 10.0507 16.7979 10.0431C16.794 10.0354 16.7788 9.55074 16.7711 8.963L16.7521 7.89438L17.0536 7.72264C17.5154 7.46694 17.6413 7.33718 17.7558 6.99751C17.897 6.58533 17.8894 6.40977 17.6947 5.91744C17.5154 5.45183 17.4581 5.38695 17.0383 5.13888L16.7406 4.96332L16.8589 4.81829C17.0498 4.57785 17.2787 4.41374 17.5421 4.3336C17.8627 4.23055 18.0955 4.23055 18.4657 4.32978ZM16.878 5.54342C17.2062 5.75715 17.2635 5.83729 17.3551 6.19223C17.4314 6.49755 17.4314 6.51663 17.3703 6.77234C17.2978 7.06239 17.2139 7.1578 16.7864 7.41732C16.5994 7.53182 16.5612 7.53945 16.3666 7.52037C16.0994 7.48984 15.6376 7.35244 15.5499 7.27611C15.4735 7.20742 15.3018 6.71127 15.2674 6.45938C15.2407 6.26093 15.2789 6.16933 15.5308 5.78768C15.6987 5.53579 15.775 5.48618 16.0765 5.43656C16.4964 5.36405 16.6338 5.38313 16.878 5.54342ZM19.9274 5.43656C20.0953 5.46328 20.2518 5.50908 20.309 5.55487C20.4502 5.66555 20.7479 6.1388 20.7746 6.29146C20.7975 6.4403 20.7136 6.7876 20.5762 7.10055L20.4884 7.29901L20.1678 7.39824C19.6831 7.55472 19.4961 7.56235 19.2481 7.44404C18.8893 7.26466 18.7748 7.1349 18.6908 6.79523C18.6183 6.50518 18.6183 6.48991 18.6832 6.21513C18.7672 5.86019 18.8244 5.77623 19.1145 5.56632C19.3702 5.3755 19.4351 5.36405 19.9274 5.43656ZM18.1642 9.80645C18.4886 9.97056 19.1068 10.3331 19.1068 10.3637C19.1068 10.4209 18.7481 10.6575 18.4046 10.8331C18.0191 11.0315 17.9772 11.0315 17.607 10.8484C17.3474 10.7148 16.9849 10.4858 16.9505 10.4324C16.9391 10.4133 17.0078 10.3408 17.1032 10.2721C17.3131 10.1232 17.9657 9.74538 18.0115 9.74538C18.0268 9.74538 18.0955 9.7721 18.1642 9.80645Z" fill="black"/>
<path d="M19.8511 5.96703L19.6603 6.15785L19.4656 5.98611L19.271 5.81819L19.168 5.92505C19.1145 5.9823 19.0687 6.05481 19.0687 6.08534C19.0687 6.11587 19.1374 6.21129 19.2214 6.29143C19.3053 6.37158 19.374 6.45172 19.374 6.46699C19.374 6.47844 19.3053 6.57004 19.2176 6.66926C19.1298 6.76468 19.0687 6.86772 19.0802 6.89444C19.0916 6.92115 19.1603 6.97458 19.2405 7.01657L19.3817 7.0929L19.4504 7.00512C19.4924 6.9555 19.5572 6.87154 19.5954 6.81429L19.6679 6.71888L19.8435 6.90589L20.019 7.0929L20.1641 6.95169L20.3053 6.80666L20.1297 6.62728L19.9503 6.44409L20.1221 6.2609C20.2137 6.15785 20.29 6.06244 20.29 6.04718C20.29 6.03191 20.2328 5.96703 20.1641 5.89833L20.0381 5.7762L19.8511 5.96703Z" fill="black"/>
</svg>
