<svg width="36" height="24" viewBox="0 0 36 24" fill="none" xmlns="http://www.w3.org/2000/svg">
<path d="M17.6866 14.6779C12.2554 14.6782 6.82449 14.6788 1.39324 14.6776C0.669619 14.6776 0.169942 14.2795 0.0264653 13.5877C-0.0212566 13.3568 -0.00254215 13.123 0.0673251 12.8956C0.302503 12.1289 0.533316 11.3609 0.773172 10.5959C1.03549 9.75906 1.83366 9.18981 2.73445 9.18981C8.1501 9.18951 13.5654 9.18981 18.9811 9.18951C19.0693 9.18951 19.158 9.18921 19.2462 9.18921C19.2756 9.24126 19.2552 9.29061 19.236 9.33861C19.0008 9.92271 18.8479 10.5335 18.6589 11.1323C18.3897 11.9839 18.1302 12.8386 17.8729 13.6937C17.7918 13.9636 17.7421 14.2387 17.736 14.521C17.7343 14.5771 17.7394 14.6369 17.6866 14.6779Z" fill="#0082C2"/>
<path d="M17.6866 14.6779C17.6626 14.0575 17.8854 13.4893 18.0622 12.9117C18.3891 11.844 18.7197 10.7772 19.0459 9.7093C19.1005 9.5308 19.1776 9.36205 19.2459 9.18925C19.6929 8.33185 20.3522 7.69711 21.2354 7.30006C21.6796 7.10044 22.145 6.99939 22.6354 7C25.4983 7.00344 28.3613 6.99751 31.2244 7.00561C31.8359 7.00717 32.3962 7.20243 32.8706 7.59918C33.3403 7.99188 33.5749 8.5084 33.6269 9.1132C33.6292 9.1387 33.635 9.16405 33.6394 9.18955C33.7006 9.25075 33.7027 9.3271 33.6986 9.40675C33.6797 9.77695 33.5957 10.1338 33.4868 10.4868C33.1094 11.7105 32.753 12.9406 32.3665 14.1612C32.3095 14.3415 32.269 14.5335 32.1211 14.6721C31.6385 15.541 30.9352 16.1651 30.0241 16.5565C29.5577 16.7567 29.0713 16.8596 28.5622 16.8596C25.6958 16.8587 22.829 16.8737 19.9626 16.8523C19.0191 16.8451 18.3027 16.3925 17.8897 15.5182C17.764 15.2534 17.7241 14.9654 17.6866 14.6779Z" fill="black"/>
<path d="M32.1208 14.6723C32.6412 13.302 32.9868 11.8773 33.4368 10.4849C33.5731 10.0632 33.6696 9.63679 33.6393 9.18994C34.0332 9.20179 34.4274 9.17209 34.8217 9.21514C35.4477 9.28339 35.977 9.85864 35.9991 10.488C36.0103 10.8084 35.9143 11.1003 35.8236 11.3969C35.6617 11.9259 35.4855 12.4512 35.3433 12.9858C35.1483 13.7172 34.6695 14.1819 34.0057 14.4854C33.7107 14.6205 33.3988 14.6879 33.0712 14.6801C32.7544 14.6723 32.4375 14.6745 32.1208 14.6723Z" fill="#0082C2"/>
<path d="M9.71898 13.5772C9.63071 13.5772 9.5415 13.5702 9.45417 13.5789C9.31194 13.5928 9.30102 13.5349 9.34127 13.4176C9.42236 13.183 9.4913 12.9441 9.57051 12.7089C9.60452 12.6082 9.59952 12.5568 9.47102 12.562C9.2792 12.5701 9.08643 12.5689 8.8943 12.562C8.80229 12.5586 8.76548 12.6007 8.74146 12.6787C8.66037 12.9406 8.57303 13.2009 8.49537 13.4638C8.47073 13.5474 8.43299 13.582 8.34347 13.5789C8.15664 13.5729 7.96917 13.5735 7.78235 13.5786C7.67817 13.5813 7.64292 13.5576 7.67786 13.4451C7.91928 12.67 8.15133 11.8917 8.39525 11.1175C8.54684 10.636 9.01002 10.3048 9.51219 10.3011C9.77201 10.2991 10.0318 10.2976 10.2917 10.3014C10.7598 10.3078 11.0156 10.6326 10.8833 11.0811C10.6466 11.8846 10.3908 12.6822 10.1482 13.4841C10.1241 13.5633 10.0845 13.5792 10.015 13.5777C9.91643 13.5754 9.81755 13.5772 9.71898 13.5772Z" fill="#FEFEFE"/>
<path d="M3.42339 12.7446C3.28365 12.761 3.08061 12.6779 2.95365 12.7769C2.83482 12.8697 2.83638 13.0763 2.78554 13.2326C2.67357 13.5762 2.67606 13.5768 2.32173 13.5768C2.22316 13.5768 2.12398 13.5713 2.02573 13.5782C1.89879 13.5869 1.86198 13.5572 1.90503 13.4205C2.15517 12.6275 2.39596 11.8311 2.64019 11.0361C2.70538 10.8237 2.77711 10.6131 2.83513 10.3988C2.85603 10.3221 2.8894 10.2993 2.96301 10.2996C3.49762 10.3022 4.03254 10.2944 4.56715 10.3056C4.95267 10.3137 5.20345 10.6343 5.10894 11.0079C5.02161 11.3529 4.92772 11.7014 4.78581 12.0257C4.58836 12.477 4.23061 12.7385 3.71752 12.7446C3.62956 12.7457 3.54129 12.7446 3.42339 12.7446Z" fill="#FEFEFE"/>
<path d="M11.8257 13.5798C11.7218 13.5798 11.6176 13.5767 11.5141 13.581C11.4252 13.5845 11.4049 13.5501 11.4311 13.4684C11.4926 13.2764 11.544 13.0811 11.6114 12.8912C11.6441 12.7985 11.6261 12.7641 11.5316 12.7436C11.1548 12.6609 10.9636 12.374 11.0662 12.0053C11.2172 11.4626 11.3909 10.926 11.5528 10.3865C11.5727 10.3197 11.6102 10.2986 11.6772 10.2998C11.8694 10.3032 12.0624 10.3098 12.2539 10.298C12.3993 10.2888 12.3862 10.3547 12.3559 10.4523C12.2168 10.9014 12.0843 11.3528 11.9398 11.8004C11.9012 11.9201 11.9324 11.9429 12.0453 11.9385C12.2321 11.9316 12.4196 11.9307 12.6064 11.9391C12.7031 11.9435 12.7402 11.907 12.7667 11.8185C12.9064 11.3531 13.0562 10.8905 13.1937 10.4246C13.2205 10.3335 13.2542 10.2957 13.3509 10.2989C13.5377 10.3053 13.7252 10.3047 13.912 10.2992C14.0106 10.296 14.0306 10.3365 14.0047 10.4199C13.84 10.9479 13.6965 11.484 13.5034 12.0018C13.3469 12.4217 13.0237 12.6834 12.563 12.7407C12.4854 12.7505 12.4613 12.7916 12.4423 12.858C12.3881 13.0467 12.3188 13.2317 12.2717 13.422C12.2415 13.5437 12.1903 13.6007 12.0596 13.5819C11.9829 13.5708 11.9037 13.5798 11.8257 13.5798Z" fill="#FEFEFE"/>
<path d="M5.96358 13.5809C5.59491 13.5809 5.22592 13.578 4.85725 13.5827C4.75338 13.584 4.73748 13.5596 4.76898 13.4589C5.08713 12.443 5.4009 11.4252 5.71374 10.4078C5.73901 10.3257 5.77987 10.2927 5.86845 10.2959C6.05529 10.3023 6.24243 10.3028 6.42927 10.2962C6.55153 10.2918 6.56463 10.3302 6.53001 10.4415C6.30825 11.1518 6.09364 11.8641 5.87656 12.5759C5.82261 12.753 5.82229 12.753 6.0088 12.7533C6.16975 12.7536 6.331 12.749 6.49164 12.7553C6.58491 12.759 6.63106 12.7281 6.65727 12.6354C6.71278 12.4365 6.78328 12.2415 6.84192 12.0435C6.86625 11.9609 6.90679 11.9283 6.99631 11.9315C7.18813 11.9387 7.38058 11.9358 7.57272 11.9327C7.66005 11.9315 7.69747 11.9496 7.66536 12.0491C7.51033 12.531 7.35874 13.0142 7.2109 13.4982C7.18626 13.5792 7.13635 13.5821 7.07023 13.5821C6.70093 13.58 6.33226 13.5809 5.96358 13.5809Z" fill="#FEFEFE"/>
<path d="M16.7858 11.9405C16.5329 11.9405 16.2946 11.9431 16.0564 11.9393C15.9656 11.9378 15.9634 12.0037 15.9452 12.061C15.8012 12.5195 15.6515 12.9764 15.5174 13.4378C15.4822 13.5593 15.4282 13.5893 15.3121 13.5835C15.1306 13.574 14.9485 13.5797 14.7666 13.5815C14.6896 13.5824 14.6528 13.5743 14.6836 13.4764C14.849 12.9484 14.9965 12.4147 15.1693 11.8894C15.3172 11.4406 15.779 11.1215 16.2538 11.1149C16.5292 11.1112 16.8046 11.1112 17.08 11.1166C17.4874 11.1241 17.75 11.4307 17.6471 11.8246C17.4995 12.3895 17.3152 12.9449 17.1484 13.5046C17.1302 13.5647 17.0969 13.5832 17.0357 13.5821C16.8329 13.5787 16.6303 13.5754 16.4278 13.5832C16.3109 13.5875 16.2971 13.5469 16.3286 13.4462C16.4674 13.0021 16.6019 12.5566 16.7375 12.1115C16.7537 12.0584 16.7678 12.0052 16.7858 11.9405Z" fill="#FEFEFE"/>
<path d="M15.4495 10.3043C15.357 10.6076 15.2697 10.8923 15.1836 11.1777C15.1657 11.2361 15.1308 11.2566 15.0694 11.256C14.8208 11.2532 14.5722 11.2526 14.3239 11.256C14.2297 11.2572 14.2248 11.2242 14.2506 11.1443C14.3299 10.8992 14.4016 10.6515 14.4755 10.4045C14.4905 10.3542 14.5005 10.3037 14.571 10.304C14.8585 10.305 15.147 10.3043 15.4495 10.3043Z" fill="#FEFEFE"/>
<path d="M30.3208 7.90926C30.7051 7.90926 31.0903 7.89553 31.474 7.91238C32.1147 7.94046 32.6215 8.35965 32.766 8.9623C32.8351 9.25105 32.8131 9.54025 32.7279 9.82195C32.3211 11.169 31.9444 12.5268 31.4908 13.858C31.0875 15.0413 30.2017 15.7263 28.975 15.9397C28.6519 15.9958 28.3113 15.9522 27.9787 15.9528C27.5683 15.9534 27.1575 15.9606 26.7474 15.9508C25.7748 15.9282 25.1829 15.1474 25.3546 14.2233C25.5013 13.4341 25.8042 12.6855 26.0287 11.9164C26.22 11.2611 26.4295 10.611 26.6316 9.95875C27 8.76955 28.1416 7.91518 29.3857 7.90053C29.6974 7.89678 30.0093 7.8999 30.3208 7.8999C30.3208 7.90302 30.3208 7.90614 30.3208 7.90926Z" fill="#FE1323"/>
<path d="M24.4319 7.90617C25.0919 7.90617 25.7522 7.9096 26.4122 7.90336C26.5484 7.90212 26.5805 7.92769 26.5348 8.06463C26.3482 8.62411 26.1679 9.18586 25.9945 9.74986C25.9583 9.86776 25.9138 9.91051 25.7834 9.90991C24.5672 9.90361 23.3507 9.90766 22.1347 9.90361C22.024 9.90331 21.9712 9.93301 21.9376 10.0424C21.5516 11.2935 21.1628 12.5436 20.7685 13.7922C20.7268 13.9244 20.7427 13.9625 20.8873 13.9607C21.4279 13.9538 21.9685 13.9556 22.5089 13.9601C22.6118 13.961 22.664 13.9394 22.6939 13.8284C22.7774 13.5186 22.8736 13.212 22.9744 12.9077C23.0132 12.7895 22.9802 12.762 22.8667 12.765C22.6589 12.7707 22.4509 12.7653 22.2428 12.7673C22.1468 12.7682 22.0985 12.758 22.1399 12.635C22.2971 12.1691 22.4441 11.6996 22.591 11.2305C22.6169 11.1482 22.6565 11.1198 22.745 11.1201C23.639 11.1239 24.5329 11.1239 25.4272 11.1204C25.5388 11.1201 25.555 11.1459 25.5214 11.2533C25.2365 12.1616 24.9839 13.0811 24.671 13.9793C24.3074 15.0239 23.5729 15.6926 22.4783 15.9356C22.3733 15.959 22.2616 15.9618 22.1531 15.9615C21.3944 15.9606 20.6353 15.9818 19.877 15.9512C19.1824 15.9234 18.6092 15.3212 18.5911 14.6294C18.5827 14.3109 18.6596 14.0133 18.7532 13.7165C19.1575 12.4335 19.5611 11.1503 19.9672 9.86776C20.3222 8.74651 21.4609 7.91085 22.6384 7.90648C23.2363 7.90431 23.8342 7.90617 24.4319 7.90617Z" fill="#FE1323"/>
<path d="M9.66545 11.1062C9.77304 11.1225 9.95177 11.0463 10.0213 11.1408C10.0675 11.2038 9.96736 11.3763 9.92962 11.4989C9.88596 11.6418 9.8872 11.8311 9.77991 11.9123C9.67167 11.9939 9.48984 11.934 9.34011 11.9352C8.97612 11.9384 8.97612 11.9363 9.08092 11.5832C9.10711 11.4945 9.14736 11.4078 9.15953 11.3171C9.18386 11.1339 9.28211 11.0757 9.45552 11.1044C9.51603 11.1147 9.57966 11.1062 9.66545 11.1062Z" fill="#0083C2"/>
<path d="M3.58438 11.9399C3.47646 11.9237 3.29743 12.0005 3.22725 11.9084C3.17953 11.8457 3.27559 11.6708 3.31302 11.548C3.35638 11.4059 3.36699 11.221 3.46336 11.1374C3.56349 11.0504 3.75094 11.1134 3.90034 11.1122C4.27183 11.1088 4.27183 11.1109 4.16359 11.4602C4.15455 11.4899 4.14613 11.5198 4.13677 11.5492C4.01512 11.9399 4.01512 11.9399 3.58438 11.9399Z" fill="#0083C2"/>
<path d="M28.426 13.9587C28.1405 13.9587 27.8548 13.9546 27.5695 13.9608C27.4562 13.9633 27.4387 13.9305 27.4715 13.8261C27.872 12.5541 28.2697 11.2815 28.6658 10.008C28.6898 9.93086 28.7257 9.90281 28.8077 9.90341C29.3837 9.90686 29.9602 9.91031 30.5363 9.90191C30.6994 9.89936 30.6539 9.98111 30.6286 10.0638C30.3463 10.9774 30.0631 11.8909 29.7799 12.8043C29.6729 13.1496 29.5606 13.4935 29.4599 13.8408C29.4328 13.9342 29.3923 13.9627 29.2981 13.9608C29.0077 13.9549 28.7167 13.9587 28.426 13.9587Z" fill="black"/>
</svg>
