<svg width="36" height="24" viewBox="0 0 36 24" fill="none" xmlns="http://www.w3.org/2000/svg">
<path d="M12.1754 2.22017C11.9089 2.50989 12.0132 3.21681 12.4072 3.79626C12.7317 4.283 12.7433 4.31776 12.5115 4.31776C12.2681 4.31776 12.4188 4.60749 12.7433 4.75814C12.9866 4.87403 13.0446 4.85085 13.1489 4.66543C13.3923 4.21346 13.5777 4.39888 13.6356 5.10581C13.6704 5.58096 13.7631 5.88227 13.9369 6.11405C14.2614 6.51966 14.2614 6.67032 13.9485 6.5776C13.7399 6.50807 13.7168 6.51966 13.8326 6.73985C13.9138 6.89051 14.0876 6.98322 14.2498 6.98322C14.6323 6.98322 14.6207 7.19182 14.2151 7.36565C14.0181 7.45836 13.9138 7.57425 13.9369 7.70173C13.9949 8.00304 14.2846 8.03781 14.6902 7.79444C15.0611 7.56266 15.5826 7.48154 15.5826 7.65538C15.5826 7.70173 15.3624 7.86398 15.0958 8.01463C14.7713 8.18847 14.528 8.43183 14.4005 8.70997C14.1455 9.23147 14.1455 9.45166 14.3541 9.85727C14.5627 10.2745 14.6786 10.9466 14.5627 11.1205C14.5048 11.2248 14.4121 11.1205 14.3194 10.8307C14.2267 10.599 14.0644 10.2745 13.9601 10.1122C13.6588 9.68344 13.5893 9.37054 13.7283 9.01128C13.8326 8.74474 13.7979 8.60567 13.4386 8.0494C13.0098 7.35406 12.9171 7.43519 13.2068 8.258C13.3807 8.73315 13.3807 8.74474 13.1373 8.68679C12.9055 8.62885 12.8939 8.65202 12.9635 9.10399C13.0098 9.37054 13.2184 10.0079 13.4386 10.5063C13.6588 11.0162 13.8211 11.445 13.7979 11.4681C13.7747 11.4913 13.6009 11.387 13.4154 11.2248C12.8708 10.7728 12.442 9.67185 12.3608 8.55931C12.3029 7.64379 12.3029 7.6322 12.1522 8.02622C12.0711 8.24641 12.0016 8.76791 12.0016 9.17353C11.99 9.86886 12.0248 9.96157 12.6969 11.0857C13.5313 12.4764 13.485 12.4068 13.6125 12.1982C13.6936 12.0708 13.7747 12.1635 13.9601 12.5691C14.2962 13.334 14.4237 13.3571 14.4237 12.685C14.4237 12.3721 14.4584 12.0823 14.5048 12.0476C14.6439 11.8969 14.8872 12.2214 14.8872 12.5575C14.8872 12.9631 14.8872 12.9631 15.4783 12.6502L15.9534 12.4184L16.4054 12.7082C16.811 12.9863 16.9617 13.0095 17.9815 13.0095C19.0129 13.0095 19.1636 12.9863 19.5576 12.7197L19.9864 12.4184L20.5195 12.6618C20.8208 12.7893 21.0757 12.8936 21.0989 12.8936C21.1105 12.8936 21.1453 12.6966 21.1684 12.4532C21.1916 12.1635 21.2611 12.0244 21.377 12.0244C21.5045 12.0244 21.5625 12.1982 21.6088 12.6502L21.6668 13.2876L22.0028 12.6618C22.2694 12.1751 22.3621 12.0823 22.42 12.2446C22.4664 12.3952 22.675 12.1519 23.2313 11.2479L23.9845 10.0543L23.973 9.12717C23.9614 8.61726 23.9034 8.07258 23.8455 7.92192C23.7528 7.69014 23.718 7.79444 23.6601 8.50137C23.5789 9.56755 23.1965 10.6337 22.6982 11.1205C22.1883 11.642 22.0144 11.6072 22.3042 11.0509C22.5475 10.5642 23.1154 8.94175 23.1154 8.72156C23.1154 8.64043 23.0227 8.61726 22.8836 8.66361C22.6055 8.75632 22.6055 8.70997 22.8257 7.97987C22.9184 7.66696 22.9763 7.38883 22.9531 7.36565C22.93 7.34247 22.7793 7.58584 22.6055 7.92192C22.3737 8.39707 22.3273 8.62885 22.3853 8.97651C22.4316 9.33577 22.3969 9.49802 22.1999 9.77615C22.0492 9.97316 21.8406 10.402 21.7247 10.7264L21.5045 11.3291V10.8307C21.4929 10.5642 21.574 10.147 21.6668 9.91522C21.7595 9.69503 21.8406 9.4053 21.8406 9.28942C21.8406 9.18511 21.7595 9.01128 21.6668 8.90698C21.574 8.81427 21.4929 8.64043 21.4929 8.52455C21.4929 8.39707 21.2611 8.18847 20.8787 7.96828C20.3456 7.66696 20.3109 7.62061 20.5542 7.58584C20.7049 7.56266 21.0294 7.6322 21.2727 7.7365C21.5161 7.85239 21.7942 7.91033 21.887 7.87557C22.1651 7.75968 22.1071 7.45836 21.7826 7.33088C21.4002 7.19182 21.4118 7.00639 21.8058 6.96004C22.1999 6.91368 22.281 6.6819 21.9333 6.60078C21.6783 6.53125 21.6783 6.53125 22.0144 6.17199C22.3042 5.87068 22.3621 5.70843 22.3737 5.21011C22.3853 4.29458 22.3853 4.29458 22.6518 4.43365C22.7793 4.50319 22.8836 4.63066 22.8836 4.72337C22.8836 4.94356 22.9995 4.94356 23.324 4.71179C23.6253 4.50319 23.6601 4.31776 23.3935 4.31776C23.2544 4.31776 23.2776 4.23664 23.5094 3.9585C23.6716 3.76149 23.8339 3.48336 23.8687 3.32111C23.9034 3.17046 23.9498 2.9155 23.9845 2.75326C24.0309 2.55624 23.973 2.394 23.8107 2.23175L23.5789 1.99998L22.9763 2.24334C22.0376 2.61419 21.7247 2.69531 21.0873 2.69531C20.7049 2.69531 20.5658 2.73008 20.6701 2.79961C20.7628 2.85756 21.2264 2.88073 21.7131 2.85756C22.3969 2.82279 22.5359 2.83438 22.3505 2.92709C22.1767 3.03139 22.1303 3.14728 22.1651 3.40224C22.1883 3.58766 22.1535 3.81944 22.0724 3.90056C21.9797 4.02804 21.9681 4.13234 22.0724 4.31776C22.1419 4.45683 22.1767 4.71179 22.1303 4.89721C22.026 5.37235 21.2843 6.27629 20.7744 6.53125C20.334 6.75144 19.6387 6.83256 19.6387 6.65873C19.6387 6.60078 19.9748 6.39218 20.392 6.18358C21.2148 5.76638 21.7247 5.18693 21.7247 4.66543C21.7131 4.3873 21.7131 4.3873 21.5856 4.60749C21.4002 4.93198 21.2611 5.0131 20.8324 5.0131C20.4499 5.0131 19.8705 5.2217 19.8705 5.36077C19.8705 5.39553 19.6735 5.66208 19.4417 5.94021L19.0129 6.43854L18.9318 6.0561C18.8622 5.73161 18.897 5.59255 19.1751 5.25647C19.488 4.88562 19.4996 4.85085 19.3142 4.71179C19.1404 4.57272 19.1404 4.56113 19.3953 4.54954C19.6735 4.54954 19.6735 4.53795 19.4533 4.3873C19.1404 4.15552 19.291 4.06281 20.1254 3.98168L20.8555 3.91215L20.0791 3.70355C19.6503 3.57607 19.2099 3.41383 19.094 3.32111C18.9086 3.18205 18.955 3.17046 19.5228 3.15887L20.1602 3.13569L19.7546 2.96186C19.2215 2.71849 16.6256 2.74167 16.1736 2.98503C15.8839 3.14728 15.8955 3.14728 16.5097 3.15887C17.3441 3.15887 17.1587 3.3327 15.965 3.69196L15.0611 3.9585L15.6985 3.97009C16.0461 3.98168 16.4402 4.02804 16.5676 4.08598C16.7762 4.16711 16.7646 4.19028 16.3938 4.36412L15.9882 4.53795L16.4517 4.54954C16.8805 4.56113 16.9037 4.57272 16.6951 4.72337C16.4749 4.89721 16.4749 4.9088 16.8226 5.27964C17.1471 5.60413 17.1818 5.69685 17.1007 6.0561L17.0196 6.46172L16.7646 6.17199C15.7912 5.05945 15.7332 5.0131 15.2697 5.0131C14.7945 5.0131 14.528 4.87403 14.331 4.4916C14.2035 4.25982 14.2035 4.25982 14.1919 4.50319C14.1919 4.8045 14.7829 5.73161 15.1306 5.98657C15.4435 6.20676 15.6985 6.24153 15.4899 6.03292C15.4087 5.9518 15.3508 5.80115 15.3508 5.68526C15.3508 5.4303 15.7332 5.40712 15.9302 5.66208C16.0577 5.80115 16.0461 5.87068 15.8955 6.02134C15.7216 6.19517 15.7332 6.22994 16.0809 6.45013C16.3938 6.63555 16.417 6.69349 16.2431 6.72826C15.7216 6.83256 15.2697 6.62396 14.5975 5.94021L13.9022 5.24488L13.8906 4.34094C13.8674 3.28635 13.8442 3.14728 13.6125 2.96186C13.4734 2.84597 13.624 2.83438 14.3657 2.89232C14.8756 2.92709 15.2581 2.92709 15.2233 2.89232C15.1885 2.84597 14.8061 2.74167 14.3541 2.64896C13.9138 2.55624 13.2996 2.37082 12.9866 2.24334C12.3261 1.95362 12.4188 1.95362 12.1754 2.22017ZM20.5658 5.68526C20.5658 5.92862 20.3572 6.17199 20.1486 6.17199C19.9052 6.17199 19.8473 5.77797 20.0559 5.62731C20.3456 5.41871 20.5658 5.44189 20.5658 5.68526ZM16.4517 7.46995C16.359 8.00304 16.7067 8.51296 17.3673 8.83745C17.8424 9.05764 17.9004 9.12717 17.9004 9.47484C17.9004 9.9384 17.8076 10.0195 16.8805 10.3208C16.1852 10.5526 16.1273 10.5526 15.7448 10.3788C15.2233 10.1238 15.3044 9.9384 15.9186 9.98475C16.2547 10.0079 16.3938 9.97316 16.3474 9.89204C16.3011 9.82251 16.162 9.76456 16.0345 9.76456C15.7332 9.76456 15.3508 9.55596 15.3508 9.4053C15.3508 9.33577 15.4551 9.31259 15.5826 9.34736C15.71 9.38213 15.9302 9.45166 16.0809 9.48643C16.2431 9.53278 16.162 9.42848 15.8491 9.1967C15.2117 8.73315 15.1538 8.3623 15.768 8.7795C16.3706 9.1967 16.4633 9.13876 16.0577 8.61726C15.8375 8.33912 15.7448 8.13052 15.8143 8.08417C15.8723 8.0494 15.9302 7.91033 15.9302 7.78285C15.9302 7.44677 16.1388 7.09911 16.3474 7.09911C16.4749 7.09911 16.5097 7.19182 16.4517 7.46995ZM19.8937 7.29612C20.0095 7.40042 20.1023 7.59743 20.1023 7.74809C20.1023 7.89874 20.195 8.06099 20.2993 8.13052C20.4847 8.22323 20.4499 8.29277 20.0443 8.65202C19.6851 8.96492 19.6387 9.04605 19.8357 8.9881C19.9748 8.95334 20.1602 8.86062 20.2297 8.76791C20.4036 8.55931 20.5658 8.55931 20.5658 8.7795C20.5658 8.87221 20.3688 9.08081 20.137 9.25465C19.7082 9.54437 19.7314 9.55596 20.4499 9.34736C20.8324 9.24306 20.7165 9.53278 20.3109 9.70662L19.9284 9.85727L20.2529 9.90363C20.6933 9.94998 20.6817 10.1354 20.2066 10.3788C19.8125 10.599 19.8125 10.599 19.0013 10.2629C18.2596 9.96157 18.1901 9.90363 18.1553 9.56755C18.1205 9.24306 18.1785 9.16194 18.5841 8.90698C19.3953 8.39707 19.6387 8.03781 19.5576 7.53949C19.488 7.05275 19.5692 6.99481 19.8937 7.29612ZM17.1587 7.7365C17.4136 7.97987 18.6305 7.96828 18.8854 7.72491C19.1056 7.50472 19.3606 7.66696 19.2563 7.9451C19.094 8.3623 16.9617 8.3623 16.811 7.9451C16.7415 7.78285 16.811 7.56266 16.9269 7.56266C16.9617 7.56266 17.066 7.64379 17.1587 7.7365ZM18.642 10.8076C19.3953 10.9235 19.998 11.3175 20.2761 11.8506C20.5195 12.3141 20.4963 12.3373 20.0791 12.0823C19.6735 11.839 19.5228 11.8737 19.5228 12.1982C19.5228 12.488 18.9781 12.6502 17.9004 12.6502C16.8342 12.6618 16.3938 12.5111 16.3938 12.1287C16.3938 11.7926 16.2779 11.781 15.8839 12.0939C15.4203 12.4648 15.4899 12.0708 15.9998 11.5145C16.4402 11.0162 16.8574 10.8423 17.8424 10.7033C17.9119 10.7033 18.2596 10.738 18.642 10.8076Z" fill="#EE1C25"/>
<path fill-rule="evenodd" clip-rule="evenodd" d="M34.6494 19.1338L36 21.3212L34.4605 21.3225L33.1869 19.2686H33.1729V21.3225H31.7855V15.9966H33.8567C34.3384 15.9682 34.8149 16.1079 35.205 16.3918C35.3798 16.5435 35.5167 16.7338 35.6051 16.9476C35.6935 17.1615 35.7309 17.3929 35.7143 17.6237C35.7229 17.9789 35.6147 18.3272 35.4063 18.6149C35.3252 18.751 35.2155 18.8678 35.0848 18.9574C34.9542 19.047 34.8056 19.1072 34.6494 19.1338ZM34.1892 17.3704C34.1366 17.2827 34.0603 17.2114 33.9692 17.1648C33.8737 17.1166 33.771 17.0844 33.665 17.0694C33.5466 17.0524 33.4271 17.044 33.3075 17.0446H33.1731V18.3761H33.3075C33.4271 18.3768 33.5466 18.3686 33.665 18.3515C33.771 18.3365 33.8737 18.3043 33.9692 18.2561C34.0605 18.2097 34.1368 18.1384 34.1892 18.0505C34.2423 17.945 34.27 17.8286 34.27 17.7105C34.27 17.5923 34.2423 17.4759 34.1892 17.3704ZM27.893 15.9968H30.9289V17.1761H29.2858V18.0336H30.9289V19.2486H29.2858V20.1061H30.9289V21.3212H27.893V15.9968ZM7.82174 17.1761H6.1788V18.0336H7.82174V19.2486H6.1788V20.1061H7.82174V21.3212H4.78591V15.9968H7.82174V17.1761ZM2.67501 21.3225L1.4014 19.2686H1.38756V21.3225H0V15.9966H2.07163C2.55323 15.9683 3.02967 16.108 3.4198 16.3918C3.59453 16.5435 3.7315 16.7338 3.8199 16.9476C3.9083 17.1614 3.94569 17.3929 3.92909 17.6237C3.93761 17.9789 3.82949 18.3271 3.62116 18.6149C3.51893 18.7536 3.39034 18.8706 3.24274 18.9593C3.09514 19.0481 2.9314 19.1068 2.76104 19.1321L4.21477 21.3195L2.67501 21.3225ZM2.40328 17.3709C2.35071 17.2831 2.27456 17.2118 2.18343 17.1653C2.08802 17.117 1.98527 17.0848 1.87936 17.0698C1.76088 17.0528 1.64129 17.0446 1.5216 17.0452H1.38756V18.3766H1.5216C1.6413 18.3773 1.76089 18.369 1.87936 18.352C1.98527 18.337 2.08801 18.3048 2.18343 18.2565C2.27479 18.2103 2.35103 18.139 2.40328 18.051C2.45656 17.9455 2.48432 17.829 2.48432 17.7109C2.48432 17.5928 2.45656 17.4763 2.40328 17.3709ZM11.4645 16.1986C11.7679 16.3321 12.0413 16.5253 12.2683 16.7669C12.5011 17.0147 12.6843 17.3049 12.8076 17.6217C13.0653 18.2901 13.0642 19.0305 12.8046 19.6981C12.6795 20.0138 12.4952 20.3026 12.2614 20.5489C12.0335 20.7895 11.7603 20.9826 11.4575 21.1172C11.1553 21.2532 10.8275 21.3232 10.4961 21.3223H8.67856V15.997H10.4961C10.8294 15.9954 11.1593 16.0639 11.4645 16.1979V16.1986ZM9.96056 17.1697V20.1498H10.2481C10.4347 20.1514 10.6203 20.1216 10.7972 20.0619C10.9712 20.0032 11.1296 19.9062 11.2608 19.7778C11.3921 19.6494 11.4927 19.493 11.5551 19.3204C11.633 19.1091 11.6708 18.8851 11.6665 18.66C11.6781 18.4611 11.6499 18.2619 11.5838 18.074C11.5176 17.8861 11.4147 17.7132 11.281 17.5654C11.1475 17.4325 10.9879 17.3288 10.8122 17.2608C10.6365 17.1927 10.4486 17.1619 10.2604 17.1702L9.96056 17.1697ZM18.786 17.1697H17.6395V21.3223H16.2532V17.1697H15.1065V15.9973H18.786V17.1697ZM21.0194 21.3234H19.6317V15.9819H21.0194V21.3234ZM22.6012 16.7325C22.843 16.4917 23.1335 16.3054 23.4532 16.1862C23.8005 16.0577 24.1684 15.9937 24.5387 15.9975C25.0107 15.9858 25.4766 16.1075 25.8826 16.3485C26.2773 16.599 26.586 16.9639 26.7679 17.3946L25.5485 17.9108C25.469 17.6812 25.3254 17.4791 25.1349 17.3283C24.9469 17.1854 24.7158 17.1107 24.4797 17.1165C24.29 17.1136 24.1028 17.1592 23.9356 17.2488C23.7742 17.3365 23.635 17.4599 23.5288 17.6098C23.4182 17.7648 23.334 17.937 23.2795 18.1195C23.1664 18.493 23.1664 18.8918 23.2795 19.2653C23.3341 19.4474 23.4194 19.6187 23.532 19.7719C23.641 19.9199 23.7824 20.041 23.9453 20.1261C24.1165 20.2139 24.3066 20.2582 24.499 20.255C24.7561 20.2651 25.0086 20.1856 25.2135 20.0301C25.3088 19.9512 25.3866 19.8533 25.442 19.7427C25.4973 19.6321 25.5289 19.5111 25.5348 19.3876H24.4862V18.3681H27.036C27.034 18.737 26.9979 19.1049 26.9282 19.4671C26.858 19.783 26.7228 20.0808 26.5311 20.3415C26.309 20.6609 26.006 20.9157 25.6533 21.0799C25.2887 21.2441 24.8928 21.3266 24.493 21.3216C24.1303 21.3254 23.77 21.2614 23.4308 21.1329C23.1168 21.013 22.831 20.8291 22.5917 20.5931C22.353 20.3558 22.1675 20.0705 22.0474 19.7562C21.9175 19.4148 21.8529 19.0522 21.8571 18.687C21.8525 18.3118 21.918 17.9389 22.0503 17.5878C22.1722 17.2672 22.3599 16.9756 22.6012 16.7318V16.7325Z" fill="#EE1C25"/>
</svg>
