<svg width="36" height="24" viewBox="0 0 36 24" fill="none" xmlns="http://www.w3.org/2000/svg">
<path d="M15.2422 7.35483L14.8169 7.36449L14.7944 7.61257C14.7847 7.74788 14.7783 9.89358 14.7847 12.3776L14.7944 16.8977L15.922 16.9009C17.1076 16.9009 18.2159 16.9202 18.683 16.946C18.8989 16.9557 18.9698 16.9492 18.9988 16.9138C19.0278 16.8784 19.0278 15.7959 18.9955 12.0973L18.9537 7.32583L17.3106 7.3355C16.4052 7.34194 15.4742 7.34838 15.2422 7.35483ZM15.7126 8.68219C15.7126 8.70152 15.8994 8.71441 16.2119 8.71441H16.7113V11.5335V14.3525H17.4394C17.9066 14.3525 18.1901 14.3654 18.232 14.3879C18.2964 14.4234 18.2964 14.4395 18.2739 15.0097C18.261 15.3287 18.2481 15.5961 18.2417 15.6025C18.2352 15.609 17.5909 15.6219 16.8047 15.6315L15.3807 15.6509L15.4001 15.2353C15.4129 15.0065 15.4226 13.4375 15.4226 11.7493V8.67575L15.516 8.6983C15.5708 8.70797 15.6191 8.70475 15.632 8.68542C15.6578 8.64031 15.7126 8.64031 15.7126 8.68219Z" fill="#DA291C"/>
<path d="M0.0773223 7.38059C0.0644353 7.39348 0.05477 9.19122 0.05477 11.3756C0.05477 13.5599 0.0418829 15.3545 0.0289959 15.3641C0.0128871 15.3738 0 15.7217 0 16.1406V16.8977L0.0773223 16.946C0.186862 17.0201 3.00591 17.0169 3.08645 16.9428C3.11545 16.917 3.16699 16.8945 3.19921 16.8945C3.32486 16.9009 3.55038 16.9363 3.5826 16.9589C3.60193 16.9718 3.89189 16.9879 4.2334 16.9911L4.84876 16.9976L4.86809 16.8751C4.87775 16.8075 4.88097 16.4885 4.87453 16.1631C4.86486 15.6702 4.8552 15.5639 4.81009 15.5155C4.74244 15.4414 4.73277 15.0387 4.79399 14.926C4.84231 14.839 4.84553 14.7069 4.86486 12.5483C4.87453 11.6881 4.89064 10.8182 4.90353 10.612C4.92608 10.2608 4.89064 9.91934 4.8262 9.82591C4.81332 9.80658 4.81976 9.55528 4.84231 9.2621C4.89708 8.55653 4.90997 7.58678 4.86486 7.56101C4.84876 7.54812 4.8262 7.51913 4.81654 7.49335C4.80043 7.4418 4.69411 7.41603 4.69411 7.46113C4.69411 7.48046 4.678 7.48369 4.66189 7.47402C4.64256 7.46113 4.63612 7.44503 4.64256 7.43214C4.64901 7.41925 4.39127 7.40636 4.06909 7.40314C3.75013 7.39992 2.72561 7.38703 1.79452 7.37737C0.863433 7.36448 0.0902094 7.3677 0.0773223 7.38059ZM0.666905 8.81105C0.666905 8.83361 0.686236 8.83361 0.728119 8.81105C0.824772 8.76273 2.57419 8.76595 2.62574 8.8175C2.65796 8.84972 2.67406 8.84972 2.6934 8.81428C2.72883 8.75628 2.81904 8.7885 3.09934 8.94959C3.56972 9.22022 3.91767 9.67126 4.01754 10.1384C4.08198 10.4316 4.04331 11.237 3.94344 11.6172C3.81779 12.094 3.62126 12.4355 3.39252 12.5805L3.28298 12.645L3.54716 13.4182C3.69214 13.8402 3.82101 14.1978 3.83068 14.2075C3.84034 14.2204 3.86934 14.1463 3.89189 14.0464C3.92089 13.9079 3.94988 13.8531 4.00788 13.8273C4.09486 13.7887 4.09808 13.7693 4.03365 13.6437C3.97888 13.5342 3.99821 13.4504 4.0852 13.4504C4.15608 13.4504 4.21085 13.5406 4.21085 13.6566C4.21085 13.7758 4.26562 13.7597 4.32039 13.6276C4.39771 13.4407 4.41704 13.2925 4.37193 13.2055C4.32361 13.1218 4.34294 13.0767 4.41382 13.1057C4.48147 13.1314 4.50403 13.3537 4.46859 13.6147C4.44926 13.7404 4.42993 13.8563 4.42026 13.8692C4.40737 13.8918 4.4267 14.1495 4.50081 14.9807C4.52014 15.1934 4.53947 15.3963 4.53947 15.4318C4.54269 15.4672 4.56524 15.522 4.59101 15.551C4.63612 15.6025 4.6329 15.609 4.57813 15.609C4.45892 15.609 4.41382 15.5381 4.3816 15.3029C4.34616 15.0387 4.2785 14.6682 4.26239 14.6489C4.22373 14.6102 4.20762 14.6747 4.19152 14.9678C4.17541 15.1998 4.18507 15.3029 4.22373 15.4124C4.31394 15.6541 4.3526 15.6412 3.5826 15.6412C3.16055 15.6412 2.86415 15.6283 2.81582 15.6058C2.75139 15.5768 2.7095 15.4576 2.47754 14.6489C2.03938 13.125 2.06515 13.1927 1.95239 13.1927H1.85896V14.4491V15.7056H1.26938C0.853768 15.7056 0.666905 15.6927 0.641131 15.667C0.615357 15.6412 0.60247 15.464 0.60247 15.0838C0.60247 14.7842 0.589583 14.5136 0.570252 14.4814C0.5477 14.4395 0.5477 14.4137 0.570252 14.4008C0.612135 14.375 0.612135 12.9993 0.570252 12.777C0.5477 12.6578 0.550922 12.5934 0.576696 12.5483C0.605692 12.5032 0.605692 12.4581 0.573474 12.3582C0.5477 12.2648 0.544478 12.2068 0.570252 12.1649C0.589583 12.123 0.592805 12.0747 0.573474 12.0199C0.550922 11.9652 0.550922 11.9362 0.579918 11.9233C0.608914 11.9136 0.605692 11.9007 0.573474 11.8782C0.538035 11.8524 0.534813 11.8331 0.563809 11.8009C0.586361 11.7719 0.589583 11.7396 0.570252 11.7106C0.528369 11.6462 0.528369 10.8504 0.570252 10.7763C0.592805 10.7344 0.592805 10.7087 0.570252 10.6958C0.525148 10.6668 0.528369 8.92382 0.570252 8.84005C0.605692 8.77561 0.666905 8.75628 0.666905 8.81105Z" fill="#DA291C"/>
<path d="M1.84933 10.2834C1.83645 10.2931 1.82678 10.6249 1.82678 11.018C1.82678 11.8009 1.83967 11.8556 1.99431 11.7719C2.12318 11.7042 3.01239 11.1017 3.03172 11.0695C3.07361 11.0051 2.9995 10.9406 2.49369 10.6056C2.00076 10.2802 1.90088 10.2319 1.84933 10.2834Z" fill="#DA291C"/>
<path d="M3.97561 14.1817C3.96595 14.1978 3.9434 14.2623 3.92729 14.3299C3.89829 14.4266 3.90473 14.4846 3.95306 14.6199L4.01427 14.7874V14.4717C4.0175 14.1785 4.01105 14.1237 3.97561 14.1817Z" fill="#DA291C"/>
<path d="M5.43832 7.50303C5.39966 7.5739 5.39966 7.65123 5.43188 7.99596C5.45443 8.2247 5.46409 8.47278 5.45121 8.55332C5.43832 8.63386 5.41577 9.82914 5.39966 11.2113C5.38355 12.5934 5.35778 13.8757 5.34811 14.0625C5.31267 14.6167 5.33844 15.6799 5.39966 16.0117C5.42543 16.1535 5.43188 16.3468 5.41899 16.5304C5.38999 16.9782 5.19991 16.9364 7.29406 16.9331C8.26381 16.9331 9.17234 16.9202 9.31088 16.9106L9.55896 16.888V12.1939V7.49658L9.34632 7.47403C9.22711 7.46114 8.85983 7.4547 8.53121 7.4547C8.20259 7.45792 7.38104 7.45148 6.70769 7.43859L5.48342 7.41604L5.43832 7.50303ZM8.94682 9.32654V9.93868H8.27025H7.59368V10.6958V11.4529H8.23481H8.87594L8.89849 12.0328C8.91783 12.4742 8.91138 12.6256 8.88239 12.6611C8.85017 12.6997 8.73096 12.7094 8.2187 12.7094C7.8772 12.7094 7.59046 12.7223 7.58079 12.7384C7.57113 12.7513 7.55502 13.1218 7.54213 13.5599L7.51958 14.3525H8.19937H8.88239V14.9807V15.609H7.55502H6.23087L6.2502 13.6018C6.26309 12.5 6.27276 10.9503 6.27276 10.1578V8.72085L7.60979 8.71763L8.94682 8.71119V9.32654Z" fill="#DA291C"/>
<path d="M10.1163 7.48371C10.0906 7.52559 10.0841 7.6158 10.1002 7.75112C10.1131 7.86388 10.1196 8.14417 10.1163 8.37614C10.1131 8.60489 10.1035 9.78083 10.1002 10.9858C10.0938 12.1907 10.0777 13.1927 10.0648 13.212C10.0551 13.2313 10.0422 13.502 10.039 13.808C10.0358 14.1173 10.0229 14.3847 10.0068 14.4041C9.99069 14.4202 9.98747 14.5523 9.99714 14.694C10.0036 14.8326 10.0165 15.1515 10.0229 15.3996C10.0519 16.5175 10.0712 16.8139 10.1325 16.8752C10.184 16.9235 10.2517 16.9299 10.7671 16.9267C11.4824 16.917 11.8174 16.917 12.0075 16.9235C12.5101 16.9396 13.1609 16.9235 13.2833 16.8977C13.3864 16.8752 13.4476 16.8752 13.496 16.9009C13.5411 16.9267 13.6699 16.9299 13.8955 16.9138L14.2305 16.8913V12.1939V7.49982L14.063 7.47727C13.9696 7.4676 13.0514 7.44827 12.0236 7.43861C10.1743 7.41928 10.155 7.41928 10.1163 7.48371ZM13.6442 8.87551C13.6506 8.95606 13.6474 9.22669 13.6345 9.47798L13.612 9.9387H12.9386H12.2653V10.6958V11.4529H12.9257H13.5862V12.0715C13.5862 12.6514 13.5636 12.8351 13.5089 12.7449C13.4928 12.7223 13.2866 12.7094 12.8774 12.7094C12.3555 12.7094 12.2685 12.7159 12.2524 12.761C12.2427 12.79 12.233 13.1572 12.233 13.5825V14.3525H12.8935H13.554V14.9808V15.609H12.2298H10.9025L10.9218 15.3416C10.9347 15.1966 10.9443 13.6469 10.9443 11.8943V8.71443L12.291 8.72087L13.6345 8.73053L13.6442 8.87551Z" fill="#DA291C"/>
<path d="M20.5194 8.6725L20.1199 8.68538L20.1328 10.8343C20.136 12.0167 20.1521 12.9897 20.165 12.9993C20.1746 13.009 20.1746 13.1475 20.165 13.3054C20.1521 13.4665 20.1489 14.0528 20.1585 14.6102L20.1746 15.6251L20.9221 15.6347L21.6728 15.6412L21.6792 14.5232L21.6889 13.402L22.2205 13.3473C22.5491 13.3151 22.8229 13.27 22.9421 13.2281C23.8732 12.8995 24.3114 11.8266 24.0923 10.4058C24.0021 9.81945 23.957 9.6648 23.7959 9.42639C23.5575 9.06877 23.1032 8.81748 22.4782 8.70149C22.2172 8.64994 21.6985 8.6435 20.5194 8.6725ZM22.3719 10.5411C22.868 10.873 22.9937 10.9664 22.9937 11.0244C22.9937 11.0856 22.8777 11.1758 22.3848 11.5044C21.9498 11.7944 21.7533 11.9071 21.7018 11.8975L21.6244 11.8878L21.6148 11.0534C21.6083 10.2254 21.618 10.132 21.7146 10.132C21.7372 10.132 22.0304 10.3156 22.3719 10.5411Z" fill="#DA291C"/>
<path d="M25.0042 8.68538C24.9945 8.70471 24.9526 8.71116 24.9107 8.70149L24.8399 8.68216L24.8205 9.38451C24.8076 9.7679 24.798 11.3337 24.798 12.8608V15.6412H25.6292C26.0835 15.6412 26.7278 15.6315 27.0564 15.6186L27.6557 15.5993L27.6621 15.1289C27.6653 14.8712 27.675 14.6102 27.6847 14.5522C27.7201 14.3621 27.6815 14.3557 26.8374 14.3525H26.0867V11.5334V8.71438H25.5873C25.2748 8.71438 25.0879 8.70149 25.0879 8.68216C25.0879 8.64028 25.0332 8.64028 25.0042 8.68538Z" fill="#DA291C"/>
<path d="M35.6714 8.68216C35.6842 8.70472 35.5135 8.70794 35.1462 8.69505L34.5985 8.6725L34.5598 8.86258C34.5373 8.96568 34.4825 9.15254 34.4406 9.27819C34.3955 9.40062 34.3569 9.52627 34.3536 9.55204C34.3504 9.57781 34.3214 9.67124 34.2924 9.76145C34.2634 9.84844 34.2409 9.95154 34.2409 9.98698C34.2409 10.0772 34.0959 10.6797 34.0766 10.6797C34.0637 10.6797 34.025 10.5701 33.9864 10.438C33.9477 10.3059 33.7834 9.85489 33.6223 9.43928L33.3259 8.68216H32.6719H32.0146V8.84003C32.0146 8.94635 32.0404 9.043 32.0984 9.15254C32.2531 9.43928 33.0682 11.8073 33.2228 12.413C33.2518 12.5257 33.2711 12.6933 33.2647 12.7835C33.2615 12.8769 33.2679 12.9993 33.284 13.0541C33.3066 13.154 33.3034 13.1604 33.226 13.1604C33.1197 13.1604 33.1165 13.212 33.2196 13.2377C33.3066 13.2603 33.3581 13.3537 33.3001 13.3892C33.2679 13.4085 33.2679 13.6469 33.3001 14.4878C33.3227 15.0774 33.3452 15.5832 33.3549 15.609C33.3646 15.6508 33.4644 15.6573 34.0444 15.6476L34.7209 15.638V15.3254C34.7209 15.1547 34.7048 14.4878 34.6887 13.8434L34.6565 12.6739L34.8047 12.2003C34.8852 11.9394 35.0302 11.5302 35.1301 11.2918C35.2267 11.0534 35.3846 10.5991 35.478 10.2834C35.7068 9.52304 35.8389 9.18476 35.9162 9.12999C35.9323 9.12032 35.9581 9.04622 35.9742 8.96246L36 8.81103L35.8614 8.73049C35.7197 8.64672 35.6359 8.62739 35.6714 8.68216Z" fill="#DA291C"/>
<path d="M28.8766 12.0522C28.5963 13.8918 28.3579 15.4479 28.3483 15.5091L28.3322 15.6186L28.9475 15.6025C29.289 15.5961 29.5725 15.58 29.5822 15.5735C29.5919 15.5639 29.6209 15.3545 29.6466 15.1064C29.6724 14.8615 29.7014 14.5973 29.7111 14.52L29.7304 14.3847H30.2072C30.4714 14.3847 30.7485 14.3944 30.829 14.404L30.974 14.4234L31.1319 14.9872C31.2189 15.2965 31.2994 15.5671 31.3123 15.5864C31.3284 15.6122 31.5249 15.6283 31.9534 15.6348L32.572 15.6476L32.5559 15.5703C32.5366 15.4672 31.1029 8.76273 31.0996 8.75629C31.0964 8.75307 30.713 8.74018 30.2427 8.72729L29.3889 8.70474L28.8766 12.0522ZM30.32 11.2016C30.4907 11.9716 30.6808 13.125 30.6518 13.2023C30.6357 13.2507 30.5777 13.2571 30.2717 13.2571H29.9108L29.9334 13.0541C29.9656 12.7513 30.1782 11.1243 30.1943 11.0405C30.2233 10.9116 30.2684 10.9664 30.32 11.2016Z" fill="#DA291C"/>
</svg>
