<svg width="36" height="24" viewBox="0 0 36 24" fill="none" xmlns="http://www.w3.org/2000/svg">
<g clip-path="url(#clip0_1_9331)">
<path d="M3.13068 10.6496L1.76599 12.0143L2.07138 12.3197L2.37437 12.6227H3.21657H4.05637V13.4625V14.3047L4.49775 13.8633L4.93912 13.4219V13.0235V12.6227H5.33278H5.72644V12.2648V11.9069H5.33278H4.93912V10.8142V9.7239L4.71724 9.50201L4.49775 9.28252L3.13068 10.6496ZM4.05637 11.4178V11.9069H3.56251H3.06626L3.55535 11.4178C3.82495 11.1482 4.04683 10.9287 4.04921 10.9287C4.05399 10.9287 4.05637 11.1482 4.05637 11.4178Z" fill="#282831"/>
<path d="M24.5337 11.8997C24.0995 12.8541 23.7345 13.6557 23.7273 13.6772C23.7106 13.7177 23.7392 13.7201 24.1138 13.7201H24.517L24.6363 13.4267L24.7532 13.1356L25.364 13.1284L25.9747 13.1237L26.1012 13.4219L26.2253 13.7201H26.6404H27.0555L27.0173 13.6414C26.9983 13.6008 26.6356 12.8016 26.2109 11.8711C25.5191 10.3466 25.4356 10.1772 25.3831 10.17C25.3282 10.1629 25.2829 10.2559 24.5337 11.8997ZM25.5596 12.019C25.6622 12.2672 25.7433 12.4747 25.7433 12.4843C25.7433 12.4962 25.5715 12.5034 25.3592 12.5034C25.1373 12.5034 24.9799 12.4938 24.9846 12.4819C25.0491 12.3006 25.352 11.5729 25.364 11.5729C25.3711 11.5729 25.4594 11.7733 25.5596 12.019Z" fill="#282831"/>
<path d="M8.63757 10.4038V10.5947H9.19824H9.75891V12.1574V13.7201H9.94977H10.1406V12.1574V10.5947H10.7132H11.2858V10.4038V10.213H9.9617H8.63757V10.4038Z" fill="#282831"/>
<path d="M11.9774 11.9666V13.7201H12.1802H12.383V12.9089V12.0978H13.2658H14.1485V12.9089V13.7201H14.3513H14.5541L14.5493 11.9713L14.5422 10.2249L14.3465 10.2177L14.1485 10.2106V10.9764V11.7399H13.2658H12.383L12.3782 10.9812L12.3711 10.2249L12.1754 10.2177L11.9774 10.2106V11.9666Z" fill="#282831"/>
<path d="M15.5322 11.9666V13.7201H16.5939H17.658L17.6508 13.534L17.6437 13.3503L16.7919 13.3432L15.9378 13.3384V12.7181V12.0978H16.7251H17.5125V11.9188V11.7399H16.7251H15.9378V11.1673V10.5947H16.7609H17.584V10.4038V10.213H16.5581H15.5322V11.9666Z" fill="#282831"/>
<path d="M18.3949 11.9642V13.7201H18.7766H19.1584V13.138V12.5582L19.5353 12.5439C19.9576 12.5296 20.1055 12.4986 20.3751 12.3674C20.7736 12.1741 20.9477 11.8735 20.9477 11.3773C20.9477 10.8929 20.7616 10.5852 20.3393 10.3752C20.0793 10.244 19.9695 10.2297 19.1536 10.2201L18.3949 10.2082V11.9642ZM19.8646 10.9407C20.0841 11.0051 20.2057 11.2079 20.1723 11.4512C20.1485 11.623 20.0721 11.7399 19.9337 11.8091C19.8264 11.8616 19.7787 11.8711 19.4876 11.8783L19.1584 11.8878V11.3963V10.9049H19.4518C19.6427 10.9049 19.7882 10.9168 19.8646 10.9407Z" fill="#282831"/>
<path d="M21.5684 11.9666V13.7201H22.5585H23.5486V13.3861V13.0521L22.9354 13.0473L22.3199 13.0402L22.3127 11.6254L22.308 10.213H21.9382H21.5684V11.9666Z" fill="#282831"/>
<path d="M26.6024 10.2225C26.6024 10.2297 26.8935 10.7283 27.2466 11.3319L27.8908 12.427V13.0736V13.7201H28.2725H28.6542V13.0593V12.3984L29.2912 11.3248C29.6396 10.7331 29.9306 10.2416 29.9354 10.2297C29.9402 10.2201 29.7469 10.213 29.5036 10.213H29.0646L28.6852 10.9192C28.4753 11.3081 28.294 11.6254 28.282 11.6254C28.2701 11.6278 28.0888 11.3081 27.8812 10.9192L27.4995 10.213H27.0509C26.8052 10.213 26.6024 10.2177 26.6024 10.2225Z" fill="#282831"/>
<path d="M30.3481 11.9666V13.7201H31.4695H32.5908V13.3861V13.0521H31.8393H31.0877V12.6465V12.2409H31.7796H32.4715V11.9069V11.5729H31.7796H31.0877V11.2389V10.9049H31.8154H32.5431V10.5589V10.213H31.4456H30.3481V11.9666Z" fill="#282831"/>
<path d="M33.2826 11.9642V13.7201H33.6643H34.0461L34.0508 12.928L34.058 12.1359L34.5805 12.928L35.1006 13.7201H35.5515H36L35.5133 13.033L35.029 12.3483L35.1865 12.2982C35.4966 12.2027 35.709 12.0286 35.8283 11.7757C35.8903 11.6421 35.8951 11.6135 35.8951 11.3105C35.8951 10.9931 35.8927 10.9836 35.8163 10.8285C35.7209 10.6305 35.5682 10.4802 35.3726 10.3824C35.091 10.244 34.9956 10.2321 34.1009 10.2201L33.2826 10.2082V11.9642ZM34.7713 10.9168C35.0075 10.9788 35.1054 11.079 35.134 11.2914C35.165 11.5132 35.0505 11.697 34.8334 11.7781C34.7594 11.8043 34.6186 11.821 34.3872 11.8306L34.0461 11.8425V11.3606V10.881H34.3395C34.5256 10.881 34.6831 10.8953 34.7713 10.9168Z" fill="#282831"/>
<path fill-rule="evenodd" clip-rule="evenodd" d="M7.98799 9.79569L7.21995 11.5745L5.80722 10.0225L6.32456 9.9827C6.32456 9.9827 5.92659 9.12276 4.73273 8.58978C4.22662 8.36384 3.79059 8.17079 2.74296 8.23163C1.60378 8.29778 1.05708 8.34656 2.29797 8.09012C3.53886 7.83367 4.60652 7.76872 5.72761 8.23167C7.10236 8.79936 7.59801 9.82352 7.59801 9.82352L7.98799 9.79569Z" fill="url(#paint0_linear_1_9331)"/>
<path fill-rule="evenodd" clip-rule="evenodd" d="M1.90547 8.05927L3.68429 8.82731L2.13224 10.24L2.09247 9.72271C2.09247 9.72271 1.23253 10.1207 0.699557 11.3145C0.473613 11.8206 0.280561 12.2567 0.341395 13.3043C0.407546 14.4435 0.456329 14.9902 0.199886 13.7493C-0.0565564 12.5084 -0.121504 11.4407 0.341443 10.3196C0.909137 8.9449 1.93329 8.44925 1.93329 8.44925L1.90547 8.05927Z" fill="url(#paint1_linear_1_9331)"/>
<path fill-rule="evenodd" clip-rule="evenodd" d="M0.201782 14.0947L0.969826 12.3158L2.38256 13.8679L1.86522 13.9077C1.86522 13.9077 2.26319 14.7676 3.45705 15.3006C3.96316 15.5265 4.39919 15.7196 5.44682 15.6587C6.586 15.5926 7.1327 15.5438 5.89181 15.8002C4.65091 16.0567 3.58326 16.1216 2.46217 15.6587C1.08742 15.091 0.59177 14.0668 0.59177 14.0668L0.201782 14.0947Z" fill="url(#paint2_linear_1_9331)"/>
<path fill-rule="evenodd" clip-rule="evenodd" d="M6.2837 15.8311L4.50488 15.063L6.05694 13.6503L6.0967 14.1676C6.0967 14.1676 6.95664 13.7697 7.48962 12.5758C7.71556 12.0697 7.90861 11.6337 7.84778 10.586C7.78163 9.44685 7.73284 8.90016 7.98929 10.1411C8.24573 11.3819 8.31068 12.4496 7.84773 13.5707C7.28004 14.9454 6.25588 15.4411 6.25588 15.4411L6.2837 15.8311Z" fill="url(#paint3_linear_1_9331)"/>
</g>
<defs>
<linearGradient id="paint0_linear_1_9331" x1="7.77012" y1="10.3723" x2="1.60184" y2="8.18354" gradientUnits="userSpaceOnUse">
<stop stop-color="#DA001F"/>
<stop offset="0.280076" stop-color="#DA001F"/>
<stop offset="0.871162" stop-color="#DA001F" stop-opacity="0"/>
</linearGradient>
<linearGradient id="paint1_linear_1_9331" x1="2.48206" y1="8.27713" x2="0.293306" y2="14.4454" gradientUnits="userSpaceOnUse">
<stop stop-color="#DA001F"/>
<stop offset="0.280076" stop-color="#DA001F"/>
<stop offset="0.871162" stop-color="#DA001F" stop-opacity="0"/>
</linearGradient>
<linearGradient id="paint2_linear_1_9331" x1="0.419204" y1="13.5181" x2="6.58749" y2="15.7068" gradientUnits="userSpaceOnUse">
<stop stop-color="#DA001F"/>
<stop offset="0.280076" stop-color="#DA001F"/>
<stop offset="0.871162" stop-color="#DA001F" stop-opacity="0"/>
</linearGradient>
<linearGradient id="paint3_linear_1_9331" x1="5.70723" y1="15.6132" x2="7.89599" y2="9.44493" gradientUnits="userSpaceOnUse">
<stop stop-color="#DA001F"/>
<stop offset="0.280076" stop-color="#DA001F"/>
<stop offset="0.871162" stop-color="#DA001F" stop-opacity="0"/>
</linearGradient>
<clipPath id="clip0_1_9331">
<rect width="36" height="24" fill="white"/>
</clipPath>
</defs>
</svg>
