<svg width="36" height="24" viewBox="0 0 36 24" fill="none" xmlns="http://www.w3.org/2000/svg">
<path d="M15.7569 2.36772C16.1982 2.18386 16.6762 2.07354 17.1543 2C17.2646 2.95608 17.522 3.87538 17.9633 4.68437C18.4045 3.83861 18.6619 2.91931 18.7723 2C19.2503 2.07354 19.7283 2.18386 20.1696 2.36772C20.0593 3.13994 19.8754 3.87538 19.5812 4.61083C20.3535 4.31665 21.0521 3.83861 21.6037 3.21348C22.0082 3.50766 22.3392 3.87538 22.6333 4.24311C21.6773 5.3095 20.427 6.04495 19.0297 6.30235C19.5077 6.78039 19.9857 7.14811 20.4638 7.51584C21.3095 6.67007 22.3759 6.00817 23.5159 5.64045C23.7365 6.08172 23.8468 6.55976 23.9571 7.0378C23.1849 7.2952 22.4863 7.6997 21.8611 8.21451C22.5598 8.47191 23.2952 8.619 24.0675 8.619C24.0307 9.13381 23.9571 9.61185 23.8101 10.0899C21.6037 9.9428 19.5077 8.91318 18 7.25843C16.4924 8.94995 14.3964 9.97958 12.19 10.0899C12.0429 9.61185 11.9694 9.13381 11.9326 8.619C12.6681 8.58223 13.4403 8.43514 14.139 8.17774C13.5138 7.66293 12.8152 7.25843 12.0429 7.00103C12.1165 6.52299 12.2636 6.04495 12.4474 5.60368C13.5874 5.9714 14.617 6.6333 15.4995 7.47906C16.0143 7.14811 16.4924 6.74362 16.8969 6.26558C15.4995 6.04495 14.2125 5.3095 13.2932 4.20633C13.5874 3.83861 13.9551 3.47089 14.3228 3.17671C14.8744 3.80184 15.5731 4.27988 16.3453 4.57406C16.0879 3.87538 15.8672 3.13994 15.7569 2.36772Z" fill="#F96432"/>
<path d="M15.2053 9.57504C15.6466 9.35441 16.0879 9.13378 16.4924 8.8396C17.0072 9.5015 17.522 10.2002 18 10.8621C18.5148 10.2002 19.0296 9.5015 19.5077 8.8396C19.9122 9.09701 20.3534 9.35441 20.7947 9.57504C20.1328 10.5311 19.3974 11.4137 18.7355 12.3697C18.7355 13.0684 18.7355 13.7671 18.7355 14.4658C18.2574 14.5393 17.7794 14.5393 17.3013 14.4658V12.3697L15.2053 9.57504Z" fill="#F96432"/>
<path d="M27.763 17.395C28.1675 17.1376 28.6823 17.0273 29.1603 17.1376C29.6016 17.2111 30.0429 17.395 30.4106 17.6892L29.8958 18.4246C29.528 18.1304 29.05 17.9833 28.6087 17.9833C28.3881 18.0201 28.1675 18.1672 28.2042 18.3878C28.241 18.6085 28.3881 18.7188 28.5352 18.7555C29.05 18.9762 29.6384 19.013 30.1164 19.3807C30.5944 19.8219 30.668 20.5574 30.337 21.0722C30.1164 21.4031 29.7487 21.6238 29.3442 21.6606C28.5352 21.7709 27.7262 21.5135 27.1011 20.9619L27.6527 20.2632C27.9836 20.5574 28.3881 20.7412 28.8294 20.8148C29.05 20.8516 29.3074 20.8148 29.4913 20.6309C29.5648 20.5574 29.6016 20.4103 29.6016 20.3C29.5648 20.1897 29.4913 20.0793 29.381 20.0426C28.8294 19.7484 28.1675 19.7484 27.6527 19.3439C27.3953 19.1233 27.2482 18.7555 27.2482 18.3878C27.2482 18.0201 27.432 17.6156 27.763 17.395Z" fill="black"/>
<path d="M5.40546 17.3949C5.95705 17.1008 6.61895 17.0272 7.2073 17.2111C7.57502 17.3214 7.94275 17.4685 8.23693 17.7259L7.6118 18.4613C7.31762 18.2039 6.98667 18.0201 6.58218 18.0201C6.17768 17.9833 5.77319 18.1672 5.51578 18.4613C5.00097 19.0865 5.07451 20.0058 5.66287 20.5574C6.17768 20.9618 6.87635 20.9986 7.42794 20.5941C7.42794 20.447 7.42794 20.2632 7.42794 20.1161H6.98667C6.98667 19.8587 6.98667 19.6013 6.98667 19.3439H8.34724V21.0354C7.75889 21.5502 6.9499 21.8076 6.17768 21.7341C5.58932 21.6605 5.07451 21.3663 4.70679 20.9251C4.3023 20.3735 4.11843 19.638 4.26552 18.9394C4.37584 18.2775 4.81711 17.6891 5.40546 17.3949Z" fill="black"/>
<path d="M10.0389 17.4685C10.6272 17.1008 11.3259 17.0272 11.9878 17.1743C12.3555 17.2846 12.6865 17.4317 12.9806 17.6891C12.76 17.9465 12.5761 18.2039 12.3923 18.4246C12.0981 18.1304 11.7304 17.9833 11.3259 17.9833C10.9214 17.9465 10.4801 18.1671 10.2595 18.4981C9.81822 19.1232 9.92854 20.0058 10.4801 20.5206C10.9949 20.8883 11.6936 20.8883 12.2084 20.5206V20.0425H11.7671V19.2703H13.1277C13.1277 19.8219 13.1277 20.4103 13.1277 20.9618C12.6129 21.4031 11.9878 21.6605 11.3259 21.6605C10.7008 21.6973 10.0756 21.4766 9.59759 21.0354C9.15632 20.5573 8.93569 19.9322 8.97246 19.2703C9.00923 18.5716 9.41373 17.873 10.0389 17.4685Z" fill="black"/>
<path d="M0 17.1743C0.367722 17.1743 0.735445 17.1743 1.10317 17.1743C1.43412 17.8362 1.80184 18.4981 2.13279 19.16L3.19919 17.1743H4.26558C3.714 18.2039 3.12564 19.1968 2.57406 20.2264C2.57406 20.7045 2.57406 21.1825 2.57406 21.6605H1.61798C1.61798 21.1825 1.61798 20.7045 1.61798 20.2264C1.13994 19.2336 0.551584 18.2039 0 17.1743Z" fill="black"/>
<path d="M17.3933 18.2775C16.952 17.5788 16.1798 17.1376 15.3708 17.2111H13.8999C13.8999 18.7188 13.8999 20.1897 13.8999 21.6973C14.4515 21.6973 15.0398 21.6973 15.5914 21.6973C16.4372 21.6605 17.1726 21.1825 17.5404 20.4103C17.8345 19.7116 17.761 18.9026 17.3933 18.2775ZM16.143 20.5574C15.7753 20.8148 15.2972 20.778 14.856 20.778C14.856 19.8587 14.856 18.9762 14.856 18.0569C15.2972 18.0569 15.7385 18.0201 16.1062 18.2407C16.474 18.4981 16.6946 18.9394 16.6946 19.3807C16.6946 19.8219 16.5107 20.3 16.143 20.5574Z" fill="black"/>
<path d="M18.3494 17.1743C19.0113 17.1743 19.6732 17.1743 20.3351 17.1743C20.8867 17.1743 21.4015 17.4317 21.6956 17.9098C21.9898 18.4981 21.8795 19.2336 21.4382 19.7116C21.2911 19.8587 21.1073 19.969 20.9234 20.0426L21.9898 21.6605H20.8867C20.5925 21.1825 20.2615 20.7045 19.9673 20.2264H19.7099V19.3439C20.0409 19.3439 20.3718 19.4174 20.666 19.2336C20.8499 19.0865 20.9234 18.8658 20.9234 18.6452C20.8867 18.4246 20.7763 18.2407 20.5557 18.1304C20.1512 18.0569 19.7467 18.0201 19.3422 18.0569V21.6605H18.3861C18.3494 20.1896 18.3494 18.682 18.3494 17.1743Z" fill="black"/>
<path d="M22.2839 21.6973L24.1593 17.1743H25.0419L26.9172 21.6973H25.8876C25.7405 21.3664 25.6302 21.0354 25.4831 20.6677H24.0122L24.3432 19.8219H25.1154L24.527 18.351C24.0858 19.4542 23.6445 20.5941 23.2032 21.6973H22.2839Z" fill="black"/>
<path d="M32.2124 17.1743H31.2563V21.6605H32.2124V17.1743Z" fill="black"/>
<path d="M33.0215 17.1743H33.9775C33.9775 18.3878 33.9775 19.5645 33.9775 20.778H36V21.6605H33.0215C33.0215 20.1896 32.9847 18.682 33.0215 17.1743Z" fill="black"/>
</svg>
